{
  "header": {
    "keySignatures": [
      {
        "key": "C",
        "scale": "major",
        "ticks": 0
      }
    ],
    "meta": [],
    "name": "Paranoid",
    "ppq": 192,
    "tempos": [
      {
        "bpm": 153.85009872048002,
        "ticks": 0
      },
      {
        "bpm": 153.85009872048002,
        "ticks": 3072
      },
      {
        "bpm": 154.99990958338608,
        "ticks": 4608
      },
      {
        "bpm": 159.0002067002687,
        "ticks": 6144
      },
      {
        "bpm": 153.85009872048002,
        "ticks": 9168
      },
      {
        "bpm": 153.85009872048002,
        "ticks": 12192
      },
      {
        "bpm": 153.85009872048002,
        "ticks": 15264
      },
      {
        "bpm": 153.85009872048002,
        "ticks": 18336
      },
      {
        "bpm": 154.000154000154,
        "ticks": 21360
      },
      {
        "bpm": 153.85009872048002,
        "ticks": 30528
      },
      {
        "bpm": 153.85009872048002,
        "ticks": 33552
      },
      {
        "bpm": 153.85009872048002,
        "ticks": 36576
      },
      {
        "bpm": 153.85009872048002,
        "ticks": 39600
      },
      {
        "bpm": 153.85009872048002,
        "ticks": 42624
      },
      {
        "bpm": 153.85009872048002,
        "ticks": 45648
      },
      {
        "bpm": 153.85009872048002,
        "ticks": 48672
      },
      {
        "bpm": 153.85009872048002,
        "ticks": 51696
      },
      {
        "bpm": 153.85009872048002,
        "ticks": 54720
      },
      {
        "bpm": 153.85009872048002,
        "ticks": 57744
      },
      {
        "bpm": 153.85009872048002,
        "ticks": 60768
      },
      {
        "bpm": 153.85009872048002,
        "ticks": 63792
      },
      {
        "bpm": 153.85009872048002,
        "ticks": 66816
      },
      {
        "bpm": 153.85009872048002,
        "ticks": 69840
      },
      {
        "bpm": 153.85009872048002,
        "ticks": 72912
      },
      {
        "bpm": 153.85009872048002,
        "ticks": 75984
      },
      {
        "bpm": 153.85009872048002,
        "ticks": 79008
      }
    ],
    "timeSignatures": [
      {
        "ticks": 0,
        "timeSignature": [
          4,
          4
        ],
        "measures": 0
      }
    ]
  },
  "tracks": [
    {
      "channel": 0,
      "controlChanges": {},
      "pitchBends": [],
      "instrument": {
        "family": "piano",
        "name": "acoustic grand piano",
        "number": 0
      },
      "name": "Paranoid",
      "notes": [],
      "endOfTrackTicks": 0
    },
    {
      "channel": 0,
      "controlChanges": {
        "7": [
          {
            "number": 7,
            "ticks": 0,
            "time": 0,
            "value": 1
          },
          {
            "number": 7,
            "ticks": 576,
            "time": 1.16997,
            "value": 1
          }
        ],
        "10": [
          {
            "number": 10,
            "ticks": 0,
            "time": 0,
            "value": 0.4881889763779528
          }
        ]
      },
      "pitchBends": [],
      "instrument": {
        "family": "bass",
        "name": "electric bass (finger)",
        "number": 33
      },
      "name": "",
      "notes": [],
      "endOfTrackTicks": 82560
    },
    {
      "channel": 1,
      "controlChanges": {},
      "pitchBends": [],
      "instrument": {
        "family": "guitar",
        "name": "distortion guitar",
        "number": 30
      },
      "name": "",
      "notes": [
        {
          "duration": 3.1199199999999996,
          "durationTicks": 1536,
          "midi": 40,
          "name": "E2",
          "ticks": 576,
          "time": 1.16997,
          "velocity": 0.7874015748031497
        },
        {
          "duration": 3.1199199999999996,
          "durationTicks": 1536,
          "midi": 47,
          "name": "B2",
          "ticks": 576,
          "time": 1.16997,
          "velocity": 0.7874015748031497
        },
        {
          "duration": 1.9499500000000003,
          "durationTicks": 960,
          "midi": 40,
          "name": "E2",
          "ticks": 2112,
          "time": 4.28989,
          "velocity": 0.7874015748031497
        },
        {
          "duration": 1.9499500000000003,
          "durationTicks": 960,
          "midi": 47,
          "name": "B2",
          "ticks": 2112,
          "time": 4.28989,
          "velocity": 0.7874015748031497
        },
        {
          "duration": 1.5599600000000002,
          "durationTicks": 768,
          "midi": 40,
          "name": "E2",
          "ticks": 12192,
          "time": 24.542267000000002,
          "velocity": 0.7874015748031497
        },
        {
          "duration": 1.5599600000000002,
          "durationTicks": 768,
          "midi": 47,
          "name": "B2",
          "ticks": 12192,
          "time": 24.542267000000002,
          "velocity": 0.7874015748031497
        },
        {
          "duration": 0.7799799999999983,
          "durationTicks": 384,
          "midi": 36,
          "name": "C2",
          "ticks": 12960,
          "time": 26.102227000000003,
          "velocity": 0.7874015748031497
        },
        {
          "duration": 0.7799799999999983,
          "durationTicks": 384,
          "midi": 43,
          "name": "G2",
          "ticks": 12960,
          "time": 26.102227000000003,
          "velocity": 0.7874015748031497
        },
        {
          "duration": 0.7799800000000019,
          "durationTicks": 384,
          "midi": 38,
          "name": "D2",
          "ticks": 13344,
          "time": 26.882207,
          "velocity": 0.7874015748031497
        },
        {
          "duration": 0.7799800000000019,
          "durationTicks": 384,
          "midi": 45,
          "name": "A2",
          "ticks": 13344,
          "time": 26.882207,
          "velocity": 0.7874015748031497
        },
        {
          "duration": 0.1949949999999987,
          "durationTicks": 96,
          "midi": 52,
          "name": "E3",
          "ticks": 13728,
          "time": 27.662187000000003,
          "velocity": 0.7874015748031497
        },
        {
          "duration": 0.1949949999999987,
          "durationTicks": 96,
          "midi": 59,
          "name": "B3",
          "ticks": 13728,
          "time": 27.662187000000003,
          "velocity": 0.7874015748031497
        },
        {
          "duration": 0.19499500000000225,
          "durationTicks": 96,
          "midi": 52,
          "name": "E3",
          "ticks": 13824,
          "time": 27.857182,
          "velocity": 0.7874015748031497
        },
        {
          "duration": 0.19499500000000225,
          "durationTicks": 96,
          "midi": 59,
          "name": "B3",
          "ticks": 13824,
          "time": 27.857182,
          "velocity": 0.7874015748031497
        },
        {
          "duration": 0.1949949999999987,
          "durationTicks": 96,
          "midi": 52,
          "name": "E3",
          "ticks": 13920,
          "time": 28.052177000000004,
          "velocity": 0.7874015748031497
        },
        {
          "duration": 0.1949949999999987,
          "durationTicks": 96,
          "midi": 59,
          "name": "B3",
          "ticks": 13920,
          "time": 28.052177000000004,
          "velocity": 0.7874015748031497
        },
        {
          "duration": 0.1949949999999987,
          "durationTicks": 96,
          "midi": 52,
          "name": "E3",
          "ticks": 14016,
          "time": 28.247172000000003,
          "velocity": 0.7874015748031497
        },
        {
          "duration": 0.1949949999999987,
          "durationTicks": 96,
          "midi": 59,
          "name": "B3",
          "ticks": 14016,
          "time": 28.247172000000003,
          "velocity": 0.7874015748031497
        },
        {
          "duration": 0.19499500000000225,
          "durationTicks": 96,
          "midi": 52,
          "name": "E3",
          "ticks": 14112,
          "time": 28.442167,
          "velocity": 0.7874015748031497
        },
        {
          "duration": 0.19499500000000225,
          "durationTicks": 96,
          "midi": 59,
          "name": "B3",
          "ticks": 14112,
          "time": 28.442167,
          "velocity": 0.7874015748031497
        },
        {
          "duration": 0.1949949999999987,
          "durationTicks": 96,
          "midi": 52,
          "name": "E3",
          "ticks": 14208,
          "time": 28.637162000000004,
          "velocity": 0.7874015748031497
        },
        {
          "duration": 0.1949949999999987,
          "durationTicks": 96,
          "midi": 59,
          "name": "B3",
          "ticks": 14208,
          "time": 28.637162000000004,
          "velocity": 0.7874015748031497
        },
        {
          "duration": 0.1949949999999987,
          "durationTicks": 96,
          "midi": 52,
          "name": "E3",
          "ticks": 14304,
          "time": 28.832157000000002,
          "velocity": 0.7874015748031497
        },
        {
          "duration": 0.1949949999999987,
          "durationTicks": 96,
          "midi": 59,
          "name": "B3",
          "ticks": 14304,
          "time": 28.832157000000002,
          "velocity": 0.7874015748031497
        },
        {
          "duration": 0.19499500000000225,
          "durationTicks": 96,
          "midi": 52,
          "name": "E3",
          "ticks": 14400,
          "time": 29.027152,
          "velocity": 0.7874015748031497
        },
        {
          "duration": 0.19499500000000225,
          "durationTicks": 96,
          "midi": 59,
          "name": "B3",
          "ticks": 14400,
          "time": 29.027152,
          "velocity": 0.7874015748031497
        },
        {
          "duration": 0.1949949999999987,
          "durationTicks": 96,
          "midi": 52,
          "name": "E3",
          "ticks": 14496,
          "time": 29.222147000000003,
          "velocity": 0.7874015748031497
        },
        {
          "duration": 0.1949949999999987,
          "durationTicks": 96,
          "midi": 59,
          "name": "B3",
          "ticks": 14496,
          "time": 29.222147000000003,
          "velocity": 0.7874015748031497
        },
        {
          "duration": 0.19499500000000225,
          "durationTicks": 96,
          "midi": 52,
          "name": "E3",
          "ticks": 14592,
          "time": 29.417142000000002,
          "velocity": 0.7874015748031497
        },
        {
          "duration": 0.19499500000000225,
          "durationTicks": 96,
          "midi": 59,
          "name": "B3",
          "ticks": 14592,
          "time": 29.417142000000002,
          "velocity": 0.7874015748031497
        },
        {
          "duration": 0.1949949999999987,
          "durationTicks": 96,
          "midi": 52,
          "name": "E3",
          "ticks": 14688,
          "time": 29.612137000000004,
          "velocity": 0.7874015748031497
        },
        {
          "duration": 0.1949949999999987,
          "durationTicks": 96,
          "midi": 59,
          "name": "B3",
          "ticks": 14688,
          "time": 29.612137000000004,
          "velocity": 0.7874015748031497
        },
        {
          "duration": 0.1949949999999987,
          "durationTicks": 96,
          "midi": 52,
          "name": "E3",
          "ticks": 14784,
          "time": 29.807132000000003,
          "velocity": 0.7874015748031497
        },
        {
          "duration": 0.1949949999999987,
          "durationTicks": 96,
          "midi": 59,
          "name": "B3",
          "ticks": 14784,
          "time": 29.807132000000003,
          "velocity": 0.7874015748031497
        },
        {
          "duration": 0.19499500000000225,
          "durationTicks": 96,
          "midi": 52,
          "name": "E3",
          "ticks": 14880,
          "time": 30.002127,
          "velocity": 0.7874015748031497
        },
        {
          "duration": 0.19499500000000225,
          "durationTicks": 96,
          "midi": 59,
          "name": "B3",
          "ticks": 14880,
          "time": 30.002127,
          "velocity": 0.7874015748031497
        },
        {
          "duration": 0.1949949999999987,
          "durationTicks": 96,
          "midi": 52,
          "name": "E3",
          "ticks": 14976,
          "time": 30.197122000000004,
          "velocity": 0.7874015748031497
        },
        {
          "duration": 0.1949949999999987,
          "durationTicks": 96,
          "midi": 59,
          "name": "B3",
          "ticks": 14976,
          "time": 30.197122000000004,
          "velocity": 0.7874015748031497
        },
        {
          "duration": 0.19499500000000225,
          "durationTicks": 96,
          "midi": 52,
          "name": "E3",
          "ticks": 15072,
          "time": 30.392117000000002,
          "velocity": 0.7874015748031497
        },
        {
          "duration": 0.19499500000000225,
          "durationTicks": 96,
          "midi": 59,
          "name": "B3",
          "ticks": 15072,
          "time": 30.392117000000002,
          "velocity": 0.7874015748031497
        },
        {
          "duration": 0.1949949999999987,
          "durationTicks": 96,
          "midi": 52,
          "name": "E3",
          "ticks": 15168,
          "time": 30.587112000000005,
          "velocity": 0.7874015748031497
        },
        {
          "duration": 0.1949949999999987,
          "durationTicks": 96,
          "midi": 59,
          "name": "B3",
          "ticks": 15168,
          "time": 30.587112000000005,
          "velocity": 0.7874015748031497
        },
        {
          "duration": 1.5599599999999967,
          "durationTicks": 768,
          "midi": 40,
          "name": "E2",
          "ticks": 15264,
          "time": 30.782107000000003,
          "velocity": 0.7874015748031497
        },
        {
          "duration": 1.5599599999999967,
          "durationTicks": 768,
          "midi": 47,
          "name": "B2",
          "ticks": 15264,
          "time": 30.782107000000003,
          "velocity": 0.7874015748031497
        },
        {
          "duration": 0.7799800000000019,
          "durationTicks": 384,
          "midi": 36,
          "name": "C2",
          "ticks": 16032,
          "time": 32.342067,
          "velocity": 0.7874015748031497
        },
        {
          "duration": 0.7799800000000019,
          "durationTicks": 384,
          "midi": 43,
          "name": "G2",
          "ticks": 16032,
          "time": 32.342067,
          "velocity": 0.7874015748031497
        },
        {
          "duration": 0.7799800000000019,
          "durationTicks": 384,
          "midi": 38,
          "name": "D2",
          "ticks": 16416,
          "time": 33.122047,
          "velocity": 0.7874015748031497
        },
        {
          "duration": 0.7799800000000019,
          "durationTicks": 384,
          "midi": 45,
          "name": "A2",
          "ticks": 16416,
          "time": 33.122047,
          "velocity": 0.7874015748031497
        },
        {
          "duration": 0.1949949999999987,
          "durationTicks": 96,
          "midi": 52,
          "name": "E3",
          "ticks": 16800,
          "time": 33.902027000000004,
          "velocity": 0.7874015748031497
        },
        {
          "duration": 0.1949949999999987,
          "durationTicks": 96,
          "midi": 59,
          "name": "B3",
          "ticks": 16800,
          "time": 33.902027000000004,
          "velocity": 0.7874015748031497
        },
        {
          "duration": 0.1949949999999987,
          "durationTicks": 96,
          "midi": 52,
          "name": "E3",
          "ticks": 16896,
          "time": 34.097022,
          "velocity": 0.7874015748031497
        },
        {
          "duration": 0.1949949999999987,
          "durationTicks": 96,
          "midi": 59,
          "name": "B3",
          "ticks": 16896,
          "time": 34.097022,
          "velocity": 0.7874015748031497
        },
        {
          "duration": 0.1949950000000058,
          "durationTicks": 96,
          "midi": 52,
          "name": "E3",
          "ticks": 16992,
          "time": 34.292017,
          "velocity": 0.7874015748031497
        },
        {
          "duration": 0.1949950000000058,
          "durationTicks": 96,
          "midi": 59,
          "name": "B3",
          "ticks": 16992,
          "time": 34.292017,
          "velocity": 0.7874015748031497
        },
        {
          "duration": 0.1949949999999987,
          "durationTicks": 96,
          "midi": 52,
          "name": "E3",
          "ticks": 17088,
          "time": 34.48701200000001,
          "velocity": 0.7874015748031497
        },
        {
          "duration": 0.1949949999999987,
          "durationTicks": 96,
          "midi": 59,
          "name": "B3",
          "ticks": 17088,
          "time": 34.48701200000001,
          "velocity": 0.7874015748031497
        },
        {
          "duration": 0.1949949999999987,
          "durationTicks": 96,
          "midi": 52,
          "name": "E3",
          "ticks": 17184,
          "time": 34.682007000000006,
          "velocity": 0.7874015748031497
        },
        {
          "duration": 0.1949949999999987,
          "durationTicks": 96,
          "midi": 59,
          "name": "B3",
          "ticks": 17184,
          "time": 34.682007000000006,
          "velocity": 0.7874015748031497
        },
        {
          "duration": 0.1949949999999987,
          "durationTicks": 96,
          "midi": 52,
          "name": "E3",
          "ticks": 17280,
          "time": 34.877002000000005,
          "velocity": 0.7874015748031497
        },
        {
          "duration": 0.1949949999999987,
          "durationTicks": 96,
          "midi": 59,
          "name": "B3",
          "ticks": 17280,
          "time": 34.877002000000005,
          "velocity": 0.7874015748031497
        },
        {
          "duration": 0.1949949999999987,
          "durationTicks": 96,
          "midi": 52,
          "name": "E3",
          "ticks": 17376,
          "time": 35.071997,
          "velocity": 0.7874015748031497
        },
        {
          "duration": 0.1949949999999987,
          "durationTicks": 96,
          "midi": 59,
          "name": "B3",
          "ticks": 17376,
          "time": 35.071997,
          "velocity": 0.7874015748031497
        },
        {
          "duration": 0.1949949999999987,
          "durationTicks": 96,
          "midi": 52,
          "name": "E3",
          "ticks": 17472,
          "time": 35.266992,
          "velocity": 0.7874015748031497
        },
        {
          "duration": 0.1949949999999987,
          "durationTicks": 96,
          "midi": 59,
          "name": "B3",
          "ticks": 17472,
          "time": 35.266992,
          "velocity": 0.7874015748031497
        },
        {
          "duration": 0.1949950000000058,
          "durationTicks": 96,
          "midi": 52,
          "name": "E3",
          "ticks": 17568,
          "time": 35.461987,
          "velocity": 0.7874015748031497
        },
        {
          "duration": 0.1949950000000058,
          "durationTicks": 96,
          "midi": 59,
          "name": "B3",
          "ticks": 17568,
          "time": 35.461987,
          "velocity": 0.7874015748031497
        },
        {
          "duration": 0.1949949999999987,
          "durationTicks": 96,
          "midi": 52,
          "name": "E3",
          "ticks": 17664,
          "time": 35.656982000000006,
          "velocity": 0.7874015748031497
        },
        {
          "duration": 0.1949949999999987,
          "durationTicks": 96,
          "midi": 59,
          "name": "B3",
          "ticks": 17664,
          "time": 35.656982000000006,
          "velocity": 0.7874015748031497
        },
        {
          "duration": 0.1949949999999987,
          "durationTicks": 96,
          "midi": 52,
          "name": "E3",
          "ticks": 17760,
          "time": 35.851977000000005,
          "velocity": 0.7874015748031497
        },
        {
          "duration": 0.1949949999999987,
          "durationTicks": 96,
          "midi": 59,
          "name": "B3",
          "ticks": 17760,
          "time": 35.851977000000005,
          "velocity": 0.7874015748031497
        },
        {
          "duration": 0.1949949999999987,
          "durationTicks": 96,
          "midi": 52,
          "name": "E3",
          "ticks": 17856,
          "time": 36.046972000000004,
          "velocity": 0.7874015748031497
        },
        {
          "duration": 0.1949949999999987,
          "durationTicks": 96,
          "midi": 59,
          "name": "B3",
          "ticks": 17856,
          "time": 36.046972000000004,
          "velocity": 0.7874015748031497
        },
        {
          "duration": 0.1949949999999987,
          "durationTicks": 96,
          "midi": 52,
          "name": "E3",
          "ticks": 17952,
          "time": 36.241967,
          "velocity": 0.7874015748031497
        },
        {
          "duration": 0.1949949999999987,
          "durationTicks": 96,
          "midi": 59,
          "name": "B3",
          "ticks": 17952,
          "time": 36.241967,
          "velocity": 0.7874015748031497
        },
        {
          "duration": 0.1949949999999987,
          "durationTicks": 96,
          "midi": 52,
          "name": "E3",
          "ticks": 18048,
          "time": 36.436962,
          "velocity": 0.7874015748031497
        },
        {
          "duration": 0.1949949999999987,
          "durationTicks": 96,
          "midi": 59,
          "name": "B3",
          "ticks": 18048,
          "time": 36.436962,
          "velocity": 0.7874015748031497
        },
        {
          "duration": 0.1949950000000058,
          "durationTicks": 96,
          "midi": 52,
          "name": "E3",
          "ticks": 18144,
          "time": 36.631957,
          "velocity": 0.7874015748031497
        },
        {
          "duration": 0.1949950000000058,
          "durationTicks": 96,
          "midi": 59,
          "name": "B3",
          "ticks": 18144,
          "time": 36.631957,
          "velocity": 0.7874015748031497
        },
        {
          "duration": 0.1949949999999987,
          "durationTicks": 96,
          "midi": 52,
          "name": "E3",
          "ticks": 18240,
          "time": 36.826952000000006,
          "velocity": 0.7874015748031497
        },
        {
          "duration": 0.1949949999999987,
          "durationTicks": 96,
          "midi": 59,
          "name": "B3",
          "ticks": 18240,
          "time": 36.826952000000006,
          "velocity": 0.7874015748031497
        },
        {
          "duration": 3.116880000000002,
          "durationTicks": 1536,
          "midi": 40,
          "name": "E2",
          "ticks": 24384,
          "time": 49.300647000000005,
          "velocity": 0.7874015748031497
        },
        {
          "duration": 3.116880000000002,
          "durationTicks": 1536,
          "midi": 47,
          "name": "B2",
          "ticks": 24384,
          "time": 49.300647000000005,
          "velocity": 0.7874015748031497
        },
        {
          "duration": 3.1168799999999948,
          "durationTicks": 1536,
          "midi": 38,
          "name": "D2",
          "ticks": 25920,
          "time": 52.41752700000001,
          "velocity": 0.7874015748031497
        },
        {
          "duration": 3.1168799999999948,
          "durationTicks": 1536,
          "midi": 45,
          "name": "A2",
          "ticks": 25920,
          "time": 52.41752700000001,
          "velocity": 0.7874015748031497
        },
        {
          "duration": 3.116880000000002,
          "durationTicks": 1536,
          "midi": 40,
          "name": "E2",
          "ticks": 27456,
          "time": 55.534407,
          "velocity": 0.7874015748031497
        },
        {
          "duration": 3.116880000000002,
          "durationTicks": 1536,
          "midi": 47,
          "name": "B2",
          "ticks": 27456,
          "time": 55.534407,
          "velocity": 0.7874015748031497
        },
        {
          "duration": 3.116880000000002,
          "durationTicks": 1536,
          "midi": 38,
          "name": "D2",
          "ticks": 28992,
          "time": 58.651287,
          "velocity": 0.7874015748031497
        },
        {
          "duration": 3.116880000000002,
          "durationTicks": 1536,
          "midi": 45,
          "name": "A2",
          "ticks": 28992,
          "time": 58.651287,
          "velocity": 0.7874015748031497
        },
        {
          "duration": 1.5599599999999896,
          "durationTicks": 768,
          "midi": 40,
          "name": "E2",
          "ticks": 69840,
          "time": 141.61861950000002,
          "velocity": 0.7874015748031497
        },
        {
          "duration": 1.5599599999999896,
          "durationTicks": 768,
          "midi": 47,
          "name": "B2",
          "ticks": 69840,
          "time": 141.61861950000002,
          "velocity": 0.7874015748031497
        },
        {
          "duration": 0.7799800000000232,
          "durationTicks": 384,
          "midi": 36,
          "name": "C2",
          "ticks": 70608,
          "time": 143.1785795,
          "velocity": 0.7874015748031497
        },
        {
          "duration": 0.7799800000000232,
          "durationTicks": 384,
          "midi": 43,
          "name": "G2",
          "ticks": 70608,
          "time": 143.1785795,
          "velocity": 0.7874015748031497
        },
        {
          "duration": 0.7799799999999948,
          "durationTicks": 384,
          "midi": 38,
          "name": "D2",
          "ticks": 70992,
          "time": 143.95855950000004,
          "velocity": 0.7874015748031497
        },
        {
          "duration": 0.7799799999999948,
          "durationTicks": 384,
          "midi": 45,
          "name": "A2",
          "ticks": 70992,
          "time": 143.95855950000004,
          "velocity": 0.7874015748031497
        },
        {
          "duration": 0.1949950000000058,
          "durationTicks": 96,
          "midi": 52,
          "name": "E3",
          "ticks": 71376,
          "time": 144.73853950000003,
          "velocity": 0.7874015748031497
        },
        {
          "duration": 0.1949950000000058,
          "durationTicks": 96,
          "midi": 59,
          "name": "B3",
          "ticks": 71376,
          "time": 144.73853950000003,
          "velocity": 0.7874015748031497
        },
        {
          "duration": 0.19499499999997738,
          "durationTicks": 96,
          "midi": 52,
          "name": "E3",
          "ticks": 71472,
          "time": 144.93353450000004,
          "velocity": 0.7874015748031497
        },
        {
          "duration": 0.19499499999997738,
          "durationTicks": 96,
          "midi": 59,
          "name": "B3",
          "ticks": 71472,
          "time": 144.93353450000004,
          "velocity": 0.7874015748031497
        },
        {
          "duration": 0.1949950000000058,
          "durationTicks": 96,
          "midi": 52,
          "name": "E3",
          "ticks": 71568,
          "time": 145.1285295,
          "velocity": 0.7874015748031497
        },
        {
          "duration": 0.1949950000000058,
          "durationTicks": 96,
          "midi": 59,
          "name": "B3",
          "ticks": 71568,
          "time": 145.1285295,
          "velocity": 0.7874015748031497
        },
        {
          "duration": 0.1949950000000058,
          "durationTicks": 96,
          "midi": 52,
          "name": "E3",
          "ticks": 71664,
          "time": 145.32352450000002,
          "velocity": 0.7874015748031497
        },
        {
          "duration": 0.1949950000000058,
          "durationTicks": 96,
          "midi": 59,
          "name": "B3",
          "ticks": 71664,
          "time": 145.32352450000002,
          "velocity": 0.7874015748031497
        },
        {
          "duration": 0.1949950000000058,
          "durationTicks": 96,
          "midi": 52,
          "name": "E3",
          "ticks": 71760,
          "time": 145.51851950000002,
          "velocity": 0.7874015748031497
        },
        {
          "duration": 0.1949950000000058,
          "durationTicks": 96,
          "midi": 59,
          "name": "B3",
          "ticks": 71760,
          "time": 145.51851950000002,
          "velocity": 0.7874015748031497
        },
        {
          "duration": 0.1949950000000058,
          "durationTicks": 96,
          "midi": 52,
          "name": "E3",
          "ticks": 71856,
          "time": 145.71351450000003,
          "velocity": 0.7874015748031497
        },
        {
          "duration": 0.1949950000000058,
          "durationTicks": 96,
          "midi": 59,
          "name": "B3",
          "ticks": 71856,
          "time": 145.71351450000003,
          "velocity": 0.7874015748031497
        },
        {
          "duration": 0.19499499999997738,
          "durationTicks": 96,
          "midi": 52,
          "name": "E3",
          "ticks": 71952,
          "time": 145.90850950000004,
          "velocity": 0.7874015748031497
        },
        {
          "duration": 0.19499499999997738,
          "durationTicks": 96,
          "midi": 59,
          "name": "B3",
          "ticks": 71952,
          "time": 145.90850950000004,
          "velocity": 0.7874015748031497
        },
        {
          "duration": 0.1949950000000058,
          "durationTicks": 96,
          "midi": 52,
          "name": "E3",
          "ticks": 72048,
          "time": 146.1035045,
          "velocity": 0.7874015748031497
        },
        {
          "duration": 0.1949950000000058,
          "durationTicks": 96,
          "midi": 59,
          "name": "B3",
          "ticks": 72048,
          "time": 146.1035045,
          "velocity": 0.7874015748031497
        },
        {
          "duration": 0.1949950000000058,
          "durationTicks": 96,
          "midi": 52,
          "name": "E3",
          "ticks": 72144,
          "time": 146.29849950000002,
          "velocity": 0.7874015748031497
        },
        {
          "duration": 0.1949950000000058,
          "durationTicks": 96,
          "midi": 59,
          "name": "B3",
          "ticks": 72144,
          "time": 146.29849950000002,
          "velocity": 0.7874015748031497
        },
        {
          "duration": 0.1949950000000058,
          "durationTicks": 96,
          "midi": 52,
          "name": "E3",
          "ticks": 72240,
          "time": 146.49349450000003,
          "velocity": 0.7874015748031497
        },
        {
          "duration": 0.1949950000000058,
          "durationTicks": 96,
          "midi": 59,
          "name": "B3",
          "ticks": 72240,
          "time": 146.49349450000003,
          "velocity": 0.7874015748031497
        },
        {
          "duration": 0.19499499999997738,
          "durationTicks": 96,
          "midi": 52,
          "name": "E3",
          "ticks": 72336,
          "time": 146.68848950000003,
          "velocity": 0.7874015748031497
        },
        {
          "duration": 0.19499499999997738,
          "durationTicks": 96,
          "midi": 59,
          "name": "B3",
          "ticks": 72336,
          "time": 146.68848950000003,
          "velocity": 0.7874015748031497
        },
        {
          "duration": 0.1949950000000058,
          "durationTicks": 96,
          "midi": 52,
          "name": "E3",
          "ticks": 72432,
          "time": 146.8834845,
          "velocity": 0.7874015748031497
        },
        {
          "duration": 0.1949950000000058,
          "durationTicks": 96,
          "midi": 59,
          "name": "B3",
          "ticks": 72432,
          "time": 146.8834845,
          "velocity": 0.7874015748031497
        },
        {
          "duration": 0.1949950000000058,
          "durationTicks": 96,
          "midi": 52,
          "name": "E3",
          "ticks": 72528,
          "time": 147.07847950000001,
          "velocity": 0.7874015748031497
        },
        {
          "duration": 0.1949950000000058,
          "durationTicks": 96,
          "midi": 59,
          "name": "B3",
          "ticks": 72528,
          "time": 147.07847950000001,
          "velocity": 0.7874015748031497
        },
        {
          "duration": 0.1949950000000058,
          "durationTicks": 96,
          "midi": 52,
          "name": "E3",
          "ticks": 72624,
          "time": 147.27347450000002,
          "velocity": 0.7874015748031497
        },
        {
          "duration": 0.1949950000000058,
          "durationTicks": 96,
          "midi": 59,
          "name": "B3",
          "ticks": 72624,
          "time": 147.27347450000002,
          "velocity": 0.7874015748031497
        },
        {
          "duration": 0.1949950000000058,
          "durationTicks": 96,
          "midi": 52,
          "name": "E3",
          "ticks": 72720,
          "time": 147.46846950000003,
          "velocity": 0.7874015748031497
        },
        {
          "duration": 0.1949950000000058,
          "durationTicks": 96,
          "midi": 59,
          "name": "B3",
          "ticks": 72720,
          "time": 147.46846950000003,
          "velocity": 0.7874015748031497
        },
        {
          "duration": 0.19499499999997738,
          "durationTicks": 96,
          "midi": 52,
          "name": "E3",
          "ticks": 72816,
          "time": 147.66346450000003,
          "velocity": 0.7874015748031497
        },
        {
          "duration": 0.19499499999997738,
          "durationTicks": 96,
          "midi": 59,
          "name": "B3",
          "ticks": 72816,
          "time": 147.66346450000003,
          "velocity": 0.7874015748031497
        },
        {
          "duration": 1.5599599999999896,
          "durationTicks": 768,
          "midi": 40,
          "name": "E2",
          "ticks": 72912,
          "time": 147.8584595,
          "velocity": 0.7874015748031497
        },
        {
          "duration": 1.5599599999999896,
          "durationTicks": 768,
          "midi": 47,
          "name": "B2",
          "ticks": 72912,
          "time": 147.8584595,
          "velocity": 0.7874015748031497
        },
        {
          "duration": 0.7799800000000232,
          "durationTicks": 384,
          "midi": 36,
          "name": "C2",
          "ticks": 73680,
          "time": 149.4184195,
          "velocity": 0.7874015748031497
        },
        {
          "duration": 0.7799800000000232,
          "durationTicks": 384,
          "midi": 43,
          "name": "G2",
          "ticks": 73680,
          "time": 149.4184195,
          "velocity": 0.7874015748031497
        },
        {
          "duration": 0.7799799999999948,
          "durationTicks": 384,
          "midi": 38,
          "name": "D2",
          "ticks": 74064,
          "time": 150.19839950000002,
          "velocity": 0.7874015748031497
        },
        {
          "duration": 0.7799799999999948,
          "durationTicks": 384,
          "midi": 45,
          "name": "A2",
          "ticks": 74064,
          "time": 150.19839950000002,
          "velocity": 0.7874015748031497
        },
        {
          "duration": 0.1949950000000058,
          "durationTicks": 96,
          "midi": 52,
          "name": "E3",
          "ticks": 74448,
          "time": 150.97837950000002,
          "velocity": 0.7874015748031497
        },
        {
          "duration": 0.1949950000000058,
          "durationTicks": 96,
          "midi": 59,
          "name": "B3",
          "ticks": 74448,
          "time": 150.97837950000002,
          "velocity": 0.7874015748031497
        },
        {
          "duration": 0.19499499999997738,
          "durationTicks": 96,
          "midi": 52,
          "name": "E3",
          "ticks": 74544,
          "time": 151.17337450000002,
          "velocity": 0.7874015748031497
        },
        {
          "duration": 0.19499499999997738,
          "durationTicks": 96,
          "midi": 59,
          "name": "B3",
          "ticks": 74544,
          "time": 151.17337450000002,
          "velocity": 0.7874015748031497
        },
        {
          "duration": 0.1949950000000058,
          "durationTicks": 96,
          "midi": 52,
          "name": "E3",
          "ticks": 74640,
          "time": 151.3683695,
          "velocity": 0.7874015748031497
        },
        {
          "duration": 0.1949950000000058,
          "durationTicks": 96,
          "midi": 59,
          "name": "B3",
          "ticks": 74640,
          "time": 151.3683695,
          "velocity": 0.7874015748031497
        },
        {
          "duration": 0.1949950000000058,
          "durationTicks": 96,
          "midi": 52,
          "name": "E3",
          "ticks": 74736,
          "time": 151.5633645,
          "velocity": 0.7874015748031497
        },
        {
          "duration": 0.1949950000000058,
          "durationTicks": 96,
          "midi": 59,
          "name": "B3",
          "ticks": 74736,
          "time": 151.5633645,
          "velocity": 0.7874015748031497
        },
        {
          "duration": 0.1949950000000058,
          "durationTicks": 96,
          "midi": 52,
          "name": "E3",
          "ticks": 74832,
          "time": 151.7583595,
          "velocity": 0.7874015748031497
        },
        {
          "duration": 0.1949950000000058,
          "durationTicks": 96,
          "midi": 59,
          "name": "B3",
          "ticks": 74832,
          "time": 151.7583595,
          "velocity": 0.7874015748031497
        },
        {
          "duration": 0.19499499999997738,
          "durationTicks": 96,
          "midi": 52,
          "name": "E3",
          "ticks": 74928,
          "time": 151.95335450000002,
          "velocity": 0.7874015748031497
        },
        {
          "duration": 0.19499499999997738,
          "durationTicks": 96,
          "midi": 59,
          "name": "B3",
          "ticks": 74928,
          "time": 151.95335450000002,
          "velocity": 0.7874015748031497
        },
        {
          "duration": 0.1949950000000058,
          "durationTicks": 96,
          "midi": 52,
          "name": "E3",
          "ticks": 75024,
          "time": 152.1483495,
          "velocity": 0.7874015748031497
        },
        {
          "duration": 0.1949950000000058,
          "durationTicks": 96,
          "midi": 59,
          "name": "B3",
          "ticks": 75024,
          "time": 152.1483495,
          "velocity": 0.7874015748031497
        },
        {
          "duration": 0.1949950000000058,
          "durationTicks": 96,
          "midi": 52,
          "name": "E3",
          "ticks": 75120,
          "time": 152.3433445,
          "velocity": 0.7874015748031497
        },
        {
          "duration": 0.1949950000000058,
          "durationTicks": 96,
          "midi": 59,
          "name": "B3",
          "ticks": 75120,
          "time": 152.3433445,
          "velocity": 0.7874015748031497
        },
        {
          "duration": 0.1949950000000058,
          "durationTicks": 96,
          "midi": 52,
          "name": "E3",
          "ticks": 75216,
          "time": 152.5383395,
          "velocity": 0.7874015748031497
        },
        {
          "duration": 0.1949950000000058,
          "durationTicks": 96,
          "midi": 59,
          "name": "B3",
          "ticks": 75216,
          "time": 152.5383395,
          "velocity": 0.7874015748031497
        },
        {
          "duration": 0.1949950000000058,
          "durationTicks": 96,
          "midi": 52,
          "name": "E3",
          "ticks": 75312,
          "time": 152.7333345,
          "velocity": 0.7874015748031497
        },
        {
          "duration": 0.1949950000000058,
          "durationTicks": 96,
          "midi": 59,
          "name": "B3",
          "ticks": 75312,
          "time": 152.7333345,
          "velocity": 0.7874015748031497
        },
        {
          "duration": 0.1949950000000058,
          "durationTicks": 96,
          "midi": 52,
          "name": "E3",
          "ticks": 75408,
          "time": 152.92832950000002,
          "velocity": 0.7874015748031497
        },
        {
          "duration": 0.1949950000000058,
          "durationTicks": 96,
          "midi": 59,
          "name": "B3",
          "ticks": 75408,
          "time": 152.92832950000002,
          "velocity": 0.7874015748031497
        },
        {
          "duration": 0.19499499999997738,
          "durationTicks": 96,
          "midi": 52,
          "name": "E3",
          "ticks": 75504,
          "time": 153.12332450000002,
          "velocity": 0.7874015748031497
        },
        {
          "duration": 0.19499499999997738,
          "durationTicks": 96,
          "midi": 59,
          "name": "B3",
          "ticks": 75504,
          "time": 153.12332450000002,
          "velocity": 0.7874015748031497
        },
        {
          "duration": 0.1949950000000058,
          "durationTicks": 96,
          "midi": 52,
          "name": "E3",
          "ticks": 75600,
          "time": 153.3183195,
          "velocity": 0.7874015748031497
        },
        {
          "duration": 0.1949950000000058,
          "durationTicks": 96,
          "midi": 59,
          "name": "B3",
          "ticks": 75600,
          "time": 153.3183195,
          "velocity": 0.7874015748031497
        },
        {
          "duration": 0.1949950000000058,
          "durationTicks": 96,
          "midi": 52,
          "name": "E3",
          "ticks": 75696,
          "time": 153.5133145,
          "velocity": 0.7874015748031497
        },
        {
          "duration": 0.1949950000000058,
          "durationTicks": 96,
          "midi": 59,
          "name": "B3",
          "ticks": 75696,
          "time": 153.5133145,
          "velocity": 0.7874015748031497
        },
        {
          "duration": 0.1949950000000058,
          "durationTicks": 96,
          "midi": 52,
          "name": "E3",
          "ticks": 75792,
          "time": 153.7083095,
          "velocity": 0.7874015748031497
        },
        {
          "duration": 0.1949950000000058,
          "durationTicks": 96,
          "midi": 59,
          "name": "B3",
          "ticks": 75792,
          "time": 153.7083095,
          "velocity": 0.7874015748031497
        },
        {
          "duration": 0.19499499999997738,
          "durationTicks": 96,
          "midi": 52,
          "name": "E3",
          "ticks": 75888,
          "time": 153.90330450000002,
          "velocity": 0.7874015748031497
        },
        {
          "duration": 0.19499499999997738,
          "durationTicks": 96,
          "midi": 59,
          "name": "B3",
          "ticks": 75888,
          "time": 153.90330450000002,
          "velocity": 0.7874015748031497
        }
      ]
    },
    {
      "channel": 1,
      "controlChanges": {},
      "pitchBends": [],
      "instrument": {
        "family": "bass",
        "name": "slap bass 1",
        "number": 36
      },
      "name": "",
      "notes": [
        {
          "duration": 0.5849849999999996,
          "durationTicks": 288,
          "midi": 40,
          "name": "E2",
          "ticks": 3072,
          "time": 6.23984,
          "velocity": 0.7874015748031497
        },
        {
          "duration": 0.5849850000000005,
          "durationTicks": 288,
          "midi": 40,
          "name": "E2",
          "ticks": 3360,
          "time": 6.824825,
          "velocity": 0.7874015748031497
        },
        {
          "duration": 0.38999000000000006,
          "durationTicks": 192,
          "midi": 40,
          "name": "E2",
          "ticks": 3648,
          "time": 7.40981,
          "velocity": 0.7874015748031497
        },
        {
          "duration": 0.19499499999999959,
          "durationTicks": 96,
          "midi": 45,
          "name": "A2",
          "ticks": 3840,
          "time": 7.7998,
          "velocity": 0.7874015748031497
        },
        {
          "duration": 0.19499500000000047,
          "durationTicks": 96,
          "midi": 47,
          "name": "B2",
          "ticks": 3936,
          "time": 7.994795,
          "velocity": 0.7874015748031497
        },
        {
          "duration": 0.19499500000000047,
          "durationTicks": 96,
          "midi": 50,
          "name": "D3",
          "ticks": 4032,
          "time": 8.18979,
          "velocity": 0.7874015748031497
        },
        {
          "duration": 0.1949949999999987,
          "durationTicks": 96,
          "midi": 52,
          "name": "E3",
          "ticks": 4128,
          "time": 8.384785,
          "velocity": 0.7874015748031497
        },
        {
          "duration": 0.19499500000000047,
          "durationTicks": 96,
          "midi": 45,
          "name": "A2",
          "ticks": 4224,
          "time": 8.57978,
          "velocity": 0.7874015748031497
        },
        {
          "duration": 0.19499500000000047,
          "durationTicks": 96,
          "midi": 47,
          "name": "B2",
          "ticks": 4320,
          "time": 8.774775,
          "velocity": 0.7874015748031497
        },
        {
          "duration": 0.1949949999999987,
          "durationTicks": 96,
          "midi": 50,
          "name": "D3",
          "ticks": 4416,
          "time": 8.96977,
          "velocity": 0.7874015748031497
        },
        {
          "duration": 0.19499500000000047,
          "durationTicks": 96,
          "midi": 52,
          "name": "E3",
          "ticks": 4512,
          "time": 9.164765,
          "velocity": 0.7874015748031497
        },
        {
          "duration": 0.5806454999999993,
          "durationTicks": 288,
          "midi": 40,
          "name": "E2",
          "ticks": 4608,
          "time": 9.35976,
          "velocity": 0.7874015748031497
        },
        {
          "duration": 0.580645500000001,
          "durationTicks": 288,
          "midi": 40,
          "name": "E2",
          "ticks": 4896,
          "time": 9.940405499999999,
          "velocity": 0.7874015748031497
        },
        {
          "duration": 0.3870969999999989,
          "durationTicks": 192,
          "midi": 40,
          "name": "E2",
          "ticks": 5184,
          "time": 10.521051,
          "velocity": 0.7874015748031497
        },
        {
          "duration": 0.19354850000000035,
          "durationTicks": 96,
          "midi": 45,
          "name": "A2",
          "ticks": 5376,
          "time": 10.908147999999999,
          "velocity": 0.7874015748031497
        },
        {
          "duration": 0.19354850000000035,
          "durationTicks": 96,
          "midi": 47,
          "name": "B2",
          "ticks": 5472,
          "time": 11.1016965,
          "velocity": 0.7874015748031497
        },
        {
          "duration": 0.19354850000000035,
          "durationTicks": 96,
          "midi": 50,
          "name": "D3",
          "ticks": 5568,
          "time": 11.295245,
          "velocity": 0.7874015748031497
        },
        {
          "duration": 0.19354849999999857,
          "durationTicks": 96,
          "midi": 52,
          "name": "E3",
          "ticks": 5664,
          "time": 11.4887935,
          "velocity": 0.7874015748031497
        },
        {
          "duration": 0.19354850000000035,
          "durationTicks": 96,
          "midi": 45,
          "name": "A2",
          "ticks": 5760,
          "time": 11.682341999999998,
          "velocity": 0.7874015748031497
        },
        {
          "duration": 0.19354850000000035,
          "durationTicks": 96,
          "midi": 47,
          "name": "B2",
          "ticks": 5856,
          "time": 11.875890499999999,
          "velocity": 0.7874015748031497
        },
        {
          "duration": 0.19354850000000035,
          "durationTicks": 96,
          "midi": 50,
          "name": "D3",
          "ticks": 5952,
          "time": 12.069439,
          "velocity": 0.7874015748031497
        },
        {
          "duration": 0.19354850000000035,
          "durationTicks": 96,
          "midi": 52,
          "name": "E3",
          "ticks": 6048,
          "time": 12.2629875,
          "velocity": 0.7874015748031497
        },
        {
          "duration": 0.18867900000000049,
          "durationTicks": 96,
          "midi": 40,
          "name": "E2",
          "ticks": 6144,
          "time": 12.456536,
          "velocity": 0.7874015748031497
        },
        {
          "duration": 0.1886789999999987,
          "durationTicks": 96,
          "midi": 40,
          "name": "E2",
          "ticks": 6240,
          "time": 12.645215,
          "velocity": 0.7874015748031497
        },
        {
          "duration": 0.18867900000000049,
          "durationTicks": 96,
          "midi": 40,
          "name": "E2",
          "ticks": 6336,
          "time": 12.833893999999999,
          "velocity": 0.7874015748031497
        },
        {
          "duration": 0.18867900000000049,
          "durationTicks": 96,
          "midi": 40,
          "name": "E2",
          "ticks": 6432,
          "time": 13.022573,
          "velocity": 0.7874015748031497
        },
        {
          "duration": 0.18867900000000049,
          "durationTicks": 96,
          "midi": 40,
          "name": "E2",
          "ticks": 6528,
          "time": 13.211252,
          "velocity": 0.7874015748031497
        },
        {
          "duration": 0.1886789999999987,
          "durationTicks": 96,
          "midi": 40,
          "name": "E2",
          "ticks": 6624,
          "time": 13.399931,
          "velocity": 0.7874015748031497
        },
        {
          "duration": 0.18867900000000049,
          "durationTicks": 96,
          "midi": 40,
          "name": "E2",
          "ticks": 6720,
          "time": 13.58861,
          "velocity": 0.7874015748031497
        },
        {
          "duration": 0.18867900000000049,
          "durationTicks": 96,
          "midi": 40,
          "name": "E2",
          "ticks": 6816,
          "time": 13.777289,
          "velocity": 0.7874015748031497
        },
        {
          "duration": 0.18867900000000049,
          "durationTicks": 96,
          "midi": 40,
          "name": "E2",
          "ticks": 6912,
          "time": 13.965968,
          "velocity": 0.7874015748031497
        },
        {
          "duration": 0.1886789999999987,
          "durationTicks": 96,
          "midi": 40,
          "name": "E2",
          "ticks": 7008,
          "time": 14.154647,
          "velocity": 0.7874015748031497
        },
        {
          "duration": 0.18867900000000049,
          "durationTicks": 96,
          "midi": 40,
          "name": "E2",
          "ticks": 7104,
          "time": 14.343326,
          "velocity": 0.7874015748031497
        },
        {
          "duration": 0.18867900000000049,
          "durationTicks": 96,
          "midi": 40,
          "name": "E2",
          "ticks": 7200,
          "time": 14.532005,
          "velocity": 0.7874015748031497
        },
        {
          "duration": 0.1886789999999987,
          "durationTicks": 96,
          "midi": 45,
          "name": "A2",
          "ticks": 7296,
          "time": 14.720684,
          "velocity": 0.7874015748031497
        },
        {
          "duration": 0.18867900000000049,
          "durationTicks": 96,
          "midi": 47,
          "name": "B2",
          "ticks": 7392,
          "time": 14.909362999999999,
          "velocity": 0.7874015748031497
        },
        {
          "duration": 0.18867900000000049,
          "durationTicks": 96,
          "midi": 38,
          "name": "D2",
          "ticks": 7488,
          "time": 15.098042,
          "velocity": 0.7874015748031497
        },
        {
          "duration": 0.18867900000000049,
          "durationTicks": 96,
          "midi": 52,
          "name": "E3",
          "ticks": 7584,
          "time": 15.286721,
          "velocity": 0.7874015748031497
        },
        {
          "duration": 0.18867900000000049,
          "durationTicks": 96,
          "midi": 50,
          "name": "D3",
          "ticks": 7680,
          "time": 15.4754,
          "velocity": 0.7874015748031497
        },
        {
          "duration": 0.1886789999999987,
          "durationTicks": 96,
          "midi": 50,
          "name": "D3",
          "ticks": 7776,
          "time": 15.664079000000001,
          "velocity": 0.7874015748031497
        },
        {
          "duration": 0.18867900000000226,
          "durationTicks": 96,
          "midi": 50,
          "name": "D3",
          "ticks": 7872,
          "time": 15.852758,
          "velocity": 0.7874015748031497
        },
        {
          "duration": 0.18867899999999693,
          "durationTicks": 96,
          "midi": 50,
          "name": "D3",
          "ticks": 7968,
          "time": 16.041437000000002,
          "velocity": 0.7874015748031497
        },
        {
          "duration": 0.18867900000000049,
          "durationTicks": 96,
          "midi": 50,
          "name": "D3",
          "ticks": 8064,
          "time": 16.230116,
          "velocity": 0.7874015748031497
        },
        {
          "duration": 0.18867900000000049,
          "durationTicks": 96,
          "midi": 50,
          "name": "D3",
          "ticks": 8160,
          "time": 16.418795,
          "velocity": 0.7874015748031497
        },
        {
          "duration": 0.18867900000000049,
          "durationTicks": 96,
          "midi": 50,
          "name": "D3",
          "ticks": 8256,
          "time": 16.607474,
          "velocity": 0.7874015748031497
        },
        {
          "duration": 0.18867900000000049,
          "durationTicks": 96,
          "midi": 50,
          "name": "D3",
          "ticks": 8352,
          "time": 16.796153,
          "velocity": 0.7874015748031497
        },
        {
          "duration": 0.18867900000000049,
          "durationTicks": 96,
          "midi": 55,
          "name": "G3",
          "ticks": 8448,
          "time": 16.984832,
          "velocity": 0.7874015748031497
        },
        {
          "duration": 0.47169749999999766,
          "durationTicks": 240,
          "midi": 50,
          "name": "D3",
          "ticks": 8544,
          "time": 17.173511,
          "velocity": 0.7874015748031497
        },
        {
          "duration": 0.37735800000000097,
          "durationTicks": 192,
          "midi": 52,
          "name": "E3",
          "ticks": 8784,
          "time": 17.6452085,
          "velocity": 0.7874015748031497
        },
        {
          "duration": 0.37735800000000097,
          "durationTicks": 192,
          "midi": 55,
          "name": "G3",
          "ticks": 8976,
          "time": 18.0225665,
          "velocity": 0.7874015748031497
        },
        {
          "duration": 0.1949949999999987,
          "durationTicks": 96,
          "midi": 40,
          "name": "E2",
          "ticks": 9168,
          "time": 18.3999245,
          "velocity": 0.7874015748031497
        },
        {
          "duration": 0.19499500000000225,
          "durationTicks": 96,
          "midi": 40,
          "name": "E2",
          "ticks": 9264,
          "time": 18.5949195,
          "velocity": 0.7874015748031497
        },
        {
          "duration": 0.1949949999999987,
          "durationTicks": 96,
          "midi": 40,
          "name": "E2",
          "ticks": 9360,
          "time": 18.789914500000002,
          "velocity": 0.7874015748031497
        },
        {
          "duration": 0.1949949999999987,
          "durationTicks": 96,
          "midi": 40,
          "name": "E2",
          "ticks": 9456,
          "time": 18.9849095,
          "velocity": 0.7874015748031497
        },
        {
          "duration": 0.19499500000000225,
          "durationTicks": 96,
          "midi": 40,
          "name": "E2",
          "ticks": 9552,
          "time": 19.1799045,
          "velocity": 0.7874015748031497
        },
        {
          "duration": 0.1949949999999987,
          "durationTicks": 96,
          "midi": 40,
          "name": "E2",
          "ticks": 9648,
          "time": 19.3748995,
          "velocity": 0.7874015748031497
        },
        {
          "duration": 0.19499500000000225,
          "durationTicks": 96,
          "midi": 40,
          "name": "E2",
          "ticks": 9744,
          "time": 19.5698945,
          "velocity": 0.7874015748031497
        },
        {
          "duration": 0.1949949999999987,
          "durationTicks": 96,
          "midi": 40,
          "name": "E2",
          "ticks": 9840,
          "time": 19.764889500000002,
          "velocity": 0.7874015748031497
        },
        {
          "duration": 0.1949949999999987,
          "durationTicks": 96,
          "midi": 40,
          "name": "E2",
          "ticks": 9936,
          "time": 19.9598845,
          "velocity": 0.7874015748031497
        },
        {
          "duration": 0.19499500000000225,
          "durationTicks": 96,
          "midi": 40,
          "name": "E2",
          "ticks": 10032,
          "time": 20.1548795,
          "velocity": 0.7874015748031497
        },
        {
          "duration": 0.1949949999999987,
          "durationTicks": 96,
          "midi": 40,
          "name": "E2",
          "ticks": 10128,
          "time": 20.349874500000002,
          "velocity": 0.7874015748031497
        },
        {
          "duration": 0.1949949999999987,
          "durationTicks": 96,
          "midi": 40,
          "name": "E2",
          "ticks": 10224,
          "time": 20.5448695,
          "velocity": 0.7874015748031497
        },
        {
          "duration": 0.19499500000000225,
          "durationTicks": 96,
          "midi": 45,
          "name": "A2",
          "ticks": 10320,
          "time": 20.7398645,
          "velocity": 0.7874015748031497
        },
        {
          "duration": 0.1949949999999987,
          "durationTicks": 96,
          "midi": 47,
          "name": "B2",
          "ticks": 10416,
          "time": 20.9348595,
          "velocity": 0.7874015748031497
        },
        {
          "duration": 0.1949949999999987,
          "durationTicks": 96,
          "midi": 38,
          "name": "D2",
          "ticks": 10512,
          "time": 21.1298545,
          "velocity": 0.7874015748031497
        },
        {
          "duration": 0.19499500000000225,
          "durationTicks": 96,
          "midi": 52,
          "name": "E3",
          "ticks": 10608,
          "time": 21.3248495,
          "velocity": 0.7874015748031497
        },
        {
          "duration": 0.1949949999999987,
          "durationTicks": 96,
          "midi": 50,
          "name": "D3",
          "ticks": 10704,
          "time": 21.5198445,
          "velocity": 0.7874015748031497
        },
        {
          "duration": 0.19499500000000225,
          "durationTicks": 96,
          "midi": 50,
          "name": "D3",
          "ticks": 10800,
          "time": 21.7148395,
          "velocity": 0.7874015748031497
        },
        {
          "duration": 0.1949949999999987,
          "durationTicks": 96,
          "midi": 50,
          "name": "D3",
          "ticks": 10896,
          "time": 21.909834500000002,
          "velocity": 0.7874015748031497
        },
        {
          "duration": 0.1949949999999987,
          "durationTicks": 96,
          "midi": 50,
          "name": "D3",
          "ticks": 10992,
          "time": 22.1048295,
          "velocity": 0.7874015748031497
        },
        {
          "duration": 0.19499500000000225,
          "durationTicks": 96,
          "midi": 50,
          "name": "D3",
          "ticks": 11088,
          "time": 22.2998245,
          "velocity": 0.7874015748031497
        },
        {
          "duration": 0.1949949999999987,
          "durationTicks": 96,
          "midi": 50,
          "name": "D3",
          "ticks": 11184,
          "time": 22.494819500000002,
          "velocity": 0.7874015748031497
        },
        {
          "duration": 0.19499500000000225,
          "durationTicks": 96,
          "midi": 50,
          "name": "D3",
          "ticks": 11280,
          "time": 22.6898145,
          "velocity": 0.7874015748031497
        },
        {
          "duration": 0.1949949999999987,
          "durationTicks": 96,
          "midi": 50,
          "name": "D3",
          "ticks": 11376,
          "time": 22.884809500000003,
          "velocity": 0.7874015748031497
        },
        {
          "duration": 0.1949949999999987,
          "durationTicks": 96,
          "midi": 55,
          "name": "G3",
          "ticks": 11472,
          "time": 23.0798045,
          "velocity": 0.7874015748031497
        },
        {
          "duration": 0.4874875000000003,
          "durationTicks": 240,
          "midi": 50,
          "name": "D3",
          "ticks": 11568,
          "time": 23.2747995,
          "velocity": 0.7874015748031497
        },
        {
          "duration": 0.38999000000000095,
          "durationTicks": 192,
          "midi": 52,
          "name": "E3",
          "ticks": 11808,
          "time": 23.762287,
          "velocity": 0.7874015748031497
        },
        {
          "duration": 0.38999000000000095,
          "durationTicks": 192,
          "midi": 55,
          "name": "G3",
          "ticks": 12000,
          "time": 24.152277,
          "velocity": 0.7874015748031497
        },
        {
          "duration": 0.1949949999999987,
          "durationTicks": 96,
          "midi": 40,
          "name": "E2",
          "ticks": 18336,
          "time": 37.021947000000004,
          "velocity": 0.7874015748031497
        },
        {
          "duration": 0.1949949999999987,
          "durationTicks": 96,
          "midi": 40,
          "name": "E2",
          "ticks": 18432,
          "time": 37.216942,
          "velocity": 0.7874015748031497
        },
        {
          "duration": 0.1949950000000058,
          "durationTicks": 96,
          "midi": 40,
          "name": "E2",
          "ticks": 18528,
          "time": 37.411937,
          "velocity": 0.7874015748031497
        },
        {
          "duration": 0.1949949999999987,
          "durationTicks": 96,
          "midi": 40,
          "name": "E2",
          "ticks": 18624,
          "time": 37.60693200000001,
          "velocity": 0.7874015748031497
        },
        {
          "duration": 0.1949949999999987,
          "durationTicks": 96,
          "midi": 40,
          "name": "E2",
          "ticks": 18720,
          "time": 37.801927000000006,
          "velocity": 0.7874015748031497
        },
        {
          "duration": 0.1949949999999987,
          "durationTicks": 96,
          "midi": 40,
          "name": "E2",
          "ticks": 18816,
          "time": 37.996922000000005,
          "velocity": 0.7874015748031497
        },
        {
          "duration": 0.1949949999999987,
          "durationTicks": 96,
          "midi": 40,
          "name": "E2",
          "ticks": 18912,
          "time": 38.191917000000004,
          "velocity": 0.7874015748031497
        },
        {
          "duration": 0.1949949999999987,
          "durationTicks": 96,
          "midi": 40,
          "name": "E2",
          "ticks": 19008,
          "time": 38.386912,
          "velocity": 0.7874015748031497
        },
        {
          "duration": 0.1949950000000058,
          "durationTicks": 96,
          "midi": 40,
          "name": "E2",
          "ticks": 19104,
          "time": 38.581907,
          "velocity": 0.7874015748031497
        },
        {
          "duration": 0.1949949999999987,
          "durationTicks": 96,
          "midi": 40,
          "name": "E2",
          "ticks": 19200,
          "time": 38.77690200000001,
          "velocity": 0.7874015748031497
        },
        {
          "duration": 0.1949949999999987,
          "durationTicks": 96,
          "midi": 40,
          "name": "E2",
          "ticks": 19296,
          "time": 38.971897000000006,
          "velocity": 0.7874015748031497
        },
        {
          "duration": 0.1949949999999987,
          "durationTicks": 96,
          "midi": 40,
          "name": "E2",
          "ticks": 19392,
          "time": 39.166892000000004,
          "velocity": 0.7874015748031497
        },
        {
          "duration": 0.1949949999999987,
          "durationTicks": 96,
          "midi": 45,
          "name": "A2",
          "ticks": 19488,
          "time": 39.361887,
          "velocity": 0.7874015748031497
        },
        {
          "duration": 0.1949950000000058,
          "durationTicks": 96,
          "midi": 47,
          "name": "B2",
          "ticks": 19584,
          "time": 39.556882,
          "velocity": 0.7874015748031497
        },
        {
          "duration": 0.1949949999999987,
          "durationTicks": 96,
          "midi": 38,
          "name": "D2",
          "ticks": 19680,
          "time": 39.75187700000001,
          "velocity": 0.7874015748031497
        },
        {
          "duration": 0.1949949999999987,
          "durationTicks": 96,
          "midi": 52,
          "name": "E3",
          "ticks": 19776,
          "time": 39.946872000000006,
          "velocity": 0.7874015748031497
        },
        {
          "duration": 0.1949949999999987,
          "durationTicks": 96,
          "midi": 50,
          "name": "D3",
          "ticks": 19872,
          "time": 40.141867000000005,
          "velocity": 0.7874015748031497
        },
        {
          "duration": 0.1949949999999987,
          "durationTicks": 96,
          "midi": 50,
          "name": "D3",
          "ticks": 19968,
          "time": 40.336862,
          "velocity": 0.7874015748031497
        },
        {
          "duration": 0.1949950000000058,
          "durationTicks": 96,
          "midi": 50,
          "name": "D3",
          "ticks": 20064,
          "time": 40.531857,
          "velocity": 0.7874015748031497
        },
        {
          "duration": 0.1949949999999987,
          "durationTicks": 96,
          "midi": 50,
          "name": "D3",
          "ticks": 20160,
          "time": 40.72685200000001,
          "velocity": 0.7874015748031497
        },
        {
          "duration": 0.1949949999999987,
          "durationTicks": 96,
          "midi": 50,
          "name": "D3",
          "ticks": 20256,
          "time": 40.92184700000001,
          "velocity": 0.7874015748031497
        },
        {
          "duration": 0.1949949999999987,
          "durationTicks": 96,
          "midi": 50,
          "name": "D3",
          "ticks": 20352,
          "time": 41.116842000000005,
          "velocity": 0.7874015748031497
        },
        {
          "duration": 0.1949949999999987,
          "durationTicks": 96,
          "midi": 50,
          "name": "D3",
          "ticks": 20448,
          "time": 41.311837000000004,
          "velocity": 0.7874015748031497
        },
        {
          "duration": 0.1949949999999987,
          "durationTicks": 96,
          "midi": 50,
          "name": "D3",
          "ticks": 20544,
          "time": 41.506832,
          "velocity": 0.7874015748031497
        },
        {
          "duration": 0.1949950000000058,
          "durationTicks": 96,
          "midi": 55,
          "name": "G3",
          "ticks": 20640,
          "time": 41.701827,
          "velocity": 0.7874015748031497
        },
        {
          "duration": 0.4874874999999932,
          "durationTicks": 240,
          "midi": 50,
          "name": "D3",
          "ticks": 20736,
          "time": 41.89682200000001,
          "velocity": 0.7874015748031497
        },
        {
          "duration": 0.3899900000000045,
          "durationTicks": 192,
          "midi": 52,
          "name": "E3",
          "ticks": 20976,
          "time": 42.3843095,
          "velocity": 0.7874015748031497
        },
        {
          "duration": 0.3899899999999974,
          "durationTicks": 192,
          "midi": 55,
          "name": "G3",
          "ticks": 21168,
          "time": 42.774299500000005,
          "velocity": 0.7874015748031497
        },
        {
          "duration": 0.19480500000000234,
          "durationTicks": 96,
          "midi": 40,
          "name": "E2",
          "ticks": 21360,
          "time": 43.1642895,
          "velocity": 0.7874015748031497
        },
        {
          "duration": 0.19480499999999523,
          "durationTicks": 96,
          "midi": 40,
          "name": "E2",
          "ticks": 21456,
          "time": 43.359094500000005,
          "velocity": 0.7874015748031497
        },
        {
          "duration": 0.19480500000000234,
          "durationTicks": 96,
          "midi": 40,
          "name": "E2",
          "ticks": 21552,
          "time": 43.5538995,
          "velocity": 0.7874015748031497
        },
        {
          "duration": 0.19480500000000234,
          "durationTicks": 96,
          "midi": 40,
          "name": "E2",
          "ticks": 21648,
          "time": 43.7487045,
          "velocity": 0.7874015748031497
        },
        {
          "duration": 0.19480499999999523,
          "durationTicks": 96,
          "midi": 40,
          "name": "E2",
          "ticks": 21744,
          "time": 43.943509500000005,
          "velocity": 0.7874015748031497
        },
        {
          "duration": 0.19480500000000234,
          "durationTicks": 96,
          "midi": 40,
          "name": "E2",
          "ticks": 21840,
          "time": 44.1383145,
          "velocity": 0.7874015748031497
        },
        {
          "duration": 0.19480500000000234,
          "durationTicks": 96,
          "midi": 40,
          "name": "E2",
          "ticks": 21936,
          "time": 44.3331195,
          "velocity": 0.7874015748031497
        },
        {
          "duration": 0.19480499999999523,
          "durationTicks": 96,
          "midi": 40,
          "name": "E2",
          "ticks": 22032,
          "time": 44.527924500000005,
          "velocity": 0.7874015748031497
        },
        {
          "duration": 0.19480500000000234,
          "durationTicks": 96,
          "midi": 40,
          "name": "E2",
          "ticks": 22128,
          "time": 44.7227295,
          "velocity": 0.7874015748031497
        },
        {
          "duration": 0.19480500000000234,
          "durationTicks": 96,
          "midi": 40,
          "name": "E2",
          "ticks": 22224,
          "time": 44.9175345,
          "velocity": 0.7874015748031497
        },
        {
          "duration": 0.19480499999999523,
          "durationTicks": 96,
          "midi": 40,
          "name": "E2",
          "ticks": 22320,
          "time": 45.112339500000004,
          "velocity": 0.7874015748031497
        },
        {
          "duration": 0.19480500000000234,
          "durationTicks": 96,
          "midi": 40,
          "name": "E2",
          "ticks": 22416,
          "time": 45.3071445,
          "velocity": 0.7874015748031497
        },
        {
          "duration": 0.19480500000000234,
          "durationTicks": 96,
          "midi": 45,
          "name": "A2",
          "ticks": 22512,
          "time": 45.5019495,
          "velocity": 0.7874015748031497
        },
        {
          "duration": 0.19480499999999523,
          "durationTicks": 96,
          "midi": 47,
          "name": "B2",
          "ticks": 22608,
          "time": 45.696754500000004,
          "velocity": 0.7874015748031497
        },
        {
          "duration": 0.19480500000000234,
          "durationTicks": 96,
          "midi": 38,
          "name": "D2",
          "ticks": 22704,
          "time": 45.8915595,
          "velocity": 0.7874015748031497
        },
        {
          "duration": 0.19480500000000234,
          "durationTicks": 96,
          "midi": 52,
          "name": "E3",
          "ticks": 22800,
          "time": 46.0863645,
          "velocity": 0.7874015748031497
        },
        {
          "duration": 0.19480499999999523,
          "durationTicks": 96,
          "midi": 50,
          "name": "D3",
          "ticks": 22896,
          "time": 46.281169500000004,
          "velocity": 0.7874015748031497
        },
        {
          "duration": 0.19480500000000234,
          "durationTicks": 96,
          "midi": 50,
          "name": "D3",
          "ticks": 22992,
          "time": 46.4759745,
          "velocity": 0.7874015748031497
        },
        {
          "duration": 0.19480500000000234,
          "durationTicks": 96,
          "midi": 50,
          "name": "D3",
          "ticks": 23088,
          "time": 46.6707795,
          "velocity": 0.7874015748031497
        },
        {
          "duration": 0.19480499999999523,
          "durationTicks": 96,
          "midi": 50,
          "name": "D3",
          "ticks": 23184,
          "time": 46.865584500000004,
          "velocity": 0.7874015748031497
        },
        {
          "duration": 0.19480500000000234,
          "durationTicks": 96,
          "midi": 50,
          "name": "D3",
          "ticks": 23280,
          "time": 47.0603895,
          "velocity": 0.7874015748031497
        },
        {
          "duration": 0.19480500000000234,
          "durationTicks": 96,
          "midi": 50,
          "name": "D3",
          "ticks": 23376,
          "time": 47.2551945,
          "velocity": 0.7874015748031497
        },
        {
          "duration": 0.19480500000000234,
          "durationTicks": 96,
          "midi": 50,
          "name": "D3",
          "ticks": 23472,
          "time": 47.449999500000004,
          "velocity": 0.7874015748031497
        },
        {
          "duration": 0.19480499999999523,
          "durationTicks": 96,
          "midi": 50,
          "name": "D3",
          "ticks": 23568,
          "time": 47.644804500000006,
          "velocity": 0.7874015748031497
        },
        {
          "duration": 0.19480500000000234,
          "durationTicks": 96,
          "midi": 55,
          "name": "G3",
          "ticks": 23664,
          "time": 47.8396095,
          "velocity": 0.7874015748031497
        },
        {
          "duration": 0.48701249999999874,
          "durationTicks": 240,
          "midi": 50,
          "name": "D3",
          "ticks": 23760,
          "time": 48.034414500000004,
          "velocity": 0.7874015748031497
        },
        {
          "duration": 0.38960999999999757,
          "durationTicks": 192,
          "midi": 52,
          "name": "E3",
          "ticks": 24000,
          "time": 48.521427,
          "velocity": 0.7874015748031497
        },
        {
          "duration": 0.3896100000000047,
          "durationTicks": 192,
          "midi": 55,
          "name": "G3",
          "ticks": 24192,
          "time": 48.911037,
          "velocity": 0.7874015748031497
        },
        {
          "duration": 0.1949949999999987,
          "durationTicks": 96,
          "midi": 40,
          "name": "E2",
          "ticks": 30528,
          "time": 61.768167000000005,
          "velocity": 0.7874015748031497
        },
        {
          "duration": 0.1949949999999987,
          "durationTicks": 96,
          "midi": 40,
          "name": "E2",
          "ticks": 30624,
          "time": 61.963162000000004,
          "velocity": 0.7874015748031497
        },
        {
          "duration": 0.1949950000000058,
          "durationTicks": 96,
          "midi": 40,
          "name": "E2",
          "ticks": 30720,
          "time": 62.158157,
          "velocity": 0.7874015748031497
        },
        {
          "duration": 0.1949949999999987,
          "durationTicks": 96,
          "midi": 40,
          "name": "E2",
          "ticks": 30816,
          "time": 62.35315200000001,
          "velocity": 0.7874015748031497
        },
        {
          "duration": 0.1949949999999987,
          "durationTicks": 96,
          "midi": 40,
          "name": "E2",
          "ticks": 30912,
          "time": 62.54814700000001,
          "velocity": 0.7874015748031497
        },
        {
          "duration": 0.1949949999999987,
          "durationTicks": 96,
          "midi": 40,
          "name": "E2",
          "ticks": 31008,
          "time": 62.743142000000006,
          "velocity": 0.7874015748031497
        },
        {
          "duration": 0.1949949999999987,
          "durationTicks": 96,
          "midi": 40,
          "name": "E2",
          "ticks": 31104,
          "time": 62.938137000000005,
          "velocity": 0.7874015748031497
        },
        {
          "duration": 0.1949949999999987,
          "durationTicks": 96,
          "midi": 40,
          "name": "E2",
          "ticks": 31200,
          "time": 63.133132,
          "velocity": 0.7874015748031497
        },
        {
          "duration": 0.1949950000000058,
          "durationTicks": 96,
          "midi": 40,
          "name": "E2",
          "ticks": 31296,
          "time": 63.328127,
          "velocity": 0.7874015748031497
        },
        {
          "duration": 0.1949949999999987,
          "durationTicks": 96,
          "midi": 40,
          "name": "E2",
          "ticks": 31392,
          "time": 63.52312200000001,
          "velocity": 0.7874015748031497
        },
        {
          "duration": 0.1949949999999987,
          "durationTicks": 96,
          "midi": 40,
          "name": "E2",
          "ticks": 31488,
          "time": 63.71811700000001,
          "velocity": 0.7874015748031497
        },
        {
          "duration": 0.1949949999999987,
          "durationTicks": 96,
          "midi": 40,
          "name": "E2",
          "ticks": 31584,
          "time": 63.913112000000005,
          "velocity": 0.7874015748031497
        },
        {
          "duration": 0.1949950000000058,
          "durationTicks": 96,
          "midi": 45,
          "name": "A2",
          "ticks": 31680,
          "time": 64.108107,
          "velocity": 0.7874015748031497
        },
        {
          "duration": 0.1949949999999916,
          "durationTicks": 96,
          "midi": 47,
          "name": "B2",
          "ticks": 31776,
          "time": 64.30310200000001,
          "velocity": 0.7874015748031497
        },
        {
          "duration": 0.1949950000000058,
          "durationTicks": 96,
          "midi": 38,
          "name": "D2",
          "ticks": 31872,
          "time": 64.498097,
          "velocity": 0.7874015748031497
        },
        {
          "duration": 0.1949949999999916,
          "durationTicks": 96,
          "midi": 52,
          "name": "E3",
          "ticks": 31968,
          "time": 64.69309200000001,
          "velocity": 0.7874015748031497
        },
        {
          "duration": 0.1949950000000058,
          "durationTicks": 96,
          "midi": 50,
          "name": "D3",
          "ticks": 32064,
          "time": 64.888087,
          "velocity": 0.7874015748031497
        },
        {
          "duration": 0.1949950000000058,
          "durationTicks": 96,
          "midi": 50,
          "name": "D3",
          "ticks": 32160,
          "time": 65.083082,
          "velocity": 0.7874015748031497
        },
        {
          "duration": 0.1949949999999916,
          "durationTicks": 96,
          "midi": 50,
          "name": "D3",
          "ticks": 32256,
          "time": 65.27807700000001,
          "velocity": 0.7874015748031497
        },
        {
          "duration": 0.1949950000000058,
          "durationTicks": 96,
          "midi": 50,
          "name": "D3",
          "ticks": 32352,
          "time": 65.473072,
          "velocity": 0.7874015748031497
        },
        {
          "duration": 0.1949949999999916,
          "durationTicks": 96,
          "midi": 50,
          "name": "D3",
          "ticks": 32448,
          "time": 65.66806700000001,
          "velocity": 0.7874015748031497
        },
        {
          "duration": 0.1949950000000058,
          "durationTicks": 96,
          "midi": 50,
          "name": "D3",
          "ticks": 32544,
          "time": 65.863062,
          "velocity": 0.7874015748031497
        },
        {
          "duration": 0.1949950000000058,
          "durationTicks": 96,
          "midi": 50,
          "name": "D3",
          "ticks": 32640,
          "time": 66.058057,
          "velocity": 0.7874015748031497
        },
        {
          "duration": 0.1949949999999916,
          "durationTicks": 96,
          "midi": 50,
          "name": "D3",
          "ticks": 32736,
          "time": 66.25305200000001,
          "velocity": 0.7874015748031497
        },
        {
          "duration": 0.1949950000000058,
          "durationTicks": 96,
          "midi": 55,
          "name": "G3",
          "ticks": 32832,
          "time": 66.448047,
          "velocity": 0.7874015748031497
        },
        {
          "duration": 0.4874875000000003,
          "durationTicks": 240,
          "midi": 50,
          "name": "D3",
          "ticks": 32928,
          "time": 66.64304200000001,
          "velocity": 0.7874015748031497
        },
        {
          "duration": 0.3899899999999974,
          "durationTicks": 192,
          "midi": 52,
          "name": "E3",
          "ticks": 33168,
          "time": 67.13052950000001,
          "velocity": 0.7874015748031497
        },
        {
          "duration": 0.3899899999999974,
          "durationTicks": 192,
          "midi": 55,
          "name": "G3",
          "ticks": 33360,
          "time": 67.5205195,
          "velocity": 0.7874015748031497
        },
        {
          "duration": 0.1949950000000058,
          "durationTicks": 96,
          "midi": 40,
          "name": "E2",
          "ticks": 33552,
          "time": 67.9105095,
          "velocity": 0.7874015748031497
        },
        {
          "duration": 0.1949949999999916,
          "durationTicks": 96,
          "midi": 40,
          "name": "E2",
          "ticks": 33648,
          "time": 68.10550450000001,
          "velocity": 0.7874015748031497
        },
        {
          "duration": 0.1949950000000058,
          "durationTicks": 96,
          "midi": 40,
          "name": "E2",
          "ticks": 33744,
          "time": 68.3004995,
          "velocity": 0.7874015748031497
        },
        {
          "duration": 0.1949949999999916,
          "durationTicks": 96,
          "midi": 40,
          "name": "E2",
          "ticks": 33840,
          "time": 68.4954945,
          "velocity": 0.7874015748031497
        },
        {
          "duration": 0.1949950000000058,
          "durationTicks": 96,
          "midi": 40,
          "name": "E2",
          "ticks": 33936,
          "time": 68.6904895,
          "velocity": 0.7874015748031497
        },
        {
          "duration": 0.1949950000000058,
          "durationTicks": 96,
          "midi": 40,
          "name": "E2",
          "ticks": 34032,
          "time": 68.8854845,
          "velocity": 0.7874015748031497
        },
        {
          "duration": 0.1949949999999916,
          "durationTicks": 96,
          "midi": 40,
          "name": "E2",
          "ticks": 34128,
          "time": 69.08047950000001,
          "velocity": 0.7874015748031497
        },
        {
          "duration": 0.1949950000000058,
          "durationTicks": 96,
          "midi": 40,
          "name": "E2",
          "ticks": 34224,
          "time": 69.2754745,
          "velocity": 0.7874015748031497
        },
        {
          "duration": 0.1949949999999916,
          "durationTicks": 96,
          "midi": 40,
          "name": "E2",
          "ticks": 34320,
          "time": 69.47046950000001,
          "velocity": 0.7874015748031497
        },
        {
          "duration": 0.1949950000000058,
          "durationTicks": 96,
          "midi": 40,
          "name": "E2",
          "ticks": 34416,
          "time": 69.6654645,
          "velocity": 0.7874015748031497
        },
        {
          "duration": 0.1949949999999916,
          "durationTicks": 96,
          "midi": 40,
          "name": "E2",
          "ticks": 34512,
          "time": 69.8604595,
          "velocity": 0.7874015748031497
        },
        {
          "duration": 0.1949950000000058,
          "durationTicks": 96,
          "midi": 40,
          "name": "E2",
          "ticks": 34608,
          "time": 70.0554545,
          "velocity": 0.7874015748031497
        },
        {
          "duration": 0.1949950000000058,
          "durationTicks": 96,
          "midi": 45,
          "name": "A2",
          "ticks": 34704,
          "time": 70.2504495,
          "velocity": 0.7874015748031497
        },
        {
          "duration": 0.1949949999999916,
          "durationTicks": 96,
          "midi": 47,
          "name": "B2",
          "ticks": 34800,
          "time": 70.44544450000001,
          "velocity": 0.7874015748031497
        },
        {
          "duration": 0.1949950000000058,
          "durationTicks": 96,
          "midi": 38,
          "name": "D2",
          "ticks": 34896,
          "time": 70.6404395,
          "velocity": 0.7874015748031497
        },
        {
          "duration": 0.1949949999999916,
          "durationTicks": 96,
          "midi": 52,
          "name": "E3",
          "ticks": 34992,
          "time": 70.8354345,
          "velocity": 0.7874015748031497
        },
        {
          "duration": 0.1949950000000058,
          "durationTicks": 96,
          "midi": 50,
          "name": "D3",
          "ticks": 35088,
          "time": 71.0304295,
          "velocity": 0.7874015748031497
        },
        {
          "duration": 0.1949950000000058,
          "durationTicks": 96,
          "midi": 50,
          "name": "D3",
          "ticks": 35184,
          "time": 71.2254245,
          "velocity": 0.7874015748031497
        },
        {
          "duration": 0.1949949999999916,
          "durationTicks": 96,
          "midi": 50,
          "name": "D3",
          "ticks": 35280,
          "time": 71.42041950000001,
          "velocity": 0.7874015748031497
        },
        {
          "duration": 0.1949950000000058,
          "durationTicks": 96,
          "midi": 50,
          "name": "D3",
          "ticks": 35376,
          "time": 71.6154145,
          "velocity": 0.7874015748031497
        },
        {
          "duration": 0.1949949999999916,
          "durationTicks": 96,
          "midi": 50,
          "name": "D3",
          "ticks": 35472,
          "time": 71.8104095,
          "velocity": 0.7874015748031497
        },
        {
          "duration": 0.1949950000000058,
          "durationTicks": 96,
          "midi": 50,
          "name": "D3",
          "ticks": 35568,
          "time": 72.0054045,
          "velocity": 0.7874015748031497
        },
        {
          "duration": 0.1949950000000058,
          "durationTicks": 96,
          "midi": 50,
          "name": "D3",
          "ticks": 35664,
          "time": 72.2003995,
          "velocity": 0.7874015748031497
        },
        {
          "duration": 0.1949949999999916,
          "durationTicks": 96,
          "midi": 50,
          "name": "D3",
          "ticks": 35760,
          "time": 72.39539450000001,
          "velocity": 0.7874015748031497
        },
        {
          "duration": 0.1949950000000058,
          "durationTicks": 96,
          "midi": 55,
          "name": "G3",
          "ticks": 35856,
          "time": 72.5903895,
          "velocity": 0.7874015748031497
        },
        {
          "duration": 0.4874875000000003,
          "durationTicks": 240,
          "midi": 50,
          "name": "D3",
          "ticks": 35952,
          "time": 72.7853845,
          "velocity": 0.7874015748031497
        },
        {
          "duration": 0.3899899999999974,
          "durationTicks": 192,
          "midi": 52,
          "name": "E3",
          "ticks": 36192,
          "time": 73.272872,
          "velocity": 0.7874015748031497
        },
        {
          "duration": 0.3899899999999974,
          "durationTicks": 192,
          "midi": 55,
          "name": "G3",
          "ticks": 36384,
          "time": 73.662862,
          "velocity": 0.7874015748031497
        },
        {
          "duration": 0.1949950000000058,
          "durationTicks": 96,
          "midi": 40,
          "name": "E2",
          "ticks": 36576,
          "time": 74.052852,
          "velocity": 0.7874015748031497
        },
        {
          "duration": 0.1949949999999916,
          "durationTicks": 96,
          "midi": 40,
          "name": "E2",
          "ticks": 36672,
          "time": 74.24784700000001,
          "velocity": 0.7874015748031497
        },
        {
          "duration": 0.1949950000000058,
          "durationTicks": 96,
          "midi": 40,
          "name": "E2",
          "ticks": 36768,
          "time": 74.442842,
          "velocity": 0.7874015748031497
        },
        {
          "duration": 0.1949949999999916,
          "durationTicks": 96,
          "midi": 40,
          "name": "E2",
          "ticks": 36864,
          "time": 74.637837,
          "velocity": 0.7874015748031497
        },
        {
          "duration": 0.1949950000000058,
          "durationTicks": 96,
          "midi": 40,
          "name": "E2",
          "ticks": 36960,
          "time": 74.832832,
          "velocity": 0.7874015748031497
        },
        {
          "duration": 0.1949950000000058,
          "durationTicks": 96,
          "midi": 40,
          "name": "E2",
          "ticks": 37056,
          "time": 75.027827,
          "velocity": 0.7874015748031497
        },
        {
          "duration": 0.1949949999999916,
          "durationTicks": 96,
          "midi": 40,
          "name": "E2",
          "ticks": 37152,
          "time": 75.22282200000001,
          "velocity": 0.7874015748031497
        },
        {
          "duration": 0.1949950000000058,
          "durationTicks": 96,
          "midi": 40,
          "name": "E2",
          "ticks": 37248,
          "time": 75.417817,
          "velocity": 0.7874015748031497
        },
        {
          "duration": 0.1949949999999916,
          "durationTicks": 96,
          "midi": 40,
          "name": "E2",
          "ticks": 37344,
          "time": 75.612812,
          "velocity": 0.7874015748031497
        },
        {
          "duration": 0.1949950000000058,
          "durationTicks": 96,
          "midi": 40,
          "name": "E2",
          "ticks": 37440,
          "time": 75.807807,
          "velocity": 0.7874015748031497
        },
        {
          "duration": 0.1949950000000058,
          "durationTicks": 96,
          "midi": 40,
          "name": "E2",
          "ticks": 37536,
          "time": 76.002802,
          "velocity": 0.7874015748031497
        },
        {
          "duration": 0.1949949999999916,
          "durationTicks": 96,
          "midi": 40,
          "name": "E2",
          "ticks": 37632,
          "time": 76.19779700000001,
          "velocity": 0.7874015748031497
        },
        {
          "duration": 0.1949950000000058,
          "durationTicks": 96,
          "midi": 45,
          "name": "A2",
          "ticks": 37728,
          "time": 76.392792,
          "velocity": 0.7874015748031497
        },
        {
          "duration": 0.1949949999999916,
          "durationTicks": 96,
          "midi": 47,
          "name": "B2",
          "ticks": 37824,
          "time": 76.587787,
          "velocity": 0.7874015748031497
        },
        {
          "duration": 0.1949950000000058,
          "durationTicks": 96,
          "midi": 38,
          "name": "D2",
          "ticks": 37920,
          "time": 76.782782,
          "velocity": 0.7874015748031497
        },
        {
          "duration": 0.1949949999999916,
          "durationTicks": 96,
          "midi": 52,
          "name": "E3",
          "ticks": 38016,
          "time": 76.977777,
          "velocity": 0.7874015748031497
        },
        {
          "duration": 0.1949950000000058,
          "durationTicks": 96,
          "midi": 50,
          "name": "D3",
          "ticks": 38112,
          "time": 77.172772,
          "velocity": 0.7874015748031497
        },
        {
          "duration": 0.1949950000000058,
          "durationTicks": 96,
          "midi": 50,
          "name": "D3",
          "ticks": 38208,
          "time": 77.367767,
          "velocity": 0.7874015748031497
        },
        {
          "duration": 0.1949949999999916,
          "durationTicks": 96,
          "midi": 50,
          "name": "D3",
          "ticks": 38304,
          "time": 77.562762,
          "velocity": 0.7874015748031497
        },
        {
          "duration": 0.1949950000000058,
          "durationTicks": 96,
          "midi": 50,
          "name": "D3",
          "ticks": 38400,
          "time": 77.757757,
          "velocity": 0.7874015748031497
        },
        {
          "duration": 0.1949949999999916,
          "durationTicks": 96,
          "midi": 50,
          "name": "D3",
          "ticks": 38496,
          "time": 77.952752,
          "velocity": 0.7874015748031497
        },
        {
          "duration": 0.1949950000000058,
          "durationTicks": 96,
          "midi": 50,
          "name": "D3",
          "ticks": 38592,
          "time": 78.147747,
          "velocity": 0.7874015748031497
        },
        {
          "duration": 0.1949950000000058,
          "durationTicks": 96,
          "midi": 50,
          "name": "D3",
          "ticks": 38688,
          "time": 78.342742,
          "velocity": 0.7874015748031497
        },
        {
          "duration": 0.1949949999999916,
          "durationTicks": 96,
          "midi": 50,
          "name": "D3",
          "ticks": 38784,
          "time": 78.537737,
          "velocity": 0.7874015748031497
        },
        {
          "duration": 0.1949950000000058,
          "durationTicks": 96,
          "midi": 55,
          "name": "G3",
          "ticks": 38880,
          "time": 78.732732,
          "velocity": 0.7874015748031497
        },
        {
          "duration": 0.4874875000000003,
          "durationTicks": 240,
          "midi": 50,
          "name": "D3",
          "ticks": 38976,
          "time": 78.927727,
          "velocity": 0.7874015748031497
        },
        {
          "duration": 0.3899899999999974,
          "durationTicks": 192,
          "midi": 52,
          "name": "E3",
          "ticks": 39216,
          "time": 79.4152145,
          "velocity": 0.7874015748031497
        },
        {
          "duration": 0.3899899999999974,
          "durationTicks": 192,
          "midi": 55,
          "name": "G3",
          "ticks": 39408,
          "time": 79.8052045,
          "velocity": 0.7874015748031497
        },
        {
          "duration": 0.1949950000000058,
          "durationTicks": 96,
          "midi": 40,
          "name": "E2",
          "ticks": 39600,
          "time": 80.1951945,
          "velocity": 0.7874015748031497
        },
        {
          "duration": 0.1949949999999916,
          "durationTicks": 96,
          "midi": 40,
          "name": "E2",
          "ticks": 39696,
          "time": 80.3901895,
          "velocity": 0.7874015748031497
        },
        {
          "duration": 0.1949950000000058,
          "durationTicks": 96,
          "midi": 40,
          "name": "E2",
          "ticks": 39792,
          "time": 80.5851845,
          "velocity": 0.7874015748031497
        },
        {
          "duration": 0.1949949999999916,
          "durationTicks": 96,
          "midi": 40,
          "name": "E2",
          "ticks": 39888,
          "time": 80.7801795,
          "velocity": 0.7874015748031497
        },
        {
          "duration": 0.1949950000000058,
          "durationTicks": 96,
          "midi": 40,
          "name": "E2",
          "ticks": 39984,
          "time": 80.9751745,
          "velocity": 0.7874015748031497
        },
        {
          "duration": 0.1949950000000058,
          "durationTicks": 96,
          "midi": 40,
          "name": "E2",
          "ticks": 40080,
          "time": 81.1701695,
          "velocity": 0.7874015748031497
        },
        {
          "duration": 0.1949949999999916,
          "durationTicks": 96,
          "midi": 40,
          "name": "E2",
          "ticks": 40176,
          "time": 81.3651645,
          "velocity": 0.7874015748031497
        },
        {
          "duration": 0.1949950000000058,
          "durationTicks": 96,
          "midi": 40,
          "name": "E2",
          "ticks": 40272,
          "time": 81.5601595,
          "velocity": 0.7874015748031497
        },
        {
          "duration": 0.1949949999999916,
          "durationTicks": 96,
          "midi": 40,
          "name": "E2",
          "ticks": 40368,
          "time": 81.7551545,
          "velocity": 0.7874015748031497
        },
        {
          "duration": 0.1949950000000058,
          "durationTicks": 96,
          "midi": 40,
          "name": "E2",
          "ticks": 40464,
          "time": 81.9501495,
          "velocity": 0.7874015748031497
        },
        {
          "duration": 0.1949949999999916,
          "durationTicks": 96,
          "midi": 40,
          "name": "E2",
          "ticks": 40560,
          "time": 82.1451445,
          "velocity": 0.7874015748031497
        },
        {
          "duration": 0.1949950000000058,
          "durationTicks": 96,
          "midi": 40,
          "name": "E2",
          "ticks": 40656,
          "time": 82.34013949999999,
          "velocity": 0.7874015748031497
        },
        {
          "duration": 0.1949950000000058,
          "durationTicks": 96,
          "midi": 45,
          "name": "A2",
          "ticks": 40752,
          "time": 82.5351345,
          "velocity": 0.7874015748031497
        },
        {
          "duration": 0.1949949999999916,
          "durationTicks": 96,
          "midi": 47,
          "name": "B2",
          "ticks": 40848,
          "time": 82.7301295,
          "velocity": 0.7874015748031497
        },
        {
          "duration": 0.1949950000000058,
          "durationTicks": 96,
          "midi": 38,
          "name": "D2",
          "ticks": 40944,
          "time": 82.9251245,
          "velocity": 0.7874015748031497
        },
        {
          "duration": 0.1949949999999916,
          "durationTicks": 96,
          "midi": 52,
          "name": "E3",
          "ticks": 41040,
          "time": 83.1201195,
          "velocity": 0.7874015748031497
        },
        {
          "duration": 0.1949950000000058,
          "durationTicks": 96,
          "midi": 50,
          "name": "D3",
          "ticks": 41136,
          "time": 83.31511449999999,
          "velocity": 0.7874015748031497
        },
        {
          "duration": 0.1949950000000058,
          "durationTicks": 96,
          "midi": 50,
          "name": "D3",
          "ticks": 41232,
          "time": 83.5101095,
          "velocity": 0.7874015748031497
        },
        {
          "duration": 0.1949949999999916,
          "durationTicks": 96,
          "midi": 50,
          "name": "D3",
          "ticks": 41328,
          "time": 83.7051045,
          "velocity": 0.7874015748031497
        },
        {
          "duration": 0.1949950000000058,
          "durationTicks": 96,
          "midi": 50,
          "name": "D3",
          "ticks": 41424,
          "time": 83.9000995,
          "velocity": 0.7874015748031497
        },
        {
          "duration": 0.1949949999999916,
          "durationTicks": 96,
          "midi": 50,
          "name": "D3",
          "ticks": 41520,
          "time": 84.0950945,
          "velocity": 0.7874015748031497
        },
        {
          "duration": 0.1949950000000058,
          "durationTicks": 96,
          "midi": 50,
          "name": "D3",
          "ticks": 41616,
          "time": 84.2900895,
          "velocity": 0.7874015748031497
        },
        {
          "duration": 0.1949950000000058,
          "durationTicks": 96,
          "midi": 50,
          "name": "D3",
          "ticks": 41712,
          "time": 84.4850845,
          "velocity": 0.7874015748031497
        },
        {
          "duration": 0.1949949999999916,
          "durationTicks": 96,
          "midi": 50,
          "name": "D3",
          "ticks": 41808,
          "time": 84.6800795,
          "velocity": 0.7874015748031497
        },
        {
          "duration": 0.1949950000000058,
          "durationTicks": 96,
          "midi": 55,
          "name": "G3",
          "ticks": 41904,
          "time": 84.8750745,
          "velocity": 0.7874015748031497
        },
        {
          "duration": 0.4874875000000003,
          "durationTicks": 240,
          "midi": 50,
          "name": "D3",
          "ticks": 42000,
          "time": 85.0700695,
          "velocity": 0.7874015748031497
        },
        {
          "duration": 0.3899899999999974,
          "durationTicks": 192,
          "midi": 52,
          "name": "E3",
          "ticks": 42240,
          "time": 85.557557,
          "velocity": 0.7874015748031497
        },
        {
          "duration": 0.3899899999999974,
          "durationTicks": 192,
          "midi": 55,
          "name": "G3",
          "ticks": 42432,
          "time": 85.947547,
          "velocity": 0.7874015748031497
        },
        {
          "duration": 0.1949950000000058,
          "durationTicks": 96,
          "midi": 40,
          "name": "E2",
          "ticks": 42624,
          "time": 86.337537,
          "velocity": 0.7874015748031497
        },
        {
          "duration": 0.1949949999999916,
          "durationTicks": 96,
          "midi": 40,
          "name": "E2",
          "ticks": 42720,
          "time": 86.532532,
          "velocity": 0.7874015748031497
        },
        {
          "duration": 0.1949950000000058,
          "durationTicks": 96,
          "midi": 40,
          "name": "E2",
          "ticks": 42816,
          "time": 86.727527,
          "velocity": 0.7874015748031497
        },
        {
          "duration": 0.1949949999999916,
          "durationTicks": 96,
          "midi": 40,
          "name": "E2",
          "ticks": 42912,
          "time": 86.922522,
          "velocity": 0.7874015748031497
        },
        {
          "duration": 0.1949950000000058,
          "durationTicks": 96,
          "midi": 40,
          "name": "E2",
          "ticks": 43008,
          "time": 87.11751699999999,
          "velocity": 0.7874015748031497
        },
        {
          "duration": 0.1949950000000058,
          "durationTicks": 96,
          "midi": 40,
          "name": "E2",
          "ticks": 43104,
          "time": 87.312512,
          "velocity": 0.7874015748031497
        },
        {
          "duration": 0.1949949999999916,
          "durationTicks": 96,
          "midi": 40,
          "name": "E2",
          "ticks": 43200,
          "time": 87.507507,
          "velocity": 0.7874015748031497
        },
        {
          "duration": 0.1949950000000058,
          "durationTicks": 96,
          "midi": 40,
          "name": "E2",
          "ticks": 43296,
          "time": 87.702502,
          "velocity": 0.7874015748031497
        },
        {
          "duration": 0.1949949999999916,
          "durationTicks": 96,
          "midi": 40,
          "name": "E2",
          "ticks": 43392,
          "time": 87.897497,
          "velocity": 0.7874015748031497
        },
        {
          "duration": 0.1949950000000058,
          "durationTicks": 96,
          "midi": 40,
          "name": "E2",
          "ticks": 43488,
          "time": 88.092492,
          "velocity": 0.7874015748031497
        },
        {
          "duration": 0.1949950000000058,
          "durationTicks": 96,
          "midi": 40,
          "name": "E2",
          "ticks": 43584,
          "time": 88.287487,
          "velocity": 0.7874015748031497
        },
        {
          "duration": 0.1949949999999916,
          "durationTicks": 96,
          "midi": 40,
          "name": "E2",
          "ticks": 43680,
          "time": 88.482482,
          "velocity": 0.7874015748031497
        },
        {
          "duration": 0.1949950000000058,
          "durationTicks": 96,
          "midi": 45,
          "name": "A2",
          "ticks": 43776,
          "time": 88.677477,
          "velocity": 0.7874015748031497
        },
        {
          "duration": 0.1949949999999916,
          "durationTicks": 96,
          "midi": 47,
          "name": "B2",
          "ticks": 43872,
          "time": 88.872472,
          "velocity": 0.7874015748031497
        },
        {
          "duration": 0.1949950000000058,
          "durationTicks": 96,
          "midi": 38,
          "name": "D2",
          "ticks": 43968,
          "time": 89.067467,
          "velocity": 0.7874015748031497
        },
        {
          "duration": 0.1949949999999916,
          "durationTicks": 96,
          "midi": 52,
          "name": "E3",
          "ticks": 44064,
          "time": 89.262462,
          "velocity": 0.7874015748031497
        },
        {
          "duration": 0.1949950000000058,
          "durationTicks": 96,
          "midi": 50,
          "name": "D3",
          "ticks": 44160,
          "time": 89.45745699999999,
          "velocity": 0.7874015748031497
        },
        {
          "duration": 0.1949950000000058,
          "durationTicks": 96,
          "midi": 50,
          "name": "D3",
          "ticks": 44256,
          "time": 89.652452,
          "velocity": 0.7874015748031497
        },
        {
          "duration": 0.1949949999999916,
          "durationTicks": 96,
          "midi": 50,
          "name": "D3",
          "ticks": 44352,
          "time": 89.847447,
          "velocity": 0.7874015748031497
        },
        {
          "duration": 0.1949950000000058,
          "durationTicks": 96,
          "midi": 50,
          "name": "D3",
          "ticks": 44448,
          "time": 90.042442,
          "velocity": 0.7874015748031497
        },
        {
          "duration": 0.1949949999999916,
          "durationTicks": 96,
          "midi": 50,
          "name": "D3",
          "ticks": 44544,
          "time": 90.237437,
          "velocity": 0.7874015748031497
        },
        {
          "duration": 0.1949950000000058,
          "durationTicks": 96,
          "midi": 50,
          "name": "D3",
          "ticks": 44640,
          "time": 90.43243199999999,
          "velocity": 0.7874015748031497
        },
        {
          "duration": 0.1949950000000058,
          "durationTicks": 96,
          "midi": 50,
          "name": "D3",
          "ticks": 44736,
          "time": 90.627427,
          "velocity": 0.7874015748031497
        },
        {
          "duration": 0.1949949999999916,
          "durationTicks": 96,
          "midi": 50,
          "name": "D3",
          "ticks": 44832,
          "time": 90.822422,
          "velocity": 0.7874015748031497
        },
        {
          "duration": 0.1949950000000058,
          "durationTicks": 96,
          "midi": 55,
          "name": "G3",
          "ticks": 44928,
          "time": 91.017417,
          "velocity": 0.7874015748031497
        },
        {
          "duration": 0.4874875000000003,
          "durationTicks": 240,
          "midi": 50,
          "name": "D3",
          "ticks": 45024,
          "time": 91.212412,
          "velocity": 0.7874015748031497
        },
        {
          "duration": 0.3899899999999974,
          "durationTicks": 192,
          "midi": 52,
          "name": "E3",
          "ticks": 45264,
          "time": 91.6998995,
          "velocity": 0.7874015748031497
        },
        {
          "duration": 0.3899899999999974,
          "durationTicks": 192,
          "midi": 55,
          "name": "G3",
          "ticks": 45456,
          "time": 92.0898895,
          "velocity": 0.7874015748031497
        },
        {
          "duration": 0.1949950000000058,
          "durationTicks": 96,
          "midi": 40,
          "name": "E2",
          "ticks": 45648,
          "time": 92.4798795,
          "velocity": 0.7874015748031497
        },
        {
          "duration": 0.1949949999999916,
          "durationTicks": 96,
          "midi": 40,
          "name": "E2",
          "ticks": 45744,
          "time": 92.6748745,
          "velocity": 0.7874015748031497
        },
        {
          "duration": 0.1949950000000058,
          "durationTicks": 96,
          "midi": 40,
          "name": "E2",
          "ticks": 45840,
          "time": 92.8698695,
          "velocity": 0.7874015748031497
        },
        {
          "duration": 0.1949949999999916,
          "durationTicks": 96,
          "midi": 40,
          "name": "E2",
          "ticks": 45936,
          "time": 93.0648645,
          "velocity": 0.7874015748031497
        },
        {
          "duration": 0.1949950000000058,
          "durationTicks": 96,
          "midi": 40,
          "name": "E2",
          "ticks": 46032,
          "time": 93.25985949999999,
          "velocity": 0.7874015748031497
        },
        {
          "duration": 0.1949950000000058,
          "durationTicks": 96,
          "midi": 40,
          "name": "E2",
          "ticks": 46128,
          "time": 93.4548545,
          "velocity": 0.7874015748031497
        },
        {
          "duration": 0.1949949999999916,
          "durationTicks": 96,
          "midi": 40,
          "name": "E2",
          "ticks": 46224,
          "time": 93.6498495,
          "velocity": 0.7874015748031497
        },
        {
          "duration": 0.1949950000000058,
          "durationTicks": 96,
          "midi": 40,
          "name": "E2",
          "ticks": 46320,
          "time": 93.8448445,
          "velocity": 0.7874015748031497
        },
        {
          "duration": 0.1949949999999916,
          "durationTicks": 96,
          "midi": 40,
          "name": "E2",
          "ticks": 46416,
          "time": 94.0398395,
          "velocity": 0.7874015748031497
        },
        {
          "duration": 0.1949950000000058,
          "durationTicks": 96,
          "midi": 40,
          "name": "E2",
          "ticks": 46512,
          "time": 94.23483449999999,
          "velocity": 0.7874015748031497
        },
        {
          "duration": 0.1949949999999916,
          "durationTicks": 96,
          "midi": 40,
          "name": "E2",
          "ticks": 46608,
          "time": 94.4298295,
          "velocity": 0.7874015748031497
        },
        {
          "duration": 0.1949950000000058,
          "durationTicks": 96,
          "midi": 40,
          "name": "E2",
          "ticks": 46704,
          "time": 94.62482449999999,
          "velocity": 0.7874015748031497
        },
        {
          "duration": 0.1949950000000058,
          "durationTicks": 96,
          "midi": 45,
          "name": "A2",
          "ticks": 46800,
          "time": 94.8198195,
          "velocity": 0.7874015748031497
        },
        {
          "duration": 0.1949949999999916,
          "durationTicks": 96,
          "midi": 47,
          "name": "B2",
          "ticks": 46896,
          "time": 95.0148145,
          "velocity": 0.7874015748031497
        },
        {
          "duration": 0.1949950000000058,
          "durationTicks": 96,
          "midi": 38,
          "name": "D2",
          "ticks": 46992,
          "time": 95.20980949999999,
          "velocity": 0.7874015748031497
        },
        {
          "duration": 0.1949949999999916,
          "durationTicks": 96,
          "midi": 52,
          "name": "E3",
          "ticks": 47088,
          "time": 95.4048045,
          "velocity": 0.7874015748031497
        },
        {
          "duration": 0.1949950000000058,
          "durationTicks": 96,
          "midi": 50,
          "name": "D3",
          "ticks": 47184,
          "time": 95.59979949999999,
          "velocity": 0.7874015748031497
        },
        {
          "duration": 0.1949950000000058,
          "durationTicks": 96,
          "midi": 50,
          "name": "D3",
          "ticks": 47280,
          "time": 95.7947945,
          "velocity": 0.7874015748031497
        },
        {
          "duration": 0.1949949999999916,
          "durationTicks": 96,
          "midi": 50,
          "name": "D3",
          "ticks": 47376,
          "time": 95.9897895,
          "velocity": 0.7874015748031497
        },
        {
          "duration": 0.1949950000000058,
          "durationTicks": 96,
          "midi": 50,
          "name": "D3",
          "ticks": 47472,
          "time": 96.18478449999999,
          "velocity": 0.7874015748031497
        },
        {
          "duration": 0.1949949999999916,
          "durationTicks": 96,
          "midi": 50,
          "name": "D3",
          "ticks": 47568,
          "time": 96.3797795,
          "velocity": 0.7874015748031497
        },
        {
          "duration": 0.1949950000000058,
          "durationTicks": 96,
          "midi": 50,
          "name": "D3",
          "ticks": 47664,
          "time": 96.57477449999999,
          "velocity": 0.7874015748031497
        },
        {
          "duration": 0.1949950000000058,
          "durationTicks": 96,
          "midi": 50,
          "name": "D3",
          "ticks": 47760,
          "time": 96.7697695,
          "velocity": 0.7874015748031497
        },
        {
          "duration": 0.1949949999999916,
          "durationTicks": 96,
          "midi": 50,
          "name": "D3",
          "ticks": 47856,
          "time": 96.9647645,
          "velocity": 0.7874015748031497
        },
        {
          "duration": 0.1949950000000058,
          "durationTicks": 96,
          "midi": 55,
          "name": "G3",
          "ticks": 47952,
          "time": 97.15975949999999,
          "velocity": 0.7874015748031497
        },
        {
          "duration": 0.4874875000000003,
          "durationTicks": 240,
          "midi": 50,
          "name": "D3",
          "ticks": 48048,
          "time": 97.3547545,
          "velocity": 0.7874015748031497
        },
        {
          "duration": 0.3899899999999974,
          "durationTicks": 192,
          "midi": 52,
          "name": "E3",
          "ticks": 48288,
          "time": 97.842242,
          "velocity": 0.7874015748031497
        },
        {
          "duration": 0.3899899999999974,
          "durationTicks": 192,
          "midi": 55,
          "name": "G3",
          "ticks": 48480,
          "time": 98.232232,
          "velocity": 0.7874015748031497
        },
        {
          "duration": 0.1949950000000058,
          "durationTicks": 96,
          "midi": 40,
          "name": "E2",
          "ticks": 48672,
          "time": 98.622222,
          "velocity": 0.7874015748031497
        },
        {
          "duration": 0.1949949999999916,
          "durationTicks": 96,
          "midi": 40,
          "name": "E2",
          "ticks": 48768,
          "time": 98.817217,
          "velocity": 0.7874015748031497
        },
        {
          "duration": 0.1949950000000058,
          "durationTicks": 96,
          "midi": 40,
          "name": "E2",
          "ticks": 48864,
          "time": 99.01221199999999,
          "velocity": 0.7874015748031497
        },
        {
          "duration": 0.1949949999999916,
          "durationTicks": 96,
          "midi": 40,
          "name": "E2",
          "ticks": 48960,
          "time": 99.207207,
          "velocity": 0.7874015748031497
        },
        {
          "duration": 0.1949950000000058,
          "durationTicks": 96,
          "midi": 40,
          "name": "E2",
          "ticks": 49056,
          "time": 99.40220199999999,
          "velocity": 0.7874015748031497
        },
        {
          "duration": 0.1949950000000058,
          "durationTicks": 96,
          "midi": 40,
          "name": "E2",
          "ticks": 49152,
          "time": 99.597197,
          "velocity": 0.7874015748031497
        },
        {
          "duration": 0.1949949999999916,
          "durationTicks": 96,
          "midi": 40,
          "name": "E2",
          "ticks": 49248,
          "time": 99.792192,
          "velocity": 0.7874015748031497
        },
        {
          "duration": 0.1949950000000058,
          "durationTicks": 96,
          "midi": 40,
          "name": "E2",
          "ticks": 49344,
          "time": 99.98718699999999,
          "velocity": 0.7874015748031497
        },
        {
          "duration": 0.1949949999999916,
          "durationTicks": 96,
          "midi": 40,
          "name": "E2",
          "ticks": 49440,
          "time": 100.182182,
          "velocity": 0.7874015748031497
        },
        {
          "duration": 0.1949950000000058,
          "durationTicks": 96,
          "midi": 40,
          "name": "E2",
          "ticks": 49536,
          "time": 100.37717699999999,
          "velocity": 0.7874015748031497
        },
        {
          "duration": 0.1949950000000058,
          "durationTicks": 96,
          "midi": 40,
          "name": "E2",
          "ticks": 49632,
          "time": 100.572172,
          "velocity": 0.7874015748031497
        },
        {
          "duration": 0.1949949999999916,
          "durationTicks": 96,
          "midi": 40,
          "name": "E2",
          "ticks": 49728,
          "time": 100.767167,
          "velocity": 0.7874015748031497
        },
        {
          "duration": 0.1949950000000058,
          "durationTicks": 96,
          "midi": 45,
          "name": "A2",
          "ticks": 49824,
          "time": 100.96216199999999,
          "velocity": 0.7874015748031497
        },
        {
          "duration": 0.1949949999999916,
          "durationTicks": 96,
          "midi": 47,
          "name": "B2",
          "ticks": 49920,
          "time": 101.157157,
          "velocity": 0.7874015748031497
        },
        {
          "duration": 0.1949950000000058,
          "durationTicks": 96,
          "midi": 38,
          "name": "D2",
          "ticks": 50016,
          "time": 101.35215199999999,
          "velocity": 0.7874015748031497
        },
        {
          "duration": 0.1949949999999916,
          "durationTicks": 96,
          "midi": 52,
          "name": "E3",
          "ticks": 50112,
          "time": 101.547147,
          "velocity": 0.7874015748031497
        },
        {
          "duration": 0.1949950000000058,
          "durationTicks": 96,
          "midi": 50,
          "name": "D3",
          "ticks": 50208,
          "time": 101.74214199999999,
          "velocity": 0.7874015748031497
        },
        {
          "duration": 0.1949950000000058,
          "durationTicks": 96,
          "midi": 50,
          "name": "D3",
          "ticks": 50304,
          "time": 101.93713699999999,
          "velocity": 0.7874015748031497
        },
        {
          "duration": 0.1949949999999916,
          "durationTicks": 96,
          "midi": 50,
          "name": "D3",
          "ticks": 50400,
          "time": 102.132132,
          "velocity": 0.7874015748031497
        },
        {
          "duration": 0.1949950000000058,
          "durationTicks": 96,
          "midi": 50,
          "name": "D3",
          "ticks": 50496,
          "time": 102.32712699999999,
          "velocity": 0.7874015748031497
        },
        {
          "duration": 0.1949949999999916,
          "durationTicks": 96,
          "midi": 50,
          "name": "D3",
          "ticks": 50592,
          "time": 102.522122,
          "velocity": 0.7874015748031497
        },
        {
          "duration": 0.1949950000000058,
          "durationTicks": 96,
          "midi": 50,
          "name": "D3",
          "ticks": 50688,
          "time": 102.71711699999999,
          "velocity": 0.7874015748031497
        },
        {
          "duration": 0.1949950000000058,
          "durationTicks": 96,
          "midi": 50,
          "name": "D3",
          "ticks": 50784,
          "time": 102.912112,
          "velocity": 0.7874015748031497
        },
        {
          "duration": 0.1949949999999916,
          "durationTicks": 96,
          "midi": 50,
          "name": "D3",
          "ticks": 50880,
          "time": 103.107107,
          "velocity": 0.7874015748031497
        },
        {
          "duration": 0.1949950000000058,
          "durationTicks": 96,
          "midi": 55,
          "name": "G3",
          "ticks": 50976,
          "time": 103.30210199999999,
          "velocity": 0.7874015748031497
        },
        {
          "duration": 0.4874875000000003,
          "durationTicks": 240,
          "midi": 50,
          "name": "D3",
          "ticks": 51072,
          "time": 103.497097,
          "velocity": 0.7874015748031497
        },
        {
          "duration": 0.3899899999999974,
          "durationTicks": 192,
          "midi": 52,
          "name": "E3",
          "ticks": 51312,
          "time": 103.9845845,
          "velocity": 0.7874015748031497
        },
        {
          "duration": 0.3899899999999974,
          "durationTicks": 192,
          "midi": 55,
          "name": "G3",
          "ticks": 51504,
          "time": 104.3745745,
          "velocity": 0.7874015748031497
        },
        {
          "duration": 0.1949950000000058,
          "durationTicks": 96,
          "midi": 40,
          "name": "E2",
          "ticks": 51696,
          "time": 104.76456449999999,
          "velocity": 0.7874015748031497
        },
        {
          "duration": 0.1949949999999916,
          "durationTicks": 96,
          "midi": 40,
          "name": "E2",
          "ticks": 51792,
          "time": 104.9595595,
          "velocity": 0.7874015748031497
        },
        {
          "duration": 0.1949950000000058,
          "durationTicks": 96,
          "midi": 40,
          "name": "E2",
          "ticks": 51888,
          "time": 105.15455449999999,
          "velocity": 0.7874015748031497
        },
        {
          "duration": 0.1949949999999916,
          "durationTicks": 96,
          "midi": 40,
          "name": "E2",
          "ticks": 51984,
          "time": 105.3495495,
          "velocity": 0.7874015748031497
        },
        {
          "duration": 0.1949950000000058,
          "durationTicks": 96,
          "midi": 40,
          "name": "E2",
          "ticks": 52080,
          "time": 105.54454449999999,
          "velocity": 0.7874015748031497
        },
        {
          "duration": 0.1949950000000058,
          "durationTicks": 96,
          "midi": 40,
          "name": "E2",
          "ticks": 52176,
          "time": 105.73953949999999,
          "velocity": 0.7874015748031497
        },
        {
          "duration": 0.1949949999999916,
          "durationTicks": 96,
          "midi": 40,
          "name": "E2",
          "ticks": 52272,
          "time": 105.9345345,
          "velocity": 0.7874015748031497
        },
        {
          "duration": 0.1949950000000058,
          "durationTicks": 96,
          "midi": 40,
          "name": "E2",
          "ticks": 52368,
          "time": 106.12952949999999,
          "velocity": 0.7874015748031497
        },
        {
          "duration": 0.1949949999999916,
          "durationTicks": 96,
          "midi": 40,
          "name": "E2",
          "ticks": 52464,
          "time": 106.3245245,
          "velocity": 0.7874015748031497
        },
        {
          "duration": 0.1949950000000058,
          "durationTicks": 96,
          "midi": 40,
          "name": "E2",
          "ticks": 52560,
          "time": 106.51951949999999,
          "velocity": 0.7874015748031497
        },
        {
          "duration": 0.1949949999999916,
          "durationTicks": 96,
          "midi": 40,
          "name": "E2",
          "ticks": 52656,
          "time": 106.71451449999999,
          "velocity": 0.7874015748031497
        },
        {
          "duration": 0.1949950000000058,
          "durationTicks": 96,
          "midi": 40,
          "name": "E2",
          "ticks": 52752,
          "time": 106.90950949999998,
          "velocity": 0.7874015748031497
        },
        {
          "duration": 0.1949950000000058,
          "durationTicks": 96,
          "midi": 45,
          "name": "A2",
          "ticks": 52848,
          "time": 107.10450449999999,
          "velocity": 0.7874015748031497
        },
        {
          "duration": 0.1949949999999916,
          "durationTicks": 96,
          "midi": 47,
          "name": "B2",
          "ticks": 52944,
          "time": 107.2994995,
          "velocity": 0.7874015748031497
        },
        {
          "duration": 0.1949950000000058,
          "durationTicks": 96,
          "midi": 38,
          "name": "D2",
          "ticks": 53040,
          "time": 107.49449449999999,
          "velocity": 0.7874015748031497
        },
        {
          "duration": 0.1949949999999916,
          "durationTicks": 96,
          "midi": 52,
          "name": "E3",
          "ticks": 53136,
          "time": 107.6894895,
          "velocity": 0.7874015748031497
        },
        {
          "duration": 0.1949950000000058,
          "durationTicks": 96,
          "midi": 50,
          "name": "D3",
          "ticks": 53232,
          "time": 107.88448449999999,
          "velocity": 0.7874015748031497
        },
        {
          "duration": 0.1949950000000058,
          "durationTicks": 96,
          "midi": 50,
          "name": "D3",
          "ticks": 53328,
          "time": 108.07947949999999,
          "velocity": 0.7874015748031497
        },
        {
          "duration": 0.1949949999999916,
          "durationTicks": 96,
          "midi": 50,
          "name": "D3",
          "ticks": 53424,
          "time": 108.2744745,
          "velocity": 0.7874015748031497
        },
        {
          "duration": 0.1949950000000058,
          "durationTicks": 96,
          "midi": 50,
          "name": "D3",
          "ticks": 53520,
          "time": 108.46946949999999,
          "velocity": 0.7874015748031497
        },
        {
          "duration": 0.1949949999999916,
          "durationTicks": 96,
          "midi": 50,
          "name": "D3",
          "ticks": 53616,
          "time": 108.6644645,
          "velocity": 0.7874015748031497
        },
        {
          "duration": 0.1949950000000058,
          "durationTicks": 96,
          "midi": 50,
          "name": "D3",
          "ticks": 53712,
          "time": 108.85945949999999,
          "velocity": 0.7874015748031497
        },
        {
          "duration": 0.1949950000000058,
          "durationTicks": 96,
          "midi": 50,
          "name": "D3",
          "ticks": 53808,
          "time": 109.05445449999999,
          "velocity": 0.7874015748031497
        },
        {
          "duration": 0.1949949999999916,
          "durationTicks": 96,
          "midi": 50,
          "name": "D3",
          "ticks": 53904,
          "time": 109.2494495,
          "velocity": 0.7874015748031497
        },
        {
          "duration": 0.1949950000000058,
          "durationTicks": 96,
          "midi": 55,
          "name": "G3",
          "ticks": 54000,
          "time": 109.44444449999999,
          "velocity": 0.7874015748031497
        },
        {
          "duration": 0.4874875000000003,
          "durationTicks": 240,
          "midi": 50,
          "name": "D3",
          "ticks": 54096,
          "time": 109.6394395,
          "velocity": 0.7874015748031497
        },
        {
          "duration": 0.3899899999999974,
          "durationTicks": 192,
          "midi": 52,
          "name": "E3",
          "ticks": 54336,
          "time": 110.126927,
          "velocity": 0.7874015748031497
        },
        {
          "duration": 0.3899899999999974,
          "durationTicks": 192,
          "midi": 55,
          "name": "G3",
          "ticks": 54528,
          "time": 110.51691699999999,
          "velocity": 0.7874015748031497
        },
        {
          "duration": 0.1949950000000058,
          "durationTicks": 96,
          "midi": 40,
          "name": "E2",
          "ticks": 54720,
          "time": 110.90690699999999,
          "velocity": 0.7874015748031497
        },
        {
          "duration": 0.1949949999999916,
          "durationTicks": 96,
          "midi": 40,
          "name": "E2",
          "ticks": 54816,
          "time": 111.101902,
          "velocity": 0.7874015748031497
        },
        {
          "duration": 0.1949950000000058,
          "durationTicks": 96,
          "midi": 40,
          "name": "E2",
          "ticks": 54912,
          "time": 111.29689699999999,
          "velocity": 0.7874015748031497
        },
        {
          "duration": 0.1949949999999916,
          "durationTicks": 96,
          "midi": 40,
          "name": "E2",
          "ticks": 55008,
          "time": 111.49189199999999,
          "velocity": 0.7874015748031497
        },
        {
          "duration": 0.1949950000000058,
          "durationTicks": 96,
          "midi": 40,
          "name": "E2",
          "ticks": 55104,
          "time": 111.68688699999998,
          "velocity": 0.7874015748031497
        },
        {
          "duration": 0.1949950000000058,
          "durationTicks": 96,
          "midi": 40,
          "name": "E2",
          "ticks": 55200,
          "time": 111.88188199999999,
          "velocity": 0.7874015748031497
        },
        {
          "duration": 0.1949949999999916,
          "durationTicks": 96,
          "midi": 40,
          "name": "E2",
          "ticks": 55296,
          "time": 112.076877,
          "velocity": 0.7874015748031497
        },
        {
          "duration": 0.1949950000000058,
          "durationTicks": 96,
          "midi": 40,
          "name": "E2",
          "ticks": 55392,
          "time": 112.27187199999999,
          "velocity": 0.7874015748031497
        },
        {
          "duration": 0.1949949999999916,
          "durationTicks": 96,
          "midi": 40,
          "name": "E2",
          "ticks": 55488,
          "time": 112.466867,
          "velocity": 0.7874015748031497
        },
        {
          "duration": 0.1949950000000058,
          "durationTicks": 96,
          "midi": 40,
          "name": "E2",
          "ticks": 55584,
          "time": 112.66186199999999,
          "velocity": 0.7874015748031497
        },
        {
          "duration": 0.1949950000000058,
          "durationTicks": 96,
          "midi": 40,
          "name": "E2",
          "ticks": 55680,
          "time": 112.85685699999999,
          "velocity": 0.7874015748031497
        },
        {
          "duration": 0.1949949999999916,
          "durationTicks": 96,
          "midi": 40,
          "name": "E2",
          "ticks": 55776,
          "time": 113.051852,
          "velocity": 0.7874015748031497
        },
        {
          "duration": 0.1949950000000058,
          "durationTicks": 96,
          "midi": 45,
          "name": "A2",
          "ticks": 55872,
          "time": 113.24684699999999,
          "velocity": 0.7874015748031497
        },
        {
          "duration": 0.1949949999999916,
          "durationTicks": 96,
          "midi": 47,
          "name": "B2",
          "ticks": 55968,
          "time": 113.441842,
          "velocity": 0.7874015748031497
        },
        {
          "duration": 0.1949950000000058,
          "durationTicks": 96,
          "midi": 38,
          "name": "D2",
          "ticks": 56064,
          "time": 113.63683699999999,
          "velocity": 0.7874015748031497
        },
        {
          "duration": 0.1949949999999916,
          "durationTicks": 96,
          "midi": 52,
          "name": "E3",
          "ticks": 56160,
          "time": 113.83183199999999,
          "velocity": 0.7874015748031497
        },
        {
          "duration": 0.1949950000000058,
          "durationTicks": 96,
          "midi": 50,
          "name": "D3",
          "ticks": 56256,
          "time": 114.02682699999998,
          "velocity": 0.7874015748031497
        },
        {
          "duration": 0.1949950000000058,
          "durationTicks": 96,
          "midi": 50,
          "name": "D3",
          "ticks": 56352,
          "time": 114.22182199999999,
          "velocity": 0.7874015748031497
        },
        {
          "duration": 0.1949949999999916,
          "durationTicks": 96,
          "midi": 50,
          "name": "D3",
          "ticks": 56448,
          "time": 114.416817,
          "velocity": 0.7874015748031497
        },
        {
          "duration": 0.1949950000000058,
          "durationTicks": 96,
          "midi": 50,
          "name": "D3",
          "ticks": 56544,
          "time": 114.61181199999999,
          "velocity": 0.7874015748031497
        },
        {
          "duration": 0.1949949999999916,
          "durationTicks": 96,
          "midi": 50,
          "name": "D3",
          "ticks": 56640,
          "time": 114.80680699999999,
          "velocity": 0.7874015748031497
        },
        {
          "duration": 0.1949950000000058,
          "durationTicks": 96,
          "midi": 50,
          "name": "D3",
          "ticks": 56736,
          "time": 115.00180199999998,
          "velocity": 0.7874015748031497
        },
        {
          "duration": 0.1949950000000058,
          "durationTicks": 96,
          "midi": 50,
          "name": "D3",
          "ticks": 56832,
          "time": 115.19679699999999,
          "velocity": 0.7874015748031497
        },
        {
          "duration": 0.1949949999999916,
          "durationTicks": 96,
          "midi": 50,
          "name": "D3",
          "ticks": 56928,
          "time": 115.391792,
          "velocity": 0.7874015748031497
        },
        {
          "duration": 0.1949950000000058,
          "durationTicks": 96,
          "midi": 55,
          "name": "G3",
          "ticks": 57024,
          "time": 115.58678699999999,
          "velocity": 0.7874015748031497
        },
        {
          "duration": 0.4874875000000003,
          "durationTicks": 240,
          "midi": 50,
          "name": "D3",
          "ticks": 57120,
          "time": 115.78178199999999,
          "velocity": 0.7874015748031497
        },
        {
          "duration": 0.3899899999999974,
          "durationTicks": 192,
          "midi": 52,
          "name": "E3",
          "ticks": 57360,
          "time": 116.2692695,
          "velocity": 0.7874015748031497
        },
        {
          "duration": 0.3899899999999974,
          "durationTicks": 192,
          "midi": 55,
          "name": "G3",
          "ticks": 57552,
          "time": 116.65925949999999,
          "velocity": 0.7874015748031497
        },
        {
          "duration": 0.1949950000000058,
          "durationTicks": 96,
          "midi": 40,
          "name": "E2",
          "ticks": 57744,
          "time": 117.04924949999999,
          "velocity": 0.7874015748031497
        },
        {
          "duration": 0.1949949999999916,
          "durationTicks": 96,
          "midi": 40,
          "name": "E2",
          "ticks": 57840,
          "time": 117.2442445,
          "velocity": 0.7874015748031497
        },
        {
          "duration": 0.1949950000000058,
          "durationTicks": 96,
          "midi": 40,
          "name": "E2",
          "ticks": 57936,
          "time": 117.43923949999999,
          "velocity": 0.7874015748031497
        },
        {
          "duration": 0.1949949999999916,
          "durationTicks": 96,
          "midi": 40,
          "name": "E2",
          "ticks": 58032,
          "time": 117.63423449999999,
          "velocity": 0.7874015748031497
        },
        {
          "duration": 0.1949950000000058,
          "durationTicks": 96,
          "midi": 40,
          "name": "E2",
          "ticks": 58128,
          "time": 117.82922949999998,
          "velocity": 0.7874015748031497
        },
        {
          "duration": 0.1949950000000058,
          "durationTicks": 96,
          "midi": 40,
          "name": "E2",
          "ticks": 58224,
          "time": 118.02422449999999,
          "velocity": 0.7874015748031497
        },
        {
          "duration": 0.1949949999999916,
          "durationTicks": 96,
          "midi": 40,
          "name": "E2",
          "ticks": 58320,
          "time": 118.2192195,
          "velocity": 0.7874015748031497
        },
        {
          "duration": 0.1949950000000058,
          "durationTicks": 96,
          "midi": 40,
          "name": "E2",
          "ticks": 58416,
          "time": 118.41421449999999,
          "velocity": 0.7874015748031497
        },
        {
          "duration": 0.1949949999999916,
          "durationTicks": 96,
          "midi": 40,
          "name": "E2",
          "ticks": 58512,
          "time": 118.60920949999999,
          "velocity": 0.7874015748031497
        },
        {
          "duration": 0.1949950000000058,
          "durationTicks": 96,
          "midi": 40,
          "name": "E2",
          "ticks": 58608,
          "time": 118.80420449999998,
          "velocity": 0.7874015748031497
        },
        {
          "duration": 0.1949949999999916,
          "durationTicks": 96,
          "midi": 40,
          "name": "E2",
          "ticks": 58704,
          "time": 118.99919949999999,
          "velocity": 0.7874015748031497
        },
        {
          "duration": 0.1949950000000058,
          "durationTicks": 96,
          "midi": 40,
          "name": "E2",
          "ticks": 58800,
          "time": 119.19419449999998,
          "velocity": 0.7874015748031497
        },
        {
          "duration": 0.1949950000000058,
          "durationTicks": 96,
          "midi": 45,
          "name": "A2",
          "ticks": 58896,
          "time": 119.38918949999999,
          "velocity": 0.7874015748031497
        },
        {
          "duration": 0.1949949999999916,
          "durationTicks": 96,
          "midi": 47,
          "name": "B2",
          "ticks": 58992,
          "time": 119.58418449999999,
          "velocity": 0.7874015748031497
        },
        {
          "duration": 0.1949950000000058,
          "durationTicks": 96,
          "midi": 38,
          "name": "D2",
          "ticks": 59088,
          "time": 119.77917949999998,
          "velocity": 0.7874015748031497
        },
        {
          "duration": 0.1949949999999916,
          "durationTicks": 96,
          "midi": 52,
          "name": "E3",
          "ticks": 59184,
          "time": 119.97417449999999,
          "velocity": 0.7874015748031497
        },
        {
          "duration": 0.1949950000000058,
          "durationTicks": 96,
          "midi": 50,
          "name": "D3",
          "ticks": 59280,
          "time": 120.16916949999998,
          "velocity": 0.7874015748031497
        },
        {
          "duration": 0.1949950000000058,
          "durationTicks": 96,
          "midi": 50,
          "name": "D3",
          "ticks": 59376,
          "time": 120.36416449999999,
          "velocity": 0.7874015748031497
        },
        {
          "duration": 0.1949949999999916,
          "durationTicks": 96,
          "midi": 50,
          "name": "D3",
          "ticks": 59472,
          "time": 120.55915949999999,
          "velocity": 0.7874015748031497
        },
        {
          "duration": 0.1949950000000058,
          "durationTicks": 96,
          "midi": 50,
          "name": "D3",
          "ticks": 59568,
          "time": 120.75415449999998,
          "velocity": 0.7874015748031497
        },
        {
          "duration": 0.1949949999999916,
          "durationTicks": 96,
          "midi": 50,
          "name": "D3",
          "ticks": 59664,
          "time": 120.94914949999999,
          "velocity": 0.7874015748031497
        },
        {
          "duration": 0.1949950000000058,
          "durationTicks": 96,
          "midi": 50,
          "name": "D3",
          "ticks": 59760,
          "time": 121.14414449999998,
          "velocity": 0.7874015748031497
        },
        {
          "duration": 0.1949950000000058,
          "durationTicks": 96,
          "midi": 50,
          "name": "D3",
          "ticks": 59856,
          "time": 121.33913949999999,
          "velocity": 0.7874015748031497
        },
        {
          "duration": 0.1949949999999916,
          "durationTicks": 96,
          "midi": 50,
          "name": "D3",
          "ticks": 59952,
          "time": 121.5341345,
          "velocity": 0.7874015748031497
        },
        {
          "duration": 0.1949950000000058,
          "durationTicks": 96,
          "midi": 55,
          "name": "G3",
          "ticks": 60048,
          "time": 121.72912949999998,
          "velocity": 0.7874015748031497
        },
        {
          "duration": 0.4874875000000003,
          "durationTicks": 240,
          "midi": 50,
          "name": "D3",
          "ticks": 60144,
          "time": 121.92412449999999,
          "velocity": 0.7874015748031497
        },
        {
          "duration": 0.3899899999999974,
          "durationTicks": 192,
          "midi": 52,
          "name": "E3",
          "ticks": 60384,
          "time": 122.41161199999999,
          "velocity": 0.7874015748031497
        },
        {
          "duration": 0.3899899999999974,
          "durationTicks": 192,
          "midi": 55,
          "name": "G3",
          "ticks": 60576,
          "time": 122.80160199999999,
          "velocity": 0.7874015748031497
        },
        {
          "duration": 0.1949950000000058,
          "durationTicks": 96,
          "midi": 40,
          "name": "E2",
          "ticks": 60768,
          "time": 123.19159199999999,
          "velocity": 0.7874015748031497
        },
        {
          "duration": 0.1949949999999916,
          "durationTicks": 96,
          "midi": 40,
          "name": "E2",
          "ticks": 60864,
          "time": 123.38658699999999,
          "velocity": 0.7874015748031497
        },
        {
          "duration": 0.1949950000000058,
          "durationTicks": 96,
          "midi": 40,
          "name": "E2",
          "ticks": 60960,
          "time": 123.58158199999998,
          "velocity": 0.7874015748031497
        },
        {
          "duration": 0.1949949999999916,
          "durationTicks": 96,
          "midi": 40,
          "name": "E2",
          "ticks": 61056,
          "time": 123.77657699999999,
          "velocity": 0.7874015748031497
        },
        {
          "duration": 0.1949950000000058,
          "durationTicks": 96,
          "midi": 40,
          "name": "E2",
          "ticks": 61152,
          "time": 123.97157199999998,
          "velocity": 0.7874015748031497
        },
        {
          "duration": 0.1949950000000058,
          "durationTicks": 96,
          "midi": 40,
          "name": "E2",
          "ticks": 61248,
          "time": 124.16656699999999,
          "velocity": 0.7874015748031497
        },
        {
          "duration": 0.1949949999999916,
          "durationTicks": 96,
          "midi": 40,
          "name": "E2",
          "ticks": 61344,
          "time": 124.36156199999999,
          "velocity": 0.7874015748031497
        },
        {
          "duration": 0.1949950000000058,
          "durationTicks": 96,
          "midi": 40,
          "name": "E2",
          "ticks": 61440,
          "time": 124.55655699999998,
          "velocity": 0.7874015748031497
        },
        {
          "duration": 0.1949949999999916,
          "durationTicks": 96,
          "midi": 40,
          "name": "E2",
          "ticks": 61536,
          "time": 124.75155199999999,
          "velocity": 0.7874015748031497
        },
        {
          "duration": 0.1949950000000058,
          "durationTicks": 96,
          "midi": 40,
          "name": "E2",
          "ticks": 61632,
          "time": 124.94654699999998,
          "velocity": 0.7874015748031497
        },
        {
          "duration": 0.1949950000000058,
          "durationTicks": 96,
          "midi": 40,
          "name": "E2",
          "ticks": 61728,
          "time": 125.14154199999999,
          "velocity": 0.7874015748031497
        },
        {
          "duration": 0.1949949999999916,
          "durationTicks": 96,
          "midi": 40,
          "name": "E2",
          "ticks": 61824,
          "time": 125.33653699999999,
          "velocity": 0.7874015748031497
        },
        {
          "duration": 0.1949950000000058,
          "durationTicks": 96,
          "midi": 45,
          "name": "A2",
          "ticks": 61920,
          "time": 125.53153199999998,
          "velocity": 0.7874015748031497
        },
        {
          "duration": 0.1949949999999916,
          "durationTicks": 96,
          "midi": 47,
          "name": "B2",
          "ticks": 62016,
          "time": 125.72652699999999,
          "velocity": 0.7874015748031497
        },
        {
          "duration": 0.1949950000000058,
          "durationTicks": 96,
          "midi": 38,
          "name": "D2",
          "ticks": 62112,
          "time": 125.92152199999998,
          "velocity": 0.7874015748031497
        },
        {
          "duration": 0.1949949999999916,
          "durationTicks": 96,
          "midi": 52,
          "name": "E3",
          "ticks": 62208,
          "time": 126.11651699999999,
          "velocity": 0.7874015748031497
        },
        {
          "duration": 0.1949950000000058,
          "durationTicks": 96,
          "midi": 50,
          "name": "D3",
          "ticks": 62304,
          "time": 126.31151199999998,
          "velocity": 0.7874015748031497
        },
        {
          "duration": 0.1949950000000058,
          "durationTicks": 96,
          "midi": 50,
          "name": "D3",
          "ticks": 62400,
          "time": 126.50650699999998,
          "velocity": 0.7874015748031497
        },
        {
          "duration": 0.1949949999999916,
          "durationTicks": 96,
          "midi": 50,
          "name": "D3",
          "ticks": 62496,
          "time": 126.70150199999999,
          "velocity": 0.7874015748031497
        },
        {
          "duration": 0.1949950000000058,
          "durationTicks": 96,
          "midi": 50,
          "name": "D3",
          "ticks": 62592,
          "time": 126.89649699999998,
          "velocity": 0.7874015748031497
        },
        {
          "duration": 0.1949949999999916,
          "durationTicks": 96,
          "midi": 50,
          "name": "D3",
          "ticks": 62688,
          "time": 127.09149199999999,
          "velocity": 0.7874015748031497
        },
        {
          "duration": 0.1949950000000058,
          "durationTicks": 96,
          "midi": 50,
          "name": "D3",
          "ticks": 62784,
          "time": 127.28648699999998,
          "velocity": 0.7874015748031497
        },
        {
          "duration": 0.1949950000000058,
          "durationTicks": 96,
          "midi": 50,
          "name": "D3",
          "ticks": 62880,
          "time": 127.48148199999999,
          "velocity": 0.7874015748031497
        },
        {
          "duration": 0.1949949999999916,
          "durationTicks": 96,
          "midi": 50,
          "name": "D3",
          "ticks": 62976,
          "time": 127.67647699999999,
          "velocity": 0.7874015748031497
        },
        {
          "duration": 0.1949950000000058,
          "durationTicks": 96,
          "midi": 55,
          "name": "G3",
          "ticks": 63072,
          "time": 127.87147199999998,
          "velocity": 0.7874015748031497
        },
        {
          "duration": 0.4874874999999861,
          "durationTicks": 240,
          "midi": 50,
          "name": "D3",
          "ticks": 63168,
          "time": 128.066467,
          "velocity": 0.7874015748031497
        },
        {
          "duration": 0.3899900000000116,
          "durationTicks": 192,
          "midi": 52,
          "name": "E3",
          "ticks": 63408,
          "time": 128.55395449999997,
          "velocity": 0.7874015748031497
        },
        {
          "duration": 0.3899900000000116,
          "durationTicks": 192,
          "midi": 55,
          "name": "G3",
          "ticks": 63600,
          "time": 128.9439445,
          "velocity": 0.7874015748031497
        },
        {
          "duration": 0.1949950000000058,
          "durationTicks": 96,
          "midi": 40,
          "name": "E2",
          "ticks": 63792,
          "time": 129.3339345,
          "velocity": 0.7874015748031497
        },
        {
          "duration": 0.1949950000000058,
          "durationTicks": 96,
          "midi": 40,
          "name": "E2",
          "ticks": 63888,
          "time": 129.5289295,
          "velocity": 0.7874015748031497
        },
        {
          "duration": 0.19499499999997738,
          "durationTicks": 96,
          "midi": 40,
          "name": "E2",
          "ticks": 63984,
          "time": 129.7239245,
          "velocity": 0.7874015748031497
        },
        {
          "duration": 0.1949950000000058,
          "durationTicks": 96,
          "midi": 40,
          "name": "E2",
          "ticks": 64080,
          "time": 129.9189195,
          "velocity": 0.7874015748031497
        },
        {
          "duration": 0.1949950000000058,
          "durationTicks": 96,
          "midi": 40,
          "name": "E2",
          "ticks": 64176,
          "time": 130.1139145,
          "velocity": 0.7874015748031497
        },
        {
          "duration": 0.1949950000000058,
          "durationTicks": 96,
          "midi": 40,
          "name": "E2",
          "ticks": 64272,
          "time": 130.3089095,
          "velocity": 0.7874015748031497
        },
        {
          "duration": 0.1949950000000058,
          "durationTicks": 96,
          "midi": 40,
          "name": "E2",
          "ticks": 64368,
          "time": 130.5039045,
          "velocity": 0.7874015748031497
        },
        {
          "duration": 0.19499499999997738,
          "durationTicks": 96,
          "midi": 40,
          "name": "E2",
          "ticks": 64464,
          "time": 130.6988995,
          "velocity": 0.7874015748031497
        },
        {
          "duration": 0.1949950000000058,
          "durationTicks": 96,
          "midi": 40,
          "name": "E2",
          "ticks": 64560,
          "time": 130.8938945,
          "velocity": 0.7874015748031497
        },
        {
          "duration": 0.1949950000000058,
          "durationTicks": 96,
          "midi": 40,
          "name": "E2",
          "ticks": 64656,
          "time": 131.0888895,
          "velocity": 0.7874015748031497
        },
        {
          "duration": 0.1949950000000058,
          "durationTicks": 96,
          "midi": 40,
          "name": "E2",
          "ticks": 64752,
          "time": 131.2838845,
          "velocity": 0.7874015748031497
        },
        {
          "duration": 0.1949950000000058,
          "durationTicks": 96,
          "midi": 40,
          "name": "E2",
          "ticks": 64848,
          "time": 131.4788795,
          "velocity": 0.7874015748031497
        },
        {
          "duration": 0.19499499999997738,
          "durationTicks": 96,
          "midi": 45,
          "name": "A2",
          "ticks": 64944,
          "time": 131.6738745,
          "velocity": 0.7874015748031497
        },
        {
          "duration": 0.1949950000000058,
          "durationTicks": 96,
          "midi": 47,
          "name": "B2",
          "ticks": 65040,
          "time": 131.8688695,
          "velocity": 0.7874015748031497
        },
        {
          "duration": 0.1949950000000058,
          "durationTicks": 96,
          "midi": 38,
          "name": "D2",
          "ticks": 65136,
          "time": 132.0638645,
          "velocity": 0.7874015748031497
        },
        {
          "duration": 0.1949950000000058,
          "durationTicks": 96,
          "midi": 52,
          "name": "E3",
          "ticks": 65232,
          "time": 132.2588595,
          "velocity": 0.7874015748031497
        },
        {
          "duration": 0.1949950000000058,
          "durationTicks": 96,
          "midi": 50,
          "name": "D3",
          "ticks": 65328,
          "time": 132.4538545,
          "velocity": 0.7874015748031497
        },
        {
          "duration": 0.19499499999997738,
          "durationTicks": 96,
          "midi": 50,
          "name": "D3",
          "ticks": 65424,
          "time": 132.6488495,
          "velocity": 0.7874015748031497
        },
        {
          "duration": 0.1949950000000058,
          "durationTicks": 96,
          "midi": 50,
          "name": "D3",
          "ticks": 65520,
          "time": 132.8438445,
          "velocity": 0.7874015748031497
        },
        {
          "duration": 0.1949950000000058,
          "durationTicks": 96,
          "midi": 50,
          "name": "D3",
          "ticks": 65616,
          "time": 133.0388395,
          "velocity": 0.7874015748031497
        },
        {
          "duration": 0.1949950000000058,
          "durationTicks": 96,
          "midi": 50,
          "name": "D3",
          "ticks": 65712,
          "time": 133.2338345,
          "velocity": 0.7874015748031497
        },
        {
          "duration": 0.1949950000000058,
          "durationTicks": 96,
          "midi": 50,
          "name": "D3",
          "ticks": 65808,
          "time": 133.4288295,
          "velocity": 0.7874015748031497
        },
        {
          "duration": 0.19499499999997738,
          "durationTicks": 96,
          "midi": 50,
          "name": "D3",
          "ticks": 65904,
          "time": 133.6238245,
          "velocity": 0.7874015748031497
        },
        {
          "duration": 0.1949950000000058,
          "durationTicks": 96,
          "midi": 50,
          "name": "D3",
          "ticks": 66000,
          "time": 133.8188195,
          "velocity": 0.7874015748031497
        },
        {
          "duration": 0.1949950000000058,
          "durationTicks": 96,
          "midi": 55,
          "name": "G3",
          "ticks": 66096,
          "time": 134.0138145,
          "velocity": 0.7874015748031497
        },
        {
          "duration": 0.4874874999999861,
          "durationTicks": 240,
          "midi": 50,
          "name": "D3",
          "ticks": 66192,
          "time": 134.2088095,
          "velocity": 0.7874015748031497
        },
        {
          "duration": 0.3899900000000116,
          "durationTicks": 192,
          "midi": 52,
          "name": "E3",
          "ticks": 66432,
          "time": 134.696297,
          "velocity": 0.7874015748031497
        },
        {
          "duration": 0.3899900000000116,
          "durationTicks": 192,
          "midi": 55,
          "name": "G3",
          "ticks": 66624,
          "time": 135.086287,
          "velocity": 0.7874015748031497
        },
        {
          "duration": 0.1949950000000058,
          "durationTicks": 96,
          "midi": 40,
          "name": "E2",
          "ticks": 66816,
          "time": 135.476277,
          "velocity": 0.7874015748031497
        },
        {
          "duration": 0.1949950000000058,
          "durationTicks": 96,
          "midi": 40,
          "name": "E2",
          "ticks": 66912,
          "time": 135.67127200000002,
          "velocity": 0.7874015748031497
        },
        {
          "duration": 0.19499499999997738,
          "durationTicks": 96,
          "midi": 40,
          "name": "E2",
          "ticks": 67008,
          "time": 135.86626700000002,
          "velocity": 0.7874015748031497
        },
        {
          "duration": 0.1949950000000058,
          "durationTicks": 96,
          "midi": 40,
          "name": "E2",
          "ticks": 67104,
          "time": 136.061262,
          "velocity": 0.7874015748031497
        },
        {
          "duration": 0.1949950000000058,
          "durationTicks": 96,
          "midi": 40,
          "name": "E2",
          "ticks": 67200,
          "time": 136.256257,
          "velocity": 0.7874015748031497
        },
        {
          "duration": 0.1949950000000058,
          "durationTicks": 96,
          "midi": 40,
          "name": "E2",
          "ticks": 67296,
          "time": 136.451252,
          "velocity": 0.7874015748031497
        },
        {
          "duration": 0.1949950000000058,
          "durationTicks": 96,
          "midi": 40,
          "name": "E2",
          "ticks": 67392,
          "time": 136.64624700000002,
          "velocity": 0.7874015748031497
        },
        {
          "duration": 0.19499499999997738,
          "durationTicks": 96,
          "midi": 40,
          "name": "E2",
          "ticks": 67488,
          "time": 136.84124200000002,
          "velocity": 0.7874015748031497
        },
        {
          "duration": 0.1949950000000058,
          "durationTicks": 96,
          "midi": 40,
          "name": "E2",
          "ticks": 67584,
          "time": 137.036237,
          "velocity": 0.7874015748031497
        },
        {
          "duration": 0.1949950000000058,
          "durationTicks": 96,
          "midi": 40,
          "name": "E2",
          "ticks": 67680,
          "time": 137.231232,
          "velocity": 0.7874015748031497
        },
        {
          "duration": 0.1949950000000058,
          "durationTicks": 96,
          "midi": 40,
          "name": "E2",
          "ticks": 67776,
          "time": 137.426227,
          "velocity": 0.7874015748031497
        },
        {
          "duration": 0.1949950000000058,
          "durationTicks": 96,
          "midi": 40,
          "name": "E2",
          "ticks": 67872,
          "time": 137.62122200000002,
          "velocity": 0.7874015748031497
        },
        {
          "duration": 0.19499499999997738,
          "durationTicks": 96,
          "midi": 45,
          "name": "A2",
          "ticks": 67968,
          "time": 137.81621700000002,
          "velocity": 0.7874015748031497
        },
        {
          "duration": 0.1949950000000058,
          "durationTicks": 96,
          "midi": 47,
          "name": "B2",
          "ticks": 68064,
          "time": 138.011212,
          "velocity": 0.7874015748031497
        },
        {
          "duration": 0.1949950000000058,
          "durationTicks": 96,
          "midi": 38,
          "name": "D2",
          "ticks": 68160,
          "time": 138.206207,
          "velocity": 0.7874015748031497
        },
        {
          "duration": 0.1949950000000058,
          "durationTicks": 96,
          "midi": 52,
          "name": "E3",
          "ticks": 68256,
          "time": 138.401202,
          "velocity": 0.7874015748031497
        },
        {
          "duration": 0.1949950000000058,
          "durationTicks": 96,
          "midi": 50,
          "name": "D3",
          "ticks": 68352,
          "time": 138.59619700000002,
          "velocity": 0.7874015748031497
        },
        {
          "duration": 0.19499499999997738,
          "durationTicks": 96,
          "midi": 50,
          "name": "D3",
          "ticks": 68448,
          "time": 138.79119200000002,
          "velocity": 0.7874015748031497
        },
        {
          "duration": 0.1949950000000058,
          "durationTicks": 96,
          "midi": 50,
          "name": "D3",
          "ticks": 68544,
          "time": 138.986187,
          "velocity": 0.7874015748031497
        },
        {
          "duration": 0.1949950000000058,
          "durationTicks": 96,
          "midi": 50,
          "name": "D3",
          "ticks": 68640,
          "time": 139.181182,
          "velocity": 0.7874015748031497
        },
        {
          "duration": 0.1949950000000058,
          "durationTicks": 96,
          "midi": 50,
          "name": "D3",
          "ticks": 68736,
          "time": 139.376177,
          "velocity": 0.7874015748031497
        },
        {
          "duration": 0.19499499999997738,
          "durationTicks": 96,
          "midi": 50,
          "name": "D3",
          "ticks": 68832,
          "time": 139.57117200000002,
          "velocity": 0.7874015748031497
        },
        {
          "duration": 0.1949950000000058,
          "durationTicks": 96,
          "midi": 50,
          "name": "D3",
          "ticks": 68928,
          "time": 139.766167,
          "velocity": 0.7874015748031497
        },
        {
          "duration": 0.1949950000000058,
          "durationTicks": 96,
          "midi": 50,
          "name": "D3",
          "ticks": 69024,
          "time": 139.961162,
          "velocity": 0.7874015748031497
        },
        {
          "duration": 0.1949950000000058,
          "durationTicks": 96,
          "midi": 55,
          "name": "G3",
          "ticks": 69120,
          "time": 140.156157,
          "velocity": 0.7874015748031497
        },
        {
          "duration": 0.4874874999999861,
          "durationTicks": 240,
          "midi": 50,
          "name": "D3",
          "ticks": 69216,
          "time": 140.351152,
          "velocity": 0.7874015748031497
        },
        {
          "duration": 0.3899900000000116,
          "durationTicks": 192,
          "midi": 52,
          "name": "E3",
          "ticks": 69456,
          "time": 140.8386395,
          "velocity": 0.7874015748031497
        },
        {
          "duration": 0.3899900000000116,
          "durationTicks": 192,
          "midi": 55,
          "name": "G3",
          "ticks": 69648,
          "time": 141.2286295,
          "velocity": 0.7874015748031497
        },
        {
          "duration": 0.1949950000000058,
          "durationTicks": 96,
          "midi": 40,
          "name": "E2",
          "ticks": 75984,
          "time": 154.0982995,
          "velocity": 0.7874015748031497
        },
        {
          "duration": 0.1949950000000058,
          "durationTicks": 96,
          "midi": 40,
          "name": "E2",
          "ticks": 76080,
          "time": 154.2932945,
          "velocity": 0.7874015748031497
        },
        {
          "duration": 0.19499499999997738,
          "durationTicks": 96,
          "midi": 40,
          "name": "E2",
          "ticks": 76176,
          "time": 154.4882895,
          "velocity": 0.7874015748031497
        },
        {
          "duration": 0.1949950000000058,
          "durationTicks": 96,
          "midi": 40,
          "name": "E2",
          "ticks": 76272,
          "time": 154.68328449999998,
          "velocity": 0.7874015748031497
        },
        {
          "duration": 0.1949950000000058,
          "durationTicks": 96,
          "midi": 40,
          "name": "E2",
          "ticks": 76368,
          "time": 154.8782795,
          "velocity": 0.7874015748031497
        },
        {
          "duration": 0.1949950000000058,
          "durationTicks": 96,
          "midi": 40,
          "name": "E2",
          "ticks": 76464,
          "time": 155.0732745,
          "velocity": 0.7874015748031497
        },
        {
          "duration": 0.1949950000000058,
          "durationTicks": 96,
          "midi": 40,
          "name": "E2",
          "ticks": 76560,
          "time": 155.2682695,
          "velocity": 0.7874015748031497
        },
        {
          "duration": 0.19499499999997738,
          "durationTicks": 96,
          "midi": 40,
          "name": "E2",
          "ticks": 76656,
          "time": 155.4632645,
          "velocity": 0.7874015748031497
        },
        {
          "duration": 0.1949950000000058,
          "durationTicks": 96,
          "midi": 40,
          "name": "E2",
          "ticks": 76752,
          "time": 155.65825949999999,
          "velocity": 0.7874015748031497
        },
        {
          "duration": 0.1949950000000058,
          "durationTicks": 96,
          "midi": 40,
          "name": "E2",
          "ticks": 76848,
          "time": 155.8532545,
          "velocity": 0.7874015748031497
        },
        {
          "duration": 0.1949950000000058,
          "durationTicks": 96,
          "midi": 40,
          "name": "E2",
          "ticks": 76944,
          "time": 156.0482495,
          "velocity": 0.7874015748031497
        },
        {
          "duration": 0.1949950000000058,
          "durationTicks": 96,
          "midi": 40,
          "name": "E2",
          "ticks": 77040,
          "time": 156.2432445,
          "velocity": 0.7874015748031497
        },
        {
          "duration": 0.19499499999997738,
          "durationTicks": 96,
          "midi": 45,
          "name": "A2",
          "ticks": 77136,
          "time": 156.4382395,
          "velocity": 0.7874015748031497
        },
        {
          "duration": 0.1949950000000058,
          "durationTicks": 96,
          "midi": 47,
          "name": "B2",
          "ticks": 77232,
          "time": 156.6332345,
          "velocity": 0.7874015748031497
        },
        {
          "duration": 0.1949950000000058,
          "durationTicks": 96,
          "midi": 38,
          "name": "D2",
          "ticks": 77328,
          "time": 156.8282295,
          "velocity": 0.7874015748031497
        },
        {
          "duration": 0.1949950000000058,
          "durationTicks": 96,
          "midi": 52,
          "name": "E3",
          "ticks": 77424,
          "time": 157.0232245,
          "velocity": 0.7874015748031497
        },
        {
          "duration": 0.1949950000000058,
          "durationTicks": 96,
          "midi": 50,
          "name": "D3",
          "ticks": 77520,
          "time": 157.2182195,
          "velocity": 0.7874015748031497
        },
        {
          "duration": 0.19499499999997738,
          "durationTicks": 96,
          "midi": 50,
          "name": "D3",
          "ticks": 77616,
          "time": 157.4132145,
          "velocity": 0.7874015748031497
        },
        {
          "duration": 0.1949950000000058,
          "durationTicks": 96,
          "midi": 50,
          "name": "D3",
          "ticks": 77712,
          "time": 157.6082095,
          "velocity": 0.7874015748031497
        },
        {
          "duration": 0.1949950000000058,
          "durationTicks": 96,
          "midi": 50,
          "name": "D3",
          "ticks": 77808,
          "time": 157.8032045,
          "velocity": 0.7874015748031497
        },
        {
          "duration": 0.1949950000000058,
          "durationTicks": 96,
          "midi": 50,
          "name": "D3",
          "ticks": 77904,
          "time": 157.9981995,
          "velocity": 0.7874015748031497
        },
        {
          "duration": 0.1949950000000058,
          "durationTicks": 96,
          "midi": 50,
          "name": "D3",
          "ticks": 78000,
          "time": 158.1931945,
          "velocity": 0.7874015748031497
        },
        {
          "duration": 0.19499499999997738,
          "durationTicks": 96,
          "midi": 50,
          "name": "D3",
          "ticks": 78096,
          "time": 158.3881895,
          "velocity": 0.7874015748031497
        },
        {
          "duration": 0.1949950000000058,
          "durationTicks": 96,
          "midi": 50,
          "name": "D3",
          "ticks": 78192,
          "time": 158.5831845,
          "velocity": 0.7874015748031497
        },
        {
          "duration": 0.1949950000000058,
          "durationTicks": 96,
          "midi": 55,
          "name": "G3",
          "ticks": 78288,
          "time": 158.7781795,
          "velocity": 0.7874015748031497
        },
        {
          "duration": 0.4874874999999861,
          "durationTicks": 240,
          "midi": 50,
          "name": "D3",
          "ticks": 78384,
          "time": 158.9731745,
          "velocity": 0.7874015748031497
        },
        {
          "duration": 0.3899900000000116,
          "durationTicks": 192,
          "midi": 52,
          "name": "E3",
          "ticks": 78624,
          "time": 159.46066199999999,
          "velocity": 0.7874015748031497
        },
        {
          "duration": 0.3899900000000116,
          "durationTicks": 192,
          "midi": 55,
          "name": "G3",
          "ticks": 78816,
          "time": 159.850652,
          "velocity": 0.7874015748031497
        },
        {
          "duration": 0.1949950000000058,
          "durationTicks": 96,
          "midi": 40,
          "name": "E2",
          "ticks": 79008,
          "time": 160.240642,
          "velocity": 0.7874015748031497
        },
        {
          "duration": 0.1949950000000058,
          "durationTicks": 96,
          "midi": 40,
          "name": "E2",
          "ticks": 79104,
          "time": 160.435637,
          "velocity": 0.7874015748031497
        },
        {
          "duration": 0.19499499999997738,
          "durationTicks": 96,
          "midi": 40,
          "name": "E2",
          "ticks": 79200,
          "time": 160.63063200000002,
          "velocity": 0.7874015748031497
        },
        {
          "duration": 0.1949950000000058,
          "durationTicks": 96,
          "midi": 40,
          "name": "E2",
          "ticks": 79296,
          "time": 160.825627,
          "velocity": 0.7874015748031497
        },
        {
          "duration": 0.1949950000000058,
          "durationTicks": 96,
          "midi": 40,
          "name": "E2",
          "ticks": 79392,
          "time": 161.020622,
          "velocity": 0.7874015748031497
        },
        {
          "duration": 0.1949950000000058,
          "durationTicks": 96,
          "midi": 40,
          "name": "E2",
          "ticks": 79488,
          "time": 161.215617,
          "velocity": 0.7874015748031497
        },
        {
          "duration": 0.1949950000000058,
          "durationTicks": 96,
          "midi": 40,
          "name": "E2",
          "ticks": 79584,
          "time": 161.41061200000001,
          "velocity": 0.7874015748031497
        },
        {
          "duration": 0.19499499999997738,
          "durationTicks": 96,
          "midi": 40,
          "name": "E2",
          "ticks": 79680,
          "time": 161.60560700000002,
          "velocity": 0.7874015748031497
        },
        {
          "duration": 0.1949950000000058,
          "durationTicks": 96,
          "midi": 40,
          "name": "E2",
          "ticks": 79776,
          "time": 161.800602,
          "velocity": 0.7874015748031497
        },
        {
          "duration": 0.1949950000000058,
          "durationTicks": 96,
          "midi": 40,
          "name": "E2",
          "ticks": 79872,
          "time": 161.995597,
          "velocity": 0.7874015748031497
        },
        {
          "duration": 0.1949950000000058,
          "durationTicks": 96,
          "midi": 40,
          "name": "E2",
          "ticks": 79968,
          "time": 162.190592,
          "velocity": 0.7874015748031497
        },
        {
          "duration": 0.1949950000000058,
          "durationTicks": 96,
          "midi": 40,
          "name": "E2",
          "ticks": 80064,
          "time": 162.38558700000002,
          "velocity": 0.7874015748031497
        },
        {
          "duration": 0.19499499999997738,
          "durationTicks": 96,
          "midi": 45,
          "name": "A2",
          "ticks": 80160,
          "time": 162.58058200000002,
          "velocity": 0.7874015748031497
        },
        {
          "duration": 0.1949950000000058,
          "durationTicks": 96,
          "midi": 47,
          "name": "B2",
          "ticks": 80256,
          "time": 162.775577,
          "velocity": 0.7874015748031497
        },
        {
          "duration": 0.1949950000000058,
          "durationTicks": 96,
          "midi": 50,
          "name": "D3",
          "ticks": 80352,
          "time": 162.970572,
          "velocity": 0.7874015748031497
        },
        {
          "duration": 0.1949950000000058,
          "durationTicks": 96,
          "midi": 52,
          "name": "E3",
          "ticks": 80448,
          "time": 163.165567,
          "velocity": 0.7874015748031497
        },
        {
          "duration": 0.1949950000000058,
          "durationTicks": 96,
          "midi": 50,
          "name": "D3",
          "ticks": 80544,
          "time": 163.36056200000002,
          "velocity": 0.7874015748031497
        },
        {
          "duration": 0.19499499999997738,
          "durationTicks": 96,
          "midi": 50,
          "name": "D3",
          "ticks": 80640,
          "time": 163.55555700000002,
          "velocity": 0.7874015748031497
        },
        {
          "duration": 0.1949950000000058,
          "durationTicks": 96,
          "midi": 50,
          "name": "D3",
          "ticks": 80736,
          "time": 163.750552,
          "velocity": 0.7874015748031497
        },
        {
          "duration": 0.1949950000000058,
          "durationTicks": 96,
          "midi": 50,
          "name": "D3",
          "ticks": 80832,
          "time": 163.945547,
          "velocity": 0.7874015748031497
        },
        {
          "duration": 0.1949950000000058,
          "durationTicks": 96,
          "midi": 50,
          "name": "D3",
          "ticks": 80928,
          "time": 164.140542,
          "velocity": 0.7874015748031497
        },
        {
          "duration": 0.19499499999997738,
          "durationTicks": 96,
          "midi": 50,
          "name": "D3",
          "ticks": 81024,
          "time": 164.33553700000002,
          "velocity": 0.7874015748031497
        },
        {
          "duration": 0.1949950000000058,
          "durationTicks": 96,
          "midi": 50,
          "name": "D3",
          "ticks": 81120,
          "time": 164.530532,
          "velocity": 0.7874015748031497
        },
        {
          "duration": 0.1949950000000058,
          "durationTicks": 96,
          "midi": 50,
          "name": "D3",
          "ticks": 81216,
          "time": 164.725527,
          "velocity": 0.7874015748031497
        },
        {
          "duration": 0.1949950000000058,
          "durationTicks": 96,
          "midi": 43,
          "name": "G2",
          "ticks": 81312,
          "time": 164.920522,
          "velocity": 0.7874015748031497
        },
        {
          "duration": 0.4874874999999861,
          "durationTicks": 240,
          "midi": 38,
          "name": "D2",
          "ticks": 81408,
          "time": 165.115517,
          "velocity": 0.7874015748031497
        },
        {
          "duration": 1.8524524999999983,
          "durationTicks": 912,
          "midi": 40,
          "name": "E2",
          "ticks": 81648,
          "time": 165.6030045,
          "velocity": 0.7874015748031497
        }
      ]
    },
    {
      "channel": 2,
      "controlChanges": {
        "7": [
          {
            "number": 7,
            "ticks": 0,
            "time": 0,
            "value": 1
          }
        ],
        "10": [
          {
            "number": 10,
            "ticks": 0,
            "time": 0,
            "value": 0.4409448818897638
          }
        ]
      },
      "pitchBends": [],
      "instrument": {
        "family": "guitar",
        "name": "distortion guitar",
        "number": 30
      },
      "name": "",
      "notes": [
        {
          "duration": 0.584985,
          "durationTicks": 288,
          "midi": 40,
          "name": "E2",
          "ticks": 0,
          "time": 0,
          "velocity": 1
        },
        {
          "duration": 0.584985,
          "durationTicks": 288,
          "midi": 47,
          "name": "B2",
          "ticks": 0,
          "time": 0,
          "velocity": 1
        },
        {
          "duration": 0.974975,
          "durationTicks": 480,
          "midi": 40,
          "name": "E2",
          "ticks": 288,
          "time": 0.584985,
          "velocity": 1
        },
        {
          "duration": 0.974975,
          "durationTicks": 480,
          "midi": 47,
          "name": "B2",
          "ticks": 288,
          "time": 0.584985,
          "velocity": 1
        },
        {
          "duration": 0.5849850000000001,
          "durationTicks": 288,
          "midi": 40,
          "name": "E2",
          "ticks": 1536,
          "time": 3.11992,
          "velocity": 1
        },
        {
          "duration": 0.5849850000000001,
          "durationTicks": 288,
          "midi": 47,
          "name": "B2",
          "ticks": 1536,
          "time": 3.11992,
          "velocity": 1
        },
        {
          "duration": 0.9749749999999997,
          "durationTicks": 480,
          "midi": 40,
          "name": "E2",
          "ticks": 1824,
          "time": 3.704905,
          "velocity": 1
        },
        {
          "duration": 0.9749749999999997,
          "durationTicks": 480,
          "midi": 47,
          "name": "B2",
          "ticks": 1824,
          "time": 3.704905,
          "velocity": 1
        },
        {
          "duration": 0.5849849999999996,
          "durationTicks": 288,
          "midi": 40,
          "name": "E2",
          "ticks": 3072,
          "time": 6.23984,
          "velocity": 1
        },
        {
          "duration": 0.5849849999999996,
          "durationTicks": 288,
          "midi": 47,
          "name": "B2",
          "ticks": 3072,
          "time": 6.23984,
          "velocity": 1
        },
        {
          "duration": 0.9749750000000006,
          "durationTicks": 480,
          "midi": 40,
          "name": "E2",
          "ticks": 3360,
          "time": 6.824825,
          "velocity": 1
        },
        {
          "duration": 0.9749750000000006,
          "durationTicks": 480,
          "midi": 47,
          "name": "B2",
          "ticks": 3360,
          "time": 6.824825,
          "velocity": 1
        },
        {
          "duration": 0.5806454999999993,
          "durationTicks": 288,
          "midi": 40,
          "name": "E2",
          "ticks": 4608,
          "time": 9.35976,
          "velocity": 1
        },
        {
          "duration": 0.5806454999999993,
          "durationTicks": 288,
          "midi": 47,
          "name": "B2",
          "ticks": 4608,
          "time": 9.35976,
          "velocity": 1
        },
        {
          "duration": 0.9677425,
          "durationTicks": 480,
          "midi": 40,
          "name": "E2",
          "ticks": 4896,
          "time": 9.940405499999999,
          "velocity": 1
        },
        {
          "duration": 0.9677425,
          "durationTicks": 480,
          "midi": 47,
          "name": "B2",
          "ticks": 4896,
          "time": 9.940405499999999,
          "velocity": 1
        },
        {
          "duration": 0.18867900000000049,
          "durationTicks": 96,
          "midi": 52,
          "name": "E3",
          "ticks": 6144,
          "time": 12.456536,
          "velocity": 1
        },
        {
          "duration": 0.18867900000000049,
          "durationTicks": 96,
          "midi": 59,
          "name": "B3",
          "ticks": 6144,
          "time": 12.456536,
          "velocity": 1
        },
        {
          "duration": 0.1886789999999987,
          "durationTicks": 96,
          "midi": 52,
          "name": "E3",
          "ticks": 6240,
          "time": 12.645215,
          "velocity": 1
        },
        {
          "duration": 0.1886789999999987,
          "durationTicks": 96,
          "midi": 59,
          "name": "B3",
          "ticks": 6240,
          "time": 12.645215,
          "velocity": 1
        },
        {
          "duration": 0.18867900000000049,
          "durationTicks": 96,
          "midi": 52,
          "name": "E3",
          "ticks": 6336,
          "time": 12.833893999999999,
          "velocity": 1
        },
        {
          "duration": 0.18867900000000049,
          "durationTicks": 96,
          "midi": 59,
          "name": "B3",
          "ticks": 6336,
          "time": 12.833893999999999,
          "velocity": 1
        },
        {
          "duration": 0.18867900000000049,
          "durationTicks": 96,
          "midi": 52,
          "name": "E3",
          "ticks": 6432,
          "time": 13.022573,
          "velocity": 1
        },
        {
          "duration": 0.18867900000000049,
          "durationTicks": 96,
          "midi": 59,
          "name": "B3",
          "ticks": 6432,
          "time": 13.022573,
          "velocity": 1
        },
        {
          "duration": 0.18867900000000049,
          "durationTicks": 96,
          "midi": 52,
          "name": "E3",
          "ticks": 6528,
          "time": 13.211252,
          "velocity": 1
        },
        {
          "duration": 0.18867900000000049,
          "durationTicks": 96,
          "midi": 59,
          "name": "B3",
          "ticks": 6528,
          "time": 13.211252,
          "velocity": 1
        },
        {
          "duration": 0.1886789999999987,
          "durationTicks": 96,
          "midi": 52,
          "name": "E3",
          "ticks": 6624,
          "time": 13.399931,
          "velocity": 1
        },
        {
          "duration": 0.1886789999999987,
          "durationTicks": 96,
          "midi": 59,
          "name": "B3",
          "ticks": 6624,
          "time": 13.399931,
          "velocity": 1
        },
        {
          "duration": 0.18867900000000049,
          "durationTicks": 96,
          "midi": 52,
          "name": "E3",
          "ticks": 6720,
          "time": 13.58861,
          "velocity": 1
        },
        {
          "duration": 0.18867900000000049,
          "durationTicks": 96,
          "midi": 59,
          "name": "B3",
          "ticks": 6720,
          "time": 13.58861,
          "velocity": 1
        },
        {
          "duration": 0.18867900000000049,
          "durationTicks": 96,
          "midi": 52,
          "name": "E3",
          "ticks": 6816,
          "time": 13.777289,
          "velocity": 1
        },
        {
          "duration": 0.18867900000000049,
          "durationTicks": 96,
          "midi": 59,
          "name": "B3",
          "ticks": 6816,
          "time": 13.777289,
          "velocity": 1
        },
        {
          "duration": 0.18867900000000049,
          "durationTicks": 96,
          "midi": 52,
          "name": "E3",
          "ticks": 6912,
          "time": 13.965968,
          "velocity": 1
        },
        {
          "duration": 0.18867900000000049,
          "durationTicks": 96,
          "midi": 59,
          "name": "B3",
          "ticks": 6912,
          "time": 13.965968,
          "velocity": 1
        },
        {
          "duration": 0.1886789999999987,
          "durationTicks": 96,
          "midi": 52,
          "name": "E3",
          "ticks": 7008,
          "time": 14.154647,
          "velocity": 1
        },
        {
          "duration": 0.1886789999999987,
          "durationTicks": 96,
          "midi": 59,
          "name": "B3",
          "ticks": 7008,
          "time": 14.154647,
          "velocity": 1
        },
        {
          "duration": 0.18867900000000049,
          "durationTicks": 96,
          "midi": 52,
          "name": "E3",
          "ticks": 7104,
          "time": 14.343326,
          "velocity": 1
        },
        {
          "duration": 0.18867900000000049,
          "durationTicks": 96,
          "midi": 59,
          "name": "B3",
          "ticks": 7104,
          "time": 14.343326,
          "velocity": 1
        },
        {
          "duration": 0.18867900000000049,
          "durationTicks": 96,
          "midi": 52,
          "name": "E3",
          "ticks": 7200,
          "time": 14.532005,
          "velocity": 1
        },
        {
          "duration": 0.18867900000000049,
          "durationTicks": 96,
          "midi": 59,
          "name": "B3",
          "ticks": 7200,
          "time": 14.532005,
          "velocity": 1
        },
        {
          "duration": 0.1886789999999987,
          "durationTicks": 96,
          "midi": 52,
          "name": "E3",
          "ticks": 7296,
          "time": 14.720684,
          "velocity": 1
        },
        {
          "duration": 0.1886789999999987,
          "durationTicks": 96,
          "midi": 59,
          "name": "B3",
          "ticks": 7296,
          "time": 14.720684,
          "velocity": 1
        },
        {
          "duration": 0.18867900000000049,
          "durationTicks": 96,
          "midi": 52,
          "name": "E3",
          "ticks": 7392,
          "time": 14.909362999999999,
          "velocity": 1
        },
        {
          "duration": 0.18867900000000049,
          "durationTicks": 96,
          "midi": 59,
          "name": "B3",
          "ticks": 7392,
          "time": 14.909362999999999,
          "velocity": 1
        },
        {
          "duration": 0.18867900000000049,
          "durationTicks": 96,
          "midi": 52,
          "name": "E3",
          "ticks": 7488,
          "time": 15.098042,
          "velocity": 1
        },
        {
          "duration": 0.18867900000000049,
          "durationTicks": 96,
          "midi": 59,
          "name": "B3",
          "ticks": 7488,
          "time": 15.098042,
          "velocity": 1
        },
        {
          "duration": 0.18867900000000049,
          "durationTicks": 96,
          "midi": 52,
          "name": "E3",
          "ticks": 7584,
          "time": 15.286721,
          "velocity": 1
        },
        {
          "duration": 0.18867900000000049,
          "durationTicks": 96,
          "midi": 59,
          "name": "B3",
          "ticks": 7584,
          "time": 15.286721,
          "velocity": 1
        },
        {
          "duration": 0.18867900000000049,
          "durationTicks": 96,
          "midi": 50,
          "name": "D3",
          "ticks": 7680,
          "time": 15.4754,
          "velocity": 1
        },
        {
          "duration": 0.18867900000000049,
          "durationTicks": 96,
          "midi": 57,
          "name": "A3",
          "ticks": 7680,
          "time": 15.4754,
          "velocity": 1
        },
        {
          "duration": 0.1886789999999987,
          "durationTicks": 96,
          "midi": 50,
          "name": "D3",
          "ticks": 7776,
          "time": 15.664079000000001,
          "velocity": 1
        },
        {
          "duration": 0.1886789999999987,
          "durationTicks": 96,
          "midi": 57,
          "name": "A3",
          "ticks": 7776,
          "time": 15.664079000000001,
          "velocity": 1
        },
        {
          "duration": 0.18867900000000226,
          "durationTicks": 96,
          "midi": 50,
          "name": "D3",
          "ticks": 7872,
          "time": 15.852758,
          "velocity": 1
        },
        {
          "duration": 0.18867900000000226,
          "durationTicks": 96,
          "midi": 57,
          "name": "A3",
          "ticks": 7872,
          "time": 15.852758,
          "velocity": 1
        },
        {
          "duration": 0.18867899999999693,
          "durationTicks": 96,
          "midi": 50,
          "name": "D3",
          "ticks": 7968,
          "time": 16.041437000000002,
          "velocity": 1
        },
        {
          "duration": 0.18867899999999693,
          "durationTicks": 96,
          "midi": 57,
          "name": "A3",
          "ticks": 7968,
          "time": 16.041437000000002,
          "velocity": 1
        },
        {
          "duration": 0.18867900000000049,
          "durationTicks": 96,
          "midi": 50,
          "name": "D3",
          "ticks": 8064,
          "time": 16.230116,
          "velocity": 1
        },
        {
          "duration": 0.18867900000000049,
          "durationTicks": 96,
          "midi": 57,
          "name": "A3",
          "ticks": 8064,
          "time": 16.230116,
          "velocity": 1
        },
        {
          "duration": 0.18867900000000049,
          "durationTicks": 96,
          "midi": 50,
          "name": "D3",
          "ticks": 8160,
          "time": 16.418795,
          "velocity": 1
        },
        {
          "duration": 0.18867900000000049,
          "durationTicks": 96,
          "midi": 57,
          "name": "A3",
          "ticks": 8160,
          "time": 16.418795,
          "velocity": 1
        },
        {
          "duration": 0.18867900000000049,
          "durationTicks": 96,
          "midi": 50,
          "name": "D3",
          "ticks": 8256,
          "time": 16.607474,
          "velocity": 1
        },
        {
          "duration": 0.18867900000000049,
          "durationTicks": 96,
          "midi": 57,
          "name": "A3",
          "ticks": 8256,
          "time": 16.607474,
          "velocity": 1
        },
        {
          "duration": 0.18867900000000049,
          "durationTicks": 96,
          "midi": 50,
          "name": "D3",
          "ticks": 8352,
          "time": 16.796153,
          "velocity": 1
        },
        {
          "duration": 0.18867900000000049,
          "durationTicks": 96,
          "midi": 57,
          "name": "A3",
          "ticks": 8352,
          "time": 16.796153,
          "velocity": 1
        },
        {
          "duration": 0.18867900000000049,
          "durationTicks": 96,
          "midi": 43,
          "name": "G2",
          "ticks": 8448,
          "time": 16.984832,
          "velocity": 1
        },
        {
          "duration": 0.18867900000000049,
          "durationTicks": 96,
          "midi": 50,
          "name": "D3",
          "ticks": 8448,
          "time": 16.984832,
          "velocity": 1
        },
        {
          "duration": 0.47169749999999766,
          "durationTicks": 240,
          "midi": 38,
          "name": "D2",
          "ticks": 8544,
          "time": 17.173511,
          "velocity": 1
        },
        {
          "duration": 0.47169749999999766,
          "durationTicks": 240,
          "midi": 45,
          "name": "A2",
          "ticks": 8544,
          "time": 17.173511,
          "velocity": 1
        },
        {
          "duration": 0.37735800000000097,
          "durationTicks": 192,
          "midi": 40,
          "name": "E2",
          "ticks": 8784,
          "time": 17.6452085,
          "velocity": 1
        },
        {
          "duration": 0.37735800000000097,
          "durationTicks": 192,
          "midi": 47,
          "name": "B2",
          "ticks": 8784,
          "time": 17.6452085,
          "velocity": 1
        },
        {
          "duration": 0.37735800000000097,
          "durationTicks": 192,
          "midi": 55,
          "name": "G3",
          "ticks": 8976,
          "time": 18.0225665,
          "velocity": 1
        },
        {
          "duration": 0.37735800000000097,
          "durationTicks": 192,
          "midi": 62,
          "name": "D4",
          "ticks": 8976,
          "time": 18.0225665,
          "velocity": 1
        },
        {
          "duration": 0.1949949999999987,
          "durationTicks": 96,
          "midi": 52,
          "name": "E3",
          "ticks": 9168,
          "time": 18.3999245,
          "velocity": 1
        },
        {
          "duration": 0.1949949999999987,
          "durationTicks": 96,
          "midi": 59,
          "name": "B3",
          "ticks": 9168,
          "time": 18.3999245,
          "velocity": 1
        },
        {
          "duration": 0.19499500000000225,
          "durationTicks": 96,
          "midi": 52,
          "name": "E3",
          "ticks": 9264,
          "time": 18.5949195,
          "velocity": 1
        },
        {
          "duration": 0.19499500000000225,
          "durationTicks": 96,
          "midi": 59,
          "name": "B3",
          "ticks": 9264,
          "time": 18.5949195,
          "velocity": 1
        },
        {
          "duration": 0.1949949999999987,
          "durationTicks": 96,
          "midi": 52,
          "name": "E3",
          "ticks": 9360,
          "time": 18.789914500000002,
          "velocity": 1
        },
        {
          "duration": 0.1949949999999987,
          "durationTicks": 96,
          "midi": 59,
          "name": "B3",
          "ticks": 9360,
          "time": 18.789914500000002,
          "velocity": 1
        },
        {
          "duration": 0.1949949999999987,
          "durationTicks": 96,
          "midi": 52,
          "name": "E3",
          "ticks": 9456,
          "time": 18.9849095,
          "velocity": 1
        },
        {
          "duration": 0.1949949999999987,
          "durationTicks": 96,
          "midi": 59,
          "name": "B3",
          "ticks": 9456,
          "time": 18.9849095,
          "velocity": 1
        },
        {
          "duration": 0.19499500000000225,
          "durationTicks": 96,
          "midi": 52,
          "name": "E3",
          "ticks": 9552,
          "time": 19.1799045,
          "velocity": 1
        },
        {
          "duration": 0.19499500000000225,
          "durationTicks": 96,
          "midi": 59,
          "name": "B3",
          "ticks": 9552,
          "time": 19.1799045,
          "velocity": 1
        },
        {
          "duration": 0.1949949999999987,
          "durationTicks": 96,
          "midi": 52,
          "name": "E3",
          "ticks": 9648,
          "time": 19.3748995,
          "velocity": 1
        },
        {
          "duration": 0.1949949999999987,
          "durationTicks": 96,
          "midi": 59,
          "name": "B3",
          "ticks": 9648,
          "time": 19.3748995,
          "velocity": 1
        },
        {
          "duration": 0.19499500000000225,
          "durationTicks": 96,
          "midi": 52,
          "name": "E3",
          "ticks": 9744,
          "time": 19.5698945,
          "velocity": 1
        },
        {
          "duration": 0.19499500000000225,
          "durationTicks": 96,
          "midi": 59,
          "name": "B3",
          "ticks": 9744,
          "time": 19.5698945,
          "velocity": 1
        },
        {
          "duration": 0.1949949999999987,
          "durationTicks": 96,
          "midi": 52,
          "name": "E3",
          "ticks": 9840,
          "time": 19.764889500000002,
          "velocity": 1
        },
        {
          "duration": 0.1949949999999987,
          "durationTicks": 96,
          "midi": 59,
          "name": "B3",
          "ticks": 9840,
          "time": 19.764889500000002,
          "velocity": 1
        },
        {
          "duration": 0.1949949999999987,
          "durationTicks": 96,
          "midi": 52,
          "name": "E3",
          "ticks": 9936,
          "time": 19.9598845,
          "velocity": 1
        },
        {
          "duration": 0.1949949999999987,
          "durationTicks": 96,
          "midi": 59,
          "name": "B3",
          "ticks": 9936,
          "time": 19.9598845,
          "velocity": 1
        },
        {
          "duration": 0.19499500000000225,
          "durationTicks": 96,
          "midi": 52,
          "name": "E3",
          "ticks": 10032,
          "time": 20.1548795,
          "velocity": 1
        },
        {
          "duration": 0.19499500000000225,
          "durationTicks": 96,
          "midi": 59,
          "name": "B3",
          "ticks": 10032,
          "time": 20.1548795,
          "velocity": 1
        },
        {
          "duration": 0.1949949999999987,
          "durationTicks": 96,
          "midi": 52,
          "name": "E3",
          "ticks": 10128,
          "time": 20.349874500000002,
          "velocity": 1
        },
        {
          "duration": 0.1949949999999987,
          "durationTicks": 96,
          "midi": 59,
          "name": "B3",
          "ticks": 10128,
          "time": 20.349874500000002,
          "velocity": 1
        },
        {
          "duration": 0.1949949999999987,
          "durationTicks": 96,
          "midi": 52,
          "name": "E3",
          "ticks": 10224,
          "time": 20.5448695,
          "velocity": 1
        },
        {
          "duration": 0.1949949999999987,
          "durationTicks": 96,
          "midi": 59,
          "name": "B3",
          "ticks": 10224,
          "time": 20.5448695,
          "velocity": 1
        },
        {
          "duration": 0.19499500000000225,
          "durationTicks": 96,
          "midi": 52,
          "name": "E3",
          "ticks": 10320,
          "time": 20.7398645,
          "velocity": 1
        },
        {
          "duration": 0.19499500000000225,
          "durationTicks": 96,
          "midi": 59,
          "name": "B3",
          "ticks": 10320,
          "time": 20.7398645,
          "velocity": 1
        },
        {
          "duration": 0.1949949999999987,
          "durationTicks": 96,
          "midi": 52,
          "name": "E3",
          "ticks": 10416,
          "time": 20.9348595,
          "velocity": 1
        },
        {
          "duration": 0.1949949999999987,
          "durationTicks": 96,
          "midi": 59,
          "name": "B3",
          "ticks": 10416,
          "time": 20.9348595,
          "velocity": 1
        },
        {
          "duration": 0.1949949999999987,
          "durationTicks": 96,
          "midi": 52,
          "name": "E3",
          "ticks": 10512,
          "time": 21.1298545,
          "velocity": 1
        },
        {
          "duration": 0.1949949999999987,
          "durationTicks": 96,
          "midi": 59,
          "name": "B3",
          "ticks": 10512,
          "time": 21.1298545,
          "velocity": 1
        },
        {
          "duration": 0.19499500000000225,
          "durationTicks": 96,
          "midi": 52,
          "name": "E3",
          "ticks": 10608,
          "time": 21.3248495,
          "velocity": 1
        },
        {
          "duration": 0.19499500000000225,
          "durationTicks": 96,
          "midi": 59,
          "name": "B3",
          "ticks": 10608,
          "time": 21.3248495,
          "velocity": 1
        },
        {
          "duration": 0.1949949999999987,
          "durationTicks": 96,
          "midi": 50,
          "name": "D3",
          "ticks": 10704,
          "time": 21.5198445,
          "velocity": 1
        },
        {
          "duration": 0.1949949999999987,
          "durationTicks": 96,
          "midi": 57,
          "name": "A3",
          "ticks": 10704,
          "time": 21.5198445,
          "velocity": 1
        },
        {
          "duration": 0.19499500000000225,
          "durationTicks": 96,
          "midi": 50,
          "name": "D3",
          "ticks": 10800,
          "time": 21.7148395,
          "velocity": 1
        },
        {
          "duration": 0.19499500000000225,
          "durationTicks": 96,
          "midi": 57,
          "name": "A3",
          "ticks": 10800,
          "time": 21.7148395,
          "velocity": 1
        },
        {
          "duration": 0.1949949999999987,
          "durationTicks": 96,
          "midi": 50,
          "name": "D3",
          "ticks": 10896,
          "time": 21.909834500000002,
          "velocity": 1
        },
        {
          "duration": 0.1949949999999987,
          "durationTicks": 96,
          "midi": 57,
          "name": "A3",
          "ticks": 10896,
          "time": 21.909834500000002,
          "velocity": 1
        },
        {
          "duration": 0.1949949999999987,
          "durationTicks": 96,
          "midi": 50,
          "name": "D3",
          "ticks": 10992,
          "time": 22.1048295,
          "velocity": 1
        },
        {
          "duration": 0.1949949999999987,
          "durationTicks": 96,
          "midi": 57,
          "name": "A3",
          "ticks": 10992,
          "time": 22.1048295,
          "velocity": 1
        },
        {
          "duration": 0.19499500000000225,
          "durationTicks": 96,
          "midi": 50,
          "name": "D3",
          "ticks": 11088,
          "time": 22.2998245,
          "velocity": 1
        },
        {
          "duration": 0.19499500000000225,
          "durationTicks": 96,
          "midi": 57,
          "name": "A3",
          "ticks": 11088,
          "time": 22.2998245,
          "velocity": 1
        },
        {
          "duration": 0.1949949999999987,
          "durationTicks": 96,
          "midi": 50,
          "name": "D3",
          "ticks": 11184,
          "time": 22.494819500000002,
          "velocity": 1
        },
        {
          "duration": 0.1949949999999987,
          "durationTicks": 96,
          "midi": 57,
          "name": "A3",
          "ticks": 11184,
          "time": 22.494819500000002,
          "velocity": 1
        },
        {
          "duration": 0.19499500000000225,
          "durationTicks": 96,
          "midi": 50,
          "name": "D3",
          "ticks": 11280,
          "time": 22.6898145,
          "velocity": 1
        },
        {
          "duration": 0.19499500000000225,
          "durationTicks": 96,
          "midi": 57,
          "name": "A3",
          "ticks": 11280,
          "time": 22.6898145,
          "velocity": 1
        },
        {
          "duration": 0.1949949999999987,
          "durationTicks": 96,
          "midi": 50,
          "name": "D3",
          "ticks": 11376,
          "time": 22.884809500000003,
          "velocity": 1
        },
        {
          "duration": 0.1949949999999987,
          "durationTicks": 96,
          "midi": 57,
          "name": "A3",
          "ticks": 11376,
          "time": 22.884809500000003,
          "velocity": 1
        },
        {
          "duration": 0.1949949999999987,
          "durationTicks": 96,
          "midi": 43,
          "name": "G2",
          "ticks": 11472,
          "time": 23.0798045,
          "velocity": 1
        },
        {
          "duration": 0.1949949999999987,
          "durationTicks": 96,
          "midi": 50,
          "name": "D3",
          "ticks": 11472,
          "time": 23.0798045,
          "velocity": 1
        },
        {
          "duration": 0.4874875000000003,
          "durationTicks": 240,
          "midi": 38,
          "name": "D2",
          "ticks": 11568,
          "time": 23.2747995,
          "velocity": 1
        },
        {
          "duration": 0.4874875000000003,
          "durationTicks": 240,
          "midi": 45,
          "name": "A2",
          "ticks": 11568,
          "time": 23.2747995,
          "velocity": 1
        },
        {
          "duration": 0.38999000000000095,
          "durationTicks": 192,
          "midi": 40,
          "name": "E2",
          "ticks": 11808,
          "time": 23.762287,
          "velocity": 1
        },
        {
          "duration": 0.38999000000000095,
          "durationTicks": 192,
          "midi": 47,
          "name": "B2",
          "ticks": 11808,
          "time": 23.762287,
          "velocity": 1
        },
        {
          "duration": 0.38999000000000095,
          "durationTicks": 192,
          "midi": 55,
          "name": "G3",
          "ticks": 12000,
          "time": 24.152277,
          "velocity": 1
        },
        {
          "duration": 0.38999000000000095,
          "durationTicks": 192,
          "midi": 62,
          "name": "D4",
          "ticks": 12000,
          "time": 24.152277,
          "velocity": 1
        },
        {
          "duration": 0.1949949999999987,
          "durationTicks": 96,
          "midi": 52,
          "name": "E3",
          "ticks": 18336,
          "time": 37.021947000000004,
          "velocity": 1
        },
        {
          "duration": 0.1949949999999987,
          "durationTicks": 96,
          "midi": 59,
          "name": "B3",
          "ticks": 18336,
          "time": 37.021947000000004,
          "velocity": 1
        },
        {
          "duration": 0.1949949999999987,
          "durationTicks": 96,
          "midi": 52,
          "name": "E3",
          "ticks": 18432,
          "time": 37.216942,
          "velocity": 1
        },
        {
          "duration": 0.1949949999999987,
          "durationTicks": 96,
          "midi": 59,
          "name": "B3",
          "ticks": 18432,
          "time": 37.216942,
          "velocity": 1
        },
        {
          "duration": 0.1949950000000058,
          "durationTicks": 96,
          "midi": 52,
          "name": "E3",
          "ticks": 18528,
          "time": 37.411937,
          "velocity": 1
        },
        {
          "duration": 0.1949950000000058,
          "durationTicks": 96,
          "midi": 59,
          "name": "B3",
          "ticks": 18528,
          "time": 37.411937,
          "velocity": 1
        },
        {
          "duration": 0.1949949999999987,
          "durationTicks": 96,
          "midi": 52,
          "name": "E3",
          "ticks": 18624,
          "time": 37.60693200000001,
          "velocity": 1
        },
        {
          "duration": 0.1949949999999987,
          "durationTicks": 96,
          "midi": 59,
          "name": "B3",
          "ticks": 18624,
          "time": 37.60693200000001,
          "velocity": 1
        },
        {
          "duration": 0.1949949999999987,
          "durationTicks": 96,
          "midi": 52,
          "name": "E3",
          "ticks": 18720,
          "time": 37.801927000000006,
          "velocity": 1
        },
        {
          "duration": 0.1949949999999987,
          "durationTicks": 96,
          "midi": 59,
          "name": "B3",
          "ticks": 18720,
          "time": 37.801927000000006,
          "velocity": 1
        },
        {
          "duration": 0.1949949999999987,
          "durationTicks": 96,
          "midi": 52,
          "name": "E3",
          "ticks": 18816,
          "time": 37.996922000000005,
          "velocity": 1
        },
        {
          "duration": 0.1949949999999987,
          "durationTicks": 96,
          "midi": 59,
          "name": "B3",
          "ticks": 18816,
          "time": 37.996922000000005,
          "velocity": 1
        },
        {
          "duration": 0.1949949999999987,
          "durationTicks": 96,
          "midi": 52,
          "name": "E3",
          "ticks": 18912,
          "time": 38.191917000000004,
          "velocity": 1
        },
        {
          "duration": 0.1949949999999987,
          "durationTicks": 96,
          "midi": 59,
          "name": "B3",
          "ticks": 18912,
          "time": 38.191917000000004,
          "velocity": 1
        },
        {
          "duration": 0.1949949999999987,
          "durationTicks": 96,
          "midi": 52,
          "name": "E3",
          "ticks": 19008,
          "time": 38.386912,
          "velocity": 1
        },
        {
          "duration": 0.1949949999999987,
          "durationTicks": 96,
          "midi": 59,
          "name": "B3",
          "ticks": 19008,
          "time": 38.386912,
          "velocity": 1
        },
        {
          "duration": 0.1949950000000058,
          "durationTicks": 96,
          "midi": 52,
          "name": "E3",
          "ticks": 19104,
          "time": 38.581907,
          "velocity": 1
        },
        {
          "duration": 0.1949950000000058,
          "durationTicks": 96,
          "midi": 59,
          "name": "B3",
          "ticks": 19104,
          "time": 38.581907,
          "velocity": 1
        },
        {
          "duration": 0.1949949999999987,
          "durationTicks": 96,
          "midi": 52,
          "name": "E3",
          "ticks": 19200,
          "time": 38.77690200000001,
          "velocity": 1
        },
        {
          "duration": 0.1949949999999987,
          "durationTicks": 96,
          "midi": 59,
          "name": "B3",
          "ticks": 19200,
          "time": 38.77690200000001,
          "velocity": 1
        },
        {
          "duration": 0.1949949999999987,
          "durationTicks": 96,
          "midi": 52,
          "name": "E3",
          "ticks": 19296,
          "time": 38.971897000000006,
          "velocity": 1
        },
        {
          "duration": 0.1949949999999987,
          "durationTicks": 96,
          "midi": 59,
          "name": "B3",
          "ticks": 19296,
          "time": 38.971897000000006,
          "velocity": 1
        },
        {
          "duration": 0.1949949999999987,
          "durationTicks": 96,
          "midi": 52,
          "name": "E3",
          "ticks": 19392,
          "time": 39.166892000000004,
          "velocity": 1
        },
        {
          "duration": 0.1949949999999987,
          "durationTicks": 96,
          "midi": 59,
          "name": "B3",
          "ticks": 19392,
          "time": 39.166892000000004,
          "velocity": 1
        },
        {
          "duration": 0.1949949999999987,
          "durationTicks": 96,
          "midi": 52,
          "name": "E3",
          "ticks": 19488,
          "time": 39.361887,
          "velocity": 1
        },
        {
          "duration": 0.1949949999999987,
          "durationTicks": 96,
          "midi": 59,
          "name": "B3",
          "ticks": 19488,
          "time": 39.361887,
          "velocity": 1
        },
        {
          "duration": 0.1949950000000058,
          "durationTicks": 96,
          "midi": 52,
          "name": "E3",
          "ticks": 19584,
          "time": 39.556882,
          "velocity": 1
        },
        {
          "duration": 0.1949950000000058,
          "durationTicks": 96,
          "midi": 59,
          "name": "B3",
          "ticks": 19584,
          "time": 39.556882,
          "velocity": 1
        },
        {
          "duration": 0.1949949999999987,
          "durationTicks": 96,
          "midi": 52,
          "name": "E3",
          "ticks": 19680,
          "time": 39.75187700000001,
          "velocity": 1
        },
        {
          "duration": 0.1949949999999987,
          "durationTicks": 96,
          "midi": 59,
          "name": "B3",
          "ticks": 19680,
          "time": 39.75187700000001,
          "velocity": 1
        },
        {
          "duration": 0.1949949999999987,
          "durationTicks": 96,
          "midi": 52,
          "name": "E3",
          "ticks": 19776,
          "time": 39.946872000000006,
          "velocity": 1
        },
        {
          "duration": 0.1949949999999987,
          "durationTicks": 96,
          "midi": 59,
          "name": "B3",
          "ticks": 19776,
          "time": 39.946872000000006,
          "velocity": 1
        },
        {
          "duration": 0.1949949999999987,
          "durationTicks": 96,
          "midi": 50,
          "name": "D3",
          "ticks": 19872,
          "time": 40.141867000000005,
          "velocity": 1
        },
        {
          "duration": 0.1949949999999987,
          "durationTicks": 96,
          "midi": 57,
          "name": "A3",
          "ticks": 19872,
          "time": 40.141867000000005,
          "velocity": 1
        },
        {
          "duration": 0.1949949999999987,
          "durationTicks": 96,
          "midi": 50,
          "name": "D3",
          "ticks": 19968,
          "time": 40.336862,
          "velocity": 1
        },
        {
          "duration": 0.1949949999999987,
          "durationTicks": 96,
          "midi": 57,
          "name": "A3",
          "ticks": 19968,
          "time": 40.336862,
          "velocity": 1
        },
        {
          "duration": 0.1949950000000058,
          "durationTicks": 96,
          "midi": 50,
          "name": "D3",
          "ticks": 20064,
          "time": 40.531857,
          "velocity": 1
        },
        {
          "duration": 0.1949950000000058,
          "durationTicks": 96,
          "midi": 57,
          "name": "A3",
          "ticks": 20064,
          "time": 40.531857,
          "velocity": 1
        },
        {
          "duration": 0.1949949999999987,
          "durationTicks": 96,
          "midi": 50,
          "name": "D3",
          "ticks": 20160,
          "time": 40.72685200000001,
          "velocity": 1
        },
        {
          "duration": 0.1949949999999987,
          "durationTicks": 96,
          "midi": 57,
          "name": "A3",
          "ticks": 20160,
          "time": 40.72685200000001,
          "velocity": 1
        },
        {
          "duration": 0.1949949999999987,
          "durationTicks": 96,
          "midi": 50,
          "name": "D3",
          "ticks": 20256,
          "time": 40.92184700000001,
          "velocity": 1
        },
        {
          "duration": 0.1949949999999987,
          "durationTicks": 96,
          "midi": 57,
          "name": "A3",
          "ticks": 20256,
          "time": 40.92184700000001,
          "velocity": 1
        },
        {
          "duration": 0.1949949999999987,
          "durationTicks": 96,
          "midi": 50,
          "name": "D3",
          "ticks": 20352,
          "time": 41.116842000000005,
          "velocity": 1
        },
        {
          "duration": 0.1949949999999987,
          "durationTicks": 96,
          "midi": 57,
          "name": "A3",
          "ticks": 20352,
          "time": 41.116842000000005,
          "velocity": 1
        },
        {
          "duration": 0.1949949999999987,
          "durationTicks": 96,
          "midi": 50,
          "name": "D3",
          "ticks": 20448,
          "time": 41.311837000000004,
          "velocity": 1
        },
        {
          "duration": 0.1949949999999987,
          "durationTicks": 96,
          "midi": 57,
          "name": "A3",
          "ticks": 20448,
          "time": 41.311837000000004,
          "velocity": 1
        },
        {
          "duration": 0.1949949999999987,
          "durationTicks": 96,
          "midi": 50,
          "name": "D3",
          "ticks": 20544,
          "time": 41.506832,
          "velocity": 1
        },
        {
          "duration": 0.1949949999999987,
          "durationTicks": 96,
          "midi": 57,
          "name": "A3",
          "ticks": 20544,
          "time": 41.506832,
          "velocity": 1
        },
        {
          "duration": 0.1949950000000058,
          "durationTicks": 96,
          "midi": 43,
          "name": "G2",
          "ticks": 20640,
          "time": 41.701827,
          "velocity": 1
        },
        {
          "duration": 0.1949950000000058,
          "durationTicks": 96,
          "midi": 50,
          "name": "D3",
          "ticks": 20640,
          "time": 41.701827,
          "velocity": 1
        },
        {
          "duration": 0.4874874999999932,
          "durationTicks": 240,
          "midi": 38,
          "name": "D2",
          "ticks": 20736,
          "time": 41.89682200000001,
          "velocity": 1
        },
        {
          "duration": 0.4874874999999932,
          "durationTicks": 240,
          "midi": 45,
          "name": "A2",
          "ticks": 20736,
          "time": 41.89682200000001,
          "velocity": 1
        },
        {
          "duration": 0.3899900000000045,
          "durationTicks": 192,
          "midi": 40,
          "name": "E2",
          "ticks": 20976,
          "time": 42.3843095,
          "velocity": 1
        },
        {
          "duration": 0.3899900000000045,
          "durationTicks": 192,
          "midi": 47,
          "name": "B2",
          "ticks": 20976,
          "time": 42.3843095,
          "velocity": 1
        },
        {
          "duration": 0.3899899999999974,
          "durationTicks": 192,
          "midi": 55,
          "name": "G3",
          "ticks": 21168,
          "time": 42.774299500000005,
          "velocity": 1
        },
        {
          "duration": 0.3899899999999974,
          "durationTicks": 192,
          "midi": 62,
          "name": "D4",
          "ticks": 21168,
          "time": 42.774299500000005,
          "velocity": 1
        },
        {
          "duration": 0.19480500000000234,
          "durationTicks": 96,
          "midi": 52,
          "name": "E3",
          "ticks": 21360,
          "time": 43.1642895,
          "velocity": 1
        },
        {
          "duration": 0.19480500000000234,
          "durationTicks": 96,
          "midi": 59,
          "name": "B3",
          "ticks": 21360,
          "time": 43.1642895,
          "velocity": 1
        },
        {
          "duration": 0.19480499999999523,
          "durationTicks": 96,
          "midi": 52,
          "name": "E3",
          "ticks": 21456,
          "time": 43.359094500000005,
          "velocity": 1
        },
        {
          "duration": 0.19480499999999523,
          "durationTicks": 96,
          "midi": 59,
          "name": "B3",
          "ticks": 21456,
          "time": 43.359094500000005,
          "velocity": 1
        },
        {
          "duration": 0.19480500000000234,
          "durationTicks": 96,
          "midi": 52,
          "name": "E3",
          "ticks": 21552,
          "time": 43.5538995,
          "velocity": 1
        },
        {
          "duration": 0.19480500000000234,
          "durationTicks": 96,
          "midi": 59,
          "name": "B3",
          "ticks": 21552,
          "time": 43.5538995,
          "velocity": 1
        },
        {
          "duration": 0.19480500000000234,
          "durationTicks": 96,
          "midi": 52,
          "name": "E3",
          "ticks": 21648,
          "time": 43.7487045,
          "velocity": 1
        },
        {
          "duration": 0.19480500000000234,
          "durationTicks": 96,
          "midi": 59,
          "name": "B3",
          "ticks": 21648,
          "time": 43.7487045,
          "velocity": 1
        },
        {
          "duration": 0.19480499999999523,
          "durationTicks": 96,
          "midi": 52,
          "name": "E3",
          "ticks": 21744,
          "time": 43.943509500000005,
          "velocity": 1
        },
        {
          "duration": 0.19480499999999523,
          "durationTicks": 96,
          "midi": 59,
          "name": "B3",
          "ticks": 21744,
          "time": 43.943509500000005,
          "velocity": 1
        },
        {
          "duration": 0.19480500000000234,
          "durationTicks": 96,
          "midi": 52,
          "name": "E3",
          "ticks": 21840,
          "time": 44.1383145,
          "velocity": 1
        },
        {
          "duration": 0.19480500000000234,
          "durationTicks": 96,
          "midi": 59,
          "name": "B3",
          "ticks": 21840,
          "time": 44.1383145,
          "velocity": 1
        },
        {
          "duration": 0.19480500000000234,
          "durationTicks": 96,
          "midi": 52,
          "name": "E3",
          "ticks": 21936,
          "time": 44.3331195,
          "velocity": 1
        },
        {
          "duration": 0.19480500000000234,
          "durationTicks": 96,
          "midi": 59,
          "name": "B3",
          "ticks": 21936,
          "time": 44.3331195,
          "velocity": 1
        },
        {
          "duration": 0.19480499999999523,
          "durationTicks": 96,
          "midi": 52,
          "name": "E3",
          "ticks": 22032,
          "time": 44.527924500000005,
          "velocity": 1
        },
        {
          "duration": 0.19480499999999523,
          "durationTicks": 96,
          "midi": 59,
          "name": "B3",
          "ticks": 22032,
          "time": 44.527924500000005,
          "velocity": 1
        },
        {
          "duration": 0.19480500000000234,
          "durationTicks": 96,
          "midi": 52,
          "name": "E3",
          "ticks": 22128,
          "time": 44.7227295,
          "velocity": 1
        },
        {
          "duration": 0.19480500000000234,
          "durationTicks": 96,
          "midi": 59,
          "name": "B3",
          "ticks": 22128,
          "time": 44.7227295,
          "velocity": 1
        },
        {
          "duration": 0.19480500000000234,
          "durationTicks": 96,
          "midi": 52,
          "name": "E3",
          "ticks": 22224,
          "time": 44.9175345,
          "velocity": 1
        },
        {
          "duration": 0.19480500000000234,
          "durationTicks": 96,
          "midi": 59,
          "name": "B3",
          "ticks": 22224,
          "time": 44.9175345,
          "velocity": 1
        },
        {
          "duration": 0.19480499999999523,
          "durationTicks": 96,
          "midi": 52,
          "name": "E3",
          "ticks": 22320,
          "time": 45.112339500000004,
          "velocity": 1
        },
        {
          "duration": 0.19480499999999523,
          "durationTicks": 96,
          "midi": 59,
          "name": "B3",
          "ticks": 22320,
          "time": 45.112339500000004,
          "velocity": 1
        },
        {
          "duration": 0.19480500000000234,
          "durationTicks": 96,
          "midi": 52,
          "name": "E3",
          "ticks": 22416,
          "time": 45.3071445,
          "velocity": 1
        },
        {
          "duration": 0.19480500000000234,
          "durationTicks": 96,
          "midi": 59,
          "name": "B3",
          "ticks": 22416,
          "time": 45.3071445,
          "velocity": 1
        },
        {
          "duration": 0.19480500000000234,
          "durationTicks": 96,
          "midi": 52,
          "name": "E3",
          "ticks": 22512,
          "time": 45.5019495,
          "velocity": 1
        },
        {
          "duration": 0.19480500000000234,
          "durationTicks": 96,
          "midi": 59,
          "name": "B3",
          "ticks": 22512,
          "time": 45.5019495,
          "velocity": 1
        },
        {
          "duration": 0.19480499999999523,
          "durationTicks": 96,
          "midi": 52,
          "name": "E3",
          "ticks": 22608,
          "time": 45.696754500000004,
          "velocity": 1
        },
        {
          "duration": 0.19480499999999523,
          "durationTicks": 96,
          "midi": 59,
          "name": "B3",
          "ticks": 22608,
          "time": 45.696754500000004,
          "velocity": 1
        },
        {
          "duration": 0.19480500000000234,
          "durationTicks": 96,
          "midi": 52,
          "name": "E3",
          "ticks": 22704,
          "time": 45.8915595,
          "velocity": 1
        },
        {
          "duration": 0.19480500000000234,
          "durationTicks": 96,
          "midi": 59,
          "name": "B3",
          "ticks": 22704,
          "time": 45.8915595,
          "velocity": 1
        },
        {
          "duration": 0.19480500000000234,
          "durationTicks": 96,
          "midi": 52,
          "name": "E3",
          "ticks": 22800,
          "time": 46.0863645,
          "velocity": 1
        },
        {
          "duration": 0.19480500000000234,
          "durationTicks": 96,
          "midi": 59,
          "name": "B3",
          "ticks": 22800,
          "time": 46.0863645,
          "velocity": 1
        },
        {
          "duration": 0.19480499999999523,
          "durationTicks": 96,
          "midi": 50,
          "name": "D3",
          "ticks": 22896,
          "time": 46.281169500000004,
          "velocity": 1
        },
        {
          "duration": 0.19480499999999523,
          "durationTicks": 96,
          "midi": 57,
          "name": "A3",
          "ticks": 22896,
          "time": 46.281169500000004,
          "velocity": 1
        },
        {
          "duration": 0.19480500000000234,
          "durationTicks": 96,
          "midi": 50,
          "name": "D3",
          "ticks": 22992,
          "time": 46.4759745,
          "velocity": 1
        },
        {
          "duration": 0.19480500000000234,
          "durationTicks": 96,
          "midi": 57,
          "name": "A3",
          "ticks": 22992,
          "time": 46.4759745,
          "velocity": 1
        },
        {
          "duration": 0.19480500000000234,
          "durationTicks": 96,
          "midi": 50,
          "name": "D3",
          "ticks": 23088,
          "time": 46.6707795,
          "velocity": 1
        },
        {
          "duration": 0.19480500000000234,
          "durationTicks": 96,
          "midi": 57,
          "name": "A3",
          "ticks": 23088,
          "time": 46.6707795,
          "velocity": 1
        },
        {
          "duration": 0.19480499999999523,
          "durationTicks": 96,
          "midi": 50,
          "name": "D3",
          "ticks": 23184,
          "time": 46.865584500000004,
          "velocity": 1
        },
        {
          "duration": 0.19480499999999523,
          "durationTicks": 96,
          "midi": 57,
          "name": "A3",
          "ticks": 23184,
          "time": 46.865584500000004,
          "velocity": 1
        },
        {
          "duration": 0.19480500000000234,
          "durationTicks": 96,
          "midi": 50,
          "name": "D3",
          "ticks": 23280,
          "time": 47.0603895,
          "velocity": 1
        },
        {
          "duration": 0.19480500000000234,
          "durationTicks": 96,
          "midi": 57,
          "name": "A3",
          "ticks": 23280,
          "time": 47.0603895,
          "velocity": 1
        },
        {
          "duration": 0.19480500000000234,
          "durationTicks": 96,
          "midi": 50,
          "name": "D3",
          "ticks": 23376,
          "time": 47.2551945,
          "velocity": 1
        },
        {
          "duration": 0.19480500000000234,
          "durationTicks": 96,
          "midi": 57,
          "name": "A3",
          "ticks": 23376,
          "time": 47.2551945,
          "velocity": 1
        },
        {
          "duration": 0.19480500000000234,
          "durationTicks": 96,
          "midi": 50,
          "name": "D3",
          "ticks": 23472,
          "time": 47.449999500000004,
          "velocity": 1
        },
        {
          "duration": 0.19480500000000234,
          "durationTicks": 96,
          "midi": 57,
          "name": "A3",
          "ticks": 23472,
          "time": 47.449999500000004,
          "velocity": 1
        },
        {
          "duration": 0.19480499999999523,
          "durationTicks": 96,
          "midi": 50,
          "name": "D3",
          "ticks": 23568,
          "time": 47.644804500000006,
          "velocity": 1
        },
        {
          "duration": 0.19480499999999523,
          "durationTicks": 96,
          "midi": 57,
          "name": "A3",
          "ticks": 23568,
          "time": 47.644804500000006,
          "velocity": 1
        },
        {
          "duration": 0.19480500000000234,
          "durationTicks": 96,
          "midi": 43,
          "name": "G2",
          "ticks": 23664,
          "time": 47.8396095,
          "velocity": 1
        },
        {
          "duration": 0.19480500000000234,
          "durationTicks": 96,
          "midi": 50,
          "name": "D3",
          "ticks": 23664,
          "time": 47.8396095,
          "velocity": 1
        },
        {
          "duration": 0.48701249999999874,
          "durationTicks": 240,
          "midi": 38,
          "name": "D2",
          "ticks": 23760,
          "time": 48.034414500000004,
          "velocity": 1
        },
        {
          "duration": 0.48701249999999874,
          "durationTicks": 240,
          "midi": 45,
          "name": "A2",
          "ticks": 23760,
          "time": 48.034414500000004,
          "velocity": 1
        },
        {
          "duration": 0.38960999999999757,
          "durationTicks": 192,
          "midi": 40,
          "name": "E2",
          "ticks": 24000,
          "time": 48.521427,
          "velocity": 1
        },
        {
          "duration": 0.38960999999999757,
          "durationTicks": 192,
          "midi": 47,
          "name": "B2",
          "ticks": 24000,
          "time": 48.521427,
          "velocity": 1
        },
        {
          "duration": 0.3896100000000047,
          "durationTicks": 192,
          "midi": 55,
          "name": "G3",
          "ticks": 24192,
          "time": 48.911037,
          "velocity": 1
        },
        {
          "duration": 0.3896100000000047,
          "durationTicks": 192,
          "midi": 62,
          "name": "D4",
          "ticks": 24192,
          "time": 48.911037,
          "velocity": 1
        },
        {
          "duration": 0.1949949999999987,
          "durationTicks": 96,
          "midi": 52,
          "name": "E3",
          "ticks": 30528,
          "time": 61.768167000000005,
          "velocity": 1
        },
        {
          "duration": 0.1949949999999987,
          "durationTicks": 96,
          "midi": 59,
          "name": "B3",
          "ticks": 30528,
          "time": 61.768167000000005,
          "velocity": 1
        },
        {
          "duration": 0.1949949999999987,
          "durationTicks": 96,
          "midi": 52,
          "name": "E3",
          "ticks": 30624,
          "time": 61.963162000000004,
          "velocity": 1
        },
        {
          "duration": 0.1949949999999987,
          "durationTicks": 96,
          "midi": 59,
          "name": "B3",
          "ticks": 30624,
          "time": 61.963162000000004,
          "velocity": 1
        },
        {
          "duration": 0.1949950000000058,
          "durationTicks": 96,
          "midi": 52,
          "name": "E3",
          "ticks": 30720,
          "time": 62.158157,
          "velocity": 1
        },
        {
          "duration": 0.1949950000000058,
          "durationTicks": 96,
          "midi": 59,
          "name": "B3",
          "ticks": 30720,
          "time": 62.158157,
          "velocity": 1
        },
        {
          "duration": 0.1949949999999987,
          "durationTicks": 96,
          "midi": 52,
          "name": "E3",
          "ticks": 30816,
          "time": 62.35315200000001,
          "velocity": 1
        },
        {
          "duration": 0.1949949999999987,
          "durationTicks": 96,
          "midi": 59,
          "name": "B3",
          "ticks": 30816,
          "time": 62.35315200000001,
          "velocity": 1
        },
        {
          "duration": 0.1949949999999987,
          "durationTicks": 96,
          "midi": 52,
          "name": "E3",
          "ticks": 30912,
          "time": 62.54814700000001,
          "velocity": 1
        },
        {
          "duration": 0.1949949999999987,
          "durationTicks": 96,
          "midi": 59,
          "name": "B3",
          "ticks": 30912,
          "time": 62.54814700000001,
          "velocity": 1
        },
        {
          "duration": 0.1949949999999987,
          "durationTicks": 96,
          "midi": 52,
          "name": "E3",
          "ticks": 31008,
          "time": 62.743142000000006,
          "velocity": 1
        },
        {
          "duration": 0.1949949999999987,
          "durationTicks": 96,
          "midi": 59,
          "name": "B3",
          "ticks": 31008,
          "time": 62.743142000000006,
          "velocity": 1
        },
        {
          "duration": 0.1949949999999987,
          "durationTicks": 96,
          "midi": 52,
          "name": "E3",
          "ticks": 31104,
          "time": 62.938137000000005,
          "velocity": 1
        },
        {
          "duration": 0.1949949999999987,
          "durationTicks": 96,
          "midi": 59,
          "name": "B3",
          "ticks": 31104,
          "time": 62.938137000000005,
          "velocity": 1
        },
        {
          "duration": 0.1949949999999987,
          "durationTicks": 96,
          "midi": 52,
          "name": "E3",
          "ticks": 31200,
          "time": 63.133132,
          "velocity": 1
        },
        {
          "duration": 0.1949949999999987,
          "durationTicks": 96,
          "midi": 59,
          "name": "B3",
          "ticks": 31200,
          "time": 63.133132,
          "velocity": 1
        },
        {
          "duration": 0.1949950000000058,
          "durationTicks": 96,
          "midi": 52,
          "name": "E3",
          "ticks": 31296,
          "time": 63.328127,
          "velocity": 1
        },
        {
          "duration": 0.1949950000000058,
          "durationTicks": 96,
          "midi": 59,
          "name": "B3",
          "ticks": 31296,
          "time": 63.328127,
          "velocity": 1
        },
        {
          "duration": 0.1949949999999987,
          "durationTicks": 96,
          "midi": 52,
          "name": "E3",
          "ticks": 31392,
          "time": 63.52312200000001,
          "velocity": 1
        },
        {
          "duration": 0.1949949999999987,
          "durationTicks": 96,
          "midi": 59,
          "name": "B3",
          "ticks": 31392,
          "time": 63.52312200000001,
          "velocity": 1
        },
        {
          "duration": 0.1949949999999987,
          "durationTicks": 96,
          "midi": 52,
          "name": "E3",
          "ticks": 31488,
          "time": 63.71811700000001,
          "velocity": 1
        },
        {
          "duration": 0.1949949999999987,
          "durationTicks": 96,
          "midi": 59,
          "name": "B3",
          "ticks": 31488,
          "time": 63.71811700000001,
          "velocity": 1
        },
        {
          "duration": 0.1949949999999987,
          "durationTicks": 96,
          "midi": 52,
          "name": "E3",
          "ticks": 31584,
          "time": 63.913112000000005,
          "velocity": 1
        },
        {
          "duration": 0.1949949999999987,
          "durationTicks": 96,
          "midi": 59,
          "name": "B3",
          "ticks": 31584,
          "time": 63.913112000000005,
          "velocity": 1
        },
        {
          "duration": 0.1949950000000058,
          "durationTicks": 96,
          "midi": 52,
          "name": "E3",
          "ticks": 31680,
          "time": 64.108107,
          "velocity": 1
        },
        {
          "duration": 0.1949950000000058,
          "durationTicks": 96,
          "midi": 59,
          "name": "B3",
          "ticks": 31680,
          "time": 64.108107,
          "velocity": 1
        },
        {
          "duration": 0.1949949999999916,
          "durationTicks": 96,
          "midi": 52,
          "name": "E3",
          "ticks": 31776,
          "time": 64.30310200000001,
          "velocity": 1
        },
        {
          "duration": 0.1949949999999916,
          "durationTicks": 96,
          "midi": 59,
          "name": "B3",
          "ticks": 31776,
          "time": 64.30310200000001,
          "velocity": 1
        },
        {
          "duration": 0.1949950000000058,
          "durationTicks": 96,
          "midi": 52,
          "name": "E3",
          "ticks": 31872,
          "time": 64.498097,
          "velocity": 1
        },
        {
          "duration": 0.1949950000000058,
          "durationTicks": 96,
          "midi": 59,
          "name": "B3",
          "ticks": 31872,
          "time": 64.498097,
          "velocity": 1
        },
        {
          "duration": 0.1949949999999916,
          "durationTicks": 96,
          "midi": 52,
          "name": "E3",
          "ticks": 31968,
          "time": 64.69309200000001,
          "velocity": 1
        },
        {
          "duration": 0.1949949999999916,
          "durationTicks": 96,
          "midi": 59,
          "name": "B3",
          "ticks": 31968,
          "time": 64.69309200000001,
          "velocity": 1
        },
        {
          "duration": 0.1949950000000058,
          "durationTicks": 96,
          "midi": 50,
          "name": "D3",
          "ticks": 32064,
          "time": 64.888087,
          "velocity": 1
        },
        {
          "duration": 0.1949950000000058,
          "durationTicks": 96,
          "midi": 57,
          "name": "A3",
          "ticks": 32064,
          "time": 64.888087,
          "velocity": 1
        },
        {
          "duration": 0.1949950000000058,
          "durationTicks": 96,
          "midi": 50,
          "name": "D3",
          "ticks": 32160,
          "time": 65.083082,
          "velocity": 1
        },
        {
          "duration": 0.1949950000000058,
          "durationTicks": 96,
          "midi": 57,
          "name": "A3",
          "ticks": 32160,
          "time": 65.083082,
          "velocity": 1
        },
        {
          "duration": 0.1949949999999916,
          "durationTicks": 96,
          "midi": 50,
          "name": "D3",
          "ticks": 32256,
          "time": 65.27807700000001,
          "velocity": 1
        },
        {
          "duration": 0.1949949999999916,
          "durationTicks": 96,
          "midi": 57,
          "name": "A3",
          "ticks": 32256,
          "time": 65.27807700000001,
          "velocity": 1
        },
        {
          "duration": 0.1949950000000058,
          "durationTicks": 96,
          "midi": 50,
          "name": "D3",
          "ticks": 32352,
          "time": 65.473072,
          "velocity": 1
        },
        {
          "duration": 0.1949950000000058,
          "durationTicks": 96,
          "midi": 57,
          "name": "A3",
          "ticks": 32352,
          "time": 65.473072,
          "velocity": 1
        },
        {
          "duration": 0.1949949999999916,
          "durationTicks": 96,
          "midi": 50,
          "name": "D3",
          "ticks": 32448,
          "time": 65.66806700000001,
          "velocity": 1
        },
        {
          "duration": 0.1949949999999916,
          "durationTicks": 96,
          "midi": 57,
          "name": "A3",
          "ticks": 32448,
          "time": 65.66806700000001,
          "velocity": 1
        },
        {
          "duration": 0.1949950000000058,
          "durationTicks": 96,
          "midi": 50,
          "name": "D3",
          "ticks": 32544,
          "time": 65.863062,
          "velocity": 1
        },
        {
          "duration": 0.1949950000000058,
          "durationTicks": 96,
          "midi": 57,
          "name": "A3",
          "ticks": 32544,
          "time": 65.863062,
          "velocity": 1
        },
        {
          "duration": 0.1949950000000058,
          "durationTicks": 96,
          "midi": 50,
          "name": "D3",
          "ticks": 32640,
          "time": 66.058057,
          "velocity": 1
        },
        {
          "duration": 0.1949950000000058,
          "durationTicks": 96,
          "midi": 57,
          "name": "A3",
          "ticks": 32640,
          "time": 66.058057,
          "velocity": 1
        },
        {
          "duration": 0.1949949999999916,
          "durationTicks": 96,
          "midi": 50,
          "name": "D3",
          "ticks": 32736,
          "time": 66.25305200000001,
          "velocity": 1
        },
        {
          "duration": 0.1949949999999916,
          "durationTicks": 96,
          "midi": 57,
          "name": "A3",
          "ticks": 32736,
          "time": 66.25305200000001,
          "velocity": 1
        },
        {
          "duration": 0.1949950000000058,
          "durationTicks": 96,
          "midi": 43,
          "name": "G2",
          "ticks": 32832,
          "time": 66.448047,
          "velocity": 1
        },
        {
          "duration": 0.1949950000000058,
          "durationTicks": 96,
          "midi": 50,
          "name": "D3",
          "ticks": 32832,
          "time": 66.448047,
          "velocity": 1
        },
        {
          "duration": 0.4874875000000003,
          "durationTicks": 240,
          "midi": 38,
          "name": "D2",
          "ticks": 32928,
          "time": 66.64304200000001,
          "velocity": 1
        },
        {
          "duration": 0.4874875000000003,
          "durationTicks": 240,
          "midi": 45,
          "name": "A2",
          "ticks": 32928,
          "time": 66.64304200000001,
          "velocity": 1
        },
        {
          "duration": 0.3899899999999974,
          "durationTicks": 192,
          "midi": 40,
          "name": "E2",
          "ticks": 33168,
          "time": 67.13052950000001,
          "velocity": 1
        },
        {
          "duration": 0.3899899999999974,
          "durationTicks": 192,
          "midi": 47,
          "name": "B2",
          "ticks": 33168,
          "time": 67.13052950000001,
          "velocity": 1
        },
        {
          "duration": 0.3899899999999974,
          "durationTicks": 192,
          "midi": 55,
          "name": "G3",
          "ticks": 33360,
          "time": 67.5205195,
          "velocity": 1
        },
        {
          "duration": 0.3899899999999974,
          "durationTicks": 192,
          "midi": 62,
          "name": "D4",
          "ticks": 33360,
          "time": 67.5205195,
          "velocity": 1
        },
        {
          "duration": 0.1949950000000058,
          "durationTicks": 96,
          "midi": 52,
          "name": "E3",
          "ticks": 33552,
          "time": 67.9105095,
          "velocity": 1
        },
        {
          "duration": 0.1949950000000058,
          "durationTicks": 96,
          "midi": 59,
          "name": "B3",
          "ticks": 33552,
          "time": 67.9105095,
          "velocity": 1
        },
        {
          "duration": 0.1949949999999916,
          "durationTicks": 96,
          "midi": 52,
          "name": "E3",
          "ticks": 33648,
          "time": 68.10550450000001,
          "velocity": 1
        },
        {
          "duration": 0.1949949999999916,
          "durationTicks": 96,
          "midi": 59,
          "name": "B3",
          "ticks": 33648,
          "time": 68.10550450000001,
          "velocity": 1
        },
        {
          "duration": 0.1949950000000058,
          "durationTicks": 96,
          "midi": 52,
          "name": "E3",
          "ticks": 33744,
          "time": 68.3004995,
          "velocity": 1
        },
        {
          "duration": 0.1949950000000058,
          "durationTicks": 96,
          "midi": 59,
          "name": "B3",
          "ticks": 33744,
          "time": 68.3004995,
          "velocity": 1
        },
        {
          "duration": 0.1949949999999916,
          "durationTicks": 96,
          "midi": 52,
          "name": "E3",
          "ticks": 33840,
          "time": 68.4954945,
          "velocity": 1
        },
        {
          "duration": 0.1949949999999916,
          "durationTicks": 96,
          "midi": 59,
          "name": "B3",
          "ticks": 33840,
          "time": 68.4954945,
          "velocity": 1
        },
        {
          "duration": 0.1949950000000058,
          "durationTicks": 96,
          "midi": 52,
          "name": "E3",
          "ticks": 33936,
          "time": 68.6904895,
          "velocity": 1
        },
        {
          "duration": 0.1949950000000058,
          "durationTicks": 96,
          "midi": 59,
          "name": "B3",
          "ticks": 33936,
          "time": 68.6904895,
          "velocity": 1
        },
        {
          "duration": 0.1949950000000058,
          "durationTicks": 96,
          "midi": 52,
          "name": "E3",
          "ticks": 34032,
          "time": 68.8854845,
          "velocity": 1
        },
        {
          "duration": 0.1949950000000058,
          "durationTicks": 96,
          "midi": 59,
          "name": "B3",
          "ticks": 34032,
          "time": 68.8854845,
          "velocity": 1
        },
        {
          "duration": 0.1949949999999916,
          "durationTicks": 96,
          "midi": 52,
          "name": "E3",
          "ticks": 34128,
          "time": 69.08047950000001,
          "velocity": 1
        },
        {
          "duration": 0.1949949999999916,
          "durationTicks": 96,
          "midi": 59,
          "name": "B3",
          "ticks": 34128,
          "time": 69.08047950000001,
          "velocity": 1
        },
        {
          "duration": 0.1949950000000058,
          "durationTicks": 96,
          "midi": 52,
          "name": "E3",
          "ticks": 34224,
          "time": 69.2754745,
          "velocity": 1
        },
        {
          "duration": 0.1949950000000058,
          "durationTicks": 96,
          "midi": 59,
          "name": "B3",
          "ticks": 34224,
          "time": 69.2754745,
          "velocity": 1
        },
        {
          "duration": 0.1949949999999916,
          "durationTicks": 96,
          "midi": 52,
          "name": "E3",
          "ticks": 34320,
          "time": 69.47046950000001,
          "velocity": 1
        },
        {
          "duration": 0.1949949999999916,
          "durationTicks": 96,
          "midi": 59,
          "name": "B3",
          "ticks": 34320,
          "time": 69.47046950000001,
          "velocity": 1
        },
        {
          "duration": 0.1949950000000058,
          "durationTicks": 96,
          "midi": 52,
          "name": "E3",
          "ticks": 34416,
          "time": 69.6654645,
          "velocity": 1
        },
        {
          "duration": 0.1949950000000058,
          "durationTicks": 96,
          "midi": 59,
          "name": "B3",
          "ticks": 34416,
          "time": 69.6654645,
          "velocity": 1
        },
        {
          "duration": 0.1949949999999916,
          "durationTicks": 96,
          "midi": 52,
          "name": "E3",
          "ticks": 34512,
          "time": 69.8604595,
          "velocity": 1
        },
        {
          "duration": 0.1949949999999916,
          "durationTicks": 96,
          "midi": 59,
          "name": "B3",
          "ticks": 34512,
          "time": 69.8604595,
          "velocity": 1
        },
        {
          "duration": 0.1949950000000058,
          "durationTicks": 96,
          "midi": 52,
          "name": "E3",
          "ticks": 34608,
          "time": 70.0554545,
          "velocity": 1
        },
        {
          "duration": 0.1949950000000058,
          "durationTicks": 96,
          "midi": 59,
          "name": "B3",
          "ticks": 34608,
          "time": 70.0554545,
          "velocity": 1
        },
        {
          "duration": 0.1949950000000058,
          "durationTicks": 96,
          "midi": 52,
          "name": "E3",
          "ticks": 34704,
          "time": 70.2504495,
          "velocity": 1
        },
        {
          "duration": 0.1949950000000058,
          "durationTicks": 96,
          "midi": 59,
          "name": "B3",
          "ticks": 34704,
          "time": 70.2504495,
          "velocity": 1
        },
        {
          "duration": 0.1949949999999916,
          "durationTicks": 96,
          "midi": 52,
          "name": "E3",
          "ticks": 34800,
          "time": 70.44544450000001,
          "velocity": 1
        },
        {
          "duration": 0.1949949999999916,
          "durationTicks": 96,
          "midi": 59,
          "name": "B3",
          "ticks": 34800,
          "time": 70.44544450000001,
          "velocity": 1
        },
        {
          "duration": 0.1949950000000058,
          "durationTicks": 96,
          "midi": 52,
          "name": "E3",
          "ticks": 34896,
          "time": 70.6404395,
          "velocity": 1
        },
        {
          "duration": 0.1949950000000058,
          "durationTicks": 96,
          "midi": 59,
          "name": "B3",
          "ticks": 34896,
          "time": 70.6404395,
          "velocity": 1
        },
        {
          "duration": 0.1949949999999916,
          "durationTicks": 96,
          "midi": 52,
          "name": "E3",
          "ticks": 34992,
          "time": 70.8354345,
          "velocity": 1
        },
        {
          "duration": 0.1949949999999916,
          "durationTicks": 96,
          "midi": 59,
          "name": "B3",
          "ticks": 34992,
          "time": 70.8354345,
          "velocity": 1
        },
        {
          "duration": 0.1949950000000058,
          "durationTicks": 96,
          "midi": 50,
          "name": "D3",
          "ticks": 35088,
          "time": 71.0304295,
          "velocity": 1
        },
        {
          "duration": 0.1949950000000058,
          "durationTicks": 96,
          "midi": 57,
          "name": "A3",
          "ticks": 35088,
          "time": 71.0304295,
          "velocity": 1
        },
        {
          "duration": 0.1949950000000058,
          "durationTicks": 96,
          "midi": 50,
          "name": "D3",
          "ticks": 35184,
          "time": 71.2254245,
          "velocity": 1
        },
        {
          "duration": 0.1949950000000058,
          "durationTicks": 96,
          "midi": 57,
          "name": "A3",
          "ticks": 35184,
          "time": 71.2254245,
          "velocity": 1
        },
        {
          "duration": 0.1949949999999916,
          "durationTicks": 96,
          "midi": 50,
          "name": "D3",
          "ticks": 35280,
          "time": 71.42041950000001,
          "velocity": 1
        },
        {
          "duration": 0.1949949999999916,
          "durationTicks": 96,
          "midi": 57,
          "name": "A3",
          "ticks": 35280,
          "time": 71.42041950000001,
          "velocity": 1
        },
        {
          "duration": 0.1949950000000058,
          "durationTicks": 96,
          "midi": 50,
          "name": "D3",
          "ticks": 35376,
          "time": 71.6154145,
          "velocity": 1
        },
        {
          "duration": 0.1949950000000058,
          "durationTicks": 96,
          "midi": 57,
          "name": "A3",
          "ticks": 35376,
          "time": 71.6154145,
          "velocity": 1
        },
        {
          "duration": 0.1949949999999916,
          "durationTicks": 96,
          "midi": 50,
          "name": "D3",
          "ticks": 35472,
          "time": 71.8104095,
          "velocity": 1
        },
        {
          "duration": 0.1949949999999916,
          "durationTicks": 96,
          "midi": 57,
          "name": "A3",
          "ticks": 35472,
          "time": 71.8104095,
          "velocity": 1
        },
        {
          "duration": 0.1949950000000058,
          "durationTicks": 96,
          "midi": 50,
          "name": "D3",
          "ticks": 35568,
          "time": 72.0054045,
          "velocity": 1
        },
        {
          "duration": 0.1949950000000058,
          "durationTicks": 96,
          "midi": 57,
          "name": "A3",
          "ticks": 35568,
          "time": 72.0054045,
          "velocity": 1
        },
        {
          "duration": 0.1949950000000058,
          "durationTicks": 96,
          "midi": 50,
          "name": "D3",
          "ticks": 35664,
          "time": 72.2003995,
          "velocity": 1
        },
        {
          "duration": 0.1949950000000058,
          "durationTicks": 96,
          "midi": 57,
          "name": "A3",
          "ticks": 35664,
          "time": 72.2003995,
          "velocity": 1
        },
        {
          "duration": 0.1949949999999916,
          "durationTicks": 96,
          "midi": 50,
          "name": "D3",
          "ticks": 35760,
          "time": 72.39539450000001,
          "velocity": 1
        },
        {
          "duration": 0.1949949999999916,
          "durationTicks": 96,
          "midi": 57,
          "name": "A3",
          "ticks": 35760,
          "time": 72.39539450000001,
          "velocity": 1
        },
        {
          "duration": 0.1949950000000058,
          "durationTicks": 96,
          "midi": 43,
          "name": "G2",
          "ticks": 35856,
          "time": 72.5903895,
          "velocity": 1
        },
        {
          "duration": 0.1949950000000058,
          "durationTicks": 96,
          "midi": 50,
          "name": "D3",
          "ticks": 35856,
          "time": 72.5903895,
          "velocity": 1
        },
        {
          "duration": 0.4874875000000003,
          "durationTicks": 240,
          "midi": 38,
          "name": "D2",
          "ticks": 35952,
          "time": 72.7853845,
          "velocity": 1
        },
        {
          "duration": 0.4874875000000003,
          "durationTicks": 240,
          "midi": 45,
          "name": "A2",
          "ticks": 35952,
          "time": 72.7853845,
          "velocity": 1
        },
        {
          "duration": 0.3899899999999974,
          "durationTicks": 192,
          "midi": 40,
          "name": "E2",
          "ticks": 36192,
          "time": 73.272872,
          "velocity": 1
        },
        {
          "duration": 0.3899899999999974,
          "durationTicks": 192,
          "midi": 47,
          "name": "B2",
          "ticks": 36192,
          "time": 73.272872,
          "velocity": 1
        },
        {
          "duration": 0.3899899999999974,
          "durationTicks": 192,
          "midi": 55,
          "name": "G3",
          "ticks": 36384,
          "time": 73.662862,
          "velocity": 1
        },
        {
          "duration": 0.3899899999999974,
          "durationTicks": 192,
          "midi": 62,
          "name": "D4",
          "ticks": 36384,
          "time": 73.662862,
          "velocity": 1
        },
        {
          "duration": 0.1949950000000058,
          "durationTicks": 96,
          "midi": 52,
          "name": "E3",
          "ticks": 36576,
          "time": 74.052852,
          "velocity": 1
        },
        {
          "duration": 0.1949950000000058,
          "durationTicks": 96,
          "midi": 59,
          "name": "B3",
          "ticks": 36576,
          "time": 74.052852,
          "velocity": 1
        },
        {
          "duration": 0.1949949999999916,
          "durationTicks": 96,
          "midi": 52,
          "name": "E3",
          "ticks": 36672,
          "time": 74.24784700000001,
          "velocity": 1
        },
        {
          "duration": 0.1949949999999916,
          "durationTicks": 96,
          "midi": 59,
          "name": "B3",
          "ticks": 36672,
          "time": 74.24784700000001,
          "velocity": 1
        },
        {
          "duration": 0.1949950000000058,
          "durationTicks": 96,
          "midi": 52,
          "name": "E3",
          "ticks": 36768,
          "time": 74.442842,
          "velocity": 1
        },
        {
          "duration": 0.1949950000000058,
          "durationTicks": 96,
          "midi": 59,
          "name": "B3",
          "ticks": 36768,
          "time": 74.442842,
          "velocity": 1
        },
        {
          "duration": 0.1949949999999916,
          "durationTicks": 96,
          "midi": 52,
          "name": "E3",
          "ticks": 36864,
          "time": 74.637837,
          "velocity": 1
        },
        {
          "duration": 0.1949949999999916,
          "durationTicks": 96,
          "midi": 59,
          "name": "B3",
          "ticks": 36864,
          "time": 74.637837,
          "velocity": 1
        },
        {
          "duration": 0.1949950000000058,
          "durationTicks": 96,
          "midi": 52,
          "name": "E3",
          "ticks": 36960,
          "time": 74.832832,
          "velocity": 1
        },
        {
          "duration": 0.1949950000000058,
          "durationTicks": 96,
          "midi": 59,
          "name": "B3",
          "ticks": 36960,
          "time": 74.832832,
          "velocity": 1
        },
        {
          "duration": 0.1949950000000058,
          "durationTicks": 96,
          "midi": 52,
          "name": "E3",
          "ticks": 37056,
          "time": 75.027827,
          "velocity": 1
        },
        {
          "duration": 0.1949950000000058,
          "durationTicks": 96,
          "midi": 59,
          "name": "B3",
          "ticks": 37056,
          "time": 75.027827,
          "velocity": 1
        },
        {
          "duration": 0.1949949999999916,
          "durationTicks": 96,
          "midi": 52,
          "name": "E3",
          "ticks": 37152,
          "time": 75.22282200000001,
          "velocity": 1
        },
        {
          "duration": 0.1949949999999916,
          "durationTicks": 96,
          "midi": 59,
          "name": "B3",
          "ticks": 37152,
          "time": 75.22282200000001,
          "velocity": 1
        },
        {
          "duration": 0.1949950000000058,
          "durationTicks": 96,
          "midi": 52,
          "name": "E3",
          "ticks": 37248,
          "time": 75.417817,
          "velocity": 1
        },
        {
          "duration": 0.1949950000000058,
          "durationTicks": 96,
          "midi": 59,
          "name": "B3",
          "ticks": 37248,
          "time": 75.417817,
          "velocity": 1
        },
        {
          "duration": 0.1949949999999916,
          "durationTicks": 96,
          "midi": 52,
          "name": "E3",
          "ticks": 37344,
          "time": 75.612812,
          "velocity": 1
        },
        {
          "duration": 0.1949949999999916,
          "durationTicks": 96,
          "midi": 59,
          "name": "B3",
          "ticks": 37344,
          "time": 75.612812,
          "velocity": 1
        },
        {
          "duration": 0.1949950000000058,
          "durationTicks": 96,
          "midi": 52,
          "name": "E3",
          "ticks": 37440,
          "time": 75.807807,
          "velocity": 1
        },
        {
          "duration": 0.1949950000000058,
          "durationTicks": 96,
          "midi": 59,
          "name": "B3",
          "ticks": 37440,
          "time": 75.807807,
          "velocity": 1
        },
        {
          "duration": 0.1949950000000058,
          "durationTicks": 96,
          "midi": 52,
          "name": "E3",
          "ticks": 37536,
          "time": 76.002802,
          "velocity": 1
        },
        {
          "duration": 0.1949950000000058,
          "durationTicks": 96,
          "midi": 59,
          "name": "B3",
          "ticks": 37536,
          "time": 76.002802,
          "velocity": 1
        },
        {
          "duration": 0.1949949999999916,
          "durationTicks": 96,
          "midi": 52,
          "name": "E3",
          "ticks": 37632,
          "time": 76.19779700000001,
          "velocity": 1
        },
        {
          "duration": 0.1949949999999916,
          "durationTicks": 96,
          "midi": 59,
          "name": "B3",
          "ticks": 37632,
          "time": 76.19779700000001,
          "velocity": 1
        },
        {
          "duration": 0.1949950000000058,
          "durationTicks": 96,
          "midi": 52,
          "name": "E3",
          "ticks": 37728,
          "time": 76.392792,
          "velocity": 1
        },
        {
          "duration": 0.1949950000000058,
          "durationTicks": 96,
          "midi": 59,
          "name": "B3",
          "ticks": 37728,
          "time": 76.392792,
          "velocity": 1
        },
        {
          "duration": 0.1949949999999916,
          "durationTicks": 96,
          "midi": 52,
          "name": "E3",
          "ticks": 37824,
          "time": 76.587787,
          "velocity": 1
        },
        {
          "duration": 0.1949949999999916,
          "durationTicks": 96,
          "midi": 59,
          "name": "B3",
          "ticks": 37824,
          "time": 76.587787,
          "velocity": 1
        },
        {
          "duration": 0.1949950000000058,
          "durationTicks": 96,
          "midi": 52,
          "name": "E3",
          "ticks": 37920,
          "time": 76.782782,
          "velocity": 1
        },
        {
          "duration": 0.1949950000000058,
          "durationTicks": 96,
          "midi": 59,
          "name": "B3",
          "ticks": 37920,
          "time": 76.782782,
          "velocity": 1
        },
        {
          "duration": 0.1949949999999916,
          "durationTicks": 96,
          "midi": 52,
          "name": "E3",
          "ticks": 38016,
          "time": 76.977777,
          "velocity": 1
        },
        {
          "duration": 0.1949949999999916,
          "durationTicks": 96,
          "midi": 59,
          "name": "B3",
          "ticks": 38016,
          "time": 76.977777,
          "velocity": 1
        },
        {
          "duration": 0.1949950000000058,
          "durationTicks": 96,
          "midi": 50,
          "name": "D3",
          "ticks": 38112,
          "time": 77.172772,
          "velocity": 1
        },
        {
          "duration": 0.1949950000000058,
          "durationTicks": 96,
          "midi": 57,
          "name": "A3",
          "ticks": 38112,
          "time": 77.172772,
          "velocity": 1
        },
        {
          "duration": 0.1949950000000058,
          "durationTicks": 96,
          "midi": 50,
          "name": "D3",
          "ticks": 38208,
          "time": 77.367767,
          "velocity": 1
        },
        {
          "duration": 0.1949950000000058,
          "durationTicks": 96,
          "midi": 57,
          "name": "A3",
          "ticks": 38208,
          "time": 77.367767,
          "velocity": 1
        },
        {
          "duration": 0.1949949999999916,
          "durationTicks": 96,
          "midi": 50,
          "name": "D3",
          "ticks": 38304,
          "time": 77.562762,
          "velocity": 1
        },
        {
          "duration": 0.1949949999999916,
          "durationTicks": 96,
          "midi": 57,
          "name": "A3",
          "ticks": 38304,
          "time": 77.562762,
          "velocity": 1
        },
        {
          "duration": 0.1949950000000058,
          "durationTicks": 96,
          "midi": 50,
          "name": "D3",
          "ticks": 38400,
          "time": 77.757757,
          "velocity": 1
        },
        {
          "duration": 0.1949950000000058,
          "durationTicks": 96,
          "midi": 57,
          "name": "A3",
          "ticks": 38400,
          "time": 77.757757,
          "velocity": 1
        },
        {
          "duration": 0.1949949999999916,
          "durationTicks": 96,
          "midi": 50,
          "name": "D3",
          "ticks": 38496,
          "time": 77.952752,
          "velocity": 1
        },
        {
          "duration": 0.1949949999999916,
          "durationTicks": 96,
          "midi": 57,
          "name": "A3",
          "ticks": 38496,
          "time": 77.952752,
          "velocity": 1
        },
        {
          "duration": 0.1949950000000058,
          "durationTicks": 96,
          "midi": 50,
          "name": "D3",
          "ticks": 38592,
          "time": 78.147747,
          "velocity": 1
        },
        {
          "duration": 0.1949950000000058,
          "durationTicks": 96,
          "midi": 57,
          "name": "A3",
          "ticks": 38592,
          "time": 78.147747,
          "velocity": 1
        },
        {
          "duration": 0.1949950000000058,
          "durationTicks": 96,
          "midi": 50,
          "name": "D3",
          "ticks": 38688,
          "time": 78.342742,
          "velocity": 1
        },
        {
          "duration": 0.1949950000000058,
          "durationTicks": 96,
          "midi": 57,
          "name": "A3",
          "ticks": 38688,
          "time": 78.342742,
          "velocity": 1
        },
        {
          "duration": 0.1949949999999916,
          "durationTicks": 96,
          "midi": 50,
          "name": "D3",
          "ticks": 38784,
          "time": 78.537737,
          "velocity": 1
        },
        {
          "duration": 0.1949949999999916,
          "durationTicks": 96,
          "midi": 57,
          "name": "A3",
          "ticks": 38784,
          "time": 78.537737,
          "velocity": 1
        },
        {
          "duration": 0.1949950000000058,
          "durationTicks": 96,
          "midi": 43,
          "name": "G2",
          "ticks": 38880,
          "time": 78.732732,
          "velocity": 1
        },
        {
          "duration": 0.1949950000000058,
          "durationTicks": 96,
          "midi": 50,
          "name": "D3",
          "ticks": 38880,
          "time": 78.732732,
          "velocity": 1
        },
        {
          "duration": 0.4874875000000003,
          "durationTicks": 240,
          "midi": 38,
          "name": "D2",
          "ticks": 38976,
          "time": 78.927727,
          "velocity": 1
        },
        {
          "duration": 0.4874875000000003,
          "durationTicks": 240,
          "midi": 45,
          "name": "A2",
          "ticks": 38976,
          "time": 78.927727,
          "velocity": 1
        },
        {
          "duration": 0.3899899999999974,
          "durationTicks": 192,
          "midi": 40,
          "name": "E2",
          "ticks": 39216,
          "time": 79.4152145,
          "velocity": 1
        },
        {
          "duration": 0.3899899999999974,
          "durationTicks": 192,
          "midi": 47,
          "name": "B2",
          "ticks": 39216,
          "time": 79.4152145,
          "velocity": 1
        },
        {
          "duration": 0.3899899999999974,
          "durationTicks": 192,
          "midi": 55,
          "name": "G3",
          "ticks": 39408,
          "time": 79.8052045,
          "velocity": 1
        },
        {
          "duration": 0.3899899999999974,
          "durationTicks": 192,
          "midi": 62,
          "name": "D4",
          "ticks": 39408,
          "time": 79.8052045,
          "velocity": 1
        },
        {
          "duration": 0.1949950000000058,
          "durationTicks": 96,
          "midi": 52,
          "name": "E3",
          "ticks": 39600,
          "time": 80.1951945,
          "velocity": 1
        },
        {
          "duration": 0.1949950000000058,
          "durationTicks": 96,
          "midi": 59,
          "name": "B3",
          "ticks": 39600,
          "time": 80.1951945,
          "velocity": 1
        },
        {
          "duration": 0.1949949999999916,
          "durationTicks": 96,
          "midi": 52,
          "name": "E3",
          "ticks": 39696,
          "time": 80.3901895,
          "velocity": 1
        },
        {
          "duration": 0.1949949999999916,
          "durationTicks": 96,
          "midi": 59,
          "name": "B3",
          "ticks": 39696,
          "time": 80.3901895,
          "velocity": 1
        },
        {
          "duration": 0.1949950000000058,
          "durationTicks": 96,
          "midi": 52,
          "name": "E3",
          "ticks": 39792,
          "time": 80.5851845,
          "velocity": 1
        },
        {
          "duration": 0.1949950000000058,
          "durationTicks": 96,
          "midi": 59,
          "name": "B3",
          "ticks": 39792,
          "time": 80.5851845,
          "velocity": 1
        },
        {
          "duration": 0.1949949999999916,
          "durationTicks": 96,
          "midi": 52,
          "name": "E3",
          "ticks": 39888,
          "time": 80.7801795,
          "velocity": 1
        },
        {
          "duration": 0.1949949999999916,
          "durationTicks": 96,
          "midi": 59,
          "name": "B3",
          "ticks": 39888,
          "time": 80.7801795,
          "velocity": 1
        },
        {
          "duration": 0.1949950000000058,
          "durationTicks": 96,
          "midi": 52,
          "name": "E3",
          "ticks": 39984,
          "time": 80.9751745,
          "velocity": 1
        },
        {
          "duration": 0.1949950000000058,
          "durationTicks": 96,
          "midi": 59,
          "name": "B3",
          "ticks": 39984,
          "time": 80.9751745,
          "velocity": 1
        },
        {
          "duration": 0.1949950000000058,
          "durationTicks": 96,
          "midi": 52,
          "name": "E3",
          "ticks": 40080,
          "time": 81.1701695,
          "velocity": 1
        },
        {
          "duration": 0.1949950000000058,
          "durationTicks": 96,
          "midi": 59,
          "name": "B3",
          "ticks": 40080,
          "time": 81.1701695,
          "velocity": 1
        },
        {
          "duration": 0.1949949999999916,
          "durationTicks": 96,
          "midi": 52,
          "name": "E3",
          "ticks": 40176,
          "time": 81.3651645,
          "velocity": 1
        },
        {
          "duration": 0.1949949999999916,
          "durationTicks": 96,
          "midi": 59,
          "name": "B3",
          "ticks": 40176,
          "time": 81.3651645,
          "velocity": 1
        },
        {
          "duration": 0.1949950000000058,
          "durationTicks": 96,
          "midi": 52,
          "name": "E3",
          "ticks": 40272,
          "time": 81.5601595,
          "velocity": 1
        },
        {
          "duration": 0.1949950000000058,
          "durationTicks": 96,
          "midi": 59,
          "name": "B3",
          "ticks": 40272,
          "time": 81.5601595,
          "velocity": 1
        },
        {
          "duration": 0.1949949999999916,
          "durationTicks": 96,
          "midi": 52,
          "name": "E3",
          "ticks": 40368,
          "time": 81.7551545,
          "velocity": 1
        },
        {
          "duration": 0.1949949999999916,
          "durationTicks": 96,
          "midi": 59,
          "name": "B3",
          "ticks": 40368,
          "time": 81.7551545,
          "velocity": 1
        },
        {
          "duration": 0.1949950000000058,
          "durationTicks": 96,
          "midi": 52,
          "name": "E3",
          "ticks": 40464,
          "time": 81.9501495,
          "velocity": 1
        },
        {
          "duration": 0.1949950000000058,
          "durationTicks": 96,
          "midi": 59,
          "name": "B3",
          "ticks": 40464,
          "time": 81.9501495,
          "velocity": 1
        },
        {
          "duration": 0.1949949999999916,
          "durationTicks": 96,
          "midi": 52,
          "name": "E3",
          "ticks": 40560,
          "time": 82.1451445,
          "velocity": 1
        },
        {
          "duration": 0.1949949999999916,
          "durationTicks": 96,
          "midi": 59,
          "name": "B3",
          "ticks": 40560,
          "time": 82.1451445,
          "velocity": 1
        },
        {
          "duration": 0.1949950000000058,
          "durationTicks": 96,
          "midi": 52,
          "name": "E3",
          "ticks": 40656,
          "time": 82.34013949999999,
          "velocity": 1
        },
        {
          "duration": 0.1949950000000058,
          "durationTicks": 96,
          "midi": 59,
          "name": "B3",
          "ticks": 40656,
          "time": 82.34013949999999,
          "velocity": 1
        },
        {
          "duration": 0.1949950000000058,
          "durationTicks": 96,
          "midi": 52,
          "name": "E3",
          "ticks": 40752,
          "time": 82.5351345,
          "velocity": 1
        },
        {
          "duration": 0.1949950000000058,
          "durationTicks": 96,
          "midi": 59,
          "name": "B3",
          "ticks": 40752,
          "time": 82.5351345,
          "velocity": 1
        },
        {
          "duration": 0.1949949999999916,
          "durationTicks": 96,
          "midi": 52,
          "name": "E3",
          "ticks": 40848,
          "time": 82.7301295,
          "velocity": 1
        },
        {
          "duration": 0.1949949999999916,
          "durationTicks": 96,
          "midi": 59,
          "name": "B3",
          "ticks": 40848,
          "time": 82.7301295,
          "velocity": 1
        },
        {
          "duration": 0.1949950000000058,
          "durationTicks": 96,
          "midi": 52,
          "name": "E3",
          "ticks": 40944,
          "time": 82.9251245,
          "velocity": 1
        },
        {
          "duration": 0.1949950000000058,
          "durationTicks": 96,
          "midi": 59,
          "name": "B3",
          "ticks": 40944,
          "time": 82.9251245,
          "velocity": 1
        },
        {
          "duration": 0.1949949999999916,
          "durationTicks": 96,
          "midi": 52,
          "name": "E3",
          "ticks": 41040,
          "time": 83.1201195,
          "velocity": 1
        },
        {
          "duration": 0.1949949999999916,
          "durationTicks": 96,
          "midi": 59,
          "name": "B3",
          "ticks": 41040,
          "time": 83.1201195,
          "velocity": 1
        },
        {
          "duration": 0.1949950000000058,
          "durationTicks": 96,
          "midi": 50,
          "name": "D3",
          "ticks": 41136,
          "time": 83.31511449999999,
          "velocity": 1
        },
        {
          "duration": 0.1949950000000058,
          "durationTicks": 96,
          "midi": 57,
          "name": "A3",
          "ticks": 41136,
          "time": 83.31511449999999,
          "velocity": 1
        },
        {
          "duration": 0.1949950000000058,
          "durationTicks": 96,
          "midi": 50,
          "name": "D3",
          "ticks": 41232,
          "time": 83.5101095,
          "velocity": 1
        },
        {
          "duration": 0.1949950000000058,
          "durationTicks": 96,
          "midi": 57,
          "name": "A3",
          "ticks": 41232,
          "time": 83.5101095,
          "velocity": 1
        },
        {
          "duration": 0.1949949999999916,
          "durationTicks": 96,
          "midi": 50,
          "name": "D3",
          "ticks": 41328,
          "time": 83.7051045,
          "velocity": 1
        },
        {
          "duration": 0.1949949999999916,
          "durationTicks": 96,
          "midi": 57,
          "name": "A3",
          "ticks": 41328,
          "time": 83.7051045,
          "velocity": 1
        },
        {
          "duration": 0.1949950000000058,
          "durationTicks": 96,
          "midi": 50,
          "name": "D3",
          "ticks": 41424,
          "time": 83.9000995,
          "velocity": 1
        },
        {
          "duration": 0.1949950000000058,
          "durationTicks": 96,
          "midi": 57,
          "name": "A3",
          "ticks": 41424,
          "time": 83.9000995,
          "velocity": 1
        },
        {
          "duration": 0.1949949999999916,
          "durationTicks": 96,
          "midi": 50,
          "name": "D3",
          "ticks": 41520,
          "time": 84.0950945,
          "velocity": 1
        },
        {
          "duration": 0.1949949999999916,
          "durationTicks": 96,
          "midi": 57,
          "name": "A3",
          "ticks": 41520,
          "time": 84.0950945,
          "velocity": 1
        },
        {
          "duration": 0.1949950000000058,
          "durationTicks": 96,
          "midi": 50,
          "name": "D3",
          "ticks": 41616,
          "time": 84.2900895,
          "velocity": 1
        },
        {
          "duration": 0.1949950000000058,
          "durationTicks": 96,
          "midi": 57,
          "name": "A3",
          "ticks": 41616,
          "time": 84.2900895,
          "velocity": 1
        },
        {
          "duration": 0.1949950000000058,
          "durationTicks": 96,
          "midi": 50,
          "name": "D3",
          "ticks": 41712,
          "time": 84.4850845,
          "velocity": 1
        },
        {
          "duration": 0.1949950000000058,
          "durationTicks": 96,
          "midi": 57,
          "name": "A3",
          "ticks": 41712,
          "time": 84.4850845,
          "velocity": 1
        },
        {
          "duration": 0.1949949999999916,
          "durationTicks": 96,
          "midi": 50,
          "name": "D3",
          "ticks": 41808,
          "time": 84.6800795,
          "velocity": 1
        },
        {
          "duration": 0.1949949999999916,
          "durationTicks": 96,
          "midi": 57,
          "name": "A3",
          "ticks": 41808,
          "time": 84.6800795,
          "velocity": 1
        },
        {
          "duration": 0.1949950000000058,
          "durationTicks": 96,
          "midi": 43,
          "name": "G2",
          "ticks": 41904,
          "time": 84.8750745,
          "velocity": 1
        },
        {
          "duration": 0.1949950000000058,
          "durationTicks": 96,
          "midi": 50,
          "name": "D3",
          "ticks": 41904,
          "time": 84.8750745,
          "velocity": 1
        },
        {
          "duration": 0.4874875000000003,
          "durationTicks": 240,
          "midi": 38,
          "name": "D2",
          "ticks": 42000,
          "time": 85.0700695,
          "velocity": 1
        },
        {
          "duration": 0.4874875000000003,
          "durationTicks": 240,
          "midi": 45,
          "name": "A2",
          "ticks": 42000,
          "time": 85.0700695,
          "velocity": 1
        },
        {
          "duration": 0.3899899999999974,
          "durationTicks": 192,
          "midi": 40,
          "name": "E2",
          "ticks": 42240,
          "time": 85.557557,
          "velocity": 1
        },
        {
          "duration": 0.3899899999999974,
          "durationTicks": 192,
          "midi": 47,
          "name": "B2",
          "ticks": 42240,
          "time": 85.557557,
          "velocity": 1
        },
        {
          "duration": 31.101702499999988,
          "durationTicks": 15312,
          "midi": 55,
          "name": "G3",
          "ticks": 42432,
          "time": 85.947547,
          "velocity": 1
        },
        {
          "duration": 31.101702499999988,
          "durationTicks": 15312,
          "midi": 62,
          "name": "D4",
          "ticks": 42432,
          "time": 85.947547,
          "velocity": 1
        },
        {
          "duration": 0.1949950000000058,
          "durationTicks": 96,
          "midi": 52,
          "name": "E3",
          "ticks": 57744,
          "time": 117.04924949999999,
          "velocity": 1
        },
        {
          "duration": 0.1949950000000058,
          "durationTicks": 96,
          "midi": 59,
          "name": "B3",
          "ticks": 57744,
          "time": 117.04924949999999,
          "velocity": 1
        },
        {
          "duration": 0.1949949999999916,
          "durationTicks": 96,
          "midi": 52,
          "name": "E3",
          "ticks": 57840,
          "time": 117.2442445,
          "velocity": 1
        },
        {
          "duration": 0.1949949999999916,
          "durationTicks": 96,
          "midi": 59,
          "name": "B3",
          "ticks": 57840,
          "time": 117.2442445,
          "velocity": 1
        },
        {
          "duration": 0.1949950000000058,
          "durationTicks": 96,
          "midi": 52,
          "name": "E3",
          "ticks": 57936,
          "time": 117.43923949999999,
          "velocity": 1
        },
        {
          "duration": 0.1949950000000058,
          "durationTicks": 96,
          "midi": 59,
          "name": "B3",
          "ticks": 57936,
          "time": 117.43923949999999,
          "velocity": 1
        },
        {
          "duration": 0.1949949999999916,
          "durationTicks": 96,
          "midi": 52,
          "name": "E3",
          "ticks": 58032,
          "time": 117.63423449999999,
          "velocity": 1
        },
        {
          "duration": 0.1949949999999916,
          "durationTicks": 96,
          "midi": 59,
          "name": "B3",
          "ticks": 58032,
          "time": 117.63423449999999,
          "velocity": 1
        },
        {
          "duration": 0.1949950000000058,
          "durationTicks": 96,
          "midi": 52,
          "name": "E3",
          "ticks": 58128,
          "time": 117.82922949999998,
          "velocity": 1
        },
        {
          "duration": 0.1949950000000058,
          "durationTicks": 96,
          "midi": 59,
          "name": "B3",
          "ticks": 58128,
          "time": 117.82922949999998,
          "velocity": 1
        },
        {
          "duration": 0.1949950000000058,
          "durationTicks": 96,
          "midi": 52,
          "name": "E3",
          "ticks": 58224,
          "time": 118.02422449999999,
          "velocity": 1
        },
        {
          "duration": 0.1949950000000058,
          "durationTicks": 96,
          "midi": 59,
          "name": "B3",
          "ticks": 58224,
          "time": 118.02422449999999,
          "velocity": 1
        },
        {
          "duration": 0.1949949999999916,
          "durationTicks": 96,
          "midi": 52,
          "name": "E3",
          "ticks": 58320,
          "time": 118.2192195,
          "velocity": 1
        },
        {
          "duration": 0.1949949999999916,
          "durationTicks": 96,
          "midi": 59,
          "name": "B3",
          "ticks": 58320,
          "time": 118.2192195,
          "velocity": 1
        },
        {
          "duration": 0.1949950000000058,
          "durationTicks": 96,
          "midi": 52,
          "name": "E3",
          "ticks": 58416,
          "time": 118.41421449999999,
          "velocity": 1
        },
        {
          "duration": 0.1949950000000058,
          "durationTicks": 96,
          "midi": 59,
          "name": "B3",
          "ticks": 58416,
          "time": 118.41421449999999,
          "velocity": 1
        },
        {
          "duration": 0.1949949999999916,
          "durationTicks": 96,
          "midi": 52,
          "name": "E3",
          "ticks": 58512,
          "time": 118.60920949999999,
          "velocity": 1
        },
        {
          "duration": 0.1949949999999916,
          "durationTicks": 96,
          "midi": 59,
          "name": "B3",
          "ticks": 58512,
          "time": 118.60920949999999,
          "velocity": 1
        },
        {
          "duration": 0.1949950000000058,
          "durationTicks": 96,
          "midi": 52,
          "name": "E3",
          "ticks": 58608,
          "time": 118.80420449999998,
          "velocity": 1
        },
        {
          "duration": 0.1949950000000058,
          "durationTicks": 96,
          "midi": 59,
          "name": "B3",
          "ticks": 58608,
          "time": 118.80420449999998,
          "velocity": 1
        },
        {
          "duration": 0.1949949999999916,
          "durationTicks": 96,
          "midi": 52,
          "name": "E3",
          "ticks": 58704,
          "time": 118.99919949999999,
          "velocity": 1
        },
        {
          "duration": 0.1949949999999916,
          "durationTicks": 96,
          "midi": 59,
          "name": "B3",
          "ticks": 58704,
          "time": 118.99919949999999,
          "velocity": 1
        },
        {
          "duration": 0.1949950000000058,
          "durationTicks": 96,
          "midi": 52,
          "name": "E3",
          "ticks": 58800,
          "time": 119.19419449999998,
          "velocity": 1
        },
        {
          "duration": 0.1949950000000058,
          "durationTicks": 96,
          "midi": 59,
          "name": "B3",
          "ticks": 58800,
          "time": 119.19419449999998,
          "velocity": 1
        },
        {
          "duration": 0.1949950000000058,
          "durationTicks": 96,
          "midi": 52,
          "name": "E3",
          "ticks": 58896,
          "time": 119.38918949999999,
          "velocity": 1
        },
        {
          "duration": 0.1949950000000058,
          "durationTicks": 96,
          "midi": 59,
          "name": "B3",
          "ticks": 58896,
          "time": 119.38918949999999,
          "velocity": 1
        },
        {
          "duration": 0.1949949999999916,
          "durationTicks": 96,
          "midi": 52,
          "name": "E3",
          "ticks": 58992,
          "time": 119.58418449999999,
          "velocity": 1
        },
        {
          "duration": 0.1949949999999916,
          "durationTicks": 96,
          "midi": 59,
          "name": "B3",
          "ticks": 58992,
          "time": 119.58418449999999,
          "velocity": 1
        },
        {
          "duration": 0.1949950000000058,
          "durationTicks": 96,
          "midi": 52,
          "name": "E3",
          "ticks": 59088,
          "time": 119.77917949999998,
          "velocity": 1
        },
        {
          "duration": 0.1949950000000058,
          "durationTicks": 96,
          "midi": 59,
          "name": "B3",
          "ticks": 59088,
          "time": 119.77917949999998,
          "velocity": 1
        },
        {
          "duration": 0.1949949999999916,
          "durationTicks": 96,
          "midi": 52,
          "name": "E3",
          "ticks": 59184,
          "time": 119.97417449999999,
          "velocity": 1
        },
        {
          "duration": 0.1949949999999916,
          "durationTicks": 96,
          "midi": 59,
          "name": "B3",
          "ticks": 59184,
          "time": 119.97417449999999,
          "velocity": 1
        },
        {
          "duration": 0.1949950000000058,
          "durationTicks": 96,
          "midi": 50,
          "name": "D3",
          "ticks": 59280,
          "time": 120.16916949999998,
          "velocity": 1
        },
        {
          "duration": 0.1949950000000058,
          "durationTicks": 96,
          "midi": 57,
          "name": "A3",
          "ticks": 59280,
          "time": 120.16916949999998,
          "velocity": 1
        },
        {
          "duration": 0.1949950000000058,
          "durationTicks": 96,
          "midi": 50,
          "name": "D3",
          "ticks": 59376,
          "time": 120.36416449999999,
          "velocity": 1
        },
        {
          "duration": 0.1949950000000058,
          "durationTicks": 96,
          "midi": 57,
          "name": "A3",
          "ticks": 59376,
          "time": 120.36416449999999,
          "velocity": 1
        },
        {
          "duration": 0.1949949999999916,
          "durationTicks": 96,
          "midi": 50,
          "name": "D3",
          "ticks": 59472,
          "time": 120.55915949999999,
          "velocity": 1
        },
        {
          "duration": 0.1949949999999916,
          "durationTicks": 96,
          "midi": 57,
          "name": "A3",
          "ticks": 59472,
          "time": 120.55915949999999,
          "velocity": 1
        },
        {
          "duration": 0.1949950000000058,
          "durationTicks": 96,
          "midi": 50,
          "name": "D3",
          "ticks": 59568,
          "time": 120.75415449999998,
          "velocity": 1
        },
        {
          "duration": 0.1949950000000058,
          "durationTicks": 96,
          "midi": 57,
          "name": "A3",
          "ticks": 59568,
          "time": 120.75415449999998,
          "velocity": 1
        },
        {
          "duration": 0.1949949999999916,
          "durationTicks": 96,
          "midi": 50,
          "name": "D3",
          "ticks": 59664,
          "time": 120.94914949999999,
          "velocity": 1
        },
        {
          "duration": 0.1949949999999916,
          "durationTicks": 96,
          "midi": 57,
          "name": "A3",
          "ticks": 59664,
          "time": 120.94914949999999,
          "velocity": 1
        },
        {
          "duration": 0.1949950000000058,
          "durationTicks": 96,
          "midi": 50,
          "name": "D3",
          "ticks": 59760,
          "time": 121.14414449999998,
          "velocity": 1
        },
        {
          "duration": 0.1949950000000058,
          "durationTicks": 96,
          "midi": 57,
          "name": "A3",
          "ticks": 59760,
          "time": 121.14414449999998,
          "velocity": 1
        },
        {
          "duration": 0.1949950000000058,
          "durationTicks": 96,
          "midi": 50,
          "name": "D3",
          "ticks": 59856,
          "time": 121.33913949999999,
          "velocity": 1
        },
        {
          "duration": 0.1949950000000058,
          "durationTicks": 96,
          "midi": 57,
          "name": "A3",
          "ticks": 59856,
          "time": 121.33913949999999,
          "velocity": 1
        },
        {
          "duration": 0.1949949999999916,
          "durationTicks": 96,
          "midi": 50,
          "name": "D3",
          "ticks": 59952,
          "time": 121.5341345,
          "velocity": 1
        },
        {
          "duration": 0.1949949999999916,
          "durationTicks": 96,
          "midi": 57,
          "name": "A3",
          "ticks": 59952,
          "time": 121.5341345,
          "velocity": 1
        },
        {
          "duration": 0.1949950000000058,
          "durationTicks": 96,
          "midi": 43,
          "name": "G2",
          "ticks": 60048,
          "time": 121.72912949999998,
          "velocity": 1
        },
        {
          "duration": 0.1949950000000058,
          "durationTicks": 96,
          "midi": 50,
          "name": "D3",
          "ticks": 60048,
          "time": 121.72912949999998,
          "velocity": 1
        },
        {
          "duration": 0.4874875000000003,
          "durationTicks": 240,
          "midi": 38,
          "name": "D2",
          "ticks": 60144,
          "time": 121.92412449999999,
          "velocity": 1
        },
        {
          "duration": 0.4874875000000003,
          "durationTicks": 240,
          "midi": 45,
          "name": "A2",
          "ticks": 60144,
          "time": 121.92412449999999,
          "velocity": 1
        },
        {
          "duration": 0.3899899999999974,
          "durationTicks": 192,
          "midi": 40,
          "name": "E2",
          "ticks": 60384,
          "time": 122.41161199999999,
          "velocity": 1
        },
        {
          "duration": 0.3899899999999974,
          "durationTicks": 192,
          "midi": 47,
          "name": "B2",
          "ticks": 60384,
          "time": 122.41161199999999,
          "velocity": 1
        },
        {
          "duration": 0.3899899999999974,
          "durationTicks": 192,
          "midi": 55,
          "name": "G3",
          "ticks": 60576,
          "time": 122.80160199999999,
          "velocity": 1
        },
        {
          "duration": 0.3899899999999974,
          "durationTicks": 192,
          "midi": 62,
          "name": "D4",
          "ticks": 60576,
          "time": 122.80160199999999,
          "velocity": 1
        },
        {
          "duration": 0.1949950000000058,
          "durationTicks": 96,
          "midi": 52,
          "name": "E3",
          "ticks": 60768,
          "time": 123.19159199999999,
          "velocity": 1
        },
        {
          "duration": 0.1949950000000058,
          "durationTicks": 96,
          "midi": 59,
          "name": "B3",
          "ticks": 60768,
          "time": 123.19159199999999,
          "velocity": 1
        },
        {
          "duration": 0.1949949999999916,
          "durationTicks": 96,
          "midi": 52,
          "name": "E3",
          "ticks": 60864,
          "time": 123.38658699999999,
          "velocity": 1
        },
        {
          "duration": 0.1949949999999916,
          "durationTicks": 96,
          "midi": 59,
          "name": "B3",
          "ticks": 60864,
          "time": 123.38658699999999,
          "velocity": 1
        },
        {
          "duration": 0.1949950000000058,
          "durationTicks": 96,
          "midi": 52,
          "name": "E3",
          "ticks": 60960,
          "time": 123.58158199999998,
          "velocity": 1
        },
        {
          "duration": 0.1949950000000058,
          "durationTicks": 96,
          "midi": 59,
          "name": "B3",
          "ticks": 60960,
          "time": 123.58158199999998,
          "velocity": 1
        },
        {
          "duration": 0.1949949999999916,
          "durationTicks": 96,
          "midi": 52,
          "name": "E3",
          "ticks": 61056,
          "time": 123.77657699999999,
          "velocity": 1
        },
        {
          "duration": 0.1949949999999916,
          "durationTicks": 96,
          "midi": 59,
          "name": "B3",
          "ticks": 61056,
          "time": 123.77657699999999,
          "velocity": 1
        },
        {
          "duration": 0.1949950000000058,
          "durationTicks": 96,
          "midi": 52,
          "name": "E3",
          "ticks": 61152,
          "time": 123.97157199999998,
          "velocity": 1
        },
        {
          "duration": 0.1949950000000058,
          "durationTicks": 96,
          "midi": 59,
          "name": "B3",
          "ticks": 61152,
          "time": 123.97157199999998,
          "velocity": 1
        },
        {
          "duration": 0.1949950000000058,
          "durationTicks": 96,
          "midi": 52,
          "name": "E3",
          "ticks": 61248,
          "time": 124.16656699999999,
          "velocity": 1
        },
        {
          "duration": 0.1949950000000058,
          "durationTicks": 96,
          "midi": 59,
          "name": "B3",
          "ticks": 61248,
          "time": 124.16656699999999,
          "velocity": 1
        },
        {
          "duration": 0.1949949999999916,
          "durationTicks": 96,
          "midi": 52,
          "name": "E3",
          "ticks": 61344,
          "time": 124.36156199999999,
          "velocity": 1
        },
        {
          "duration": 0.1949949999999916,
          "durationTicks": 96,
          "midi": 59,
          "name": "B3",
          "ticks": 61344,
          "time": 124.36156199999999,
          "velocity": 1
        },
        {
          "duration": 0.1949950000000058,
          "durationTicks": 96,
          "midi": 52,
          "name": "E3",
          "ticks": 61440,
          "time": 124.55655699999998,
          "velocity": 1
        },
        {
          "duration": 0.1949950000000058,
          "durationTicks": 96,
          "midi": 59,
          "name": "B3",
          "ticks": 61440,
          "time": 124.55655699999998,
          "velocity": 1
        },
        {
          "duration": 0.1949949999999916,
          "durationTicks": 96,
          "midi": 52,
          "name": "E3",
          "ticks": 61536,
          "time": 124.75155199999999,
          "velocity": 1
        },
        {
          "duration": 0.1949949999999916,
          "durationTicks": 96,
          "midi": 59,
          "name": "B3",
          "ticks": 61536,
          "time": 124.75155199999999,
          "velocity": 1
        },
        {
          "duration": 0.1949950000000058,
          "durationTicks": 96,
          "midi": 52,
          "name": "E3",
          "ticks": 61632,
          "time": 124.94654699999998,
          "velocity": 1
        },
        {
          "duration": 0.1949950000000058,
          "durationTicks": 96,
          "midi": 59,
          "name": "B3",
          "ticks": 61632,
          "time": 124.94654699999998,
          "velocity": 1
        },
        {
          "duration": 0.1949950000000058,
          "durationTicks": 96,
          "midi": 52,
          "name": "E3",
          "ticks": 61728,
          "time": 125.14154199999999,
          "velocity": 1
        },
        {
          "duration": 0.1949950000000058,
          "durationTicks": 96,
          "midi": 59,
          "name": "B3",
          "ticks": 61728,
          "time": 125.14154199999999,
          "velocity": 1
        },
        {
          "duration": 0.1949949999999916,
          "durationTicks": 96,
          "midi": 52,
          "name": "E3",
          "ticks": 61824,
          "time": 125.33653699999999,
          "velocity": 1
        },
        {
          "duration": 0.1949949999999916,
          "durationTicks": 96,
          "midi": 59,
          "name": "B3",
          "ticks": 61824,
          "time": 125.33653699999999,
          "velocity": 1
        },
        {
          "duration": 0.1949950000000058,
          "durationTicks": 96,
          "midi": 52,
          "name": "E3",
          "ticks": 61920,
          "time": 125.53153199999998,
          "velocity": 1
        },
        {
          "duration": 0.1949950000000058,
          "durationTicks": 96,
          "midi": 59,
          "name": "B3",
          "ticks": 61920,
          "time": 125.53153199999998,
          "velocity": 1
        },
        {
          "duration": 0.1949949999999916,
          "durationTicks": 96,
          "midi": 52,
          "name": "E3",
          "ticks": 62016,
          "time": 125.72652699999999,
          "velocity": 1
        },
        {
          "duration": 0.1949949999999916,
          "durationTicks": 96,
          "midi": 59,
          "name": "B3",
          "ticks": 62016,
          "time": 125.72652699999999,
          "velocity": 1
        },
        {
          "duration": 0.1949950000000058,
          "durationTicks": 96,
          "midi": 52,
          "name": "E3",
          "ticks": 62112,
          "time": 125.92152199999998,
          "velocity": 1
        },
        {
          "duration": 0.1949950000000058,
          "durationTicks": 96,
          "midi": 59,
          "name": "B3",
          "ticks": 62112,
          "time": 125.92152199999998,
          "velocity": 1
        },
        {
          "duration": 0.1949949999999916,
          "durationTicks": 96,
          "midi": 52,
          "name": "E3",
          "ticks": 62208,
          "time": 126.11651699999999,
          "velocity": 1
        },
        {
          "duration": 0.1949949999999916,
          "durationTicks": 96,
          "midi": 59,
          "name": "B3",
          "ticks": 62208,
          "time": 126.11651699999999,
          "velocity": 1
        },
        {
          "duration": 0.1949950000000058,
          "durationTicks": 96,
          "midi": 50,
          "name": "D3",
          "ticks": 62304,
          "time": 126.31151199999998,
          "velocity": 1
        },
        {
          "duration": 0.1949950000000058,
          "durationTicks": 96,
          "midi": 57,
          "name": "A3",
          "ticks": 62304,
          "time": 126.31151199999998,
          "velocity": 1
        },
        {
          "duration": 0.1949950000000058,
          "durationTicks": 96,
          "midi": 50,
          "name": "D3",
          "ticks": 62400,
          "time": 126.50650699999998,
          "velocity": 1
        },
        {
          "duration": 0.1949950000000058,
          "durationTicks": 96,
          "midi": 57,
          "name": "A3",
          "ticks": 62400,
          "time": 126.50650699999998,
          "velocity": 1
        },
        {
          "duration": 0.1949949999999916,
          "durationTicks": 96,
          "midi": 50,
          "name": "D3",
          "ticks": 62496,
          "time": 126.70150199999999,
          "velocity": 1
        },
        {
          "duration": 0.1949949999999916,
          "durationTicks": 96,
          "midi": 57,
          "name": "A3",
          "ticks": 62496,
          "time": 126.70150199999999,
          "velocity": 1
        },
        {
          "duration": 0.1949950000000058,
          "durationTicks": 96,
          "midi": 50,
          "name": "D3",
          "ticks": 62592,
          "time": 126.89649699999998,
          "velocity": 1
        },
        {
          "duration": 0.1949950000000058,
          "durationTicks": 96,
          "midi": 57,
          "name": "A3",
          "ticks": 62592,
          "time": 126.89649699999998,
          "velocity": 1
        },
        {
          "duration": 0.1949949999999916,
          "durationTicks": 96,
          "midi": 50,
          "name": "D3",
          "ticks": 62688,
          "time": 127.09149199999999,
          "velocity": 1
        },
        {
          "duration": 0.1949949999999916,
          "durationTicks": 96,
          "midi": 57,
          "name": "A3",
          "ticks": 62688,
          "time": 127.09149199999999,
          "velocity": 1
        },
        {
          "duration": 0.1949950000000058,
          "durationTicks": 96,
          "midi": 50,
          "name": "D3",
          "ticks": 62784,
          "time": 127.28648699999998,
          "velocity": 1
        },
        {
          "duration": 0.1949950000000058,
          "durationTicks": 96,
          "midi": 57,
          "name": "A3",
          "ticks": 62784,
          "time": 127.28648699999998,
          "velocity": 1
        },
        {
          "duration": 0.1949950000000058,
          "durationTicks": 96,
          "midi": 50,
          "name": "D3",
          "ticks": 62880,
          "time": 127.48148199999999,
          "velocity": 1
        },
        {
          "duration": 0.1949950000000058,
          "durationTicks": 96,
          "midi": 57,
          "name": "A3",
          "ticks": 62880,
          "time": 127.48148199999999,
          "velocity": 1
        },
        {
          "duration": 0.1949949999999916,
          "durationTicks": 96,
          "midi": 50,
          "name": "D3",
          "ticks": 62976,
          "time": 127.67647699999999,
          "velocity": 1
        },
        {
          "duration": 0.1949949999999916,
          "durationTicks": 96,
          "midi": 57,
          "name": "A3",
          "ticks": 62976,
          "time": 127.67647699999999,
          "velocity": 1
        },
        {
          "duration": 0.1949950000000058,
          "durationTicks": 96,
          "midi": 43,
          "name": "G2",
          "ticks": 63072,
          "time": 127.87147199999998,
          "velocity": 1
        },
        {
          "duration": 0.1949950000000058,
          "durationTicks": 96,
          "midi": 50,
          "name": "D3",
          "ticks": 63072,
          "time": 127.87147199999998,
          "velocity": 1
        },
        {
          "duration": 0.4874874999999861,
          "durationTicks": 240,
          "midi": 38,
          "name": "D2",
          "ticks": 63168,
          "time": 128.066467,
          "velocity": 1
        },
        {
          "duration": 0.4874874999999861,
          "durationTicks": 240,
          "midi": 45,
          "name": "A2",
          "ticks": 63168,
          "time": 128.066467,
          "velocity": 1
        },
        {
          "duration": 0.3899900000000116,
          "durationTicks": 192,
          "midi": 40,
          "name": "E2",
          "ticks": 63408,
          "time": 128.55395449999997,
          "velocity": 1
        },
        {
          "duration": 0.3899900000000116,
          "durationTicks": 192,
          "midi": 47,
          "name": "B2",
          "ticks": 63408,
          "time": 128.55395449999997,
          "velocity": 1
        },
        {
          "duration": 0.3899900000000116,
          "durationTicks": 192,
          "midi": 55,
          "name": "G3",
          "ticks": 63600,
          "time": 128.9439445,
          "velocity": 1
        },
        {
          "duration": 0.3899900000000116,
          "durationTicks": 192,
          "midi": 62,
          "name": "D4",
          "ticks": 63600,
          "time": 128.9439445,
          "velocity": 1
        },
        {
          "duration": 0.1949950000000058,
          "durationTicks": 96,
          "midi": 52,
          "name": "E3",
          "ticks": 63792,
          "time": 129.3339345,
          "velocity": 1
        },
        {
          "duration": 0.1949950000000058,
          "durationTicks": 96,
          "midi": 59,
          "name": "B3",
          "ticks": 63792,
          "time": 129.3339345,
          "velocity": 1
        },
        {
          "duration": 0.1949950000000058,
          "durationTicks": 96,
          "midi": 52,
          "name": "E3",
          "ticks": 63888,
          "time": 129.5289295,
          "velocity": 1
        },
        {
          "duration": 0.1949950000000058,
          "durationTicks": 96,
          "midi": 59,
          "name": "B3",
          "ticks": 63888,
          "time": 129.5289295,
          "velocity": 1
        },
        {
          "duration": 0.19499499999997738,
          "durationTicks": 96,
          "midi": 52,
          "name": "E3",
          "ticks": 63984,
          "time": 129.7239245,
          "velocity": 1
        },
        {
          "duration": 0.19499499999997738,
          "durationTicks": 96,
          "midi": 59,
          "name": "B3",
          "ticks": 63984,
          "time": 129.7239245,
          "velocity": 1
        },
        {
          "duration": 0.1949950000000058,
          "durationTicks": 96,
          "midi": 52,
          "name": "E3",
          "ticks": 64080,
          "time": 129.9189195,
          "velocity": 1
        },
        {
          "duration": 0.1949950000000058,
          "durationTicks": 96,
          "midi": 59,
          "name": "B3",
          "ticks": 64080,
          "time": 129.9189195,
          "velocity": 1
        },
        {
          "duration": 0.1949950000000058,
          "durationTicks": 96,
          "midi": 52,
          "name": "E3",
          "ticks": 64176,
          "time": 130.1139145,
          "velocity": 1
        },
        {
          "duration": 0.1949950000000058,
          "durationTicks": 96,
          "midi": 59,
          "name": "B3",
          "ticks": 64176,
          "time": 130.1139145,
          "velocity": 1
        },
        {
          "duration": 0.1949950000000058,
          "durationTicks": 96,
          "midi": 52,
          "name": "E3",
          "ticks": 64272,
          "time": 130.3089095,
          "velocity": 1
        },
        {
          "duration": 0.1949950000000058,
          "durationTicks": 96,
          "midi": 59,
          "name": "B3",
          "ticks": 64272,
          "time": 130.3089095,
          "velocity": 1
        },
        {
          "duration": 0.1949950000000058,
          "durationTicks": 96,
          "midi": 52,
          "name": "E3",
          "ticks": 64368,
          "time": 130.5039045,
          "velocity": 1
        },
        {
          "duration": 0.1949950000000058,
          "durationTicks": 96,
          "midi": 59,
          "name": "B3",
          "ticks": 64368,
          "time": 130.5039045,
          "velocity": 1
        },
        {
          "duration": 0.19499499999997738,
          "durationTicks": 96,
          "midi": 52,
          "name": "E3",
          "ticks": 64464,
          "time": 130.6988995,
          "velocity": 1
        },
        {
          "duration": 0.19499499999997738,
          "durationTicks": 96,
          "midi": 59,
          "name": "B3",
          "ticks": 64464,
          "time": 130.6988995,
          "velocity": 1
        },
        {
          "duration": 0.1949950000000058,
          "durationTicks": 96,
          "midi": 52,
          "name": "E3",
          "ticks": 64560,
          "time": 130.8938945,
          "velocity": 1
        },
        {
          "duration": 0.1949950000000058,
          "durationTicks": 96,
          "midi": 59,
          "name": "B3",
          "ticks": 64560,
          "time": 130.8938945,
          "velocity": 1
        },
        {
          "duration": 0.1949950000000058,
          "durationTicks": 96,
          "midi": 52,
          "name": "E3",
          "ticks": 64656,
          "time": 131.0888895,
          "velocity": 1
        },
        {
          "duration": 0.1949950000000058,
          "durationTicks": 96,
          "midi": 59,
          "name": "B3",
          "ticks": 64656,
          "time": 131.0888895,
          "velocity": 1
        },
        {
          "duration": 0.1949950000000058,
          "durationTicks": 96,
          "midi": 52,
          "name": "E3",
          "ticks": 64752,
          "time": 131.2838845,
          "velocity": 1
        },
        {
          "duration": 0.1949950000000058,
          "durationTicks": 96,
          "midi": 59,
          "name": "B3",
          "ticks": 64752,
          "time": 131.2838845,
          "velocity": 1
        },
        {
          "duration": 0.1949950000000058,
          "durationTicks": 96,
          "midi": 52,
          "name": "E3",
          "ticks": 64848,
          "time": 131.4788795,
          "velocity": 1
        },
        {
          "duration": 0.1949950000000058,
          "durationTicks": 96,
          "midi": 59,
          "name": "B3",
          "ticks": 64848,
          "time": 131.4788795,
          "velocity": 1
        },
        {
          "duration": 0.19499499999997738,
          "durationTicks": 96,
          "midi": 52,
          "name": "E3",
          "ticks": 64944,
          "time": 131.6738745,
          "velocity": 1
        },
        {
          "duration": 0.19499499999997738,
          "durationTicks": 96,
          "midi": 59,
          "name": "B3",
          "ticks": 64944,
          "time": 131.6738745,
          "velocity": 1
        },
        {
          "duration": 0.1949950000000058,
          "durationTicks": 96,
          "midi": 52,
          "name": "E3",
          "ticks": 65040,
          "time": 131.8688695,
          "velocity": 1
        },
        {
          "duration": 0.1949950000000058,
          "durationTicks": 96,
          "midi": 59,
          "name": "B3",
          "ticks": 65040,
          "time": 131.8688695,
          "velocity": 1
        },
        {
          "duration": 0.1949950000000058,
          "durationTicks": 96,
          "midi": 52,
          "name": "E3",
          "ticks": 65136,
          "time": 132.0638645,
          "velocity": 1
        },
        {
          "duration": 0.1949950000000058,
          "durationTicks": 96,
          "midi": 59,
          "name": "B3",
          "ticks": 65136,
          "time": 132.0638645,
          "velocity": 1
        },
        {
          "duration": 0.1949950000000058,
          "durationTicks": 96,
          "midi": 52,
          "name": "E3",
          "ticks": 65232,
          "time": 132.2588595,
          "velocity": 1
        },
        {
          "duration": 0.1949950000000058,
          "durationTicks": 96,
          "midi": 59,
          "name": "B3",
          "ticks": 65232,
          "time": 132.2588595,
          "velocity": 1
        },
        {
          "duration": 0.1949950000000058,
          "durationTicks": 96,
          "midi": 50,
          "name": "D3",
          "ticks": 65328,
          "time": 132.4538545,
          "velocity": 1
        },
        {
          "duration": 0.1949950000000058,
          "durationTicks": 96,
          "midi": 57,
          "name": "A3",
          "ticks": 65328,
          "time": 132.4538545,
          "velocity": 1
        },
        {
          "duration": 0.19499499999997738,
          "durationTicks": 96,
          "midi": 50,
          "name": "D3",
          "ticks": 65424,
          "time": 132.6488495,
          "velocity": 1
        },
        {
          "duration": 0.19499499999997738,
          "durationTicks": 96,
          "midi": 57,
          "name": "A3",
          "ticks": 65424,
          "time": 132.6488495,
          "velocity": 1
        },
        {
          "duration": 0.1949950000000058,
          "durationTicks": 96,
          "midi": 50,
          "name": "D3",
          "ticks": 65520,
          "time": 132.8438445,
          "velocity": 1
        },
        {
          "duration": 0.1949950000000058,
          "durationTicks": 96,
          "midi": 57,
          "name": "A3",
          "ticks": 65520,
          "time": 132.8438445,
          "velocity": 1
        },
        {
          "duration": 0.1949950000000058,
          "durationTicks": 96,
          "midi": 50,
          "name": "D3",
          "ticks": 65616,
          "time": 133.0388395,
          "velocity": 1
        },
        {
          "duration": 0.1949950000000058,
          "durationTicks": 96,
          "midi": 57,
          "name": "A3",
          "ticks": 65616,
          "time": 133.0388395,
          "velocity": 1
        },
        {
          "duration": 0.1949950000000058,
          "durationTicks": 96,
          "midi": 50,
          "name": "D3",
          "ticks": 65712,
          "time": 133.2338345,
          "velocity": 1
        },
        {
          "duration": 0.1949950000000058,
          "durationTicks": 96,
          "midi": 57,
          "name": "A3",
          "ticks": 65712,
          "time": 133.2338345,
          "velocity": 1
        },
        {
          "duration": 0.1949950000000058,
          "durationTicks": 96,
          "midi": 50,
          "name": "D3",
          "ticks": 65808,
          "time": 133.4288295,
          "velocity": 1
        },
        {
          "duration": 0.1949950000000058,
          "durationTicks": 96,
          "midi": 57,
          "name": "A3",
          "ticks": 65808,
          "time": 133.4288295,
          "velocity": 1
        },
        {
          "duration": 0.19499499999997738,
          "durationTicks": 96,
          "midi": 50,
          "name": "D3",
          "ticks": 65904,
          "time": 133.6238245,
          "velocity": 1
        },
        {
          "duration": 0.19499499999997738,
          "durationTicks": 96,
          "midi": 57,
          "name": "A3",
          "ticks": 65904,
          "time": 133.6238245,
          "velocity": 1
        },
        {
          "duration": 0.1949950000000058,
          "durationTicks": 96,
          "midi": 50,
          "name": "D3",
          "ticks": 66000,
          "time": 133.8188195,
          "velocity": 1
        },
        {
          "duration": 0.1949950000000058,
          "durationTicks": 96,
          "midi": 57,
          "name": "A3",
          "ticks": 66000,
          "time": 133.8188195,
          "velocity": 1
        },
        {
          "duration": 0.1949950000000058,
          "durationTicks": 96,
          "midi": 43,
          "name": "G2",
          "ticks": 66096,
          "time": 134.0138145,
          "velocity": 1
        },
        {
          "duration": 0.1949950000000058,
          "durationTicks": 96,
          "midi": 50,
          "name": "D3",
          "ticks": 66096,
          "time": 134.0138145,
          "velocity": 1
        },
        {
          "duration": 0.4874874999999861,
          "durationTicks": 240,
          "midi": 38,
          "name": "D2",
          "ticks": 66192,
          "time": 134.2088095,
          "velocity": 1
        },
        {
          "duration": 0.4874874999999861,
          "durationTicks": 240,
          "midi": 45,
          "name": "A2",
          "ticks": 66192,
          "time": 134.2088095,
          "velocity": 1
        },
        {
          "duration": 0.3899900000000116,
          "durationTicks": 192,
          "midi": 40,
          "name": "E2",
          "ticks": 66432,
          "time": 134.696297,
          "velocity": 1
        },
        {
          "duration": 0.3899900000000116,
          "durationTicks": 192,
          "midi": 47,
          "name": "B2",
          "ticks": 66432,
          "time": 134.696297,
          "velocity": 1
        },
        {
          "duration": 0.3899900000000116,
          "durationTicks": 192,
          "midi": 55,
          "name": "G3",
          "ticks": 66624,
          "time": 135.086287,
          "velocity": 1
        },
        {
          "duration": 0.3899900000000116,
          "durationTicks": 192,
          "midi": 62,
          "name": "D4",
          "ticks": 66624,
          "time": 135.086287,
          "velocity": 1
        },
        {
          "duration": 0.1949950000000058,
          "durationTicks": 96,
          "midi": 52,
          "name": "E3",
          "ticks": 66816,
          "time": 135.476277,
          "velocity": 1
        },
        {
          "duration": 0.1949950000000058,
          "durationTicks": 96,
          "midi": 59,
          "name": "B3",
          "ticks": 66816,
          "time": 135.476277,
          "velocity": 1
        },
        {
          "duration": 0.1949950000000058,
          "durationTicks": 96,
          "midi": 52,
          "name": "E3",
          "ticks": 66912,
          "time": 135.67127200000002,
          "velocity": 1
        },
        {
          "duration": 0.1949950000000058,
          "durationTicks": 96,
          "midi": 59,
          "name": "B3",
          "ticks": 66912,
          "time": 135.67127200000002,
          "velocity": 1
        },
        {
          "duration": 0.19499499999997738,
          "durationTicks": 96,
          "midi": 52,
          "name": "E3",
          "ticks": 67008,
          "time": 135.86626700000002,
          "velocity": 1
        },
        {
          "duration": 0.19499499999997738,
          "durationTicks": 96,
          "midi": 59,
          "name": "B3",
          "ticks": 67008,
          "time": 135.86626700000002,
          "velocity": 1
        },
        {
          "duration": 0.1949950000000058,
          "durationTicks": 96,
          "midi": 52,
          "name": "E3",
          "ticks": 67104,
          "time": 136.061262,
          "velocity": 1
        },
        {
          "duration": 0.1949950000000058,
          "durationTicks": 96,
          "midi": 59,
          "name": "B3",
          "ticks": 67104,
          "time": 136.061262,
          "velocity": 1
        },
        {
          "duration": 0.1949950000000058,
          "durationTicks": 96,
          "midi": 52,
          "name": "E3",
          "ticks": 67200,
          "time": 136.256257,
          "velocity": 1
        },
        {
          "duration": 0.1949950000000058,
          "durationTicks": 96,
          "midi": 59,
          "name": "B3",
          "ticks": 67200,
          "time": 136.256257,
          "velocity": 1
        },
        {
          "duration": 0.1949950000000058,
          "durationTicks": 96,
          "midi": 52,
          "name": "E3",
          "ticks": 67296,
          "time": 136.451252,
          "velocity": 1
        },
        {
          "duration": 0.1949950000000058,
          "durationTicks": 96,
          "midi": 59,
          "name": "B3",
          "ticks": 67296,
          "time": 136.451252,
          "velocity": 1
        },
        {
          "duration": 0.1949950000000058,
          "durationTicks": 96,
          "midi": 52,
          "name": "E3",
          "ticks": 67392,
          "time": 136.64624700000002,
          "velocity": 1
        },
        {
          "duration": 0.1949950000000058,
          "durationTicks": 96,
          "midi": 59,
          "name": "B3",
          "ticks": 67392,
          "time": 136.64624700000002,
          "velocity": 1
        },
        {
          "duration": 0.19499499999997738,
          "durationTicks": 96,
          "midi": 52,
          "name": "E3",
          "ticks": 67488,
          "time": 136.84124200000002,
          "velocity": 1
        },
        {
          "duration": 0.19499499999997738,
          "durationTicks": 96,
          "midi": 59,
          "name": "B3",
          "ticks": 67488,
          "time": 136.84124200000002,
          "velocity": 1
        },
        {
          "duration": 0.1949950000000058,
          "durationTicks": 96,
          "midi": 52,
          "name": "E3",
          "ticks": 67584,
          "time": 137.036237,
          "velocity": 1
        },
        {
          "duration": 0.1949950000000058,
          "durationTicks": 96,
          "midi": 59,
          "name": "B3",
          "ticks": 67584,
          "time": 137.036237,
          "velocity": 1
        },
        {
          "duration": 0.1949950000000058,
          "durationTicks": 96,
          "midi": 52,
          "name": "E3",
          "ticks": 67680,
          "time": 137.231232,
          "velocity": 1
        },
        {
          "duration": 0.1949950000000058,
          "durationTicks": 96,
          "midi": 59,
          "name": "B3",
          "ticks": 67680,
          "time": 137.231232,
          "velocity": 1
        },
        {
          "duration": 0.1949950000000058,
          "durationTicks": 96,
          "midi": 52,
          "name": "E3",
          "ticks": 67776,
          "time": 137.426227,
          "velocity": 1
        },
        {
          "duration": 0.1949950000000058,
          "durationTicks": 96,
          "midi": 59,
          "name": "B3",
          "ticks": 67776,
          "time": 137.426227,
          "velocity": 1
        },
        {
          "duration": 0.1949950000000058,
          "durationTicks": 96,
          "midi": 52,
          "name": "E3",
          "ticks": 67872,
          "time": 137.62122200000002,
          "velocity": 1
        },
        {
          "duration": 0.1949950000000058,
          "durationTicks": 96,
          "midi": 59,
          "name": "B3",
          "ticks": 67872,
          "time": 137.62122200000002,
          "velocity": 1
        },
        {
          "duration": 0.19499499999997738,
          "durationTicks": 96,
          "midi": 52,
          "name": "E3",
          "ticks": 67968,
          "time": 137.81621700000002,
          "velocity": 1
        },
        {
          "duration": 0.19499499999997738,
          "durationTicks": 96,
          "midi": 59,
          "name": "B3",
          "ticks": 67968,
          "time": 137.81621700000002,
          "velocity": 1
        },
        {
          "duration": 0.1949950000000058,
          "durationTicks": 96,
          "midi": 52,
          "name": "E3",
          "ticks": 68064,
          "time": 138.011212,
          "velocity": 1
        },
        {
          "duration": 0.1949950000000058,
          "durationTicks": 96,
          "midi": 59,
          "name": "B3",
          "ticks": 68064,
          "time": 138.011212,
          "velocity": 1
        },
        {
          "duration": 0.1949950000000058,
          "durationTicks": 96,
          "midi": 52,
          "name": "E3",
          "ticks": 68160,
          "time": 138.206207,
          "velocity": 1
        },
        {
          "duration": 0.1949950000000058,
          "durationTicks": 96,
          "midi": 59,
          "name": "B3",
          "ticks": 68160,
          "time": 138.206207,
          "velocity": 1
        },
        {
          "duration": 0.1949950000000058,
          "durationTicks": 96,
          "midi": 52,
          "name": "E3",
          "ticks": 68256,
          "time": 138.401202,
          "velocity": 1
        },
        {
          "duration": 0.1949950000000058,
          "durationTicks": 96,
          "midi": 59,
          "name": "B3",
          "ticks": 68256,
          "time": 138.401202,
          "velocity": 1
        },
        {
          "duration": 0.1949950000000058,
          "durationTicks": 96,
          "midi": 50,
          "name": "D3",
          "ticks": 68352,
          "time": 138.59619700000002,
          "velocity": 1
        },
        {
          "duration": 0.1949950000000058,
          "durationTicks": 96,
          "midi": 57,
          "name": "A3",
          "ticks": 68352,
          "time": 138.59619700000002,
          "velocity": 1
        },
        {
          "duration": 0.19499499999997738,
          "durationTicks": 96,
          "midi": 50,
          "name": "D3",
          "ticks": 68448,
          "time": 138.79119200000002,
          "velocity": 1
        },
        {
          "duration": 0.19499499999997738,
          "durationTicks": 96,
          "midi": 57,
          "name": "A3",
          "ticks": 68448,
          "time": 138.79119200000002,
          "velocity": 1
        },
        {
          "duration": 0.1949950000000058,
          "durationTicks": 96,
          "midi": 50,
          "name": "D3",
          "ticks": 68544,
          "time": 138.986187,
          "velocity": 1
        },
        {
          "duration": 0.1949950000000058,
          "durationTicks": 96,
          "midi": 57,
          "name": "A3",
          "ticks": 68544,
          "time": 138.986187,
          "velocity": 1
        },
        {
          "duration": 0.1949950000000058,
          "durationTicks": 96,
          "midi": 50,
          "name": "D3",
          "ticks": 68640,
          "time": 139.181182,
          "velocity": 1
        },
        {
          "duration": 0.1949950000000058,
          "durationTicks": 96,
          "midi": 57,
          "name": "A3",
          "ticks": 68640,
          "time": 139.181182,
          "velocity": 1
        },
        {
          "duration": 0.1949950000000058,
          "durationTicks": 96,
          "midi": 50,
          "name": "D3",
          "ticks": 68736,
          "time": 139.376177,
          "velocity": 1
        },
        {
          "duration": 0.1949950000000058,
          "durationTicks": 96,
          "midi": 57,
          "name": "A3",
          "ticks": 68736,
          "time": 139.376177,
          "velocity": 1
        },
        {
          "duration": 0.19499499999997738,
          "durationTicks": 96,
          "midi": 50,
          "name": "D3",
          "ticks": 68832,
          "time": 139.57117200000002,
          "velocity": 1
        },
        {
          "duration": 0.19499499999997738,
          "durationTicks": 96,
          "midi": 57,
          "name": "A3",
          "ticks": 68832,
          "time": 139.57117200000002,
          "velocity": 1
        },
        {
          "duration": 0.1949950000000058,
          "durationTicks": 96,
          "midi": 50,
          "name": "D3",
          "ticks": 68928,
          "time": 139.766167,
          "velocity": 1
        },
        {
          "duration": 0.1949950000000058,
          "durationTicks": 96,
          "midi": 57,
          "name": "A3",
          "ticks": 68928,
          "time": 139.766167,
          "velocity": 1
        },
        {
          "duration": 0.1949950000000058,
          "durationTicks": 96,
          "midi": 50,
          "name": "D3",
          "ticks": 69024,
          "time": 139.961162,
          "velocity": 1
        },
        {
          "duration": 0.1949950000000058,
          "durationTicks": 96,
          "midi": 57,
          "name": "A3",
          "ticks": 69024,
          "time": 139.961162,
          "velocity": 1
        },
        {
          "duration": 0.1949950000000058,
          "durationTicks": 96,
          "midi": 43,
          "name": "G2",
          "ticks": 69120,
          "time": 140.156157,
          "velocity": 1
        },
        {
          "duration": 0.1949950000000058,
          "durationTicks": 96,
          "midi": 50,
          "name": "D3",
          "ticks": 69120,
          "time": 140.156157,
          "velocity": 1
        },
        {
          "duration": 0.4874874999999861,
          "durationTicks": 240,
          "midi": 38,
          "name": "D2",
          "ticks": 69216,
          "time": 140.351152,
          "velocity": 1
        },
        {
          "duration": 0.4874874999999861,
          "durationTicks": 240,
          "midi": 45,
          "name": "A2",
          "ticks": 69216,
          "time": 140.351152,
          "velocity": 1
        },
        {
          "duration": 0.3899900000000116,
          "durationTicks": 192,
          "midi": 40,
          "name": "E2",
          "ticks": 69456,
          "time": 140.8386395,
          "velocity": 1
        },
        {
          "duration": 0.3899900000000116,
          "durationTicks": 192,
          "midi": 47,
          "name": "B2",
          "ticks": 69456,
          "time": 140.8386395,
          "velocity": 1
        },
        {
          "duration": 0.3899900000000116,
          "durationTicks": 192,
          "midi": 55,
          "name": "G3",
          "ticks": 69648,
          "time": 141.2286295,
          "velocity": 1
        },
        {
          "duration": 0.3899900000000116,
          "durationTicks": 192,
          "midi": 62,
          "name": "D4",
          "ticks": 69648,
          "time": 141.2286295,
          "velocity": 1
        },
        {
          "duration": 0.1949950000000058,
          "durationTicks": 96,
          "midi": 52,
          "name": "E3",
          "ticks": 75984,
          "time": 154.0982995,
          "velocity": 1
        },
        {
          "duration": 0.1949950000000058,
          "durationTicks": 96,
          "midi": 59,
          "name": "B3",
          "ticks": 75984,
          "time": 154.0982995,
          "velocity": 1
        },
        {
          "duration": 0.1949950000000058,
          "durationTicks": 96,
          "midi": 52,
          "name": "E3",
          "ticks": 76080,
          "time": 154.2932945,
          "velocity": 1
        },
        {
          "duration": 0.1949950000000058,
          "durationTicks": 96,
          "midi": 59,
          "name": "B3",
          "ticks": 76080,
          "time": 154.2932945,
          "velocity": 1
        },
        {
          "duration": 0.19499499999997738,
          "durationTicks": 96,
          "midi": 52,
          "name": "E3",
          "ticks": 76176,
          "time": 154.4882895,
          "velocity": 1
        },
        {
          "duration": 0.19499499999997738,
          "durationTicks": 96,
          "midi": 59,
          "name": "B3",
          "ticks": 76176,
          "time": 154.4882895,
          "velocity": 1
        },
        {
          "duration": 0.1949950000000058,
          "durationTicks": 96,
          "midi": 52,
          "name": "E3",
          "ticks": 76272,
          "time": 154.68328449999998,
          "velocity": 1
        },
        {
          "duration": 0.1949950000000058,
          "durationTicks": 96,
          "midi": 59,
          "name": "B3",
          "ticks": 76272,
          "time": 154.68328449999998,
          "velocity": 1
        },
        {
          "duration": 0.1949950000000058,
          "durationTicks": 96,
          "midi": 52,
          "name": "E3",
          "ticks": 76368,
          "time": 154.8782795,
          "velocity": 1
        },
        {
          "duration": 0.1949950000000058,
          "durationTicks": 96,
          "midi": 59,
          "name": "B3",
          "ticks": 76368,
          "time": 154.8782795,
          "velocity": 1
        },
        {
          "duration": 0.1949950000000058,
          "durationTicks": 96,
          "midi": 52,
          "name": "E3",
          "ticks": 76464,
          "time": 155.0732745,
          "velocity": 1
        },
        {
          "duration": 0.1949950000000058,
          "durationTicks": 96,
          "midi": 59,
          "name": "B3",
          "ticks": 76464,
          "time": 155.0732745,
          "velocity": 1
        },
        {
          "duration": 0.1949950000000058,
          "durationTicks": 96,
          "midi": 52,
          "name": "E3",
          "ticks": 76560,
          "time": 155.2682695,
          "velocity": 1
        },
        {
          "duration": 0.1949950000000058,
          "durationTicks": 96,
          "midi": 59,
          "name": "B3",
          "ticks": 76560,
          "time": 155.2682695,
          "velocity": 1
        },
        {
          "duration": 0.19499499999997738,
          "durationTicks": 96,
          "midi": 52,
          "name": "E3",
          "ticks": 76656,
          "time": 155.4632645,
          "velocity": 1
        },
        {
          "duration": 0.19499499999997738,
          "durationTicks": 96,
          "midi": 59,
          "name": "B3",
          "ticks": 76656,
          "time": 155.4632645,
          "velocity": 1
        },
        {
          "duration": 0.1949950000000058,
          "durationTicks": 96,
          "midi": 52,
          "name": "E3",
          "ticks": 76752,
          "time": 155.65825949999999,
          "velocity": 1
        },
        {
          "duration": 0.1949950000000058,
          "durationTicks": 96,
          "midi": 59,
          "name": "B3",
          "ticks": 76752,
          "time": 155.65825949999999,
          "velocity": 1
        },
        {
          "duration": 0.1949950000000058,
          "durationTicks": 96,
          "midi": 52,
          "name": "E3",
          "ticks": 76848,
          "time": 155.8532545,
          "velocity": 1
        },
        {
          "duration": 0.1949950000000058,
          "durationTicks": 96,
          "midi": 59,
          "name": "B3",
          "ticks": 76848,
          "time": 155.8532545,
          "velocity": 1
        },
        {
          "duration": 0.1949950000000058,
          "durationTicks": 96,
          "midi": 52,
          "name": "E3",
          "ticks": 76944,
          "time": 156.0482495,
          "velocity": 1
        },
        {
          "duration": 0.1949950000000058,
          "durationTicks": 96,
          "midi": 59,
          "name": "B3",
          "ticks": 76944,
          "time": 156.0482495,
          "velocity": 1
        },
        {
          "duration": 0.1949950000000058,
          "durationTicks": 96,
          "midi": 52,
          "name": "E3",
          "ticks": 77040,
          "time": 156.2432445,
          "velocity": 1
        },
        {
          "duration": 0.1949950000000058,
          "durationTicks": 96,
          "midi": 59,
          "name": "B3",
          "ticks": 77040,
          "time": 156.2432445,
          "velocity": 1
        },
        {
          "duration": 0.19499499999997738,
          "durationTicks": 96,
          "midi": 52,
          "name": "E3",
          "ticks": 77136,
          "time": 156.4382395,
          "velocity": 1
        },
        {
          "duration": 0.19499499999997738,
          "durationTicks": 96,
          "midi": 59,
          "name": "B3",
          "ticks": 77136,
          "time": 156.4382395,
          "velocity": 1
        },
        {
          "duration": 0.1949950000000058,
          "durationTicks": 96,
          "midi": 52,
          "name": "E3",
          "ticks": 77232,
          "time": 156.6332345,
          "velocity": 1
        },
        {
          "duration": 0.1949950000000058,
          "durationTicks": 96,
          "midi": 59,
          "name": "B3",
          "ticks": 77232,
          "time": 156.6332345,
          "velocity": 1
        },
        {
          "duration": 0.1949950000000058,
          "durationTicks": 96,
          "midi": 52,
          "name": "E3",
          "ticks": 77328,
          "time": 156.8282295,
          "velocity": 1
        },
        {
          "duration": 0.1949950000000058,
          "durationTicks": 96,
          "midi": 59,
          "name": "B3",
          "ticks": 77328,
          "time": 156.8282295,
          "velocity": 1
        },
        {
          "duration": 0.1949950000000058,
          "durationTicks": 96,
          "midi": 52,
          "name": "E3",
          "ticks": 77424,
          "time": 157.0232245,
          "velocity": 1
        },
        {
          "duration": 0.1949950000000058,
          "durationTicks": 96,
          "midi": 59,
          "name": "B3",
          "ticks": 77424,
          "time": 157.0232245,
          "velocity": 1
        },
        {
          "duration": 0.1949950000000058,
          "durationTicks": 96,
          "midi": 50,
          "name": "D3",
          "ticks": 77520,
          "time": 157.2182195,
          "velocity": 1
        },
        {
          "duration": 0.1949950000000058,
          "durationTicks": 96,
          "midi": 57,
          "name": "A3",
          "ticks": 77520,
          "time": 157.2182195,
          "velocity": 1
        },
        {
          "duration": 0.19499499999997738,
          "durationTicks": 96,
          "midi": 50,
          "name": "D3",
          "ticks": 77616,
          "time": 157.4132145,
          "velocity": 1
        },
        {
          "duration": 0.19499499999997738,
          "durationTicks": 96,
          "midi": 57,
          "name": "A3",
          "ticks": 77616,
          "time": 157.4132145,
          "velocity": 1
        },
        {
          "duration": 0.1949950000000058,
          "durationTicks": 96,
          "midi": 50,
          "name": "D3",
          "ticks": 77712,
          "time": 157.6082095,
          "velocity": 1
        },
        {
          "duration": 0.1949950000000058,
          "durationTicks": 96,
          "midi": 57,
          "name": "A3",
          "ticks": 77712,
          "time": 157.6082095,
          "velocity": 1
        },
        {
          "duration": 0.1949950000000058,
          "durationTicks": 96,
          "midi": 50,
          "name": "D3",
          "ticks": 77808,
          "time": 157.8032045,
          "velocity": 1
        },
        {
          "duration": 0.1949950000000058,
          "durationTicks": 96,
          "midi": 57,
          "name": "A3",
          "ticks": 77808,
          "time": 157.8032045,
          "velocity": 1
        },
        {
          "duration": 0.1949950000000058,
          "durationTicks": 96,
          "midi": 50,
          "name": "D3",
          "ticks": 77904,
          "time": 157.9981995,
          "velocity": 1
        },
        {
          "duration": 0.1949950000000058,
          "durationTicks": 96,
          "midi": 57,
          "name": "A3",
          "ticks": 77904,
          "time": 157.9981995,
          "velocity": 1
        },
        {
          "duration": 0.1949950000000058,
          "durationTicks": 96,
          "midi": 50,
          "name": "D3",
          "ticks": 78000,
          "time": 158.1931945,
          "velocity": 1
        },
        {
          "duration": 0.1949950000000058,
          "durationTicks": 96,
          "midi": 57,
          "name": "A3",
          "ticks": 78000,
          "time": 158.1931945,
          "velocity": 1
        },
        {
          "duration": 0.19499499999997738,
          "durationTicks": 96,
          "midi": 50,
          "name": "D3",
          "ticks": 78096,
          "time": 158.3881895,
          "velocity": 1
        },
        {
          "duration": 0.19499499999997738,
          "durationTicks": 96,
          "midi": 57,
          "name": "A3",
          "ticks": 78096,
          "time": 158.3881895,
          "velocity": 1
        },
        {
          "duration": 0.1949950000000058,
          "durationTicks": 96,
          "midi": 50,
          "name": "D3",
          "ticks": 78192,
          "time": 158.5831845,
          "velocity": 1
        },
        {
          "duration": 0.1949950000000058,
          "durationTicks": 96,
          "midi": 57,
          "name": "A3",
          "ticks": 78192,
          "time": 158.5831845,
          "velocity": 1
        },
        {
          "duration": 0.1949950000000058,
          "durationTicks": 96,
          "midi": 43,
          "name": "G2",
          "ticks": 78288,
          "time": 158.7781795,
          "velocity": 1
        },
        {
          "duration": 0.1949950000000058,
          "durationTicks": 96,
          "midi": 50,
          "name": "D3",
          "ticks": 78288,
          "time": 158.7781795,
          "velocity": 1
        },
        {
          "duration": 0.4874874999999861,
          "durationTicks": 240,
          "midi": 38,
          "name": "D2",
          "ticks": 78384,
          "time": 158.9731745,
          "velocity": 1
        },
        {
          "duration": 0.4874874999999861,
          "durationTicks": 240,
          "midi": 45,
          "name": "A2",
          "ticks": 78384,
          "time": 158.9731745,
          "velocity": 1
        },
        {
          "duration": 0.3899900000000116,
          "durationTicks": 192,
          "midi": 40,
          "name": "E2",
          "ticks": 78624,
          "time": 159.46066199999999,
          "velocity": 1
        },
        {
          "duration": 0.3899900000000116,
          "durationTicks": 192,
          "midi": 47,
          "name": "B2",
          "ticks": 78624,
          "time": 159.46066199999999,
          "velocity": 1
        },
        {
          "duration": 0.3899900000000116,
          "durationTicks": 192,
          "midi": 55,
          "name": "G3",
          "ticks": 78816,
          "time": 159.850652,
          "velocity": 1
        },
        {
          "duration": 0.3899900000000116,
          "durationTicks": 192,
          "midi": 62,
          "name": "D4",
          "ticks": 78816,
          "time": 159.850652,
          "velocity": 1
        },
        {
          "duration": 0.1949950000000058,
          "durationTicks": 96,
          "midi": 52,
          "name": "E3",
          "ticks": 79008,
          "time": 160.240642,
          "velocity": 1
        },
        {
          "duration": 0.1949950000000058,
          "durationTicks": 96,
          "midi": 59,
          "name": "B3",
          "ticks": 79008,
          "time": 160.240642,
          "velocity": 1
        },
        {
          "duration": 0.1949950000000058,
          "durationTicks": 96,
          "midi": 52,
          "name": "E3",
          "ticks": 79104,
          "time": 160.435637,
          "velocity": 1
        },
        {
          "duration": 0.1949950000000058,
          "durationTicks": 96,
          "midi": 59,
          "name": "B3",
          "ticks": 79104,
          "time": 160.435637,
          "velocity": 1
        },
        {
          "duration": 0.19499499999997738,
          "durationTicks": 96,
          "midi": 52,
          "name": "E3",
          "ticks": 79200,
          "time": 160.63063200000002,
          "velocity": 1
        },
        {
          "duration": 0.19499499999997738,
          "durationTicks": 96,
          "midi": 59,
          "name": "B3",
          "ticks": 79200,
          "time": 160.63063200000002,
          "velocity": 1
        },
        {
          "duration": 0.1949950000000058,
          "durationTicks": 96,
          "midi": 52,
          "name": "E3",
          "ticks": 79296,
          "time": 160.825627,
          "velocity": 1
        },
        {
          "duration": 0.1949950000000058,
          "durationTicks": 96,
          "midi": 59,
          "name": "B3",
          "ticks": 79296,
          "time": 160.825627,
          "velocity": 1
        },
        {
          "duration": 0.1949950000000058,
          "durationTicks": 96,
          "midi": 52,
          "name": "E3",
          "ticks": 79392,
          "time": 161.020622,
          "velocity": 1
        },
        {
          "duration": 0.1949950000000058,
          "durationTicks": 96,
          "midi": 59,
          "name": "B3",
          "ticks": 79392,
          "time": 161.020622,
          "velocity": 1
        },
        {
          "duration": 0.1949950000000058,
          "durationTicks": 96,
          "midi": 52,
          "name": "E3",
          "ticks": 79488,
          "time": 161.215617,
          "velocity": 1
        },
        {
          "duration": 0.1949950000000058,
          "durationTicks": 96,
          "midi": 59,
          "name": "B3",
          "ticks": 79488,
          "time": 161.215617,
          "velocity": 1
        },
        {
          "duration": 0.1949950000000058,
          "durationTicks": 96,
          "midi": 52,
          "name": "E3",
          "ticks": 79584,
          "time": 161.41061200000001,
          "velocity": 1
        },
        {
          "duration": 0.1949950000000058,
          "durationTicks": 96,
          "midi": 59,
          "name": "B3",
          "ticks": 79584,
          "time": 161.41061200000001,
          "velocity": 1
        },
        {
          "duration": 0.19499499999997738,
          "durationTicks": 96,
          "midi": 52,
          "name": "E3",
          "ticks": 79680,
          "time": 161.60560700000002,
          "velocity": 1
        },
        {
          "duration": 0.19499499999997738,
          "durationTicks": 96,
          "midi": 59,
          "name": "B3",
          "ticks": 79680,
          "time": 161.60560700000002,
          "velocity": 1
        },
        {
          "duration": 0.1949950000000058,
          "durationTicks": 96,
          "midi": 52,
          "name": "E3",
          "ticks": 79776,
          "time": 161.800602,
          "velocity": 1
        },
        {
          "duration": 0.1949950000000058,
          "durationTicks": 96,
          "midi": 59,
          "name": "B3",
          "ticks": 79776,
          "time": 161.800602,
          "velocity": 1
        },
        {
          "duration": 0.1949950000000058,
          "durationTicks": 96,
          "midi": 52,
          "name": "E3",
          "ticks": 79872,
          "time": 161.995597,
          "velocity": 1
        },
        {
          "duration": 0.1949950000000058,
          "durationTicks": 96,
          "midi": 59,
          "name": "B3",
          "ticks": 79872,
          "time": 161.995597,
          "velocity": 1
        },
        {
          "duration": 0.1949950000000058,
          "durationTicks": 96,
          "midi": 52,
          "name": "E3",
          "ticks": 79968,
          "time": 162.190592,
          "velocity": 1
        },
        {
          "duration": 0.1949950000000058,
          "durationTicks": 96,
          "midi": 59,
          "name": "B3",
          "ticks": 79968,
          "time": 162.190592,
          "velocity": 1
        },
        {
          "duration": 0.1949950000000058,
          "durationTicks": 96,
          "midi": 52,
          "name": "E3",
          "ticks": 80064,
          "time": 162.38558700000002,
          "velocity": 1
        },
        {
          "duration": 0.1949950000000058,
          "durationTicks": 96,
          "midi": 59,
          "name": "B3",
          "ticks": 80064,
          "time": 162.38558700000002,
          "velocity": 1
        },
        {
          "duration": 0.19499499999997738,
          "durationTicks": 96,
          "midi": 52,
          "name": "E3",
          "ticks": 80160,
          "time": 162.58058200000002,
          "velocity": 1
        },
        {
          "duration": 0.19499499999997738,
          "durationTicks": 96,
          "midi": 59,
          "name": "B3",
          "ticks": 80160,
          "time": 162.58058200000002,
          "velocity": 1
        },
        {
          "duration": 0.1949950000000058,
          "durationTicks": 96,
          "midi": 52,
          "name": "E3",
          "ticks": 80256,
          "time": 162.775577,
          "velocity": 1
        },
        {
          "duration": 0.1949950000000058,
          "durationTicks": 96,
          "midi": 59,
          "name": "B3",
          "ticks": 80256,
          "time": 162.775577,
          "velocity": 1
        },
        {
          "duration": 0.1949950000000058,
          "durationTicks": 96,
          "midi": 52,
          "name": "E3",
          "ticks": 80352,
          "time": 162.970572,
          "velocity": 1
        },
        {
          "duration": 0.1949950000000058,
          "durationTicks": 96,
          "midi": 59,
          "name": "B3",
          "ticks": 80352,
          "time": 162.970572,
          "velocity": 1
        },
        {
          "duration": 0.1949950000000058,
          "durationTicks": 96,
          "midi": 52,
          "name": "E3",
          "ticks": 80448,
          "time": 163.165567,
          "velocity": 1
        },
        {
          "duration": 0.1949950000000058,
          "durationTicks": 96,
          "midi": 59,
          "name": "B3",
          "ticks": 80448,
          "time": 163.165567,
          "velocity": 1
        },
        {
          "duration": 0.1949950000000058,
          "durationTicks": 96,
          "midi": 50,
          "name": "D3",
          "ticks": 80544,
          "time": 163.36056200000002,
          "velocity": 1
        },
        {
          "duration": 0.1949950000000058,
          "durationTicks": 96,
          "midi": 57,
          "name": "A3",
          "ticks": 80544,
          "time": 163.36056200000002,
          "velocity": 1
        },
        {
          "duration": 0.19499499999997738,
          "durationTicks": 96,
          "midi": 50,
          "name": "D3",
          "ticks": 80640,
          "time": 163.55555700000002,
          "velocity": 1
        },
        {
          "duration": 0.19499499999997738,
          "durationTicks": 96,
          "midi": 57,
          "name": "A3",
          "ticks": 80640,
          "time": 163.55555700000002,
          "velocity": 1
        },
        {
          "duration": 0.1949950000000058,
          "durationTicks": 96,
          "midi": 50,
          "name": "D3",
          "ticks": 80736,
          "time": 163.750552,
          "velocity": 1
        },
        {
          "duration": 0.1949950000000058,
          "durationTicks": 96,
          "midi": 57,
          "name": "A3",
          "ticks": 80736,
          "time": 163.750552,
          "velocity": 1
        },
        {
          "duration": 0.1949950000000058,
          "durationTicks": 96,
          "midi": 50,
          "name": "D3",
          "ticks": 80832,
          "time": 163.945547,
          "velocity": 1
        },
        {
          "duration": 0.1949950000000058,
          "durationTicks": 96,
          "midi": 57,
          "name": "A3",
          "ticks": 80832,
          "time": 163.945547,
          "velocity": 1
        },
        {
          "duration": 0.1949950000000058,
          "durationTicks": 96,
          "midi": 50,
          "name": "D3",
          "ticks": 80928,
          "time": 164.140542,
          "velocity": 1
        },
        {
          "duration": 0.1949950000000058,
          "durationTicks": 96,
          "midi": 57,
          "name": "A3",
          "ticks": 80928,
          "time": 164.140542,
          "velocity": 1
        },
        {
          "duration": 0.19499499999997738,
          "durationTicks": 96,
          "midi": 50,
          "name": "D3",
          "ticks": 81024,
          "time": 164.33553700000002,
          "velocity": 1
        },
        {
          "duration": 0.19499499999997738,
          "durationTicks": 96,
          "midi": 57,
          "name": "A3",
          "ticks": 81024,
          "time": 164.33553700000002,
          "velocity": 1
        },
        {
          "duration": 0.1949950000000058,
          "durationTicks": 96,
          "midi": 50,
          "name": "D3",
          "ticks": 81120,
          "time": 164.530532,
          "velocity": 1
        },
        {
          "duration": 0.1949950000000058,
          "durationTicks": 96,
          "midi": 57,
          "name": "A3",
          "ticks": 81120,
          "time": 164.530532,
          "velocity": 1
        },
        {
          "duration": 0.1949950000000058,
          "durationTicks": 96,
          "midi": 50,
          "name": "D3",
          "ticks": 81216,
          "time": 164.725527,
          "velocity": 1
        },
        {
          "duration": 0.1949950000000058,
          "durationTicks": 96,
          "midi": 57,
          "name": "A3",
          "ticks": 81216,
          "time": 164.725527,
          "velocity": 1
        },
        {
          "duration": 0.1949950000000058,
          "durationTicks": 96,
          "midi": 43,
          "name": "G2",
          "ticks": 81312,
          "time": 164.920522,
          "velocity": 1
        },
        {
          "duration": 0.1949950000000058,
          "durationTicks": 96,
          "midi": 50,
          "name": "D3",
          "ticks": 81312,
          "time": 164.920522,
          "velocity": 1
        },
        {
          "duration": 0.4874874999999861,
          "durationTicks": 240,
          "midi": 38,
          "name": "D2",
          "ticks": 81408,
          "time": 165.115517,
          "velocity": 1
        },
        {
          "duration": 0.4874874999999861,
          "durationTicks": 240,
          "midi": 45,
          "name": "A2",
          "ticks": 81408,
          "time": 165.115517,
          "velocity": 1
        },
        {
          "duration": 1.8524524999999983,
          "durationTicks": 912,
          "midi": 40,
          "name": "E2",
          "ticks": 81648,
          "time": 165.6030045,
          "velocity": 1
        },
        {
          "duration": 1.8524524999999983,
          "durationTicks": 912,
          "midi": 47,
          "name": "B2",
          "ticks": 81648,
          "time": 165.6030045,
          "velocity": 1
        }
      ],
      "endOfTrackTicks": 82560
    },
    {
      "channel": 2,
      "controlChanges": {},
      "pitchBends": [],
      "instrument": {
        "family": "strings",
        "name": "violin",
        "number": 40
      },
      "name": "",
      "notes": [
        {
          "duration": 0.19499500000000003,
          "durationTicks": 96,
          "midi": 57,
          "name": "A3",
          "ticks": 768,
          "time": 1.55996,
          "velocity": 1
        },
        {
          "duration": 0.19499500000000003,
          "durationTicks": 96,
          "midi": 59,
          "name": "B3",
          "ticks": 864,
          "time": 1.754955,
          "velocity": 1
        },
        {
          "duration": 0.1949949999999998,
          "durationTicks": 96,
          "midi": 62,
          "name": "D4",
          "ticks": 960,
          "time": 1.94995,
          "velocity": 1
        },
        {
          "duration": 0.19499500000000003,
          "durationTicks": 96,
          "midi": 64,
          "name": "E4",
          "ticks": 1056,
          "time": 2.144945,
          "velocity": 1
        },
        {
          "duration": 0.19499500000000003,
          "durationTicks": 96,
          "midi": 57,
          "name": "A3",
          "ticks": 1152,
          "time": 2.33994,
          "velocity": 1
        },
        {
          "duration": 0.19499500000000003,
          "durationTicks": 96,
          "midi": 59,
          "name": "B3",
          "ticks": 1248,
          "time": 2.534935,
          "velocity": 1
        },
        {
          "duration": 0.19499500000000003,
          "durationTicks": 96,
          "midi": 62,
          "name": "D4",
          "ticks": 1344,
          "time": 2.72993,
          "velocity": 1
        },
        {
          "duration": 0.19499500000000003,
          "durationTicks": 96,
          "midi": 64,
          "name": "E4",
          "ticks": 1440,
          "time": 2.924925,
          "velocity": 1
        },
        {
          "duration": 0.19499500000000047,
          "durationTicks": 96,
          "midi": 57,
          "name": "A3",
          "ticks": 2304,
          "time": 4.67988,
          "velocity": 1
        },
        {
          "duration": 0.19499499999999959,
          "durationTicks": 96,
          "midi": 59,
          "name": "B3",
          "ticks": 2400,
          "time": 4.874875,
          "velocity": 1
        },
        {
          "duration": 0.19499500000000047,
          "durationTicks": 96,
          "midi": 62,
          "name": "D4",
          "ticks": 2496,
          "time": 5.06987,
          "velocity": 1
        },
        {
          "duration": 0.19499499999999959,
          "durationTicks": 96,
          "midi": 64,
          "name": "E4",
          "ticks": 2592,
          "time": 5.264865,
          "velocity": 1
        },
        {
          "duration": 0.19499500000000047,
          "durationTicks": 96,
          "midi": 57,
          "name": "A3",
          "ticks": 2688,
          "time": 5.45986,
          "velocity": 1
        },
        {
          "duration": 0.19499499999999959,
          "durationTicks": 96,
          "midi": 59,
          "name": "B3",
          "ticks": 2784,
          "time": 5.654855,
          "velocity": 1
        },
        {
          "duration": 0.19499500000000047,
          "durationTicks": 96,
          "midi": 62,
          "name": "D4",
          "ticks": 2880,
          "time": 5.84985,
          "velocity": 1
        },
        {
          "duration": 0.19499499999999959,
          "durationTicks": 96,
          "midi": 64,
          "name": "E4",
          "ticks": 2976,
          "time": 6.0448450000000005,
          "velocity": 1
        },
        {
          "duration": 0.19499499999999959,
          "durationTicks": 96,
          "midi": 57,
          "name": "A3",
          "ticks": 3840,
          "time": 7.7998,
          "velocity": 1
        },
        {
          "duration": 0.19499500000000047,
          "durationTicks": 96,
          "midi": 59,
          "name": "B3",
          "ticks": 3936,
          "time": 7.994795,
          "velocity": 1
        },
        {
          "duration": 0.19499500000000047,
          "durationTicks": 96,
          "midi": 62,
          "name": "D4",
          "ticks": 4032,
          "time": 8.18979,
          "velocity": 1
        },
        {
          "duration": 0.1949949999999987,
          "durationTicks": 96,
          "midi": 64,
          "name": "E4",
          "ticks": 4128,
          "time": 8.384785,
          "velocity": 1
        },
        {
          "duration": 0.19499500000000047,
          "durationTicks": 96,
          "midi": 57,
          "name": "A3",
          "ticks": 4224,
          "time": 8.57978,
          "velocity": 1
        },
        {
          "duration": 0.19499500000000047,
          "durationTicks": 96,
          "midi": 59,
          "name": "B3",
          "ticks": 4320,
          "time": 8.774775,
          "velocity": 1
        },
        {
          "duration": 0.1949949999999987,
          "durationTicks": 96,
          "midi": 62,
          "name": "D4",
          "ticks": 4416,
          "time": 8.96977,
          "velocity": 1
        },
        {
          "duration": 0.19499500000000047,
          "durationTicks": 96,
          "midi": 64,
          "name": "E4",
          "ticks": 4512,
          "time": 9.164765,
          "velocity": 1
        },
        {
          "duration": 0.19354850000000035,
          "durationTicks": 96,
          "midi": 57,
          "name": "A3",
          "ticks": 5376,
          "time": 10.908147999999999,
          "velocity": 1
        },
        {
          "duration": 0.19354850000000035,
          "durationTicks": 96,
          "midi": 59,
          "name": "B3",
          "ticks": 5472,
          "time": 11.1016965,
          "velocity": 1
        },
        {
          "duration": 0.19354850000000035,
          "durationTicks": 96,
          "midi": 62,
          "name": "D4",
          "ticks": 5568,
          "time": 11.295245,
          "velocity": 1
        },
        {
          "duration": 0.19354849999999857,
          "durationTicks": 96,
          "midi": 64,
          "name": "E4",
          "ticks": 5664,
          "time": 11.4887935,
          "velocity": 1
        },
        {
          "duration": 0.19354850000000035,
          "durationTicks": 96,
          "midi": 57,
          "name": "A3",
          "ticks": 5760,
          "time": 11.682341999999998,
          "velocity": 1
        },
        {
          "duration": 0.19354850000000035,
          "durationTicks": 96,
          "midi": 59,
          "name": "B3",
          "ticks": 5856,
          "time": 11.875890499999999,
          "velocity": 1
        },
        {
          "duration": 0.19354850000000035,
          "durationTicks": 96,
          "midi": 62,
          "name": "D4",
          "ticks": 5952,
          "time": 12.069439,
          "velocity": 1
        },
        {
          "duration": 0.19354850000000035,
          "durationTicks": 96,
          "midi": 64,
          "name": "E4",
          "ticks": 6048,
          "time": 12.2629875,
          "velocity": 1
        }
      ]
    },
    {
      "channel": 2,
      "controlChanges": {},
      "pitchBends": [],
      "instrument": {
        "family": "bass",
        "name": "slap bass 1",
        "number": 36
      },
      "name": "",
      "notes": [
        {
          "duration": 0.1949949999999987,
          "durationTicks": 96,
          "midi": 40,
          "name": "E2",
          "ticks": 12192,
          "time": 24.542267000000002,
          "velocity": 1
        },
        {
          "duration": 0.19499500000000225,
          "durationTicks": 96,
          "midi": 40,
          "name": "E2",
          "ticks": 12288,
          "time": 24.737262,
          "velocity": 1
        },
        {
          "duration": 0.1949949999999987,
          "durationTicks": 96,
          "midi": 40,
          "name": "E2",
          "ticks": 12384,
          "time": 24.932257000000003,
          "velocity": 1
        },
        {
          "duration": 0.1949949999999987,
          "durationTicks": 96,
          "midi": 40,
          "name": "E2",
          "ticks": 12480,
          "time": 25.127252000000002,
          "velocity": 1
        },
        {
          "duration": 0.19499500000000225,
          "durationTicks": 96,
          "midi": 40,
          "name": "E2",
          "ticks": 12576,
          "time": 25.322247,
          "velocity": 1
        },
        {
          "duration": 0.1949949999999987,
          "durationTicks": 96,
          "midi": 40,
          "name": "E2",
          "ticks": 12672,
          "time": 25.517242000000003,
          "velocity": 1
        },
        {
          "duration": 0.19499500000000225,
          "durationTicks": 96,
          "midi": 40,
          "name": "E2",
          "ticks": 12768,
          "time": 25.712237000000002,
          "velocity": 1
        },
        {
          "duration": 0.1949949999999987,
          "durationTicks": 96,
          "midi": 40,
          "name": "E2",
          "ticks": 12864,
          "time": 25.907232000000004,
          "velocity": 1
        },
        {
          "duration": 0.1949949999999987,
          "durationTicks": 96,
          "midi": 36,
          "name": "C2",
          "ticks": 12960,
          "time": 26.102227000000003,
          "velocity": 1
        },
        {
          "duration": 0.19499500000000225,
          "durationTicks": 96,
          "midi": 36,
          "name": "C2",
          "ticks": 13056,
          "time": 26.297222,
          "velocity": 1
        },
        {
          "duration": 0.1949949999999987,
          "durationTicks": 96,
          "midi": 36,
          "name": "C2",
          "ticks": 13152,
          "time": 26.492217000000004,
          "velocity": 1
        },
        {
          "duration": 0.1949949999999987,
          "durationTicks": 96,
          "midi": 36,
          "name": "C2",
          "ticks": 13248,
          "time": 26.687212000000002,
          "velocity": 1
        },
        {
          "duration": 0.19499500000000225,
          "durationTicks": 96,
          "midi": 50,
          "name": "D3",
          "ticks": 13344,
          "time": 26.882207,
          "velocity": 1
        },
        {
          "duration": 0.1949949999999987,
          "durationTicks": 96,
          "midi": 50,
          "name": "D3",
          "ticks": 13440,
          "time": 27.077202000000003,
          "velocity": 1
        },
        {
          "duration": 0.19499500000000225,
          "durationTicks": 96,
          "midi": 50,
          "name": "D3",
          "ticks": 13536,
          "time": 27.272197000000002,
          "velocity": 1
        },
        {
          "duration": 0.1949949999999987,
          "durationTicks": 96,
          "midi": 50,
          "name": "D3",
          "ticks": 13632,
          "time": 27.467192000000004,
          "velocity": 1
        },
        {
          "duration": 0.1949949999999987,
          "durationTicks": 96,
          "midi": 40,
          "name": "E2",
          "ticks": 13728,
          "time": 27.662187000000003,
          "velocity": 1
        },
        {
          "duration": 0.19499500000000225,
          "durationTicks": 96,
          "midi": 40,
          "name": "E2",
          "ticks": 13824,
          "time": 27.857182,
          "velocity": 1
        },
        {
          "duration": 0.1949949999999987,
          "durationTicks": 96,
          "midi": 40,
          "name": "E2",
          "ticks": 13920,
          "time": 28.052177000000004,
          "velocity": 1
        },
        {
          "duration": 0.1949949999999987,
          "durationTicks": 96,
          "midi": 40,
          "name": "E2",
          "ticks": 14016,
          "time": 28.247172000000003,
          "velocity": 1
        },
        {
          "duration": 0.19499500000000225,
          "durationTicks": 96,
          "midi": 40,
          "name": "E2",
          "ticks": 14112,
          "time": 28.442167,
          "velocity": 1
        },
        {
          "duration": 0.1949949999999987,
          "durationTicks": 96,
          "midi": 40,
          "name": "E2",
          "ticks": 14208,
          "time": 28.637162000000004,
          "velocity": 1
        },
        {
          "duration": 0.1949949999999987,
          "durationTicks": 96,
          "midi": 40,
          "name": "E2",
          "ticks": 14304,
          "time": 28.832157000000002,
          "velocity": 1
        },
        {
          "duration": 0.19499500000000225,
          "durationTicks": 96,
          "midi": 40,
          "name": "E2",
          "ticks": 14400,
          "time": 29.027152,
          "velocity": 1
        },
        {
          "duration": 0.1949949999999987,
          "durationTicks": 96,
          "midi": 40,
          "name": "E2",
          "ticks": 14496,
          "time": 29.222147000000003,
          "velocity": 1
        },
        {
          "duration": 0.19499500000000225,
          "durationTicks": 96,
          "midi": 40,
          "name": "E2",
          "ticks": 14592,
          "time": 29.417142000000002,
          "velocity": 1
        },
        {
          "duration": 0.1949949999999987,
          "durationTicks": 96,
          "midi": 40,
          "name": "E2",
          "ticks": 14688,
          "time": 29.612137000000004,
          "velocity": 1
        },
        {
          "duration": 0.1949949999999987,
          "durationTicks": 96,
          "midi": 40,
          "name": "E2",
          "ticks": 14784,
          "time": 29.807132000000003,
          "velocity": 1
        },
        {
          "duration": 0.19499500000000225,
          "durationTicks": 96,
          "midi": 45,
          "name": "A2",
          "ticks": 14880,
          "time": 30.002127,
          "velocity": 1
        },
        {
          "duration": 0.1949949999999987,
          "durationTicks": 96,
          "midi": 47,
          "name": "B2",
          "ticks": 14976,
          "time": 30.197122000000004,
          "velocity": 1
        },
        {
          "duration": 0.19499500000000225,
          "durationTicks": 96,
          "midi": 38,
          "name": "D2",
          "ticks": 15072,
          "time": 30.392117000000002,
          "velocity": 1
        },
        {
          "duration": 0.1949949999999987,
          "durationTicks": 96,
          "midi": 40,
          "name": "E2",
          "ticks": 15168,
          "time": 30.587112000000005,
          "velocity": 1
        },
        {
          "duration": 0.1949949999999987,
          "durationTicks": 96,
          "midi": 40,
          "name": "E2",
          "ticks": 15264,
          "time": 30.782107000000003,
          "velocity": 1
        },
        {
          "duration": 0.19499500000000225,
          "durationTicks": 96,
          "midi": 40,
          "name": "E2",
          "ticks": 15360,
          "time": 30.977102000000002,
          "velocity": 1
        },
        {
          "duration": 0.1949949999999987,
          "durationTicks": 96,
          "midi": 40,
          "name": "E2",
          "ticks": 15456,
          "time": 31.172097000000004,
          "velocity": 1
        },
        {
          "duration": 0.1949949999999987,
          "durationTicks": 96,
          "midi": 40,
          "name": "E2",
          "ticks": 15552,
          "time": 31.367092000000003,
          "velocity": 1
        },
        {
          "duration": 0.19499500000000225,
          "durationTicks": 96,
          "midi": 40,
          "name": "E2",
          "ticks": 15648,
          "time": 31.562087000000002,
          "velocity": 1
        },
        {
          "duration": 0.1949949999999987,
          "durationTicks": 96,
          "midi": 40,
          "name": "E2",
          "ticks": 15744,
          "time": 31.757082000000004,
          "velocity": 1
        },
        {
          "duration": 0.1949949999999987,
          "durationTicks": 96,
          "midi": 40,
          "name": "E2",
          "ticks": 15840,
          "time": 31.952077000000003,
          "velocity": 1
        },
        {
          "duration": 0.1949949999999987,
          "durationTicks": 96,
          "midi": 40,
          "name": "E2",
          "ticks": 15936,
          "time": 32.147072,
          "velocity": 1
        },
        {
          "duration": 0.1949950000000058,
          "durationTicks": 96,
          "midi": 36,
          "name": "C2",
          "ticks": 16032,
          "time": 32.342067,
          "velocity": 1
        },
        {
          "duration": 0.1949949999999987,
          "durationTicks": 96,
          "midi": 36,
          "name": "C2",
          "ticks": 16128,
          "time": 32.537062000000006,
          "velocity": 1
        },
        {
          "duration": 0.1949949999999987,
          "durationTicks": 96,
          "midi": 36,
          "name": "C2",
          "ticks": 16224,
          "time": 32.732057000000005,
          "velocity": 1
        },
        {
          "duration": 0.1949949999999987,
          "durationTicks": 96,
          "midi": 36,
          "name": "C2",
          "ticks": 16320,
          "time": 32.927052,
          "velocity": 1
        },
        {
          "duration": 0.1949949999999987,
          "durationTicks": 96,
          "midi": 50,
          "name": "D3",
          "ticks": 16416,
          "time": 33.122047,
          "velocity": 1
        },
        {
          "duration": 0.1949950000000058,
          "durationTicks": 96,
          "midi": 50,
          "name": "D3",
          "ticks": 16512,
          "time": 33.317042,
          "velocity": 1
        },
        {
          "duration": 0.1949949999999987,
          "durationTicks": 96,
          "midi": 50,
          "name": "D3",
          "ticks": 16608,
          "time": 33.51203700000001,
          "velocity": 1
        },
        {
          "duration": 0.1949949999999987,
          "durationTicks": 96,
          "midi": 50,
          "name": "D3",
          "ticks": 16704,
          "time": 33.707032000000005,
          "velocity": 1
        },
        {
          "duration": 0.1949949999999987,
          "durationTicks": 96,
          "midi": 40,
          "name": "E2",
          "ticks": 16800,
          "time": 33.902027000000004,
          "velocity": 1
        },
        {
          "duration": 0.1949949999999987,
          "durationTicks": 96,
          "midi": 40,
          "name": "E2",
          "ticks": 16896,
          "time": 34.097022,
          "velocity": 1
        },
        {
          "duration": 0.1949950000000058,
          "durationTicks": 96,
          "midi": 40,
          "name": "E2",
          "ticks": 16992,
          "time": 34.292017,
          "velocity": 1
        },
        {
          "duration": 0.1949949999999987,
          "durationTicks": 96,
          "midi": 40,
          "name": "E2",
          "ticks": 17088,
          "time": 34.48701200000001,
          "velocity": 1
        },
        {
          "duration": 0.1949949999999987,
          "durationTicks": 96,
          "midi": 40,
          "name": "E2",
          "ticks": 17184,
          "time": 34.682007000000006,
          "velocity": 1
        },
        {
          "duration": 0.1949949999999987,
          "durationTicks": 96,
          "midi": 40,
          "name": "E2",
          "ticks": 17280,
          "time": 34.877002000000005,
          "velocity": 1
        },
        {
          "duration": 0.1949949999999987,
          "durationTicks": 96,
          "midi": 40,
          "name": "E2",
          "ticks": 17376,
          "time": 35.071997,
          "velocity": 1
        },
        {
          "duration": 0.1949949999999987,
          "durationTicks": 96,
          "midi": 40,
          "name": "E2",
          "ticks": 17472,
          "time": 35.266992,
          "velocity": 1
        },
        {
          "duration": 0.1949950000000058,
          "durationTicks": 96,
          "midi": 40,
          "name": "E2",
          "ticks": 17568,
          "time": 35.461987,
          "velocity": 1
        },
        {
          "duration": 0.1949949999999987,
          "durationTicks": 96,
          "midi": 40,
          "name": "E2",
          "ticks": 17664,
          "time": 35.656982000000006,
          "velocity": 1
        },
        {
          "duration": 0.1949949999999987,
          "durationTicks": 96,
          "midi": 40,
          "name": "E2",
          "ticks": 17760,
          "time": 35.851977000000005,
          "velocity": 1
        },
        {
          "duration": 0.1949949999999987,
          "durationTicks": 96,
          "midi": 40,
          "name": "E2",
          "ticks": 17856,
          "time": 36.046972000000004,
          "velocity": 1
        },
        {
          "duration": 0.1949949999999987,
          "durationTicks": 96,
          "midi": 45,
          "name": "A2",
          "ticks": 17952,
          "time": 36.241967,
          "velocity": 1
        },
        {
          "duration": 0.1949949999999987,
          "durationTicks": 96,
          "midi": 47,
          "name": "B2",
          "ticks": 18048,
          "time": 36.436962,
          "velocity": 1
        },
        {
          "duration": 0.1949950000000058,
          "durationTicks": 96,
          "midi": 38,
          "name": "D2",
          "ticks": 18144,
          "time": 36.631957,
          "velocity": 1
        },
        {
          "duration": 0.1949949999999987,
          "durationTicks": 96,
          "midi": 40,
          "name": "E2",
          "ticks": 18240,
          "time": 36.826952000000006,
          "velocity": 1
        },
        {
          "duration": 0.19480499999999523,
          "durationTicks": 96,
          "midi": 40,
          "name": "E2",
          "ticks": 24384,
          "time": 49.300647000000005,
          "velocity": 1
        },
        {
          "duration": 0.19480500000000234,
          "durationTicks": 96,
          "midi": 40,
          "name": "E2",
          "ticks": 24480,
          "time": 49.495452,
          "velocity": 1
        },
        {
          "duration": 0.19480500000000234,
          "durationTicks": 96,
          "midi": 40,
          "name": "E2",
          "ticks": 24576,
          "time": 49.690257,
          "velocity": 1
        },
        {
          "duration": 0.19480499999999523,
          "durationTicks": 96,
          "midi": 40,
          "name": "E2",
          "ticks": 24672,
          "time": 49.885062000000005,
          "velocity": 1
        },
        {
          "duration": 0.19480500000000234,
          "durationTicks": 96,
          "midi": 40,
          "name": "E2",
          "ticks": 24768,
          "time": 50.079867,
          "velocity": 1
        },
        {
          "duration": 0.19480500000000234,
          "durationTicks": 96,
          "midi": 40,
          "name": "E2",
          "ticks": 24864,
          "time": 50.274672,
          "velocity": 1
        },
        {
          "duration": 0.19480499999999523,
          "durationTicks": 96,
          "midi": 40,
          "name": "E2",
          "ticks": 24960,
          "time": 50.469477000000005,
          "velocity": 1
        },
        {
          "duration": 0.19480500000000234,
          "durationTicks": 96,
          "midi": 40,
          "name": "E2",
          "ticks": 25056,
          "time": 50.664282,
          "velocity": 1
        },
        {
          "duration": 0.19480500000000234,
          "durationTicks": 96,
          "midi": 40,
          "name": "E2",
          "ticks": 25152,
          "time": 50.859087,
          "velocity": 1
        },
        {
          "duration": 0.19480500000000234,
          "durationTicks": 96,
          "midi": 40,
          "name": "E2",
          "ticks": 25248,
          "time": 51.053892000000005,
          "velocity": 1
        },
        {
          "duration": 0.19480499999999523,
          "durationTicks": 96,
          "midi": 40,
          "name": "E2",
          "ticks": 25344,
          "time": 51.24869700000001,
          "velocity": 1
        },
        {
          "duration": 0.19480500000000234,
          "durationTicks": 96,
          "midi": 40,
          "name": "E2",
          "ticks": 25440,
          "time": 51.443502,
          "velocity": 1
        },
        {
          "duration": 0.19480499999999523,
          "durationTicks": 96,
          "midi": 40,
          "name": "E2",
          "ticks": 25536,
          "time": 51.638307000000005,
          "velocity": 1
        },
        {
          "duration": 0.19480500000000234,
          "durationTicks": 96,
          "midi": 40,
          "name": "E2",
          "ticks": 25632,
          "time": 51.833112,
          "velocity": 1
        },
        {
          "duration": 0.19480500000000234,
          "durationTicks": 96,
          "midi": 40,
          "name": "E2",
          "ticks": 25728,
          "time": 52.027917,
          "velocity": 1
        },
        {
          "duration": 0.19480500000000234,
          "durationTicks": 96,
          "midi": 40,
          "name": "E2",
          "ticks": 25824,
          "time": 52.222722000000005,
          "velocity": 1
        },
        {
          "duration": 0.19480499999999523,
          "durationTicks": 96,
          "midi": 38,
          "name": "D2",
          "ticks": 25920,
          "time": 52.41752700000001,
          "velocity": 1
        },
        {
          "duration": 0.19480500000000234,
          "durationTicks": 96,
          "midi": 38,
          "name": "D2",
          "ticks": 26016,
          "time": 52.612332,
          "velocity": 1
        },
        {
          "duration": 0.19480499999999523,
          "durationTicks": 96,
          "midi": 38,
          "name": "D2",
          "ticks": 26112,
          "time": 52.807137000000004,
          "velocity": 1
        },
        {
          "duration": 0.19480500000000234,
          "durationTicks": 96,
          "midi": 38,
          "name": "D2",
          "ticks": 26208,
          "time": 53.001942,
          "velocity": 1
        },
        {
          "duration": 0.19480500000000234,
          "durationTicks": 96,
          "midi": 38,
          "name": "D2",
          "ticks": 26304,
          "time": 53.196747,
          "velocity": 1
        },
        {
          "duration": 0.19480500000000234,
          "durationTicks": 96,
          "midi": 38,
          "name": "D2",
          "ticks": 26400,
          "time": 53.391552000000004,
          "velocity": 1
        },
        {
          "duration": 0.19480499999999523,
          "durationTicks": 96,
          "midi": 38,
          "name": "D2",
          "ticks": 26496,
          "time": 53.58635700000001,
          "velocity": 1
        },
        {
          "duration": 0.19480500000000234,
          "durationTicks": 96,
          "midi": 38,
          "name": "D2",
          "ticks": 26592,
          "time": 53.781162,
          "velocity": 1
        },
        {
          "duration": 0.19480499999999523,
          "durationTicks": 96,
          "midi": 38,
          "name": "D2",
          "ticks": 26688,
          "time": 53.975967000000004,
          "velocity": 1
        },
        {
          "duration": 0.19480500000000234,
          "durationTicks": 96,
          "midi": 38,
          "name": "D2",
          "ticks": 26784,
          "time": 54.170772,
          "velocity": 1
        },
        {
          "duration": 0.19480500000000234,
          "durationTicks": 96,
          "midi": 38,
          "name": "D2",
          "ticks": 26880,
          "time": 54.365577,
          "velocity": 1
        },
        {
          "duration": 0.19480500000000234,
          "durationTicks": 96,
          "midi": 38,
          "name": "D2",
          "ticks": 26976,
          "time": 54.560382000000004,
          "velocity": 1
        },
        {
          "duration": 0.19480499999999523,
          "durationTicks": 96,
          "midi": 38,
          "name": "D2",
          "ticks": 27072,
          "time": 54.75518700000001,
          "velocity": 1
        },
        {
          "duration": 0.19480500000000234,
          "durationTicks": 96,
          "midi": 38,
          "name": "D2",
          "ticks": 27168,
          "time": 54.949992,
          "velocity": 1
        },
        {
          "duration": 0.19480499999999523,
          "durationTicks": 96,
          "midi": 38,
          "name": "D2",
          "ticks": 27264,
          "time": 55.144797000000004,
          "velocity": 1
        },
        {
          "duration": 0.19480500000000234,
          "durationTicks": 96,
          "midi": 38,
          "name": "D2",
          "ticks": 27360,
          "time": 55.339602,
          "velocity": 1
        },
        {
          "duration": 0.19480500000000234,
          "durationTicks": 96,
          "midi": 40,
          "name": "E2",
          "ticks": 27456,
          "time": 55.534407,
          "velocity": 1
        },
        {
          "duration": 0.19480500000000234,
          "durationTicks": 96,
          "midi": 40,
          "name": "E2",
          "ticks": 27552,
          "time": 55.729212000000004,
          "velocity": 1
        },
        {
          "duration": 0.19480499999999523,
          "durationTicks": 96,
          "midi": 40,
          "name": "E2",
          "ticks": 27648,
          "time": 55.924017000000006,
          "velocity": 1
        },
        {
          "duration": 0.19480500000000234,
          "durationTicks": 96,
          "midi": 40,
          "name": "E2",
          "ticks": 27744,
          "time": 56.118822,
          "velocity": 1
        },
        {
          "duration": 0.19480499999999523,
          "durationTicks": 96,
          "midi": 40,
          "name": "E2",
          "ticks": 27840,
          "time": 56.313627000000004,
          "velocity": 1
        },
        {
          "duration": 0.19480500000000234,
          "durationTicks": 96,
          "midi": 40,
          "name": "E2",
          "ticks": 27936,
          "time": 56.508432,
          "velocity": 1
        },
        {
          "duration": 0.19480500000000234,
          "durationTicks": 96,
          "midi": 40,
          "name": "E2",
          "ticks": 28032,
          "time": 56.703237,
          "velocity": 1
        },
        {
          "duration": 0.19480500000000234,
          "durationTicks": 96,
          "midi": 40,
          "name": "E2",
          "ticks": 28128,
          "time": 56.898042000000004,
          "velocity": 1
        },
        {
          "duration": 0.19480499999999523,
          "durationTicks": 96,
          "midi": 40,
          "name": "E2",
          "ticks": 28224,
          "time": 57.092847000000006,
          "velocity": 1
        },
        {
          "duration": 0.19480500000000234,
          "durationTicks": 96,
          "midi": 40,
          "name": "E2",
          "ticks": 28320,
          "time": 57.287652,
          "velocity": 1
        },
        {
          "duration": 0.19480499999999523,
          "durationTicks": 96,
          "midi": 40,
          "name": "E2",
          "ticks": 28416,
          "time": 57.482457000000004,
          "velocity": 1
        },
        {
          "duration": 0.19480500000000234,
          "durationTicks": 96,
          "midi": 40,
          "name": "E2",
          "ticks": 28512,
          "time": 57.677262,
          "velocity": 1
        },
        {
          "duration": 0.19480500000000234,
          "durationTicks": 96,
          "midi": 40,
          "name": "E2",
          "ticks": 28608,
          "time": 57.872067,
          "velocity": 1
        },
        {
          "duration": 0.19480500000000234,
          "durationTicks": 96,
          "midi": 40,
          "name": "E2",
          "ticks": 28704,
          "time": 58.066872000000004,
          "velocity": 1
        },
        {
          "duration": 0.19480499999999523,
          "durationTicks": 96,
          "midi": 40,
          "name": "E2",
          "ticks": 28800,
          "time": 58.261677000000006,
          "velocity": 1
        },
        {
          "duration": 0.19480500000000234,
          "durationTicks": 96,
          "midi": 40,
          "name": "E2",
          "ticks": 28896,
          "time": 58.456482,
          "velocity": 1
        },
        {
          "duration": 0.19480499999999523,
          "durationTicks": 96,
          "midi": 38,
          "name": "D2",
          "ticks": 28992,
          "time": 58.651287,
          "velocity": 1
        },
        {
          "duration": 0.19480500000000234,
          "durationTicks": 96,
          "midi": 38,
          "name": "D2",
          "ticks": 29088,
          "time": 58.846092,
          "velocity": 1
        },
        {
          "duration": 0.19480500000000234,
          "durationTicks": 96,
          "midi": 38,
          "name": "D2",
          "ticks": 29184,
          "time": 59.040897,
          "velocity": 1
        },
        {
          "duration": 0.19480500000000234,
          "durationTicks": 96,
          "midi": 38,
          "name": "D2",
          "ticks": 29280,
          "time": 59.235702,
          "velocity": 1
        },
        {
          "duration": 0.19480500000000234,
          "durationTicks": 96,
          "midi": 38,
          "name": "D2",
          "ticks": 29376,
          "time": 59.430507000000006,
          "velocity": 1
        },
        {
          "duration": 0.19480499999999523,
          "durationTicks": 96,
          "midi": 38,
          "name": "D2",
          "ticks": 29472,
          "time": 59.62531200000001,
          "velocity": 1
        },
        {
          "duration": 0.19480499999999523,
          "durationTicks": 96,
          "midi": 38,
          "name": "D2",
          "ticks": 29568,
          "time": 59.820117,
          "velocity": 1
        },
        {
          "duration": 0.19480500000000234,
          "durationTicks": 96,
          "midi": 38,
          "name": "D2",
          "ticks": 29664,
          "time": 60.014922,
          "velocity": 1
        },
        {
          "duration": 0.19480500000000234,
          "durationTicks": 96,
          "midi": 38,
          "name": "D2",
          "ticks": 29760,
          "time": 60.209727,
          "velocity": 1
        },
        {
          "duration": 0.19480500000000234,
          "durationTicks": 96,
          "midi": 38,
          "name": "D2",
          "ticks": 29856,
          "time": 60.404532,
          "velocity": 1
        },
        {
          "duration": 0.19480500000000234,
          "durationTicks": 96,
          "midi": 38,
          "name": "D2",
          "ticks": 29952,
          "time": 60.599337000000006,
          "velocity": 1
        },
        {
          "duration": 0.19480499999999523,
          "durationTicks": 96,
          "midi": 38,
          "name": "D2",
          "ticks": 30048,
          "time": 60.79414200000001,
          "velocity": 1
        },
        {
          "duration": 0.19480499999999523,
          "durationTicks": 96,
          "midi": 38,
          "name": "D2",
          "ticks": 30144,
          "time": 60.988947,
          "velocity": 1
        },
        {
          "duration": 0.19480500000000234,
          "durationTicks": 96,
          "midi": 38,
          "name": "D2",
          "ticks": 30240,
          "time": 61.183752,
          "velocity": 1
        },
        {
          "duration": 0.19480500000000234,
          "durationTicks": 96,
          "midi": 38,
          "name": "D2",
          "ticks": 30336,
          "time": 61.378557,
          "velocity": 1
        },
        {
          "duration": 0.19480500000000234,
          "durationTicks": 96,
          "midi": 38,
          "name": "D2",
          "ticks": 30432,
          "time": 61.573362,
          "velocity": 1
        },
        {
          "duration": 0.1949950000000058,
          "durationTicks": 96,
          "midi": 40,
          "name": "E2",
          "ticks": 69840,
          "time": 141.61861950000002,
          "velocity": 1
        },
        {
          "duration": 0.1949950000000058,
          "durationTicks": 96,
          "midi": 40,
          "name": "E2",
          "ticks": 69936,
          "time": 141.81361450000003,
          "velocity": 1
        },
        {
          "duration": 0.19499499999997738,
          "durationTicks": 96,
          "midi": 40,
          "name": "E2",
          "ticks": 70032,
          "time": 142.00860950000003,
          "velocity": 1
        },
        {
          "duration": 0.1949950000000058,
          "durationTicks": 96,
          "midi": 40,
          "name": "E2",
          "ticks": 70128,
          "time": 142.2036045,
          "velocity": 1
        },
        {
          "duration": 0.1949950000000058,
          "durationTicks": 96,
          "midi": 40,
          "name": "E2",
          "ticks": 70224,
          "time": 142.39859950000002,
          "velocity": 1
        },
        {
          "duration": 0.1949950000000058,
          "durationTicks": 96,
          "midi": 40,
          "name": "E2",
          "ticks": 70320,
          "time": 142.59359450000002,
          "velocity": 1
        },
        {
          "duration": 0.1949950000000058,
          "durationTicks": 96,
          "midi": 40,
          "name": "E2",
          "ticks": 70416,
          "time": 142.78858950000003,
          "velocity": 1
        },
        {
          "duration": 0.19499499999997738,
          "durationTicks": 96,
          "midi": 40,
          "name": "E2",
          "ticks": 70512,
          "time": 142.98358450000003,
          "velocity": 1
        },
        {
          "duration": 0.1949950000000058,
          "durationTicks": 96,
          "midi": 36,
          "name": "C2",
          "ticks": 70608,
          "time": 143.1785795,
          "velocity": 1
        },
        {
          "duration": 0.1949950000000058,
          "durationTicks": 96,
          "midi": 36,
          "name": "C2",
          "ticks": 70704,
          "time": 143.37357450000002,
          "velocity": 1
        },
        {
          "duration": 0.1949950000000058,
          "durationTicks": 96,
          "midi": 36,
          "name": "C2",
          "ticks": 70800,
          "time": 143.56856950000002,
          "velocity": 1
        },
        {
          "duration": 0.1949950000000058,
          "durationTicks": 96,
          "midi": 36,
          "name": "C2",
          "ticks": 70896,
          "time": 143.76356450000003,
          "velocity": 1
        },
        {
          "duration": 0.19499499999997738,
          "durationTicks": 96,
          "midi": 38,
          "name": "D2",
          "ticks": 70992,
          "time": 143.95855950000004,
          "velocity": 1
        },
        {
          "duration": 0.1949950000000058,
          "durationTicks": 96,
          "midi": 38,
          "name": "D2",
          "ticks": 71088,
          "time": 144.1535545,
          "velocity": 1
        },
        {
          "duration": 0.1949950000000058,
          "durationTicks": 96,
          "midi": 38,
          "name": "D2",
          "ticks": 71184,
          "time": 144.34854950000002,
          "velocity": 1
        },
        {
          "duration": 0.1949950000000058,
          "durationTicks": 96,
          "midi": 38,
          "name": "D2",
          "ticks": 71280,
          "time": 144.54354450000002,
          "velocity": 1
        },
        {
          "duration": 0.1949950000000058,
          "durationTicks": 96,
          "midi": 52,
          "name": "E3",
          "ticks": 71376,
          "time": 144.73853950000003,
          "velocity": 1
        },
        {
          "duration": 0.19499499999997738,
          "durationTicks": 96,
          "midi": 52,
          "name": "E3",
          "ticks": 71472,
          "time": 144.93353450000004,
          "velocity": 1
        },
        {
          "duration": 0.1949950000000058,
          "durationTicks": 96,
          "midi": 52,
          "name": "E3",
          "ticks": 71568,
          "time": 145.1285295,
          "velocity": 1
        },
        {
          "duration": 0.1949950000000058,
          "durationTicks": 96,
          "midi": 52,
          "name": "E3",
          "ticks": 71664,
          "time": 145.32352450000002,
          "velocity": 1
        },
        {
          "duration": 0.1949950000000058,
          "durationTicks": 96,
          "midi": 52,
          "name": "E3",
          "ticks": 71760,
          "time": 145.51851950000002,
          "velocity": 1
        },
        {
          "duration": 0.1949950000000058,
          "durationTicks": 96,
          "midi": 52,
          "name": "E3",
          "ticks": 71856,
          "time": 145.71351450000003,
          "velocity": 1
        },
        {
          "duration": 0.19499499999997738,
          "durationTicks": 96,
          "midi": 52,
          "name": "E3",
          "ticks": 71952,
          "time": 145.90850950000004,
          "velocity": 1
        },
        {
          "duration": 0.1949950000000058,
          "durationTicks": 96,
          "midi": 52,
          "name": "E3",
          "ticks": 72048,
          "time": 146.1035045,
          "velocity": 1
        },
        {
          "duration": 0.1949950000000058,
          "durationTicks": 96,
          "midi": 52,
          "name": "E3",
          "ticks": 72144,
          "time": 146.29849950000002,
          "velocity": 1
        },
        {
          "duration": 0.1949950000000058,
          "durationTicks": 96,
          "midi": 52,
          "name": "E3",
          "ticks": 72240,
          "time": 146.49349450000003,
          "velocity": 1
        },
        {
          "duration": 0.19499499999997738,
          "durationTicks": 96,
          "midi": 52,
          "name": "E3",
          "ticks": 72336,
          "time": 146.68848950000003,
          "velocity": 1
        },
        {
          "duration": 0.1949950000000058,
          "durationTicks": 96,
          "midi": 52,
          "name": "E3",
          "ticks": 72432,
          "time": 146.8834845,
          "velocity": 1
        },
        {
          "duration": 0.1949950000000058,
          "durationTicks": 96,
          "midi": 57,
          "name": "A3",
          "ticks": 72528,
          "time": 147.07847950000001,
          "velocity": 1
        },
        {
          "duration": 0.1949950000000058,
          "durationTicks": 96,
          "midi": 59,
          "name": "B3",
          "ticks": 72624,
          "time": 147.27347450000002,
          "velocity": 1
        },
        {
          "duration": 0.1949950000000058,
          "durationTicks": 96,
          "midi": 62,
          "name": "D4",
          "ticks": 72720,
          "time": 147.46846950000003,
          "velocity": 1
        },
        {
          "duration": 0.19499499999997738,
          "durationTicks": 96,
          "midi": 64,
          "name": "E4",
          "ticks": 72816,
          "time": 147.66346450000003,
          "velocity": 1
        },
        {
          "duration": 0.1949950000000058,
          "durationTicks": 96,
          "midi": 40,
          "name": "E2",
          "ticks": 72912,
          "time": 147.8584595,
          "velocity": 1
        },
        {
          "duration": 0.1949950000000058,
          "durationTicks": 96,
          "midi": 40,
          "name": "E2",
          "ticks": 73008,
          "time": 148.05345450000002,
          "velocity": 1
        },
        {
          "duration": 0.19499499999997738,
          "durationTicks": 96,
          "midi": 40,
          "name": "E2",
          "ticks": 73104,
          "time": 148.24844950000002,
          "velocity": 1
        },
        {
          "duration": 0.1949950000000058,
          "durationTicks": 96,
          "midi": 40,
          "name": "E2",
          "ticks": 73200,
          "time": 148.4434445,
          "velocity": 1
        },
        {
          "duration": 0.1949950000000058,
          "durationTicks": 96,
          "midi": 40,
          "name": "E2",
          "ticks": 73296,
          "time": 148.6384395,
          "velocity": 1
        },
        {
          "duration": 0.1949950000000058,
          "durationTicks": 96,
          "midi": 40,
          "name": "E2",
          "ticks": 73392,
          "time": 148.8334345,
          "velocity": 1
        },
        {
          "duration": 0.1949950000000058,
          "durationTicks": 96,
          "midi": 40,
          "name": "E2",
          "ticks": 73488,
          "time": 149.02842950000002,
          "velocity": 1
        },
        {
          "duration": 0.19499499999997738,
          "durationTicks": 96,
          "midi": 40,
          "name": "E2",
          "ticks": 73584,
          "time": 149.22342450000002,
          "velocity": 1
        },
        {
          "duration": 0.1949950000000058,
          "durationTicks": 96,
          "midi": 36,
          "name": "C2",
          "ticks": 73680,
          "time": 149.4184195,
          "velocity": 1
        },
        {
          "duration": 0.1949950000000058,
          "durationTicks": 96,
          "midi": 36,
          "name": "C2",
          "ticks": 73776,
          "time": 149.6134145,
          "velocity": 1
        },
        {
          "duration": 0.1949950000000058,
          "durationTicks": 96,
          "midi": 36,
          "name": "C2",
          "ticks": 73872,
          "time": 149.8084095,
          "velocity": 1
        },
        {
          "duration": 0.1949950000000058,
          "durationTicks": 96,
          "midi": 36,
          "name": "C2",
          "ticks": 73968,
          "time": 150.00340450000002,
          "velocity": 1
        },
        {
          "duration": 0.19499499999997738,
          "durationTicks": 96,
          "midi": 38,
          "name": "D2",
          "ticks": 74064,
          "time": 150.19839950000002,
          "velocity": 1
        },
        {
          "duration": 0.1949950000000058,
          "durationTicks": 96,
          "midi": 38,
          "name": "D2",
          "ticks": 74160,
          "time": 150.3933945,
          "velocity": 1
        },
        {
          "duration": 0.1949950000000058,
          "durationTicks": 96,
          "midi": 38,
          "name": "D2",
          "ticks": 74256,
          "time": 150.5883895,
          "velocity": 1
        },
        {
          "duration": 0.1949950000000058,
          "durationTicks": 96,
          "midi": 38,
          "name": "D2",
          "ticks": 74352,
          "time": 150.7833845,
          "velocity": 1
        },
        {
          "duration": 0.1949950000000058,
          "durationTicks": 96,
          "midi": 52,
          "name": "E3",
          "ticks": 74448,
          "time": 150.97837950000002,
          "velocity": 1
        },
        {
          "duration": 0.19499499999997738,
          "durationTicks": 96,
          "midi": 52,
          "name": "E3",
          "ticks": 74544,
          "time": 151.17337450000002,
          "velocity": 1
        },
        {
          "duration": 0.1949950000000058,
          "durationTicks": 96,
          "midi": 52,
          "name": "E3",
          "ticks": 74640,
          "time": 151.3683695,
          "velocity": 1
        },
        {
          "duration": 0.1949950000000058,
          "durationTicks": 96,
          "midi": 52,
          "name": "E3",
          "ticks": 74736,
          "time": 151.5633645,
          "velocity": 1
        },
        {
          "duration": 0.1949950000000058,
          "durationTicks": 96,
          "midi": 52,
          "name": "E3",
          "ticks": 74832,
          "time": 151.7583595,
          "velocity": 1
        },
        {
          "duration": 0.19499499999997738,
          "durationTicks": 96,
          "midi": 52,
          "name": "E3",
          "ticks": 74928,
          "time": 151.95335450000002,
          "velocity": 1
        },
        {
          "duration": 0.1949950000000058,
          "durationTicks": 96,
          "midi": 52,
          "name": "E3",
          "ticks": 75024,
          "time": 152.1483495,
          "velocity": 1
        },
        {
          "duration": 0.1949950000000058,
          "durationTicks": 96,
          "midi": 52,
          "name": "E3",
          "ticks": 75120,
          "time": 152.3433445,
          "velocity": 1
        },
        {
          "duration": 0.1949950000000058,
          "durationTicks": 96,
          "midi": 52,
          "name": "E3",
          "ticks": 75216,
          "time": 152.5383395,
          "velocity": 1
        },
        {
          "duration": 0.1949950000000058,
          "durationTicks": 96,
          "midi": 52,
          "name": "E3",
          "ticks": 75312,
          "time": 152.7333345,
          "velocity": 1
        },
        {
          "duration": 0.1949950000000058,
          "durationTicks": 96,
          "midi": 52,
          "name": "E3",
          "ticks": 75408,
          "time": 152.92832950000002,
          "velocity": 1
        },
        {
          "duration": 0.19499499999997738,
          "durationTicks": 96,
          "midi": 52,
          "name": "E3",
          "ticks": 75504,
          "time": 153.12332450000002,
          "velocity": 1
        },
        {
          "duration": 0.1949950000000058,
          "durationTicks": 96,
          "midi": 57,
          "name": "A3",
          "ticks": 75600,
          "time": 153.3183195,
          "velocity": 1
        },
        {
          "duration": 0.1949950000000058,
          "durationTicks": 96,
          "midi": 59,
          "name": "B3",
          "ticks": 75696,
          "time": 153.5133145,
          "velocity": 1
        },
        {
          "duration": 0.1949950000000058,
          "durationTicks": 96,
          "midi": 62,
          "name": "D4",
          "ticks": 75792,
          "time": 153.7083095,
          "velocity": 1
        },
        {
          "duration": 0.19499499999997738,
          "durationTicks": 96,
          "midi": 64,
          "name": "E4",
          "ticks": 75888,
          "time": 153.90330450000002,
          "velocity": 1
        }
      ]
    },
    {
      "channel": 3,
      "controlChanges": {
        "7": [
          {
            "number": 7,
            "ticks": 0,
            "time": 0,
            "value": 1
          },
          {
            "number": 7,
            "ticks": 42624,
            "time": 86.337537,
            "value": 0.8740157480314961
          }
        ],
        "10": [
          {
            "number": 10,
            "ticks": 0,
            "time": 0,
            "value": 0.5354330708661418
          }
        ]
      },
      "pitchBends": [],
      "instrument": {
        "family": "guitar",
        "name": "distortion guitar",
        "number": 30
      },
      "name": "",
      "notes": [
        {
          "duration": 0.584985,
          "durationTicks": 288,
          "midi": 40,
          "name": "E2",
          "ticks": 0,
          "time": 0,
          "velocity": 1
        },
        {
          "duration": 0.584985,
          "durationTicks": 288,
          "midi": 40,
          "name": "E2",
          "ticks": 288,
          "time": 0.584985,
          "velocity": 1
        },
        {
          "duration": 0.38999000000000006,
          "durationTicks": 192,
          "midi": 40,
          "name": "E2",
          "ticks": 576,
          "time": 1.16997,
          "velocity": 1
        },
        {
          "duration": 0.19499500000000003,
          "durationTicks": 96,
          "midi": 45,
          "name": "A2",
          "ticks": 768,
          "time": 1.55996,
          "velocity": 1
        },
        {
          "duration": 0.19499500000000003,
          "durationTicks": 96,
          "midi": 47,
          "name": "B2",
          "ticks": 864,
          "time": 1.754955,
          "velocity": 1
        },
        {
          "duration": 0.1949949999999998,
          "durationTicks": 96,
          "midi": 50,
          "name": "D3",
          "ticks": 960,
          "time": 1.94995,
          "velocity": 1
        },
        {
          "duration": 0.19499500000000003,
          "durationTicks": 96,
          "midi": 52,
          "name": "E3",
          "ticks": 1056,
          "time": 2.144945,
          "velocity": 1
        },
        {
          "duration": 0.19499500000000003,
          "durationTicks": 96,
          "midi": 45,
          "name": "A2",
          "ticks": 1152,
          "time": 2.33994,
          "velocity": 1
        },
        {
          "duration": 0.19499500000000003,
          "durationTicks": 96,
          "midi": 47,
          "name": "B2",
          "ticks": 1248,
          "time": 2.534935,
          "velocity": 1
        },
        {
          "duration": 0.19499500000000003,
          "durationTicks": 96,
          "midi": 50,
          "name": "D3",
          "ticks": 1344,
          "time": 2.72993,
          "velocity": 1
        },
        {
          "duration": 0.19499500000000003,
          "durationTicks": 96,
          "midi": 52,
          "name": "E3",
          "ticks": 1440,
          "time": 2.924925,
          "velocity": 1
        },
        {
          "duration": 0.5849850000000001,
          "durationTicks": 288,
          "midi": 40,
          "name": "E2",
          "ticks": 1536,
          "time": 3.11992,
          "velocity": 1
        },
        {
          "duration": 0.5849849999999996,
          "durationTicks": 288,
          "midi": 40,
          "name": "E2",
          "ticks": 1824,
          "time": 3.704905,
          "velocity": 1
        },
        {
          "duration": 0.38999000000000006,
          "durationTicks": 192,
          "midi": 40,
          "name": "E2",
          "ticks": 2112,
          "time": 4.28989,
          "velocity": 1
        },
        {
          "duration": 0.19499500000000047,
          "durationTicks": 96,
          "midi": 45,
          "name": "A2",
          "ticks": 2304,
          "time": 4.67988,
          "velocity": 1
        },
        {
          "duration": 0.19499499999999959,
          "durationTicks": 96,
          "midi": 47,
          "name": "B2",
          "ticks": 2400,
          "time": 4.874875,
          "velocity": 1
        },
        {
          "duration": 0.19499500000000047,
          "durationTicks": 96,
          "midi": 50,
          "name": "D3",
          "ticks": 2496,
          "time": 5.06987,
          "velocity": 1
        },
        {
          "duration": 0.19499499999999959,
          "durationTicks": 96,
          "midi": 52,
          "name": "E3",
          "ticks": 2592,
          "time": 5.264865,
          "velocity": 1
        },
        {
          "duration": 0.19499500000000047,
          "durationTicks": 96,
          "midi": 45,
          "name": "A2",
          "ticks": 2688,
          "time": 5.45986,
          "velocity": 1
        },
        {
          "duration": 0.19499499999999959,
          "durationTicks": 96,
          "midi": 47,
          "name": "B2",
          "ticks": 2784,
          "time": 5.654855,
          "velocity": 1
        },
        {
          "duration": 0.19499500000000047,
          "durationTicks": 96,
          "midi": 50,
          "name": "D3",
          "ticks": 2880,
          "time": 5.84985,
          "velocity": 1
        },
        {
          "duration": 1.3649649999999998,
          "durationTicks": 672,
          "midi": 52,
          "name": "E3",
          "ticks": 2976,
          "time": 6.0448450000000005,
          "velocity": 1
        },
        {
          "duration": 3.1112409999999997,
          "durationTicks": 1536,
          "midi": 40,
          "name": "E2",
          "ticks": 3648,
          "time": 7.40981,
          "velocity": 1
        },
        {
          "duration": 3.1112409999999997,
          "durationTicks": 1536,
          "midi": 47,
          "name": "B2",
          "ticks": 3648,
          "time": 7.40981,
          "velocity": 1
        },
        {
          "duration": 1.1612909999999985,
          "durationTicks": 576,
          "midi": 40,
          "name": "E2",
          "ticks": 5184,
          "time": 10.521051,
          "velocity": 1
        },
        {
          "duration": 1.1612909999999985,
          "durationTicks": 576,
          "midi": 47,
          "name": "B2",
          "ticks": 5184,
          "time": 10.521051,
          "velocity": 1
        },
        {
          "duration": 2.7299299999999995,
          "durationTicks": 1344,
          "midi": 40,
          "name": "E2",
          "ticks": 9168,
          "time": 18.3999245,
          "velocity": 1
        },
        {
          "duration": 2.7299299999999995,
          "durationTicks": 1344,
          "midi": 47,
          "name": "B2",
          "ticks": 9168,
          "time": 18.3999245,
          "velocity": 1
        },
        {
          "duration": 1.5599600000000002,
          "durationTicks": 768,
          "midi": 40,
          "name": "E2",
          "ticks": 12192,
          "time": 24.542267000000002,
          "velocity": 1
        },
        {
          "duration": 1.5599600000000002,
          "durationTicks": 768,
          "midi": 47,
          "name": "B2",
          "ticks": 12192,
          "time": 24.542267000000002,
          "velocity": 1
        },
        {
          "duration": 0.7799799999999983,
          "durationTicks": 384,
          "midi": 40,
          "name": "E2",
          "ticks": 12960,
          "time": 26.102227000000003,
          "velocity": 1
        },
        {
          "duration": 0.7799799999999983,
          "durationTicks": 384,
          "midi": 47,
          "name": "B2",
          "ticks": 12960,
          "time": 26.102227000000003,
          "velocity": 1
        },
        {
          "duration": 3.8999000000000024,
          "durationTicks": 1920,
          "midi": 40,
          "name": "E2",
          "ticks": 13344,
          "time": 26.882207,
          "velocity": 1
        },
        {
          "duration": 3.8999000000000024,
          "durationTicks": 1920,
          "midi": 47,
          "name": "B2",
          "ticks": 13344,
          "time": 26.882207,
          "velocity": 1
        },
        {
          "duration": 1.5599599999999967,
          "durationTicks": 768,
          "midi": 40,
          "name": "E2",
          "ticks": 15264,
          "time": 30.782107000000003,
          "velocity": 1
        },
        {
          "duration": 1.5599599999999967,
          "durationTicks": 768,
          "midi": 47,
          "name": "B2",
          "ticks": 15264,
          "time": 30.782107000000003,
          "velocity": 1
        },
        {
          "duration": 0.7799800000000019,
          "durationTicks": 384,
          "midi": 40,
          "name": "E2",
          "ticks": 16032,
          "time": 32.342067,
          "velocity": 1
        },
        {
          "duration": 0.7799800000000019,
          "durationTicks": 384,
          "midi": 47,
          "name": "B2",
          "ticks": 16032,
          "time": 32.342067,
          "velocity": 1
        },
        {
          "duration": 3.8999000000000024,
          "durationTicks": 1920,
          "midi": 40,
          "name": "E2",
          "ticks": 16416,
          "time": 33.122047,
          "velocity": 1
        },
        {
          "duration": 3.8999000000000024,
          "durationTicks": 1920,
          "midi": 47,
          "name": "B2",
          "ticks": 16416,
          "time": 33.122047,
          "velocity": 1
        },
        {
          "duration": 3.1199200000000005,
          "durationTicks": 1536,
          "midi": 40,
          "name": "E2",
          "ticks": 18336,
          "time": 37.021947000000004,
          "velocity": 1
        },
        {
          "duration": 3.1199200000000005,
          "durationTicks": 1536,
          "midi": 47,
          "name": "B2",
          "ticks": 18336,
          "time": 37.021947000000004,
          "velocity": 1
        },
        {
          "duration": 3.116880000000002,
          "durationTicks": 1536,
          "midi": 40,
          "name": "E2",
          "ticks": 21360,
          "time": 43.1642895,
          "velocity": 1
        },
        {
          "duration": 3.116880000000002,
          "durationTicks": 1536,
          "midi": 47,
          "name": "B2",
          "ticks": 21360,
          "time": 43.1642895,
          "velocity": 1
        },
        {
          "duration": 3.1199199999999934,
          "durationTicks": 1536,
          "midi": 40,
          "name": "E2",
          "ticks": 30528,
          "time": 61.768167000000005,
          "velocity": 1
        },
        {
          "duration": 3.1199199999999934,
          "durationTicks": 1536,
          "midi": 47,
          "name": "B2",
          "ticks": 30528,
          "time": 61.768167000000005,
          "velocity": 1
        },
        {
          "duration": 3.1199199999999934,
          "durationTicks": 1536,
          "midi": 40,
          "name": "E2",
          "ticks": 33552,
          "time": 67.9105095,
          "velocity": 1
        },
        {
          "duration": 3.1199199999999934,
          "durationTicks": 1536,
          "midi": 47,
          "name": "B2",
          "ticks": 33552,
          "time": 67.9105095,
          "velocity": 1
        },
        {
          "duration": 3.1199199999999934,
          "durationTicks": 1536,
          "midi": 40,
          "name": "E2",
          "ticks": 36576,
          "time": 74.052852,
          "velocity": 1
        },
        {
          "duration": 3.1199199999999934,
          "durationTicks": 1536,
          "midi": 47,
          "name": "B2",
          "ticks": 36576,
          "time": 74.052852,
          "velocity": 1
        },
        {
          "duration": 3.1199199999999934,
          "durationTicks": 1536,
          "midi": 40,
          "name": "E2",
          "ticks": 39600,
          "time": 80.1951945,
          "velocity": 1
        },
        {
          "duration": 3.1199199999999934,
          "durationTicks": 1536,
          "midi": 47,
          "name": "B2",
          "ticks": 39600,
          "time": 80.1951945,
          "velocity": 1
        },
        {
          "duration": 3.1199199999999934,
          "durationTicks": 1536,
          "midi": 40,
          "name": "E2",
          "ticks": 57744,
          "time": 117.04924949999999,
          "velocity": 1
        },
        {
          "duration": 3.1199199999999934,
          "durationTicks": 1536,
          "midi": 47,
          "name": "B2",
          "ticks": 57744,
          "time": 117.04924949999999,
          "velocity": 1
        },
        {
          "duration": 3.1199199999999934,
          "durationTicks": 1536,
          "midi": 40,
          "name": "E2",
          "ticks": 60768,
          "time": 123.19159199999999,
          "velocity": 1
        },
        {
          "duration": 3.1199199999999934,
          "durationTicks": 1536,
          "midi": 47,
          "name": "B2",
          "ticks": 60768,
          "time": 123.19159199999999,
          "velocity": 1
        },
        {
          "duration": 3.1199200000000076,
          "durationTicks": 1536,
          "midi": 40,
          "name": "E2",
          "ticks": 63792,
          "time": 129.3339345,
          "velocity": 1
        },
        {
          "duration": 3.1199200000000076,
          "durationTicks": 1536,
          "midi": 47,
          "name": "B2",
          "ticks": 63792,
          "time": 129.3339345,
          "velocity": 1
        },
        {
          "duration": 3.1199200000000076,
          "durationTicks": 1536,
          "midi": 40,
          "name": "E2",
          "ticks": 66816,
          "time": 135.476277,
          "velocity": 1
        },
        {
          "duration": 3.1199200000000076,
          "durationTicks": 1536,
          "midi": 47,
          "name": "B2",
          "ticks": 66816,
          "time": 135.476277,
          "velocity": 1
        },
        {
          "duration": 1.5599599999999896,
          "durationTicks": 768,
          "midi": 40,
          "name": "E2",
          "ticks": 69840,
          "time": 141.61861950000002,
          "velocity": 1
        },
        {
          "duration": 1.5599599999999896,
          "durationTicks": 768,
          "midi": 47,
          "name": "B2",
          "ticks": 69840,
          "time": 141.61861950000002,
          "velocity": 1
        },
        {
          "duration": 3.119919999999979,
          "durationTicks": 1536,
          "midi": 40,
          "name": "E2",
          "ticks": 71376,
          "time": 144.73853950000003,
          "velocity": 1
        },
        {
          "duration": 3.119919999999979,
          "durationTicks": 1536,
          "midi": 47,
          "name": "B2",
          "ticks": 71376,
          "time": 144.73853950000003,
          "velocity": 1
        },
        {
          "duration": 1.5599599999999896,
          "durationTicks": 768,
          "midi": 40,
          "name": "E2",
          "ticks": 72912,
          "time": 147.8584595,
          "velocity": 1
        },
        {
          "duration": 1.5599599999999896,
          "durationTicks": 768,
          "midi": 47,
          "name": "B2",
          "ticks": 72912,
          "time": 147.8584595,
          "velocity": 1
        },
        {
          "duration": 3.119919999999979,
          "durationTicks": 1536,
          "midi": 40,
          "name": "E2",
          "ticks": 74448,
          "time": 150.97837950000002,
          "velocity": 1
        },
        {
          "duration": 3.119919999999979,
          "durationTicks": 1536,
          "midi": 47,
          "name": "B2",
          "ticks": 74448,
          "time": 150.97837950000002,
          "velocity": 1
        },
        {
          "duration": 6.142342500000012,
          "durationTicks": 3024,
          "midi": 40,
          "name": "E2",
          "ticks": 75984,
          "time": 154.0982995,
          "velocity": 1
        },
        {
          "duration": 6.142342500000012,
          "durationTicks": 3024,
          "midi": 47,
          "name": "B2",
          "ticks": 75984,
          "time": 154.0982995,
          "velocity": 1
        },
        {
          "duration": 7.214814999999987,
          "durationTicks": 3552,
          "midi": 40,
          "name": "E2",
          "ticks": 79008,
          "time": 160.240642,
          "velocity": 1
        },
        {
          "duration": 7.214814999999987,
          "durationTicks": 3552,
          "midi": 47,
          "name": "B2",
          "ticks": 79008,
          "time": 160.240642,
          "velocity": 1
        }
      ],
      "endOfTrackTicks": 82560
    },
    {
      "channel": 3,
      "controlChanges": {
        "7": [
          {
            "number": 7,
            "ticks": 44928,
            "time": 91.017417,
            "value": 1
          },
          {
            "number": 7,
            "ticks": 57744,
            "time": 117.04924949999999,
            "value": 1
          }
        ]
      },
      "pitchBends": [],
      "instrument": {
        "family": "guitar",
        "name": "overdriven guitar",
        "number": 29
      },
      "name": "",
      "notes": [
        {
          "duration": 0.1949950000000058,
          "durationTicks": 96,
          "midi": 69,
          "name": "A4",
          "ticks": 42624,
          "time": 86.337537,
          "velocity": 1
        },
        {
          "duration": 0.1949949999999916,
          "durationTicks": 96,
          "midi": 60,
          "name": "C4",
          "ticks": 42720,
          "time": 86.532532,
          "velocity": 1
        },
        {
          "duration": 0.1949950000000058,
          "durationTicks": 96,
          "midi": 67,
          "name": "G4",
          "ticks": 42816,
          "time": 86.727527,
          "velocity": 1
        },
        {
          "duration": 0.9749750000000006,
          "durationTicks": 480,
          "midi": 69,
          "name": "A4",
          "ticks": 42912,
          "time": 86.922522,
          "velocity": 1
        },
        {
          "duration": 0.1949949999999916,
          "durationTicks": 96,
          "midi": 69,
          "name": "A4",
          "ticks": 43392,
          "time": 87.897497,
          "velocity": 1
        },
        {
          "duration": 0.1949950000000058,
          "durationTicks": 96,
          "midi": 67,
          "name": "G4",
          "ticks": 43488,
          "time": 88.092492,
          "velocity": 1
        },
        {
          "duration": 0.1949950000000058,
          "durationTicks": 96,
          "midi": 64,
          "name": "E4",
          "ticks": 43584,
          "time": 88.287487,
          "velocity": 1
        },
        {
          "duration": 0.1949949999999916,
          "durationTicks": 96,
          "midi": 62,
          "name": "D4",
          "ticks": 43680,
          "time": 88.482482,
          "velocity": 1
        },
        {
          "duration": 0.1949950000000058,
          "durationTicks": 96,
          "midi": 64,
          "name": "E4",
          "ticks": 43776,
          "time": 88.677477,
          "velocity": 1
        },
        {
          "duration": 0.1949949999999916,
          "durationTicks": 96,
          "midi": 62,
          "name": "D4",
          "ticks": 43872,
          "time": 88.872472,
          "velocity": 1
        },
        {
          "duration": 0.1949950000000058,
          "durationTicks": 96,
          "midi": 64,
          "name": "E4",
          "ticks": 43968,
          "time": 89.067467,
          "velocity": 1
        },
        {
          "duration": 0.1949949999999916,
          "durationTicks": 96,
          "midi": 62,
          "name": "D4",
          "ticks": 44064,
          "time": 89.262462,
          "velocity": 1
        },
        {
          "duration": 1.5599600000000038,
          "durationTicks": 768,
          "midi": 64,
          "name": "E4",
          "ticks": 44160,
          "time": 89.45745699999999,
          "velocity": 1
        },
        {
          "duration": 0.1949950000000058,
          "durationTicks": 96,
          "midi": 52,
          "name": "E3",
          "ticks": 45648,
          "time": 92.4798795,
          "velocity": 1
        },
        {
          "duration": 0.1949949999999916,
          "durationTicks": 96,
          "midi": 55,
          "name": "G3",
          "ticks": 45744,
          "time": 92.6748745,
          "velocity": 1
        },
        {
          "duration": 0.1949950000000058,
          "durationTicks": 96,
          "midi": 55,
          "name": "G3",
          "ticks": 45840,
          "time": 92.8698695,
          "velocity": 1
        },
        {
          "duration": 0.1949949999999916,
          "durationTicks": 96,
          "midi": 57,
          "name": "A3",
          "ticks": 45936,
          "time": 93.0648645,
          "velocity": 1
        },
        {
          "duration": 0.1949950000000058,
          "durationTicks": 96,
          "midi": 57,
          "name": "A3",
          "ticks": 46032,
          "time": 93.25985949999999,
          "velocity": 1
        },
        {
          "duration": 0.1949950000000058,
          "durationTicks": 96,
          "midi": 59,
          "name": "B3",
          "ticks": 46128,
          "time": 93.4548545,
          "velocity": 1
        },
        {
          "duration": 0.1949949999999916,
          "durationTicks": 96,
          "midi": 59,
          "name": "B3",
          "ticks": 46224,
          "time": 93.6498495,
          "velocity": 1
        },
        {
          "duration": 0.1949950000000058,
          "durationTicks": 96,
          "midi": 62,
          "name": "D4",
          "ticks": 46320,
          "time": 93.8448445,
          "velocity": 1
        },
        {
          "duration": 0.1949949999999916,
          "durationTicks": 96,
          "midi": 62,
          "name": "D4",
          "ticks": 46416,
          "time": 94.0398395,
          "velocity": 1
        },
        {
          "duration": 1.364964999999998,
          "durationTicks": 672,
          "midi": 64,
          "name": "E4",
          "ticks": 46512,
          "time": 94.23483449999999,
          "velocity": 1
        },
        {
          "duration": 0.1949950000000058,
          "durationTicks": 96,
          "midi": 69,
          "name": "A4",
          "ticks": 47184,
          "time": 95.59979949999999,
          "velocity": 1
        },
        {
          "duration": 0.1949950000000058,
          "durationTicks": 96,
          "midi": 64,
          "name": "E4",
          "ticks": 47280,
          "time": 95.7947945,
          "velocity": 1
        },
        {
          "duration": 0.1949949999999916,
          "durationTicks": 96,
          "midi": 69,
          "name": "A4",
          "ticks": 47376,
          "time": 95.9897895,
          "velocity": 1
        },
        {
          "duration": 0.9749750000000006,
          "durationTicks": 480,
          "midi": 64,
          "name": "E4",
          "ticks": 47472,
          "time": 96.18478449999999,
          "velocity": 1
        },
        {
          "duration": 0.1949950000000058,
          "durationTicks": 96,
          "midi": 67,
          "name": "G4",
          "ticks": 47952,
          "time": 97.15975949999999,
          "velocity": 1
        },
        {
          "duration": 0.4874875000000003,
          "durationTicks": 240,
          "midi": 62,
          "name": "D4",
          "ticks": 48048,
          "time": 97.3547545,
          "velocity": 1
        },
        {
          "duration": 0.3899899999999974,
          "durationTicks": 192,
          "midi": 64,
          "name": "E4",
          "ticks": 48288,
          "time": 97.842242,
          "velocity": 1
        },
        {
          "duration": 0.3899899999999974,
          "durationTicks": 192,
          "midi": 67,
          "name": "G4",
          "ticks": 48480,
          "time": 98.232232,
          "velocity": 1
        },
        {
          "duration": 0.3899899999999974,
          "durationTicks": 192,
          "midi": 40,
          "name": "E2",
          "ticks": 48672,
          "time": 98.622222,
          "velocity": 1
        },
        {
          "duration": 0.3899899999999974,
          "durationTicks": 192,
          "midi": 42,
          "name": "F#2",
          "ticks": 48864,
          "time": 99.01221199999999,
          "velocity": 1
        },
        {
          "duration": 0.3899900000000116,
          "durationTicks": 192,
          "midi": 43,
          "name": "G2",
          "ticks": 49056,
          "time": 99.40220199999999,
          "velocity": 1
        },
        {
          "duration": 0.3899899999999974,
          "durationTicks": 192,
          "midi": 45,
          "name": "A2",
          "ticks": 49248,
          "time": 99.792192,
          "velocity": 1
        },
        {
          "duration": 0.3899899999999974,
          "durationTicks": 192,
          "midi": 47,
          "name": "B2",
          "ticks": 49440,
          "time": 100.182182,
          "velocity": 1
        },
        {
          "duration": 0.3899899999999974,
          "durationTicks": 192,
          "midi": 50,
          "name": "D3",
          "ticks": 49632,
          "time": 100.572172,
          "velocity": 1
        },
        {
          "duration": 0.3899899999999974,
          "durationTicks": 192,
          "midi": 52,
          "name": "E3",
          "ticks": 49824,
          "time": 100.96216199999999,
          "velocity": 1
        },
        {
          "duration": 0.3899899999999974,
          "durationTicks": 192,
          "midi": 55,
          "name": "G3",
          "ticks": 50016,
          "time": 101.35215199999999,
          "velocity": 1
        },
        {
          "duration": 1.5599600000000038,
          "durationTicks": 768,
          "midi": 57,
          "name": "A3",
          "ticks": 50208,
          "time": 101.74214199999999,
          "velocity": 1
        },
        {
          "duration": 0.1949950000000058,
          "durationTicks": 96,
          "midi": 67,
          "name": "G4",
          "ticks": 50976,
          "time": 103.30210199999999,
          "velocity": 1
        },
        {
          "duration": 0.4874875000000003,
          "durationTicks": 240,
          "midi": 62,
          "name": "D4",
          "ticks": 51072,
          "time": 103.497097,
          "velocity": 1
        },
        {
          "duration": 0.3899899999999974,
          "durationTicks": 192,
          "midi": 64,
          "name": "E4",
          "ticks": 51312,
          "time": 103.9845845,
          "velocity": 1
        },
        {
          "duration": 0.3899899999999974,
          "durationTicks": 192,
          "midi": 67,
          "name": "G4",
          "ticks": 51504,
          "time": 104.3745745,
          "velocity": 1
        },
        {
          "duration": 0.0974975000000029,
          "durationTicks": 48,
          "midi": 64,
          "name": "E4",
          "ticks": 51696,
          "time": 104.76456449999999,
          "velocity": 1
        },
        {
          "duration": 0.0974975000000029,
          "durationTicks": 48,
          "midi": 67,
          "name": "G4",
          "ticks": 51744,
          "time": 104.862062,
          "velocity": 1
        },
        {
          "duration": 1.364964999999998,
          "durationTicks": 672,
          "midi": 66,
          "name": "F#4",
          "ticks": 51792,
          "time": 104.9595595,
          "velocity": 1
        },
        {
          "duration": 0.0974975000000029,
          "durationTicks": 48,
          "midi": 64,
          "name": "E4",
          "ticks": 52464,
          "time": 106.3245245,
          "velocity": 1
        },
        {
          "duration": 0.09749749999998869,
          "durationTicks": 48,
          "midi": 67,
          "name": "G4",
          "ticks": 52512,
          "time": 106.422022,
          "velocity": 1
        },
        {
          "duration": 1.364964999999998,
          "durationTicks": 672,
          "midi": 66,
          "name": "F#4",
          "ticks": 52560,
          "time": 106.51951949999999,
          "velocity": 1
        },
        {
          "duration": 0.0974975000000029,
          "durationTicks": 48,
          "midi": 64,
          "name": "E4",
          "ticks": 53232,
          "time": 107.88448449999999,
          "velocity": 1
        },
        {
          "duration": 0.0974975000000029,
          "durationTicks": 48,
          "midi": 67,
          "name": "G4",
          "ticks": 53280,
          "time": 107.98198199999999,
          "velocity": 1
        },
        {
          "duration": 0.0974975000000029,
          "durationTicks": 48,
          "midi": 66,
          "name": "F#4",
          "ticks": 53328,
          "time": 108.07947949999999,
          "velocity": 1
        },
        {
          "duration": 0.0974975000000029,
          "durationTicks": 48,
          "midi": 64,
          "name": "E4",
          "ticks": 53376,
          "time": 108.176977,
          "velocity": 1
        },
        {
          "duration": 0.09749749999998869,
          "durationTicks": 48,
          "midi": 67,
          "name": "G4",
          "ticks": 53424,
          "time": 108.2744745,
          "velocity": 1
        },
        {
          "duration": 0.0974975000000029,
          "durationTicks": 48,
          "midi": 66,
          "name": "F#4",
          "ticks": 53472,
          "time": 108.37197199999999,
          "velocity": 1
        },
        {
          "duration": 0.0974975000000029,
          "durationTicks": 48,
          "midi": 64,
          "name": "E4",
          "ticks": 53520,
          "time": 108.46946949999999,
          "velocity": 1
        },
        {
          "duration": 0.0974975000000029,
          "durationTicks": 48,
          "midi": 67,
          "name": "G4",
          "ticks": 53568,
          "time": 108.56696699999999,
          "velocity": 1
        },
        {
          "duration": 0.0974975000000029,
          "durationTicks": 48,
          "midi": 66,
          "name": "F#4",
          "ticks": 53616,
          "time": 108.6644645,
          "velocity": 1
        },
        {
          "duration": 0.09749749999998869,
          "durationTicks": 48,
          "midi": 64,
          "name": "E4",
          "ticks": 53664,
          "time": 108.761962,
          "velocity": 1
        },
        {
          "duration": 0.0974975000000029,
          "durationTicks": 48,
          "midi": 67,
          "name": "G4",
          "ticks": 53712,
          "time": 108.85945949999999,
          "velocity": 1
        },
        {
          "duration": 0.0974975000000029,
          "durationTicks": 48,
          "midi": 54,
          "name": "F#3",
          "ticks": 53760,
          "time": 108.95695699999999,
          "velocity": 1
        },
        {
          "duration": 0.0974975000000029,
          "durationTicks": 48,
          "midi": 64,
          "name": "E4",
          "ticks": 53808,
          "time": 109.05445449999999,
          "velocity": 1
        },
        {
          "duration": 0.0974975000000029,
          "durationTicks": 48,
          "midi": 67,
          "name": "G4",
          "ticks": 53856,
          "time": 109.151952,
          "velocity": 1
        },
        {
          "duration": 0.09749749999998869,
          "durationTicks": 48,
          "midi": 66,
          "name": "F#4",
          "ticks": 53904,
          "time": 109.2494495,
          "velocity": 1
        },
        {
          "duration": 0.2924925000000087,
          "durationTicks": 144,
          "midi": 64,
          "name": "E4",
          "ticks": 53952,
          "time": 109.34694699999999,
          "velocity": 1
        },
        {
          "duration": 0.4874875000000003,
          "durationTicks": 240,
          "midi": 62,
          "name": "D4",
          "ticks": 54096,
          "time": 109.6394395,
          "velocity": 1
        },
        {
          "duration": 0.3899899999999974,
          "durationTicks": 192,
          "midi": 64,
          "name": "E4",
          "ticks": 54336,
          "time": 110.126927,
          "velocity": 1
        },
        {
          "duration": 0.0974975000000029,
          "durationTicks": 48,
          "midi": 67,
          "name": "G4",
          "ticks": 54528,
          "time": 110.51691699999999,
          "velocity": 1
        },
        {
          "duration": 0.0974975000000029,
          "durationTicks": 48,
          "midi": 67,
          "name": "G4",
          "ticks": 54576,
          "time": 110.6144145,
          "velocity": 1
        },
        {
          "duration": 0.09749749999998869,
          "durationTicks": 48,
          "midi": 66,
          "name": "F#4",
          "ticks": 54624,
          "time": 110.711912,
          "velocity": 1
        },
        {
          "duration": 0.0974975000000029,
          "durationTicks": 48,
          "midi": 64,
          "name": "E4",
          "ticks": 54672,
          "time": 110.80940949999999,
          "velocity": 1
        },
        {
          "duration": 1.5599600000000038,
          "durationTicks": 768,
          "midi": 66,
          "name": "F#4",
          "ticks": 54720,
          "time": 110.90690699999999,
          "velocity": 1
        },
        {
          "duration": 0.1949949999999916,
          "durationTicks": 96,
          "midi": 38,
          "name": "D2",
          "ticks": 55488,
          "time": 112.466867,
          "velocity": 1
        },
        {
          "duration": 0.1949950000000058,
          "durationTicks": 96,
          "midi": 40,
          "name": "E2",
          "ticks": 55584,
          "time": 112.66186199999999,
          "velocity": 1
        },
        {
          "duration": 0.1949950000000058,
          "durationTicks": 96,
          "midi": 43,
          "name": "G2",
          "ticks": 55680,
          "time": 112.85685699999999,
          "velocity": 1
        },
        {
          "duration": 0.1949949999999916,
          "durationTicks": 96,
          "midi": 45,
          "name": "A2",
          "ticks": 55776,
          "time": 113.051852,
          "velocity": 1
        },
        {
          "duration": 0.1949950000000058,
          "durationTicks": 96,
          "midi": 45,
          "name": "A2",
          "ticks": 55872,
          "time": 113.24684699999999,
          "velocity": 1
        },
        {
          "duration": 0.1949949999999916,
          "durationTicks": 96,
          "midi": 47,
          "name": "B2",
          "ticks": 55968,
          "time": 113.441842,
          "velocity": 1
        },
        {
          "duration": 0.1949950000000058,
          "durationTicks": 96,
          "midi": 50,
          "name": "D3",
          "ticks": 56064,
          "time": 113.63683699999999,
          "velocity": 1
        },
        {
          "duration": 1.7549549999999954,
          "durationTicks": 864,
          "midi": 52,
          "name": "E3",
          "ticks": 56160,
          "time": 113.83183199999999,
          "velocity": 1
        },
        {
          "duration": 0.1949950000000058,
          "durationTicks": 96,
          "midi": 67,
          "name": "G4",
          "ticks": 57024,
          "time": 115.58678699999999,
          "velocity": 1
        },
        {
          "duration": 0.4874875000000003,
          "durationTicks": 240,
          "midi": 62,
          "name": "D4",
          "ticks": 57120,
          "time": 115.78178199999999,
          "velocity": 1
        },
        {
          "duration": 0.3899899999999974,
          "durationTicks": 192,
          "midi": 64,
          "name": "E4",
          "ticks": 57360,
          "time": 116.2692695,
          "velocity": 1
        },
        {
          "duration": 0.3899899999999974,
          "durationTicks": 192,
          "midi": 67,
          "name": "G4",
          "ticks": 57552,
          "time": 116.65925949999999,
          "velocity": 1
        }
      ]
    },
    {
      "channel": 3,
      "controlChanges": {
        "7": [
          {
            "number": 7,
            "ticks": 45648,
            "time": 92.4798795,
            "value": 0.8740157480314961
          }
        ]
      },
      "pitchBends": [],
      "instrument": {
        "family": "strings",
        "name": "violin",
        "number": 40
      },
      "name": "",
      "notes": [
        {
          "duration": 0.1949950000000058,
          "durationTicks": 96,
          "midi": 67,
          "name": "G4",
          "ticks": 44928,
          "time": 91.017417,
          "velocity": 1
        },
        {
          "duration": 0.4874875000000003,
          "durationTicks": 240,
          "midi": 62,
          "name": "D4",
          "ticks": 45024,
          "time": 91.212412,
          "velocity": 1
        },
        {
          "duration": 0.3899899999999974,
          "durationTicks": 192,
          "midi": 64,
          "name": "E4",
          "ticks": 45264,
          "time": 91.6998995,
          "velocity": 1
        },
        {
          "duration": 0.3899899999999974,
          "durationTicks": 192,
          "midi": 67,
          "name": "G4",
          "ticks": 45456,
          "time": 92.0898895,
          "velocity": 1
        }
      ]
    },
    {
      "channel": 0,
      "controlChanges": {
        "7": [
          {
            "number": 7,
            "ticks": 0,
            "time": 0,
            "value": 1
          }
        ],
        "10": [
          {
            "number": 10,
            "ticks": 0,
            "time": 0,
            "value": 0.47244094488188976
          }
        ]
      },
      "pitchBends": [],
      "instrument": {
        "family": "piano",
        "name": "acoustic grand piano",
        "number": 0
      },
      "name": "",
      "notes": [],
      "endOfTrackTicks": 0
    },
    {
      "channel": 9,
      "controlChanges": {
        "7": [
          {
            "number": 7,
            "ticks": 0,
            "time": 0,
            "value": 1
          }
        ],
        "10": [
          {
            "number": 10,
            "ticks": 0,
            "time": 0,
            "value": 0.5039370078740157
          }
        ]
      },
      "pitchBends": [],
      "instrument": {
        "family": "drums",
        "name": "standard kit",
        "number": 0
      },
      "name": "",
      "notes": [
        {
          "duration": 0.38999000000000006,
          "durationTicks": 192,
          "midi": 36,
          "name": "C2",
          "ticks": 3072,
          "time": 6.23984,
          "velocity": 1
        },
        {
          "duration": 0.38999000000000006,
          "durationTicks": 192,
          "midi": 38,
          "name": "D2",
          "ticks": 3264,
          "time": 6.62983,
          "velocity": 1
        },
        {
          "duration": 0.38999000000000006,
          "durationTicks": 192,
          "midi": 36,
          "name": "C2",
          "ticks": 3456,
          "time": 7.01982,
          "velocity": 1
        },
        {
          "duration": 0.38999000000000006,
          "durationTicks": 192,
          "midi": 38,
          "name": "D2",
          "ticks": 3648,
          "time": 7.40981,
          "velocity": 1
        },
        {
          "duration": 0.38999000000000006,
          "durationTicks": 192,
          "midi": 36,
          "name": "C2",
          "ticks": 3840,
          "time": 7.7998,
          "velocity": 1
        },
        {
          "duration": 0.38998999999999917,
          "durationTicks": 192,
          "midi": 38,
          "name": "D2",
          "ticks": 4032,
          "time": 8.18979,
          "velocity": 1
        },
        {
          "duration": 0.38999000000000095,
          "durationTicks": 192,
          "midi": 36,
          "name": "C2",
          "ticks": 4224,
          "time": 8.57978,
          "velocity": 1
        },
        {
          "duration": 0.38998999999999917,
          "durationTicks": 192,
          "midi": 38,
          "name": "D2",
          "ticks": 4416,
          "time": 8.96977,
          "velocity": 1
        },
        {
          "duration": 0.3870970000000007,
          "durationTicks": 192,
          "midi": 36,
          "name": "C2",
          "ticks": 4608,
          "time": 9.35976,
          "velocity": 1
        },
        {
          "duration": 0.3870969999999989,
          "durationTicks": 192,
          "midi": 38,
          "name": "D2",
          "ticks": 4800,
          "time": 9.746857,
          "velocity": 1
        },
        {
          "duration": 0.3870970000000007,
          "durationTicks": 192,
          "midi": 36,
          "name": "C2",
          "ticks": 4992,
          "time": 10.133954,
          "velocity": 1
        },
        {
          "duration": 0.3870969999999989,
          "durationTicks": 192,
          "midi": 38,
          "name": "D2",
          "ticks": 5184,
          "time": 10.521051,
          "velocity": 1
        },
        {
          "duration": 0.3870970000000007,
          "durationTicks": 192,
          "midi": 36,
          "name": "C2",
          "ticks": 5376,
          "time": 10.908147999999999,
          "velocity": 1
        },
        {
          "duration": 0.3870969999999989,
          "durationTicks": 192,
          "midi": 38,
          "name": "D2",
          "ticks": 5568,
          "time": 11.295245,
          "velocity": 1
        },
        {
          "duration": 0.19354850000000035,
          "durationTicks": 96,
          "midi": 38,
          "name": "D2",
          "ticks": 5760,
          "time": 11.682341999999998,
          "velocity": 1
        },
        {
          "duration": 0.19354850000000035,
          "durationTicks": 96,
          "midi": 38,
          "name": "D2",
          "ticks": 5760,
          "time": 11.682341999999998,
          "velocity": 1
        },
        {
          "duration": 0.19354850000000035,
          "durationTicks": 96,
          "midi": 38,
          "name": "D2",
          "ticks": 5856,
          "time": 11.875890499999999,
          "velocity": 1
        },
        {
          "duration": 0.19354850000000035,
          "durationTicks": 96,
          "midi": 38,
          "name": "D2",
          "ticks": 5856,
          "time": 11.875890499999999,
          "velocity": 1
        },
        {
          "duration": 0.19354850000000035,
          "durationTicks": 96,
          "midi": 38,
          "name": "D2",
          "ticks": 5952,
          "time": 12.069439,
          "velocity": 1
        },
        {
          "duration": 0.19354850000000035,
          "durationTicks": 96,
          "midi": 38,
          "name": "D2",
          "ticks": 5952,
          "time": 12.069439,
          "velocity": 1
        },
        {
          "duration": 0.19354850000000035,
          "durationTicks": 96,
          "midi": 38,
          "name": "D2",
          "ticks": 6048,
          "time": 12.2629875,
          "velocity": 1
        },
        {
          "duration": 0.9482645000000005,
          "durationTicks": 480,
          "midi": 38,
          "name": "D2",
          "ticks": 6048,
          "time": 12.2629875,
          "velocity": 1
        },
        {
          "duration": 0.3773579999999992,
          "durationTicks": 192,
          "midi": 36,
          "name": "C2",
          "ticks": 6144,
          "time": 12.456536,
          "velocity": 1
        },
        {
          "duration": 1.1320740000000011,
          "durationTicks": 576,
          "midi": 38,
          "name": "D2",
          "ticks": 6336,
          "time": 12.833893999999999,
          "velocity": 1
        },
        {
          "duration": 0.3773579999999992,
          "durationTicks": 192,
          "midi": 36,
          "name": "C2",
          "ticks": 6528,
          "time": 13.211252,
          "velocity": 1
        },
        {
          "duration": 1.1320740000000011,
          "durationTicks": 576,
          "midi": 38,
          "name": "D2",
          "ticks": 6720,
          "time": 13.58861,
          "velocity": 1
        },
        {
          "duration": 0.3773579999999992,
          "durationTicks": 192,
          "midi": 36,
          "name": "C2",
          "ticks": 6912,
          "time": 13.965968,
          "velocity": 1
        },
        {
          "duration": 1.1320740000000011,
          "durationTicks": 576,
          "midi": 38,
          "name": "D2",
          "ticks": 7104,
          "time": 14.343326,
          "velocity": 1
        },
        {
          "duration": 0.1886789999999987,
          "durationTicks": 96,
          "midi": 36,
          "name": "C2",
          "ticks": 7296,
          "time": 14.720684,
          "velocity": 1
        },
        {
          "duration": 0.18867900000000049,
          "durationTicks": 96,
          "midi": 36,
          "name": "C2",
          "ticks": 7392,
          "time": 14.909362999999999,
          "velocity": 1
        },
        {
          "duration": 0.37735800000000097,
          "durationTicks": 192,
          "midi": 38,
          "name": "D2",
          "ticks": 7488,
          "time": 15.098042,
          "velocity": 1
        },
        {
          "duration": 1.5094320000000003,
          "durationTicks": 768,
          "midi": 49,
          "name": "C#3",
          "ticks": 7680,
          "time": 15.4754,
          "velocity": 1
        },
        {
          "duration": 0.3773579999999992,
          "durationTicks": 192,
          "midi": 36,
          "name": "C2",
          "ticks": 7680,
          "time": 15.4754,
          "velocity": 1
        },
        {
          "duration": 0.3773579999999992,
          "durationTicks": 192,
          "midi": 38,
          "name": "D2",
          "ticks": 7872,
          "time": 15.852758,
          "velocity": 1
        },
        {
          "duration": 0.18867900000000049,
          "durationTicks": 96,
          "midi": 36,
          "name": "C2",
          "ticks": 8064,
          "time": 16.230116,
          "velocity": 1
        },
        {
          "duration": 0.18867900000000049,
          "durationTicks": 96,
          "midi": 36,
          "name": "C2",
          "ticks": 8160,
          "time": 16.418795,
          "velocity": 1
        },
        {
          "duration": 0.37735800000000097,
          "durationTicks": 192,
          "midi": 38,
          "name": "D2",
          "ticks": 8256,
          "time": 16.607474,
          "velocity": 1
        },
        {
          "duration": 0.18867900000000049,
          "durationTicks": 96,
          "midi": 49,
          "name": "C#3",
          "ticks": 8448,
          "time": 16.984832,
          "velocity": 1
        },
        {
          "duration": 0.18867900000000049,
          "durationTicks": 96,
          "midi": 36,
          "name": "C2",
          "ticks": 8448,
          "time": 16.984832,
          "velocity": 1
        },
        {
          "duration": 0.47169749999999766,
          "durationTicks": 240,
          "midi": 49,
          "name": "C#3",
          "ticks": 8544,
          "time": 17.173511,
          "velocity": 1
        },
        {
          "duration": 0.47169749999999766,
          "durationTicks": 240,
          "midi": 38,
          "name": "D2",
          "ticks": 8544,
          "time": 17.173511,
          "velocity": 1
        },
        {
          "duration": 0.7547160000000019,
          "durationTicks": 384,
          "midi": 49,
          "name": "C#3",
          "ticks": 8784,
          "time": 17.6452085,
          "velocity": 1
        },
        {
          "duration": 0.37735800000000097,
          "durationTicks": 192,
          "midi": 38,
          "name": "D2",
          "ticks": 8784,
          "time": 17.6452085,
          "velocity": 1
        },
        {
          "duration": 0.37735800000000097,
          "durationTicks": 192,
          "midi": 38,
          "name": "D2",
          "ticks": 8976,
          "time": 18.0225665,
          "velocity": 1
        },
        {
          "duration": 0.38999000000000095,
          "durationTicks": 192,
          "midi": 36,
          "name": "C2",
          "ticks": 9168,
          "time": 18.3999245,
          "velocity": 1
        },
        {
          "duration": 0.3899899999999974,
          "durationTicks": 192,
          "midi": 38,
          "name": "D2",
          "ticks": 9360,
          "time": 18.789914500000002,
          "velocity": 1
        },
        {
          "duration": 0.38999000000000095,
          "durationTicks": 192,
          "midi": 36,
          "name": "C2",
          "ticks": 9552,
          "time": 19.1799045,
          "velocity": 1
        },
        {
          "duration": 0.38999000000000095,
          "durationTicks": 192,
          "midi": 38,
          "name": "D2",
          "ticks": 9744,
          "time": 19.5698945,
          "velocity": 1
        },
        {
          "duration": 0.38999000000000095,
          "durationTicks": 192,
          "midi": 36,
          "name": "C2",
          "ticks": 9936,
          "time": 19.9598845,
          "velocity": 1
        },
        {
          "duration": 0.3899899999999974,
          "durationTicks": 192,
          "midi": 38,
          "name": "D2",
          "ticks": 10128,
          "time": 20.349874500000002,
          "velocity": 1
        },
        {
          "duration": 0.19499500000000225,
          "durationTicks": 96,
          "midi": 36,
          "name": "C2",
          "ticks": 10320,
          "time": 20.7398645,
          "velocity": 1
        },
        {
          "duration": 0.1949949999999987,
          "durationTicks": 96,
          "midi": 36,
          "name": "C2",
          "ticks": 10416,
          "time": 20.9348595,
          "velocity": 1
        },
        {
          "duration": 0.1949949999999987,
          "durationTicks": 96,
          "midi": 38,
          "name": "D2",
          "ticks": 10512,
          "time": 21.1298545,
          "velocity": 1
        },
        {
          "duration": 0.38999000000000095,
          "durationTicks": 192,
          "midi": 38,
          "name": "D2",
          "ticks": 10512,
          "time": 21.1298545,
          "velocity": 1
        },
        {
          "duration": 0.19499500000000225,
          "durationTicks": 96,
          "midi": 38,
          "name": "D2",
          "ticks": 10608,
          "time": 21.3248495,
          "velocity": 1
        },
        {
          "duration": 2.7299299999999995,
          "durationTicks": 1344,
          "midi": 49,
          "name": "C#3",
          "ticks": 10704,
          "time": 21.5198445,
          "velocity": 1
        },
        {
          "duration": 0.38999000000000095,
          "durationTicks": 192,
          "midi": 36,
          "name": "C2",
          "ticks": 10704,
          "time": 21.5198445,
          "velocity": 1
        },
        {
          "duration": 0.3899899999999974,
          "durationTicks": 192,
          "midi": 38,
          "name": "D2",
          "ticks": 10896,
          "time": 21.909834500000002,
          "velocity": 1
        },
        {
          "duration": 0.19499500000000225,
          "durationTicks": 96,
          "midi": 36,
          "name": "C2",
          "ticks": 11088,
          "time": 22.2998245,
          "velocity": 1
        },
        {
          "duration": 0.1949949999999987,
          "durationTicks": 96,
          "midi": 36,
          "name": "C2",
          "ticks": 11184,
          "time": 22.494819500000002,
          "velocity": 1
        },
        {
          "duration": 0.38999000000000095,
          "durationTicks": 192,
          "midi": 38,
          "name": "D2",
          "ticks": 11280,
          "time": 22.6898145,
          "velocity": 1
        },
        {
          "duration": 0.1949949999999987,
          "durationTicks": 96,
          "midi": 36,
          "name": "C2",
          "ticks": 11472,
          "time": 23.0798045,
          "velocity": 1
        },
        {
          "duration": 0.4874875000000003,
          "durationTicks": 240,
          "midi": 38,
          "name": "D2",
          "ticks": 11568,
          "time": 23.2747995,
          "velocity": 1
        },
        {
          "duration": 0.38999000000000095,
          "durationTicks": 192,
          "midi": 38,
          "name": "D2",
          "ticks": 11808,
          "time": 23.762287,
          "velocity": 1
        },
        {
          "duration": 0.29249249999999805,
          "durationTicks": 144,
          "midi": 38,
          "name": "D2",
          "ticks": 12000,
          "time": 24.152277,
          "velocity": 1
        },
        {
          "duration": 0.1949949999999987,
          "durationTicks": 96,
          "midi": 38,
          "name": "D2",
          "ticks": 12048,
          "time": 24.2497745,
          "velocity": 1
        },
        {
          "duration": 0.0974975000000029,
          "durationTicks": 48,
          "midi": 38,
          "name": "D2",
          "ticks": 12144,
          "time": 24.4447695,
          "velocity": 1
        },
        {
          "duration": 0.0974975000000029,
          "durationTicks": 48,
          "midi": 38,
          "name": "D2",
          "ticks": 12144,
          "time": 24.4447695,
          "velocity": 1
        },
        {
          "duration": 0.38999000000000095,
          "durationTicks": 192,
          "midi": 36,
          "name": "C2",
          "ticks": 12192,
          "time": 24.542267000000002,
          "velocity": 1
        },
        {
          "duration": 0.3899899999999974,
          "durationTicks": 192,
          "midi": 38,
          "name": "D2",
          "ticks": 12384,
          "time": 24.932257000000003,
          "velocity": 1
        },
        {
          "duration": 0.19499500000000225,
          "durationTicks": 96,
          "midi": 36,
          "name": "C2",
          "ticks": 12576,
          "time": 25.322247,
          "velocity": 1
        },
        {
          "duration": 0.1949949999999987,
          "durationTicks": 96,
          "midi": 36,
          "name": "C2",
          "ticks": 12672,
          "time": 25.517242000000003,
          "velocity": 1
        },
        {
          "duration": 0.38999000000000095,
          "durationTicks": 192,
          "midi": 38,
          "name": "D2",
          "ticks": 12768,
          "time": 25.712237000000002,
          "velocity": 1
        },
        {
          "duration": 0.38999000000000095,
          "durationTicks": 192,
          "midi": 36,
          "name": "C2",
          "ticks": 12960,
          "time": 26.102227000000003,
          "velocity": 1
        },
        {
          "duration": 0.3899899999999974,
          "durationTicks": 192,
          "midi": 38,
          "name": "D2",
          "ticks": 13152,
          "time": 26.492217000000004,
          "velocity": 1
        },
        {
          "duration": 0.19499500000000225,
          "durationTicks": 96,
          "midi": 36,
          "name": "C2",
          "ticks": 13344,
          "time": 26.882207,
          "velocity": 1
        },
        {
          "duration": 0.1949949999999987,
          "durationTicks": 96,
          "midi": 36,
          "name": "C2",
          "ticks": 13440,
          "time": 27.077202000000003,
          "velocity": 1
        },
        {
          "duration": 0.38999000000000095,
          "durationTicks": 192,
          "midi": 38,
          "name": "D2",
          "ticks": 13536,
          "time": 27.272197000000002,
          "velocity": 1
        },
        {
          "duration": 0.38999000000000095,
          "durationTicks": 192,
          "midi": 36,
          "name": "C2",
          "ticks": 13728,
          "time": 27.662187000000003,
          "velocity": 1
        },
        {
          "duration": 0.3899899999999974,
          "durationTicks": 192,
          "midi": 38,
          "name": "D2",
          "ticks": 13920,
          "time": 28.052177000000004,
          "velocity": 1
        },
        {
          "duration": 0.19499500000000225,
          "durationTicks": 96,
          "midi": 36,
          "name": "C2",
          "ticks": 14112,
          "time": 28.442167,
          "velocity": 1
        },
        {
          "duration": 0.1949949999999987,
          "durationTicks": 96,
          "midi": 36,
          "name": "C2",
          "ticks": 14208,
          "time": 28.637162000000004,
          "velocity": 1
        },
        {
          "duration": 0.38999000000000095,
          "durationTicks": 192,
          "midi": 38,
          "name": "D2",
          "ticks": 14304,
          "time": 28.832157000000002,
          "velocity": 1
        },
        {
          "duration": 0.38999000000000095,
          "durationTicks": 192,
          "midi": 36,
          "name": "C2",
          "ticks": 14496,
          "time": 29.222147000000003,
          "velocity": 1
        },
        {
          "duration": 0.3899899999999974,
          "durationTicks": 192,
          "midi": 38,
          "name": "D2",
          "ticks": 14688,
          "time": 29.612137000000004,
          "velocity": 1
        },
        {
          "duration": 0.19499500000000225,
          "durationTicks": 96,
          "midi": 38,
          "name": "D2",
          "ticks": 14880,
          "time": 30.002127,
          "velocity": 1
        },
        {
          "duration": 0.1949949999999987,
          "durationTicks": 96,
          "midi": 38,
          "name": "D2",
          "ticks": 14976,
          "time": 30.197122000000004,
          "velocity": 1
        },
        {
          "duration": 0.19499500000000225,
          "durationTicks": 96,
          "midi": 38,
          "name": "D2",
          "ticks": 15072,
          "time": 30.392117000000002,
          "velocity": 1
        },
        {
          "duration": 0.1949949999999987,
          "durationTicks": 96,
          "midi": 38,
          "name": "D2",
          "ticks": 15168,
          "time": 30.587112000000005,
          "velocity": 1
        },
        {
          "duration": 0.38999000000000095,
          "durationTicks": 192,
          "midi": 36,
          "name": "C2",
          "ticks": 15264,
          "time": 30.782107000000003,
          "velocity": 1
        },
        {
          "duration": 0.3899899999999974,
          "durationTicks": 192,
          "midi": 38,
          "name": "D2",
          "ticks": 15456,
          "time": 31.172097000000004,
          "velocity": 1
        },
        {
          "duration": 0.19499500000000225,
          "durationTicks": 96,
          "midi": 36,
          "name": "C2",
          "ticks": 15648,
          "time": 31.562087000000002,
          "velocity": 1
        },
        {
          "duration": 0.1949949999999987,
          "durationTicks": 96,
          "midi": 36,
          "name": "C2",
          "ticks": 15744,
          "time": 31.757082000000004,
          "velocity": 1
        },
        {
          "duration": 0.3899899999999974,
          "durationTicks": 192,
          "midi": 38,
          "name": "D2",
          "ticks": 15840,
          "time": 31.952077000000003,
          "velocity": 1
        },
        {
          "duration": 0.3899900000000045,
          "durationTicks": 192,
          "midi": 36,
          "name": "C2",
          "ticks": 16032,
          "time": 32.342067,
          "velocity": 1
        },
        {
          "duration": 0.3899899999999974,
          "durationTicks": 192,
          "midi": 38,
          "name": "D2",
          "ticks": 16224,
          "time": 32.732057000000005,
          "velocity": 1
        },
        {
          "duration": 0.1949949999999987,
          "durationTicks": 96,
          "midi": 36,
          "name": "C2",
          "ticks": 16416,
          "time": 33.122047,
          "velocity": 1
        },
        {
          "duration": 0.1949950000000058,
          "durationTicks": 96,
          "midi": 36,
          "name": "C2",
          "ticks": 16512,
          "time": 33.317042,
          "velocity": 1
        },
        {
          "duration": 0.3899899999999974,
          "durationTicks": 192,
          "midi": 38,
          "name": "D2",
          "ticks": 16608,
          "time": 33.51203700000001,
          "velocity": 1
        },
        {
          "duration": 0.3899899999999974,
          "durationTicks": 192,
          "midi": 36,
          "name": "C2",
          "ticks": 16800,
          "time": 33.902027000000004,
          "velocity": 1
        },
        {
          "duration": 0.3899900000000045,
          "durationTicks": 192,
          "midi": 38,
          "name": "D2",
          "ticks": 16992,
          "time": 34.292017,
          "velocity": 1
        },
        {
          "duration": 0.1949949999999987,
          "durationTicks": 96,
          "midi": 36,
          "name": "C2",
          "ticks": 17184,
          "time": 34.682007000000006,
          "velocity": 1
        },
        {
          "duration": 0.1949949999999987,
          "durationTicks": 96,
          "midi": 36,
          "name": "C2",
          "ticks": 17280,
          "time": 34.877002000000005,
          "velocity": 1
        },
        {
          "duration": 0.3899899999999974,
          "durationTicks": 192,
          "midi": 38,
          "name": "D2",
          "ticks": 17376,
          "time": 35.071997,
          "velocity": 1
        },
        {
          "duration": 0.3899900000000045,
          "durationTicks": 192,
          "midi": 36,
          "name": "C2",
          "ticks": 17568,
          "time": 35.461987,
          "velocity": 1
        },
        {
          "duration": 0.3899899999999974,
          "durationTicks": 192,
          "midi": 38,
          "name": "D2",
          "ticks": 17760,
          "time": 35.851977000000005,
          "velocity": 1
        },
        {
          "duration": 0.1949949999999987,
          "durationTicks": 96,
          "midi": 38,
          "name": "D2",
          "ticks": 17952,
          "time": 36.241967,
          "velocity": 1
        },
        {
          "duration": 0.1949949999999987,
          "durationTicks": 96,
          "midi": 38,
          "name": "D2",
          "ticks": 18048,
          "time": 36.436962,
          "velocity": 1
        },
        {
          "duration": 0.1949950000000058,
          "durationTicks": 96,
          "midi": 38,
          "name": "D2",
          "ticks": 18144,
          "time": 36.631957,
          "velocity": 1
        },
        {
          "duration": 0.1949949999999987,
          "durationTicks": 96,
          "midi": 38,
          "name": "D2",
          "ticks": 18240,
          "time": 36.826952000000006,
          "velocity": 1
        },
        {
          "duration": 0.3899899999999974,
          "durationTicks": 192,
          "midi": 36,
          "name": "C2",
          "ticks": 18336,
          "time": 37.021947000000004,
          "velocity": 1
        },
        {
          "duration": 0.3899900000000045,
          "durationTicks": 192,
          "midi": 38,
          "name": "D2",
          "ticks": 18528,
          "time": 37.411937,
          "velocity": 1
        },
        {
          "duration": 0.3899899999999974,
          "durationTicks": 192,
          "midi": 36,
          "name": "C2",
          "ticks": 18720,
          "time": 37.801927000000006,
          "velocity": 1
        },
        {
          "duration": 0.3899899999999974,
          "durationTicks": 192,
          "midi": 38,
          "name": "D2",
          "ticks": 18912,
          "time": 38.191917000000004,
          "velocity": 1
        },
        {
          "duration": 0.3899900000000045,
          "durationTicks": 192,
          "midi": 36,
          "name": "C2",
          "ticks": 19104,
          "time": 38.581907,
          "velocity": 1
        },
        {
          "duration": 0.3899899999999974,
          "durationTicks": 192,
          "midi": 38,
          "name": "D2",
          "ticks": 19296,
          "time": 38.971897000000006,
          "velocity": 1
        },
        {
          "duration": 0.1949949999999987,
          "durationTicks": 96,
          "midi": 36,
          "name": "C2",
          "ticks": 19488,
          "time": 39.361887,
          "velocity": 1
        },
        {
          "duration": 0.1949950000000058,
          "durationTicks": 96,
          "midi": 36,
          "name": "C2",
          "ticks": 19584,
          "time": 39.556882,
          "velocity": 1
        },
        {
          "duration": 0.3899899999999974,
          "durationTicks": 192,
          "midi": 38,
          "name": "D2",
          "ticks": 19680,
          "time": 39.75187700000001,
          "velocity": 1
        },
        {
          "duration": 3.0224224999999976,
          "durationTicks": 1488,
          "midi": 49,
          "name": "C#3",
          "ticks": 19872,
          "time": 40.141867000000005,
          "velocity": 1
        },
        {
          "duration": 0.3899899999999974,
          "durationTicks": 192,
          "midi": 36,
          "name": "C2",
          "ticks": 19872,
          "time": 40.141867000000005,
          "velocity": 1
        },
        {
          "duration": 0.3899900000000045,
          "durationTicks": 192,
          "midi": 38,
          "name": "D2",
          "ticks": 20064,
          "time": 40.531857,
          "velocity": 1
        },
        {
          "duration": 0.1949949999999987,
          "durationTicks": 96,
          "midi": 36,
          "name": "C2",
          "ticks": 20256,
          "time": 40.92184700000001,
          "velocity": 1
        },
        {
          "duration": 0.1949949999999987,
          "durationTicks": 96,
          "midi": 36,
          "name": "C2",
          "ticks": 20352,
          "time": 41.116842000000005,
          "velocity": 1
        },
        {
          "duration": 0.3899899999999974,
          "durationTicks": 192,
          "midi": 38,
          "name": "D2",
          "ticks": 20448,
          "time": 41.311837000000004,
          "velocity": 1
        },
        {
          "duration": 0.1949950000000058,
          "durationTicks": 96,
          "midi": 36,
          "name": "C2",
          "ticks": 20640,
          "time": 41.701827,
          "velocity": 1
        },
        {
          "duration": 0.4874874999999932,
          "durationTicks": 240,
          "midi": 38,
          "name": "D2",
          "ticks": 20736,
          "time": 41.89682200000001,
          "velocity": 1
        },
        {
          "duration": 0.3899900000000045,
          "durationTicks": 192,
          "midi": 38,
          "name": "D2",
          "ticks": 20976,
          "time": 42.3843095,
          "velocity": 1
        },
        {
          "duration": 0.3899899999999974,
          "durationTicks": 192,
          "midi": 38,
          "name": "D2",
          "ticks": 21168,
          "time": 42.774299500000005,
          "velocity": 1
        },
        {
          "duration": 0.38960999999999757,
          "durationTicks": 192,
          "midi": 36,
          "name": "C2",
          "ticks": 21360,
          "time": 43.1642895,
          "velocity": 1
        },
        {
          "duration": 0.3896100000000047,
          "durationTicks": 192,
          "midi": 38,
          "name": "D2",
          "ticks": 21552,
          "time": 43.5538995,
          "velocity": 1
        },
        {
          "duration": 0.38960999999999757,
          "durationTicks": 192,
          "midi": 36,
          "name": "C2",
          "ticks": 21744,
          "time": 43.943509500000005,
          "velocity": 1
        },
        {
          "duration": 0.38960999999999757,
          "durationTicks": 192,
          "midi": 38,
          "name": "D2",
          "ticks": 21936,
          "time": 44.3331195,
          "velocity": 1
        },
        {
          "duration": 0.3896100000000047,
          "durationTicks": 192,
          "midi": 36,
          "name": "C2",
          "ticks": 22128,
          "time": 44.7227295,
          "velocity": 1
        },
        {
          "duration": 0.38960999999999757,
          "durationTicks": 192,
          "midi": 38,
          "name": "D2",
          "ticks": 22320,
          "time": 45.112339500000004,
          "velocity": 1
        },
        {
          "duration": 0.19480500000000234,
          "durationTicks": 96,
          "midi": 36,
          "name": "C2",
          "ticks": 22512,
          "time": 45.5019495,
          "velocity": 1
        },
        {
          "duration": 0.19480499999999523,
          "durationTicks": 96,
          "midi": 36,
          "name": "C2",
          "ticks": 22608,
          "time": 45.696754500000004,
          "velocity": 1
        },
        {
          "duration": 0.3896100000000047,
          "durationTicks": 192,
          "midi": 38,
          "name": "D2",
          "ticks": 22704,
          "time": 45.8915595,
          "velocity": 1
        },
        {
          "duration": 3.0194775000000007,
          "durationTicks": 1488,
          "midi": 49,
          "name": "C#3",
          "ticks": 22896,
          "time": 46.281169500000004,
          "velocity": 1
        },
        {
          "duration": 0.38960999999999757,
          "durationTicks": 192,
          "midi": 36,
          "name": "C2",
          "ticks": 22896,
          "time": 46.281169500000004,
          "velocity": 1
        },
        {
          "duration": 0.38960999999999757,
          "durationTicks": 192,
          "midi": 38,
          "name": "D2",
          "ticks": 23088,
          "time": 46.6707795,
          "velocity": 1
        },
        {
          "duration": 0.19480500000000234,
          "durationTicks": 96,
          "midi": 36,
          "name": "C2",
          "ticks": 23280,
          "time": 47.0603895,
          "velocity": 1
        },
        {
          "duration": 0.19480500000000234,
          "durationTicks": 96,
          "midi": 36,
          "name": "C2",
          "ticks": 23376,
          "time": 47.2551945,
          "velocity": 1
        },
        {
          "duration": 0.38960999999999757,
          "durationTicks": 192,
          "midi": 38,
          "name": "D2",
          "ticks": 23472,
          "time": 47.449999500000004,
          "velocity": 1
        },
        {
          "duration": 0.19480500000000234,
          "durationTicks": 96,
          "midi": 36,
          "name": "C2",
          "ticks": 23664,
          "time": 47.8396095,
          "velocity": 1
        },
        {
          "duration": 0.48701249999999874,
          "durationTicks": 240,
          "midi": 38,
          "name": "D2",
          "ticks": 23760,
          "time": 48.034414500000004,
          "velocity": 1
        },
        {
          "duration": 0.2922075000000035,
          "durationTicks": 144,
          "midi": 38,
          "name": "D2",
          "ticks": 24000,
          "time": 48.521427,
          "velocity": 1
        },
        {
          "duration": 0.09740249999999406,
          "durationTicks": 48,
          "midi": 38,
          "name": "D2",
          "ticks": 24144,
          "time": 48.813634500000006,
          "velocity": 1
        },
        {
          "duration": 0.19480500000000234,
          "durationTicks": 96,
          "midi": 38,
          "name": "D2",
          "ticks": 24192,
          "time": 48.911037,
          "velocity": 1
        },
        {
          "duration": 0.19480500000000234,
          "durationTicks": 96,
          "midi": 38,
          "name": "D2",
          "ticks": 24288,
          "time": 49.105842,
          "velocity": 1
        },
        {
          "duration": 2.532464999999995,
          "durationTicks": 1248,
          "midi": 49,
          "name": "C#3",
          "ticks": 24384,
          "time": 49.300647000000005,
          "velocity": 1
        },
        {
          "duration": 0.38960999999999757,
          "durationTicks": 192,
          "midi": 36,
          "name": "C2",
          "ticks": 24384,
          "time": 49.300647000000005,
          "velocity": 1
        },
        {
          "duration": 0.38960999999999757,
          "durationTicks": 192,
          "midi": 38,
          "name": "D2",
          "ticks": 24576,
          "time": 49.690257,
          "velocity": 1
        },
        {
          "duration": 0.19480500000000234,
          "durationTicks": 96,
          "midi": 36,
          "name": "C2",
          "ticks": 24768,
          "time": 50.079867,
          "velocity": 1
        },
        {
          "duration": 0.19480500000000234,
          "durationTicks": 96,
          "midi": 36,
          "name": "C2",
          "ticks": 24864,
          "time": 50.274672,
          "velocity": 1
        },
        {
          "duration": 0.38960999999999757,
          "durationTicks": 192,
          "midi": 38,
          "name": "D2",
          "ticks": 24960,
          "time": 50.469477000000005,
          "velocity": 1
        },
        {
          "duration": 0.3896100000000047,
          "durationTicks": 192,
          "midi": 36,
          "name": "C2",
          "ticks": 25152,
          "time": 50.859087,
          "velocity": 1
        },
        {
          "duration": 0.38960999999999757,
          "durationTicks": 192,
          "midi": 38,
          "name": "D2",
          "ticks": 25344,
          "time": 51.24869700000001,
          "velocity": 1
        },
        {
          "duration": 0.19480499999999523,
          "durationTicks": 96,
          "midi": 36,
          "name": "C2",
          "ticks": 25536,
          "time": 51.638307000000005,
          "velocity": 1
        },
        {
          "duration": 0.19480500000000234,
          "durationTicks": 96,
          "midi": 38,
          "name": "D2",
          "ticks": 25632,
          "time": 51.833112,
          "velocity": 1
        },
        {
          "duration": 0.19480500000000234,
          "durationTicks": 96,
          "midi": 36,
          "name": "C2",
          "ticks": 25632,
          "time": 51.833112,
          "velocity": 1
        },
        {
          "duration": 0.19480500000000234,
          "durationTicks": 96,
          "midi": 38,
          "name": "D2",
          "ticks": 25728,
          "time": 52.027917,
          "velocity": 1
        },
        {
          "duration": 0.3896100000000047,
          "durationTicks": 192,
          "midi": 38,
          "name": "D2",
          "ticks": 25728,
          "time": 52.027917,
          "velocity": 1
        },
        {
          "duration": 0.19480500000000234,
          "durationTicks": 96,
          "midi": 38,
          "name": "D2",
          "ticks": 25824,
          "time": 52.222722000000005,
          "velocity": 1
        },
        {
          "duration": 2.532464999999995,
          "durationTicks": 1248,
          "midi": 49,
          "name": "C#3",
          "ticks": 25920,
          "time": 52.41752700000001,
          "velocity": 1
        },
        {
          "duration": 0.38960999999999757,
          "durationTicks": 192,
          "midi": 36,
          "name": "C2",
          "ticks": 25920,
          "time": 52.41752700000001,
          "velocity": 1
        },
        {
          "duration": 0.38960999999999757,
          "durationTicks": 192,
          "midi": 38,
          "name": "D2",
          "ticks": 26112,
          "time": 52.807137000000004,
          "velocity": 1
        },
        {
          "duration": 0.19480500000000234,
          "durationTicks": 96,
          "midi": 36,
          "name": "C2",
          "ticks": 26304,
          "time": 53.196747,
          "velocity": 1
        },
        {
          "duration": 0.19480500000000234,
          "durationTicks": 96,
          "midi": 36,
          "name": "C2",
          "ticks": 26400,
          "time": 53.391552000000004,
          "velocity": 1
        },
        {
          "duration": 0.38960999999999757,
          "durationTicks": 192,
          "midi": 38,
          "name": "D2",
          "ticks": 26496,
          "time": 53.58635700000001,
          "velocity": 1
        },
        {
          "duration": 0.38960999999999757,
          "durationTicks": 192,
          "midi": 36,
          "name": "C2",
          "ticks": 26688,
          "time": 53.975967000000004,
          "velocity": 1
        },
        {
          "duration": 0.3896100000000047,
          "durationTicks": 192,
          "midi": 38,
          "name": "D2",
          "ticks": 26880,
          "time": 54.365577,
          "velocity": 1
        },
        {
          "duration": 0.38960999999999757,
          "durationTicks": 192,
          "midi": 36,
          "name": "C2",
          "ticks": 27072,
          "time": 54.75518700000001,
          "velocity": 1
        },
        {
          "duration": 0.19480500000000234,
          "durationTicks": 96,
          "midi": 38,
          "name": "D2",
          "ticks": 27168,
          "time": 54.949992,
          "velocity": 1
        },
        {
          "duration": 0.09740250000000117,
          "durationTicks": 48,
          "midi": 38,
          "name": "D2",
          "ticks": 27264,
          "time": 55.144797000000004,
          "velocity": 1
        },
        {
          "duration": 0.19480499999999523,
          "durationTicks": 96,
          "midi": 38,
          "name": "D2",
          "ticks": 27264,
          "time": 55.144797000000004,
          "velocity": 1
        },
        {
          "duration": 0.2922074999999964,
          "durationTicks": 144,
          "midi": 38,
          "name": "D2",
          "ticks": 27312,
          "time": 55.242199500000005,
          "velocity": 1
        },
        {
          "duration": 0.19480500000000234,
          "durationTicks": 96,
          "midi": 38,
          "name": "D2",
          "ticks": 27360,
          "time": 55.339602,
          "velocity": 1
        },
        {
          "duration": 3.116880000000002,
          "durationTicks": 1536,
          "midi": 49,
          "name": "C#3",
          "ticks": 27456,
          "time": 55.534407,
          "velocity": 1
        },
        {
          "duration": 0.3896100000000047,
          "durationTicks": 192,
          "midi": 36,
          "name": "C2",
          "ticks": 27456,
          "time": 55.534407,
          "velocity": 1
        },
        {
          "duration": 0.38960999999999757,
          "durationTicks": 192,
          "midi": 38,
          "name": "D2",
          "ticks": 27648,
          "time": 55.924017000000006,
          "velocity": 1
        },
        {
          "duration": 0.19480499999999523,
          "durationTicks": 96,
          "midi": 36,
          "name": "C2",
          "ticks": 27840,
          "time": 56.313627000000004,
          "velocity": 1
        },
        {
          "duration": 0.19480500000000234,
          "durationTicks": 96,
          "midi": 36,
          "name": "C2",
          "ticks": 27936,
          "time": 56.508432,
          "velocity": 1
        },
        {
          "duration": 0.3896100000000047,
          "durationTicks": 192,
          "midi": 38,
          "name": "D2",
          "ticks": 28032,
          "time": 56.703237,
          "velocity": 1
        },
        {
          "duration": 0.38960999999999757,
          "durationTicks": 192,
          "midi": 36,
          "name": "C2",
          "ticks": 28224,
          "time": 57.092847000000006,
          "velocity": 1
        },
        {
          "duration": 0.38960999999999757,
          "durationTicks": 192,
          "midi": 38,
          "name": "D2",
          "ticks": 28416,
          "time": 57.482457000000004,
          "velocity": 1
        },
        {
          "duration": 0.19480500000000234,
          "durationTicks": 96,
          "midi": 36,
          "name": "C2",
          "ticks": 28608,
          "time": 57.872067,
          "velocity": 1
        },
        {
          "duration": 0.19480500000000234,
          "durationTicks": 96,
          "midi": 36,
          "name": "C2",
          "ticks": 28704,
          "time": 58.066872000000004,
          "velocity": 1
        },
        {
          "duration": 0.19480499999999523,
          "durationTicks": 96,
          "midi": 38,
          "name": "D2",
          "ticks": 28800,
          "time": 58.261677000000006,
          "velocity": 1
        },
        {
          "duration": 0.19480500000000234,
          "durationTicks": 96,
          "midi": 38,
          "name": "D2",
          "ticks": 28896,
          "time": 58.456482,
          "velocity": 1
        },
        {
          "duration": 3.116880000000002,
          "durationTicks": 1536,
          "midi": 49,
          "name": "C#3",
          "ticks": 28992,
          "time": 58.651287,
          "velocity": 1
        },
        {
          "duration": 0.38960999999999757,
          "durationTicks": 192,
          "midi": 36,
          "name": "C2",
          "ticks": 28992,
          "time": 58.651287,
          "velocity": 1
        },
        {
          "duration": 0.3896100000000047,
          "durationTicks": 192,
          "midi": 38,
          "name": "D2",
          "ticks": 29184,
          "time": 59.040897,
          "velocity": 1
        },
        {
          "duration": 0.19480500000000234,
          "durationTicks": 96,
          "midi": 36,
          "name": "C2",
          "ticks": 29376,
          "time": 59.430507000000006,
          "velocity": 1
        },
        {
          "duration": 0.19480499999999523,
          "durationTicks": 96,
          "midi": 36,
          "name": "C2",
          "ticks": 29472,
          "time": 59.62531200000001,
          "velocity": 1
        },
        {
          "duration": 0.38960999999999757,
          "durationTicks": 192,
          "midi": 38,
          "name": "D2",
          "ticks": 29568,
          "time": 59.820117,
          "velocity": 1
        },
        {
          "duration": 0.3896100000000047,
          "durationTicks": 192,
          "midi": 36,
          "name": "C2",
          "ticks": 29760,
          "time": 60.209727,
          "velocity": 1
        },
        {
          "duration": 0.38960999999999757,
          "durationTicks": 192,
          "midi": 38,
          "name": "D2",
          "ticks": 29952,
          "time": 60.599337000000006,
          "velocity": 1
        },
        {
          "duration": 0.2922074999999964,
          "durationTicks": 144,
          "midi": 36,
          "name": "C2",
          "ticks": 30144,
          "time": 60.988947,
          "velocity": 1
        },
        {
          "duration": 0.09740250000000117,
          "durationTicks": 48,
          "midi": 38,
          "name": "D2",
          "ticks": 30288,
          "time": 61.2811545,
          "velocity": 1
        },
        {
          "duration": 0.19480500000000234,
          "durationTicks": 96,
          "midi": 38,
          "name": "D2",
          "ticks": 30336,
          "time": 61.378557,
          "velocity": 1
        },
        {
          "duration": 0.19480500000000234,
          "durationTicks": 96,
          "midi": 38,
          "name": "D2",
          "ticks": 30432,
          "time": 61.573362,
          "velocity": 1
        },
        {
          "duration": 0.3899899999999974,
          "durationTicks": 192,
          "midi": 36,
          "name": "C2",
          "ticks": 30528,
          "time": 61.768167000000005,
          "velocity": 1
        },
        {
          "duration": 0.3899900000000045,
          "durationTicks": 192,
          "midi": 38,
          "name": "D2",
          "ticks": 30720,
          "time": 62.158157,
          "velocity": 1
        },
        {
          "duration": 0.3899899999999974,
          "durationTicks": 192,
          "midi": 36,
          "name": "C2",
          "ticks": 30912,
          "time": 62.54814700000001,
          "velocity": 1
        },
        {
          "duration": 0.3899899999999974,
          "durationTicks": 192,
          "midi": 38,
          "name": "D2",
          "ticks": 31104,
          "time": 62.938137000000005,
          "velocity": 1
        },
        {
          "duration": 0.3899900000000045,
          "durationTicks": 192,
          "midi": 36,
          "name": "C2",
          "ticks": 31296,
          "time": 63.328127,
          "velocity": 1
        },
        {
          "duration": 0.3899899999999974,
          "durationTicks": 192,
          "midi": 38,
          "name": "D2",
          "ticks": 31488,
          "time": 63.71811700000001,
          "velocity": 1
        },
        {
          "duration": 0.1949950000000058,
          "durationTicks": 96,
          "midi": 36,
          "name": "C2",
          "ticks": 31680,
          "time": 64.108107,
          "velocity": 1
        },
        {
          "duration": 0.1949949999999916,
          "durationTicks": 96,
          "midi": 36,
          "name": "C2",
          "ticks": 31776,
          "time": 64.30310200000001,
          "velocity": 1
        },
        {
          "duration": 0.3899899999999974,
          "durationTicks": 192,
          "midi": 38,
          "name": "D2",
          "ticks": 31872,
          "time": 64.498097,
          "velocity": 1
        },
        {
          "duration": 3.0224225000000047,
          "durationTicks": 1488,
          "midi": 49,
          "name": "C#3",
          "ticks": 32064,
          "time": 64.888087,
          "velocity": 1
        },
        {
          "duration": 0.3899900000000116,
          "durationTicks": 192,
          "midi": 36,
          "name": "C2",
          "ticks": 32064,
          "time": 64.888087,
          "velocity": 1
        },
        {
          "duration": 0.3899899999999974,
          "durationTicks": 192,
          "midi": 38,
          "name": "D2",
          "ticks": 32256,
          "time": 65.27807700000001,
          "velocity": 1
        },
        {
          "duration": 0.1949949999999916,
          "durationTicks": 96,
          "midi": 36,
          "name": "C2",
          "ticks": 32448,
          "time": 65.66806700000001,
          "velocity": 1
        },
        {
          "duration": 0.1949950000000058,
          "durationTicks": 96,
          "midi": 36,
          "name": "C2",
          "ticks": 32544,
          "time": 65.863062,
          "velocity": 1
        },
        {
          "duration": 0.3899899999999974,
          "durationTicks": 192,
          "midi": 38,
          "name": "D2",
          "ticks": 32640,
          "time": 66.058057,
          "velocity": 1
        },
        {
          "duration": 0.1949950000000058,
          "durationTicks": 96,
          "midi": 36,
          "name": "C2",
          "ticks": 32832,
          "time": 66.448047,
          "velocity": 1
        },
        {
          "duration": 0.4874875000000003,
          "durationTicks": 240,
          "midi": 38,
          "name": "D2",
          "ticks": 32928,
          "time": 66.64304200000001,
          "velocity": 1
        },
        {
          "duration": 0.3899899999999974,
          "durationTicks": 192,
          "midi": 38,
          "name": "D2",
          "ticks": 33168,
          "time": 67.13052950000001,
          "velocity": 1
        },
        {
          "duration": 0.3899899999999974,
          "durationTicks": 192,
          "midi": 38,
          "name": "D2",
          "ticks": 33360,
          "time": 67.5205195,
          "velocity": 1
        },
        {
          "duration": 0.3899899999999974,
          "durationTicks": 192,
          "midi": 36,
          "name": "C2",
          "ticks": 33552,
          "time": 67.9105095,
          "velocity": 1
        },
        {
          "duration": 0.3899899999999974,
          "durationTicks": 192,
          "midi": 38,
          "name": "D2",
          "ticks": 33744,
          "time": 68.3004995,
          "velocity": 1
        },
        {
          "duration": 0.3899900000000116,
          "durationTicks": 192,
          "midi": 36,
          "name": "C2",
          "ticks": 33936,
          "time": 68.6904895,
          "velocity": 1
        },
        {
          "duration": 0.3899899999999974,
          "durationTicks": 192,
          "midi": 38,
          "name": "D2",
          "ticks": 34128,
          "time": 69.08047950000001,
          "velocity": 1
        },
        {
          "duration": 0.3899899999999974,
          "durationTicks": 192,
          "midi": 36,
          "name": "C2",
          "ticks": 34320,
          "time": 69.47046950000001,
          "velocity": 1
        },
        {
          "duration": 0.3899899999999974,
          "durationTicks": 192,
          "midi": 38,
          "name": "D2",
          "ticks": 34512,
          "time": 69.8604595,
          "velocity": 1
        },
        {
          "duration": 0.1949950000000058,
          "durationTicks": 96,
          "midi": 36,
          "name": "C2",
          "ticks": 34704,
          "time": 70.2504495,
          "velocity": 1
        },
        {
          "duration": 0.1949949999999916,
          "durationTicks": 96,
          "midi": 36,
          "name": "C2",
          "ticks": 34800,
          "time": 70.44544450000001,
          "velocity": 1
        },
        {
          "duration": 0.3899899999999974,
          "durationTicks": 192,
          "midi": 38,
          "name": "D2",
          "ticks": 34896,
          "time": 70.6404395,
          "velocity": 1
        },
        {
          "duration": 3.0224225000000047,
          "durationTicks": 1488,
          "midi": 49,
          "name": "C#3",
          "ticks": 35088,
          "time": 71.0304295,
          "velocity": 1
        },
        {
          "duration": 0.3899900000000116,
          "durationTicks": 192,
          "midi": 36,
          "name": "C2",
          "ticks": 35088,
          "time": 71.0304295,
          "velocity": 1
        },
        {
          "duration": 0.3899899999999974,
          "durationTicks": 192,
          "midi": 38,
          "name": "D2",
          "ticks": 35280,
          "time": 71.42041950000001,
          "velocity": 1
        },
        {
          "duration": 0.1949949999999916,
          "durationTicks": 96,
          "midi": 36,
          "name": "C2",
          "ticks": 35472,
          "time": 71.8104095,
          "velocity": 1
        },
        {
          "duration": 0.1949950000000058,
          "durationTicks": 96,
          "midi": 36,
          "name": "C2",
          "ticks": 35568,
          "time": 72.0054045,
          "velocity": 1
        },
        {
          "duration": 0.3899899999999974,
          "durationTicks": 192,
          "midi": 38,
          "name": "D2",
          "ticks": 35664,
          "time": 72.2003995,
          "velocity": 1
        },
        {
          "duration": 0.1949950000000058,
          "durationTicks": 96,
          "midi": 36,
          "name": "C2",
          "ticks": 35856,
          "time": 72.5903895,
          "velocity": 1
        },
        {
          "duration": 0.4874875000000003,
          "durationTicks": 240,
          "midi": 38,
          "name": "D2",
          "ticks": 35952,
          "time": 72.7853845,
          "velocity": 1
        },
        {
          "duration": 0.3899899999999974,
          "durationTicks": 192,
          "midi": 38,
          "name": "D2",
          "ticks": 36192,
          "time": 73.272872,
          "velocity": 1
        },
        {
          "duration": 0.3899899999999974,
          "durationTicks": 192,
          "midi": 38,
          "name": "D2",
          "ticks": 36384,
          "time": 73.662862,
          "velocity": 1
        },
        {
          "duration": 0.3899899999999974,
          "durationTicks": 192,
          "midi": 36,
          "name": "C2",
          "ticks": 36576,
          "time": 74.052852,
          "velocity": 1
        },
        {
          "duration": 0.3899899999999974,
          "durationTicks": 192,
          "midi": 38,
          "name": "D2",
          "ticks": 36768,
          "time": 74.442842,
          "velocity": 1
        },
        {
          "duration": 0.3899900000000116,
          "durationTicks": 192,
          "midi": 36,
          "name": "C2",
          "ticks": 36960,
          "time": 74.832832,
          "velocity": 1
        },
        {
          "duration": 0.3899899999999974,
          "durationTicks": 192,
          "midi": 38,
          "name": "D2",
          "ticks": 37152,
          "time": 75.22282200000001,
          "velocity": 1
        },
        {
          "duration": 0.3899899999999974,
          "durationTicks": 192,
          "midi": 36,
          "name": "C2",
          "ticks": 37344,
          "time": 75.612812,
          "velocity": 1
        },
        {
          "duration": 0.3899899999999974,
          "durationTicks": 192,
          "midi": 38,
          "name": "D2",
          "ticks": 37536,
          "time": 76.002802,
          "velocity": 1
        },
        {
          "duration": 0.1949950000000058,
          "durationTicks": 96,
          "midi": 36,
          "name": "C2",
          "ticks": 37728,
          "time": 76.392792,
          "velocity": 1
        },
        {
          "duration": 0.1949949999999916,
          "durationTicks": 96,
          "midi": 36,
          "name": "C2",
          "ticks": 37824,
          "time": 76.587787,
          "velocity": 1
        },
        {
          "duration": 0.3899899999999974,
          "durationTicks": 192,
          "midi": 38,
          "name": "D2",
          "ticks": 37920,
          "time": 76.782782,
          "velocity": 1
        },
        {
          "duration": 3.0224225000000047,
          "durationTicks": 1488,
          "midi": 49,
          "name": "C#3",
          "ticks": 38112,
          "time": 77.172772,
          "velocity": 1
        },
        {
          "duration": 0.3899900000000116,
          "durationTicks": 192,
          "midi": 36,
          "name": "C2",
          "ticks": 38112,
          "time": 77.172772,
          "velocity": 1
        },
        {
          "duration": 0.3899899999999974,
          "durationTicks": 192,
          "midi": 38,
          "name": "D2",
          "ticks": 38304,
          "time": 77.562762,
          "velocity": 1
        },
        {
          "duration": 0.1949949999999916,
          "durationTicks": 96,
          "midi": 36,
          "name": "C2",
          "ticks": 38496,
          "time": 77.952752,
          "velocity": 1
        },
        {
          "duration": 0.1949950000000058,
          "durationTicks": 96,
          "midi": 36,
          "name": "C2",
          "ticks": 38592,
          "time": 78.147747,
          "velocity": 1
        },
        {
          "duration": 0.3899899999999974,
          "durationTicks": 192,
          "midi": 38,
          "name": "D2",
          "ticks": 38688,
          "time": 78.342742,
          "velocity": 1
        },
        {
          "duration": 0.1949950000000058,
          "durationTicks": 96,
          "midi": 36,
          "name": "C2",
          "ticks": 38880,
          "time": 78.732732,
          "velocity": 1
        },
        {
          "duration": 0.4874875000000003,
          "durationTicks": 240,
          "midi": 38,
          "name": "D2",
          "ticks": 38976,
          "time": 78.927727,
          "velocity": 1
        },
        {
          "duration": 0.3899899999999974,
          "durationTicks": 192,
          "midi": 38,
          "name": "D2",
          "ticks": 39216,
          "time": 79.4152145,
          "velocity": 1
        },
        {
          "duration": 0.3899899999999974,
          "durationTicks": 192,
          "midi": 38,
          "name": "D2",
          "ticks": 39408,
          "time": 79.8052045,
          "velocity": 1
        },
        {
          "duration": 0.3899899999999974,
          "durationTicks": 192,
          "midi": 36,
          "name": "C2",
          "ticks": 39600,
          "time": 80.1951945,
          "velocity": 1
        },
        {
          "duration": 0.3899899999999974,
          "durationTicks": 192,
          "midi": 38,
          "name": "D2",
          "ticks": 39792,
          "time": 80.5851845,
          "velocity": 1
        },
        {
          "duration": 0.3899900000000116,
          "durationTicks": 192,
          "midi": 36,
          "name": "C2",
          "ticks": 39984,
          "time": 80.9751745,
          "velocity": 1
        },
        {
          "duration": 0.3899899999999974,
          "durationTicks": 192,
          "midi": 38,
          "name": "D2",
          "ticks": 40176,
          "time": 81.3651645,
          "velocity": 1
        },
        {
          "duration": 0.3899899999999974,
          "durationTicks": 192,
          "midi": 36,
          "name": "C2",
          "ticks": 40368,
          "time": 81.7551545,
          "velocity": 1
        },
        {
          "duration": 0.3899899999999974,
          "durationTicks": 192,
          "midi": 38,
          "name": "D2",
          "ticks": 40560,
          "time": 82.1451445,
          "velocity": 1
        },
        {
          "duration": 0.1949950000000058,
          "durationTicks": 96,
          "midi": 36,
          "name": "C2",
          "ticks": 40752,
          "time": 82.5351345,
          "velocity": 1
        },
        {
          "duration": 0.1949949999999916,
          "durationTicks": 96,
          "midi": 36,
          "name": "C2",
          "ticks": 40848,
          "time": 82.7301295,
          "velocity": 1
        },
        {
          "duration": 0.3899899999999974,
          "durationTicks": 192,
          "midi": 38,
          "name": "D2",
          "ticks": 40944,
          "time": 82.9251245,
          "velocity": 1
        },
        {
          "duration": 3.0224225000000047,
          "durationTicks": 1488,
          "midi": 49,
          "name": "C#3",
          "ticks": 41136,
          "time": 83.31511449999999,
          "velocity": 1
        },
        {
          "duration": 0.3899900000000116,
          "durationTicks": 192,
          "midi": 36,
          "name": "C2",
          "ticks": 41136,
          "time": 83.31511449999999,
          "velocity": 1
        },
        {
          "duration": 0.3899899999999974,
          "durationTicks": 192,
          "midi": 38,
          "name": "D2",
          "ticks": 41328,
          "time": 83.7051045,
          "velocity": 1
        },
        {
          "duration": 0.1949949999999916,
          "durationTicks": 96,
          "midi": 36,
          "name": "C2",
          "ticks": 41520,
          "time": 84.0950945,
          "velocity": 1
        },
        {
          "duration": 0.1949950000000058,
          "durationTicks": 96,
          "midi": 36,
          "name": "C2",
          "ticks": 41616,
          "time": 84.2900895,
          "velocity": 1
        },
        {
          "duration": 0.3899899999999974,
          "durationTicks": 192,
          "midi": 38,
          "name": "D2",
          "ticks": 41712,
          "time": 84.4850845,
          "velocity": 1
        },
        {
          "duration": 0.1949950000000058,
          "durationTicks": 96,
          "midi": 36,
          "name": "C2",
          "ticks": 41904,
          "time": 84.8750745,
          "velocity": 1
        },
        {
          "duration": 0.4874875000000003,
          "durationTicks": 240,
          "midi": 38,
          "name": "D2",
          "ticks": 42000,
          "time": 85.0700695,
          "velocity": 1
        },
        {
          "duration": 0.3899899999999974,
          "durationTicks": 192,
          "midi": 38,
          "name": "D2",
          "ticks": 42240,
          "time": 85.557557,
          "velocity": 1
        },
        {
          "duration": 0.3899899999999974,
          "durationTicks": 192,
          "midi": 38,
          "name": "D2",
          "ticks": 42432,
          "time": 85.947547,
          "velocity": 1
        },
        {
          "duration": 0.3899899999999974,
          "durationTicks": 192,
          "midi": 36,
          "name": "C2",
          "ticks": 42624,
          "time": 86.337537,
          "velocity": 1
        },
        {
          "duration": 0.3899899999999974,
          "durationTicks": 192,
          "midi": 38,
          "name": "D2",
          "ticks": 42816,
          "time": 86.727527,
          "velocity": 1
        },
        {
          "duration": 0.3899900000000116,
          "durationTicks": 192,
          "midi": 36,
          "name": "C2",
          "ticks": 43008,
          "time": 87.11751699999999,
          "velocity": 1
        },
        {
          "duration": 0.3899899999999974,
          "durationTicks": 192,
          "midi": 38,
          "name": "D2",
          "ticks": 43200,
          "time": 87.507507,
          "velocity": 1
        },
        {
          "duration": 0.3899899999999974,
          "durationTicks": 192,
          "midi": 36,
          "name": "C2",
          "ticks": 43392,
          "time": 87.897497,
          "velocity": 1
        },
        {
          "duration": 0.3899899999999974,
          "durationTicks": 192,
          "midi": 38,
          "name": "D2",
          "ticks": 43584,
          "time": 88.287487,
          "velocity": 1
        },
        {
          "duration": 0.1949950000000058,
          "durationTicks": 96,
          "midi": 36,
          "name": "C2",
          "ticks": 43776,
          "time": 88.677477,
          "velocity": 1
        },
        {
          "duration": 0.1949949999999916,
          "durationTicks": 96,
          "midi": 36,
          "name": "C2",
          "ticks": 43872,
          "time": 88.872472,
          "velocity": 1
        },
        {
          "duration": 0.3899899999999974,
          "durationTicks": 192,
          "midi": 38,
          "name": "D2",
          "ticks": 43968,
          "time": 89.067467,
          "velocity": 1
        },
        {
          "duration": 0.3899900000000116,
          "durationTicks": 192,
          "midi": 36,
          "name": "C2",
          "ticks": 44160,
          "time": 89.45745699999999,
          "velocity": 1
        },
        {
          "duration": 0.3899899999999974,
          "durationTicks": 192,
          "midi": 38,
          "name": "D2",
          "ticks": 44352,
          "time": 89.847447,
          "velocity": 1
        },
        {
          "duration": 0.1949949999999916,
          "durationTicks": 96,
          "midi": 36,
          "name": "C2",
          "ticks": 44544,
          "time": 90.237437,
          "velocity": 1
        },
        {
          "duration": 0.1949950000000058,
          "durationTicks": 96,
          "midi": 36,
          "name": "C2",
          "ticks": 44640,
          "time": 90.43243199999999,
          "velocity": 1
        },
        {
          "duration": 0.3899899999999974,
          "durationTicks": 192,
          "midi": 38,
          "name": "D2",
          "ticks": 44736,
          "time": 90.627427,
          "velocity": 1
        },
        {
          "duration": 0.1949950000000058,
          "durationTicks": 96,
          "midi": 36,
          "name": "C2",
          "ticks": 44928,
          "time": 91.017417,
          "velocity": 1
        },
        {
          "duration": 0.4874875000000003,
          "durationTicks": 240,
          "midi": 38,
          "name": "D2",
          "ticks": 45024,
          "time": 91.212412,
          "velocity": 1
        },
        {
          "duration": 0.3899899999999974,
          "durationTicks": 192,
          "midi": 38,
          "name": "D2",
          "ticks": 45264,
          "time": 91.6998995,
          "velocity": 1
        },
        {
          "duration": 0.3899899999999974,
          "durationTicks": 192,
          "midi": 38,
          "name": "D2",
          "ticks": 45456,
          "time": 92.0898895,
          "velocity": 1
        },
        {
          "duration": 0.3899899999999974,
          "durationTicks": 192,
          "midi": 36,
          "name": "C2",
          "ticks": 45648,
          "time": 92.4798795,
          "velocity": 1
        },
        {
          "duration": 0.3899899999999974,
          "durationTicks": 192,
          "midi": 38,
          "name": "D2",
          "ticks": 45840,
          "time": 92.8698695,
          "velocity": 1
        },
        {
          "duration": 0.3899900000000116,
          "durationTicks": 192,
          "midi": 36,
          "name": "C2",
          "ticks": 46032,
          "time": 93.25985949999999,
          "velocity": 1
        },
        {
          "duration": 0.3899899999999974,
          "durationTicks": 192,
          "midi": 38,
          "name": "D2",
          "ticks": 46224,
          "time": 93.6498495,
          "velocity": 1
        },
        {
          "duration": 0.3899899999999974,
          "durationTicks": 192,
          "midi": 36,
          "name": "C2",
          "ticks": 46416,
          "time": 94.0398395,
          "velocity": 1
        },
        {
          "duration": 0.3899899999999974,
          "durationTicks": 192,
          "midi": 38,
          "name": "D2",
          "ticks": 46608,
          "time": 94.4298295,
          "velocity": 1
        },
        {
          "duration": 0.1949950000000058,
          "durationTicks": 96,
          "midi": 36,
          "name": "C2",
          "ticks": 46800,
          "time": 94.8198195,
          "velocity": 1
        },
        {
          "duration": 0.1949949999999916,
          "durationTicks": 96,
          "midi": 36,
          "name": "C2",
          "ticks": 46896,
          "time": 95.0148145,
          "velocity": 1
        },
        {
          "duration": 0.3899899999999974,
          "durationTicks": 192,
          "midi": 38,
          "name": "D2",
          "ticks": 46992,
          "time": 95.20980949999999,
          "velocity": 1
        },
        {
          "duration": 0.3899900000000116,
          "durationTicks": 192,
          "midi": 36,
          "name": "C2",
          "ticks": 47184,
          "time": 95.59979949999999,
          "velocity": 1
        },
        {
          "duration": 0.3899899999999974,
          "durationTicks": 192,
          "midi": 38,
          "name": "D2",
          "ticks": 47376,
          "time": 95.9897895,
          "velocity": 1
        },
        {
          "duration": 0.1949949999999916,
          "durationTicks": 96,
          "midi": 36,
          "name": "C2",
          "ticks": 47568,
          "time": 96.3797795,
          "velocity": 1
        },
        {
          "duration": 0.1949950000000058,
          "durationTicks": 96,
          "midi": 36,
          "name": "C2",
          "ticks": 47664,
          "time": 96.57477449999999,
          "velocity": 1
        },
        {
          "duration": 0.3899899999999974,
          "durationTicks": 192,
          "midi": 38,
          "name": "D2",
          "ticks": 47760,
          "time": 96.7697695,
          "velocity": 1
        },
        {
          "duration": 0.1949950000000058,
          "durationTicks": 96,
          "midi": 36,
          "name": "C2",
          "ticks": 47952,
          "time": 97.15975949999999,
          "velocity": 1
        },
        {
          "duration": 0.4874875000000003,
          "durationTicks": 240,
          "midi": 38,
          "name": "D2",
          "ticks": 48048,
          "time": 97.3547545,
          "velocity": 1
        },
        {
          "duration": 0.3899899999999974,
          "durationTicks": 192,
          "midi": 38,
          "name": "D2",
          "ticks": 48288,
          "time": 97.842242,
          "velocity": 1
        },
        {
          "duration": 0.3899899999999974,
          "durationTicks": 192,
          "midi": 38,
          "name": "D2",
          "ticks": 48480,
          "time": 98.232232,
          "velocity": 1
        },
        {
          "duration": 0.3899899999999974,
          "durationTicks": 192,
          "midi": 36,
          "name": "C2",
          "ticks": 48672,
          "time": 98.622222,
          "velocity": 1
        },
        {
          "duration": 0.3899899999999974,
          "durationTicks": 192,
          "midi": 38,
          "name": "D2",
          "ticks": 48864,
          "time": 99.01221199999999,
          "velocity": 1
        },
        {
          "duration": 0.3899900000000116,
          "durationTicks": 192,
          "midi": 36,
          "name": "C2",
          "ticks": 49056,
          "time": 99.40220199999999,
          "velocity": 1
        },
        {
          "duration": 0.3899899999999974,
          "durationTicks": 192,
          "midi": 38,
          "name": "D2",
          "ticks": 49248,
          "time": 99.792192,
          "velocity": 1
        },
        {
          "duration": 0.3899899999999974,
          "durationTicks": 192,
          "midi": 36,
          "name": "C2",
          "ticks": 49440,
          "time": 100.182182,
          "velocity": 1
        },
        {
          "duration": 0.3899899999999974,
          "durationTicks": 192,
          "midi": 38,
          "name": "D2",
          "ticks": 49632,
          "time": 100.572172,
          "velocity": 1
        },
        {
          "duration": 0.1949950000000058,
          "durationTicks": 96,
          "midi": 36,
          "name": "C2",
          "ticks": 49824,
          "time": 100.96216199999999,
          "velocity": 1
        },
        {
          "duration": 0.1949949999999916,
          "durationTicks": 96,
          "midi": 36,
          "name": "C2",
          "ticks": 49920,
          "time": 101.157157,
          "velocity": 1
        },
        {
          "duration": 0.3899899999999974,
          "durationTicks": 192,
          "midi": 38,
          "name": "D2",
          "ticks": 50016,
          "time": 101.35215199999999,
          "velocity": 1
        },
        {
          "duration": 0.3899900000000116,
          "durationTicks": 192,
          "midi": 36,
          "name": "C2",
          "ticks": 50208,
          "time": 101.74214199999999,
          "velocity": 1
        },
        {
          "duration": 0.3899899999999974,
          "durationTicks": 192,
          "midi": 38,
          "name": "D2",
          "ticks": 50400,
          "time": 102.132132,
          "velocity": 1
        },
        {
          "duration": 0.1949949999999916,
          "durationTicks": 96,
          "midi": 36,
          "name": "C2",
          "ticks": 50592,
          "time": 102.522122,
          "velocity": 1
        },
        {
          "duration": 0.1949950000000058,
          "durationTicks": 96,
          "midi": 36,
          "name": "C2",
          "ticks": 50688,
          "time": 102.71711699999999,
          "velocity": 1
        },
        {
          "duration": 0.3899899999999974,
          "durationTicks": 192,
          "midi": 38,
          "name": "D2",
          "ticks": 50784,
          "time": 102.912112,
          "velocity": 1
        },
        {
          "duration": 0.1949950000000058,
          "durationTicks": 96,
          "midi": 36,
          "name": "C2",
          "ticks": 50976,
          "time": 103.30210199999999,
          "velocity": 1
        },
        {
          "duration": 0.4874875000000003,
          "durationTicks": 240,
          "midi": 38,
          "name": "D2",
          "ticks": 51072,
          "time": 103.497097,
          "velocity": 1
        },
        {
          "duration": 0.3899899999999974,
          "durationTicks": 192,
          "midi": 38,
          "name": "D2",
          "ticks": 51312,
          "time": 103.9845845,
          "velocity": 1
        },
        {
          "duration": 0.3899899999999974,
          "durationTicks": 192,
          "midi": 38,
          "name": "D2",
          "ticks": 51504,
          "time": 104.3745745,
          "velocity": 1
        },
        {
          "duration": 0.3899899999999974,
          "durationTicks": 192,
          "midi": 36,
          "name": "C2",
          "ticks": 51696,
          "time": 104.76456449999999,
          "velocity": 1
        },
        {
          "duration": 0.3899899999999974,
          "durationTicks": 192,
          "midi": 38,
          "name": "D2",
          "ticks": 51888,
          "time": 105.15455449999999,
          "velocity": 1
        },
        {
          "duration": 0.3899900000000116,
          "durationTicks": 192,
          "midi": 36,
          "name": "C2",
          "ticks": 52080,
          "time": 105.54454449999999,
          "velocity": 1
        },
        {
          "duration": 0.3899899999999974,
          "durationTicks": 192,
          "midi": 38,
          "name": "D2",
          "ticks": 52272,
          "time": 105.9345345,
          "velocity": 1
        },
        {
          "duration": 0.3899899999999974,
          "durationTicks": 192,
          "midi": 36,
          "name": "C2",
          "ticks": 52464,
          "time": 106.3245245,
          "velocity": 1
        },
        {
          "duration": 0.3899899999999974,
          "durationTicks": 192,
          "midi": 38,
          "name": "D2",
          "ticks": 52656,
          "time": 106.71451449999999,
          "velocity": 1
        },
        {
          "duration": 0.1949950000000058,
          "durationTicks": 96,
          "midi": 36,
          "name": "C2",
          "ticks": 52848,
          "time": 107.10450449999999,
          "velocity": 1
        },
        {
          "duration": 0.1949949999999916,
          "durationTicks": 96,
          "midi": 36,
          "name": "C2",
          "ticks": 52944,
          "time": 107.2994995,
          "velocity": 1
        },
        {
          "duration": 0.3899899999999974,
          "durationTicks": 192,
          "midi": 38,
          "name": "D2",
          "ticks": 53040,
          "time": 107.49449449999999,
          "velocity": 1
        },
        {
          "duration": 0.3899900000000116,
          "durationTicks": 192,
          "midi": 36,
          "name": "C2",
          "ticks": 53232,
          "time": 107.88448449999999,
          "velocity": 1
        },
        {
          "duration": 0.3899899999999974,
          "durationTicks": 192,
          "midi": 38,
          "name": "D2",
          "ticks": 53424,
          "time": 108.2744745,
          "velocity": 1
        },
        {
          "duration": 0.1949949999999916,
          "durationTicks": 96,
          "midi": 36,
          "name": "C2",
          "ticks": 53616,
          "time": 108.6644645,
          "velocity": 1
        },
        {
          "duration": 0.1949950000000058,
          "durationTicks": 96,
          "midi": 36,
          "name": "C2",
          "ticks": 53712,
          "time": 108.85945949999999,
          "velocity": 1
        },
        {
          "duration": 0.3899899999999974,
          "durationTicks": 192,
          "midi": 38,
          "name": "D2",
          "ticks": 53808,
          "time": 109.05445449999999,
          "velocity": 1
        },
        {
          "duration": 0.1949950000000058,
          "durationTicks": 96,
          "midi": 36,
          "name": "C2",
          "ticks": 54000,
          "time": 109.44444449999999,
          "velocity": 1
        },
        {
          "duration": 0.4874875000000003,
          "durationTicks": 240,
          "midi": 38,
          "name": "D2",
          "ticks": 54096,
          "time": 109.6394395,
          "velocity": 1
        },
        {
          "duration": 0.3899899999999974,
          "durationTicks": 192,
          "midi": 38,
          "name": "D2",
          "ticks": 54336,
          "time": 110.126927,
          "velocity": 1
        },
        {
          "duration": 0.3899899999999974,
          "durationTicks": 192,
          "midi": 38,
          "name": "D2",
          "ticks": 54528,
          "time": 110.51691699999999,
          "velocity": 1
        },
        {
          "duration": 0.3899899999999974,
          "durationTicks": 192,
          "midi": 36,
          "name": "C2",
          "ticks": 54720,
          "time": 110.90690699999999,
          "velocity": 1
        },
        {
          "duration": 0.3899899999999974,
          "durationTicks": 192,
          "midi": 38,
          "name": "D2",
          "ticks": 54912,
          "time": 111.29689699999999,
          "velocity": 1
        },
        {
          "duration": 0.3899900000000116,
          "durationTicks": 192,
          "midi": 36,
          "name": "C2",
          "ticks": 55104,
          "time": 111.68688699999998,
          "velocity": 1
        },
        {
          "duration": 0.3899899999999974,
          "durationTicks": 192,
          "midi": 38,
          "name": "D2",
          "ticks": 55296,
          "time": 112.076877,
          "velocity": 1
        },
        {
          "duration": 0.3899899999999974,
          "durationTicks": 192,
          "midi": 36,
          "name": "C2",
          "ticks": 55488,
          "time": 112.466867,
          "velocity": 1
        },
        {
          "duration": 0.3899899999999974,
          "durationTicks": 192,
          "midi": 38,
          "name": "D2",
          "ticks": 55680,
          "time": 112.85685699999999,
          "velocity": 1
        },
        {
          "duration": 0.1949950000000058,
          "durationTicks": 96,
          "midi": 36,
          "name": "C2",
          "ticks": 55872,
          "time": 113.24684699999999,
          "velocity": 1
        },
        {
          "duration": 0.1949949999999916,
          "durationTicks": 96,
          "midi": 36,
          "name": "C2",
          "ticks": 55968,
          "time": 113.441842,
          "velocity": 1
        },
        {
          "duration": 0.3899899999999974,
          "durationTicks": 192,
          "midi": 38,
          "name": "D2",
          "ticks": 56064,
          "time": 113.63683699999999,
          "velocity": 1
        },
        {
          "duration": 0.3899900000000116,
          "durationTicks": 192,
          "midi": 36,
          "name": "C2",
          "ticks": 56256,
          "time": 114.02682699999998,
          "velocity": 1
        },
        {
          "duration": 0.3899899999999974,
          "durationTicks": 192,
          "midi": 38,
          "name": "D2",
          "ticks": 56448,
          "time": 114.416817,
          "velocity": 1
        },
        {
          "duration": 0.1949949999999916,
          "durationTicks": 96,
          "midi": 36,
          "name": "C2",
          "ticks": 56640,
          "time": 114.80680699999999,
          "velocity": 1
        },
        {
          "duration": 0.1949950000000058,
          "durationTicks": 96,
          "midi": 36,
          "name": "C2",
          "ticks": 56736,
          "time": 115.00180199999998,
          "velocity": 1
        },
        {
          "duration": 0.3899899999999974,
          "durationTicks": 192,
          "midi": 38,
          "name": "D2",
          "ticks": 56832,
          "time": 115.19679699999999,
          "velocity": 1
        },
        {
          "duration": 0.1949950000000058,
          "durationTicks": 96,
          "midi": 36,
          "name": "C2",
          "ticks": 57024,
          "time": 115.58678699999999,
          "velocity": 1
        },
        {
          "duration": 0.4874875000000003,
          "durationTicks": 240,
          "midi": 38,
          "name": "D2",
          "ticks": 57120,
          "time": 115.78178199999999,
          "velocity": 1
        },
        {
          "duration": 0.3899899999999974,
          "durationTicks": 192,
          "midi": 38,
          "name": "D2",
          "ticks": 57360,
          "time": 116.2692695,
          "velocity": 1
        },
        {
          "duration": 0.3899899999999974,
          "durationTicks": 192,
          "midi": 38,
          "name": "D2",
          "ticks": 57552,
          "time": 116.65925949999999,
          "velocity": 1
        },
        {
          "duration": 0.3899899999999974,
          "durationTicks": 192,
          "midi": 36,
          "name": "C2",
          "ticks": 57744,
          "time": 117.04924949999999,
          "velocity": 1
        },
        {
          "duration": 0.3899899999999974,
          "durationTicks": 192,
          "midi": 38,
          "name": "D2",
          "ticks": 57936,
          "time": 117.43923949999999,
          "velocity": 1
        },
        {
          "duration": 0.3899900000000116,
          "durationTicks": 192,
          "midi": 36,
          "name": "C2",
          "ticks": 58128,
          "time": 117.82922949999998,
          "velocity": 1
        },
        {
          "duration": 0.3899899999999974,
          "durationTicks": 192,
          "midi": 38,
          "name": "D2",
          "ticks": 58320,
          "time": 118.2192195,
          "velocity": 1
        },
        {
          "duration": 0.3899899999999974,
          "durationTicks": 192,
          "midi": 36,
          "name": "C2",
          "ticks": 58512,
          "time": 118.60920949999999,
          "velocity": 1
        },
        {
          "duration": 0.3899899999999974,
          "durationTicks": 192,
          "midi": 38,
          "name": "D2",
          "ticks": 58704,
          "time": 118.99919949999999,
          "velocity": 1
        },
        {
          "duration": 0.1949950000000058,
          "durationTicks": 96,
          "midi": 36,
          "name": "C2",
          "ticks": 58896,
          "time": 119.38918949999999,
          "velocity": 1
        },
        {
          "duration": 0.1949949999999916,
          "durationTicks": 96,
          "midi": 36,
          "name": "C2",
          "ticks": 58992,
          "time": 119.58418449999999,
          "velocity": 1
        },
        {
          "duration": 0.3899899999999974,
          "durationTicks": 192,
          "midi": 38,
          "name": "D2",
          "ticks": 59088,
          "time": 119.77917949999998,
          "velocity": 1
        },
        {
          "duration": 3.0224225000000047,
          "durationTicks": 1488,
          "midi": 49,
          "name": "C#3",
          "ticks": 59280,
          "time": 120.16916949999998,
          "velocity": 1
        },
        {
          "duration": 0.3899900000000116,
          "durationTicks": 192,
          "midi": 36,
          "name": "C2",
          "ticks": 59280,
          "time": 120.16916949999998,
          "velocity": 1
        },
        {
          "duration": 0.3899899999999974,
          "durationTicks": 192,
          "midi": 38,
          "name": "D2",
          "ticks": 59472,
          "time": 120.55915949999999,
          "velocity": 1
        },
        {
          "duration": 0.1949949999999916,
          "durationTicks": 96,
          "midi": 36,
          "name": "C2",
          "ticks": 59664,
          "time": 120.94914949999999,
          "velocity": 1
        },
        {
          "duration": 0.1949950000000058,
          "durationTicks": 96,
          "midi": 36,
          "name": "C2",
          "ticks": 59760,
          "time": 121.14414449999998,
          "velocity": 1
        },
        {
          "duration": 0.3899899999999974,
          "durationTicks": 192,
          "midi": 38,
          "name": "D2",
          "ticks": 59856,
          "time": 121.33913949999999,
          "velocity": 1
        },
        {
          "duration": 0.1949950000000058,
          "durationTicks": 96,
          "midi": 36,
          "name": "C2",
          "ticks": 60048,
          "time": 121.72912949999998,
          "velocity": 1
        },
        {
          "duration": 0.4874875000000003,
          "durationTicks": 240,
          "midi": 38,
          "name": "D2",
          "ticks": 60144,
          "time": 121.92412449999999,
          "velocity": 1
        },
        {
          "duration": 0.3899899999999974,
          "durationTicks": 192,
          "midi": 38,
          "name": "D2",
          "ticks": 60384,
          "time": 122.41161199999999,
          "velocity": 1
        },
        {
          "duration": 0.3899899999999974,
          "durationTicks": 192,
          "midi": 38,
          "name": "D2",
          "ticks": 60576,
          "time": 122.80160199999999,
          "velocity": 1
        },
        {
          "duration": 0.3899899999999974,
          "durationTicks": 192,
          "midi": 36,
          "name": "C2",
          "ticks": 60768,
          "time": 123.19159199999999,
          "velocity": 1
        },
        {
          "duration": 0.3899899999999974,
          "durationTicks": 192,
          "midi": 38,
          "name": "D2",
          "ticks": 60960,
          "time": 123.58158199999998,
          "velocity": 1
        },
        {
          "duration": 0.3899900000000116,
          "durationTicks": 192,
          "midi": 36,
          "name": "C2",
          "ticks": 61152,
          "time": 123.97157199999998,
          "velocity": 1
        },
        {
          "duration": 0.3899899999999974,
          "durationTicks": 192,
          "midi": 38,
          "name": "D2",
          "ticks": 61344,
          "time": 124.36156199999999,
          "velocity": 1
        },
        {
          "duration": 0.3899899999999974,
          "durationTicks": 192,
          "midi": 36,
          "name": "C2",
          "ticks": 61536,
          "time": 124.75155199999999,
          "velocity": 1
        },
        {
          "duration": 0.3899899999999974,
          "durationTicks": 192,
          "midi": 38,
          "name": "D2",
          "ticks": 61728,
          "time": 125.14154199999999,
          "velocity": 1
        },
        {
          "duration": 0.1949950000000058,
          "durationTicks": 96,
          "midi": 36,
          "name": "C2",
          "ticks": 61920,
          "time": 125.53153199999998,
          "velocity": 1
        },
        {
          "duration": 0.1949949999999916,
          "durationTicks": 96,
          "midi": 36,
          "name": "C2",
          "ticks": 62016,
          "time": 125.72652699999999,
          "velocity": 1
        },
        {
          "duration": 0.3899899999999974,
          "durationTicks": 192,
          "midi": 38,
          "name": "D2",
          "ticks": 62112,
          "time": 125.92152199999998,
          "velocity": 1
        },
        {
          "duration": 1.5599600000000038,
          "durationTicks": 768,
          "midi": 49,
          "name": "C#3",
          "ticks": 62304,
          "time": 126.31151199999998,
          "velocity": 1
        },
        {
          "duration": 0.3899900000000116,
          "durationTicks": 192,
          "midi": 36,
          "name": "C2",
          "ticks": 62304,
          "time": 126.31151199999998,
          "velocity": 1
        },
        {
          "duration": 0.3899899999999974,
          "durationTicks": 192,
          "midi": 38,
          "name": "D2",
          "ticks": 62496,
          "time": 126.70150199999999,
          "velocity": 1
        },
        {
          "duration": 0.1949949999999916,
          "durationTicks": 96,
          "midi": 36,
          "name": "C2",
          "ticks": 62688,
          "time": 127.09149199999999,
          "velocity": 1
        },
        {
          "duration": 0.1949950000000058,
          "durationTicks": 96,
          "midi": 36,
          "name": "C2",
          "ticks": 62784,
          "time": 127.28648699999998,
          "velocity": 1
        },
        {
          "duration": 0.3899899999999974,
          "durationTicks": 192,
          "midi": 38,
          "name": "D2",
          "ticks": 62880,
          "time": 127.48148199999999,
          "velocity": 1
        },
        {
          "duration": 0.1949950000000058,
          "durationTicks": 96,
          "midi": 49,
          "name": "C#3",
          "ticks": 63072,
          "time": 127.87147199999998,
          "velocity": 1
        },
        {
          "duration": 0.1949950000000058,
          "durationTicks": 96,
          "midi": 36,
          "name": "C2",
          "ticks": 63072,
          "time": 127.87147199999998,
          "velocity": 1
        },
        {
          "duration": 0.4874874999999861,
          "durationTicks": 240,
          "midi": 49,
          "name": "C#3",
          "ticks": 63168,
          "time": 128.066467,
          "velocity": 1
        },
        {
          "duration": 0.4874874999999861,
          "durationTicks": 240,
          "midi": 38,
          "name": "D2",
          "ticks": 63168,
          "time": 128.066467,
          "velocity": 1
        },
        {
          "duration": 0.3899900000000116,
          "durationTicks": 192,
          "midi": 49,
          "name": "C#3",
          "ticks": 63408,
          "time": 128.55395449999997,
          "velocity": 1
        },
        {
          "duration": 0.3899900000000116,
          "durationTicks": 192,
          "midi": 38,
          "name": "D2",
          "ticks": 63408,
          "time": 128.55395449999997,
          "velocity": 1
        },
        {
          "duration": 0.1949950000000058,
          "durationTicks": 96,
          "midi": 49,
          "name": "C#3",
          "ticks": 63600,
          "time": 128.9439445,
          "velocity": 1
        },
        {
          "duration": 0.3899900000000116,
          "durationTicks": 192,
          "midi": 38,
          "name": "D2",
          "ticks": 63600,
          "time": 128.9439445,
          "velocity": 1
        },
        {
          "duration": 0.1949950000000058,
          "durationTicks": 96,
          "midi": 38,
          "name": "D2",
          "ticks": 63696,
          "time": 129.1389395,
          "velocity": 1
        },
        {
          "duration": 0.3899900000000116,
          "durationTicks": 192,
          "midi": 36,
          "name": "C2",
          "ticks": 63792,
          "time": 129.3339345,
          "velocity": 1
        },
        {
          "duration": 0.3899899999999832,
          "durationTicks": 192,
          "midi": 38,
          "name": "D2",
          "ticks": 63984,
          "time": 129.7239245,
          "velocity": 1
        },
        {
          "duration": 0.3899900000000116,
          "durationTicks": 192,
          "midi": 36,
          "name": "C2",
          "ticks": 64176,
          "time": 130.1139145,
          "velocity": 1
        },
        {
          "duration": 0.3899899999999832,
          "durationTicks": 192,
          "midi": 38,
          "name": "D2",
          "ticks": 64368,
          "time": 130.5039045,
          "velocity": 1
        },
        {
          "duration": 0.3899900000000116,
          "durationTicks": 192,
          "midi": 36,
          "name": "C2",
          "ticks": 64560,
          "time": 130.8938945,
          "velocity": 1
        },
        {
          "duration": 0.3899900000000116,
          "durationTicks": 192,
          "midi": 38,
          "name": "D2",
          "ticks": 64752,
          "time": 131.2838845,
          "velocity": 1
        },
        {
          "duration": 0.19499499999997738,
          "durationTicks": 96,
          "midi": 36,
          "name": "C2",
          "ticks": 64944,
          "time": 131.6738745,
          "velocity": 1
        },
        {
          "duration": 0.1949950000000058,
          "durationTicks": 96,
          "midi": 36,
          "name": "C2",
          "ticks": 65040,
          "time": 131.8688695,
          "velocity": 1
        },
        {
          "duration": 0.3899900000000116,
          "durationTicks": 192,
          "midi": 38,
          "name": "D2",
          "ticks": 65136,
          "time": 132.0638645,
          "velocity": 1
        },
        {
          "duration": 1.5599599999999896,
          "durationTicks": 768,
          "midi": 49,
          "name": "C#3",
          "ticks": 65328,
          "time": 132.4538545,
          "velocity": 1
        },
        {
          "duration": 0.3899899999999832,
          "durationTicks": 192,
          "midi": 36,
          "name": "C2",
          "ticks": 65328,
          "time": 132.4538545,
          "velocity": 1
        },
        {
          "duration": 0.3899900000000116,
          "durationTicks": 192,
          "midi": 38,
          "name": "D2",
          "ticks": 65520,
          "time": 132.8438445,
          "velocity": 1
        },
        {
          "duration": 0.1949950000000058,
          "durationTicks": 96,
          "midi": 36,
          "name": "C2",
          "ticks": 65712,
          "time": 133.2338345,
          "velocity": 1
        },
        {
          "duration": 0.1949950000000058,
          "durationTicks": 96,
          "midi": 36,
          "name": "C2",
          "ticks": 65808,
          "time": 133.4288295,
          "velocity": 1
        },
        {
          "duration": 0.3899899999999832,
          "durationTicks": 192,
          "midi": 38,
          "name": "D2",
          "ticks": 65904,
          "time": 133.6238245,
          "velocity": 1
        },
        {
          "duration": 0.1949950000000058,
          "durationTicks": 96,
          "midi": 49,
          "name": "C#3",
          "ticks": 66096,
          "time": 134.0138145,
          "velocity": 1
        },
        {
          "duration": 0.1949950000000058,
          "durationTicks": 96,
          "midi": 36,
          "name": "C2",
          "ticks": 66096,
          "time": 134.0138145,
          "velocity": 1
        },
        {
          "duration": 0.4874874999999861,
          "durationTicks": 240,
          "midi": 49,
          "name": "C#3",
          "ticks": 66192,
          "time": 134.2088095,
          "velocity": 1
        },
        {
          "duration": 0.4874874999999861,
          "durationTicks": 240,
          "midi": 38,
          "name": "D2",
          "ticks": 66192,
          "time": 134.2088095,
          "velocity": 1
        },
        {
          "duration": 0.3899900000000116,
          "durationTicks": 192,
          "midi": 49,
          "name": "C#3",
          "ticks": 66432,
          "time": 134.696297,
          "velocity": 1
        },
        {
          "duration": 0.3899900000000116,
          "durationTicks": 192,
          "midi": 38,
          "name": "D2",
          "ticks": 66432,
          "time": 134.696297,
          "velocity": 1
        },
        {
          "duration": 0.3899900000000116,
          "durationTicks": 192,
          "midi": 49,
          "name": "C#3",
          "ticks": 66624,
          "time": 135.086287,
          "velocity": 1
        },
        {
          "duration": 0.3899900000000116,
          "durationTicks": 192,
          "midi": 38,
          "name": "D2",
          "ticks": 66624,
          "time": 135.086287,
          "velocity": 1
        },
        {
          "duration": 0.3899900000000116,
          "durationTicks": 192,
          "midi": 36,
          "name": "C2",
          "ticks": 66816,
          "time": 135.476277,
          "velocity": 1
        },
        {
          "duration": 0.3899899999999832,
          "durationTicks": 192,
          "midi": 38,
          "name": "D2",
          "ticks": 67008,
          "time": 135.86626700000002,
          "velocity": 1
        },
        {
          "duration": 0.3899900000000116,
          "durationTicks": 192,
          "midi": 36,
          "name": "C2",
          "ticks": 67200,
          "time": 136.256257,
          "velocity": 1
        },
        {
          "duration": 0.3899899999999832,
          "durationTicks": 192,
          "midi": 38,
          "name": "D2",
          "ticks": 67392,
          "time": 136.64624700000002,
          "velocity": 1
        },
        {
          "duration": 0.3899900000000116,
          "durationTicks": 192,
          "midi": 36,
          "name": "C2",
          "ticks": 67584,
          "time": 137.036237,
          "velocity": 1
        },
        {
          "duration": 0.3899900000000116,
          "durationTicks": 192,
          "midi": 38,
          "name": "D2",
          "ticks": 67776,
          "time": 137.426227,
          "velocity": 1
        },
        {
          "duration": 0.19499499999997738,
          "durationTicks": 96,
          "midi": 36,
          "name": "C2",
          "ticks": 67968,
          "time": 137.81621700000002,
          "velocity": 1
        },
        {
          "duration": 0.1949950000000058,
          "durationTicks": 96,
          "midi": 36,
          "name": "C2",
          "ticks": 68064,
          "time": 138.011212,
          "velocity": 1
        },
        {
          "duration": 0.3899900000000116,
          "durationTicks": 192,
          "midi": 38,
          "name": "D2",
          "ticks": 68160,
          "time": 138.206207,
          "velocity": 1
        },
        {
          "duration": 1.5599599999999896,
          "durationTicks": 768,
          "midi": 49,
          "name": "C#3",
          "ticks": 68352,
          "time": 138.59619700000002,
          "velocity": 1
        },
        {
          "duration": 0.3899899999999832,
          "durationTicks": 192,
          "midi": 36,
          "name": "C2",
          "ticks": 68352,
          "time": 138.59619700000002,
          "velocity": 1
        },
        {
          "duration": 0.3899900000000116,
          "durationTicks": 192,
          "midi": 38,
          "name": "D2",
          "ticks": 68544,
          "time": 138.986187,
          "velocity": 1
        },
        {
          "duration": 0.1949950000000058,
          "durationTicks": 96,
          "midi": 36,
          "name": "C2",
          "ticks": 68736,
          "time": 139.376177,
          "velocity": 1
        },
        {
          "duration": 0.19499499999997738,
          "durationTicks": 96,
          "midi": 36,
          "name": "C2",
          "ticks": 68832,
          "time": 139.57117200000002,
          "velocity": 1
        },
        {
          "duration": 0.3899900000000116,
          "durationTicks": 192,
          "midi": 38,
          "name": "D2",
          "ticks": 68928,
          "time": 139.766167,
          "velocity": 1
        },
        {
          "duration": 0.1949950000000058,
          "durationTicks": 96,
          "midi": 49,
          "name": "C#3",
          "ticks": 69120,
          "time": 140.156157,
          "velocity": 1
        },
        {
          "duration": 0.1949950000000058,
          "durationTicks": 96,
          "midi": 36,
          "name": "C2",
          "ticks": 69120,
          "time": 140.156157,
          "velocity": 1
        },
        {
          "duration": 0.4874874999999861,
          "durationTicks": 240,
          "midi": 49,
          "name": "C#3",
          "ticks": 69216,
          "time": 140.351152,
          "velocity": 1
        },
        {
          "duration": 0.4874874999999861,
          "durationTicks": 240,
          "midi": 38,
          "name": "D2",
          "ticks": 69216,
          "time": 140.351152,
          "velocity": 1
        },
        {
          "duration": 0.7799800000000232,
          "durationTicks": 384,
          "midi": 49,
          "name": "C#3",
          "ticks": 69456,
          "time": 140.8386395,
          "velocity": 1
        },
        {
          "duration": 0.3899900000000116,
          "durationTicks": 192,
          "midi": 38,
          "name": "D2",
          "ticks": 69456,
          "time": 140.8386395,
          "velocity": 1
        },
        {
          "duration": 0.3899900000000116,
          "durationTicks": 192,
          "midi": 38,
          "name": "D2",
          "ticks": 69648,
          "time": 141.2286295,
          "velocity": 1
        },
        {
          "duration": 0.3899900000000116,
          "durationTicks": 192,
          "midi": 36,
          "name": "C2",
          "ticks": 69840,
          "time": 141.61861950000002,
          "velocity": 1
        },
        {
          "duration": 0.3899899999999832,
          "durationTicks": 192,
          "midi": 38,
          "name": "D2",
          "ticks": 70032,
          "time": 142.00860950000003,
          "velocity": 1
        },
        {
          "duration": 0.1949950000000058,
          "durationTicks": 96,
          "midi": 36,
          "name": "C2",
          "ticks": 70224,
          "time": 142.39859950000002,
          "velocity": 1
        },
        {
          "duration": 0.1949950000000058,
          "durationTicks": 96,
          "midi": 36,
          "name": "C2",
          "ticks": 70320,
          "time": 142.59359450000002,
          "velocity": 1
        },
        {
          "duration": 0.3899899999999832,
          "durationTicks": 192,
          "midi": 38,
          "name": "D2",
          "ticks": 70416,
          "time": 142.78858950000003,
          "velocity": 1
        },
        {
          "duration": 0.7799800000000232,
          "durationTicks": 384,
          "midi": 49,
          "name": "C#3",
          "ticks": 70608,
          "time": 143.1785795,
          "velocity": 1
        },
        {
          "duration": 0.3899900000000116,
          "durationTicks": 192,
          "midi": 36,
          "name": "C2",
          "ticks": 70608,
          "time": 143.1785795,
          "velocity": 1
        },
        {
          "duration": 0.3899900000000116,
          "durationTicks": 192,
          "midi": 38,
          "name": "D2",
          "ticks": 70800,
          "time": 143.56856950000002,
          "velocity": 1
        },
        {
          "duration": 0.7799799999999948,
          "durationTicks": 384,
          "midi": 49,
          "name": "C#3",
          "ticks": 70992,
          "time": 143.95855950000004,
          "velocity": 1
        },
        {
          "duration": 0.19499499999997738,
          "durationTicks": 96,
          "midi": 36,
          "name": "C2",
          "ticks": 70992,
          "time": 143.95855950000004,
          "velocity": 1
        },
        {
          "duration": 0.1949950000000058,
          "durationTicks": 96,
          "midi": 36,
          "name": "C2",
          "ticks": 71088,
          "time": 144.1535545,
          "velocity": 1
        },
        {
          "duration": 0.3899900000000116,
          "durationTicks": 192,
          "midi": 38,
          "name": "D2",
          "ticks": 71184,
          "time": 144.34854950000002,
          "velocity": 1
        },
        {
          "duration": 0.3899899999999832,
          "durationTicks": 192,
          "midi": 36,
          "name": "C2",
          "ticks": 71376,
          "time": 144.73853950000003,
          "velocity": 1
        },
        {
          "duration": 0.3899900000000116,
          "durationTicks": 192,
          "midi": 38,
          "name": "D2",
          "ticks": 71568,
          "time": 145.1285295,
          "velocity": 1
        },
        {
          "duration": 0.1949950000000058,
          "durationTicks": 96,
          "midi": 36,
          "name": "C2",
          "ticks": 71760,
          "time": 145.51851950000002,
          "velocity": 1
        },
        {
          "duration": 0.1949950000000058,
          "durationTicks": 96,
          "midi": 36,
          "name": "C2",
          "ticks": 71856,
          "time": 145.71351450000003,
          "velocity": 1
        },
        {
          "duration": 0.3899899999999832,
          "durationTicks": 192,
          "midi": 38,
          "name": "D2",
          "ticks": 71952,
          "time": 145.90850950000004,
          "velocity": 1
        },
        {
          "duration": 0.3899900000000116,
          "durationTicks": 192,
          "midi": 36,
          "name": "C2",
          "ticks": 72144,
          "time": 146.29849950000002,
          "velocity": 1
        },
        {
          "duration": 0.3899899999999832,
          "durationTicks": 192,
          "midi": 38,
          "name": "D2",
          "ticks": 72336,
          "time": 146.68848950000003,
          "velocity": 1
        },
        {
          "duration": 0.1949950000000058,
          "durationTicks": 96,
          "midi": 38,
          "name": "D2",
          "ticks": 72528,
          "time": 147.07847950000001,
          "velocity": 1
        },
        {
          "duration": 0.1949950000000058,
          "durationTicks": 96,
          "midi": 38,
          "name": "D2",
          "ticks": 72624,
          "time": 147.27347450000002,
          "velocity": 1
        },
        {
          "duration": 0.1949950000000058,
          "durationTicks": 96,
          "midi": 38,
          "name": "D2",
          "ticks": 72720,
          "time": 147.46846950000003,
          "velocity": 1
        },
        {
          "duration": 0.19499499999997738,
          "durationTicks": 96,
          "midi": 38,
          "name": "D2",
          "ticks": 72816,
          "time": 147.66346450000003,
          "velocity": 1
        },
        {
          "duration": 0.3899900000000116,
          "durationTicks": 192,
          "midi": 36,
          "name": "C2",
          "ticks": 72912,
          "time": 147.8584595,
          "velocity": 1
        },
        {
          "duration": 0.3899899999999832,
          "durationTicks": 192,
          "midi": 38,
          "name": "D2",
          "ticks": 73104,
          "time": 148.24844950000002,
          "velocity": 1
        },
        {
          "duration": 0.1949950000000058,
          "durationTicks": 96,
          "midi": 36,
          "name": "C2",
          "ticks": 73296,
          "time": 148.6384395,
          "velocity": 1
        },
        {
          "duration": 0.1949950000000058,
          "durationTicks": 96,
          "midi": 36,
          "name": "C2",
          "ticks": 73392,
          "time": 148.8334345,
          "velocity": 1
        },
        {
          "duration": 0.3899899999999832,
          "durationTicks": 192,
          "midi": 38,
          "name": "D2",
          "ticks": 73488,
          "time": 149.02842950000002,
          "velocity": 1
        },
        {
          "duration": 0.7799800000000232,
          "durationTicks": 384,
          "midi": 49,
          "name": "C#3",
          "ticks": 73680,
          "time": 149.4184195,
          "velocity": 1
        },
        {
          "duration": 0.3899900000000116,
          "durationTicks": 192,
          "midi": 36,
          "name": "C2",
          "ticks": 73680,
          "time": 149.4184195,
          "velocity": 1
        },
        {
          "duration": 0.3899900000000116,
          "durationTicks": 192,
          "midi": 38,
          "name": "D2",
          "ticks": 73872,
          "time": 149.8084095,
          "velocity": 1
        },
        {
          "duration": 0.7799799999999948,
          "durationTicks": 384,
          "midi": 49,
          "name": "C#3",
          "ticks": 74064,
          "time": 150.19839950000002,
          "velocity": 1
        },
        {
          "duration": 0.19499499999997738,
          "durationTicks": 96,
          "midi": 36,
          "name": "C2",
          "ticks": 74064,
          "time": 150.19839950000002,
          "velocity": 1
        },
        {
          "duration": 0.1949950000000058,
          "durationTicks": 96,
          "midi": 36,
          "name": "C2",
          "ticks": 74160,
          "time": 150.3933945,
          "velocity": 1
        },
        {
          "duration": 0.3899900000000116,
          "durationTicks": 192,
          "midi": 38,
          "name": "D2",
          "ticks": 74256,
          "time": 150.5883895,
          "velocity": 1
        },
        {
          "duration": 0.3899899999999832,
          "durationTicks": 192,
          "midi": 36,
          "name": "C2",
          "ticks": 74448,
          "time": 150.97837950000002,
          "velocity": 1
        },
        {
          "duration": 0.3899900000000116,
          "durationTicks": 192,
          "midi": 38,
          "name": "D2",
          "ticks": 74640,
          "time": 151.3683695,
          "velocity": 1
        },
        {
          "duration": 0.1949950000000058,
          "durationTicks": 96,
          "midi": 36,
          "name": "C2",
          "ticks": 74832,
          "time": 151.7583595,
          "velocity": 1
        },
        {
          "duration": 0.19499499999997738,
          "durationTicks": 96,
          "midi": 36,
          "name": "C2",
          "ticks": 74928,
          "time": 151.95335450000002,
          "velocity": 1
        },
        {
          "duration": 0.3899900000000116,
          "durationTicks": 192,
          "midi": 38,
          "name": "D2",
          "ticks": 75024,
          "time": 152.1483495,
          "velocity": 1
        },
        {
          "duration": 0.3899900000000116,
          "durationTicks": 192,
          "midi": 36,
          "name": "C2",
          "ticks": 75216,
          "time": 152.5383395,
          "velocity": 1
        },
        {
          "duration": 0.3899899999999832,
          "durationTicks": 192,
          "midi": 38,
          "name": "D2",
          "ticks": 75408,
          "time": 152.92832950000002,
          "velocity": 1
        },
        {
          "duration": 0.1949950000000058,
          "durationTicks": 96,
          "midi": 38,
          "name": "D2",
          "ticks": 75600,
          "time": 153.3183195,
          "velocity": 1
        },
        {
          "duration": 0.1949950000000058,
          "durationTicks": 96,
          "midi": 38,
          "name": "D2",
          "ticks": 75696,
          "time": 153.5133145,
          "velocity": 1
        },
        {
          "duration": 0.1949950000000058,
          "durationTicks": 96,
          "midi": 38,
          "name": "D2",
          "ticks": 75792,
          "time": 153.7083095,
          "velocity": 1
        },
        {
          "duration": 0.19499499999997738,
          "durationTicks": 96,
          "midi": 38,
          "name": "D2",
          "ticks": 75888,
          "time": 153.90330450000002,
          "velocity": 1
        },
        {
          "duration": 0.3899900000000116,
          "durationTicks": 192,
          "midi": 36,
          "name": "C2",
          "ticks": 75984,
          "time": 154.0982995,
          "velocity": 1
        },
        {
          "duration": 0.3899899999999832,
          "durationTicks": 192,
          "midi": 38,
          "name": "D2",
          "ticks": 76176,
          "time": 154.4882895,
          "velocity": 1
        },
        {
          "duration": 0.3899900000000116,
          "durationTicks": 192,
          "midi": 36,
          "name": "C2",
          "ticks": 76368,
          "time": 154.8782795,
          "velocity": 1
        },
        {
          "duration": 0.3899899999999832,
          "durationTicks": 192,
          "midi": 38,
          "name": "D2",
          "ticks": 76560,
          "time": 155.2682695,
          "velocity": 1
        },
        {
          "duration": 0.3899900000000116,
          "durationTicks": 192,
          "midi": 36,
          "name": "C2",
          "ticks": 76752,
          "time": 155.65825949999999,
          "velocity": 1
        },
        {
          "duration": 0.3899900000000116,
          "durationTicks": 192,
          "midi": 38,
          "name": "D2",
          "ticks": 76944,
          "time": 156.0482495,
          "velocity": 1
        },
        {
          "duration": 0.19499499999997738,
          "durationTicks": 96,
          "midi": 36,
          "name": "C2",
          "ticks": 77136,
          "time": 156.4382395,
          "velocity": 1
        },
        {
          "duration": 0.1949950000000058,
          "durationTicks": 96,
          "midi": 36,
          "name": "C2",
          "ticks": 77232,
          "time": 156.6332345,
          "velocity": 1
        },
        {
          "duration": 0.3899900000000116,
          "durationTicks": 192,
          "midi": 38,
          "name": "D2",
          "ticks": 77328,
          "time": 156.8282295,
          "velocity": 1
        },
        {
          "duration": 0.3899899999999832,
          "durationTicks": 192,
          "midi": 36,
          "name": "C2",
          "ticks": 77520,
          "time": 157.2182195,
          "velocity": 1
        },
        {
          "duration": 0.3899900000000116,
          "durationTicks": 192,
          "midi": 38,
          "name": "D2",
          "ticks": 77712,
          "time": 157.6082095,
          "velocity": 1
        },
        {
          "duration": 0.1949950000000058,
          "durationTicks": 96,
          "midi": 36,
          "name": "C2",
          "ticks": 77904,
          "time": 157.9981995,
          "velocity": 1
        },
        {
          "duration": 0.1949950000000058,
          "durationTicks": 96,
          "midi": 36,
          "name": "C2",
          "ticks": 78000,
          "time": 158.1931945,
          "velocity": 1
        },
        {
          "duration": 0.3899899999999832,
          "durationTicks": 192,
          "midi": 38,
          "name": "D2",
          "ticks": 78096,
          "time": 158.3881895,
          "velocity": 1
        },
        {
          "duration": 0.1949950000000058,
          "durationTicks": 96,
          "midi": 36,
          "name": "C2",
          "ticks": 78288,
          "time": 158.7781795,
          "velocity": 1
        },
        {
          "duration": 0.4874874999999861,
          "durationTicks": 240,
          "midi": 38,
          "name": "D2",
          "ticks": 78384,
          "time": 158.9731745,
          "velocity": 1
        },
        {
          "duration": 0.3899900000000116,
          "durationTicks": 192,
          "midi": 38,
          "name": "D2",
          "ticks": 78624,
          "time": 159.46066199999999,
          "velocity": 1
        },
        {
          "duration": 0.3899900000000116,
          "durationTicks": 192,
          "midi": 38,
          "name": "D2",
          "ticks": 78816,
          "time": 159.850652,
          "velocity": 1
        },
        {
          "duration": 0.3899900000000116,
          "durationTicks": 192,
          "midi": 36,
          "name": "C2",
          "ticks": 79008,
          "time": 160.240642,
          "velocity": 1
        },
        {
          "duration": 0.3899899999999832,
          "durationTicks": 192,
          "midi": 38,
          "name": "D2",
          "ticks": 79200,
          "time": 160.63063200000002,
          "velocity": 1
        },
        {
          "duration": 0.3899900000000116,
          "durationTicks": 192,
          "midi": 36,
          "name": "C2",
          "ticks": 79392,
          "time": 161.020622,
          "velocity": 1
        },
        {
          "duration": 0.3899899999999832,
          "durationTicks": 192,
          "midi": 38,
          "name": "D2",
          "ticks": 79584,
          "time": 161.41061200000001,
          "velocity": 1
        },
        {
          "duration": 0.3899900000000116,
          "durationTicks": 192,
          "midi": 36,
          "name": "C2",
          "ticks": 79776,
          "time": 161.800602,
          "velocity": 1
        },
        {
          "duration": 0.3899900000000116,
          "durationTicks": 192,
          "midi": 38,
          "name": "D2",
          "ticks": 79968,
          "time": 162.190592,
          "velocity": 1
        },
        {
          "duration": 0.19499499999997738,
          "durationTicks": 96,
          "midi": 36,
          "name": "C2",
          "ticks": 80160,
          "time": 162.58058200000002,
          "velocity": 1
        },
        {
          "duration": 0.1949950000000058,
          "durationTicks": 96,
          "midi": 36,
          "name": "C2",
          "ticks": 80256,
          "time": 162.775577,
          "velocity": 1
        },
        {
          "duration": 0.3899900000000116,
          "durationTicks": 192,
          "midi": 38,
          "name": "D2",
          "ticks": 80352,
          "time": 162.970572,
          "velocity": 1
        },
        {
          "duration": 0.3899899999999832,
          "durationTicks": 192,
          "midi": 36,
          "name": "C2",
          "ticks": 80544,
          "time": 163.36056200000002,
          "velocity": 1
        },
        {
          "duration": 0.3899900000000116,
          "durationTicks": 192,
          "midi": 38,
          "name": "D2",
          "ticks": 80736,
          "time": 163.750552,
          "velocity": 1
        },
        {
          "duration": 0.1949950000000058,
          "durationTicks": 96,
          "midi": 36,
          "name": "C2",
          "ticks": 80928,
          "time": 164.140542,
          "velocity": 1
        },
        {
          "duration": 0.19499499999997738,
          "durationTicks": 96,
          "midi": 36,
          "name": "C2",
          "ticks": 81024,
          "time": 164.33553700000002,
          "velocity": 1
        },
        {
          "duration": 0.3899900000000116,
          "durationTicks": 192,
          "midi": 38,
          "name": "D2",
          "ticks": 81120,
          "time": 164.530532,
          "velocity": 1
        },
        {
          "duration": 0.1949950000000058,
          "durationTicks": 96,
          "midi": 36,
          "name": "C2",
          "ticks": 81312,
          "time": 164.920522,
          "velocity": 1
        },
        {
          "duration": 0.4874874999999861,
          "durationTicks": 240,
          "midi": 38,
          "name": "D2",
          "ticks": 81408,
          "time": 165.115517,
          "velocity": 1
        },
        {
          "duration": 1.8524524999999983,
          "durationTicks": 912,
          "midi": 38,
          "name": "D2",
          "ticks": 81648,
          "time": 165.6030045,
          "velocity": 1
        }
      ],
      "endOfTrackTicks": 82560
    },
    {
      "channel": 5,
      "controlChanges": {
        "7": [
          {
            "number": 7,
            "ticks": 0,
            "time": 0,
            "value": 1
          }
        ],
        "10": [
          {
            "number": 10,
            "ticks": 0,
            "time": 0,
            "value": 0.5669291338582677
          }
        ]
      },
      "pitchBends": [],
      "instrument": {
        "family": "guitar",
        "name": "distortion guitar",
        "number": 30
      },
      "name": "",
      "notes": [
        {
          "duration": 0.584985,
          "durationTicks": 288,
          "midi": 40,
          "name": "E2",
          "ticks": 2,
          "time": 0.004062395833333333,
          "velocity": 1
        },
        {
          "duration": 0.584985,
          "durationTicks": 288,
          "midi": 47,
          "name": "B2",
          "ticks": 2,
          "time": 0.004062395833333333,
          "velocity": 1
        },
        {
          "duration": 0.9749750000000001,
          "durationTicks": 480,
          "midi": 40,
          "name": "E2",
          "ticks": 290,
          "time": 0.5890473958333333,
          "velocity": 1
        },
        {
          "duration": 0.9749750000000001,
          "durationTicks": 480,
          "midi": 47,
          "name": "B2",
          "ticks": 290,
          "time": 0.5890473958333333,
          "velocity": 1
        },
        {
          "duration": 0.5849850000000001,
          "durationTicks": 288,
          "midi": 40,
          "name": "E2",
          "ticks": 1538,
          "time": 3.123982395833333,
          "velocity": 1
        },
        {
          "duration": 0.5849850000000001,
          "durationTicks": 288,
          "midi": 47,
          "name": "B2",
          "ticks": 1538,
          "time": 3.123982395833333,
          "velocity": 1
        },
        {
          "duration": 0.9749750000000001,
          "durationTicks": 480,
          "midi": 40,
          "name": "E2",
          "ticks": 1826,
          "time": 3.708967395833333,
          "velocity": 1
        },
        {
          "duration": 0.9749750000000001,
          "durationTicks": 480,
          "midi": 47,
          "name": "B2",
          "ticks": 1826,
          "time": 3.708967395833333,
          "velocity": 1
        },
        {
          "duration": 0.5849849999999996,
          "durationTicks": 288,
          "midi": 40,
          "name": "E2",
          "ticks": 3074,
          "time": 6.2439023958333335,
          "velocity": 1
        },
        {
          "duration": 0.5849849999999996,
          "durationTicks": 288,
          "midi": 47,
          "name": "B2",
          "ticks": 3074,
          "time": 6.2439023958333335,
          "velocity": 1
        },
        {
          "duration": 0.9749750000000006,
          "durationTicks": 480,
          "midi": 40,
          "name": "E2",
          "ticks": 3362,
          "time": 6.828887395833333,
          "velocity": 1
        },
        {
          "duration": 0.9749750000000006,
          "durationTicks": 480,
          "midi": 47,
          "name": "B2",
          "ticks": 3362,
          "time": 6.828887395833333,
          "velocity": 1
        },
        {
          "duration": 0.5806454999999993,
          "durationTicks": 288,
          "midi": 40,
          "name": "E2",
          "ticks": 4610,
          "time": 9.363792260416666,
          "velocity": 1
        },
        {
          "duration": 0.5806454999999993,
          "durationTicks": 288,
          "midi": 47,
          "name": "B2",
          "ticks": 4610,
          "time": 9.363792260416666,
          "velocity": 1
        },
        {
          "duration": 0.9677425,
          "durationTicks": 480,
          "midi": 40,
          "name": "E2",
          "ticks": 4898,
          "time": 9.944437760416665,
          "velocity": 1
        },
        {
          "duration": 0.9677425,
          "durationTicks": 480,
          "midi": 47,
          "name": "B2",
          "ticks": 4898,
          "time": 9.944437760416665,
          "velocity": 1
        },
        {
          "duration": 0.18867900000000049,
          "durationTicks": 96,
          "midi": 52,
          "name": "E3",
          "ticks": 6146,
          "time": 12.4604668125,
          "velocity": 1
        },
        {
          "duration": 0.18867900000000049,
          "durationTicks": 96,
          "midi": 59,
          "name": "B3",
          "ticks": 6146,
          "time": 12.4604668125,
          "velocity": 1
        },
        {
          "duration": 0.1886789999999987,
          "durationTicks": 96,
          "midi": 52,
          "name": "E3",
          "ticks": 6242,
          "time": 12.6491458125,
          "velocity": 1
        },
        {
          "duration": 0.1886789999999987,
          "durationTicks": 96,
          "midi": 59,
          "name": "B3",
          "ticks": 6242,
          "time": 12.6491458125,
          "velocity": 1
        },
        {
          "duration": 0.18867900000000049,
          "durationTicks": 96,
          "midi": 52,
          "name": "E3",
          "ticks": 6338,
          "time": 12.8378248125,
          "velocity": 1
        },
        {
          "duration": 0.18867900000000049,
          "durationTicks": 96,
          "midi": 59,
          "name": "B3",
          "ticks": 6338,
          "time": 12.8378248125,
          "velocity": 1
        },
        {
          "duration": 0.18867900000000049,
          "durationTicks": 96,
          "midi": 52,
          "name": "E3",
          "ticks": 6434,
          "time": 13.0265038125,
          "velocity": 1
        },
        {
          "duration": 0.18867900000000049,
          "durationTicks": 96,
          "midi": 59,
          "name": "B3",
          "ticks": 6434,
          "time": 13.0265038125,
          "velocity": 1
        },
        {
          "duration": 0.18867900000000049,
          "durationTicks": 96,
          "midi": 52,
          "name": "E3",
          "ticks": 6530,
          "time": 13.2151828125,
          "velocity": 1
        },
        {
          "duration": 0.18867900000000049,
          "durationTicks": 96,
          "midi": 59,
          "name": "B3",
          "ticks": 6530,
          "time": 13.2151828125,
          "velocity": 1
        },
        {
          "duration": 0.1886789999999987,
          "durationTicks": 96,
          "midi": 52,
          "name": "E3",
          "ticks": 6626,
          "time": 13.4038618125,
          "velocity": 1
        },
        {
          "duration": 0.1886789999999987,
          "durationTicks": 96,
          "midi": 59,
          "name": "B3",
          "ticks": 6626,
          "time": 13.4038618125,
          "velocity": 1
        },
        {
          "duration": 0.18867900000000049,
          "durationTicks": 96,
          "midi": 52,
          "name": "E3",
          "ticks": 6722,
          "time": 13.5925408125,
          "velocity": 1
        },
        {
          "duration": 0.18867900000000049,
          "durationTicks": 96,
          "midi": 59,
          "name": "B3",
          "ticks": 6722,
          "time": 13.5925408125,
          "velocity": 1
        },
        {
          "duration": 0.18867900000000049,
          "durationTicks": 96,
          "midi": 52,
          "name": "E3",
          "ticks": 6818,
          "time": 13.7812198125,
          "velocity": 1
        },
        {
          "duration": 0.18867900000000049,
          "durationTicks": 96,
          "midi": 59,
          "name": "B3",
          "ticks": 6818,
          "time": 13.7812198125,
          "velocity": 1
        },
        {
          "duration": 0.18867900000000049,
          "durationTicks": 96,
          "midi": 52,
          "name": "E3",
          "ticks": 6914,
          "time": 13.9698988125,
          "velocity": 1
        },
        {
          "duration": 0.18867900000000049,
          "durationTicks": 96,
          "midi": 59,
          "name": "B3",
          "ticks": 6914,
          "time": 13.9698988125,
          "velocity": 1
        },
        {
          "duration": 0.1886789999999987,
          "durationTicks": 96,
          "midi": 52,
          "name": "E3",
          "ticks": 7010,
          "time": 14.1585778125,
          "velocity": 1
        },
        {
          "duration": 0.1886789999999987,
          "durationTicks": 96,
          "midi": 59,
          "name": "B3",
          "ticks": 7010,
          "time": 14.1585778125,
          "velocity": 1
        },
        {
          "duration": 0.18867900000000049,
          "durationTicks": 96,
          "midi": 52,
          "name": "E3",
          "ticks": 7106,
          "time": 14.3472568125,
          "velocity": 1
        },
        {
          "duration": 0.18867900000000049,
          "durationTicks": 96,
          "midi": 59,
          "name": "B3",
          "ticks": 7106,
          "time": 14.3472568125,
          "velocity": 1
        },
        {
          "duration": 0.18867900000000049,
          "durationTicks": 96,
          "midi": 52,
          "name": "E3",
          "ticks": 7202,
          "time": 14.5359358125,
          "velocity": 1
        },
        {
          "duration": 0.18867900000000049,
          "durationTicks": 96,
          "midi": 59,
          "name": "B3",
          "ticks": 7202,
          "time": 14.5359358125,
          "velocity": 1
        },
        {
          "duration": 0.18867900000000049,
          "durationTicks": 96,
          "midi": 52,
          "name": "E3",
          "ticks": 7298,
          "time": 14.7246148125,
          "velocity": 1
        },
        {
          "duration": 0.18867900000000049,
          "durationTicks": 96,
          "midi": 59,
          "name": "B3",
          "ticks": 7298,
          "time": 14.7246148125,
          "velocity": 1
        },
        {
          "duration": 0.1886789999999987,
          "durationTicks": 96,
          "midi": 52,
          "name": "E3",
          "ticks": 7394,
          "time": 14.913293812500001,
          "velocity": 1
        },
        {
          "duration": 0.1886789999999987,
          "durationTicks": 96,
          "midi": 59,
          "name": "B3",
          "ticks": 7394,
          "time": 14.913293812500001,
          "velocity": 1
        },
        {
          "duration": 0.18867900000000049,
          "durationTicks": 96,
          "midi": 52,
          "name": "E3",
          "ticks": 7490,
          "time": 15.1019728125,
          "velocity": 1
        },
        {
          "duration": 0.18867900000000049,
          "durationTicks": 96,
          "midi": 59,
          "name": "B3",
          "ticks": 7490,
          "time": 15.1019728125,
          "velocity": 1
        },
        {
          "duration": 0.1886789999999987,
          "durationTicks": 96,
          "midi": 52,
          "name": "E3",
          "ticks": 7586,
          "time": 15.2906518125,
          "velocity": 1
        },
        {
          "duration": 0.1886789999999987,
          "durationTicks": 96,
          "midi": 59,
          "name": "B3",
          "ticks": 7586,
          "time": 15.2906518125,
          "velocity": 1
        },
        {
          "duration": 0.18867900000000049,
          "durationTicks": 96,
          "midi": 50,
          "name": "D3",
          "ticks": 7682,
          "time": 15.479330812499999,
          "velocity": 1
        },
        {
          "duration": 0.18867900000000049,
          "durationTicks": 96,
          "midi": 57,
          "name": "A3",
          "ticks": 7682,
          "time": 15.479330812499999,
          "velocity": 1
        },
        {
          "duration": 0.18867900000000049,
          "durationTicks": 96,
          "midi": 50,
          "name": "D3",
          "ticks": 7778,
          "time": 15.6680098125,
          "velocity": 1
        },
        {
          "duration": 0.18867900000000049,
          "durationTicks": 96,
          "midi": 57,
          "name": "A3",
          "ticks": 7778,
          "time": 15.6680098125,
          "velocity": 1
        },
        {
          "duration": 0.18867900000000049,
          "durationTicks": 96,
          "midi": 50,
          "name": "D3",
          "ticks": 7874,
          "time": 15.8566888125,
          "velocity": 1
        },
        {
          "duration": 0.18867900000000049,
          "durationTicks": 96,
          "midi": 57,
          "name": "A3",
          "ticks": 7874,
          "time": 15.8566888125,
          "velocity": 1
        },
        {
          "duration": 0.18867900000000049,
          "durationTicks": 96,
          "midi": 50,
          "name": "D3",
          "ticks": 7970,
          "time": 16.0453678125,
          "velocity": 1
        },
        {
          "duration": 0.18867900000000049,
          "durationTicks": 96,
          "midi": 57,
          "name": "A3",
          "ticks": 7970,
          "time": 16.0453678125,
          "velocity": 1
        },
        {
          "duration": 0.18867900000000049,
          "durationTicks": 96,
          "midi": 50,
          "name": "D3",
          "ticks": 8066,
          "time": 16.2340468125,
          "velocity": 1
        },
        {
          "duration": 0.18867900000000049,
          "durationTicks": 96,
          "midi": 57,
          "name": "A3",
          "ticks": 8066,
          "time": 16.2340468125,
          "velocity": 1
        },
        {
          "duration": 0.18867899999999693,
          "durationTicks": 96,
          "midi": 50,
          "name": "D3",
          "ticks": 8162,
          "time": 16.4227258125,
          "velocity": 1
        },
        {
          "duration": 0.18867899999999693,
          "durationTicks": 96,
          "midi": 57,
          "name": "A3",
          "ticks": 8162,
          "time": 16.4227258125,
          "velocity": 1
        },
        {
          "duration": 0.18867900000000049,
          "durationTicks": 96,
          "midi": 50,
          "name": "D3",
          "ticks": 8258,
          "time": 16.6114048125,
          "velocity": 1
        },
        {
          "duration": 0.18867900000000049,
          "durationTicks": 96,
          "midi": 57,
          "name": "A3",
          "ticks": 8258,
          "time": 16.6114048125,
          "velocity": 1
        },
        {
          "duration": 0.18867900000000049,
          "durationTicks": 96,
          "midi": 50,
          "name": "D3",
          "ticks": 8354,
          "time": 16.8000838125,
          "velocity": 1
        },
        {
          "duration": 0.18867900000000049,
          "durationTicks": 96,
          "midi": 57,
          "name": "A3",
          "ticks": 8354,
          "time": 16.8000838125,
          "velocity": 1
        },
        {
          "duration": 0.18867900000000049,
          "durationTicks": 96,
          "midi": 43,
          "name": "G2",
          "ticks": 8450,
          "time": 16.9887628125,
          "velocity": 1
        },
        {
          "duration": 0.18867900000000049,
          "durationTicks": 96,
          "midi": 50,
          "name": "D3",
          "ticks": 8450,
          "time": 16.9887628125,
          "velocity": 1
        },
        {
          "duration": 0.4716975000000012,
          "durationTicks": 240,
          "midi": 38,
          "name": "D2",
          "ticks": 8546,
          "time": 17.1774418125,
          "velocity": 1
        },
        {
          "duration": 0.4716975000000012,
          "durationTicks": 240,
          "midi": 45,
          "name": "A2",
          "ticks": 8546,
          "time": 17.1774418125,
          "velocity": 1
        },
        {
          "duration": 0.3773579999999974,
          "durationTicks": 192,
          "midi": 40,
          "name": "E2",
          "ticks": 8786,
          "time": 17.6491393125,
          "velocity": 1
        },
        {
          "duration": 0.3773579999999974,
          "durationTicks": 192,
          "midi": 47,
          "name": "B2",
          "ticks": 8786,
          "time": 17.6491393125,
          "velocity": 1
        },
        {
          "duration": 0.37748958333333604,
          "durationTicks": 192,
          "midi": 55,
          "name": "G3",
          "ticks": 8978,
          "time": 18.0264973125,
          "velocity": 1
        },
        {
          "duration": 0.37748958333333604,
          "durationTicks": 192,
          "midi": 62,
          "name": "D4",
          "ticks": 8978,
          "time": 18.0264973125,
          "velocity": 1
        },
        {
          "duration": 0.1949949999999987,
          "durationTicks": 96,
          "midi": 52,
          "name": "E3",
          "ticks": 9170,
          "time": 18.403986895833334,
          "velocity": 1
        },
        {
          "duration": 0.1949949999999987,
          "durationTicks": 96,
          "midi": 59,
          "name": "B3",
          "ticks": 9170,
          "time": 18.403986895833334,
          "velocity": 1
        },
        {
          "duration": 0.19499500000000225,
          "durationTicks": 96,
          "midi": 52,
          "name": "E3",
          "ticks": 9266,
          "time": 18.598981895833333,
          "velocity": 1
        },
        {
          "duration": 0.19499500000000225,
          "durationTicks": 96,
          "midi": 59,
          "name": "B3",
          "ticks": 9266,
          "time": 18.598981895833333,
          "velocity": 1
        },
        {
          "duration": 0.1949949999999987,
          "durationTicks": 96,
          "midi": 52,
          "name": "E3",
          "ticks": 9362,
          "time": 18.793976895833335,
          "velocity": 1
        },
        {
          "duration": 0.1949949999999987,
          "durationTicks": 96,
          "midi": 59,
          "name": "B3",
          "ticks": 9362,
          "time": 18.793976895833335,
          "velocity": 1
        },
        {
          "duration": 0.1949949999999987,
          "durationTicks": 96,
          "midi": 52,
          "name": "E3",
          "ticks": 9458,
          "time": 18.988971895833334,
          "velocity": 1
        },
        {
          "duration": 0.1949949999999987,
          "durationTicks": 96,
          "midi": 59,
          "name": "B3",
          "ticks": 9458,
          "time": 18.988971895833334,
          "velocity": 1
        },
        {
          "duration": 0.19499500000000225,
          "durationTicks": 96,
          "midi": 52,
          "name": "E3",
          "ticks": 9554,
          "time": 19.183966895833333,
          "velocity": 1
        },
        {
          "duration": 0.19499500000000225,
          "durationTicks": 96,
          "midi": 59,
          "name": "B3",
          "ticks": 9554,
          "time": 19.183966895833333,
          "velocity": 1
        },
        {
          "duration": 0.1949949999999987,
          "durationTicks": 96,
          "midi": 52,
          "name": "E3",
          "ticks": 9650,
          "time": 19.378961895833335,
          "velocity": 1
        },
        {
          "duration": 0.1949949999999987,
          "durationTicks": 96,
          "midi": 59,
          "name": "B3",
          "ticks": 9650,
          "time": 19.378961895833335,
          "velocity": 1
        },
        {
          "duration": 0.1949949999999987,
          "durationTicks": 96,
          "midi": 52,
          "name": "E3",
          "ticks": 9746,
          "time": 19.573956895833334,
          "velocity": 1
        },
        {
          "duration": 0.1949949999999987,
          "durationTicks": 96,
          "midi": 59,
          "name": "B3",
          "ticks": 9746,
          "time": 19.573956895833334,
          "velocity": 1
        },
        {
          "duration": 0.19499500000000225,
          "durationTicks": 96,
          "midi": 52,
          "name": "E3",
          "ticks": 9842,
          "time": 19.768951895833332,
          "velocity": 1
        },
        {
          "duration": 0.19499500000000225,
          "durationTicks": 96,
          "midi": 59,
          "name": "B3",
          "ticks": 9842,
          "time": 19.768951895833332,
          "velocity": 1
        },
        {
          "duration": 0.1949949999999987,
          "durationTicks": 96,
          "midi": 52,
          "name": "E3",
          "ticks": 9938,
          "time": 19.963946895833335,
          "velocity": 1
        },
        {
          "duration": 0.1949949999999987,
          "durationTicks": 96,
          "midi": 59,
          "name": "B3",
          "ticks": 9938,
          "time": 19.963946895833335,
          "velocity": 1
        },
        {
          "duration": 0.19499500000000225,
          "durationTicks": 96,
          "midi": 52,
          "name": "E3",
          "ticks": 10034,
          "time": 20.158941895833333,
          "velocity": 1
        },
        {
          "duration": 0.19499500000000225,
          "durationTicks": 96,
          "midi": 59,
          "name": "B3",
          "ticks": 10034,
          "time": 20.158941895833333,
          "velocity": 1
        },
        {
          "duration": 0.1949949999999987,
          "durationTicks": 96,
          "midi": 52,
          "name": "E3",
          "ticks": 10130,
          "time": 20.353936895833336,
          "velocity": 1
        },
        {
          "duration": 0.1949949999999987,
          "durationTicks": 96,
          "midi": 59,
          "name": "B3",
          "ticks": 10130,
          "time": 20.353936895833336,
          "velocity": 1
        },
        {
          "duration": 0.1949949999999987,
          "durationTicks": 96,
          "midi": 52,
          "name": "E3",
          "ticks": 10226,
          "time": 20.548931895833334,
          "velocity": 1
        },
        {
          "duration": 0.1949949999999987,
          "durationTicks": 96,
          "midi": 59,
          "name": "B3",
          "ticks": 10226,
          "time": 20.548931895833334,
          "velocity": 1
        },
        {
          "duration": 0.19499500000000225,
          "durationTicks": 96,
          "midi": 52,
          "name": "E3",
          "ticks": 10322,
          "time": 20.743926895833333,
          "velocity": 1
        },
        {
          "duration": 0.19499500000000225,
          "durationTicks": 96,
          "midi": 59,
          "name": "B3",
          "ticks": 10322,
          "time": 20.743926895833333,
          "velocity": 1
        },
        {
          "duration": 0.1949949999999987,
          "durationTicks": 96,
          "midi": 52,
          "name": "E3",
          "ticks": 10418,
          "time": 20.938921895833335,
          "velocity": 1
        },
        {
          "duration": 0.1949949999999987,
          "durationTicks": 96,
          "midi": 59,
          "name": "B3",
          "ticks": 10418,
          "time": 20.938921895833335,
          "velocity": 1
        },
        {
          "duration": 0.19499500000000225,
          "durationTicks": 96,
          "midi": 52,
          "name": "E3",
          "ticks": 10514,
          "time": 21.133916895833334,
          "velocity": 1
        },
        {
          "duration": 0.19499500000000225,
          "durationTicks": 96,
          "midi": 59,
          "name": "B3",
          "ticks": 10514,
          "time": 21.133916895833334,
          "velocity": 1
        },
        {
          "duration": 0.1949949999999987,
          "durationTicks": 96,
          "midi": 52,
          "name": "E3",
          "ticks": 10610,
          "time": 21.328911895833336,
          "velocity": 1
        },
        {
          "duration": 0.1949949999999987,
          "durationTicks": 96,
          "midi": 59,
          "name": "B3",
          "ticks": 10610,
          "time": 21.328911895833336,
          "velocity": 1
        },
        {
          "duration": 0.1949949999999987,
          "durationTicks": 96,
          "midi": 50,
          "name": "D3",
          "ticks": 10706,
          "time": 21.523906895833335,
          "velocity": 1
        },
        {
          "duration": 0.1949949999999987,
          "durationTicks": 96,
          "midi": 57,
          "name": "A3",
          "ticks": 10706,
          "time": 21.523906895833335,
          "velocity": 1
        },
        {
          "duration": 0.1949949999999987,
          "durationTicks": 96,
          "midi": 50,
          "name": "D3",
          "ticks": 10802,
          "time": 21.718901895833334,
          "velocity": 1
        },
        {
          "duration": 0.1949949999999987,
          "durationTicks": 96,
          "midi": 57,
          "name": "A3",
          "ticks": 10802,
          "time": 21.718901895833334,
          "velocity": 1
        },
        {
          "duration": 0.19499500000000225,
          "durationTicks": 96,
          "midi": 50,
          "name": "D3",
          "ticks": 10898,
          "time": 21.913896895833332,
          "velocity": 1
        },
        {
          "duration": 0.19499500000000225,
          "durationTicks": 96,
          "midi": 57,
          "name": "A3",
          "ticks": 10898,
          "time": 21.913896895833332,
          "velocity": 1
        },
        {
          "duration": 0.1949949999999987,
          "durationTicks": 96,
          "midi": 50,
          "name": "D3",
          "ticks": 10994,
          "time": 22.108891895833334,
          "velocity": 1
        },
        {
          "duration": 0.1949949999999987,
          "durationTicks": 96,
          "midi": 57,
          "name": "A3",
          "ticks": 10994,
          "time": 22.108891895833334,
          "velocity": 1
        },
        {
          "duration": 0.19499500000000225,
          "durationTicks": 96,
          "midi": 50,
          "name": "D3",
          "ticks": 11090,
          "time": 22.303886895833333,
          "velocity": 1
        },
        {
          "duration": 0.19499500000000225,
          "durationTicks": 96,
          "midi": 57,
          "name": "A3",
          "ticks": 11090,
          "time": 22.303886895833333,
          "velocity": 1
        },
        {
          "duration": 0.1949949999999987,
          "durationTicks": 96,
          "midi": 50,
          "name": "D3",
          "ticks": 11186,
          "time": 22.498881895833335,
          "velocity": 1
        },
        {
          "duration": 0.1949949999999987,
          "durationTicks": 96,
          "midi": 57,
          "name": "A3",
          "ticks": 11186,
          "time": 22.498881895833335,
          "velocity": 1
        },
        {
          "duration": 0.1949949999999987,
          "durationTicks": 96,
          "midi": 50,
          "name": "D3",
          "ticks": 11282,
          "time": 22.693876895833334,
          "velocity": 1
        },
        {
          "duration": 0.1949949999999987,
          "durationTicks": 96,
          "midi": 57,
          "name": "A3",
          "ticks": 11282,
          "time": 22.693876895833334,
          "velocity": 1
        },
        {
          "duration": 0.19499500000000225,
          "durationTicks": 96,
          "midi": 50,
          "name": "D3",
          "ticks": 11378,
          "time": 22.888871895833333,
          "velocity": 1
        },
        {
          "duration": 0.19499500000000225,
          "durationTicks": 96,
          "midi": 57,
          "name": "A3",
          "ticks": 11378,
          "time": 22.888871895833333,
          "velocity": 1
        },
        {
          "duration": 0.1949949999999987,
          "durationTicks": 96,
          "midi": 43,
          "name": "G2",
          "ticks": 11474,
          "time": 23.083866895833335,
          "velocity": 1
        },
        {
          "duration": 0.1949949999999987,
          "durationTicks": 96,
          "midi": 50,
          "name": "D3",
          "ticks": 11474,
          "time": 23.083866895833335,
          "velocity": 1
        },
        {
          "duration": 0.4874875000000003,
          "durationTicks": 240,
          "midi": 38,
          "name": "D2",
          "ticks": 11570,
          "time": 23.278861895833334,
          "velocity": 1
        },
        {
          "duration": 0.4874875000000003,
          "durationTicks": 240,
          "midi": 45,
          "name": "A2",
          "ticks": 11570,
          "time": 23.278861895833334,
          "velocity": 1
        },
        {
          "duration": 0.38999000000000095,
          "durationTicks": 192,
          "midi": 40,
          "name": "E2",
          "ticks": 11810,
          "time": 23.766349395833334,
          "velocity": 1
        },
        {
          "duration": 0.38999000000000095,
          "durationTicks": 192,
          "midi": 47,
          "name": "B2",
          "ticks": 11810,
          "time": 23.766349395833334,
          "velocity": 1
        },
        {
          "duration": 0.38999000000000095,
          "durationTicks": 192,
          "midi": 55,
          "name": "G3",
          "ticks": 12002,
          "time": 24.156339395833335,
          "velocity": 1
        },
        {
          "duration": 0.38999000000000095,
          "durationTicks": 192,
          "midi": 62,
          "name": "D4",
          "ticks": 12002,
          "time": 24.156339395833335,
          "velocity": 1
        },
        {
          "duration": 0.1949950000000058,
          "durationTicks": 96,
          "midi": 52,
          "name": "E3",
          "ticks": 18338,
          "time": 37.026009395833334,
          "velocity": 1
        },
        {
          "duration": 0.1949950000000058,
          "durationTicks": 96,
          "midi": 59,
          "name": "B3",
          "ticks": 18338,
          "time": 37.026009395833334,
          "velocity": 1
        },
        {
          "duration": 0.1949949999999987,
          "durationTicks": 96,
          "midi": 52,
          "name": "E3",
          "ticks": 18434,
          "time": 37.22100439583334,
          "velocity": 1
        },
        {
          "duration": 0.1949949999999987,
          "durationTicks": 96,
          "midi": 59,
          "name": "B3",
          "ticks": 18434,
          "time": 37.22100439583334,
          "velocity": 1
        },
        {
          "duration": 0.1949949999999987,
          "durationTicks": 96,
          "midi": 52,
          "name": "E3",
          "ticks": 18530,
          "time": 37.41599939583334,
          "velocity": 1
        },
        {
          "duration": 0.1949949999999987,
          "durationTicks": 96,
          "midi": 59,
          "name": "B3",
          "ticks": 18530,
          "time": 37.41599939583334,
          "velocity": 1
        },
        {
          "duration": 0.1949949999999987,
          "durationTicks": 96,
          "midi": 52,
          "name": "E3",
          "ticks": 18626,
          "time": 37.61099439583334,
          "velocity": 1
        },
        {
          "duration": 0.1949949999999987,
          "durationTicks": 96,
          "midi": 59,
          "name": "B3",
          "ticks": 18626,
          "time": 37.61099439583334,
          "velocity": 1
        },
        {
          "duration": 0.1949949999999987,
          "durationTicks": 96,
          "midi": 52,
          "name": "E3",
          "ticks": 18722,
          "time": 37.805989395833336,
          "velocity": 1
        },
        {
          "duration": 0.1949949999999987,
          "durationTicks": 96,
          "midi": 59,
          "name": "B3",
          "ticks": 18722,
          "time": 37.805989395833336,
          "velocity": 1
        },
        {
          "duration": 0.1949950000000058,
          "durationTicks": 96,
          "midi": 52,
          "name": "E3",
          "ticks": 18818,
          "time": 38.000984395833335,
          "velocity": 1
        },
        {
          "duration": 0.1949950000000058,
          "durationTicks": 96,
          "midi": 59,
          "name": "B3",
          "ticks": 18818,
          "time": 38.000984395833335,
          "velocity": 1
        },
        {
          "duration": 0.1949949999999987,
          "durationTicks": 96,
          "midi": 52,
          "name": "E3",
          "ticks": 18914,
          "time": 38.19597939583334,
          "velocity": 1
        },
        {
          "duration": 0.1949949999999987,
          "durationTicks": 96,
          "midi": 59,
          "name": "B3",
          "ticks": 18914,
          "time": 38.19597939583334,
          "velocity": 1
        },
        {
          "duration": 0.1949949999999987,
          "durationTicks": 96,
          "midi": 52,
          "name": "E3",
          "ticks": 19010,
          "time": 38.39097439583334,
          "velocity": 1
        },
        {
          "duration": 0.1949949999999987,
          "durationTicks": 96,
          "midi": 59,
          "name": "B3",
          "ticks": 19010,
          "time": 38.39097439583334,
          "velocity": 1
        },
        {
          "duration": 0.1949949999999987,
          "durationTicks": 96,
          "midi": 52,
          "name": "E3",
          "ticks": 19106,
          "time": 38.58596939583334,
          "velocity": 1
        },
        {
          "duration": 0.1949949999999987,
          "durationTicks": 96,
          "midi": 59,
          "name": "B3",
          "ticks": 19106,
          "time": 38.58596939583334,
          "velocity": 1
        },
        {
          "duration": 0.1949949999999987,
          "durationTicks": 96,
          "midi": 52,
          "name": "E3",
          "ticks": 19202,
          "time": 38.78096439583334,
          "velocity": 1
        },
        {
          "duration": 0.1949949999999987,
          "durationTicks": 96,
          "midi": 59,
          "name": "B3",
          "ticks": 19202,
          "time": 38.78096439583334,
          "velocity": 1
        },
        {
          "duration": 0.1949949999999987,
          "durationTicks": 96,
          "midi": 52,
          "name": "E3",
          "ticks": 19298,
          "time": 38.975959395833335,
          "velocity": 1
        },
        {
          "duration": 0.1949949999999987,
          "durationTicks": 96,
          "midi": 59,
          "name": "B3",
          "ticks": 19298,
          "time": 38.975959395833335,
          "velocity": 1
        },
        {
          "duration": 0.1949950000000058,
          "durationTicks": 96,
          "midi": 52,
          "name": "E3",
          "ticks": 19394,
          "time": 39.170954395833334,
          "velocity": 1
        },
        {
          "duration": 0.1949950000000058,
          "durationTicks": 96,
          "midi": 59,
          "name": "B3",
          "ticks": 19394,
          "time": 39.170954395833334,
          "velocity": 1
        },
        {
          "duration": 0.1949949999999987,
          "durationTicks": 96,
          "midi": 52,
          "name": "E3",
          "ticks": 19490,
          "time": 39.36594939583334,
          "velocity": 1
        },
        {
          "duration": 0.1949949999999987,
          "durationTicks": 96,
          "midi": 59,
          "name": "B3",
          "ticks": 19490,
          "time": 39.36594939583334,
          "velocity": 1
        },
        {
          "duration": 0.1949949999999987,
          "durationTicks": 96,
          "midi": 52,
          "name": "E3",
          "ticks": 19586,
          "time": 39.56094439583334,
          "velocity": 1
        },
        {
          "duration": 0.1949949999999987,
          "durationTicks": 96,
          "midi": 59,
          "name": "B3",
          "ticks": 19586,
          "time": 39.56094439583334,
          "velocity": 1
        },
        {
          "duration": 0.1949949999999987,
          "durationTicks": 96,
          "midi": 52,
          "name": "E3",
          "ticks": 19682,
          "time": 39.75593939583334,
          "velocity": 1
        },
        {
          "duration": 0.1949949999999987,
          "durationTicks": 96,
          "midi": 59,
          "name": "B3",
          "ticks": 19682,
          "time": 39.75593939583334,
          "velocity": 1
        },
        {
          "duration": 0.1949949999999987,
          "durationTicks": 96,
          "midi": 52,
          "name": "E3",
          "ticks": 19778,
          "time": 39.950934395833336,
          "velocity": 1
        },
        {
          "duration": 0.1949949999999987,
          "durationTicks": 96,
          "midi": 59,
          "name": "B3",
          "ticks": 19778,
          "time": 39.950934395833336,
          "velocity": 1
        },
        {
          "duration": 0.1949950000000058,
          "durationTicks": 96,
          "midi": 50,
          "name": "D3",
          "ticks": 19874,
          "time": 40.145929395833335,
          "velocity": 1
        },
        {
          "duration": 0.1949950000000058,
          "durationTicks": 96,
          "midi": 57,
          "name": "A3",
          "ticks": 19874,
          "time": 40.145929395833335,
          "velocity": 1
        },
        {
          "duration": 0.1949949999999987,
          "durationTicks": 96,
          "midi": 50,
          "name": "D3",
          "ticks": 19970,
          "time": 40.34092439583334,
          "velocity": 1
        },
        {
          "duration": 0.1949949999999987,
          "durationTicks": 96,
          "midi": 57,
          "name": "A3",
          "ticks": 19970,
          "time": 40.34092439583334,
          "velocity": 1
        },
        {
          "duration": 0.1949949999999987,
          "durationTicks": 96,
          "midi": 50,
          "name": "D3",
          "ticks": 20066,
          "time": 40.53591939583334,
          "velocity": 1
        },
        {
          "duration": 0.1949949999999987,
          "durationTicks": 96,
          "midi": 57,
          "name": "A3",
          "ticks": 20066,
          "time": 40.53591939583334,
          "velocity": 1
        },
        {
          "duration": 0.1949949999999987,
          "durationTicks": 96,
          "midi": 50,
          "name": "D3",
          "ticks": 20162,
          "time": 40.73091439583334,
          "velocity": 1
        },
        {
          "duration": 0.1949949999999987,
          "durationTicks": 96,
          "midi": 57,
          "name": "A3",
          "ticks": 20162,
          "time": 40.73091439583334,
          "velocity": 1
        },
        {
          "duration": 0.1949949999999987,
          "durationTicks": 96,
          "midi": 50,
          "name": "D3",
          "ticks": 20258,
          "time": 40.92590939583334,
          "velocity": 1
        },
        {
          "duration": 0.1949949999999987,
          "durationTicks": 96,
          "midi": 57,
          "name": "A3",
          "ticks": 20258,
          "time": 40.92590939583334,
          "velocity": 1
        },
        {
          "duration": 0.1949950000000058,
          "durationTicks": 96,
          "midi": 50,
          "name": "D3",
          "ticks": 20354,
          "time": 41.120904395833335,
          "velocity": 1
        },
        {
          "duration": 0.1949950000000058,
          "durationTicks": 96,
          "midi": 57,
          "name": "A3",
          "ticks": 20354,
          "time": 41.120904395833335,
          "velocity": 1
        },
        {
          "duration": 0.1949949999999987,
          "durationTicks": 96,
          "midi": 50,
          "name": "D3",
          "ticks": 20450,
          "time": 41.31589939583334,
          "velocity": 1
        },
        {
          "duration": 0.1949949999999987,
          "durationTicks": 96,
          "midi": 57,
          "name": "A3",
          "ticks": 20450,
          "time": 41.31589939583334,
          "velocity": 1
        },
        {
          "duration": 0.1949949999999987,
          "durationTicks": 96,
          "midi": 50,
          "name": "D3",
          "ticks": 20546,
          "time": 41.51089439583334,
          "velocity": 1
        },
        {
          "duration": 0.1949949999999987,
          "durationTicks": 96,
          "midi": 57,
          "name": "A3",
          "ticks": 20546,
          "time": 41.51089439583334,
          "velocity": 1
        },
        {
          "duration": 0.1949949999999987,
          "durationTicks": 96,
          "midi": 43,
          "name": "G2",
          "ticks": 20642,
          "time": 41.70588939583334,
          "velocity": 1
        },
        {
          "duration": 0.1949949999999987,
          "durationTicks": 96,
          "midi": 50,
          "name": "D3",
          "ticks": 20642,
          "time": 41.70588939583334,
          "velocity": 1
        },
        {
          "duration": 0.4874875000000003,
          "durationTicks": 240,
          "midi": 38,
          "name": "D2",
          "ticks": 20738,
          "time": 41.90088439583334,
          "velocity": 1
        },
        {
          "duration": 0.4874875000000003,
          "durationTicks": 240,
          "midi": 45,
          "name": "A2",
          "ticks": 20738,
          "time": 41.90088439583334,
          "velocity": 1
        },
        {
          "duration": 0.3899899999999974,
          "durationTicks": 192,
          "midi": 40,
          "name": "E2",
          "ticks": 20978,
          "time": 42.38837189583334,
          "velocity": 1
        },
        {
          "duration": 0.3899899999999974,
          "durationTicks": 192,
          "midi": 47,
          "name": "B2",
          "ticks": 20978,
          "time": 42.38837189583334,
          "velocity": 1
        },
        {
          "duration": 0.38998604166666695,
          "durationTicks": 192,
          "midi": 55,
          "name": "G3",
          "ticks": 21170,
          "time": 42.778361895833335,
          "velocity": 1
        },
        {
          "duration": 0.38998604166666695,
          "durationTicks": 192,
          "midi": 62,
          "name": "D4",
          "ticks": 21170,
          "time": 42.778361895833335,
          "velocity": 1
        },
        {
          "duration": 0.19480500000000234,
          "durationTicks": 96,
          "midi": 52,
          "name": "E3",
          "ticks": 21362,
          "time": 43.1683479375,
          "velocity": 1
        },
        {
          "duration": 0.19480500000000234,
          "durationTicks": 96,
          "midi": 59,
          "name": "B3",
          "ticks": 21362,
          "time": 43.1683479375,
          "velocity": 1
        },
        {
          "duration": 0.19480499999999523,
          "durationTicks": 96,
          "midi": 52,
          "name": "E3",
          "ticks": 21458,
          "time": 43.363152937500004,
          "velocity": 1
        },
        {
          "duration": 0.19480499999999523,
          "durationTicks": 96,
          "midi": 59,
          "name": "B3",
          "ticks": 21458,
          "time": 43.363152937500004,
          "velocity": 1
        },
        {
          "duration": 0.19480500000000234,
          "durationTicks": 96,
          "midi": 52,
          "name": "E3",
          "ticks": 21554,
          "time": 43.5579579375,
          "velocity": 1
        },
        {
          "duration": 0.19480500000000234,
          "durationTicks": 96,
          "midi": 59,
          "name": "B3",
          "ticks": 21554,
          "time": 43.5579579375,
          "velocity": 1
        },
        {
          "duration": 0.19480500000000234,
          "durationTicks": 96,
          "midi": 52,
          "name": "E3",
          "ticks": 21650,
          "time": 43.7527629375,
          "velocity": 1
        },
        {
          "duration": 0.19480500000000234,
          "durationTicks": 96,
          "midi": 59,
          "name": "B3",
          "ticks": 21650,
          "time": 43.7527629375,
          "velocity": 1
        },
        {
          "duration": 0.19480499999999523,
          "durationTicks": 96,
          "midi": 52,
          "name": "E3",
          "ticks": 21746,
          "time": 43.947567937500004,
          "velocity": 1
        },
        {
          "duration": 0.19480499999999523,
          "durationTicks": 96,
          "midi": 59,
          "name": "B3",
          "ticks": 21746,
          "time": 43.947567937500004,
          "velocity": 1
        },
        {
          "duration": 0.19480500000000234,
          "durationTicks": 96,
          "midi": 52,
          "name": "E3",
          "ticks": 21842,
          "time": 44.1423729375,
          "velocity": 1
        },
        {
          "duration": 0.19480500000000234,
          "durationTicks": 96,
          "midi": 59,
          "name": "B3",
          "ticks": 21842,
          "time": 44.1423729375,
          "velocity": 1
        },
        {
          "duration": 0.19480500000000234,
          "durationTicks": 96,
          "midi": 52,
          "name": "E3",
          "ticks": 21938,
          "time": 44.3371779375,
          "velocity": 1
        },
        {
          "duration": 0.19480500000000234,
          "durationTicks": 96,
          "midi": 59,
          "name": "B3",
          "ticks": 21938,
          "time": 44.3371779375,
          "velocity": 1
        },
        {
          "duration": 0.19480499999999523,
          "durationTicks": 96,
          "midi": 52,
          "name": "E3",
          "ticks": 22034,
          "time": 44.531982937500004,
          "velocity": 1
        },
        {
          "duration": 0.19480499999999523,
          "durationTicks": 96,
          "midi": 59,
          "name": "B3",
          "ticks": 22034,
          "time": 44.531982937500004,
          "velocity": 1
        },
        {
          "duration": 0.19480500000000234,
          "durationTicks": 96,
          "midi": 52,
          "name": "E3",
          "ticks": 22130,
          "time": 44.7267879375,
          "velocity": 1
        },
        {
          "duration": 0.19480500000000234,
          "durationTicks": 96,
          "midi": 59,
          "name": "B3",
          "ticks": 22130,
          "time": 44.7267879375,
          "velocity": 1
        },
        {
          "duration": 0.19480500000000234,
          "durationTicks": 96,
          "midi": 52,
          "name": "E3",
          "ticks": 22226,
          "time": 44.9215929375,
          "velocity": 1
        },
        {
          "duration": 0.19480500000000234,
          "durationTicks": 96,
          "midi": 59,
          "name": "B3",
          "ticks": 22226,
          "time": 44.9215929375,
          "velocity": 1
        },
        {
          "duration": 0.19480499999999523,
          "durationTicks": 96,
          "midi": 52,
          "name": "E3",
          "ticks": 22322,
          "time": 45.116397937500004,
          "velocity": 1
        },
        {
          "duration": 0.19480499999999523,
          "durationTicks": 96,
          "midi": 59,
          "name": "B3",
          "ticks": 22322,
          "time": 45.116397937500004,
          "velocity": 1
        },
        {
          "duration": 0.19480500000000234,
          "durationTicks": 96,
          "midi": 52,
          "name": "E3",
          "ticks": 22418,
          "time": 45.3112029375,
          "velocity": 1
        },
        {
          "duration": 0.19480500000000234,
          "durationTicks": 96,
          "midi": 59,
          "name": "B3",
          "ticks": 22418,
          "time": 45.3112029375,
          "velocity": 1
        },
        {
          "duration": 0.19480500000000234,
          "durationTicks": 96,
          "midi": 52,
          "name": "E3",
          "ticks": 22514,
          "time": 45.5060079375,
          "velocity": 1
        },
        {
          "duration": 0.19480500000000234,
          "durationTicks": 96,
          "midi": 59,
          "name": "B3",
          "ticks": 22514,
          "time": 45.5060079375,
          "velocity": 1
        },
        {
          "duration": 0.19480500000000234,
          "durationTicks": 96,
          "midi": 52,
          "name": "E3",
          "ticks": 22610,
          "time": 45.700812937500004,
          "velocity": 1
        },
        {
          "duration": 0.19480500000000234,
          "durationTicks": 96,
          "midi": 59,
          "name": "B3",
          "ticks": 22610,
          "time": 45.700812937500004,
          "velocity": 1
        },
        {
          "duration": 0.19480499999999523,
          "durationTicks": 96,
          "midi": 52,
          "name": "E3",
          "ticks": 22706,
          "time": 45.895617937500006,
          "velocity": 1
        },
        {
          "duration": 0.19480499999999523,
          "durationTicks": 96,
          "midi": 59,
          "name": "B3",
          "ticks": 22706,
          "time": 45.895617937500006,
          "velocity": 1
        },
        {
          "duration": 0.19480500000000234,
          "durationTicks": 96,
          "midi": 52,
          "name": "E3",
          "ticks": 22802,
          "time": 46.0904229375,
          "velocity": 1
        },
        {
          "duration": 0.19480500000000234,
          "durationTicks": 96,
          "midi": 59,
          "name": "B3",
          "ticks": 22802,
          "time": 46.0904229375,
          "velocity": 1
        },
        {
          "duration": 0.19480499999999523,
          "durationTicks": 96,
          "midi": 50,
          "name": "D3",
          "ticks": 22898,
          "time": 46.285227937500004,
          "velocity": 1
        },
        {
          "duration": 0.19480499999999523,
          "durationTicks": 96,
          "midi": 57,
          "name": "A3",
          "ticks": 22898,
          "time": 46.285227937500004,
          "velocity": 1
        },
        {
          "duration": 0.19480500000000234,
          "durationTicks": 96,
          "midi": 50,
          "name": "D3",
          "ticks": 22994,
          "time": 46.4800329375,
          "velocity": 1
        },
        {
          "duration": 0.19480500000000234,
          "durationTicks": 96,
          "midi": 57,
          "name": "A3",
          "ticks": 22994,
          "time": 46.4800329375,
          "velocity": 1
        },
        {
          "duration": 0.19480500000000234,
          "durationTicks": 96,
          "midi": 50,
          "name": "D3",
          "ticks": 23090,
          "time": 46.6748379375,
          "velocity": 1
        },
        {
          "duration": 0.19480500000000234,
          "durationTicks": 96,
          "midi": 57,
          "name": "A3",
          "ticks": 23090,
          "time": 46.6748379375,
          "velocity": 1
        },
        {
          "duration": 0.19480500000000234,
          "durationTicks": 96,
          "midi": 50,
          "name": "D3",
          "ticks": 23186,
          "time": 46.869642937500004,
          "velocity": 1
        },
        {
          "duration": 0.19480500000000234,
          "durationTicks": 96,
          "midi": 57,
          "name": "A3",
          "ticks": 23186,
          "time": 46.869642937500004,
          "velocity": 1
        },
        {
          "duration": 0.19480499999999523,
          "durationTicks": 96,
          "midi": 50,
          "name": "D3",
          "ticks": 23282,
          "time": 47.064447937500006,
          "velocity": 1
        },
        {
          "duration": 0.19480499999999523,
          "durationTicks": 96,
          "midi": 57,
          "name": "A3",
          "ticks": 23282,
          "time": 47.064447937500006,
          "velocity": 1
        },
        {
          "duration": 0.19480500000000234,
          "durationTicks": 96,
          "midi": 50,
          "name": "D3",
          "ticks": 23378,
          "time": 47.2592529375,
          "velocity": 1
        },
        {
          "duration": 0.19480500000000234,
          "durationTicks": 96,
          "midi": 57,
          "name": "A3",
          "ticks": 23378,
          "time": 47.2592529375,
          "velocity": 1
        },
        {
          "duration": 0.19480499999999523,
          "durationTicks": 96,
          "midi": 50,
          "name": "D3",
          "ticks": 23474,
          "time": 47.454057937500004,
          "velocity": 1
        },
        {
          "duration": 0.19480499999999523,
          "durationTicks": 96,
          "midi": 57,
          "name": "A3",
          "ticks": 23474,
          "time": 47.454057937500004,
          "velocity": 1
        },
        {
          "duration": 0.19480500000000234,
          "durationTicks": 96,
          "midi": 50,
          "name": "D3",
          "ticks": 23570,
          "time": 47.6488629375,
          "velocity": 1
        },
        {
          "duration": 0.19480500000000234,
          "durationTicks": 96,
          "midi": 57,
          "name": "A3",
          "ticks": 23570,
          "time": 47.6488629375,
          "velocity": 1
        },
        {
          "duration": 0.19480500000000234,
          "durationTicks": 96,
          "midi": 43,
          "name": "G2",
          "ticks": 23666,
          "time": 47.8436679375,
          "velocity": 1
        },
        {
          "duration": 0.19480500000000234,
          "durationTicks": 96,
          "midi": 50,
          "name": "D3",
          "ticks": 23666,
          "time": 47.8436679375,
          "velocity": 1
        },
        {
          "duration": 0.48701249999999874,
          "durationTicks": 240,
          "midi": 38,
          "name": "D2",
          "ticks": 23762,
          "time": 48.0384729375,
          "velocity": 1
        },
        {
          "duration": 0.48701249999999874,
          "durationTicks": 240,
          "midi": 45,
          "name": "A2",
          "ticks": 23762,
          "time": 48.0384729375,
          "velocity": 1
        },
        {
          "duration": 0.38960999999999757,
          "durationTicks": 192,
          "midi": 40,
          "name": "E2",
          "ticks": 24002,
          "time": 48.5254854375,
          "velocity": 1
        },
        {
          "duration": 0.38960999999999757,
          "durationTicks": 192,
          "midi": 47,
          "name": "B2",
          "ticks": 24002,
          "time": 48.5254854375,
          "velocity": 1
        },
        {
          "duration": 0.3896100000000047,
          "durationTicks": 192,
          "midi": 55,
          "name": "G3",
          "ticks": 24194,
          "time": 48.9150954375,
          "velocity": 1
        },
        {
          "duration": 0.3896100000000047,
          "durationTicks": 192,
          "midi": 62,
          "name": "D4",
          "ticks": 24194,
          "time": 48.9150954375,
          "velocity": 1
        },
        {
          "duration": 0.1949950000000058,
          "durationTicks": 96,
          "midi": 52,
          "name": "E3",
          "ticks": 30530,
          "time": 61.772229395833335,
          "velocity": 1
        },
        {
          "duration": 0.1949950000000058,
          "durationTicks": 96,
          "midi": 59,
          "name": "B3",
          "ticks": 30530,
          "time": 61.772229395833335,
          "velocity": 1
        },
        {
          "duration": 0.1949949999999987,
          "durationTicks": 96,
          "midi": 52,
          "name": "E3",
          "ticks": 30626,
          "time": 61.96722439583334,
          "velocity": 1
        },
        {
          "duration": 0.1949949999999987,
          "durationTicks": 96,
          "midi": 59,
          "name": "B3",
          "ticks": 30626,
          "time": 61.96722439583334,
          "velocity": 1
        },
        {
          "duration": 0.1949949999999987,
          "durationTicks": 96,
          "midi": 52,
          "name": "E3",
          "ticks": 30722,
          "time": 62.16221939583334,
          "velocity": 1
        },
        {
          "duration": 0.1949949999999987,
          "durationTicks": 96,
          "midi": 59,
          "name": "B3",
          "ticks": 30722,
          "time": 62.16221939583334,
          "velocity": 1
        },
        {
          "duration": 0.1949949999999987,
          "durationTicks": 96,
          "midi": 52,
          "name": "E3",
          "ticks": 30818,
          "time": 62.35721439583334,
          "velocity": 1
        },
        {
          "duration": 0.1949949999999987,
          "durationTicks": 96,
          "midi": 59,
          "name": "B3",
          "ticks": 30818,
          "time": 62.35721439583334,
          "velocity": 1
        },
        {
          "duration": 0.1949949999999987,
          "durationTicks": 96,
          "midi": 52,
          "name": "E3",
          "ticks": 30914,
          "time": 62.55220939583334,
          "velocity": 1
        },
        {
          "duration": 0.1949949999999987,
          "durationTicks": 96,
          "midi": 59,
          "name": "B3",
          "ticks": 30914,
          "time": 62.55220939583334,
          "velocity": 1
        },
        {
          "duration": 0.1949950000000058,
          "durationTicks": 96,
          "midi": 52,
          "name": "E3",
          "ticks": 31010,
          "time": 62.747204395833336,
          "velocity": 1
        },
        {
          "duration": 0.1949950000000058,
          "durationTicks": 96,
          "midi": 59,
          "name": "B3",
          "ticks": 31010,
          "time": 62.747204395833336,
          "velocity": 1
        },
        {
          "duration": 0.1949949999999987,
          "durationTicks": 96,
          "midi": 52,
          "name": "E3",
          "ticks": 31106,
          "time": 62.94219939583334,
          "velocity": 1
        },
        {
          "duration": 0.1949949999999987,
          "durationTicks": 96,
          "midi": 59,
          "name": "B3",
          "ticks": 31106,
          "time": 62.94219939583334,
          "velocity": 1
        },
        {
          "duration": 0.1949949999999987,
          "durationTicks": 96,
          "midi": 52,
          "name": "E3",
          "ticks": 31202,
          "time": 63.13719439583334,
          "velocity": 1
        },
        {
          "duration": 0.1949949999999987,
          "durationTicks": 96,
          "midi": 59,
          "name": "B3",
          "ticks": 31202,
          "time": 63.13719439583334,
          "velocity": 1
        },
        {
          "duration": 0.1949949999999987,
          "durationTicks": 96,
          "midi": 52,
          "name": "E3",
          "ticks": 31298,
          "time": 63.33218939583334,
          "velocity": 1
        },
        {
          "duration": 0.1949949999999987,
          "durationTicks": 96,
          "midi": 59,
          "name": "B3",
          "ticks": 31298,
          "time": 63.33218939583334,
          "velocity": 1
        },
        {
          "duration": 0.1949949999999987,
          "durationTicks": 96,
          "midi": 52,
          "name": "E3",
          "ticks": 31394,
          "time": 63.52718439583334,
          "velocity": 1
        },
        {
          "duration": 0.1949949999999987,
          "durationTicks": 96,
          "midi": 59,
          "name": "B3",
          "ticks": 31394,
          "time": 63.52718439583334,
          "velocity": 1
        },
        {
          "duration": 0.1949950000000058,
          "durationTicks": 96,
          "midi": 52,
          "name": "E3",
          "ticks": 31490,
          "time": 63.72217939583334,
          "velocity": 1
        },
        {
          "duration": 0.1949950000000058,
          "durationTicks": 96,
          "midi": 59,
          "name": "B3",
          "ticks": 31490,
          "time": 63.72217939583334,
          "velocity": 1
        },
        {
          "duration": 0.1949949999999916,
          "durationTicks": 96,
          "midi": 52,
          "name": "E3",
          "ticks": 31586,
          "time": 63.91717439583334,
          "velocity": 1
        },
        {
          "duration": 0.1949949999999916,
          "durationTicks": 96,
          "midi": 59,
          "name": "B3",
          "ticks": 31586,
          "time": 63.91717439583334,
          "velocity": 1
        },
        {
          "duration": 0.1949950000000058,
          "durationTicks": 96,
          "midi": 52,
          "name": "E3",
          "ticks": 31682,
          "time": 64.11216939583333,
          "velocity": 1
        },
        {
          "duration": 0.1949950000000058,
          "durationTicks": 96,
          "midi": 59,
          "name": "B3",
          "ticks": 31682,
          "time": 64.11216939583333,
          "velocity": 1
        },
        {
          "duration": 0.1949950000000058,
          "durationTicks": 96,
          "midi": 52,
          "name": "E3",
          "ticks": 31778,
          "time": 64.30716439583334,
          "velocity": 1
        },
        {
          "duration": 0.1949950000000058,
          "durationTicks": 96,
          "midi": 59,
          "name": "B3",
          "ticks": 31778,
          "time": 64.30716439583334,
          "velocity": 1
        },
        {
          "duration": 0.1949949999999916,
          "durationTicks": 96,
          "midi": 52,
          "name": "E3",
          "ticks": 31874,
          "time": 64.50215939583335,
          "velocity": 1
        },
        {
          "duration": 0.1949949999999916,
          "durationTicks": 96,
          "midi": 59,
          "name": "B3",
          "ticks": 31874,
          "time": 64.50215939583335,
          "velocity": 1
        },
        {
          "duration": 0.1949950000000058,
          "durationTicks": 96,
          "midi": 52,
          "name": "E3",
          "ticks": 31970,
          "time": 64.69715439583334,
          "velocity": 1
        },
        {
          "duration": 0.1949950000000058,
          "durationTicks": 96,
          "midi": 59,
          "name": "B3",
          "ticks": 31970,
          "time": 64.69715439583334,
          "velocity": 1
        },
        {
          "duration": 0.1949949999999916,
          "durationTicks": 96,
          "midi": 50,
          "name": "D3",
          "ticks": 32066,
          "time": 64.89214939583334,
          "velocity": 1
        },
        {
          "duration": 0.1949949999999916,
          "durationTicks": 96,
          "midi": 57,
          "name": "A3",
          "ticks": 32066,
          "time": 64.89214939583334,
          "velocity": 1
        },
        {
          "duration": 0.1949950000000058,
          "durationTicks": 96,
          "midi": 50,
          "name": "D3",
          "ticks": 32162,
          "time": 65.08714439583333,
          "velocity": 1
        },
        {
          "duration": 0.1949950000000058,
          "durationTicks": 96,
          "midi": 57,
          "name": "A3",
          "ticks": 32162,
          "time": 65.08714439583333,
          "velocity": 1
        },
        {
          "duration": 0.1949949999999916,
          "durationTicks": 96,
          "midi": 50,
          "name": "D3",
          "ticks": 32258,
          "time": 65.28213939583334,
          "velocity": 1
        },
        {
          "duration": 0.1949949999999916,
          "durationTicks": 96,
          "midi": 57,
          "name": "A3",
          "ticks": 32258,
          "time": 65.28213939583334,
          "velocity": 1
        },
        {
          "duration": 0.1949950000000058,
          "durationTicks": 96,
          "midi": 50,
          "name": "D3",
          "ticks": 32354,
          "time": 65.47713439583333,
          "velocity": 1
        },
        {
          "duration": 0.1949950000000058,
          "durationTicks": 96,
          "midi": 57,
          "name": "A3",
          "ticks": 32354,
          "time": 65.47713439583333,
          "velocity": 1
        },
        {
          "duration": 0.1949950000000058,
          "durationTicks": 96,
          "midi": 50,
          "name": "D3",
          "ticks": 32450,
          "time": 65.67212939583334,
          "velocity": 1
        },
        {
          "duration": 0.1949950000000058,
          "durationTicks": 96,
          "midi": 57,
          "name": "A3",
          "ticks": 32450,
          "time": 65.67212939583334,
          "velocity": 1
        },
        {
          "duration": 0.1949949999999916,
          "durationTicks": 96,
          "midi": 50,
          "name": "D3",
          "ticks": 32546,
          "time": 65.86712439583334,
          "velocity": 1
        },
        {
          "duration": 0.1949949999999916,
          "durationTicks": 96,
          "midi": 57,
          "name": "A3",
          "ticks": 32546,
          "time": 65.86712439583334,
          "velocity": 1
        },
        {
          "duration": 0.1949950000000058,
          "durationTicks": 96,
          "midi": 50,
          "name": "D3",
          "ticks": 32642,
          "time": 66.06211939583334,
          "velocity": 1
        },
        {
          "duration": 0.1949950000000058,
          "durationTicks": 96,
          "midi": 57,
          "name": "A3",
          "ticks": 32642,
          "time": 66.06211939583334,
          "velocity": 1
        },
        {
          "duration": 0.1949949999999916,
          "durationTicks": 96,
          "midi": 50,
          "name": "D3",
          "ticks": 32738,
          "time": 66.25711439583334,
          "velocity": 1
        },
        {
          "duration": 0.1949949999999916,
          "durationTicks": 96,
          "midi": 57,
          "name": "A3",
          "ticks": 32738,
          "time": 66.25711439583334,
          "velocity": 1
        },
        {
          "duration": 0.1949950000000058,
          "durationTicks": 96,
          "midi": 43,
          "name": "G2",
          "ticks": 32834,
          "time": 66.45210939583333,
          "velocity": 1
        },
        {
          "duration": 0.1949950000000058,
          "durationTicks": 96,
          "midi": 50,
          "name": "D3",
          "ticks": 32834,
          "time": 66.45210939583333,
          "velocity": 1
        },
        {
          "duration": 0.4874875000000003,
          "durationTicks": 240,
          "midi": 38,
          "name": "D2",
          "ticks": 32930,
          "time": 66.64710439583334,
          "velocity": 1
        },
        {
          "duration": 0.4874875000000003,
          "durationTicks": 240,
          "midi": 45,
          "name": "A2",
          "ticks": 32930,
          "time": 66.64710439583334,
          "velocity": 1
        },
        {
          "duration": 0.3899899999999974,
          "durationTicks": 192,
          "midi": 40,
          "name": "E2",
          "ticks": 33170,
          "time": 67.13459189583334,
          "velocity": 1
        },
        {
          "duration": 0.3899899999999974,
          "durationTicks": 192,
          "midi": 47,
          "name": "B2",
          "ticks": 33170,
          "time": 67.13459189583334,
          "velocity": 1
        },
        {
          "duration": 0.3899899999999974,
          "durationTicks": 192,
          "midi": 55,
          "name": "G3",
          "ticks": 33362,
          "time": 67.52458189583334,
          "velocity": 1
        },
        {
          "duration": 0.3899899999999974,
          "durationTicks": 192,
          "midi": 62,
          "name": "D4",
          "ticks": 33362,
          "time": 67.52458189583334,
          "velocity": 1
        },
        {
          "duration": 0.1949950000000058,
          "durationTicks": 96,
          "midi": 52,
          "name": "E3",
          "ticks": 33554,
          "time": 67.91457189583333,
          "velocity": 1
        },
        {
          "duration": 0.1949950000000058,
          "durationTicks": 96,
          "midi": 59,
          "name": "B3",
          "ticks": 33554,
          "time": 67.91457189583333,
          "velocity": 1
        },
        {
          "duration": 0.1949949999999916,
          "durationTicks": 96,
          "midi": 52,
          "name": "E3",
          "ticks": 33650,
          "time": 68.10956689583334,
          "velocity": 1
        },
        {
          "duration": 0.1949949999999916,
          "durationTicks": 96,
          "midi": 59,
          "name": "B3",
          "ticks": 33650,
          "time": 68.10956689583334,
          "velocity": 1
        },
        {
          "duration": 0.1949950000000058,
          "durationTicks": 96,
          "midi": 52,
          "name": "E3",
          "ticks": 33746,
          "time": 68.30456189583333,
          "velocity": 1
        },
        {
          "duration": 0.1949950000000058,
          "durationTicks": 96,
          "midi": 59,
          "name": "B3",
          "ticks": 33746,
          "time": 68.30456189583333,
          "velocity": 1
        },
        {
          "duration": 0.1949950000000058,
          "durationTicks": 96,
          "midi": 52,
          "name": "E3",
          "ticks": 33842,
          "time": 68.49955689583334,
          "velocity": 1
        },
        {
          "duration": 0.1949950000000058,
          "durationTicks": 96,
          "midi": 59,
          "name": "B3",
          "ticks": 33842,
          "time": 68.49955689583334,
          "velocity": 1
        },
        {
          "duration": 0.1949949999999916,
          "durationTicks": 96,
          "midi": 52,
          "name": "E3",
          "ticks": 33938,
          "time": 68.69455189583334,
          "velocity": 1
        },
        {
          "duration": 0.1949949999999916,
          "durationTicks": 96,
          "midi": 59,
          "name": "B3",
          "ticks": 33938,
          "time": 68.69455189583334,
          "velocity": 1
        },
        {
          "duration": 0.1949950000000058,
          "durationTicks": 96,
          "midi": 52,
          "name": "E3",
          "ticks": 34034,
          "time": 68.88954689583333,
          "velocity": 1
        },
        {
          "duration": 0.1949950000000058,
          "durationTicks": 96,
          "midi": 59,
          "name": "B3",
          "ticks": 34034,
          "time": 68.88954689583333,
          "velocity": 1
        },
        {
          "duration": 0.1949949999999916,
          "durationTicks": 96,
          "midi": 52,
          "name": "E3",
          "ticks": 34130,
          "time": 69.08454189583334,
          "velocity": 1
        },
        {
          "duration": 0.1949949999999916,
          "durationTicks": 96,
          "midi": 59,
          "name": "B3",
          "ticks": 34130,
          "time": 69.08454189583334,
          "velocity": 1
        },
        {
          "duration": 0.1949950000000058,
          "durationTicks": 96,
          "midi": 52,
          "name": "E3",
          "ticks": 34226,
          "time": 69.27953689583333,
          "velocity": 1
        },
        {
          "duration": 0.1949950000000058,
          "durationTicks": 96,
          "midi": 59,
          "name": "B3",
          "ticks": 34226,
          "time": 69.27953689583333,
          "velocity": 1
        },
        {
          "duration": 0.1949950000000058,
          "durationTicks": 96,
          "midi": 52,
          "name": "E3",
          "ticks": 34322,
          "time": 69.47453189583334,
          "velocity": 1
        },
        {
          "duration": 0.1949950000000058,
          "durationTicks": 96,
          "midi": 59,
          "name": "B3",
          "ticks": 34322,
          "time": 69.47453189583334,
          "velocity": 1
        },
        {
          "duration": 0.1949949999999916,
          "durationTicks": 96,
          "midi": 52,
          "name": "E3",
          "ticks": 34418,
          "time": 69.66952689583334,
          "velocity": 1
        },
        {
          "duration": 0.1949949999999916,
          "durationTicks": 96,
          "midi": 59,
          "name": "B3",
          "ticks": 34418,
          "time": 69.66952689583334,
          "velocity": 1
        },
        {
          "duration": 0.1949950000000058,
          "durationTicks": 96,
          "midi": 52,
          "name": "E3",
          "ticks": 34514,
          "time": 69.86452189583333,
          "velocity": 1
        },
        {
          "duration": 0.1949950000000058,
          "durationTicks": 96,
          "midi": 59,
          "name": "B3",
          "ticks": 34514,
          "time": 69.86452189583333,
          "velocity": 1
        },
        {
          "duration": 0.1949949999999916,
          "durationTicks": 96,
          "midi": 52,
          "name": "E3",
          "ticks": 34610,
          "time": 70.05951689583334,
          "velocity": 1
        },
        {
          "duration": 0.1949949999999916,
          "durationTicks": 96,
          "midi": 59,
          "name": "B3",
          "ticks": 34610,
          "time": 70.05951689583334,
          "velocity": 1
        },
        {
          "duration": 0.1949950000000058,
          "durationTicks": 96,
          "midi": 52,
          "name": "E3",
          "ticks": 34706,
          "time": 70.25451189583333,
          "velocity": 1
        },
        {
          "duration": 0.1949950000000058,
          "durationTicks": 96,
          "midi": 59,
          "name": "B3",
          "ticks": 34706,
          "time": 70.25451189583333,
          "velocity": 1
        },
        {
          "duration": 0.1949950000000058,
          "durationTicks": 96,
          "midi": 52,
          "name": "E3",
          "ticks": 34802,
          "time": 70.44950689583334,
          "velocity": 1
        },
        {
          "duration": 0.1949950000000058,
          "durationTicks": 96,
          "midi": 59,
          "name": "B3",
          "ticks": 34802,
          "time": 70.44950689583334,
          "velocity": 1
        },
        {
          "duration": 0.1949949999999916,
          "durationTicks": 96,
          "midi": 52,
          "name": "E3",
          "ticks": 34898,
          "time": 70.64450189583334,
          "velocity": 1
        },
        {
          "duration": 0.1949949999999916,
          "durationTicks": 96,
          "midi": 59,
          "name": "B3",
          "ticks": 34898,
          "time": 70.64450189583334,
          "velocity": 1
        },
        {
          "duration": 0.1949950000000058,
          "durationTicks": 96,
          "midi": 52,
          "name": "E3",
          "ticks": 34994,
          "time": 70.83949689583334,
          "velocity": 1
        },
        {
          "duration": 0.1949950000000058,
          "durationTicks": 96,
          "midi": 59,
          "name": "B3",
          "ticks": 34994,
          "time": 70.83949689583334,
          "velocity": 1
        },
        {
          "duration": 0.1949949999999916,
          "durationTicks": 96,
          "midi": 50,
          "name": "D3",
          "ticks": 35090,
          "time": 71.03449189583334,
          "velocity": 1
        },
        {
          "duration": 0.1949949999999916,
          "durationTicks": 96,
          "midi": 57,
          "name": "A3",
          "ticks": 35090,
          "time": 71.03449189583334,
          "velocity": 1
        },
        {
          "duration": 0.1949950000000058,
          "durationTicks": 96,
          "midi": 50,
          "name": "D3",
          "ticks": 35186,
          "time": 71.22948689583333,
          "velocity": 1
        },
        {
          "duration": 0.1949950000000058,
          "durationTicks": 96,
          "midi": 57,
          "name": "A3",
          "ticks": 35186,
          "time": 71.22948689583333,
          "velocity": 1
        },
        {
          "duration": 0.1949949999999916,
          "durationTicks": 96,
          "midi": 50,
          "name": "D3",
          "ticks": 35282,
          "time": 71.42448189583334,
          "velocity": 1
        },
        {
          "duration": 0.1949949999999916,
          "durationTicks": 96,
          "midi": 57,
          "name": "A3",
          "ticks": 35282,
          "time": 71.42448189583334,
          "velocity": 1
        },
        {
          "duration": 0.1949950000000058,
          "durationTicks": 96,
          "midi": 50,
          "name": "D3",
          "ticks": 35378,
          "time": 71.61947689583333,
          "velocity": 1
        },
        {
          "duration": 0.1949950000000058,
          "durationTicks": 96,
          "midi": 57,
          "name": "A3",
          "ticks": 35378,
          "time": 71.61947689583333,
          "velocity": 1
        },
        {
          "duration": 0.1949950000000058,
          "durationTicks": 96,
          "midi": 50,
          "name": "D3",
          "ticks": 35474,
          "time": 71.81447189583334,
          "velocity": 1
        },
        {
          "duration": 0.1949950000000058,
          "durationTicks": 96,
          "midi": 57,
          "name": "A3",
          "ticks": 35474,
          "time": 71.81447189583334,
          "velocity": 1
        },
        {
          "duration": 0.1949949999999916,
          "durationTicks": 96,
          "midi": 50,
          "name": "D3",
          "ticks": 35570,
          "time": 72.00946689583334,
          "velocity": 1
        },
        {
          "duration": 0.1949949999999916,
          "durationTicks": 96,
          "midi": 57,
          "name": "A3",
          "ticks": 35570,
          "time": 72.00946689583334,
          "velocity": 1
        },
        {
          "duration": 0.1949950000000058,
          "durationTicks": 96,
          "midi": 50,
          "name": "D3",
          "ticks": 35666,
          "time": 72.20446189583333,
          "velocity": 1
        },
        {
          "duration": 0.1949950000000058,
          "durationTicks": 96,
          "midi": 57,
          "name": "A3",
          "ticks": 35666,
          "time": 72.20446189583333,
          "velocity": 1
        },
        {
          "duration": 0.1949949999999916,
          "durationTicks": 96,
          "midi": 50,
          "name": "D3",
          "ticks": 35762,
          "time": 72.39945689583334,
          "velocity": 1
        },
        {
          "duration": 0.1949949999999916,
          "durationTicks": 96,
          "midi": 57,
          "name": "A3",
          "ticks": 35762,
          "time": 72.39945689583334,
          "velocity": 1
        },
        {
          "duration": 0.1949950000000058,
          "durationTicks": 96,
          "midi": 43,
          "name": "G2",
          "ticks": 35858,
          "time": 72.59445189583333,
          "velocity": 1
        },
        {
          "duration": 0.1949950000000058,
          "durationTicks": 96,
          "midi": 50,
          "name": "D3",
          "ticks": 35858,
          "time": 72.59445189583333,
          "velocity": 1
        },
        {
          "duration": 0.4874875000000003,
          "durationTicks": 240,
          "midi": 38,
          "name": "D2",
          "ticks": 35954,
          "time": 72.78944689583334,
          "velocity": 1
        },
        {
          "duration": 0.4874875000000003,
          "durationTicks": 240,
          "midi": 45,
          "name": "A2",
          "ticks": 35954,
          "time": 72.78944689583334,
          "velocity": 1
        },
        {
          "duration": 0.3899899999999974,
          "durationTicks": 192,
          "midi": 40,
          "name": "E2",
          "ticks": 36194,
          "time": 73.27693439583334,
          "velocity": 1
        },
        {
          "duration": 0.3899899999999974,
          "durationTicks": 192,
          "midi": 47,
          "name": "B2",
          "ticks": 36194,
          "time": 73.27693439583334,
          "velocity": 1
        },
        {
          "duration": 0.3899899999999974,
          "durationTicks": 192,
          "midi": 55,
          "name": "G3",
          "ticks": 36386,
          "time": 73.66692439583333,
          "velocity": 1
        },
        {
          "duration": 0.3899899999999974,
          "durationTicks": 192,
          "midi": 62,
          "name": "D4",
          "ticks": 36386,
          "time": 73.66692439583333,
          "velocity": 1
        },
        {
          "duration": 0.1949950000000058,
          "durationTicks": 96,
          "midi": 52,
          "name": "E3",
          "ticks": 36578,
          "time": 74.05691439583333,
          "velocity": 1
        },
        {
          "duration": 0.1949950000000058,
          "durationTicks": 96,
          "midi": 59,
          "name": "B3",
          "ticks": 36578,
          "time": 74.05691439583333,
          "velocity": 1
        },
        {
          "duration": 0.1949949999999916,
          "durationTicks": 96,
          "midi": 52,
          "name": "E3",
          "ticks": 36674,
          "time": 74.25190939583334,
          "velocity": 1
        },
        {
          "duration": 0.1949949999999916,
          "durationTicks": 96,
          "midi": 59,
          "name": "B3",
          "ticks": 36674,
          "time": 74.25190939583334,
          "velocity": 1
        },
        {
          "duration": 0.1949950000000058,
          "durationTicks": 96,
          "midi": 52,
          "name": "E3",
          "ticks": 36770,
          "time": 74.44690439583333,
          "velocity": 1
        },
        {
          "duration": 0.1949950000000058,
          "durationTicks": 96,
          "midi": 59,
          "name": "B3",
          "ticks": 36770,
          "time": 74.44690439583333,
          "velocity": 1
        },
        {
          "duration": 0.1949950000000058,
          "durationTicks": 96,
          "midi": 52,
          "name": "E3",
          "ticks": 36866,
          "time": 74.64189939583333,
          "velocity": 1
        },
        {
          "duration": 0.1949950000000058,
          "durationTicks": 96,
          "midi": 59,
          "name": "B3",
          "ticks": 36866,
          "time": 74.64189939583333,
          "velocity": 1
        },
        {
          "duration": 0.1949949999999916,
          "durationTicks": 96,
          "midi": 52,
          "name": "E3",
          "ticks": 36962,
          "time": 74.83689439583334,
          "velocity": 1
        },
        {
          "duration": 0.1949949999999916,
          "durationTicks": 96,
          "midi": 59,
          "name": "B3",
          "ticks": 36962,
          "time": 74.83689439583334,
          "velocity": 1
        },
        {
          "duration": 0.1949950000000058,
          "durationTicks": 96,
          "midi": 52,
          "name": "E3",
          "ticks": 37058,
          "time": 75.03188939583333,
          "velocity": 1
        },
        {
          "duration": 0.1949950000000058,
          "durationTicks": 96,
          "midi": 59,
          "name": "B3",
          "ticks": 37058,
          "time": 75.03188939583333,
          "velocity": 1
        },
        {
          "duration": 0.1949949999999916,
          "durationTicks": 96,
          "midi": 52,
          "name": "E3",
          "ticks": 37154,
          "time": 75.22688439583334,
          "velocity": 1
        },
        {
          "duration": 0.1949949999999916,
          "durationTicks": 96,
          "midi": 59,
          "name": "B3",
          "ticks": 37154,
          "time": 75.22688439583334,
          "velocity": 1
        },
        {
          "duration": 0.1949950000000058,
          "durationTicks": 96,
          "midi": 52,
          "name": "E3",
          "ticks": 37250,
          "time": 75.42187939583333,
          "velocity": 1
        },
        {
          "duration": 0.1949950000000058,
          "durationTicks": 96,
          "midi": 59,
          "name": "B3",
          "ticks": 37250,
          "time": 75.42187939583333,
          "velocity": 1
        },
        {
          "duration": 0.1949950000000058,
          "durationTicks": 96,
          "midi": 52,
          "name": "E3",
          "ticks": 37346,
          "time": 75.61687439583334,
          "velocity": 1
        },
        {
          "duration": 0.1949950000000058,
          "durationTicks": 96,
          "midi": 59,
          "name": "B3",
          "ticks": 37346,
          "time": 75.61687439583334,
          "velocity": 1
        },
        {
          "duration": 0.1949949999999916,
          "durationTicks": 96,
          "midi": 52,
          "name": "E3",
          "ticks": 37442,
          "time": 75.81186939583334,
          "velocity": 1
        },
        {
          "duration": 0.1949949999999916,
          "durationTicks": 96,
          "midi": 59,
          "name": "B3",
          "ticks": 37442,
          "time": 75.81186939583334,
          "velocity": 1
        },
        {
          "duration": 0.1949950000000058,
          "durationTicks": 96,
          "midi": 52,
          "name": "E3",
          "ticks": 37538,
          "time": 76.00686439583333,
          "velocity": 1
        },
        {
          "duration": 0.1949950000000058,
          "durationTicks": 96,
          "midi": 59,
          "name": "B3",
          "ticks": 37538,
          "time": 76.00686439583333,
          "velocity": 1
        },
        {
          "duration": 0.1949949999999916,
          "durationTicks": 96,
          "midi": 52,
          "name": "E3",
          "ticks": 37634,
          "time": 76.20185939583334,
          "velocity": 1
        },
        {
          "duration": 0.1949949999999916,
          "durationTicks": 96,
          "midi": 59,
          "name": "B3",
          "ticks": 37634,
          "time": 76.20185939583334,
          "velocity": 1
        },
        {
          "duration": 0.1949950000000058,
          "durationTicks": 96,
          "midi": 52,
          "name": "E3",
          "ticks": 37730,
          "time": 76.39685439583333,
          "velocity": 1
        },
        {
          "duration": 0.1949950000000058,
          "durationTicks": 96,
          "midi": 59,
          "name": "B3",
          "ticks": 37730,
          "time": 76.39685439583333,
          "velocity": 1
        },
        {
          "duration": 0.1949950000000058,
          "durationTicks": 96,
          "midi": 52,
          "name": "E3",
          "ticks": 37826,
          "time": 76.59184939583334,
          "velocity": 1
        },
        {
          "duration": 0.1949950000000058,
          "durationTicks": 96,
          "midi": 59,
          "name": "B3",
          "ticks": 37826,
          "time": 76.59184939583334,
          "velocity": 1
        },
        {
          "duration": 0.1949949999999916,
          "durationTicks": 96,
          "midi": 52,
          "name": "E3",
          "ticks": 37922,
          "time": 76.78684439583334,
          "velocity": 1
        },
        {
          "duration": 0.1949949999999916,
          "durationTicks": 96,
          "midi": 59,
          "name": "B3",
          "ticks": 37922,
          "time": 76.78684439583334,
          "velocity": 1
        },
        {
          "duration": 0.1949950000000058,
          "durationTicks": 96,
          "midi": 52,
          "name": "E3",
          "ticks": 38018,
          "time": 76.98183939583333,
          "velocity": 1
        },
        {
          "duration": 0.1949950000000058,
          "durationTicks": 96,
          "midi": 59,
          "name": "B3",
          "ticks": 38018,
          "time": 76.98183939583333,
          "velocity": 1
        },
        {
          "duration": 0.1949949999999916,
          "durationTicks": 96,
          "midi": 50,
          "name": "D3",
          "ticks": 38114,
          "time": 77.17683439583334,
          "velocity": 1
        },
        {
          "duration": 0.1949949999999916,
          "durationTicks": 96,
          "midi": 57,
          "name": "A3",
          "ticks": 38114,
          "time": 77.17683439583334,
          "velocity": 1
        },
        {
          "duration": 0.1949950000000058,
          "durationTicks": 96,
          "midi": 50,
          "name": "D3",
          "ticks": 38210,
          "time": 77.37182939583333,
          "velocity": 1
        },
        {
          "duration": 0.1949950000000058,
          "durationTicks": 96,
          "midi": 57,
          "name": "A3",
          "ticks": 38210,
          "time": 77.37182939583333,
          "velocity": 1
        },
        {
          "duration": 0.1949949999999916,
          "durationTicks": 96,
          "midi": 50,
          "name": "D3",
          "ticks": 38306,
          "time": 77.56682439583334,
          "velocity": 1
        },
        {
          "duration": 0.1949949999999916,
          "durationTicks": 96,
          "midi": 57,
          "name": "A3",
          "ticks": 38306,
          "time": 77.56682439583334,
          "velocity": 1
        },
        {
          "duration": 0.1949950000000058,
          "durationTicks": 96,
          "midi": 50,
          "name": "D3",
          "ticks": 38402,
          "time": 77.76181939583333,
          "velocity": 1
        },
        {
          "duration": 0.1949950000000058,
          "durationTicks": 96,
          "midi": 57,
          "name": "A3",
          "ticks": 38402,
          "time": 77.76181939583333,
          "velocity": 1
        },
        {
          "duration": 0.1949950000000058,
          "durationTicks": 96,
          "midi": 50,
          "name": "D3",
          "ticks": 38498,
          "time": 77.95681439583333,
          "velocity": 1
        },
        {
          "duration": 0.1949950000000058,
          "durationTicks": 96,
          "midi": 57,
          "name": "A3",
          "ticks": 38498,
          "time": 77.95681439583333,
          "velocity": 1
        },
        {
          "duration": 0.1949949999999916,
          "durationTicks": 96,
          "midi": 50,
          "name": "D3",
          "ticks": 38594,
          "time": 78.15180939583334,
          "velocity": 1
        },
        {
          "duration": 0.1949949999999916,
          "durationTicks": 96,
          "midi": 57,
          "name": "A3",
          "ticks": 38594,
          "time": 78.15180939583334,
          "velocity": 1
        },
        {
          "duration": 0.1949950000000058,
          "durationTicks": 96,
          "midi": 50,
          "name": "D3",
          "ticks": 38690,
          "time": 78.34680439583333,
          "velocity": 1
        },
        {
          "duration": 0.1949950000000058,
          "durationTicks": 96,
          "midi": 57,
          "name": "A3",
          "ticks": 38690,
          "time": 78.34680439583333,
          "velocity": 1
        },
        {
          "duration": 0.1949949999999916,
          "durationTicks": 96,
          "midi": 50,
          "name": "D3",
          "ticks": 38786,
          "time": 78.54179939583334,
          "velocity": 1
        },
        {
          "duration": 0.1949949999999916,
          "durationTicks": 96,
          "midi": 57,
          "name": "A3",
          "ticks": 38786,
          "time": 78.54179939583334,
          "velocity": 1
        },
        {
          "duration": 0.1949950000000058,
          "durationTicks": 96,
          "midi": 43,
          "name": "G2",
          "ticks": 38882,
          "time": 78.73679439583333,
          "velocity": 1
        },
        {
          "duration": 0.1949950000000058,
          "durationTicks": 96,
          "midi": 50,
          "name": "D3",
          "ticks": 38882,
          "time": 78.73679439583333,
          "velocity": 1
        },
        {
          "duration": 0.4874875000000003,
          "durationTicks": 240,
          "midi": 38,
          "name": "D2",
          "ticks": 38978,
          "time": 78.93178939583333,
          "velocity": 1
        },
        {
          "duration": 0.4874875000000003,
          "durationTicks": 240,
          "midi": 45,
          "name": "A2",
          "ticks": 38978,
          "time": 78.93178939583333,
          "velocity": 1
        },
        {
          "duration": 0.3899899999999974,
          "durationTicks": 192,
          "midi": 40,
          "name": "E2",
          "ticks": 39218,
          "time": 79.41927689583333,
          "velocity": 1
        },
        {
          "duration": 0.3899899999999974,
          "durationTicks": 192,
          "midi": 47,
          "name": "B2",
          "ticks": 39218,
          "time": 79.41927689583333,
          "velocity": 1
        },
        {
          "duration": 0.3899899999999974,
          "durationTicks": 192,
          "midi": 55,
          "name": "G3",
          "ticks": 39410,
          "time": 79.80926689583333,
          "velocity": 1
        },
        {
          "duration": 0.3899899999999974,
          "durationTicks": 192,
          "midi": 62,
          "name": "D4",
          "ticks": 39410,
          "time": 79.80926689583333,
          "velocity": 1
        },
        {
          "duration": 0.1949950000000058,
          "durationTicks": 96,
          "midi": 52,
          "name": "E3",
          "ticks": 39602,
          "time": 80.19925689583333,
          "velocity": 1
        },
        {
          "duration": 0.1949950000000058,
          "durationTicks": 96,
          "midi": 59,
          "name": "B3",
          "ticks": 39602,
          "time": 80.19925689583333,
          "velocity": 1
        },
        {
          "duration": 0.1949949999999916,
          "durationTicks": 96,
          "midi": 52,
          "name": "E3",
          "ticks": 39698,
          "time": 80.39425189583334,
          "velocity": 1
        },
        {
          "duration": 0.1949949999999916,
          "durationTicks": 96,
          "midi": 59,
          "name": "B3",
          "ticks": 39698,
          "time": 80.39425189583334,
          "velocity": 1
        },
        {
          "duration": 0.1949950000000058,
          "durationTicks": 96,
          "midi": 52,
          "name": "E3",
          "ticks": 39794,
          "time": 80.58924689583333,
          "velocity": 1
        },
        {
          "duration": 0.1949950000000058,
          "durationTicks": 96,
          "midi": 59,
          "name": "B3",
          "ticks": 39794,
          "time": 80.58924689583333,
          "velocity": 1
        },
        {
          "duration": 0.1949950000000058,
          "durationTicks": 96,
          "midi": 52,
          "name": "E3",
          "ticks": 39890,
          "time": 80.78424189583333,
          "velocity": 1
        },
        {
          "duration": 0.1949950000000058,
          "durationTicks": 96,
          "midi": 59,
          "name": "B3",
          "ticks": 39890,
          "time": 80.78424189583333,
          "velocity": 1
        },
        {
          "duration": 0.1949949999999916,
          "durationTicks": 96,
          "midi": 52,
          "name": "E3",
          "ticks": 39986,
          "time": 80.97923689583334,
          "velocity": 1
        },
        {
          "duration": 0.1949949999999916,
          "durationTicks": 96,
          "midi": 59,
          "name": "B3",
          "ticks": 39986,
          "time": 80.97923689583334,
          "velocity": 1
        },
        {
          "duration": 0.1949950000000058,
          "durationTicks": 96,
          "midi": 52,
          "name": "E3",
          "ticks": 40082,
          "time": 81.17423189583333,
          "velocity": 1
        },
        {
          "duration": 0.1949950000000058,
          "durationTicks": 96,
          "midi": 59,
          "name": "B3",
          "ticks": 40082,
          "time": 81.17423189583333,
          "velocity": 1
        },
        {
          "duration": 0.1949949999999916,
          "durationTicks": 96,
          "midi": 52,
          "name": "E3",
          "ticks": 40178,
          "time": 81.36922689583334,
          "velocity": 1
        },
        {
          "duration": 0.1949949999999916,
          "durationTicks": 96,
          "midi": 59,
          "name": "B3",
          "ticks": 40178,
          "time": 81.36922689583334,
          "velocity": 1
        },
        {
          "duration": 0.1949950000000058,
          "durationTicks": 96,
          "midi": 52,
          "name": "E3",
          "ticks": 40274,
          "time": 81.56422189583333,
          "velocity": 1
        },
        {
          "duration": 0.1949950000000058,
          "durationTicks": 96,
          "midi": 59,
          "name": "B3",
          "ticks": 40274,
          "time": 81.56422189583333,
          "velocity": 1
        },
        {
          "duration": 0.1949950000000058,
          "durationTicks": 96,
          "midi": 52,
          "name": "E3",
          "ticks": 40370,
          "time": 81.75921689583333,
          "velocity": 1
        },
        {
          "duration": 0.1949950000000058,
          "durationTicks": 96,
          "midi": 59,
          "name": "B3",
          "ticks": 40370,
          "time": 81.75921689583333,
          "velocity": 1
        },
        {
          "duration": 0.1949949999999916,
          "durationTicks": 96,
          "midi": 52,
          "name": "E3",
          "ticks": 40466,
          "time": 81.95421189583334,
          "velocity": 1
        },
        {
          "duration": 0.1949949999999916,
          "durationTicks": 96,
          "midi": 59,
          "name": "B3",
          "ticks": 40466,
          "time": 81.95421189583334,
          "velocity": 1
        },
        {
          "duration": 0.1949950000000058,
          "durationTicks": 96,
          "midi": 52,
          "name": "E3",
          "ticks": 40562,
          "time": 82.14920689583333,
          "velocity": 1
        },
        {
          "duration": 0.1949950000000058,
          "durationTicks": 96,
          "midi": 59,
          "name": "B3",
          "ticks": 40562,
          "time": 82.14920689583333,
          "velocity": 1
        },
        {
          "duration": 0.1949949999999916,
          "durationTicks": 96,
          "midi": 52,
          "name": "E3",
          "ticks": 40658,
          "time": 82.34420189583334,
          "velocity": 1
        },
        {
          "duration": 0.1949949999999916,
          "durationTicks": 96,
          "midi": 59,
          "name": "B3",
          "ticks": 40658,
          "time": 82.34420189583334,
          "velocity": 1
        },
        {
          "duration": 0.1949950000000058,
          "durationTicks": 96,
          "midi": 52,
          "name": "E3",
          "ticks": 40754,
          "time": 82.53919689583333,
          "velocity": 1
        },
        {
          "duration": 0.1949950000000058,
          "durationTicks": 96,
          "midi": 59,
          "name": "B3",
          "ticks": 40754,
          "time": 82.53919689583333,
          "velocity": 1
        },
        {
          "duration": 0.1949950000000058,
          "durationTicks": 96,
          "midi": 52,
          "name": "E3",
          "ticks": 40850,
          "time": 82.73419189583333,
          "velocity": 1
        },
        {
          "duration": 0.1949950000000058,
          "durationTicks": 96,
          "midi": 59,
          "name": "B3",
          "ticks": 40850,
          "time": 82.73419189583333,
          "velocity": 1
        },
        {
          "duration": 0.1949949999999916,
          "durationTicks": 96,
          "midi": 52,
          "name": "E3",
          "ticks": 40946,
          "time": 82.92918689583334,
          "velocity": 1
        },
        {
          "duration": 0.1949949999999916,
          "durationTicks": 96,
          "midi": 59,
          "name": "B3",
          "ticks": 40946,
          "time": 82.92918689583334,
          "velocity": 1
        },
        {
          "duration": 0.1949950000000058,
          "durationTicks": 96,
          "midi": 52,
          "name": "E3",
          "ticks": 41042,
          "time": 83.12418189583333,
          "velocity": 1
        },
        {
          "duration": 0.1949950000000058,
          "durationTicks": 96,
          "midi": 59,
          "name": "B3",
          "ticks": 41042,
          "time": 83.12418189583333,
          "velocity": 1
        },
        {
          "duration": 0.1949949999999916,
          "durationTicks": 96,
          "midi": 50,
          "name": "D3",
          "ticks": 41138,
          "time": 83.31917689583334,
          "velocity": 1
        },
        {
          "duration": 0.1949949999999916,
          "durationTicks": 96,
          "midi": 57,
          "name": "A3",
          "ticks": 41138,
          "time": 83.31917689583334,
          "velocity": 1
        },
        {
          "duration": 0.1949950000000058,
          "durationTicks": 96,
          "midi": 50,
          "name": "D3",
          "ticks": 41234,
          "time": 83.51417189583333,
          "velocity": 1
        },
        {
          "duration": 0.1949950000000058,
          "durationTicks": 96,
          "midi": 57,
          "name": "A3",
          "ticks": 41234,
          "time": 83.51417189583333,
          "velocity": 1
        },
        {
          "duration": 0.1949949999999916,
          "durationTicks": 96,
          "midi": 50,
          "name": "D3",
          "ticks": 41330,
          "time": 83.70916689583333,
          "velocity": 1
        },
        {
          "duration": 0.1949949999999916,
          "durationTicks": 96,
          "midi": 57,
          "name": "A3",
          "ticks": 41330,
          "time": 83.70916689583333,
          "velocity": 1
        },
        {
          "duration": 0.1949950000000058,
          "durationTicks": 96,
          "midi": 50,
          "name": "D3",
          "ticks": 41426,
          "time": 83.90416189583333,
          "velocity": 1
        },
        {
          "duration": 0.1949950000000058,
          "durationTicks": 96,
          "midi": 57,
          "name": "A3",
          "ticks": 41426,
          "time": 83.90416189583333,
          "velocity": 1
        },
        {
          "duration": 0.1949950000000058,
          "durationTicks": 96,
          "midi": 50,
          "name": "D3",
          "ticks": 41522,
          "time": 84.09915689583333,
          "velocity": 1
        },
        {
          "duration": 0.1949950000000058,
          "durationTicks": 96,
          "midi": 57,
          "name": "A3",
          "ticks": 41522,
          "time": 84.09915689583333,
          "velocity": 1
        },
        {
          "duration": 0.1949949999999916,
          "durationTicks": 96,
          "midi": 50,
          "name": "D3",
          "ticks": 41618,
          "time": 84.29415189583334,
          "velocity": 1
        },
        {
          "duration": 0.1949949999999916,
          "durationTicks": 96,
          "midi": 57,
          "name": "A3",
          "ticks": 41618,
          "time": 84.29415189583334,
          "velocity": 1
        },
        {
          "duration": 0.1949950000000058,
          "durationTicks": 96,
          "midi": 50,
          "name": "D3",
          "ticks": 41714,
          "time": 84.48914689583333,
          "velocity": 1
        },
        {
          "duration": 0.1949950000000058,
          "durationTicks": 96,
          "midi": 57,
          "name": "A3",
          "ticks": 41714,
          "time": 84.48914689583333,
          "velocity": 1
        },
        {
          "duration": 0.1949949999999916,
          "durationTicks": 96,
          "midi": 50,
          "name": "D3",
          "ticks": 41810,
          "time": 84.68414189583333,
          "velocity": 1
        },
        {
          "duration": 0.1949949999999916,
          "durationTicks": 96,
          "midi": 57,
          "name": "A3",
          "ticks": 41810,
          "time": 84.68414189583333,
          "velocity": 1
        },
        {
          "duration": 0.1949950000000058,
          "durationTicks": 96,
          "midi": 43,
          "name": "G2",
          "ticks": 41906,
          "time": 84.87913689583333,
          "velocity": 1
        },
        {
          "duration": 0.1949950000000058,
          "durationTicks": 96,
          "midi": 50,
          "name": "D3",
          "ticks": 41906,
          "time": 84.87913689583333,
          "velocity": 1
        },
        {
          "duration": 0.4874875000000003,
          "durationTicks": 240,
          "midi": 38,
          "name": "D2",
          "ticks": 42002,
          "time": 85.07413189583333,
          "velocity": 1
        },
        {
          "duration": 0.4874875000000003,
          "durationTicks": 240,
          "midi": 45,
          "name": "A2",
          "ticks": 42002,
          "time": 85.07413189583333,
          "velocity": 1
        },
        {
          "duration": 0.3899899999999974,
          "durationTicks": 192,
          "midi": 40,
          "name": "E2",
          "ticks": 42242,
          "time": 85.56161939583333,
          "velocity": 1
        },
        {
          "duration": 0.3899899999999974,
          "durationTicks": 192,
          "midi": 47,
          "name": "B2",
          "ticks": 42242,
          "time": 85.56161939583333,
          "velocity": 1
        },
        {
          "duration": 31.101702499999988,
          "durationTicks": 15312,
          "midi": 55,
          "name": "G3",
          "ticks": 42434,
          "time": 85.95160939583333,
          "velocity": 1
        },
        {
          "duration": 31.101702499999988,
          "durationTicks": 15312,
          "midi": 62,
          "name": "D4",
          "ticks": 42434,
          "time": 85.95160939583333,
          "velocity": 1
        },
        {
          "duration": 0.1949950000000058,
          "durationTicks": 96,
          "midi": 52,
          "name": "E3",
          "ticks": 57746,
          "time": 117.05331189583332,
          "velocity": 1
        },
        {
          "duration": 0.1949950000000058,
          "durationTicks": 96,
          "midi": 59,
          "name": "B3",
          "ticks": 57746,
          "time": 117.05331189583332,
          "velocity": 1
        },
        {
          "duration": 0.1949949999999916,
          "durationTicks": 96,
          "midi": 52,
          "name": "E3",
          "ticks": 57842,
          "time": 117.24830689583332,
          "velocity": 1
        },
        {
          "duration": 0.1949949999999916,
          "durationTicks": 96,
          "midi": 59,
          "name": "B3",
          "ticks": 57842,
          "time": 117.24830689583332,
          "velocity": 1
        },
        {
          "duration": 0.1949950000000058,
          "durationTicks": 96,
          "midi": 52,
          "name": "E3",
          "ticks": 57938,
          "time": 117.44330189583332,
          "velocity": 1
        },
        {
          "duration": 0.1949950000000058,
          "durationTicks": 96,
          "midi": 59,
          "name": "B3",
          "ticks": 57938,
          "time": 117.44330189583332,
          "velocity": 1
        },
        {
          "duration": 0.1949950000000058,
          "durationTicks": 96,
          "midi": 52,
          "name": "E3",
          "ticks": 58034,
          "time": 117.63829689583332,
          "velocity": 1
        },
        {
          "duration": 0.1949950000000058,
          "durationTicks": 96,
          "midi": 59,
          "name": "B3",
          "ticks": 58034,
          "time": 117.63829689583332,
          "velocity": 1
        },
        {
          "duration": 0.1949949999999916,
          "durationTicks": 96,
          "midi": 52,
          "name": "E3",
          "ticks": 58130,
          "time": 117.83329189583333,
          "velocity": 1
        },
        {
          "duration": 0.1949949999999916,
          "durationTicks": 96,
          "midi": 59,
          "name": "B3",
          "ticks": 58130,
          "time": 117.83329189583333,
          "velocity": 1
        },
        {
          "duration": 0.1949950000000058,
          "durationTicks": 96,
          "midi": 52,
          "name": "E3",
          "ticks": 58226,
          "time": 118.02828689583332,
          "velocity": 1
        },
        {
          "duration": 0.1949950000000058,
          "durationTicks": 96,
          "midi": 59,
          "name": "B3",
          "ticks": 58226,
          "time": 118.02828689583332,
          "velocity": 1
        },
        {
          "duration": 0.1949949999999916,
          "durationTicks": 96,
          "midi": 52,
          "name": "E3",
          "ticks": 58322,
          "time": 118.22328189583332,
          "velocity": 1
        },
        {
          "duration": 0.1949949999999916,
          "durationTicks": 96,
          "midi": 59,
          "name": "B3",
          "ticks": 58322,
          "time": 118.22328189583332,
          "velocity": 1
        },
        {
          "duration": 0.1949950000000058,
          "durationTicks": 96,
          "midi": 52,
          "name": "E3",
          "ticks": 58418,
          "time": 118.41827689583332,
          "velocity": 1
        },
        {
          "duration": 0.1949950000000058,
          "durationTicks": 96,
          "midi": 59,
          "name": "B3",
          "ticks": 58418,
          "time": 118.41827689583332,
          "velocity": 1
        },
        {
          "duration": 0.1949950000000058,
          "durationTicks": 96,
          "midi": 52,
          "name": "E3",
          "ticks": 58514,
          "time": 118.61327189583332,
          "velocity": 1
        },
        {
          "duration": 0.1949950000000058,
          "durationTicks": 96,
          "midi": 59,
          "name": "B3",
          "ticks": 58514,
          "time": 118.61327189583332,
          "velocity": 1
        },
        {
          "duration": 0.1949949999999916,
          "durationTicks": 96,
          "midi": 52,
          "name": "E3",
          "ticks": 58610,
          "time": 118.80826689583333,
          "velocity": 1
        },
        {
          "duration": 0.1949949999999916,
          "durationTicks": 96,
          "midi": 59,
          "name": "B3",
          "ticks": 58610,
          "time": 118.80826689583333,
          "velocity": 1
        },
        {
          "duration": 0.1949950000000058,
          "durationTicks": 96,
          "midi": 52,
          "name": "E3",
          "ticks": 58706,
          "time": 119.00326189583332,
          "velocity": 1
        },
        {
          "duration": 0.1949950000000058,
          "durationTicks": 96,
          "midi": 59,
          "name": "B3",
          "ticks": 58706,
          "time": 119.00326189583332,
          "velocity": 1
        },
        {
          "duration": 0.1949949999999916,
          "durationTicks": 96,
          "midi": 52,
          "name": "E3",
          "ticks": 58802,
          "time": 119.19825689583332,
          "velocity": 1
        },
        {
          "duration": 0.1949949999999916,
          "durationTicks": 96,
          "midi": 59,
          "name": "B3",
          "ticks": 58802,
          "time": 119.19825689583332,
          "velocity": 1
        },
        {
          "duration": 0.1949950000000058,
          "durationTicks": 96,
          "midi": 52,
          "name": "E3",
          "ticks": 58898,
          "time": 119.39325189583332,
          "velocity": 1
        },
        {
          "duration": 0.1949950000000058,
          "durationTicks": 96,
          "midi": 59,
          "name": "B3",
          "ticks": 58898,
          "time": 119.39325189583332,
          "velocity": 1
        },
        {
          "duration": 0.1949950000000058,
          "durationTicks": 96,
          "midi": 52,
          "name": "E3",
          "ticks": 58994,
          "time": 119.58824689583332,
          "velocity": 1
        },
        {
          "duration": 0.1949950000000058,
          "durationTicks": 96,
          "midi": 59,
          "name": "B3",
          "ticks": 58994,
          "time": 119.58824689583332,
          "velocity": 1
        },
        {
          "duration": 0.1949949999999916,
          "durationTicks": 96,
          "midi": 52,
          "name": "E3",
          "ticks": 59090,
          "time": 119.78324189583333,
          "velocity": 1
        },
        {
          "duration": 0.1949949999999916,
          "durationTicks": 96,
          "midi": 59,
          "name": "B3",
          "ticks": 59090,
          "time": 119.78324189583333,
          "velocity": 1
        },
        {
          "duration": 0.1949950000000058,
          "durationTicks": 96,
          "midi": 52,
          "name": "E3",
          "ticks": 59186,
          "time": 119.97823689583332,
          "velocity": 1
        },
        {
          "duration": 0.1949950000000058,
          "durationTicks": 96,
          "midi": 59,
          "name": "B3",
          "ticks": 59186,
          "time": 119.97823689583332,
          "velocity": 1
        },
        {
          "duration": 0.1949949999999916,
          "durationTicks": 96,
          "midi": 50,
          "name": "D3",
          "ticks": 59282,
          "time": 120.17323189583333,
          "velocity": 1
        },
        {
          "duration": 0.1949949999999916,
          "durationTicks": 96,
          "midi": 57,
          "name": "A3",
          "ticks": 59282,
          "time": 120.17323189583333,
          "velocity": 1
        },
        {
          "duration": 0.1949950000000058,
          "durationTicks": 96,
          "midi": 50,
          "name": "D3",
          "ticks": 59378,
          "time": 120.36822689583332,
          "velocity": 1
        },
        {
          "duration": 0.1949950000000058,
          "durationTicks": 96,
          "midi": 57,
          "name": "A3",
          "ticks": 59378,
          "time": 120.36822689583332,
          "velocity": 1
        },
        {
          "duration": 0.1949949999999916,
          "durationTicks": 96,
          "midi": 50,
          "name": "D3",
          "ticks": 59474,
          "time": 120.56322189583332,
          "velocity": 1
        },
        {
          "duration": 0.1949949999999916,
          "durationTicks": 96,
          "midi": 57,
          "name": "A3",
          "ticks": 59474,
          "time": 120.56322189583332,
          "velocity": 1
        },
        {
          "duration": 0.1949950000000058,
          "durationTicks": 96,
          "midi": 50,
          "name": "D3",
          "ticks": 59570,
          "time": 120.75821689583331,
          "velocity": 1
        },
        {
          "duration": 0.1949950000000058,
          "durationTicks": 96,
          "midi": 57,
          "name": "A3",
          "ticks": 59570,
          "time": 120.75821689583331,
          "velocity": 1
        },
        {
          "duration": 0.1949950000000058,
          "durationTicks": 96,
          "midi": 50,
          "name": "D3",
          "ticks": 59666,
          "time": 120.95321189583332,
          "velocity": 1
        },
        {
          "duration": 0.1949950000000058,
          "durationTicks": 96,
          "midi": 57,
          "name": "A3",
          "ticks": 59666,
          "time": 120.95321189583332,
          "velocity": 1
        },
        {
          "duration": 0.1949949999999916,
          "durationTicks": 96,
          "midi": 50,
          "name": "D3",
          "ticks": 59762,
          "time": 121.14820689583333,
          "velocity": 1
        },
        {
          "duration": 0.1949949999999916,
          "durationTicks": 96,
          "midi": 57,
          "name": "A3",
          "ticks": 59762,
          "time": 121.14820689583333,
          "velocity": 1
        },
        {
          "duration": 0.1949950000000058,
          "durationTicks": 96,
          "midi": 50,
          "name": "D3",
          "ticks": 59858,
          "time": 121.34320189583332,
          "velocity": 1
        },
        {
          "duration": 0.1949950000000058,
          "durationTicks": 96,
          "midi": 57,
          "name": "A3",
          "ticks": 59858,
          "time": 121.34320189583332,
          "velocity": 1
        },
        {
          "duration": 0.1949949999999916,
          "durationTicks": 96,
          "midi": 50,
          "name": "D3",
          "ticks": 59954,
          "time": 121.53819689583332,
          "velocity": 1
        },
        {
          "duration": 0.1949949999999916,
          "durationTicks": 96,
          "midi": 57,
          "name": "A3",
          "ticks": 59954,
          "time": 121.53819689583332,
          "velocity": 1
        },
        {
          "duration": 0.1949950000000058,
          "durationTicks": 96,
          "midi": 43,
          "name": "G2",
          "ticks": 60050,
          "time": 121.73319189583331,
          "velocity": 1
        },
        {
          "duration": 0.1949950000000058,
          "durationTicks": 96,
          "midi": 50,
          "name": "D3",
          "ticks": 60050,
          "time": 121.73319189583331,
          "velocity": 1
        },
        {
          "duration": 0.4874875000000003,
          "durationTicks": 240,
          "midi": 38,
          "name": "D2",
          "ticks": 60146,
          "time": 121.92818689583332,
          "velocity": 1
        },
        {
          "duration": 0.4874875000000003,
          "durationTicks": 240,
          "midi": 45,
          "name": "A2",
          "ticks": 60146,
          "time": 121.92818689583332,
          "velocity": 1
        },
        {
          "duration": 0.3899899999999974,
          "durationTicks": 192,
          "midi": 40,
          "name": "E2",
          "ticks": 60386,
          "time": 122.41567439583332,
          "velocity": 1
        },
        {
          "duration": 0.3899899999999974,
          "durationTicks": 192,
          "midi": 47,
          "name": "B2",
          "ticks": 60386,
          "time": 122.41567439583332,
          "velocity": 1
        },
        {
          "duration": 0.3899899999999974,
          "durationTicks": 192,
          "midi": 55,
          "name": "G3",
          "ticks": 60578,
          "time": 122.80566439583332,
          "velocity": 1
        },
        {
          "duration": 0.3899899999999974,
          "durationTicks": 192,
          "midi": 62,
          "name": "D4",
          "ticks": 60578,
          "time": 122.80566439583332,
          "velocity": 1
        },
        {
          "duration": 0.1949950000000058,
          "durationTicks": 96,
          "midi": 52,
          "name": "E3",
          "ticks": 60770,
          "time": 123.19565439583332,
          "velocity": 1
        },
        {
          "duration": 0.1949950000000058,
          "durationTicks": 96,
          "midi": 59,
          "name": "B3",
          "ticks": 60770,
          "time": 123.19565439583332,
          "velocity": 1
        },
        {
          "duration": 0.1949949999999916,
          "durationTicks": 96,
          "midi": 52,
          "name": "E3",
          "ticks": 60866,
          "time": 123.39064939583332,
          "velocity": 1
        },
        {
          "duration": 0.1949949999999916,
          "durationTicks": 96,
          "midi": 59,
          "name": "B3",
          "ticks": 60866,
          "time": 123.39064939583332,
          "velocity": 1
        },
        {
          "duration": 0.1949950000000058,
          "durationTicks": 96,
          "midi": 52,
          "name": "E3",
          "ticks": 60962,
          "time": 123.58564439583331,
          "velocity": 1
        },
        {
          "duration": 0.1949950000000058,
          "durationTicks": 96,
          "midi": 59,
          "name": "B3",
          "ticks": 60962,
          "time": 123.58564439583331,
          "velocity": 1
        },
        {
          "duration": 0.1949950000000058,
          "durationTicks": 96,
          "midi": 52,
          "name": "E3",
          "ticks": 61058,
          "time": 123.78063939583332,
          "velocity": 1
        },
        {
          "duration": 0.1949950000000058,
          "durationTicks": 96,
          "midi": 59,
          "name": "B3",
          "ticks": 61058,
          "time": 123.78063939583332,
          "velocity": 1
        },
        {
          "duration": 0.1949949999999916,
          "durationTicks": 96,
          "midi": 52,
          "name": "E3",
          "ticks": 61154,
          "time": 123.97563439583332,
          "velocity": 1
        },
        {
          "duration": 0.1949949999999916,
          "durationTicks": 96,
          "midi": 59,
          "name": "B3",
          "ticks": 61154,
          "time": 123.97563439583332,
          "velocity": 1
        },
        {
          "duration": 0.1949950000000058,
          "durationTicks": 96,
          "midi": 52,
          "name": "E3",
          "ticks": 61250,
          "time": 124.17062939583332,
          "velocity": 1
        },
        {
          "duration": 0.1949950000000058,
          "durationTicks": 96,
          "midi": 59,
          "name": "B3",
          "ticks": 61250,
          "time": 124.17062939583332,
          "velocity": 1
        },
        {
          "duration": 0.1949949999999916,
          "durationTicks": 96,
          "midi": 52,
          "name": "E3",
          "ticks": 61346,
          "time": 124.36562439583332,
          "velocity": 1
        },
        {
          "duration": 0.1949949999999916,
          "durationTicks": 96,
          "midi": 59,
          "name": "B3",
          "ticks": 61346,
          "time": 124.36562439583332,
          "velocity": 1
        },
        {
          "duration": 0.1949950000000058,
          "durationTicks": 96,
          "midi": 52,
          "name": "E3",
          "ticks": 61442,
          "time": 124.56061939583331,
          "velocity": 1
        },
        {
          "duration": 0.1949950000000058,
          "durationTicks": 96,
          "midi": 59,
          "name": "B3",
          "ticks": 61442,
          "time": 124.56061939583331,
          "velocity": 1
        },
        {
          "duration": 0.1949950000000058,
          "durationTicks": 96,
          "midi": 52,
          "name": "E3",
          "ticks": 61538,
          "time": 124.75561439583332,
          "velocity": 1
        },
        {
          "duration": 0.1949950000000058,
          "durationTicks": 96,
          "midi": 59,
          "name": "B3",
          "ticks": 61538,
          "time": 124.75561439583332,
          "velocity": 1
        },
        {
          "duration": 0.1949949999999916,
          "durationTicks": 96,
          "midi": 52,
          "name": "E3",
          "ticks": 61634,
          "time": 124.95060939583333,
          "velocity": 1
        },
        {
          "duration": 0.1949949999999916,
          "durationTicks": 96,
          "midi": 59,
          "name": "B3",
          "ticks": 61634,
          "time": 124.95060939583333,
          "velocity": 1
        },
        {
          "duration": 0.1949950000000058,
          "durationTicks": 96,
          "midi": 52,
          "name": "E3",
          "ticks": 61730,
          "time": 125.14560439583332,
          "velocity": 1
        },
        {
          "duration": 0.1949950000000058,
          "durationTicks": 96,
          "midi": 59,
          "name": "B3",
          "ticks": 61730,
          "time": 125.14560439583332,
          "velocity": 1
        },
        {
          "duration": 0.1949949999999916,
          "durationTicks": 96,
          "midi": 52,
          "name": "E3",
          "ticks": 61826,
          "time": 125.34059939583332,
          "velocity": 1
        },
        {
          "duration": 0.1949949999999916,
          "durationTicks": 96,
          "midi": 59,
          "name": "B3",
          "ticks": 61826,
          "time": 125.34059939583332,
          "velocity": 1
        },
        {
          "duration": 0.1949950000000058,
          "durationTicks": 96,
          "midi": 52,
          "name": "E3",
          "ticks": 61922,
          "time": 125.53559439583331,
          "velocity": 1
        },
        {
          "duration": 0.1949950000000058,
          "durationTicks": 96,
          "midi": 59,
          "name": "B3",
          "ticks": 61922,
          "time": 125.53559439583331,
          "velocity": 1
        },
        {
          "duration": 0.1949950000000058,
          "durationTicks": 96,
          "midi": 52,
          "name": "E3",
          "ticks": 62018,
          "time": 125.73058939583332,
          "velocity": 1
        },
        {
          "duration": 0.1949950000000058,
          "durationTicks": 96,
          "midi": 59,
          "name": "B3",
          "ticks": 62018,
          "time": 125.73058939583332,
          "velocity": 1
        },
        {
          "duration": 0.1949949999999916,
          "durationTicks": 96,
          "midi": 52,
          "name": "E3",
          "ticks": 62114,
          "time": 125.92558439583333,
          "velocity": 1
        },
        {
          "duration": 0.1949949999999916,
          "durationTicks": 96,
          "midi": 59,
          "name": "B3",
          "ticks": 62114,
          "time": 125.92558439583333,
          "velocity": 1
        },
        {
          "duration": 0.1949950000000058,
          "durationTicks": 96,
          "midi": 52,
          "name": "E3",
          "ticks": 62210,
          "time": 126.12057939583332,
          "velocity": 1
        },
        {
          "duration": 0.1949950000000058,
          "durationTicks": 96,
          "midi": 59,
          "name": "B3",
          "ticks": 62210,
          "time": 126.12057939583332,
          "velocity": 1
        },
        {
          "duration": 0.1949949999999916,
          "durationTicks": 96,
          "midi": 50,
          "name": "D3",
          "ticks": 62306,
          "time": 126.31557439583332,
          "velocity": 1
        },
        {
          "duration": 0.1949949999999916,
          "durationTicks": 96,
          "midi": 57,
          "name": "A3",
          "ticks": 62306,
          "time": 126.31557439583332,
          "velocity": 1
        },
        {
          "duration": 0.1949950000000058,
          "durationTicks": 96,
          "midi": 50,
          "name": "D3",
          "ticks": 62402,
          "time": 126.51056939583331,
          "velocity": 1
        },
        {
          "duration": 0.1949950000000058,
          "durationTicks": 96,
          "midi": 57,
          "name": "A3",
          "ticks": 62402,
          "time": 126.51056939583331,
          "velocity": 1
        },
        {
          "duration": 0.1949949999999916,
          "durationTicks": 96,
          "midi": 50,
          "name": "D3",
          "ticks": 62498,
          "time": 126.70556439583332,
          "velocity": 1
        },
        {
          "duration": 0.1949949999999916,
          "durationTicks": 96,
          "midi": 57,
          "name": "A3",
          "ticks": 62498,
          "time": 126.70556439583332,
          "velocity": 1
        },
        {
          "duration": 0.1949950000000058,
          "durationTicks": 96,
          "midi": 50,
          "name": "D3",
          "ticks": 62594,
          "time": 126.90055939583331,
          "velocity": 1
        },
        {
          "duration": 0.1949950000000058,
          "durationTicks": 96,
          "midi": 57,
          "name": "A3",
          "ticks": 62594,
          "time": 126.90055939583331,
          "velocity": 1
        },
        {
          "duration": 0.1949950000000058,
          "durationTicks": 96,
          "midi": 50,
          "name": "D3",
          "ticks": 62690,
          "time": 127.09555439583332,
          "velocity": 1
        },
        {
          "duration": 0.1949950000000058,
          "durationTicks": 96,
          "midi": 57,
          "name": "A3",
          "ticks": 62690,
          "time": 127.09555439583332,
          "velocity": 1
        },
        {
          "duration": 0.1949949999999916,
          "durationTicks": 96,
          "midi": 50,
          "name": "D3",
          "ticks": 62786,
          "time": 127.29054939583332,
          "velocity": 1
        },
        {
          "duration": 0.1949949999999916,
          "durationTicks": 96,
          "midi": 57,
          "name": "A3",
          "ticks": 62786,
          "time": 127.29054939583332,
          "velocity": 1
        },
        {
          "duration": 0.1949950000000058,
          "durationTicks": 96,
          "midi": 50,
          "name": "D3",
          "ticks": 62882,
          "time": 127.48554439583332,
          "velocity": 1
        },
        {
          "duration": 0.1949950000000058,
          "durationTicks": 96,
          "midi": 57,
          "name": "A3",
          "ticks": 62882,
          "time": 127.48554439583332,
          "velocity": 1
        },
        {
          "duration": 0.1949949999999916,
          "durationTicks": 96,
          "midi": 50,
          "name": "D3",
          "ticks": 62978,
          "time": 127.68053939583332,
          "velocity": 1
        },
        {
          "duration": 0.1949949999999916,
          "durationTicks": 96,
          "midi": 57,
          "name": "A3",
          "ticks": 62978,
          "time": 127.68053939583332,
          "velocity": 1
        },
        {
          "duration": 0.1949950000000058,
          "durationTicks": 96,
          "midi": 43,
          "name": "G2",
          "ticks": 63074,
          "time": 127.87553439583331,
          "velocity": 1
        },
        {
          "duration": 0.1949950000000058,
          "durationTicks": 96,
          "midi": 50,
          "name": "D3",
          "ticks": 63074,
          "time": 127.87553439583331,
          "velocity": 1
        },
        {
          "duration": 0.4874874999999861,
          "durationTicks": 240,
          "midi": 38,
          "name": "D2",
          "ticks": 63170,
          "time": 128.07052939583332,
          "velocity": 1
        },
        {
          "duration": 0.4874874999999861,
          "durationTicks": 240,
          "midi": 45,
          "name": "A2",
          "ticks": 63170,
          "time": 128.07052939583332,
          "velocity": 1
        },
        {
          "duration": 0.3899900000000116,
          "durationTicks": 192,
          "midi": 40,
          "name": "E2",
          "ticks": 63410,
          "time": 128.5580168958333,
          "velocity": 1
        },
        {
          "duration": 0.3899900000000116,
          "durationTicks": 192,
          "midi": 47,
          "name": "B2",
          "ticks": 63410,
          "time": 128.5580168958333,
          "velocity": 1
        },
        {
          "duration": 0.3899900000000116,
          "durationTicks": 192,
          "midi": 55,
          "name": "G3",
          "ticks": 63602,
          "time": 128.94800689583332,
          "velocity": 1
        },
        {
          "duration": 0.3899900000000116,
          "durationTicks": 192,
          "midi": 62,
          "name": "D4",
          "ticks": 63602,
          "time": 128.94800689583332,
          "velocity": 1
        },
        {
          "duration": 0.1949950000000058,
          "durationTicks": 96,
          "midi": 52,
          "name": "E3",
          "ticks": 63794,
          "time": 129.33799689583333,
          "velocity": 1
        },
        {
          "duration": 0.1949950000000058,
          "durationTicks": 96,
          "midi": 59,
          "name": "B3",
          "ticks": 63794,
          "time": 129.33799689583333,
          "velocity": 1
        },
        {
          "duration": 0.1949950000000058,
          "durationTicks": 96,
          "midi": 52,
          "name": "E3",
          "ticks": 63890,
          "time": 129.53299189583333,
          "velocity": 1
        },
        {
          "duration": 0.1949950000000058,
          "durationTicks": 96,
          "midi": 59,
          "name": "B3",
          "ticks": 63890,
          "time": 129.53299189583333,
          "velocity": 1
        },
        {
          "duration": 0.1949950000000058,
          "durationTicks": 96,
          "midi": 52,
          "name": "E3",
          "ticks": 63986,
          "time": 129.72798689583334,
          "velocity": 1
        },
        {
          "duration": 0.1949950000000058,
          "durationTicks": 96,
          "midi": 59,
          "name": "B3",
          "ticks": 63986,
          "time": 129.72798689583334,
          "velocity": 1
        },
        {
          "duration": 0.19499499999997738,
          "durationTicks": 96,
          "midi": 52,
          "name": "E3",
          "ticks": 64082,
          "time": 129.92298189583335,
          "velocity": 1
        },
        {
          "duration": 0.19499499999997738,
          "durationTicks": 96,
          "midi": 59,
          "name": "B3",
          "ticks": 64082,
          "time": 129.92298189583335,
          "velocity": 1
        },
        {
          "duration": 0.1949950000000058,
          "durationTicks": 96,
          "midi": 52,
          "name": "E3",
          "ticks": 64178,
          "time": 130.11797689583332,
          "velocity": 1
        },
        {
          "duration": 0.1949950000000058,
          "durationTicks": 96,
          "midi": 59,
          "name": "B3",
          "ticks": 64178,
          "time": 130.11797689583332,
          "velocity": 1
        },
        {
          "duration": 0.1949950000000058,
          "durationTicks": 96,
          "midi": 52,
          "name": "E3",
          "ticks": 64274,
          "time": 130.31297189583333,
          "velocity": 1
        },
        {
          "duration": 0.1949950000000058,
          "durationTicks": 96,
          "midi": 59,
          "name": "B3",
          "ticks": 64274,
          "time": 130.31297189583333,
          "velocity": 1
        },
        {
          "duration": 0.1949950000000058,
          "durationTicks": 96,
          "midi": 52,
          "name": "E3",
          "ticks": 64370,
          "time": 130.50796689583333,
          "velocity": 1
        },
        {
          "duration": 0.1949950000000058,
          "durationTicks": 96,
          "midi": 59,
          "name": "B3",
          "ticks": 64370,
          "time": 130.50796689583333,
          "velocity": 1
        },
        {
          "duration": 0.19499499999997738,
          "durationTicks": 96,
          "midi": 52,
          "name": "E3",
          "ticks": 64466,
          "time": 130.70296189583334,
          "velocity": 1
        },
        {
          "duration": 0.19499499999997738,
          "durationTicks": 96,
          "midi": 59,
          "name": "B3",
          "ticks": 64466,
          "time": 130.70296189583334,
          "velocity": 1
        },
        {
          "duration": 0.1949950000000058,
          "durationTicks": 96,
          "midi": 52,
          "name": "E3",
          "ticks": 64562,
          "time": 130.89795689583332,
          "velocity": 1
        },
        {
          "duration": 0.1949950000000058,
          "durationTicks": 96,
          "midi": 59,
          "name": "B3",
          "ticks": 64562,
          "time": 130.89795689583332,
          "velocity": 1
        },
        {
          "duration": 0.1949950000000058,
          "durationTicks": 96,
          "midi": 52,
          "name": "E3",
          "ticks": 64658,
          "time": 131.09295189583332,
          "velocity": 1
        },
        {
          "duration": 0.1949950000000058,
          "durationTicks": 96,
          "midi": 59,
          "name": "B3",
          "ticks": 64658,
          "time": 131.09295189583332,
          "velocity": 1
        },
        {
          "duration": 0.1949950000000058,
          "durationTicks": 96,
          "midi": 52,
          "name": "E3",
          "ticks": 64754,
          "time": 131.28794689583333,
          "velocity": 1
        },
        {
          "duration": 0.1949950000000058,
          "durationTicks": 96,
          "midi": 59,
          "name": "B3",
          "ticks": 64754,
          "time": 131.28794689583333,
          "velocity": 1
        },
        {
          "duration": 0.1949950000000058,
          "durationTicks": 96,
          "midi": 52,
          "name": "E3",
          "ticks": 64850,
          "time": 131.48294189583333,
          "velocity": 1
        },
        {
          "duration": 0.1949950000000058,
          "durationTicks": 96,
          "midi": 59,
          "name": "B3",
          "ticks": 64850,
          "time": 131.48294189583333,
          "velocity": 1
        },
        {
          "duration": 0.19499499999997738,
          "durationTicks": 96,
          "midi": 52,
          "name": "E3",
          "ticks": 64946,
          "time": 131.67793689583334,
          "velocity": 1
        },
        {
          "duration": 0.19499499999997738,
          "durationTicks": 96,
          "midi": 59,
          "name": "B3",
          "ticks": 64946,
          "time": 131.67793689583334,
          "velocity": 1
        },
        {
          "duration": 0.1949950000000058,
          "durationTicks": 96,
          "midi": 52,
          "name": "E3",
          "ticks": 65042,
          "time": 131.87293189583332,
          "velocity": 1
        },
        {
          "duration": 0.1949950000000058,
          "durationTicks": 96,
          "midi": 59,
          "name": "B3",
          "ticks": 65042,
          "time": 131.87293189583332,
          "velocity": 1
        },
        {
          "duration": 0.1949950000000058,
          "durationTicks": 96,
          "midi": 52,
          "name": "E3",
          "ticks": 65138,
          "time": 132.06792689583332,
          "velocity": 1
        },
        {
          "duration": 0.1949950000000058,
          "durationTicks": 96,
          "midi": 59,
          "name": "B3",
          "ticks": 65138,
          "time": 132.06792689583332,
          "velocity": 1
        },
        {
          "duration": 0.1949950000000058,
          "durationTicks": 96,
          "midi": 52,
          "name": "E3",
          "ticks": 65234,
          "time": 132.26292189583333,
          "velocity": 1
        },
        {
          "duration": 0.1949950000000058,
          "durationTicks": 96,
          "midi": 59,
          "name": "B3",
          "ticks": 65234,
          "time": 132.26292189583333,
          "velocity": 1
        },
        {
          "duration": 0.1949950000000058,
          "durationTicks": 96,
          "midi": 50,
          "name": "D3",
          "ticks": 65330,
          "time": 132.45791689583334,
          "velocity": 1
        },
        {
          "duration": 0.1949950000000058,
          "durationTicks": 96,
          "midi": 57,
          "name": "A3",
          "ticks": 65330,
          "time": 132.45791689583334,
          "velocity": 1
        },
        {
          "duration": 0.19499499999997738,
          "durationTicks": 96,
          "midi": 50,
          "name": "D3",
          "ticks": 65426,
          "time": 132.65291189583334,
          "velocity": 1
        },
        {
          "duration": 0.19499499999997738,
          "durationTicks": 96,
          "midi": 57,
          "name": "A3",
          "ticks": 65426,
          "time": 132.65291189583334,
          "velocity": 1
        },
        {
          "duration": 0.1949950000000058,
          "durationTicks": 96,
          "midi": 50,
          "name": "D3",
          "ticks": 65522,
          "time": 132.84790689583332,
          "velocity": 1
        },
        {
          "duration": 0.1949950000000058,
          "durationTicks": 96,
          "midi": 57,
          "name": "A3",
          "ticks": 65522,
          "time": 132.84790689583332,
          "velocity": 1
        },
        {
          "duration": 0.1949950000000058,
          "durationTicks": 96,
          "midi": 50,
          "name": "D3",
          "ticks": 65618,
          "time": 133.04290189583332,
          "velocity": 1
        },
        {
          "duration": 0.1949950000000058,
          "durationTicks": 96,
          "midi": 57,
          "name": "A3",
          "ticks": 65618,
          "time": 133.04290189583332,
          "velocity": 1
        },
        {
          "duration": 0.1949950000000058,
          "durationTicks": 96,
          "midi": 50,
          "name": "D3",
          "ticks": 65714,
          "time": 133.23789689583333,
          "velocity": 1
        },
        {
          "duration": 0.1949950000000058,
          "durationTicks": 96,
          "midi": 57,
          "name": "A3",
          "ticks": 65714,
          "time": 133.23789689583333,
          "velocity": 1
        },
        {
          "duration": 0.1949950000000058,
          "durationTicks": 96,
          "midi": 50,
          "name": "D3",
          "ticks": 65810,
          "time": 133.43289189583334,
          "velocity": 1
        },
        {
          "duration": 0.1949950000000058,
          "durationTicks": 96,
          "midi": 57,
          "name": "A3",
          "ticks": 65810,
          "time": 133.43289189583334,
          "velocity": 1
        },
        {
          "duration": 0.19499499999997738,
          "durationTicks": 96,
          "midi": 50,
          "name": "D3",
          "ticks": 65906,
          "time": 133.62788689583334,
          "velocity": 1
        },
        {
          "duration": 0.19499499999997738,
          "durationTicks": 96,
          "midi": 57,
          "name": "A3",
          "ticks": 65906,
          "time": 133.62788689583334,
          "velocity": 1
        },
        {
          "duration": 0.1949950000000058,
          "durationTicks": 96,
          "midi": 50,
          "name": "D3",
          "ticks": 66002,
          "time": 133.82288189583332,
          "velocity": 1
        },
        {
          "duration": 0.1949950000000058,
          "durationTicks": 96,
          "midi": 57,
          "name": "A3",
          "ticks": 66002,
          "time": 133.82288189583332,
          "velocity": 1
        },
        {
          "duration": 0.1949950000000058,
          "durationTicks": 96,
          "midi": 43,
          "name": "G2",
          "ticks": 66098,
          "time": 134.01787689583333,
          "velocity": 1
        },
        {
          "duration": 0.1949950000000058,
          "durationTicks": 96,
          "midi": 50,
          "name": "D3",
          "ticks": 66098,
          "time": 134.01787689583333,
          "velocity": 1
        },
        {
          "duration": 0.4874875000000145,
          "durationTicks": 240,
          "midi": 38,
          "name": "D2",
          "ticks": 66194,
          "time": 134.21287189583333,
          "velocity": 1
        },
        {
          "duration": 0.4874875000000145,
          "durationTicks": 240,
          "midi": 45,
          "name": "A2",
          "ticks": 66194,
          "time": 134.21287189583333,
          "velocity": 1
        },
        {
          "duration": 0.3899899999999832,
          "durationTicks": 192,
          "midi": 40,
          "name": "E2",
          "ticks": 66434,
          "time": 134.70035939583335,
          "velocity": 1
        },
        {
          "duration": 0.3899899999999832,
          "durationTicks": 192,
          "midi": 47,
          "name": "B2",
          "ticks": 66434,
          "time": 134.70035939583335,
          "velocity": 1
        },
        {
          "duration": 0.3899900000000116,
          "durationTicks": 192,
          "midi": 55,
          "name": "G3",
          "ticks": 66626,
          "time": 135.09034939583333,
          "velocity": 1
        },
        {
          "duration": 0.3899900000000116,
          "durationTicks": 192,
          "midi": 62,
          "name": "D4",
          "ticks": 66626,
          "time": 135.09034939583333,
          "velocity": 1
        },
        {
          "duration": 0.1949950000000058,
          "durationTicks": 96,
          "midi": 52,
          "name": "E3",
          "ticks": 66818,
          "time": 135.48033939583334,
          "velocity": 1
        },
        {
          "duration": 0.1949950000000058,
          "durationTicks": 96,
          "midi": 59,
          "name": "B3",
          "ticks": 66818,
          "time": 135.48033939583334,
          "velocity": 1
        },
        {
          "duration": 0.1949950000000058,
          "durationTicks": 96,
          "midi": 52,
          "name": "E3",
          "ticks": 66914,
          "time": 135.67533439583335,
          "velocity": 1
        },
        {
          "duration": 0.1949950000000058,
          "durationTicks": 96,
          "midi": 59,
          "name": "B3",
          "ticks": 66914,
          "time": 135.67533439583335,
          "velocity": 1
        },
        {
          "duration": 0.1949950000000058,
          "durationTicks": 96,
          "midi": 52,
          "name": "E3",
          "ticks": 67010,
          "time": 135.87032939583335,
          "velocity": 1
        },
        {
          "duration": 0.1949950000000058,
          "durationTicks": 96,
          "midi": 59,
          "name": "B3",
          "ticks": 67010,
          "time": 135.87032939583335,
          "velocity": 1
        },
        {
          "duration": 0.19499499999997738,
          "durationTicks": 96,
          "midi": 52,
          "name": "E3",
          "ticks": 67106,
          "time": 136.06532439583336,
          "velocity": 1
        },
        {
          "duration": 0.19499499999997738,
          "durationTicks": 96,
          "midi": 59,
          "name": "B3",
          "ticks": 67106,
          "time": 136.06532439583336,
          "velocity": 1
        },
        {
          "duration": 0.1949950000000058,
          "durationTicks": 96,
          "midi": 52,
          "name": "E3",
          "ticks": 67202,
          "time": 136.26031939583333,
          "velocity": 1
        },
        {
          "duration": 0.1949950000000058,
          "durationTicks": 96,
          "midi": 59,
          "name": "B3",
          "ticks": 67202,
          "time": 136.26031939583333,
          "velocity": 1
        },
        {
          "duration": 0.1949950000000058,
          "durationTicks": 96,
          "midi": 52,
          "name": "E3",
          "ticks": 67298,
          "time": 136.45531439583334,
          "velocity": 1
        },
        {
          "duration": 0.1949950000000058,
          "durationTicks": 96,
          "midi": 59,
          "name": "B3",
          "ticks": 67298,
          "time": 136.45531439583334,
          "velocity": 1
        },
        {
          "duration": 0.1949950000000058,
          "durationTicks": 96,
          "midi": 52,
          "name": "E3",
          "ticks": 67394,
          "time": 136.65030939583335,
          "velocity": 1
        },
        {
          "duration": 0.1949950000000058,
          "durationTicks": 96,
          "midi": 59,
          "name": "B3",
          "ticks": 67394,
          "time": 136.65030939583335,
          "velocity": 1
        },
        {
          "duration": 0.19499499999997738,
          "durationTicks": 96,
          "midi": 52,
          "name": "E3",
          "ticks": 67490,
          "time": 136.84530439583335,
          "velocity": 1
        },
        {
          "duration": 0.19499499999997738,
          "durationTicks": 96,
          "midi": 59,
          "name": "B3",
          "ticks": 67490,
          "time": 136.84530439583335,
          "velocity": 1
        },
        {
          "duration": 0.1949950000000058,
          "durationTicks": 96,
          "midi": 52,
          "name": "E3",
          "ticks": 67586,
          "time": 137.04029939583333,
          "velocity": 1
        },
        {
          "duration": 0.1949950000000058,
          "durationTicks": 96,
          "midi": 59,
          "name": "B3",
          "ticks": 67586,
          "time": 137.04029939583333,
          "velocity": 1
        },
        {
          "duration": 0.1949950000000058,
          "durationTicks": 96,
          "midi": 52,
          "name": "E3",
          "ticks": 67682,
          "time": 137.23529439583334,
          "velocity": 1
        },
        {
          "duration": 0.1949950000000058,
          "durationTicks": 96,
          "midi": 59,
          "name": "B3",
          "ticks": 67682,
          "time": 137.23529439583334,
          "velocity": 1
        },
        {
          "duration": 0.1949950000000058,
          "durationTicks": 96,
          "midi": 52,
          "name": "E3",
          "ticks": 67778,
          "time": 137.43028939583334,
          "velocity": 1
        },
        {
          "duration": 0.1949950000000058,
          "durationTicks": 96,
          "midi": 59,
          "name": "B3",
          "ticks": 67778,
          "time": 137.43028939583334,
          "velocity": 1
        },
        {
          "duration": 0.1949950000000058,
          "durationTicks": 96,
          "midi": 52,
          "name": "E3",
          "ticks": 67874,
          "time": 137.62528439583335,
          "velocity": 1
        },
        {
          "duration": 0.1949950000000058,
          "durationTicks": 96,
          "midi": 59,
          "name": "B3",
          "ticks": 67874,
          "time": 137.62528439583335,
          "velocity": 1
        },
        {
          "duration": 0.19499499999997738,
          "durationTicks": 96,
          "midi": 52,
          "name": "E3",
          "ticks": 67970,
          "time": 137.82027939583335,
          "velocity": 1
        },
        {
          "duration": 0.19499499999997738,
          "durationTicks": 96,
          "midi": 59,
          "name": "B3",
          "ticks": 67970,
          "time": 137.82027939583335,
          "velocity": 1
        },
        {
          "duration": 0.1949950000000058,
          "durationTicks": 96,
          "midi": 52,
          "name": "E3",
          "ticks": 68066,
          "time": 138.01527439583333,
          "velocity": 1
        },
        {
          "duration": 0.1949950000000058,
          "durationTicks": 96,
          "midi": 59,
          "name": "B3",
          "ticks": 68066,
          "time": 138.01527439583333,
          "velocity": 1
        },
        {
          "duration": 0.1949950000000058,
          "durationTicks": 96,
          "midi": 52,
          "name": "E3",
          "ticks": 68162,
          "time": 138.21026939583334,
          "velocity": 1
        },
        {
          "duration": 0.1949950000000058,
          "durationTicks": 96,
          "midi": 59,
          "name": "B3",
          "ticks": 68162,
          "time": 138.21026939583334,
          "velocity": 1
        },
        {
          "duration": 0.1949950000000058,
          "durationTicks": 96,
          "midi": 52,
          "name": "E3",
          "ticks": 68258,
          "time": 138.40526439583334,
          "velocity": 1
        },
        {
          "duration": 0.1949950000000058,
          "durationTicks": 96,
          "midi": 59,
          "name": "B3",
          "ticks": 68258,
          "time": 138.40526439583334,
          "velocity": 1
        },
        {
          "duration": 0.1949950000000058,
          "durationTicks": 96,
          "midi": 50,
          "name": "D3",
          "ticks": 68354,
          "time": 138.60025939583335,
          "velocity": 1
        },
        {
          "duration": 0.1949950000000058,
          "durationTicks": 96,
          "midi": 57,
          "name": "A3",
          "ticks": 68354,
          "time": 138.60025939583335,
          "velocity": 1
        },
        {
          "duration": 0.19499499999997738,
          "durationTicks": 96,
          "midi": 50,
          "name": "D3",
          "ticks": 68450,
          "time": 138.79525439583335,
          "velocity": 1
        },
        {
          "duration": 0.19499499999997738,
          "durationTicks": 96,
          "midi": 57,
          "name": "A3",
          "ticks": 68450,
          "time": 138.79525439583335,
          "velocity": 1
        },
        {
          "duration": 0.1949950000000058,
          "durationTicks": 96,
          "midi": 50,
          "name": "D3",
          "ticks": 68546,
          "time": 138.99024939583333,
          "velocity": 1
        },
        {
          "duration": 0.1949950000000058,
          "durationTicks": 96,
          "midi": 57,
          "name": "A3",
          "ticks": 68546,
          "time": 138.99024939583333,
          "velocity": 1
        },
        {
          "duration": 0.1949950000000058,
          "durationTicks": 96,
          "midi": 50,
          "name": "D3",
          "ticks": 68642,
          "time": 139.18524439583334,
          "velocity": 1
        },
        {
          "duration": 0.1949950000000058,
          "durationTicks": 96,
          "midi": 57,
          "name": "A3",
          "ticks": 68642,
          "time": 139.18524439583334,
          "velocity": 1
        },
        {
          "duration": 0.1949950000000058,
          "durationTicks": 96,
          "midi": 50,
          "name": "D3",
          "ticks": 68738,
          "time": 139.38023939583334,
          "velocity": 1
        },
        {
          "duration": 0.1949950000000058,
          "durationTicks": 96,
          "midi": 57,
          "name": "A3",
          "ticks": 68738,
          "time": 139.38023939583334,
          "velocity": 1
        },
        {
          "duration": 0.1949950000000058,
          "durationTicks": 96,
          "midi": 50,
          "name": "D3",
          "ticks": 68834,
          "time": 139.57523439583335,
          "velocity": 1
        },
        {
          "duration": 0.1949950000000058,
          "durationTicks": 96,
          "midi": 57,
          "name": "A3",
          "ticks": 68834,
          "time": 139.57523439583335,
          "velocity": 1
        },
        {
          "duration": 0.19499499999997738,
          "durationTicks": 96,
          "midi": 50,
          "name": "D3",
          "ticks": 68930,
          "time": 139.77022939583335,
          "velocity": 1
        },
        {
          "duration": 0.19499499999997738,
          "durationTicks": 96,
          "midi": 57,
          "name": "A3",
          "ticks": 68930,
          "time": 139.77022939583335,
          "velocity": 1
        },
        {
          "duration": 0.1949950000000058,
          "durationTicks": 96,
          "midi": 50,
          "name": "D3",
          "ticks": 69026,
          "time": 139.96522439583333,
          "velocity": 1
        },
        {
          "duration": 0.1949950000000058,
          "durationTicks": 96,
          "midi": 57,
          "name": "A3",
          "ticks": 69026,
          "time": 139.96522439583333,
          "velocity": 1
        },
        {
          "duration": 0.1949950000000058,
          "durationTicks": 96,
          "midi": 43,
          "name": "G2",
          "ticks": 69122,
          "time": 140.16021939583334,
          "velocity": 1
        },
        {
          "duration": 0.1949950000000058,
          "durationTicks": 96,
          "midi": 50,
          "name": "D3",
          "ticks": 69122,
          "time": 140.16021939583334,
          "velocity": 1
        },
        {
          "duration": 0.4874874999999861,
          "durationTicks": 240,
          "midi": 38,
          "name": "D2",
          "ticks": 69218,
          "time": 140.35521439583334,
          "velocity": 1
        },
        {
          "duration": 0.4874874999999861,
          "durationTicks": 240,
          "midi": 45,
          "name": "A2",
          "ticks": 69218,
          "time": 140.35521439583334,
          "velocity": 1
        },
        {
          "duration": 0.3899900000000116,
          "durationTicks": 192,
          "midi": 40,
          "name": "E2",
          "ticks": 69458,
          "time": 140.84270189583333,
          "velocity": 1
        },
        {
          "duration": 0.3899900000000116,
          "durationTicks": 192,
          "midi": 47,
          "name": "B2",
          "ticks": 69458,
          "time": 140.84270189583333,
          "velocity": 1
        },
        {
          "duration": 0.3899900000000116,
          "durationTicks": 192,
          "midi": 55,
          "name": "G3",
          "ticks": 69650,
          "time": 141.23269189583334,
          "velocity": 1
        },
        {
          "duration": 0.3899900000000116,
          "durationTicks": 192,
          "midi": 62,
          "name": "D4",
          "ticks": 69650,
          "time": 141.23269189583334,
          "velocity": 1
        },
        {
          "duration": 0.1949950000000058,
          "durationTicks": 96,
          "midi": 52,
          "name": "E3",
          "ticks": 75986,
          "time": 154.10236189583333,
          "velocity": 1
        },
        {
          "duration": 0.1949950000000058,
          "durationTicks": 96,
          "midi": 59,
          "name": "B3",
          "ticks": 75986,
          "time": 154.10236189583333,
          "velocity": 1
        },
        {
          "duration": 0.1949950000000058,
          "durationTicks": 96,
          "midi": 52,
          "name": "E3",
          "ticks": 76082,
          "time": 154.29735689583333,
          "velocity": 1
        },
        {
          "duration": 0.1949950000000058,
          "durationTicks": 96,
          "midi": 59,
          "name": "B3",
          "ticks": 76082,
          "time": 154.29735689583333,
          "velocity": 1
        },
        {
          "duration": 0.1949950000000058,
          "durationTicks": 96,
          "midi": 52,
          "name": "E3",
          "ticks": 76178,
          "time": 154.49235189583334,
          "velocity": 1
        },
        {
          "duration": 0.1949950000000058,
          "durationTicks": 96,
          "midi": 59,
          "name": "B3",
          "ticks": 76178,
          "time": 154.49235189583334,
          "velocity": 1
        },
        {
          "duration": 0.19499499999997738,
          "durationTicks": 96,
          "midi": 52,
          "name": "E3",
          "ticks": 76274,
          "time": 154.68734689583334,
          "velocity": 1
        },
        {
          "duration": 0.19499499999997738,
          "durationTicks": 96,
          "midi": 59,
          "name": "B3",
          "ticks": 76274,
          "time": 154.68734689583334,
          "velocity": 1
        },
        {
          "duration": 0.1949950000000058,
          "durationTicks": 96,
          "midi": 52,
          "name": "E3",
          "ticks": 76370,
          "time": 154.88234189583332,
          "velocity": 1
        },
        {
          "duration": 0.1949950000000058,
          "durationTicks": 96,
          "midi": 59,
          "name": "B3",
          "ticks": 76370,
          "time": 154.88234189583332,
          "velocity": 1
        },
        {
          "duration": 0.1949950000000058,
          "durationTicks": 96,
          "midi": 52,
          "name": "E3",
          "ticks": 76466,
          "time": 155.07733689583333,
          "velocity": 1
        },
        {
          "duration": 0.1949950000000058,
          "durationTicks": 96,
          "midi": 59,
          "name": "B3",
          "ticks": 76466,
          "time": 155.07733689583333,
          "velocity": 1
        },
        {
          "duration": 0.1949950000000058,
          "durationTicks": 96,
          "midi": 52,
          "name": "E3",
          "ticks": 76562,
          "time": 155.27233189583333,
          "velocity": 1
        },
        {
          "duration": 0.1949950000000058,
          "durationTicks": 96,
          "midi": 59,
          "name": "B3",
          "ticks": 76562,
          "time": 155.27233189583333,
          "velocity": 1
        },
        {
          "duration": 0.19499499999997738,
          "durationTicks": 96,
          "midi": 52,
          "name": "E3",
          "ticks": 76658,
          "time": 155.46732689583334,
          "velocity": 1
        },
        {
          "duration": 0.19499499999997738,
          "durationTicks": 96,
          "midi": 59,
          "name": "B3",
          "ticks": 76658,
          "time": 155.46732689583334,
          "velocity": 1
        },
        {
          "duration": 0.1949950000000058,
          "durationTicks": 96,
          "midi": 52,
          "name": "E3",
          "ticks": 76754,
          "time": 155.66232189583332,
          "velocity": 1
        },
        {
          "duration": 0.1949950000000058,
          "durationTicks": 96,
          "midi": 59,
          "name": "B3",
          "ticks": 76754,
          "time": 155.66232189583332,
          "velocity": 1
        },
        {
          "duration": 0.1949950000000058,
          "durationTicks": 96,
          "midi": 52,
          "name": "E3",
          "ticks": 76850,
          "time": 155.85731689583332,
          "velocity": 1
        },
        {
          "duration": 0.1949950000000058,
          "durationTicks": 96,
          "midi": 59,
          "name": "B3",
          "ticks": 76850,
          "time": 155.85731689583332,
          "velocity": 1
        },
        {
          "duration": 0.1949950000000058,
          "durationTicks": 96,
          "midi": 52,
          "name": "E3",
          "ticks": 76946,
          "time": 156.05231189583333,
          "velocity": 1
        },
        {
          "duration": 0.1949950000000058,
          "durationTicks": 96,
          "midi": 59,
          "name": "B3",
          "ticks": 76946,
          "time": 156.05231189583333,
          "velocity": 1
        },
        {
          "duration": 0.1949950000000058,
          "durationTicks": 96,
          "midi": 52,
          "name": "E3",
          "ticks": 77042,
          "time": 156.24730689583333,
          "velocity": 1
        },
        {
          "duration": 0.1949950000000058,
          "durationTicks": 96,
          "midi": 59,
          "name": "B3",
          "ticks": 77042,
          "time": 156.24730689583333,
          "velocity": 1
        },
        {
          "duration": 0.19499499999997738,
          "durationTicks": 96,
          "midi": 52,
          "name": "E3",
          "ticks": 77138,
          "time": 156.44230189583334,
          "velocity": 1
        },
        {
          "duration": 0.19499499999997738,
          "durationTicks": 96,
          "midi": 59,
          "name": "B3",
          "ticks": 77138,
          "time": 156.44230189583334,
          "velocity": 1
        },
        {
          "duration": 0.1949950000000058,
          "durationTicks": 96,
          "midi": 52,
          "name": "E3",
          "ticks": 77234,
          "time": 156.63729689583332,
          "velocity": 1
        },
        {
          "duration": 0.1949950000000058,
          "durationTicks": 96,
          "midi": 59,
          "name": "B3",
          "ticks": 77234,
          "time": 156.63729689583332,
          "velocity": 1
        },
        {
          "duration": 0.1949950000000058,
          "durationTicks": 96,
          "midi": 52,
          "name": "E3",
          "ticks": 77330,
          "time": 156.83229189583332,
          "velocity": 1
        },
        {
          "duration": 0.1949950000000058,
          "durationTicks": 96,
          "midi": 59,
          "name": "B3",
          "ticks": 77330,
          "time": 156.83229189583332,
          "velocity": 1
        },
        {
          "duration": 0.1949950000000058,
          "durationTicks": 96,
          "midi": 52,
          "name": "E3",
          "ticks": 77426,
          "time": 157.02728689583333,
          "velocity": 1
        },
        {
          "duration": 0.1949950000000058,
          "durationTicks": 96,
          "midi": 59,
          "name": "B3",
          "ticks": 77426,
          "time": 157.02728689583333,
          "velocity": 1
        },
        {
          "duration": 0.1949950000000058,
          "durationTicks": 96,
          "midi": 50,
          "name": "D3",
          "ticks": 77522,
          "time": 157.22228189583333,
          "velocity": 1
        },
        {
          "duration": 0.1949950000000058,
          "durationTicks": 96,
          "midi": 57,
          "name": "A3",
          "ticks": 77522,
          "time": 157.22228189583333,
          "velocity": 1
        },
        {
          "duration": 0.19499499999997738,
          "durationTicks": 96,
          "midi": 50,
          "name": "D3",
          "ticks": 77618,
          "time": 157.41727689583334,
          "velocity": 1
        },
        {
          "duration": 0.19499499999997738,
          "durationTicks": 96,
          "midi": 57,
          "name": "A3",
          "ticks": 77618,
          "time": 157.41727689583334,
          "velocity": 1
        },
        {
          "duration": 0.1949950000000058,
          "durationTicks": 96,
          "midi": 50,
          "name": "D3",
          "ticks": 77714,
          "time": 157.61227189583332,
          "velocity": 1
        },
        {
          "duration": 0.1949950000000058,
          "durationTicks": 96,
          "midi": 57,
          "name": "A3",
          "ticks": 77714,
          "time": 157.61227189583332,
          "velocity": 1
        },
        {
          "duration": 0.1949950000000058,
          "durationTicks": 96,
          "midi": 50,
          "name": "D3",
          "ticks": 77810,
          "time": 157.80726689583332,
          "velocity": 1
        },
        {
          "duration": 0.1949950000000058,
          "durationTicks": 96,
          "midi": 57,
          "name": "A3",
          "ticks": 77810,
          "time": 157.80726689583332,
          "velocity": 1
        },
        {
          "duration": 0.1949950000000058,
          "durationTicks": 96,
          "midi": 50,
          "name": "D3",
          "ticks": 77906,
          "time": 158.00226189583333,
          "velocity": 1
        },
        {
          "duration": 0.1949950000000058,
          "durationTicks": 96,
          "midi": 57,
          "name": "A3",
          "ticks": 77906,
          "time": 158.00226189583333,
          "velocity": 1
        },
        {
          "duration": 0.1949950000000058,
          "durationTicks": 96,
          "midi": 50,
          "name": "D3",
          "ticks": 78002,
          "time": 158.19725689583333,
          "velocity": 1
        },
        {
          "duration": 0.1949950000000058,
          "durationTicks": 96,
          "midi": 57,
          "name": "A3",
          "ticks": 78002,
          "time": 158.19725689583333,
          "velocity": 1
        },
        {
          "duration": 0.19499499999997738,
          "durationTicks": 96,
          "midi": 50,
          "name": "D3",
          "ticks": 78098,
          "time": 158.39225189583334,
          "velocity": 1
        },
        {
          "duration": 0.19499499999997738,
          "durationTicks": 96,
          "midi": 57,
          "name": "A3",
          "ticks": 78098,
          "time": 158.39225189583334,
          "velocity": 1
        },
        {
          "duration": 0.1949950000000058,
          "durationTicks": 96,
          "midi": 50,
          "name": "D3",
          "ticks": 78194,
          "time": 158.58724689583332,
          "velocity": 1
        },
        {
          "duration": 0.1949950000000058,
          "durationTicks": 96,
          "midi": 57,
          "name": "A3",
          "ticks": 78194,
          "time": 158.58724689583332,
          "velocity": 1
        },
        {
          "duration": 0.1949950000000058,
          "durationTicks": 96,
          "midi": 43,
          "name": "G2",
          "ticks": 78290,
          "time": 158.78224189583332,
          "velocity": 1
        },
        {
          "duration": 0.1949950000000058,
          "durationTicks": 96,
          "midi": 50,
          "name": "D3",
          "ticks": 78290,
          "time": 158.78224189583332,
          "velocity": 1
        },
        {
          "duration": 0.4874875000000145,
          "durationTicks": 240,
          "midi": 38,
          "name": "D2",
          "ticks": 78386,
          "time": 158.97723689583333,
          "velocity": 1
        },
        {
          "duration": 0.4874875000000145,
          "durationTicks": 240,
          "midi": 45,
          "name": "A2",
          "ticks": 78386,
          "time": 158.97723689583333,
          "velocity": 1
        },
        {
          "duration": 0.3899899999999832,
          "durationTicks": 192,
          "midi": 40,
          "name": "E2",
          "ticks": 78626,
          "time": 159.46472439583334,
          "velocity": 1
        },
        {
          "duration": 0.3899899999999832,
          "durationTicks": 192,
          "midi": 47,
          "name": "B2",
          "ticks": 78626,
          "time": 159.46472439583334,
          "velocity": 1
        },
        {
          "duration": 0.3899900000000116,
          "durationTicks": 192,
          "midi": 55,
          "name": "G3",
          "ticks": 78818,
          "time": 159.85471439583333,
          "velocity": 1
        },
        {
          "duration": 0.3899900000000116,
          "durationTicks": 192,
          "midi": 62,
          "name": "D4",
          "ticks": 78818,
          "time": 159.85471439583333,
          "velocity": 1
        },
        {
          "duration": 0.1949950000000058,
          "durationTicks": 96,
          "midi": 52,
          "name": "E3",
          "ticks": 79010,
          "time": 160.24470439583334,
          "velocity": 1
        },
        {
          "duration": 0.1949950000000058,
          "durationTicks": 96,
          "midi": 59,
          "name": "B3",
          "ticks": 79010,
          "time": 160.24470439583334,
          "velocity": 1
        },
        {
          "duration": 0.1949950000000058,
          "durationTicks": 96,
          "midi": 52,
          "name": "E3",
          "ticks": 79106,
          "time": 160.43969939583334,
          "velocity": 1
        },
        {
          "duration": 0.1949950000000058,
          "durationTicks": 96,
          "midi": 59,
          "name": "B3",
          "ticks": 79106,
          "time": 160.43969939583334,
          "velocity": 1
        },
        {
          "duration": 0.1949950000000058,
          "durationTicks": 96,
          "midi": 52,
          "name": "E3",
          "ticks": 79202,
          "time": 160.63469439583335,
          "velocity": 1
        },
        {
          "duration": 0.1949950000000058,
          "durationTicks": 96,
          "midi": 59,
          "name": "B3",
          "ticks": 79202,
          "time": 160.63469439583335,
          "velocity": 1
        },
        {
          "duration": 0.19499499999997738,
          "durationTicks": 96,
          "midi": 52,
          "name": "E3",
          "ticks": 79298,
          "time": 160.82968939583336,
          "velocity": 1
        },
        {
          "duration": 0.19499499999997738,
          "durationTicks": 96,
          "midi": 59,
          "name": "B3",
          "ticks": 79298,
          "time": 160.82968939583336,
          "velocity": 1
        },
        {
          "duration": 0.1949950000000058,
          "durationTicks": 96,
          "midi": 52,
          "name": "E3",
          "ticks": 79394,
          "time": 161.02468439583333,
          "velocity": 1
        },
        {
          "duration": 0.1949950000000058,
          "durationTicks": 96,
          "midi": 59,
          "name": "B3",
          "ticks": 79394,
          "time": 161.02468439583333,
          "velocity": 1
        },
        {
          "duration": 0.1949950000000058,
          "durationTicks": 96,
          "midi": 52,
          "name": "E3",
          "ticks": 79490,
          "time": 161.21967939583334,
          "velocity": 1
        },
        {
          "duration": 0.1949950000000058,
          "durationTicks": 96,
          "midi": 59,
          "name": "B3",
          "ticks": 79490,
          "time": 161.21967939583334,
          "velocity": 1
        },
        {
          "duration": 0.1949950000000058,
          "durationTicks": 96,
          "midi": 52,
          "name": "E3",
          "ticks": 79586,
          "time": 161.41467439583334,
          "velocity": 1
        },
        {
          "duration": 0.1949950000000058,
          "durationTicks": 96,
          "midi": 59,
          "name": "B3",
          "ticks": 79586,
          "time": 161.41467439583334,
          "velocity": 1
        },
        {
          "duration": 0.19499499999997738,
          "durationTicks": 96,
          "midi": 52,
          "name": "E3",
          "ticks": 79682,
          "time": 161.60966939583335,
          "velocity": 1
        },
        {
          "duration": 0.19499499999997738,
          "durationTicks": 96,
          "midi": 59,
          "name": "B3",
          "ticks": 79682,
          "time": 161.60966939583335,
          "velocity": 1
        },
        {
          "duration": 0.1949950000000058,
          "durationTicks": 96,
          "midi": 52,
          "name": "E3",
          "ticks": 79778,
          "time": 161.80466439583333,
          "velocity": 1
        },
        {
          "duration": 0.1949950000000058,
          "durationTicks": 96,
          "midi": 59,
          "name": "B3",
          "ticks": 79778,
          "time": 161.80466439583333,
          "velocity": 1
        },
        {
          "duration": 0.1949950000000058,
          "durationTicks": 96,
          "midi": 52,
          "name": "E3",
          "ticks": 79874,
          "time": 161.99965939583333,
          "velocity": 1
        },
        {
          "duration": 0.1949950000000058,
          "durationTicks": 96,
          "midi": 59,
          "name": "B3",
          "ticks": 79874,
          "time": 161.99965939583333,
          "velocity": 1
        },
        {
          "duration": 0.1949950000000058,
          "durationTicks": 96,
          "midi": 52,
          "name": "E3",
          "ticks": 79970,
          "time": 162.19465439583334,
          "velocity": 1
        },
        {
          "duration": 0.1949950000000058,
          "durationTicks": 96,
          "midi": 59,
          "name": "B3",
          "ticks": 79970,
          "time": 162.19465439583334,
          "velocity": 1
        },
        {
          "duration": 0.1949950000000058,
          "durationTicks": 96,
          "midi": 52,
          "name": "E3",
          "ticks": 80066,
          "time": 162.38964939583335,
          "velocity": 1
        },
        {
          "duration": 0.1949950000000058,
          "durationTicks": 96,
          "midi": 59,
          "name": "B3",
          "ticks": 80066,
          "time": 162.38964939583335,
          "velocity": 1
        },
        {
          "duration": 0.19499499999997738,
          "durationTicks": 96,
          "midi": 52,
          "name": "E3",
          "ticks": 80162,
          "time": 162.58464439583335,
          "velocity": 1
        },
        {
          "duration": 0.19499499999997738,
          "durationTicks": 96,
          "midi": 59,
          "name": "B3",
          "ticks": 80162,
          "time": 162.58464439583335,
          "velocity": 1
        },
        {
          "duration": 0.1949950000000058,
          "durationTicks": 96,
          "midi": 52,
          "name": "E3",
          "ticks": 80258,
          "time": 162.77963939583333,
          "velocity": 1
        },
        {
          "duration": 0.1949950000000058,
          "durationTicks": 96,
          "midi": 59,
          "name": "B3",
          "ticks": 80258,
          "time": 162.77963939583333,
          "velocity": 1
        },
        {
          "duration": 0.1949950000000058,
          "durationTicks": 96,
          "midi": 52,
          "name": "E3",
          "ticks": 80354,
          "time": 162.97463439583333,
          "velocity": 1
        },
        {
          "duration": 0.1949950000000058,
          "durationTicks": 96,
          "midi": 59,
          "name": "B3",
          "ticks": 80354,
          "time": 162.97463439583333,
          "velocity": 1
        },
        {
          "duration": 0.1949950000000058,
          "durationTicks": 96,
          "midi": 52,
          "name": "E3",
          "ticks": 80450,
          "time": 163.16962939583334,
          "velocity": 1
        },
        {
          "duration": 0.1949950000000058,
          "durationTicks": 96,
          "midi": 59,
          "name": "B3",
          "ticks": 80450,
          "time": 163.16962939583334,
          "velocity": 1
        },
        {
          "duration": 0.1949950000000058,
          "durationTicks": 96,
          "midi": 50,
          "name": "D3",
          "ticks": 80546,
          "time": 163.36462439583335,
          "velocity": 1
        },
        {
          "duration": 0.1949950000000058,
          "durationTicks": 96,
          "midi": 57,
          "name": "A3",
          "ticks": 80546,
          "time": 163.36462439583335,
          "velocity": 1
        },
        {
          "duration": 0.19499499999997738,
          "durationTicks": 96,
          "midi": 50,
          "name": "D3",
          "ticks": 80642,
          "time": 163.55961939583335,
          "velocity": 1
        },
        {
          "duration": 0.19499499999997738,
          "durationTicks": 96,
          "midi": 57,
          "name": "A3",
          "ticks": 80642,
          "time": 163.55961939583335,
          "velocity": 1
        },
        {
          "duration": 0.1949950000000058,
          "durationTicks": 96,
          "midi": 50,
          "name": "D3",
          "ticks": 80738,
          "time": 163.75461439583333,
          "velocity": 1
        },
        {
          "duration": 0.1949950000000058,
          "durationTicks": 96,
          "midi": 57,
          "name": "A3",
          "ticks": 80738,
          "time": 163.75461439583333,
          "velocity": 1
        },
        {
          "duration": 0.1949950000000058,
          "durationTicks": 96,
          "midi": 50,
          "name": "D3",
          "ticks": 80834,
          "time": 163.94960939583333,
          "velocity": 1
        },
        {
          "duration": 0.1949950000000058,
          "durationTicks": 96,
          "midi": 57,
          "name": "A3",
          "ticks": 80834,
          "time": 163.94960939583333,
          "velocity": 1
        },
        {
          "duration": 0.1949950000000058,
          "durationTicks": 96,
          "midi": 50,
          "name": "D3",
          "ticks": 80930,
          "time": 164.14460439583334,
          "velocity": 1
        },
        {
          "duration": 0.1949950000000058,
          "durationTicks": 96,
          "midi": 57,
          "name": "A3",
          "ticks": 80930,
          "time": 164.14460439583334,
          "velocity": 1
        },
        {
          "duration": 0.1949950000000058,
          "durationTicks": 96,
          "midi": 50,
          "name": "D3",
          "ticks": 81026,
          "time": 164.33959939583335,
          "velocity": 1
        },
        {
          "duration": 0.1949950000000058,
          "durationTicks": 96,
          "midi": 57,
          "name": "A3",
          "ticks": 81026,
          "time": 164.33959939583335,
          "velocity": 1
        },
        {
          "duration": 0.19499499999997738,
          "durationTicks": 96,
          "midi": 50,
          "name": "D3",
          "ticks": 81122,
          "time": 164.53459439583335,
          "velocity": 1
        },
        {
          "duration": 0.19499499999997738,
          "durationTicks": 96,
          "midi": 57,
          "name": "A3",
          "ticks": 81122,
          "time": 164.53459439583335,
          "velocity": 1
        },
        {
          "duration": 0.1949950000000058,
          "durationTicks": 96,
          "midi": 50,
          "name": "D3",
          "ticks": 81218,
          "time": 164.72958939583333,
          "velocity": 1
        },
        {
          "duration": 0.1949950000000058,
          "durationTicks": 96,
          "midi": 57,
          "name": "A3",
          "ticks": 81218,
          "time": 164.72958939583333,
          "velocity": 1
        },
        {
          "duration": 0.1949950000000058,
          "durationTicks": 96,
          "midi": 43,
          "name": "G2",
          "ticks": 81314,
          "time": 164.92458439583334,
          "velocity": 1
        },
        {
          "duration": 0.1949950000000058,
          "durationTicks": 96,
          "midi": 50,
          "name": "D3",
          "ticks": 81314,
          "time": 164.92458439583334,
          "velocity": 1
        },
        {
          "duration": 0.4874874999999861,
          "durationTicks": 240,
          "midi": 38,
          "name": "D2",
          "ticks": 81410,
          "time": 165.11957939583334,
          "velocity": 1
        },
        {
          "duration": 0.4874874999999861,
          "durationTicks": 240,
          "midi": 45,
          "name": "A2",
          "ticks": 81410,
          "time": 165.11957939583334,
          "velocity": 1
        },
        {
          "duration": 1.8524525000000267,
          "durationTicks": 912,
          "midi": 40,
          "name": "E2",
          "ticks": 81650,
          "time": 165.60706689583333,
          "velocity": 1
        },
        {
          "duration": 1.8524525000000267,
          "durationTicks": 912,
          "midi": 47,
          "name": "B2",
          "ticks": 81650,
          "time": 165.60706689583333,
          "velocity": 1
        }
      ],
      "endOfTrackTicks": 82562
    },
    {
      "channel": 5,
      "controlChanges": {},
      "pitchBends": [],
      "instrument": {
        "family": "strings",
        "name": "violin",
        "number": 40
      },
      "name": "",
      "notes": [
        {
          "duration": 0.19499500000000003,
          "durationTicks": 96,
          "midi": 57,
          "name": "A3",
          "ticks": 770,
          "time": 1.5640223958333335,
          "velocity": 1
        },
        {
          "duration": 0.19499500000000003,
          "durationTicks": 96,
          "midi": 59,
          "name": "B3",
          "ticks": 866,
          "time": 1.7590173958333335,
          "velocity": 1
        },
        {
          "duration": 0.1949949999999998,
          "durationTicks": 96,
          "midi": 62,
          "name": "D4",
          "ticks": 962,
          "time": 1.9540123958333335,
          "velocity": 1
        },
        {
          "duration": 0.19499500000000003,
          "durationTicks": 96,
          "midi": 64,
          "name": "E4",
          "ticks": 1058,
          "time": 2.1490073958333333,
          "velocity": 1
        },
        {
          "duration": 0.19499500000000003,
          "durationTicks": 96,
          "midi": 57,
          "name": "A3",
          "ticks": 1154,
          "time": 2.3440023958333334,
          "velocity": 1
        },
        {
          "duration": 0.19499500000000003,
          "durationTicks": 96,
          "midi": 59,
          "name": "B3",
          "ticks": 1250,
          "time": 2.5389973958333334,
          "velocity": 1
        },
        {
          "duration": 0.19499500000000003,
          "durationTicks": 96,
          "midi": 62,
          "name": "D4",
          "ticks": 1346,
          "time": 2.7339923958333334,
          "velocity": 1
        },
        {
          "duration": 0.19499499999999959,
          "durationTicks": 96,
          "midi": 64,
          "name": "E4",
          "ticks": 1442,
          "time": 2.9289873958333335,
          "velocity": 1
        },
        {
          "duration": 0.19499499999999959,
          "durationTicks": 96,
          "midi": 57,
          "name": "A3",
          "ticks": 2306,
          "time": 4.683942395833333,
          "velocity": 1
        },
        {
          "duration": 0.19499500000000047,
          "durationTicks": 96,
          "midi": 59,
          "name": "B3",
          "ticks": 2402,
          "time": 4.878937395833333,
          "velocity": 1
        },
        {
          "duration": 0.19499499999999959,
          "durationTicks": 96,
          "midi": 62,
          "name": "D4",
          "ticks": 2498,
          "time": 5.073932395833333,
          "velocity": 1
        },
        {
          "duration": 0.19499500000000047,
          "durationTicks": 96,
          "midi": 64,
          "name": "E4",
          "ticks": 2594,
          "time": 5.268927395833333,
          "velocity": 1
        },
        {
          "duration": 0.19499499999999959,
          "durationTicks": 96,
          "midi": 57,
          "name": "A3",
          "ticks": 2690,
          "time": 5.463922395833333,
          "velocity": 1
        },
        {
          "duration": 0.19499500000000047,
          "durationTicks": 96,
          "midi": 59,
          "name": "B3",
          "ticks": 2786,
          "time": 5.658917395833333,
          "velocity": 1
        },
        {
          "duration": 0.19499499999999959,
          "durationTicks": 96,
          "midi": 62,
          "name": "D4",
          "ticks": 2882,
          "time": 5.8539123958333334,
          "velocity": 1
        },
        {
          "duration": 0.19499500000000047,
          "durationTicks": 96,
          "midi": 64,
          "name": "E4",
          "ticks": 2978,
          "time": 6.048907395833333,
          "velocity": 1
        },
        {
          "duration": 0.19499499999999959,
          "durationTicks": 96,
          "midi": 57,
          "name": "A3",
          "ticks": 3842,
          "time": 7.803862395833334,
          "velocity": 1
        },
        {
          "duration": 0.19499500000000047,
          "durationTicks": 96,
          "midi": 59,
          "name": "B3",
          "ticks": 3938,
          "time": 7.998857395833333,
          "velocity": 1
        },
        {
          "duration": 0.19499500000000047,
          "durationTicks": 96,
          "midi": 62,
          "name": "D4",
          "ticks": 4034,
          "time": 8.193852395833334,
          "velocity": 1
        },
        {
          "duration": 0.1949949999999987,
          "durationTicks": 96,
          "midi": 64,
          "name": "E4",
          "ticks": 4130,
          "time": 8.388847395833334,
          "velocity": 1
        },
        {
          "duration": 0.19499500000000047,
          "durationTicks": 96,
          "midi": 57,
          "name": "A3",
          "ticks": 4226,
          "time": 8.583842395833333,
          "velocity": 1
        },
        {
          "duration": 0.19499500000000047,
          "durationTicks": 96,
          "midi": 59,
          "name": "B3",
          "ticks": 4322,
          "time": 8.778837395833333,
          "velocity": 1
        },
        {
          "duration": 0.1949949999999987,
          "durationTicks": 96,
          "midi": 62,
          "name": "D4",
          "ticks": 4418,
          "time": 8.973832395833334,
          "velocity": 1
        },
        {
          "duration": 0.1949648645833335,
          "durationTicks": 96,
          "midi": 64,
          "name": "E4",
          "ticks": 4514,
          "time": 9.168827395833333,
          "velocity": 1
        },
        {
          "duration": 0.19354850000000035,
          "durationTicks": 96,
          "midi": 57,
          "name": "A3",
          "ticks": 5378,
          "time": 10.912180260416665,
          "velocity": 1
        },
        {
          "duration": 0.19354850000000035,
          "durationTicks": 96,
          "midi": 59,
          "name": "B3",
          "ticks": 5474,
          "time": 11.105728760416666,
          "velocity": 1
        },
        {
          "duration": 0.19354850000000035,
          "durationTicks": 96,
          "midi": 62,
          "name": "D4",
          "ticks": 5570,
          "time": 11.299277260416666,
          "velocity": 1
        },
        {
          "duration": 0.19354850000000035,
          "durationTicks": 96,
          "midi": 64,
          "name": "E4",
          "ticks": 5666,
          "time": 11.492825760416666,
          "velocity": 1
        },
        {
          "duration": 0.19354849999999857,
          "durationTicks": 96,
          "midi": 57,
          "name": "A3",
          "ticks": 5762,
          "time": 11.686374260416667,
          "velocity": 1
        },
        {
          "duration": 0.19354850000000035,
          "durationTicks": 96,
          "midi": 59,
          "name": "B3",
          "ticks": 5858,
          "time": 11.879922760416665,
          "velocity": 1
        },
        {
          "duration": 0.19354850000000035,
          "durationTicks": 96,
          "midi": 62,
          "name": "D4",
          "ticks": 5954,
          "time": 12.073471260416666,
          "velocity": 1
        },
        {
          "duration": 0.19344705208333401,
          "durationTicks": 96,
          "midi": 64,
          "name": "E4",
          "ticks": 6050,
          "time": 12.267019760416666,
          "velocity": 1
        }
      ]
    },
    {
      "channel": 5,
      "controlChanges": {},
      "pitchBends": [],
      "instrument": {
        "family": "bass",
        "name": "slap bass 1",
        "number": 36
      },
      "name": "",
      "notes": [
        {
          "duration": 0.1949949999999987,
          "durationTicks": 96,
          "midi": 40,
          "name": "E2",
          "ticks": 12194,
          "time": 24.546329395833336,
          "velocity": 1
        },
        {
          "duration": 0.19499500000000225,
          "durationTicks": 96,
          "midi": 40,
          "name": "E2",
          "ticks": 12290,
          "time": 24.741324395833335,
          "velocity": 1
        },
        {
          "duration": 0.1949949999999987,
          "durationTicks": 96,
          "midi": 40,
          "name": "E2",
          "ticks": 12386,
          "time": 24.936319395833337,
          "velocity": 1
        },
        {
          "duration": 0.1949949999999987,
          "durationTicks": 96,
          "midi": 40,
          "name": "E2",
          "ticks": 12482,
          "time": 25.131314395833336,
          "velocity": 1
        },
        {
          "duration": 0.19499500000000225,
          "durationTicks": 96,
          "midi": 40,
          "name": "E2",
          "ticks": 12578,
          "time": 25.326309395833334,
          "velocity": 1
        },
        {
          "duration": 0.1949949999999987,
          "durationTicks": 96,
          "midi": 40,
          "name": "E2",
          "ticks": 12674,
          "time": 25.521304395833337,
          "velocity": 1
        },
        {
          "duration": 0.19499500000000225,
          "durationTicks": 96,
          "midi": 40,
          "name": "E2",
          "ticks": 12770,
          "time": 25.716299395833335,
          "velocity": 1
        },
        {
          "duration": 0.1949949999999987,
          "durationTicks": 96,
          "midi": 40,
          "name": "E2",
          "ticks": 12866,
          "time": 25.911294395833337,
          "velocity": 1
        },
        {
          "duration": 0.1949949999999987,
          "durationTicks": 96,
          "midi": 36,
          "name": "C2",
          "ticks": 12962,
          "time": 26.106289395833336,
          "velocity": 1
        },
        {
          "duration": 0.19499500000000225,
          "durationTicks": 96,
          "midi": 36,
          "name": "C2",
          "ticks": 13058,
          "time": 26.301284395833335,
          "velocity": 1
        },
        {
          "duration": 0.1949949999999987,
          "durationTicks": 96,
          "midi": 36,
          "name": "C2",
          "ticks": 13154,
          "time": 26.496279395833337,
          "velocity": 1
        },
        {
          "duration": 0.1949949999999987,
          "durationTicks": 96,
          "midi": 36,
          "name": "C2",
          "ticks": 13250,
          "time": 26.691274395833336,
          "velocity": 1
        },
        {
          "duration": 0.19499500000000225,
          "durationTicks": 96,
          "midi": 50,
          "name": "D3",
          "ticks": 13346,
          "time": 26.886269395833335,
          "velocity": 1
        },
        {
          "duration": 0.1949949999999987,
          "durationTicks": 96,
          "midi": 50,
          "name": "D3",
          "ticks": 13442,
          "time": 27.081264395833337,
          "velocity": 1
        },
        {
          "duration": 0.1949949999999987,
          "durationTicks": 96,
          "midi": 50,
          "name": "D3",
          "ticks": 13538,
          "time": 27.276259395833335,
          "velocity": 1
        },
        {
          "duration": 0.19499500000000225,
          "durationTicks": 96,
          "midi": 50,
          "name": "D3",
          "ticks": 13634,
          "time": 27.471254395833334,
          "velocity": 1
        },
        {
          "duration": 0.1949949999999987,
          "durationTicks": 96,
          "midi": 40,
          "name": "E2",
          "ticks": 13730,
          "time": 27.666249395833336,
          "velocity": 1
        },
        {
          "duration": 0.19499500000000225,
          "durationTicks": 96,
          "midi": 40,
          "name": "E2",
          "ticks": 13826,
          "time": 27.861244395833335,
          "velocity": 1
        },
        {
          "duration": 0.1949949999999987,
          "durationTicks": 96,
          "midi": 40,
          "name": "E2",
          "ticks": 13922,
          "time": 28.056239395833337,
          "velocity": 1
        },
        {
          "duration": 0.1949949999999987,
          "durationTicks": 96,
          "midi": 40,
          "name": "E2",
          "ticks": 14018,
          "time": 28.251234395833336,
          "velocity": 1
        },
        {
          "duration": 0.1949949999999987,
          "durationTicks": 96,
          "midi": 40,
          "name": "E2",
          "ticks": 14114,
          "time": 28.446229395833335,
          "velocity": 1
        },
        {
          "duration": 0.19499500000000225,
          "durationTicks": 96,
          "midi": 40,
          "name": "E2",
          "ticks": 14210,
          "time": 28.641224395833333,
          "velocity": 1
        },
        {
          "duration": 0.1949949999999987,
          "durationTicks": 96,
          "midi": 40,
          "name": "E2",
          "ticks": 14306,
          "time": 28.836219395833336,
          "velocity": 1
        },
        {
          "duration": 0.19499500000000225,
          "durationTicks": 96,
          "midi": 40,
          "name": "E2",
          "ticks": 14402,
          "time": 29.031214395833334,
          "velocity": 1
        },
        {
          "duration": 0.1949949999999987,
          "durationTicks": 96,
          "midi": 40,
          "name": "E2",
          "ticks": 14498,
          "time": 29.226209395833337,
          "velocity": 1
        },
        {
          "duration": 0.1949949999999987,
          "durationTicks": 96,
          "midi": 40,
          "name": "E2",
          "ticks": 14594,
          "time": 29.421204395833335,
          "velocity": 1
        },
        {
          "duration": 0.19499500000000225,
          "durationTicks": 96,
          "midi": 40,
          "name": "E2",
          "ticks": 14690,
          "time": 29.616199395833334,
          "velocity": 1
        },
        {
          "duration": 0.1949949999999987,
          "durationTicks": 96,
          "midi": 40,
          "name": "E2",
          "ticks": 14786,
          "time": 29.811194395833336,
          "velocity": 1
        },
        {
          "duration": 0.19499500000000225,
          "durationTicks": 96,
          "midi": 45,
          "name": "A2",
          "ticks": 14882,
          "time": 30.006189395833335,
          "velocity": 1
        },
        {
          "duration": 0.1949949999999987,
          "durationTicks": 96,
          "midi": 47,
          "name": "B2",
          "ticks": 14978,
          "time": 30.201184395833337,
          "velocity": 1
        },
        {
          "duration": 0.1949949999999987,
          "durationTicks": 96,
          "midi": 38,
          "name": "D2",
          "ticks": 15074,
          "time": 30.396179395833336,
          "velocity": 1
        },
        {
          "duration": 0.19499500000000225,
          "durationTicks": 96,
          "midi": 40,
          "name": "E2",
          "ticks": 15170,
          "time": 30.591174395833335,
          "velocity": 1
        },
        {
          "duration": 0.1949949999999987,
          "durationTicks": 96,
          "midi": 40,
          "name": "E2",
          "ticks": 15266,
          "time": 30.786169395833337,
          "velocity": 1
        },
        {
          "duration": 0.19499500000000225,
          "durationTicks": 96,
          "midi": 40,
          "name": "E2",
          "ticks": 15362,
          "time": 30.981164395833336,
          "velocity": 1
        },
        {
          "duration": 0.1949949999999987,
          "durationTicks": 96,
          "midi": 40,
          "name": "E2",
          "ticks": 15458,
          "time": 31.176159395833338,
          "velocity": 1
        },
        {
          "duration": 0.1949949999999987,
          "durationTicks": 96,
          "midi": 40,
          "name": "E2",
          "ticks": 15554,
          "time": 31.371154395833337,
          "velocity": 1
        },
        {
          "duration": 0.19499500000000225,
          "durationTicks": 96,
          "midi": 40,
          "name": "E2",
          "ticks": 15650,
          "time": 31.566149395833335,
          "velocity": 1
        },
        {
          "duration": 0.1949949999999987,
          "durationTicks": 96,
          "midi": 40,
          "name": "E2",
          "ticks": 15746,
          "time": 31.761144395833337,
          "velocity": 1
        },
        {
          "duration": 0.19499500000000225,
          "durationTicks": 96,
          "midi": 40,
          "name": "E2",
          "ticks": 15842,
          "time": 31.956139395833336,
          "velocity": 1
        },
        {
          "duration": 0.1949949999999987,
          "durationTicks": 96,
          "midi": 40,
          "name": "E2",
          "ticks": 15938,
          "time": 32.15113439583334,
          "velocity": 1
        },
        {
          "duration": 0.1949949999999987,
          "durationTicks": 96,
          "midi": 36,
          "name": "C2",
          "ticks": 16034,
          "time": 32.34612939583334,
          "velocity": 1
        },
        {
          "duration": 0.1949949999999987,
          "durationTicks": 96,
          "midi": 36,
          "name": "C2",
          "ticks": 16130,
          "time": 32.541124395833336,
          "velocity": 1
        },
        {
          "duration": 0.1949949999999987,
          "durationTicks": 96,
          "midi": 36,
          "name": "C2",
          "ticks": 16226,
          "time": 32.736119395833335,
          "velocity": 1
        },
        {
          "duration": 0.1949950000000058,
          "durationTicks": 96,
          "midi": 36,
          "name": "C2",
          "ticks": 16322,
          "time": 32.93111439583333,
          "velocity": 1
        },
        {
          "duration": 0.1949949999999987,
          "durationTicks": 96,
          "midi": 50,
          "name": "D3",
          "ticks": 16418,
          "time": 33.12610939583334,
          "velocity": 1
        },
        {
          "duration": 0.1949949999999987,
          "durationTicks": 96,
          "midi": 50,
          "name": "D3",
          "ticks": 16514,
          "time": 33.32110439583334,
          "velocity": 1
        },
        {
          "duration": 0.1949949999999987,
          "durationTicks": 96,
          "midi": 50,
          "name": "D3",
          "ticks": 16610,
          "time": 33.516099395833336,
          "velocity": 1
        },
        {
          "duration": 0.1949949999999987,
          "durationTicks": 96,
          "midi": 50,
          "name": "D3",
          "ticks": 16706,
          "time": 33.711094395833335,
          "velocity": 1
        },
        {
          "duration": 0.1949950000000058,
          "durationTicks": 96,
          "midi": 40,
          "name": "E2",
          "ticks": 16802,
          "time": 33.906089395833334,
          "velocity": 1
        },
        {
          "duration": 0.1949949999999987,
          "durationTicks": 96,
          "midi": 40,
          "name": "E2",
          "ticks": 16898,
          "time": 34.10108439583334,
          "velocity": 1
        },
        {
          "duration": 0.1949949999999987,
          "durationTicks": 96,
          "midi": 40,
          "name": "E2",
          "ticks": 16994,
          "time": 34.29607939583334,
          "velocity": 1
        },
        {
          "duration": 0.1949949999999987,
          "durationTicks": 96,
          "midi": 40,
          "name": "E2",
          "ticks": 17090,
          "time": 34.49107439583334,
          "velocity": 1
        },
        {
          "duration": 0.1949949999999987,
          "durationTicks": 96,
          "midi": 40,
          "name": "E2",
          "ticks": 17186,
          "time": 34.686069395833336,
          "velocity": 1
        },
        {
          "duration": 0.1949950000000058,
          "durationTicks": 96,
          "midi": 40,
          "name": "E2",
          "ticks": 17282,
          "time": 34.881064395833334,
          "velocity": 1
        },
        {
          "duration": 0.1949949999999987,
          "durationTicks": 96,
          "midi": 40,
          "name": "E2",
          "ticks": 17378,
          "time": 35.07605939583334,
          "velocity": 1
        },
        {
          "duration": 0.1949949999999987,
          "durationTicks": 96,
          "midi": 40,
          "name": "E2",
          "ticks": 17474,
          "time": 35.27105439583334,
          "velocity": 1
        },
        {
          "duration": 0.1949949999999987,
          "durationTicks": 96,
          "midi": 40,
          "name": "E2",
          "ticks": 17570,
          "time": 35.46604939583334,
          "velocity": 1
        },
        {
          "duration": 0.1949949999999987,
          "durationTicks": 96,
          "midi": 40,
          "name": "E2",
          "ticks": 17666,
          "time": 35.661044395833336,
          "velocity": 1
        },
        {
          "duration": 0.1949949999999987,
          "durationTicks": 96,
          "midi": 40,
          "name": "E2",
          "ticks": 17762,
          "time": 35.856039395833335,
          "velocity": 1
        },
        {
          "duration": 0.1949950000000058,
          "durationTicks": 96,
          "midi": 40,
          "name": "E2",
          "ticks": 17858,
          "time": 36.051034395833334,
          "velocity": 1
        },
        {
          "duration": 0.1949949999999987,
          "durationTicks": 96,
          "midi": 45,
          "name": "A2",
          "ticks": 17954,
          "time": 36.24602939583334,
          "velocity": 1
        },
        {
          "duration": 0.1949949999999987,
          "durationTicks": 96,
          "midi": 47,
          "name": "B2",
          "ticks": 18050,
          "time": 36.44102439583334,
          "velocity": 1
        },
        {
          "duration": 0.1949949999999987,
          "durationTicks": 96,
          "midi": 38,
          "name": "D2",
          "ticks": 18146,
          "time": 36.63601939583334,
          "velocity": 1
        },
        {
          "duration": 0.1949949999999987,
          "durationTicks": 96,
          "midi": 40,
          "name": "E2",
          "ticks": 18242,
          "time": 36.831014395833336,
          "velocity": 1
        },
        {
          "duration": 0.19480500000000234,
          "durationTicks": 96,
          "midi": 40,
          "name": "E2",
          "ticks": 24386,
          "time": 49.304705437500004,
          "velocity": 1
        },
        {
          "duration": 0.19480499999999523,
          "durationTicks": 96,
          "midi": 40,
          "name": "E2",
          "ticks": 24482,
          "time": 49.49951043750001,
          "velocity": 1
        },
        {
          "duration": 0.19480500000000234,
          "durationTicks": 96,
          "midi": 40,
          "name": "E2",
          "ticks": 24578,
          "time": 49.6943154375,
          "velocity": 1
        },
        {
          "duration": 0.19480499999999523,
          "durationTicks": 96,
          "midi": 40,
          "name": "E2",
          "ticks": 24674,
          "time": 49.889120437500004,
          "velocity": 1
        },
        {
          "duration": 0.19480500000000234,
          "durationTicks": 96,
          "midi": 40,
          "name": "E2",
          "ticks": 24770,
          "time": 50.0839254375,
          "velocity": 1
        },
        {
          "duration": 0.19480500000000234,
          "durationTicks": 96,
          "midi": 40,
          "name": "E2",
          "ticks": 24866,
          "time": 50.2787304375,
          "velocity": 1
        },
        {
          "duration": 0.19480500000000234,
          "durationTicks": 96,
          "midi": 40,
          "name": "E2",
          "ticks": 24962,
          "time": 50.473535437500004,
          "velocity": 1
        },
        {
          "duration": 0.19480499999999523,
          "durationTicks": 96,
          "midi": 40,
          "name": "E2",
          "ticks": 25058,
          "time": 50.66834043750001,
          "velocity": 1
        },
        {
          "duration": 0.19480500000000234,
          "durationTicks": 96,
          "midi": 40,
          "name": "E2",
          "ticks": 25154,
          "time": 50.8631454375,
          "velocity": 1
        },
        {
          "duration": 0.19480499999999523,
          "durationTicks": 96,
          "midi": 40,
          "name": "E2",
          "ticks": 25250,
          "time": 51.057950437500004,
          "velocity": 1
        },
        {
          "duration": 0.19480500000000234,
          "durationTicks": 96,
          "midi": 40,
          "name": "E2",
          "ticks": 25346,
          "time": 51.2527554375,
          "velocity": 1
        },
        {
          "duration": 0.19480500000000234,
          "durationTicks": 96,
          "midi": 40,
          "name": "E2",
          "ticks": 25442,
          "time": 51.4475604375,
          "velocity": 1
        },
        {
          "duration": 0.19480500000000234,
          "durationTicks": 96,
          "midi": 40,
          "name": "E2",
          "ticks": 25538,
          "time": 51.642365437500004,
          "velocity": 1
        },
        {
          "duration": 0.19480499999999523,
          "durationTicks": 96,
          "midi": 40,
          "name": "E2",
          "ticks": 25634,
          "time": 51.837170437500006,
          "velocity": 1
        },
        {
          "duration": 0.19480500000000234,
          "durationTicks": 96,
          "midi": 40,
          "name": "E2",
          "ticks": 25730,
          "time": 52.0319754375,
          "velocity": 1
        },
        {
          "duration": 0.19480499999999523,
          "durationTicks": 96,
          "midi": 40,
          "name": "E2",
          "ticks": 25826,
          "time": 52.226780437500004,
          "velocity": 1
        },
        {
          "duration": 0.19480500000000234,
          "durationTicks": 96,
          "midi": 38,
          "name": "D2",
          "ticks": 25922,
          "time": 52.4215854375,
          "velocity": 1
        },
        {
          "duration": 0.19480500000000234,
          "durationTicks": 96,
          "midi": 38,
          "name": "D2",
          "ticks": 26018,
          "time": 52.6163904375,
          "velocity": 1
        },
        {
          "duration": 0.19480500000000234,
          "durationTicks": 96,
          "midi": 38,
          "name": "D2",
          "ticks": 26114,
          "time": 52.811195437500004,
          "velocity": 1
        },
        {
          "duration": 0.19480499999999523,
          "durationTicks": 96,
          "midi": 38,
          "name": "D2",
          "ticks": 26210,
          "time": 53.006000437500006,
          "velocity": 1
        },
        {
          "duration": 0.19480500000000234,
          "durationTicks": 96,
          "midi": 38,
          "name": "D2",
          "ticks": 26306,
          "time": 53.2008054375,
          "velocity": 1
        },
        {
          "duration": 0.19480499999999523,
          "durationTicks": 96,
          "midi": 38,
          "name": "D2",
          "ticks": 26402,
          "time": 53.395610437500004,
          "velocity": 1
        },
        {
          "duration": 0.19480500000000234,
          "durationTicks": 96,
          "midi": 38,
          "name": "D2",
          "ticks": 26498,
          "time": 53.5904154375,
          "velocity": 1
        },
        {
          "duration": 0.19480500000000234,
          "durationTicks": 96,
          "midi": 38,
          "name": "D2",
          "ticks": 26594,
          "time": 53.7852204375,
          "velocity": 1
        },
        {
          "duration": 0.19480500000000234,
          "durationTicks": 96,
          "midi": 38,
          "name": "D2",
          "ticks": 26690,
          "time": 53.980025437500004,
          "velocity": 1
        },
        {
          "duration": 0.19480499999999523,
          "durationTicks": 96,
          "midi": 38,
          "name": "D2",
          "ticks": 26786,
          "time": 54.174830437500006,
          "velocity": 1
        },
        {
          "duration": 0.19480500000000234,
          "durationTicks": 96,
          "midi": 38,
          "name": "D2",
          "ticks": 26882,
          "time": 54.3696354375,
          "velocity": 1
        },
        {
          "duration": 0.19480499999999523,
          "durationTicks": 96,
          "midi": 38,
          "name": "D2",
          "ticks": 26978,
          "time": 54.564440437500004,
          "velocity": 1
        },
        {
          "duration": 0.19480500000000234,
          "durationTicks": 96,
          "midi": 38,
          "name": "D2",
          "ticks": 27074,
          "time": 54.7592454375,
          "velocity": 1
        },
        {
          "duration": 0.19480500000000234,
          "durationTicks": 96,
          "midi": 38,
          "name": "D2",
          "ticks": 27170,
          "time": 54.9540504375,
          "velocity": 1
        },
        {
          "duration": 0.19480500000000234,
          "durationTicks": 96,
          "midi": 38,
          "name": "D2",
          "ticks": 27266,
          "time": 55.1488554375,
          "velocity": 1
        },
        {
          "duration": 0.19480499999999523,
          "durationTicks": 96,
          "midi": 38,
          "name": "D2",
          "ticks": 27362,
          "time": 55.343660437500006,
          "velocity": 1
        },
        {
          "duration": 0.19480500000000234,
          "durationTicks": 96,
          "midi": 40,
          "name": "E2",
          "ticks": 27458,
          "time": 55.5384654375,
          "velocity": 1
        },
        {
          "duration": 0.19480499999999523,
          "durationTicks": 96,
          "midi": 40,
          "name": "E2",
          "ticks": 27554,
          "time": 55.7332704375,
          "velocity": 1
        },
        {
          "duration": 0.19480500000000234,
          "durationTicks": 96,
          "midi": 40,
          "name": "E2",
          "ticks": 27650,
          "time": 55.9280754375,
          "velocity": 1
        },
        {
          "duration": 0.19480500000000234,
          "durationTicks": 96,
          "midi": 40,
          "name": "E2",
          "ticks": 27746,
          "time": 56.1228804375,
          "velocity": 1
        },
        {
          "duration": 0.19480500000000234,
          "durationTicks": 96,
          "midi": 40,
          "name": "E2",
          "ticks": 27842,
          "time": 56.3176854375,
          "velocity": 1
        },
        {
          "duration": 0.19480499999999523,
          "durationTicks": 96,
          "midi": 40,
          "name": "E2",
          "ticks": 27938,
          "time": 56.512490437500006,
          "velocity": 1
        },
        {
          "duration": 0.19480500000000234,
          "durationTicks": 96,
          "midi": 40,
          "name": "E2",
          "ticks": 28034,
          "time": 56.7072954375,
          "velocity": 1
        },
        {
          "duration": 0.19480499999999523,
          "durationTicks": 96,
          "midi": 40,
          "name": "E2",
          "ticks": 28130,
          "time": 56.9021004375,
          "velocity": 1
        },
        {
          "duration": 0.19480500000000234,
          "durationTicks": 96,
          "midi": 40,
          "name": "E2",
          "ticks": 28226,
          "time": 57.0969054375,
          "velocity": 1
        },
        {
          "duration": 0.19480500000000234,
          "durationTicks": 96,
          "midi": 40,
          "name": "E2",
          "ticks": 28322,
          "time": 57.2917104375,
          "velocity": 1
        },
        {
          "duration": 0.19480500000000234,
          "durationTicks": 96,
          "midi": 40,
          "name": "E2",
          "ticks": 28418,
          "time": 57.4865154375,
          "velocity": 1
        },
        {
          "duration": 0.19480499999999523,
          "durationTicks": 96,
          "midi": 40,
          "name": "E2",
          "ticks": 28514,
          "time": 57.681320437500005,
          "velocity": 1
        },
        {
          "duration": 0.19480500000000234,
          "durationTicks": 96,
          "midi": 40,
          "name": "E2",
          "ticks": 28610,
          "time": 57.8761254375,
          "velocity": 1
        },
        {
          "duration": 0.19480499999999523,
          "durationTicks": 96,
          "midi": 40,
          "name": "E2",
          "ticks": 28706,
          "time": 58.0709304375,
          "velocity": 1
        },
        {
          "duration": 0.19480500000000234,
          "durationTicks": 96,
          "midi": 40,
          "name": "E2",
          "ticks": 28802,
          "time": 58.2657354375,
          "velocity": 1
        },
        {
          "duration": 0.19480500000000234,
          "durationTicks": 96,
          "midi": 40,
          "name": "E2",
          "ticks": 28898,
          "time": 58.4605404375,
          "velocity": 1
        },
        {
          "duration": 0.19480500000000234,
          "durationTicks": 96,
          "midi": 38,
          "name": "D2",
          "ticks": 28994,
          "time": 58.6553454375,
          "velocity": 1
        },
        {
          "duration": 0.19480499999999523,
          "durationTicks": 96,
          "midi": 38,
          "name": "D2",
          "ticks": 29090,
          "time": 58.850150437500005,
          "velocity": 1
        },
        {
          "duration": 0.19480500000000234,
          "durationTicks": 96,
          "midi": 38,
          "name": "D2",
          "ticks": 29186,
          "time": 59.0449554375,
          "velocity": 1
        },
        {
          "duration": 0.19480499999999523,
          "durationTicks": 96,
          "midi": 38,
          "name": "D2",
          "ticks": 29282,
          "time": 59.2397604375,
          "velocity": 1
        },
        {
          "duration": 0.19480500000000234,
          "durationTicks": 96,
          "midi": 38,
          "name": "D2",
          "ticks": 29378,
          "time": 59.4345654375,
          "velocity": 1
        },
        {
          "duration": 0.19480500000000234,
          "durationTicks": 96,
          "midi": 38,
          "name": "D2",
          "ticks": 29474,
          "time": 59.6293704375,
          "velocity": 1
        },
        {
          "duration": 0.19480500000000234,
          "durationTicks": 96,
          "midi": 38,
          "name": "D2",
          "ticks": 29570,
          "time": 59.8241754375,
          "velocity": 1
        },
        {
          "duration": 0.19480499999999523,
          "durationTicks": 96,
          "midi": 38,
          "name": "D2",
          "ticks": 29666,
          "time": 60.018980437500005,
          "velocity": 1
        },
        {
          "duration": 0.19480500000000234,
          "durationTicks": 96,
          "midi": 38,
          "name": "D2",
          "ticks": 29762,
          "time": 60.2137854375,
          "velocity": 1
        },
        {
          "duration": 0.19480499999999523,
          "durationTicks": 96,
          "midi": 38,
          "name": "D2",
          "ticks": 29858,
          "time": 60.4085904375,
          "velocity": 1
        },
        {
          "duration": 0.19480500000000234,
          "durationTicks": 96,
          "midi": 38,
          "name": "D2",
          "ticks": 29954,
          "time": 60.6033954375,
          "velocity": 1
        },
        {
          "duration": 0.19480500000000234,
          "durationTicks": 96,
          "midi": 38,
          "name": "D2",
          "ticks": 30050,
          "time": 60.7982004375,
          "velocity": 1
        },
        {
          "duration": 0.19480500000000234,
          "durationTicks": 96,
          "midi": 38,
          "name": "D2",
          "ticks": 30146,
          "time": 60.9930054375,
          "velocity": 1
        },
        {
          "duration": 0.19480500000000234,
          "durationTicks": 96,
          "midi": 38,
          "name": "D2",
          "ticks": 30242,
          "time": 61.187810437500005,
          "velocity": 1
        },
        {
          "duration": 0.19480499999999523,
          "durationTicks": 96,
          "midi": 38,
          "name": "D2",
          "ticks": 30338,
          "time": 61.38261543750001,
          "velocity": 1
        },
        {
          "duration": 0.19480895833333278,
          "durationTicks": 96,
          "midi": 38,
          "name": "D2",
          "ticks": 30434,
          "time": 61.5774204375,
          "velocity": 1
        },
        {
          "duration": 0.1949950000000058,
          "durationTicks": 96,
          "midi": 40,
          "name": "E2",
          "ticks": 69842,
          "time": 141.62268189583335,
          "velocity": 1
        },
        {
          "duration": 0.1949950000000058,
          "durationTicks": 96,
          "midi": 40,
          "name": "E2",
          "ticks": 69938,
          "time": 141.81767689583336,
          "velocity": 1
        },
        {
          "duration": 0.1949950000000058,
          "durationTicks": 96,
          "midi": 40,
          "name": "E2",
          "ticks": 70034,
          "time": 142.01267189583336,
          "velocity": 1
        },
        {
          "duration": 0.19499499999997738,
          "durationTicks": 96,
          "midi": 40,
          "name": "E2",
          "ticks": 70130,
          "time": 142.20766689583337,
          "velocity": 1
        },
        {
          "duration": 0.1949950000000058,
          "durationTicks": 96,
          "midi": 40,
          "name": "E2",
          "ticks": 70226,
          "time": 142.40266189583335,
          "velocity": 1
        },
        {
          "duration": 0.1949950000000058,
          "durationTicks": 96,
          "midi": 40,
          "name": "E2",
          "ticks": 70322,
          "time": 142.59765689583335,
          "velocity": 1
        },
        {
          "duration": 0.1949950000000058,
          "durationTicks": 96,
          "midi": 40,
          "name": "E2",
          "ticks": 70418,
          "time": 142.79265189583336,
          "velocity": 1
        },
        {
          "duration": 0.19499499999997738,
          "durationTicks": 96,
          "midi": 40,
          "name": "E2",
          "ticks": 70514,
          "time": 142.98764689583336,
          "velocity": 1
        },
        {
          "duration": 0.1949950000000058,
          "durationTicks": 96,
          "midi": 36,
          "name": "C2",
          "ticks": 70610,
          "time": 143.18264189583334,
          "velocity": 1
        },
        {
          "duration": 0.1949950000000058,
          "durationTicks": 96,
          "midi": 36,
          "name": "C2",
          "ticks": 70706,
          "time": 143.37763689583335,
          "velocity": 1
        },
        {
          "duration": 0.1949950000000058,
          "durationTicks": 96,
          "midi": 36,
          "name": "C2",
          "ticks": 70802,
          "time": 143.57263189583335,
          "velocity": 1
        },
        {
          "duration": 0.1949950000000058,
          "durationTicks": 96,
          "midi": 36,
          "name": "C2",
          "ticks": 70898,
          "time": 143.76762689583336,
          "velocity": 1
        },
        {
          "duration": 0.19499499999997738,
          "durationTicks": 96,
          "midi": 38,
          "name": "D2",
          "ticks": 70994,
          "time": 143.96262189583337,
          "velocity": 1
        },
        {
          "duration": 0.1949950000000058,
          "durationTicks": 96,
          "midi": 38,
          "name": "D2",
          "ticks": 71090,
          "time": 144.15761689583334,
          "velocity": 1
        },
        {
          "duration": 0.1949950000000058,
          "durationTicks": 96,
          "midi": 38,
          "name": "D2",
          "ticks": 71186,
          "time": 144.35261189583335,
          "velocity": 1
        },
        {
          "duration": 0.1949950000000058,
          "durationTicks": 96,
          "midi": 38,
          "name": "D2",
          "ticks": 71282,
          "time": 144.54760689583335,
          "velocity": 1
        },
        {
          "duration": 0.1949950000000058,
          "durationTicks": 96,
          "midi": 52,
          "name": "E3",
          "ticks": 71378,
          "time": 144.74260189583336,
          "velocity": 1
        },
        {
          "duration": 0.19499499999997738,
          "durationTicks": 96,
          "midi": 52,
          "name": "E3",
          "ticks": 71474,
          "time": 144.93759689583337,
          "velocity": 1
        },
        {
          "duration": 0.1949950000000058,
          "durationTicks": 96,
          "midi": 52,
          "name": "E3",
          "ticks": 71570,
          "time": 145.13259189583334,
          "velocity": 1
        },
        {
          "duration": 0.1949950000000058,
          "durationTicks": 96,
          "midi": 52,
          "name": "E3",
          "ticks": 71666,
          "time": 145.32758689583335,
          "velocity": 1
        },
        {
          "duration": 0.1949950000000058,
          "durationTicks": 96,
          "midi": 52,
          "name": "E3",
          "ticks": 71762,
          "time": 145.52258189583335,
          "velocity": 1
        },
        {
          "duration": 0.1949950000000058,
          "durationTicks": 96,
          "midi": 52,
          "name": "E3",
          "ticks": 71858,
          "time": 145.71757689583336,
          "velocity": 1
        },
        {
          "duration": 0.19499499999997738,
          "durationTicks": 96,
          "midi": 52,
          "name": "E3",
          "ticks": 71954,
          "time": 145.91257189583337,
          "velocity": 1
        },
        {
          "duration": 0.1949950000000058,
          "durationTicks": 96,
          "midi": 52,
          "name": "E3",
          "ticks": 72050,
          "time": 146.10756689583334,
          "velocity": 1
        },
        {
          "duration": 0.1949950000000058,
          "durationTicks": 96,
          "midi": 52,
          "name": "E3",
          "ticks": 72146,
          "time": 146.30256189583335,
          "velocity": 1
        },
        {
          "duration": 0.1949950000000058,
          "durationTicks": 96,
          "midi": 52,
          "name": "E3",
          "ticks": 72242,
          "time": 146.49755689583336,
          "velocity": 1
        },
        {
          "duration": 0.1949950000000058,
          "durationTicks": 96,
          "midi": 52,
          "name": "E3",
          "ticks": 72338,
          "time": 146.69255189583336,
          "velocity": 1
        },
        {
          "duration": 0.19499499999997738,
          "durationTicks": 96,
          "midi": 52,
          "name": "E3",
          "ticks": 72434,
          "time": 146.88754689583337,
          "velocity": 1
        },
        {
          "duration": 0.1949950000000058,
          "durationTicks": 96,
          "midi": 57,
          "name": "A3",
          "ticks": 72530,
          "time": 147.08254189583334,
          "velocity": 1
        },
        {
          "duration": 0.1949950000000058,
          "durationTicks": 96,
          "midi": 59,
          "name": "B3",
          "ticks": 72626,
          "time": 147.27753689583335,
          "velocity": 1
        },
        {
          "duration": 0.1949950000000058,
          "durationTicks": 96,
          "midi": 62,
          "name": "D4",
          "ticks": 72722,
          "time": 147.47253189583336,
          "velocity": 1
        },
        {
          "duration": 0.19499499999997738,
          "durationTicks": 96,
          "midi": 64,
          "name": "E4",
          "ticks": 72818,
          "time": 147.66752689583336,
          "velocity": 1
        },
        {
          "duration": 0.1949950000000058,
          "durationTicks": 96,
          "midi": 40,
          "name": "E2",
          "ticks": 72914,
          "time": 147.86252189583334,
          "velocity": 1
        },
        {
          "duration": 0.1949950000000058,
          "durationTicks": 96,
          "midi": 40,
          "name": "E2",
          "ticks": 73010,
          "time": 148.05751689583334,
          "velocity": 1
        },
        {
          "duration": 0.1949950000000058,
          "durationTicks": 96,
          "midi": 40,
          "name": "E2",
          "ticks": 73106,
          "time": 148.25251189583335,
          "velocity": 1
        },
        {
          "duration": 0.19499499999997738,
          "durationTicks": 96,
          "midi": 40,
          "name": "E2",
          "ticks": 73202,
          "time": 148.44750689583336,
          "velocity": 1
        },
        {
          "duration": 0.1949950000000058,
          "durationTicks": 96,
          "midi": 40,
          "name": "E2",
          "ticks": 73298,
          "time": 148.64250189583333,
          "velocity": 1
        },
        {
          "duration": 0.1949950000000058,
          "durationTicks": 96,
          "midi": 40,
          "name": "E2",
          "ticks": 73394,
          "time": 148.83749689583334,
          "velocity": 1
        },
        {
          "duration": 0.1949950000000058,
          "durationTicks": 96,
          "midi": 40,
          "name": "E2",
          "ticks": 73490,
          "time": 149.03249189583335,
          "velocity": 1
        },
        {
          "duration": 0.19499499999997738,
          "durationTicks": 96,
          "midi": 40,
          "name": "E2",
          "ticks": 73586,
          "time": 149.22748689583335,
          "velocity": 1
        },
        {
          "duration": 0.1949950000000058,
          "durationTicks": 96,
          "midi": 36,
          "name": "C2",
          "ticks": 73682,
          "time": 149.42248189583333,
          "velocity": 1
        },
        {
          "duration": 0.1949950000000058,
          "durationTicks": 96,
          "midi": 36,
          "name": "C2",
          "ticks": 73778,
          "time": 149.61747689583333,
          "velocity": 1
        },
        {
          "duration": 0.1949950000000058,
          "durationTicks": 96,
          "midi": 36,
          "name": "C2",
          "ticks": 73874,
          "time": 149.81247189583334,
          "velocity": 1
        },
        {
          "duration": 0.1949950000000058,
          "durationTicks": 96,
          "midi": 36,
          "name": "C2",
          "ticks": 73970,
          "time": 150.00746689583335,
          "velocity": 1
        },
        {
          "duration": 0.19499499999997738,
          "durationTicks": 96,
          "midi": 38,
          "name": "D2",
          "ticks": 74066,
          "time": 150.20246189583335,
          "velocity": 1
        },
        {
          "duration": 0.1949950000000058,
          "durationTicks": 96,
          "midi": 38,
          "name": "D2",
          "ticks": 74162,
          "time": 150.39745689583333,
          "velocity": 1
        },
        {
          "duration": 0.1949950000000058,
          "durationTicks": 96,
          "midi": 38,
          "name": "D2",
          "ticks": 74258,
          "time": 150.59245189583334,
          "velocity": 1
        },
        {
          "duration": 0.1949950000000058,
          "durationTicks": 96,
          "midi": 38,
          "name": "D2",
          "ticks": 74354,
          "time": 150.78744689583334,
          "velocity": 1
        },
        {
          "duration": 0.1949950000000058,
          "durationTicks": 96,
          "midi": 52,
          "name": "E3",
          "ticks": 74450,
          "time": 150.98244189583335,
          "velocity": 1
        },
        {
          "duration": 0.19499499999997738,
          "durationTicks": 96,
          "midi": 52,
          "name": "E3",
          "ticks": 74546,
          "time": 151.17743689583335,
          "velocity": 1
        },
        {
          "duration": 0.1949950000000058,
          "durationTicks": 96,
          "midi": 52,
          "name": "E3",
          "ticks": 74642,
          "time": 151.37243189583333,
          "velocity": 1
        },
        {
          "duration": 0.1949950000000058,
          "durationTicks": 96,
          "midi": 52,
          "name": "E3",
          "ticks": 74738,
          "time": 151.56742689583334,
          "velocity": 1
        },
        {
          "duration": 0.1949950000000058,
          "durationTicks": 96,
          "midi": 52,
          "name": "E3",
          "ticks": 74834,
          "time": 151.76242189583334,
          "velocity": 1
        },
        {
          "duration": 0.1949950000000058,
          "durationTicks": 96,
          "midi": 52,
          "name": "E3",
          "ticks": 74930,
          "time": 151.95741689583335,
          "velocity": 1
        },
        {
          "duration": 0.19499499999997738,
          "durationTicks": 96,
          "midi": 52,
          "name": "E3",
          "ticks": 75026,
          "time": 152.15241189583335,
          "velocity": 1
        },
        {
          "duration": 0.1949950000000058,
          "durationTicks": 96,
          "midi": 52,
          "name": "E3",
          "ticks": 75122,
          "time": 152.34740689583333,
          "velocity": 1
        },
        {
          "duration": 0.1949950000000058,
          "durationTicks": 96,
          "midi": 52,
          "name": "E3",
          "ticks": 75218,
          "time": 152.54240189583334,
          "velocity": 1
        },
        {
          "duration": 0.1949950000000058,
          "durationTicks": 96,
          "midi": 52,
          "name": "E3",
          "ticks": 75314,
          "time": 152.73739689583334,
          "velocity": 1
        },
        {
          "duration": 0.1949950000000058,
          "durationTicks": 96,
          "midi": 52,
          "name": "E3",
          "ticks": 75410,
          "time": 152.93239189583335,
          "velocity": 1
        },
        {
          "duration": 0.19499499999997738,
          "durationTicks": 96,
          "midi": 52,
          "name": "E3",
          "ticks": 75506,
          "time": 153.12738689583335,
          "velocity": 1
        },
        {
          "duration": 0.1949950000000058,
          "durationTicks": 96,
          "midi": 57,
          "name": "A3",
          "ticks": 75602,
          "time": 153.32238189583333,
          "velocity": 1
        },
        {
          "duration": 0.1949950000000058,
          "durationTicks": 96,
          "midi": 59,
          "name": "B3",
          "ticks": 75698,
          "time": 153.51737689583334,
          "velocity": 1
        },
        {
          "duration": 0.1949950000000058,
          "durationTicks": 96,
          "midi": 62,
          "name": "D4",
          "ticks": 75794,
          "time": 153.71237189583334,
          "velocity": 1
        },
        {
          "duration": 0.19499499999997738,
          "durationTicks": 96,
          "midi": 64,
          "name": "E4",
          "ticks": 75890,
          "time": 153.90736689583335,
          "velocity": 1
        }
      ]
    },
    {
      "channel": 0,
      "controlChanges": {
        "7": [
          {
            "number": 7,
            "ticks": 0,
            "time": 0,
            "value": 1
          },
          {
            "number": 7,
            "ticks": 607,
            "time": 1.2329371354166667,
            "value": 1
          }
        ],
        "10": [
          {
            "number": 10,
            "ticks": 0,
            "time": 0,
            "value": 0.5196850393700787
          }
        ]
      },
      "pitchBends": [],
      "instrument": {
        "family": "bass",
        "name": "electric bass (finger)",
        "number": 33
      },
      "name": "",
      "notes": [],
      "endOfTrackTicks": 82944
    },
    {
      "channel": 6,
      "controlChanges": {},
      "pitchBends": [],
      "instrument": {
        "family": "guitar",
        "name": "distortion guitar",
        "number": 30
      },
      "name": "",
      "notes": [
        {
          "duration": 3.1199199999999996,
          "durationTicks": 1536,
          "midi": 40,
          "name": "E2",
          "ticks": 960,
          "time": 1.94995,
          "velocity": 0.7874015748031497
        },
        {
          "duration": 3.1199199999999996,
          "durationTicks": 1536,
          "midi": 47,
          "name": "B2",
          "ticks": 960,
          "time": 1.94995,
          "velocity": 0.7874015748031497
        },
        {
          "duration": 1.9499500000000003,
          "durationTicks": 960,
          "midi": 40,
          "name": "E2",
          "ticks": 2496,
          "time": 5.06987,
          "velocity": 0.7874015748031497
        },
        {
          "duration": 1.9499500000000003,
          "durationTicks": 960,
          "midi": 47,
          "name": "B2",
          "ticks": 2496,
          "time": 5.06987,
          "velocity": 0.7874015748031497
        },
        {
          "duration": 1.5599600000000002,
          "durationTicks": 768,
          "midi": 40,
          "name": "E2",
          "ticks": 12576,
          "time": 25.322247,
          "velocity": 0.7874015748031497
        },
        {
          "duration": 1.5599600000000002,
          "durationTicks": 768,
          "midi": 47,
          "name": "B2",
          "ticks": 12576,
          "time": 25.322247,
          "velocity": 0.7874015748031497
        },
        {
          "duration": 0.7799800000000019,
          "durationTicks": 384,
          "midi": 36,
          "name": "C2",
          "ticks": 13344,
          "time": 26.882207,
          "velocity": 0.7874015748031497
        },
        {
          "duration": 0.7799800000000019,
          "durationTicks": 384,
          "midi": 43,
          "name": "G2",
          "ticks": 13344,
          "time": 26.882207,
          "velocity": 0.7874015748031497
        },
        {
          "duration": 0.7799799999999983,
          "durationTicks": 384,
          "midi": 38,
          "name": "D2",
          "ticks": 13728,
          "time": 27.662187000000003,
          "velocity": 0.7874015748031497
        },
        {
          "duration": 0.7799799999999983,
          "durationTicks": 384,
          "midi": 45,
          "name": "A2",
          "ticks": 13728,
          "time": 27.662187000000003,
          "velocity": 0.7874015748031497
        },
        {
          "duration": 0.19499500000000225,
          "durationTicks": 96,
          "midi": 52,
          "name": "E3",
          "ticks": 14112,
          "time": 28.442167,
          "velocity": 0.7874015748031497
        },
        {
          "duration": 0.19499500000000225,
          "durationTicks": 96,
          "midi": 59,
          "name": "B3",
          "ticks": 14112,
          "time": 28.442167,
          "velocity": 0.7874015748031497
        },
        {
          "duration": 0.1949949999999987,
          "durationTicks": 96,
          "midi": 52,
          "name": "E3",
          "ticks": 14208,
          "time": 28.637162000000004,
          "velocity": 0.7874015748031497
        },
        {
          "duration": 0.1949949999999987,
          "durationTicks": 96,
          "midi": 59,
          "name": "B3",
          "ticks": 14208,
          "time": 28.637162000000004,
          "velocity": 0.7874015748031497
        },
        {
          "duration": 0.1949949999999987,
          "durationTicks": 96,
          "midi": 52,
          "name": "E3",
          "ticks": 14304,
          "time": 28.832157000000002,
          "velocity": 0.7874015748031497
        },
        {
          "duration": 0.1949949999999987,
          "durationTicks": 96,
          "midi": 59,
          "name": "B3",
          "ticks": 14304,
          "time": 28.832157000000002,
          "velocity": 0.7874015748031497
        },
        {
          "duration": 0.19499500000000225,
          "durationTicks": 96,
          "midi": 52,
          "name": "E3",
          "ticks": 14400,
          "time": 29.027152,
          "velocity": 0.7874015748031497
        },
        {
          "duration": 0.19499500000000225,
          "durationTicks": 96,
          "midi": 59,
          "name": "B3",
          "ticks": 14400,
          "time": 29.027152,
          "velocity": 0.7874015748031497
        },
        {
          "duration": 0.1949949999999987,
          "durationTicks": 96,
          "midi": 52,
          "name": "E3",
          "ticks": 14496,
          "time": 29.222147000000003,
          "velocity": 0.7874015748031497
        },
        {
          "duration": 0.1949949999999987,
          "durationTicks": 96,
          "midi": 59,
          "name": "B3",
          "ticks": 14496,
          "time": 29.222147000000003,
          "velocity": 0.7874015748031497
        },
        {
          "duration": 0.19499500000000225,
          "durationTicks": 96,
          "midi": 52,
          "name": "E3",
          "ticks": 14592,
          "time": 29.417142000000002,
          "velocity": 0.7874015748031497
        },
        {
          "duration": 0.19499500000000225,
          "durationTicks": 96,
          "midi": 59,
          "name": "B3",
          "ticks": 14592,
          "time": 29.417142000000002,
          "velocity": 0.7874015748031497
        },
        {
          "duration": 0.1949949999999987,
          "durationTicks": 96,
          "midi": 52,
          "name": "E3",
          "ticks": 14688,
          "time": 29.612137000000004,
          "velocity": 0.7874015748031497
        },
        {
          "duration": 0.1949949999999987,
          "durationTicks": 96,
          "midi": 59,
          "name": "B3",
          "ticks": 14688,
          "time": 29.612137000000004,
          "velocity": 0.7874015748031497
        },
        {
          "duration": 0.1949949999999987,
          "durationTicks": 96,
          "midi": 52,
          "name": "E3",
          "ticks": 14784,
          "time": 29.807132000000003,
          "velocity": 0.7874015748031497
        },
        {
          "duration": 0.1949949999999987,
          "durationTicks": 96,
          "midi": 59,
          "name": "B3",
          "ticks": 14784,
          "time": 29.807132000000003,
          "velocity": 0.7874015748031497
        },
        {
          "duration": 0.19499500000000225,
          "durationTicks": 96,
          "midi": 52,
          "name": "E3",
          "ticks": 14880,
          "time": 30.002127,
          "velocity": 0.7874015748031497
        },
        {
          "duration": 0.19499500000000225,
          "durationTicks": 96,
          "midi": 59,
          "name": "B3",
          "ticks": 14880,
          "time": 30.002127,
          "velocity": 0.7874015748031497
        },
        {
          "duration": 0.1949949999999987,
          "durationTicks": 96,
          "midi": 52,
          "name": "E3",
          "ticks": 14976,
          "time": 30.197122000000004,
          "velocity": 0.7874015748031497
        },
        {
          "duration": 0.1949949999999987,
          "durationTicks": 96,
          "midi": 59,
          "name": "B3",
          "ticks": 14976,
          "time": 30.197122000000004,
          "velocity": 0.7874015748031497
        },
        {
          "duration": 0.19499500000000225,
          "durationTicks": 96,
          "midi": 52,
          "name": "E3",
          "ticks": 15072,
          "time": 30.392117000000002,
          "velocity": 0.7874015748031497
        },
        {
          "duration": 0.19499500000000225,
          "durationTicks": 96,
          "midi": 59,
          "name": "B3",
          "ticks": 15072,
          "time": 30.392117000000002,
          "velocity": 0.7874015748031497
        },
        {
          "duration": 0.1949949999999987,
          "durationTicks": 96,
          "midi": 52,
          "name": "E3",
          "ticks": 15168,
          "time": 30.587112000000005,
          "velocity": 0.7874015748031497
        },
        {
          "duration": 0.1949949999999987,
          "durationTicks": 96,
          "midi": 59,
          "name": "B3",
          "ticks": 15168,
          "time": 30.587112000000005,
          "velocity": 0.7874015748031497
        },
        {
          "duration": 0.1949949999999987,
          "durationTicks": 96,
          "midi": 52,
          "name": "E3",
          "ticks": 15264,
          "time": 30.782107000000003,
          "velocity": 0.7874015748031497
        },
        {
          "duration": 0.1949949999999987,
          "durationTicks": 96,
          "midi": 59,
          "name": "B3",
          "ticks": 15264,
          "time": 30.782107000000003,
          "velocity": 0.7874015748031497
        },
        {
          "duration": 0.19499500000000225,
          "durationTicks": 96,
          "midi": 52,
          "name": "E3",
          "ticks": 15360,
          "time": 30.977102000000002,
          "velocity": 0.7874015748031497
        },
        {
          "duration": 0.19499500000000225,
          "durationTicks": 96,
          "midi": 59,
          "name": "B3",
          "ticks": 15360,
          "time": 30.977102000000002,
          "velocity": 0.7874015748031497
        },
        {
          "duration": 0.1949949999999987,
          "durationTicks": 96,
          "midi": 52,
          "name": "E3",
          "ticks": 15456,
          "time": 31.172097000000004,
          "velocity": 0.7874015748031497
        },
        {
          "duration": 0.1949949999999987,
          "durationTicks": 96,
          "midi": 59,
          "name": "B3",
          "ticks": 15456,
          "time": 31.172097000000004,
          "velocity": 0.7874015748031497
        },
        {
          "duration": 0.1949949999999987,
          "durationTicks": 96,
          "midi": 52,
          "name": "E3",
          "ticks": 15552,
          "time": 31.367092000000003,
          "velocity": 0.7874015748031497
        },
        {
          "duration": 0.1949949999999987,
          "durationTicks": 96,
          "midi": 59,
          "name": "B3",
          "ticks": 15552,
          "time": 31.367092000000003,
          "velocity": 0.7874015748031497
        },
        {
          "duration": 1.5599600000000002,
          "durationTicks": 768,
          "midi": 40,
          "name": "E2",
          "ticks": 15648,
          "time": 31.562087000000002,
          "velocity": 0.7874015748031497
        },
        {
          "duration": 1.5599600000000002,
          "durationTicks": 768,
          "midi": 47,
          "name": "B2",
          "ticks": 15648,
          "time": 31.562087000000002,
          "velocity": 0.7874015748031497
        },
        {
          "duration": 0.7799800000000019,
          "durationTicks": 384,
          "midi": 36,
          "name": "C2",
          "ticks": 16416,
          "time": 33.122047,
          "velocity": 0.7874015748031497
        },
        {
          "duration": 0.7799800000000019,
          "durationTicks": 384,
          "midi": 43,
          "name": "G2",
          "ticks": 16416,
          "time": 33.122047,
          "velocity": 0.7874015748031497
        },
        {
          "duration": 0.7799800000000019,
          "durationTicks": 384,
          "midi": 38,
          "name": "D2",
          "ticks": 16800,
          "time": 33.902027000000004,
          "velocity": 0.7874015748031497
        },
        {
          "duration": 0.7799800000000019,
          "durationTicks": 384,
          "midi": 45,
          "name": "A2",
          "ticks": 16800,
          "time": 33.902027000000004,
          "velocity": 0.7874015748031497
        },
        {
          "duration": 0.1949949999999987,
          "durationTicks": 96,
          "midi": 52,
          "name": "E3",
          "ticks": 17184,
          "time": 34.682007000000006,
          "velocity": 0.7874015748031497
        },
        {
          "duration": 0.1949949999999987,
          "durationTicks": 96,
          "midi": 59,
          "name": "B3",
          "ticks": 17184,
          "time": 34.682007000000006,
          "velocity": 0.7874015748031497
        },
        {
          "duration": 0.1949949999999987,
          "durationTicks": 96,
          "midi": 52,
          "name": "E3",
          "ticks": 17280,
          "time": 34.877002000000005,
          "velocity": 0.7874015748031497
        },
        {
          "duration": 0.1949949999999987,
          "durationTicks": 96,
          "midi": 59,
          "name": "B3",
          "ticks": 17280,
          "time": 34.877002000000005,
          "velocity": 0.7874015748031497
        },
        {
          "duration": 0.1949949999999987,
          "durationTicks": 96,
          "midi": 52,
          "name": "E3",
          "ticks": 17376,
          "time": 35.071997,
          "velocity": 0.7874015748031497
        },
        {
          "duration": 0.1949949999999987,
          "durationTicks": 96,
          "midi": 59,
          "name": "B3",
          "ticks": 17376,
          "time": 35.071997,
          "velocity": 0.7874015748031497
        },
        {
          "duration": 0.1949949999999987,
          "durationTicks": 96,
          "midi": 52,
          "name": "E3",
          "ticks": 17472,
          "time": 35.266992,
          "velocity": 0.7874015748031497
        },
        {
          "duration": 0.1949949999999987,
          "durationTicks": 96,
          "midi": 59,
          "name": "B3",
          "ticks": 17472,
          "time": 35.266992,
          "velocity": 0.7874015748031497
        },
        {
          "duration": 0.1949950000000058,
          "durationTicks": 96,
          "midi": 52,
          "name": "E3",
          "ticks": 17568,
          "time": 35.461987,
          "velocity": 0.7874015748031497
        },
        {
          "duration": 0.1949950000000058,
          "durationTicks": 96,
          "midi": 59,
          "name": "B3",
          "ticks": 17568,
          "time": 35.461987,
          "velocity": 0.7874015748031497
        },
        {
          "duration": 0.1949949999999987,
          "durationTicks": 96,
          "midi": 52,
          "name": "E3",
          "ticks": 17664,
          "time": 35.656982000000006,
          "velocity": 0.7874015748031497
        },
        {
          "duration": 0.1949949999999987,
          "durationTicks": 96,
          "midi": 59,
          "name": "B3",
          "ticks": 17664,
          "time": 35.656982000000006,
          "velocity": 0.7874015748031497
        },
        {
          "duration": 0.1949949999999987,
          "durationTicks": 96,
          "midi": 52,
          "name": "E3",
          "ticks": 17760,
          "time": 35.851977000000005,
          "velocity": 0.7874015748031497
        },
        {
          "duration": 0.1949949999999987,
          "durationTicks": 96,
          "midi": 59,
          "name": "B3",
          "ticks": 17760,
          "time": 35.851977000000005,
          "velocity": 0.7874015748031497
        },
        {
          "duration": 0.1949949999999987,
          "durationTicks": 96,
          "midi": 52,
          "name": "E3",
          "ticks": 17856,
          "time": 36.046972000000004,
          "velocity": 0.7874015748031497
        },
        {
          "duration": 0.1949949999999987,
          "durationTicks": 96,
          "midi": 59,
          "name": "B3",
          "ticks": 17856,
          "time": 36.046972000000004,
          "velocity": 0.7874015748031497
        },
        {
          "duration": 0.1949949999999987,
          "durationTicks": 96,
          "midi": 52,
          "name": "E3",
          "ticks": 17952,
          "time": 36.241967,
          "velocity": 0.7874015748031497
        },
        {
          "duration": 0.1949949999999987,
          "durationTicks": 96,
          "midi": 59,
          "name": "B3",
          "ticks": 17952,
          "time": 36.241967,
          "velocity": 0.7874015748031497
        },
        {
          "duration": 0.1949949999999987,
          "durationTicks": 96,
          "midi": 52,
          "name": "E3",
          "ticks": 18048,
          "time": 36.436962,
          "velocity": 0.7874015748031497
        },
        {
          "duration": 0.1949949999999987,
          "durationTicks": 96,
          "midi": 59,
          "name": "B3",
          "ticks": 18048,
          "time": 36.436962,
          "velocity": 0.7874015748031497
        },
        {
          "duration": 0.1949950000000058,
          "durationTicks": 96,
          "midi": 52,
          "name": "E3",
          "ticks": 18144,
          "time": 36.631957,
          "velocity": 0.7874015748031497
        },
        {
          "duration": 0.1949950000000058,
          "durationTicks": 96,
          "midi": 59,
          "name": "B3",
          "ticks": 18144,
          "time": 36.631957,
          "velocity": 0.7874015748031497
        },
        {
          "duration": 0.1949949999999987,
          "durationTicks": 96,
          "midi": 52,
          "name": "E3",
          "ticks": 18240,
          "time": 36.826952000000006,
          "velocity": 0.7874015748031497
        },
        {
          "duration": 0.1949949999999987,
          "durationTicks": 96,
          "midi": 59,
          "name": "B3",
          "ticks": 18240,
          "time": 36.826952000000006,
          "velocity": 0.7874015748031497
        },
        {
          "duration": 0.1949949999999987,
          "durationTicks": 96,
          "midi": 52,
          "name": "E3",
          "ticks": 18336,
          "time": 37.021947000000004,
          "velocity": 0.7874015748031497
        },
        {
          "duration": 0.1949949999999987,
          "durationTicks": 96,
          "midi": 59,
          "name": "B3",
          "ticks": 18336,
          "time": 37.021947000000004,
          "velocity": 0.7874015748031497
        },
        {
          "duration": 0.1949949999999987,
          "durationTicks": 96,
          "midi": 52,
          "name": "E3",
          "ticks": 18432,
          "time": 37.216942,
          "velocity": 0.7874015748031497
        },
        {
          "duration": 0.1949949999999987,
          "durationTicks": 96,
          "midi": 59,
          "name": "B3",
          "ticks": 18432,
          "time": 37.216942,
          "velocity": 0.7874015748031497
        },
        {
          "duration": 0.1949950000000058,
          "durationTicks": 96,
          "midi": 52,
          "name": "E3",
          "ticks": 18528,
          "time": 37.411937,
          "velocity": 0.7874015748031497
        },
        {
          "duration": 0.1949950000000058,
          "durationTicks": 96,
          "midi": 59,
          "name": "B3",
          "ticks": 18528,
          "time": 37.411937,
          "velocity": 0.7874015748031497
        },
        {
          "duration": 0.1949949999999987,
          "durationTicks": 96,
          "midi": 52,
          "name": "E3",
          "ticks": 18624,
          "time": 37.60693200000001,
          "velocity": 0.7874015748031497
        },
        {
          "duration": 0.1949949999999987,
          "durationTicks": 96,
          "midi": 59,
          "name": "B3",
          "ticks": 18624,
          "time": 37.60693200000001,
          "velocity": 0.7874015748031497
        },
        {
          "duration": 3.116880000000002,
          "durationTicks": 1536,
          "midi": 40,
          "name": "E2",
          "ticks": 24768,
          "time": 50.079867,
          "velocity": 0.7874015748031497
        },
        {
          "duration": 3.116880000000002,
          "durationTicks": 1536,
          "midi": 47,
          "name": "B2",
          "ticks": 24768,
          "time": 50.079867,
          "velocity": 0.7874015748031497
        },
        {
          "duration": 3.116880000000002,
          "durationTicks": 1536,
          "midi": 38,
          "name": "D2",
          "ticks": 26304,
          "time": 53.196747,
          "velocity": 0.7874015748031497
        },
        {
          "duration": 3.116880000000002,
          "durationTicks": 1536,
          "midi": 45,
          "name": "A2",
          "ticks": 26304,
          "time": 53.196747,
          "velocity": 0.7874015748031497
        },
        {
          "duration": 3.116880000000002,
          "durationTicks": 1536,
          "midi": 40,
          "name": "E2",
          "ticks": 27840,
          "time": 56.313627000000004,
          "velocity": 0.7874015748031497
        },
        {
          "duration": 3.116880000000002,
          "durationTicks": 1536,
          "midi": 47,
          "name": "B2",
          "ticks": 27840,
          "time": 56.313627000000004,
          "velocity": 0.7874015748031497
        },
        {
          "duration": 3.1176400000000015,
          "durationTicks": 1536,
          "midi": 38,
          "name": "D2",
          "ticks": 29376,
          "time": 59.430507000000006,
          "velocity": 0.7874015748031497
        },
        {
          "duration": 3.1176400000000015,
          "durationTicks": 1536,
          "midi": 45,
          "name": "A2",
          "ticks": 29376,
          "time": 59.430507000000006,
          "velocity": 0.7874015748031497
        },
        {
          "duration": 1.559960000000018,
          "durationTicks": 768,
          "midi": 40,
          "name": "E2",
          "ticks": 70224,
          "time": 142.39859950000002,
          "velocity": 0.7874015748031497
        },
        {
          "duration": 1.559960000000018,
          "durationTicks": 768,
          "midi": 47,
          "name": "B2",
          "ticks": 70224,
          "time": 142.39859950000002,
          "velocity": 0.7874015748031497
        },
        {
          "duration": 0.7799799999999948,
          "durationTicks": 384,
          "midi": 36,
          "name": "C2",
          "ticks": 70992,
          "time": 143.95855950000004,
          "velocity": 0.7874015748031497
        },
        {
          "duration": 0.7799799999999948,
          "durationTicks": 384,
          "midi": 43,
          "name": "G2",
          "ticks": 70992,
          "time": 143.95855950000004,
          "velocity": 0.7874015748031497
        },
        {
          "duration": 0.7799799999999948,
          "durationTicks": 384,
          "midi": 38,
          "name": "D2",
          "ticks": 71376,
          "time": 144.73853950000003,
          "velocity": 0.7874015748031497
        },
        {
          "duration": 0.7799799999999948,
          "durationTicks": 384,
          "midi": 45,
          "name": "A2",
          "ticks": 71376,
          "time": 144.73853950000003,
          "velocity": 0.7874015748031497
        },
        {
          "duration": 0.1949950000000058,
          "durationTicks": 96,
          "midi": 52,
          "name": "E3",
          "ticks": 71760,
          "time": 145.51851950000002,
          "velocity": 0.7874015748031497
        },
        {
          "duration": 0.1949950000000058,
          "durationTicks": 96,
          "midi": 59,
          "name": "B3",
          "ticks": 71760,
          "time": 145.51851950000002,
          "velocity": 0.7874015748031497
        },
        {
          "duration": 0.1949950000000058,
          "durationTicks": 96,
          "midi": 52,
          "name": "E3",
          "ticks": 71856,
          "time": 145.71351450000003,
          "velocity": 0.7874015748031497
        },
        {
          "duration": 0.1949950000000058,
          "durationTicks": 96,
          "midi": 59,
          "name": "B3",
          "ticks": 71856,
          "time": 145.71351450000003,
          "velocity": 0.7874015748031497
        },
        {
          "duration": 0.19499499999997738,
          "durationTicks": 96,
          "midi": 52,
          "name": "E3",
          "ticks": 71952,
          "time": 145.90850950000004,
          "velocity": 0.7874015748031497
        },
        {
          "duration": 0.19499499999997738,
          "durationTicks": 96,
          "midi": 59,
          "name": "B3",
          "ticks": 71952,
          "time": 145.90850950000004,
          "velocity": 0.7874015748031497
        },
        {
          "duration": 0.1949950000000058,
          "durationTicks": 96,
          "midi": 52,
          "name": "E3",
          "ticks": 72048,
          "time": 146.1035045,
          "velocity": 0.7874015748031497
        },
        {
          "duration": 0.1949950000000058,
          "durationTicks": 96,
          "midi": 59,
          "name": "B3",
          "ticks": 72048,
          "time": 146.1035045,
          "velocity": 0.7874015748031497
        },
        {
          "duration": 0.1949950000000058,
          "durationTicks": 96,
          "midi": 52,
          "name": "E3",
          "ticks": 72144,
          "time": 146.29849950000002,
          "velocity": 0.7874015748031497
        },
        {
          "duration": 0.1949950000000058,
          "durationTicks": 96,
          "midi": 59,
          "name": "B3",
          "ticks": 72144,
          "time": 146.29849950000002,
          "velocity": 0.7874015748031497
        },
        {
          "duration": 0.1949950000000058,
          "durationTicks": 96,
          "midi": 52,
          "name": "E3",
          "ticks": 72240,
          "time": 146.49349450000003,
          "velocity": 0.7874015748031497
        },
        {
          "duration": 0.1949950000000058,
          "durationTicks": 96,
          "midi": 59,
          "name": "B3",
          "ticks": 72240,
          "time": 146.49349450000003,
          "velocity": 0.7874015748031497
        },
        {
          "duration": 0.19499499999997738,
          "durationTicks": 96,
          "midi": 52,
          "name": "E3",
          "ticks": 72336,
          "time": 146.68848950000003,
          "velocity": 0.7874015748031497
        },
        {
          "duration": 0.19499499999997738,
          "durationTicks": 96,
          "midi": 59,
          "name": "B3",
          "ticks": 72336,
          "time": 146.68848950000003,
          "velocity": 0.7874015748031497
        },
        {
          "duration": 0.1949950000000058,
          "durationTicks": 96,
          "midi": 52,
          "name": "E3",
          "ticks": 72432,
          "time": 146.8834845,
          "velocity": 0.7874015748031497
        },
        {
          "duration": 0.1949950000000058,
          "durationTicks": 96,
          "midi": 59,
          "name": "B3",
          "ticks": 72432,
          "time": 146.8834845,
          "velocity": 0.7874015748031497
        },
        {
          "duration": 0.1949950000000058,
          "durationTicks": 96,
          "midi": 52,
          "name": "E3",
          "ticks": 72528,
          "time": 147.07847950000001,
          "velocity": 0.7874015748031497
        },
        {
          "duration": 0.1949950000000058,
          "durationTicks": 96,
          "midi": 59,
          "name": "B3",
          "ticks": 72528,
          "time": 147.07847950000001,
          "velocity": 0.7874015748031497
        },
        {
          "duration": 0.1949950000000058,
          "durationTicks": 96,
          "midi": 52,
          "name": "E3",
          "ticks": 72624,
          "time": 147.27347450000002,
          "velocity": 0.7874015748031497
        },
        {
          "duration": 0.1949950000000058,
          "durationTicks": 96,
          "midi": 59,
          "name": "B3",
          "ticks": 72624,
          "time": 147.27347450000002,
          "velocity": 0.7874015748031497
        },
        {
          "duration": 0.1949950000000058,
          "durationTicks": 96,
          "midi": 52,
          "name": "E3",
          "ticks": 72720,
          "time": 147.46846950000003,
          "velocity": 0.7874015748031497
        },
        {
          "duration": 0.1949950000000058,
          "durationTicks": 96,
          "midi": 59,
          "name": "B3",
          "ticks": 72720,
          "time": 147.46846950000003,
          "velocity": 0.7874015748031497
        },
        {
          "duration": 0.19499499999997738,
          "durationTicks": 96,
          "midi": 52,
          "name": "E3",
          "ticks": 72816,
          "time": 147.66346450000003,
          "velocity": 0.7874015748031497
        },
        {
          "duration": 0.19499499999997738,
          "durationTicks": 96,
          "midi": 59,
          "name": "B3",
          "ticks": 72816,
          "time": 147.66346450000003,
          "velocity": 0.7874015748031497
        },
        {
          "duration": 0.1949950000000058,
          "durationTicks": 96,
          "midi": 52,
          "name": "E3",
          "ticks": 72912,
          "time": 147.8584595,
          "velocity": 0.7874015748031497
        },
        {
          "duration": 0.1949950000000058,
          "durationTicks": 96,
          "midi": 59,
          "name": "B3",
          "ticks": 72912,
          "time": 147.8584595,
          "velocity": 0.7874015748031497
        },
        {
          "duration": 0.1949950000000058,
          "durationTicks": 96,
          "midi": 52,
          "name": "E3",
          "ticks": 73008,
          "time": 148.05345450000002,
          "velocity": 0.7874015748031497
        },
        {
          "duration": 0.1949950000000058,
          "durationTicks": 96,
          "midi": 59,
          "name": "B3",
          "ticks": 73008,
          "time": 148.05345450000002,
          "velocity": 0.7874015748031497
        },
        {
          "duration": 0.19499499999997738,
          "durationTicks": 96,
          "midi": 52,
          "name": "E3",
          "ticks": 73104,
          "time": 148.24844950000002,
          "velocity": 0.7874015748031497
        },
        {
          "duration": 0.19499499999997738,
          "durationTicks": 96,
          "midi": 59,
          "name": "B3",
          "ticks": 73104,
          "time": 148.24844950000002,
          "velocity": 0.7874015748031497
        },
        {
          "duration": 0.1949950000000058,
          "durationTicks": 96,
          "midi": 52,
          "name": "E3",
          "ticks": 73200,
          "time": 148.4434445,
          "velocity": 0.7874015748031497
        },
        {
          "duration": 0.1949950000000058,
          "durationTicks": 96,
          "midi": 59,
          "name": "B3",
          "ticks": 73200,
          "time": 148.4434445,
          "velocity": 0.7874015748031497
        },
        {
          "duration": 1.559960000000018,
          "durationTicks": 768,
          "midi": 40,
          "name": "E2",
          "ticks": 73296,
          "time": 148.6384395,
          "velocity": 0.7874015748031497
        },
        {
          "duration": 1.559960000000018,
          "durationTicks": 768,
          "midi": 47,
          "name": "B2",
          "ticks": 73296,
          "time": 148.6384395,
          "velocity": 0.7874015748031497
        },
        {
          "duration": 0.7799799999999948,
          "durationTicks": 384,
          "midi": 36,
          "name": "C2",
          "ticks": 74064,
          "time": 150.19839950000002,
          "velocity": 0.7874015748031497
        },
        {
          "duration": 0.7799799999999948,
          "durationTicks": 384,
          "midi": 43,
          "name": "G2",
          "ticks": 74064,
          "time": 150.19839950000002,
          "velocity": 0.7874015748031497
        },
        {
          "duration": 0.7799799999999948,
          "durationTicks": 384,
          "midi": 38,
          "name": "D2",
          "ticks": 74448,
          "time": 150.97837950000002,
          "velocity": 0.7874015748031497
        },
        {
          "duration": 0.7799799999999948,
          "durationTicks": 384,
          "midi": 45,
          "name": "A2",
          "ticks": 74448,
          "time": 150.97837950000002,
          "velocity": 0.7874015748031497
        },
        {
          "duration": 0.1949950000000058,
          "durationTicks": 96,
          "midi": 52,
          "name": "E3",
          "ticks": 74832,
          "time": 151.7583595,
          "velocity": 0.7874015748031497
        },
        {
          "duration": 0.1949950000000058,
          "durationTicks": 96,
          "midi": 59,
          "name": "B3",
          "ticks": 74832,
          "time": 151.7583595,
          "velocity": 0.7874015748031497
        },
        {
          "duration": 0.19499499999997738,
          "durationTicks": 96,
          "midi": 52,
          "name": "E3",
          "ticks": 74928,
          "time": 151.95335450000002,
          "velocity": 0.7874015748031497
        },
        {
          "duration": 0.19499499999997738,
          "durationTicks": 96,
          "midi": 59,
          "name": "B3",
          "ticks": 74928,
          "time": 151.95335450000002,
          "velocity": 0.7874015748031497
        },
        {
          "duration": 0.1949950000000058,
          "durationTicks": 96,
          "midi": 52,
          "name": "E3",
          "ticks": 75024,
          "time": 152.1483495,
          "velocity": 0.7874015748031497
        },
        {
          "duration": 0.1949950000000058,
          "durationTicks": 96,
          "midi": 59,
          "name": "B3",
          "ticks": 75024,
          "time": 152.1483495,
          "velocity": 0.7874015748031497
        },
        {
          "duration": 0.1949950000000058,
          "durationTicks": 96,
          "midi": 52,
          "name": "E3",
          "ticks": 75120,
          "time": 152.3433445,
          "velocity": 0.7874015748031497
        },
        {
          "duration": 0.1949950000000058,
          "durationTicks": 96,
          "midi": 59,
          "name": "B3",
          "ticks": 75120,
          "time": 152.3433445,
          "velocity": 0.7874015748031497
        },
        {
          "duration": 0.1949950000000058,
          "durationTicks": 96,
          "midi": 52,
          "name": "E3",
          "ticks": 75216,
          "time": 152.5383395,
          "velocity": 0.7874015748031497
        },
        {
          "duration": 0.1949950000000058,
          "durationTicks": 96,
          "midi": 59,
          "name": "B3",
          "ticks": 75216,
          "time": 152.5383395,
          "velocity": 0.7874015748031497
        },
        {
          "duration": 0.1949950000000058,
          "durationTicks": 96,
          "midi": 52,
          "name": "E3",
          "ticks": 75312,
          "time": 152.7333345,
          "velocity": 0.7874015748031497
        },
        {
          "duration": 0.1949950000000058,
          "durationTicks": 96,
          "midi": 59,
          "name": "B3",
          "ticks": 75312,
          "time": 152.7333345,
          "velocity": 0.7874015748031497
        },
        {
          "duration": 0.1949950000000058,
          "durationTicks": 96,
          "midi": 52,
          "name": "E3",
          "ticks": 75408,
          "time": 152.92832950000002,
          "velocity": 0.7874015748031497
        },
        {
          "duration": 0.1949950000000058,
          "durationTicks": 96,
          "midi": 59,
          "name": "B3",
          "ticks": 75408,
          "time": 152.92832950000002,
          "velocity": 0.7874015748031497
        },
        {
          "duration": 0.19499499999997738,
          "durationTicks": 96,
          "midi": 52,
          "name": "E3",
          "ticks": 75504,
          "time": 153.12332450000002,
          "velocity": 0.7874015748031497
        },
        {
          "duration": 0.19499499999997738,
          "durationTicks": 96,
          "midi": 59,
          "name": "B3",
          "ticks": 75504,
          "time": 153.12332450000002,
          "velocity": 0.7874015748031497
        },
        {
          "duration": 0.1949950000000058,
          "durationTicks": 96,
          "midi": 52,
          "name": "E3",
          "ticks": 75600,
          "time": 153.3183195,
          "velocity": 0.7874015748031497
        },
        {
          "duration": 0.1949950000000058,
          "durationTicks": 96,
          "midi": 59,
          "name": "B3",
          "ticks": 75600,
          "time": 153.3183195,
          "velocity": 0.7874015748031497
        },
        {
          "duration": 0.1949950000000058,
          "durationTicks": 96,
          "midi": 52,
          "name": "E3",
          "ticks": 75696,
          "time": 153.5133145,
          "velocity": 0.7874015748031497
        },
        {
          "duration": 0.1949950000000058,
          "durationTicks": 96,
          "midi": 59,
          "name": "B3",
          "ticks": 75696,
          "time": 153.5133145,
          "velocity": 0.7874015748031497
        },
        {
          "duration": 0.1949950000000058,
          "durationTicks": 96,
          "midi": 52,
          "name": "E3",
          "ticks": 75792,
          "time": 153.7083095,
          "velocity": 0.7874015748031497
        },
        {
          "duration": 0.1949950000000058,
          "durationTicks": 96,
          "midi": 59,
          "name": "B3",
          "ticks": 75792,
          "time": 153.7083095,
          "velocity": 0.7874015748031497
        },
        {
          "duration": 0.19499499999997738,
          "durationTicks": 96,
          "midi": 52,
          "name": "E3",
          "ticks": 75888,
          "time": 153.90330450000002,
          "velocity": 0.7874015748031497
        },
        {
          "duration": 0.19499499999997738,
          "durationTicks": 96,
          "midi": 59,
          "name": "B3",
          "ticks": 75888,
          "time": 153.90330450000002,
          "velocity": 0.7874015748031497
        },
        {
          "duration": 0.1949950000000058,
          "durationTicks": 96,
          "midi": 52,
          "name": "E3",
          "ticks": 75984,
          "time": 154.0982995,
          "velocity": 0.7874015748031497
        },
        {
          "duration": 0.1949950000000058,
          "durationTicks": 96,
          "midi": 59,
          "name": "B3",
          "ticks": 75984,
          "time": 154.0982995,
          "velocity": 0.7874015748031497
        },
        {
          "duration": 0.1949950000000058,
          "durationTicks": 96,
          "midi": 52,
          "name": "E3",
          "ticks": 76080,
          "time": 154.2932945,
          "velocity": 0.7874015748031497
        },
        {
          "duration": 0.1949950000000058,
          "durationTicks": 96,
          "midi": 59,
          "name": "B3",
          "ticks": 76080,
          "time": 154.2932945,
          "velocity": 0.7874015748031497
        },
        {
          "duration": 0.19499499999997738,
          "durationTicks": 96,
          "midi": 52,
          "name": "E3",
          "ticks": 76176,
          "time": 154.4882895,
          "velocity": 0.7874015748031497
        },
        {
          "duration": 0.19499499999997738,
          "durationTicks": 96,
          "midi": 59,
          "name": "B3",
          "ticks": 76176,
          "time": 154.4882895,
          "velocity": 0.7874015748031497
        },
        {
          "duration": 0.1949950000000058,
          "durationTicks": 96,
          "midi": 52,
          "name": "E3",
          "ticks": 76272,
          "time": 154.68328449999998,
          "velocity": 0.7874015748031497
        },
        {
          "duration": 0.1949950000000058,
          "durationTicks": 96,
          "midi": 59,
          "name": "B3",
          "ticks": 76272,
          "time": 154.68328449999998,
          "velocity": 0.7874015748031497
        }
      ]
    },
    {
      "channel": 6,
      "controlChanges": {},
      "pitchBends": [],
      "instrument": {
        "family": "bass",
        "name": "slap bass 1",
        "number": 36
      },
      "name": "",
      "notes": [
        {
          "duration": 0.5849849999999996,
          "durationTicks": 288,
          "midi": 40,
          "name": "E2",
          "ticks": 3456,
          "time": 7.01982,
          "velocity": 0.7874015748031497
        },
        {
          "duration": 0.5849850000000005,
          "durationTicks": 288,
          "midi": 40,
          "name": "E2",
          "ticks": 3744,
          "time": 7.604805,
          "velocity": 0.7874015748031497
        },
        {
          "duration": 0.38998999999999917,
          "durationTicks": 192,
          "midi": 40,
          "name": "E2",
          "ticks": 4032,
          "time": 8.18979,
          "velocity": 0.7874015748031497
        },
        {
          "duration": 0.19499500000000047,
          "durationTicks": 96,
          "midi": 45,
          "name": "A2",
          "ticks": 4224,
          "time": 8.57978,
          "velocity": 0.7874015748031497
        },
        {
          "duration": 0.19499500000000047,
          "durationTicks": 96,
          "midi": 47,
          "name": "B2",
          "ticks": 4320,
          "time": 8.774775,
          "velocity": 0.7874015748031497
        },
        {
          "duration": 0.1949949999999987,
          "durationTicks": 96,
          "midi": 50,
          "name": "D3",
          "ticks": 4416,
          "time": 8.96977,
          "velocity": 0.7874015748031497
        },
        {
          "duration": 0.19499500000000047,
          "durationTicks": 96,
          "midi": 52,
          "name": "E3",
          "ticks": 4512,
          "time": 9.164765,
          "velocity": 0.7874015748031497
        },
        {
          "duration": 0.19354850000000035,
          "durationTicks": 96,
          "midi": 45,
          "name": "A2",
          "ticks": 4608,
          "time": 9.35976,
          "velocity": 0.7874015748031497
        },
        {
          "duration": 0.19354850000000035,
          "durationTicks": 96,
          "midi": 47,
          "name": "B2",
          "ticks": 4704,
          "time": 9.5533085,
          "velocity": 0.7874015748031497
        },
        {
          "duration": 0.19354849999999857,
          "durationTicks": 96,
          "midi": 50,
          "name": "D3",
          "ticks": 4800,
          "time": 9.746857,
          "velocity": 0.7874015748031497
        },
        {
          "duration": 0.19354850000000035,
          "durationTicks": 96,
          "midi": 52,
          "name": "E3",
          "ticks": 4896,
          "time": 9.940405499999999,
          "velocity": 0.7874015748031497
        },
        {
          "duration": 0.580645500000001,
          "durationTicks": 288,
          "midi": 40,
          "name": "E2",
          "ticks": 4992,
          "time": 10.133954,
          "velocity": 0.7874015748031497
        },
        {
          "duration": 0.5806454999999993,
          "durationTicks": 288,
          "midi": 40,
          "name": "E2",
          "ticks": 5280,
          "time": 10.7145995,
          "velocity": 0.7874015748031497
        },
        {
          "duration": 0.3870969999999989,
          "durationTicks": 192,
          "midi": 40,
          "name": "E2",
          "ticks": 5568,
          "time": 11.295245,
          "velocity": 0.7874015748031497
        },
        {
          "duration": 0.19354850000000035,
          "durationTicks": 96,
          "midi": 45,
          "name": "A2",
          "ticks": 5760,
          "time": 11.682341999999998,
          "velocity": 0.7874015748031497
        },
        {
          "duration": 0.19354850000000035,
          "durationTicks": 96,
          "midi": 47,
          "name": "B2",
          "ticks": 5856,
          "time": 11.875890499999999,
          "velocity": 0.7874015748031497
        },
        {
          "duration": 0.19354850000000035,
          "durationTicks": 96,
          "midi": 50,
          "name": "D3",
          "ticks": 5952,
          "time": 12.069439,
          "velocity": 0.7874015748031497
        },
        {
          "duration": 0.19354850000000035,
          "durationTicks": 96,
          "midi": 52,
          "name": "E3",
          "ticks": 6048,
          "time": 12.2629875,
          "velocity": 0.7874015748031497
        },
        {
          "duration": 0.18867900000000049,
          "durationTicks": 96,
          "midi": 45,
          "name": "A2",
          "ticks": 6144,
          "time": 12.456536,
          "velocity": 0.7874015748031497
        },
        {
          "duration": 0.1886789999999987,
          "durationTicks": 96,
          "midi": 47,
          "name": "B2",
          "ticks": 6240,
          "time": 12.645215,
          "velocity": 0.7874015748031497
        },
        {
          "duration": 0.18867900000000049,
          "durationTicks": 96,
          "midi": 50,
          "name": "D3",
          "ticks": 6336,
          "time": 12.833893999999999,
          "velocity": 0.7874015748031497
        },
        {
          "duration": 0.18867900000000049,
          "durationTicks": 96,
          "midi": 52,
          "name": "E3",
          "ticks": 6432,
          "time": 13.022573,
          "velocity": 0.7874015748031497
        },
        {
          "duration": 0.18867900000000049,
          "durationTicks": 96,
          "midi": 40,
          "name": "E2",
          "ticks": 6528,
          "time": 13.211252,
          "velocity": 0.7874015748031497
        },
        {
          "duration": 0.1886789999999987,
          "durationTicks": 96,
          "midi": 40,
          "name": "E2",
          "ticks": 6624,
          "time": 13.399931,
          "velocity": 0.7874015748031497
        },
        {
          "duration": 0.18867900000000049,
          "durationTicks": 96,
          "midi": 40,
          "name": "E2",
          "ticks": 6720,
          "time": 13.58861,
          "velocity": 0.7874015748031497
        },
        {
          "duration": 0.18867900000000049,
          "durationTicks": 96,
          "midi": 40,
          "name": "E2",
          "ticks": 6816,
          "time": 13.777289,
          "velocity": 0.7874015748031497
        },
        {
          "duration": 0.18867900000000049,
          "durationTicks": 96,
          "midi": 40,
          "name": "E2",
          "ticks": 6912,
          "time": 13.965968,
          "velocity": 0.7874015748031497
        },
        {
          "duration": 0.1886789999999987,
          "durationTicks": 96,
          "midi": 40,
          "name": "E2",
          "ticks": 7008,
          "time": 14.154647,
          "velocity": 0.7874015748031497
        },
        {
          "duration": 0.18867900000000049,
          "durationTicks": 96,
          "midi": 40,
          "name": "E2",
          "ticks": 7104,
          "time": 14.343326,
          "velocity": 0.7874015748031497
        },
        {
          "duration": 0.18867900000000049,
          "durationTicks": 96,
          "midi": 40,
          "name": "E2",
          "ticks": 7200,
          "time": 14.532005,
          "velocity": 0.7874015748031497
        },
        {
          "duration": 0.1886789999999987,
          "durationTicks": 96,
          "midi": 40,
          "name": "E2",
          "ticks": 7296,
          "time": 14.720684,
          "velocity": 0.7874015748031497
        },
        {
          "duration": 0.18867900000000049,
          "durationTicks": 96,
          "midi": 40,
          "name": "E2",
          "ticks": 7392,
          "time": 14.909362999999999,
          "velocity": 0.7874015748031497
        },
        {
          "duration": 0.18867900000000049,
          "durationTicks": 96,
          "midi": 40,
          "name": "E2",
          "ticks": 7488,
          "time": 15.098042,
          "velocity": 0.7874015748031497
        },
        {
          "duration": 0.18867900000000049,
          "durationTicks": 96,
          "midi": 40,
          "name": "E2",
          "ticks": 7584,
          "time": 15.286721,
          "velocity": 0.7874015748031497
        },
        {
          "duration": 0.18867900000000049,
          "durationTicks": 96,
          "midi": 45,
          "name": "A2",
          "ticks": 7680,
          "time": 15.4754,
          "velocity": 0.7874015748031497
        },
        {
          "duration": 0.1886789999999987,
          "durationTicks": 96,
          "midi": 47,
          "name": "B2",
          "ticks": 7776,
          "time": 15.664079000000001,
          "velocity": 0.7874015748031497
        },
        {
          "duration": 0.18867900000000226,
          "durationTicks": 96,
          "midi": 38,
          "name": "D2",
          "ticks": 7872,
          "time": 15.852758,
          "velocity": 0.7874015748031497
        },
        {
          "duration": 0.18867899999999693,
          "durationTicks": 96,
          "midi": 52,
          "name": "E3",
          "ticks": 7968,
          "time": 16.041437000000002,
          "velocity": 0.7874015748031497
        },
        {
          "duration": 0.18867900000000049,
          "durationTicks": 96,
          "midi": 50,
          "name": "D3",
          "ticks": 8064,
          "time": 16.230116,
          "velocity": 0.7874015748031497
        },
        {
          "duration": 0.18867900000000049,
          "durationTicks": 96,
          "midi": 50,
          "name": "D3",
          "ticks": 8160,
          "time": 16.418795,
          "velocity": 0.7874015748031497
        },
        {
          "duration": 0.18867900000000049,
          "durationTicks": 96,
          "midi": 50,
          "name": "D3",
          "ticks": 8256,
          "time": 16.607474,
          "velocity": 0.7874015748031497
        },
        {
          "duration": 0.18867900000000049,
          "durationTicks": 96,
          "midi": 50,
          "name": "D3",
          "ticks": 8352,
          "time": 16.796153,
          "velocity": 0.7874015748031497
        },
        {
          "duration": 0.18867900000000049,
          "durationTicks": 96,
          "midi": 50,
          "name": "D3",
          "ticks": 8448,
          "time": 16.984832,
          "velocity": 0.7874015748031497
        },
        {
          "duration": 0.18867899999999693,
          "durationTicks": 96,
          "midi": 50,
          "name": "D3",
          "ticks": 8544,
          "time": 17.173511,
          "velocity": 0.7874015748031497
        },
        {
          "duration": 0.18867900000000049,
          "durationTicks": 96,
          "midi": 50,
          "name": "D3",
          "ticks": 8640,
          "time": 17.36219,
          "velocity": 0.7874015748031497
        },
        {
          "duration": 0.18867900000000049,
          "durationTicks": 96,
          "midi": 50,
          "name": "D3",
          "ticks": 8736,
          "time": 17.550869,
          "velocity": 0.7874015748031497
        },
        {
          "duration": 0.18867900000000049,
          "durationTicks": 96,
          "midi": 55,
          "name": "G3",
          "ticks": 8832,
          "time": 17.739548,
          "velocity": 0.7874015748031497
        },
        {
          "duration": 0.4716975000000012,
          "durationTicks": 240,
          "midi": 50,
          "name": "D3",
          "ticks": 8928,
          "time": 17.928227,
          "velocity": 0.7874015748031497
        },
        {
          "duration": 0.38999000000000095,
          "durationTicks": 192,
          "midi": 52,
          "name": "E3",
          "ticks": 9168,
          "time": 18.3999245,
          "velocity": 0.7874015748031497
        },
        {
          "duration": 0.3899899999999974,
          "durationTicks": 192,
          "midi": 55,
          "name": "G3",
          "ticks": 9360,
          "time": 18.789914500000002,
          "velocity": 0.7874015748031497
        },
        {
          "duration": 0.19499500000000225,
          "durationTicks": 96,
          "midi": 40,
          "name": "E2",
          "ticks": 9552,
          "time": 19.1799045,
          "velocity": 0.7874015748031497
        },
        {
          "duration": 0.1949949999999987,
          "durationTicks": 96,
          "midi": 40,
          "name": "E2",
          "ticks": 9648,
          "time": 19.3748995,
          "velocity": 0.7874015748031497
        },
        {
          "duration": 0.19499500000000225,
          "durationTicks": 96,
          "midi": 40,
          "name": "E2",
          "ticks": 9744,
          "time": 19.5698945,
          "velocity": 0.7874015748031497
        },
        {
          "duration": 0.1949949999999987,
          "durationTicks": 96,
          "midi": 40,
          "name": "E2",
          "ticks": 9840,
          "time": 19.764889500000002,
          "velocity": 0.7874015748031497
        },
        {
          "duration": 0.1949949999999987,
          "durationTicks": 96,
          "midi": 40,
          "name": "E2",
          "ticks": 9936,
          "time": 19.9598845,
          "velocity": 0.7874015748031497
        },
        {
          "duration": 0.19499500000000225,
          "durationTicks": 96,
          "midi": 40,
          "name": "E2",
          "ticks": 10032,
          "time": 20.1548795,
          "velocity": 0.7874015748031497
        },
        {
          "duration": 0.1949949999999987,
          "durationTicks": 96,
          "midi": 40,
          "name": "E2",
          "ticks": 10128,
          "time": 20.349874500000002,
          "velocity": 0.7874015748031497
        },
        {
          "duration": 0.1949949999999987,
          "durationTicks": 96,
          "midi": 40,
          "name": "E2",
          "ticks": 10224,
          "time": 20.5448695,
          "velocity": 0.7874015748031497
        },
        {
          "duration": 0.19499500000000225,
          "durationTicks": 96,
          "midi": 40,
          "name": "E2",
          "ticks": 10320,
          "time": 20.7398645,
          "velocity": 0.7874015748031497
        },
        {
          "duration": 0.1949949999999987,
          "durationTicks": 96,
          "midi": 40,
          "name": "E2",
          "ticks": 10416,
          "time": 20.9348595,
          "velocity": 0.7874015748031497
        },
        {
          "duration": 0.1949949999999987,
          "durationTicks": 96,
          "midi": 40,
          "name": "E2",
          "ticks": 10512,
          "time": 21.1298545,
          "velocity": 0.7874015748031497
        },
        {
          "duration": 0.19499500000000225,
          "durationTicks": 96,
          "midi": 40,
          "name": "E2",
          "ticks": 10608,
          "time": 21.3248495,
          "velocity": 0.7874015748031497
        },
        {
          "duration": 0.1949949999999987,
          "durationTicks": 96,
          "midi": 45,
          "name": "A2",
          "ticks": 10704,
          "time": 21.5198445,
          "velocity": 0.7874015748031497
        },
        {
          "duration": 0.19499500000000225,
          "durationTicks": 96,
          "midi": 47,
          "name": "B2",
          "ticks": 10800,
          "time": 21.7148395,
          "velocity": 0.7874015748031497
        },
        {
          "duration": 0.1949949999999987,
          "durationTicks": 96,
          "midi": 38,
          "name": "D2",
          "ticks": 10896,
          "time": 21.909834500000002,
          "velocity": 0.7874015748031497
        },
        {
          "duration": 0.1949949999999987,
          "durationTicks": 96,
          "midi": 52,
          "name": "E3",
          "ticks": 10992,
          "time": 22.1048295,
          "velocity": 0.7874015748031497
        },
        {
          "duration": 0.19499500000000225,
          "durationTicks": 96,
          "midi": 50,
          "name": "D3",
          "ticks": 11088,
          "time": 22.2998245,
          "velocity": 0.7874015748031497
        },
        {
          "duration": 0.1949949999999987,
          "durationTicks": 96,
          "midi": 50,
          "name": "D3",
          "ticks": 11184,
          "time": 22.494819500000002,
          "velocity": 0.7874015748031497
        },
        {
          "duration": 0.19499500000000225,
          "durationTicks": 96,
          "midi": 50,
          "name": "D3",
          "ticks": 11280,
          "time": 22.6898145,
          "velocity": 0.7874015748031497
        },
        {
          "duration": 0.1949949999999987,
          "durationTicks": 96,
          "midi": 50,
          "name": "D3",
          "ticks": 11376,
          "time": 22.884809500000003,
          "velocity": 0.7874015748031497
        },
        {
          "duration": 0.1949949999999987,
          "durationTicks": 96,
          "midi": 50,
          "name": "D3",
          "ticks": 11472,
          "time": 23.0798045,
          "velocity": 0.7874015748031497
        },
        {
          "duration": 0.1949949999999987,
          "durationTicks": 96,
          "midi": 50,
          "name": "D3",
          "ticks": 11568,
          "time": 23.2747995,
          "velocity": 0.7874015748031497
        },
        {
          "duration": 0.19499500000000225,
          "durationTicks": 96,
          "midi": 50,
          "name": "D3",
          "ticks": 11664,
          "time": 23.4697945,
          "velocity": 0.7874015748031497
        },
        {
          "duration": 0.1949949999999987,
          "durationTicks": 96,
          "midi": 50,
          "name": "D3",
          "ticks": 11760,
          "time": 23.6647895,
          "velocity": 0.7874015748031497
        },
        {
          "duration": 0.19499500000000225,
          "durationTicks": 96,
          "midi": 55,
          "name": "G3",
          "ticks": 11856,
          "time": 23.8597845,
          "velocity": 0.7874015748031497
        },
        {
          "duration": 0.4874875000000003,
          "durationTicks": 240,
          "midi": 50,
          "name": "D3",
          "ticks": 11952,
          "time": 24.054779500000002,
          "velocity": 0.7874015748031497
        },
        {
          "duration": 0.38999000000000095,
          "durationTicks": 192,
          "midi": 52,
          "name": "E3",
          "ticks": 12192,
          "time": 24.542267000000002,
          "velocity": 0.7874015748031497
        },
        {
          "duration": 0.3899899999999974,
          "durationTicks": 192,
          "midi": 55,
          "name": "G3",
          "ticks": 12384,
          "time": 24.932257000000003,
          "velocity": 0.7874015748031497
        },
        {
          "duration": 0.1949949999999987,
          "durationTicks": 96,
          "midi": 40,
          "name": "E2",
          "ticks": 18720,
          "time": 37.801927000000006,
          "velocity": 0.7874015748031497
        },
        {
          "duration": 0.1949949999999987,
          "durationTicks": 96,
          "midi": 40,
          "name": "E2",
          "ticks": 18816,
          "time": 37.996922000000005,
          "velocity": 0.7874015748031497
        },
        {
          "duration": 0.1949949999999987,
          "durationTicks": 96,
          "midi": 40,
          "name": "E2",
          "ticks": 18912,
          "time": 38.191917000000004,
          "velocity": 0.7874015748031497
        },
        {
          "duration": 0.1949949999999987,
          "durationTicks": 96,
          "midi": 40,
          "name": "E2",
          "ticks": 19008,
          "time": 38.386912,
          "velocity": 0.7874015748031497
        },
        {
          "duration": 0.1949950000000058,
          "durationTicks": 96,
          "midi": 40,
          "name": "E2",
          "ticks": 19104,
          "time": 38.581907,
          "velocity": 0.7874015748031497
        },
        {
          "duration": 0.1949949999999987,
          "durationTicks": 96,
          "midi": 40,
          "name": "E2",
          "ticks": 19200,
          "time": 38.77690200000001,
          "velocity": 0.7874015748031497
        },
        {
          "duration": 0.1949949999999987,
          "durationTicks": 96,
          "midi": 40,
          "name": "E2",
          "ticks": 19296,
          "time": 38.971897000000006,
          "velocity": 0.7874015748031497
        },
        {
          "duration": 0.1949949999999987,
          "durationTicks": 96,
          "midi": 40,
          "name": "E2",
          "ticks": 19392,
          "time": 39.166892000000004,
          "velocity": 0.7874015748031497
        },
        {
          "duration": 0.1949949999999987,
          "durationTicks": 96,
          "midi": 40,
          "name": "E2",
          "ticks": 19488,
          "time": 39.361887,
          "velocity": 0.7874015748031497
        },
        {
          "duration": 0.1949950000000058,
          "durationTicks": 96,
          "midi": 40,
          "name": "E2",
          "ticks": 19584,
          "time": 39.556882,
          "velocity": 0.7874015748031497
        },
        {
          "duration": 0.1949949999999987,
          "durationTicks": 96,
          "midi": 40,
          "name": "E2",
          "ticks": 19680,
          "time": 39.75187700000001,
          "velocity": 0.7874015748031497
        },
        {
          "duration": 0.1949949999999987,
          "durationTicks": 96,
          "midi": 40,
          "name": "E2",
          "ticks": 19776,
          "time": 39.946872000000006,
          "velocity": 0.7874015748031497
        },
        {
          "duration": 0.1949949999999987,
          "durationTicks": 96,
          "midi": 45,
          "name": "A2",
          "ticks": 19872,
          "time": 40.141867000000005,
          "velocity": 0.7874015748031497
        },
        {
          "duration": 0.1949949999999987,
          "durationTicks": 96,
          "midi": 47,
          "name": "B2",
          "ticks": 19968,
          "time": 40.336862,
          "velocity": 0.7874015748031497
        },
        {
          "duration": 0.1949950000000058,
          "durationTicks": 96,
          "midi": 38,
          "name": "D2",
          "ticks": 20064,
          "time": 40.531857,
          "velocity": 0.7874015748031497
        },
        {
          "duration": 0.1949949999999987,
          "durationTicks": 96,
          "midi": 52,
          "name": "E3",
          "ticks": 20160,
          "time": 40.72685200000001,
          "velocity": 0.7874015748031497
        },
        {
          "duration": 0.1949949999999987,
          "durationTicks": 96,
          "midi": 50,
          "name": "D3",
          "ticks": 20256,
          "time": 40.92184700000001,
          "velocity": 0.7874015748031497
        },
        {
          "duration": 0.1949949999999987,
          "durationTicks": 96,
          "midi": 50,
          "name": "D3",
          "ticks": 20352,
          "time": 41.116842000000005,
          "velocity": 0.7874015748031497
        },
        {
          "duration": 0.1949949999999987,
          "durationTicks": 96,
          "midi": 50,
          "name": "D3",
          "ticks": 20448,
          "time": 41.311837000000004,
          "velocity": 0.7874015748031497
        },
        {
          "duration": 0.1949949999999987,
          "durationTicks": 96,
          "midi": 50,
          "name": "D3",
          "ticks": 20544,
          "time": 41.506832,
          "velocity": 0.7874015748031497
        },
        {
          "duration": 0.1949950000000058,
          "durationTicks": 96,
          "midi": 50,
          "name": "D3",
          "ticks": 20640,
          "time": 41.701827,
          "velocity": 0.7874015748031497
        },
        {
          "duration": 0.1949949999999987,
          "durationTicks": 96,
          "midi": 50,
          "name": "D3",
          "ticks": 20736,
          "time": 41.89682200000001,
          "velocity": 0.7874015748031497
        },
        {
          "duration": 0.1949949999999987,
          "durationTicks": 96,
          "midi": 50,
          "name": "D3",
          "ticks": 20832,
          "time": 42.091817000000006,
          "velocity": 0.7874015748031497
        },
        {
          "duration": 0.1949949999999987,
          "durationTicks": 96,
          "midi": 50,
          "name": "D3",
          "ticks": 20928,
          "time": 42.286812000000005,
          "velocity": 0.7874015748031497
        },
        {
          "duration": 0.1949949999999987,
          "durationTicks": 96,
          "midi": 55,
          "name": "G3",
          "ticks": 21024,
          "time": 42.481807,
          "velocity": 0.7874015748031497
        },
        {
          "duration": 0.4874875000000003,
          "durationTicks": 240,
          "midi": 50,
          "name": "D3",
          "ticks": 21120,
          "time": 42.676802,
          "velocity": 0.7874015748031497
        },
        {
          "duration": 0.38960999999999757,
          "durationTicks": 192,
          "midi": 52,
          "name": "E3",
          "ticks": 21360,
          "time": 43.1642895,
          "velocity": 0.7874015748031497
        },
        {
          "duration": 0.3896100000000047,
          "durationTicks": 192,
          "midi": 55,
          "name": "G3",
          "ticks": 21552,
          "time": 43.5538995,
          "velocity": 0.7874015748031497
        },
        {
          "duration": 0.19480499999999523,
          "durationTicks": 96,
          "midi": 40,
          "name": "E2",
          "ticks": 21744,
          "time": 43.943509500000005,
          "velocity": 0.7874015748031497
        },
        {
          "duration": 0.19480500000000234,
          "durationTicks": 96,
          "midi": 40,
          "name": "E2",
          "ticks": 21840,
          "time": 44.1383145,
          "velocity": 0.7874015748031497
        },
        {
          "duration": 0.19480500000000234,
          "durationTicks": 96,
          "midi": 40,
          "name": "E2",
          "ticks": 21936,
          "time": 44.3331195,
          "velocity": 0.7874015748031497
        },
        {
          "duration": 0.19480499999999523,
          "durationTicks": 96,
          "midi": 40,
          "name": "E2",
          "ticks": 22032,
          "time": 44.527924500000005,
          "velocity": 0.7874015748031497
        },
        {
          "duration": 0.19480500000000234,
          "durationTicks": 96,
          "midi": 40,
          "name": "E2",
          "ticks": 22128,
          "time": 44.7227295,
          "velocity": 0.7874015748031497
        },
        {
          "duration": 0.19480500000000234,
          "durationTicks": 96,
          "midi": 40,
          "name": "E2",
          "ticks": 22224,
          "time": 44.9175345,
          "velocity": 0.7874015748031497
        },
        {
          "duration": 0.19480499999999523,
          "durationTicks": 96,
          "midi": 40,
          "name": "E2",
          "ticks": 22320,
          "time": 45.112339500000004,
          "velocity": 0.7874015748031497
        },
        {
          "duration": 0.19480500000000234,
          "durationTicks": 96,
          "midi": 40,
          "name": "E2",
          "ticks": 22416,
          "time": 45.3071445,
          "velocity": 0.7874015748031497
        },
        {
          "duration": 0.19480500000000234,
          "durationTicks": 96,
          "midi": 40,
          "name": "E2",
          "ticks": 22512,
          "time": 45.5019495,
          "velocity": 0.7874015748031497
        },
        {
          "duration": 0.19480499999999523,
          "durationTicks": 96,
          "midi": 40,
          "name": "E2",
          "ticks": 22608,
          "time": 45.696754500000004,
          "velocity": 0.7874015748031497
        },
        {
          "duration": 0.19480500000000234,
          "durationTicks": 96,
          "midi": 40,
          "name": "E2",
          "ticks": 22704,
          "time": 45.8915595,
          "velocity": 0.7874015748031497
        },
        {
          "duration": 0.19480500000000234,
          "durationTicks": 96,
          "midi": 40,
          "name": "E2",
          "ticks": 22800,
          "time": 46.0863645,
          "velocity": 0.7874015748031497
        },
        {
          "duration": 0.19480499999999523,
          "durationTicks": 96,
          "midi": 45,
          "name": "A2",
          "ticks": 22896,
          "time": 46.281169500000004,
          "velocity": 0.7874015748031497
        },
        {
          "duration": 0.19480500000000234,
          "durationTicks": 96,
          "midi": 47,
          "name": "B2",
          "ticks": 22992,
          "time": 46.4759745,
          "velocity": 0.7874015748031497
        },
        {
          "duration": 0.19480500000000234,
          "durationTicks": 96,
          "midi": 38,
          "name": "D2",
          "ticks": 23088,
          "time": 46.6707795,
          "velocity": 0.7874015748031497
        },
        {
          "duration": 0.19480499999999523,
          "durationTicks": 96,
          "midi": 52,
          "name": "E3",
          "ticks": 23184,
          "time": 46.865584500000004,
          "velocity": 0.7874015748031497
        },
        {
          "duration": 0.19480500000000234,
          "durationTicks": 96,
          "midi": 50,
          "name": "D3",
          "ticks": 23280,
          "time": 47.0603895,
          "velocity": 0.7874015748031497
        },
        {
          "duration": 0.19480500000000234,
          "durationTicks": 96,
          "midi": 50,
          "name": "D3",
          "ticks": 23376,
          "time": 47.2551945,
          "velocity": 0.7874015748031497
        },
        {
          "duration": 0.19480500000000234,
          "durationTicks": 96,
          "midi": 50,
          "name": "D3",
          "ticks": 23472,
          "time": 47.449999500000004,
          "velocity": 0.7874015748031497
        },
        {
          "duration": 0.19480499999999523,
          "durationTicks": 96,
          "midi": 50,
          "name": "D3",
          "ticks": 23568,
          "time": 47.644804500000006,
          "velocity": 0.7874015748031497
        },
        {
          "duration": 0.19480500000000234,
          "durationTicks": 96,
          "midi": 50,
          "name": "D3",
          "ticks": 23664,
          "time": 47.8396095,
          "velocity": 0.7874015748031497
        },
        {
          "duration": 0.19480499999999523,
          "durationTicks": 96,
          "midi": 50,
          "name": "D3",
          "ticks": 23760,
          "time": 48.034414500000004,
          "velocity": 0.7874015748031497
        },
        {
          "duration": 0.19480500000000234,
          "durationTicks": 96,
          "midi": 50,
          "name": "D3",
          "ticks": 23856,
          "time": 48.2292195,
          "velocity": 0.7874015748031497
        },
        {
          "duration": 0.19480500000000234,
          "durationTicks": 96,
          "midi": 50,
          "name": "D3",
          "ticks": 23952,
          "time": 48.4240245,
          "velocity": 0.7874015748031497
        },
        {
          "duration": 0.19480500000000234,
          "durationTicks": 96,
          "midi": 55,
          "name": "G3",
          "ticks": 24048,
          "time": 48.618829500000004,
          "velocity": 0.7874015748031497
        },
        {
          "duration": 0.48701249999999874,
          "durationTicks": 240,
          "midi": 50,
          "name": "D3",
          "ticks": 24144,
          "time": 48.813634500000006,
          "velocity": 0.7874015748031497
        },
        {
          "duration": 0.38960999999999757,
          "durationTicks": 192,
          "midi": 52,
          "name": "E3",
          "ticks": 24384,
          "time": 49.300647000000005,
          "velocity": 0.7874015748031497
        },
        {
          "duration": 0.38960999999999757,
          "durationTicks": 192,
          "midi": 55,
          "name": "G3",
          "ticks": 24576,
          "time": 49.690257,
          "velocity": 0.7874015748031497
        },
        {
          "duration": 0.1949949999999987,
          "durationTicks": 96,
          "midi": 40,
          "name": "E2",
          "ticks": 30912,
          "time": 62.54814700000001,
          "velocity": 0.7874015748031497
        },
        {
          "duration": 0.1949949999999987,
          "durationTicks": 96,
          "midi": 40,
          "name": "E2",
          "ticks": 31008,
          "time": 62.743142000000006,
          "velocity": 0.7874015748031497
        },
        {
          "duration": 0.1949949999999987,
          "durationTicks": 96,
          "midi": 40,
          "name": "E2",
          "ticks": 31104,
          "time": 62.938137000000005,
          "velocity": 0.7874015748031497
        },
        {
          "duration": 0.1949949999999987,
          "durationTicks": 96,
          "midi": 40,
          "name": "E2",
          "ticks": 31200,
          "time": 63.133132,
          "velocity": 0.7874015748031497
        },
        {
          "duration": 0.1949950000000058,
          "durationTicks": 96,
          "midi": 40,
          "name": "E2",
          "ticks": 31296,
          "time": 63.328127,
          "velocity": 0.7874015748031497
        },
        {
          "duration": 0.1949949999999987,
          "durationTicks": 96,
          "midi": 40,
          "name": "E2",
          "ticks": 31392,
          "time": 63.52312200000001,
          "velocity": 0.7874015748031497
        },
        {
          "duration": 0.1949949999999987,
          "durationTicks": 96,
          "midi": 40,
          "name": "E2",
          "ticks": 31488,
          "time": 63.71811700000001,
          "velocity": 0.7874015748031497
        },
        {
          "duration": 0.1949949999999987,
          "durationTicks": 96,
          "midi": 40,
          "name": "E2",
          "ticks": 31584,
          "time": 63.913112000000005,
          "velocity": 0.7874015748031497
        },
        {
          "duration": 0.1949950000000058,
          "durationTicks": 96,
          "midi": 40,
          "name": "E2",
          "ticks": 31680,
          "time": 64.108107,
          "velocity": 0.7874015748031497
        },
        {
          "duration": 0.1949949999999916,
          "durationTicks": 96,
          "midi": 40,
          "name": "E2",
          "ticks": 31776,
          "time": 64.30310200000001,
          "velocity": 0.7874015748031497
        },
        {
          "duration": 0.1949950000000058,
          "durationTicks": 96,
          "midi": 40,
          "name": "E2",
          "ticks": 31872,
          "time": 64.498097,
          "velocity": 0.7874015748031497
        },
        {
          "duration": 0.1949949999999916,
          "durationTicks": 96,
          "midi": 40,
          "name": "E2",
          "ticks": 31968,
          "time": 64.69309200000001,
          "velocity": 0.7874015748031497
        },
        {
          "duration": 0.1949950000000058,
          "durationTicks": 96,
          "midi": 45,
          "name": "A2",
          "ticks": 32064,
          "time": 64.888087,
          "velocity": 0.7874015748031497
        },
        {
          "duration": 0.1949950000000058,
          "durationTicks": 96,
          "midi": 47,
          "name": "B2",
          "ticks": 32160,
          "time": 65.083082,
          "velocity": 0.7874015748031497
        },
        {
          "duration": 0.1949949999999916,
          "durationTicks": 96,
          "midi": 38,
          "name": "D2",
          "ticks": 32256,
          "time": 65.27807700000001,
          "velocity": 0.7874015748031497
        },
        {
          "duration": 0.1949950000000058,
          "durationTicks": 96,
          "midi": 52,
          "name": "E3",
          "ticks": 32352,
          "time": 65.473072,
          "velocity": 0.7874015748031497
        },
        {
          "duration": 0.1949949999999916,
          "durationTicks": 96,
          "midi": 50,
          "name": "D3",
          "ticks": 32448,
          "time": 65.66806700000001,
          "velocity": 0.7874015748031497
        },
        {
          "duration": 0.1949950000000058,
          "durationTicks": 96,
          "midi": 50,
          "name": "D3",
          "ticks": 32544,
          "time": 65.863062,
          "velocity": 0.7874015748031497
        },
        {
          "duration": 0.1949950000000058,
          "durationTicks": 96,
          "midi": 50,
          "name": "D3",
          "ticks": 32640,
          "time": 66.058057,
          "velocity": 0.7874015748031497
        },
        {
          "duration": 0.1949949999999916,
          "durationTicks": 96,
          "midi": 50,
          "name": "D3",
          "ticks": 32736,
          "time": 66.25305200000001,
          "velocity": 0.7874015748031497
        },
        {
          "duration": 0.1949950000000058,
          "durationTicks": 96,
          "midi": 50,
          "name": "D3",
          "ticks": 32832,
          "time": 66.448047,
          "velocity": 0.7874015748031497
        },
        {
          "duration": 0.1949949999999916,
          "durationTicks": 96,
          "midi": 50,
          "name": "D3",
          "ticks": 32928,
          "time": 66.64304200000001,
          "velocity": 0.7874015748031497
        },
        {
          "duration": 0.1949950000000058,
          "durationTicks": 96,
          "midi": 50,
          "name": "D3",
          "ticks": 33024,
          "time": 66.838037,
          "velocity": 0.7874015748031497
        },
        {
          "duration": 0.1949950000000058,
          "durationTicks": 96,
          "midi": 50,
          "name": "D3",
          "ticks": 33120,
          "time": 67.033032,
          "velocity": 0.7874015748031497
        },
        {
          "duration": 0.1949949999999916,
          "durationTicks": 96,
          "midi": 55,
          "name": "G3",
          "ticks": 33216,
          "time": 67.22802700000001,
          "velocity": 0.7874015748031497
        },
        {
          "duration": 0.4874875000000003,
          "durationTicks": 240,
          "midi": 50,
          "name": "D3",
          "ticks": 33312,
          "time": 67.423022,
          "velocity": 0.7874015748031497
        },
        {
          "duration": 0.3899899999999974,
          "durationTicks": 192,
          "midi": 52,
          "name": "E3",
          "ticks": 33552,
          "time": 67.9105095,
          "velocity": 0.7874015748031497
        },
        {
          "duration": 0.3899899999999974,
          "durationTicks": 192,
          "midi": 55,
          "name": "G3",
          "ticks": 33744,
          "time": 68.3004995,
          "velocity": 0.7874015748031497
        },
        {
          "duration": 0.1949950000000058,
          "durationTicks": 96,
          "midi": 40,
          "name": "E2",
          "ticks": 33936,
          "time": 68.6904895,
          "velocity": 0.7874015748031497
        },
        {
          "duration": 0.1949950000000058,
          "durationTicks": 96,
          "midi": 40,
          "name": "E2",
          "ticks": 34032,
          "time": 68.8854845,
          "velocity": 0.7874015748031497
        },
        {
          "duration": 0.1949949999999916,
          "durationTicks": 96,
          "midi": 40,
          "name": "E2",
          "ticks": 34128,
          "time": 69.08047950000001,
          "velocity": 0.7874015748031497
        },
        {
          "duration": 0.1949950000000058,
          "durationTicks": 96,
          "midi": 40,
          "name": "E2",
          "ticks": 34224,
          "time": 69.2754745,
          "velocity": 0.7874015748031497
        },
        {
          "duration": 0.1949949999999916,
          "durationTicks": 96,
          "midi": 40,
          "name": "E2",
          "ticks": 34320,
          "time": 69.47046950000001,
          "velocity": 0.7874015748031497
        },
        {
          "duration": 0.1949950000000058,
          "durationTicks": 96,
          "midi": 40,
          "name": "E2",
          "ticks": 34416,
          "time": 69.6654645,
          "velocity": 0.7874015748031497
        },
        {
          "duration": 0.1949949999999916,
          "durationTicks": 96,
          "midi": 40,
          "name": "E2",
          "ticks": 34512,
          "time": 69.8604595,
          "velocity": 0.7874015748031497
        },
        {
          "duration": 0.1949950000000058,
          "durationTicks": 96,
          "midi": 40,
          "name": "E2",
          "ticks": 34608,
          "time": 70.0554545,
          "velocity": 0.7874015748031497
        },
        {
          "duration": 0.1949950000000058,
          "durationTicks": 96,
          "midi": 40,
          "name": "E2",
          "ticks": 34704,
          "time": 70.2504495,
          "velocity": 0.7874015748031497
        },
        {
          "duration": 0.1949949999999916,
          "durationTicks": 96,
          "midi": 40,
          "name": "E2",
          "ticks": 34800,
          "time": 70.44544450000001,
          "velocity": 0.7874015748031497
        },
        {
          "duration": 0.1949950000000058,
          "durationTicks": 96,
          "midi": 40,
          "name": "E2",
          "ticks": 34896,
          "time": 70.6404395,
          "velocity": 0.7874015748031497
        },
        {
          "duration": 0.1949949999999916,
          "durationTicks": 96,
          "midi": 40,
          "name": "E2",
          "ticks": 34992,
          "time": 70.8354345,
          "velocity": 0.7874015748031497
        },
        {
          "duration": 0.1949950000000058,
          "durationTicks": 96,
          "midi": 45,
          "name": "A2",
          "ticks": 35088,
          "time": 71.0304295,
          "velocity": 0.7874015748031497
        },
        {
          "duration": 0.1949950000000058,
          "durationTicks": 96,
          "midi": 47,
          "name": "B2",
          "ticks": 35184,
          "time": 71.2254245,
          "velocity": 0.7874015748031497
        },
        {
          "duration": 0.1949949999999916,
          "durationTicks": 96,
          "midi": 38,
          "name": "D2",
          "ticks": 35280,
          "time": 71.42041950000001,
          "velocity": 0.7874015748031497
        },
        {
          "duration": 0.1949950000000058,
          "durationTicks": 96,
          "midi": 52,
          "name": "E3",
          "ticks": 35376,
          "time": 71.6154145,
          "velocity": 0.7874015748031497
        },
        {
          "duration": 0.1949949999999916,
          "durationTicks": 96,
          "midi": 50,
          "name": "D3",
          "ticks": 35472,
          "time": 71.8104095,
          "velocity": 0.7874015748031497
        },
        {
          "duration": 0.1949950000000058,
          "durationTicks": 96,
          "midi": 50,
          "name": "D3",
          "ticks": 35568,
          "time": 72.0054045,
          "velocity": 0.7874015748031497
        },
        {
          "duration": 0.1949950000000058,
          "durationTicks": 96,
          "midi": 50,
          "name": "D3",
          "ticks": 35664,
          "time": 72.2003995,
          "velocity": 0.7874015748031497
        },
        {
          "duration": 0.1949949999999916,
          "durationTicks": 96,
          "midi": 50,
          "name": "D3",
          "ticks": 35760,
          "time": 72.39539450000001,
          "velocity": 0.7874015748031497
        },
        {
          "duration": 0.1949950000000058,
          "durationTicks": 96,
          "midi": 50,
          "name": "D3",
          "ticks": 35856,
          "time": 72.5903895,
          "velocity": 0.7874015748031497
        },
        {
          "duration": 0.1949949999999916,
          "durationTicks": 96,
          "midi": 50,
          "name": "D3",
          "ticks": 35952,
          "time": 72.7853845,
          "velocity": 0.7874015748031497
        },
        {
          "duration": 0.1949950000000058,
          "durationTicks": 96,
          "midi": 50,
          "name": "D3",
          "ticks": 36048,
          "time": 72.9803795,
          "velocity": 0.7874015748031497
        },
        {
          "duration": 0.1949950000000058,
          "durationTicks": 96,
          "midi": 50,
          "name": "D3",
          "ticks": 36144,
          "time": 73.1753745,
          "velocity": 0.7874015748031497
        },
        {
          "duration": 0.1949949999999916,
          "durationTicks": 96,
          "midi": 55,
          "name": "G3",
          "ticks": 36240,
          "time": 73.37036950000001,
          "velocity": 0.7874015748031497
        },
        {
          "duration": 0.4874875000000003,
          "durationTicks": 240,
          "midi": 50,
          "name": "D3",
          "ticks": 36336,
          "time": 73.5653645,
          "velocity": 0.7874015748031497
        },
        {
          "duration": 0.3899899999999974,
          "durationTicks": 192,
          "midi": 52,
          "name": "E3",
          "ticks": 36576,
          "time": 74.052852,
          "velocity": 0.7874015748031497
        },
        {
          "duration": 0.3899899999999974,
          "durationTicks": 192,
          "midi": 55,
          "name": "G3",
          "ticks": 36768,
          "time": 74.442842,
          "velocity": 0.7874015748031497
        },
        {
          "duration": 0.1949950000000058,
          "durationTicks": 96,
          "midi": 40,
          "name": "E2",
          "ticks": 36960,
          "time": 74.832832,
          "velocity": 0.7874015748031497
        },
        {
          "duration": 0.1949950000000058,
          "durationTicks": 96,
          "midi": 40,
          "name": "E2",
          "ticks": 37056,
          "time": 75.027827,
          "velocity": 0.7874015748031497
        },
        {
          "duration": 0.1949949999999916,
          "durationTicks": 96,
          "midi": 40,
          "name": "E2",
          "ticks": 37152,
          "time": 75.22282200000001,
          "velocity": 0.7874015748031497
        },
        {
          "duration": 0.1949950000000058,
          "durationTicks": 96,
          "midi": 40,
          "name": "E2",
          "ticks": 37248,
          "time": 75.417817,
          "velocity": 0.7874015748031497
        },
        {
          "duration": 0.1949949999999916,
          "durationTicks": 96,
          "midi": 40,
          "name": "E2",
          "ticks": 37344,
          "time": 75.612812,
          "velocity": 0.7874015748031497
        },
        {
          "duration": 0.1949950000000058,
          "durationTicks": 96,
          "midi": 40,
          "name": "E2",
          "ticks": 37440,
          "time": 75.807807,
          "velocity": 0.7874015748031497
        },
        {
          "duration": 0.1949950000000058,
          "durationTicks": 96,
          "midi": 40,
          "name": "E2",
          "ticks": 37536,
          "time": 76.002802,
          "velocity": 0.7874015748031497
        },
        {
          "duration": 0.1949949999999916,
          "durationTicks": 96,
          "midi": 40,
          "name": "E2",
          "ticks": 37632,
          "time": 76.19779700000001,
          "velocity": 0.7874015748031497
        },
        {
          "duration": 0.1949950000000058,
          "durationTicks": 96,
          "midi": 40,
          "name": "E2",
          "ticks": 37728,
          "time": 76.392792,
          "velocity": 0.7874015748031497
        },
        {
          "duration": 0.1949949999999916,
          "durationTicks": 96,
          "midi": 40,
          "name": "E2",
          "ticks": 37824,
          "time": 76.587787,
          "velocity": 0.7874015748031497
        },
        {
          "duration": 0.1949950000000058,
          "durationTicks": 96,
          "midi": 40,
          "name": "E2",
          "ticks": 37920,
          "time": 76.782782,
          "velocity": 0.7874015748031497
        },
        {
          "duration": 0.1949949999999916,
          "durationTicks": 96,
          "midi": 40,
          "name": "E2",
          "ticks": 38016,
          "time": 76.977777,
          "velocity": 0.7874015748031497
        },
        {
          "duration": 0.1949950000000058,
          "durationTicks": 96,
          "midi": 45,
          "name": "A2",
          "ticks": 38112,
          "time": 77.172772,
          "velocity": 0.7874015748031497
        },
        {
          "duration": 0.1949950000000058,
          "durationTicks": 96,
          "midi": 47,
          "name": "B2",
          "ticks": 38208,
          "time": 77.367767,
          "velocity": 0.7874015748031497
        },
        {
          "duration": 0.1949949999999916,
          "durationTicks": 96,
          "midi": 38,
          "name": "D2",
          "ticks": 38304,
          "time": 77.562762,
          "velocity": 0.7874015748031497
        },
        {
          "duration": 0.1949950000000058,
          "durationTicks": 96,
          "midi": 52,
          "name": "E3",
          "ticks": 38400,
          "time": 77.757757,
          "velocity": 0.7874015748031497
        },
        {
          "duration": 0.1949949999999916,
          "durationTicks": 96,
          "midi": 50,
          "name": "D3",
          "ticks": 38496,
          "time": 77.952752,
          "velocity": 0.7874015748031497
        },
        {
          "duration": 0.1949950000000058,
          "durationTicks": 96,
          "midi": 50,
          "name": "D3",
          "ticks": 38592,
          "time": 78.147747,
          "velocity": 0.7874015748031497
        },
        {
          "duration": 0.1949950000000058,
          "durationTicks": 96,
          "midi": 50,
          "name": "D3",
          "ticks": 38688,
          "time": 78.342742,
          "velocity": 0.7874015748031497
        },
        {
          "duration": 0.1949949999999916,
          "durationTicks": 96,
          "midi": 50,
          "name": "D3",
          "ticks": 38784,
          "time": 78.537737,
          "velocity": 0.7874015748031497
        },
        {
          "duration": 0.1949950000000058,
          "durationTicks": 96,
          "midi": 50,
          "name": "D3",
          "ticks": 38880,
          "time": 78.732732,
          "velocity": 0.7874015748031497
        },
        {
          "duration": 0.1949949999999916,
          "durationTicks": 96,
          "midi": 50,
          "name": "D3",
          "ticks": 38976,
          "time": 78.927727,
          "velocity": 0.7874015748031497
        },
        {
          "duration": 0.1949950000000058,
          "durationTicks": 96,
          "midi": 50,
          "name": "D3",
          "ticks": 39072,
          "time": 79.122722,
          "velocity": 0.7874015748031497
        },
        {
          "duration": 0.1949950000000058,
          "durationTicks": 96,
          "midi": 50,
          "name": "D3",
          "ticks": 39168,
          "time": 79.317717,
          "velocity": 0.7874015748031497
        },
        {
          "duration": 0.1949949999999916,
          "durationTicks": 96,
          "midi": 55,
          "name": "G3",
          "ticks": 39264,
          "time": 79.51271200000001,
          "velocity": 0.7874015748031497
        },
        {
          "duration": 0.4874875000000003,
          "durationTicks": 240,
          "midi": 50,
          "name": "D3",
          "ticks": 39360,
          "time": 79.707707,
          "velocity": 0.7874015748031497
        },
        {
          "duration": 0.3899899999999974,
          "durationTicks": 192,
          "midi": 52,
          "name": "E3",
          "ticks": 39600,
          "time": 80.1951945,
          "velocity": 0.7874015748031497
        },
        {
          "duration": 0.3899899999999974,
          "durationTicks": 192,
          "midi": 55,
          "name": "G3",
          "ticks": 39792,
          "time": 80.5851845,
          "velocity": 0.7874015748031497
        },
        {
          "duration": 0.1949950000000058,
          "durationTicks": 96,
          "midi": 40,
          "name": "E2",
          "ticks": 39984,
          "time": 80.9751745,
          "velocity": 0.7874015748031497
        },
        {
          "duration": 0.1949950000000058,
          "durationTicks": 96,
          "midi": 40,
          "name": "E2",
          "ticks": 40080,
          "time": 81.1701695,
          "velocity": 0.7874015748031497
        },
        {
          "duration": 0.1949949999999916,
          "durationTicks": 96,
          "midi": 40,
          "name": "E2",
          "ticks": 40176,
          "time": 81.3651645,
          "velocity": 0.7874015748031497
        },
        {
          "duration": 0.1949950000000058,
          "durationTicks": 96,
          "midi": 40,
          "name": "E2",
          "ticks": 40272,
          "time": 81.5601595,
          "velocity": 0.7874015748031497
        },
        {
          "duration": 0.1949949999999916,
          "durationTicks": 96,
          "midi": 40,
          "name": "E2",
          "ticks": 40368,
          "time": 81.7551545,
          "velocity": 0.7874015748031497
        },
        {
          "duration": 0.1949950000000058,
          "durationTicks": 96,
          "midi": 40,
          "name": "E2",
          "ticks": 40464,
          "time": 81.9501495,
          "velocity": 0.7874015748031497
        },
        {
          "duration": 0.1949949999999916,
          "durationTicks": 96,
          "midi": 40,
          "name": "E2",
          "ticks": 40560,
          "time": 82.1451445,
          "velocity": 0.7874015748031497
        },
        {
          "duration": 0.1949950000000058,
          "durationTicks": 96,
          "midi": 40,
          "name": "E2",
          "ticks": 40656,
          "time": 82.34013949999999,
          "velocity": 0.7874015748031497
        },
        {
          "duration": 0.1949950000000058,
          "durationTicks": 96,
          "midi": 40,
          "name": "E2",
          "ticks": 40752,
          "time": 82.5351345,
          "velocity": 0.7874015748031497
        },
        {
          "duration": 0.1949949999999916,
          "durationTicks": 96,
          "midi": 40,
          "name": "E2",
          "ticks": 40848,
          "time": 82.7301295,
          "velocity": 0.7874015748031497
        },
        {
          "duration": 0.1949950000000058,
          "durationTicks": 96,
          "midi": 40,
          "name": "E2",
          "ticks": 40944,
          "time": 82.9251245,
          "velocity": 0.7874015748031497
        },
        {
          "duration": 0.1949949999999916,
          "durationTicks": 96,
          "midi": 40,
          "name": "E2",
          "ticks": 41040,
          "time": 83.1201195,
          "velocity": 0.7874015748031497
        },
        {
          "duration": 0.1949950000000058,
          "durationTicks": 96,
          "midi": 45,
          "name": "A2",
          "ticks": 41136,
          "time": 83.31511449999999,
          "velocity": 0.7874015748031497
        },
        {
          "duration": 0.1949950000000058,
          "durationTicks": 96,
          "midi": 47,
          "name": "B2",
          "ticks": 41232,
          "time": 83.5101095,
          "velocity": 0.7874015748031497
        },
        {
          "duration": 0.1949949999999916,
          "durationTicks": 96,
          "midi": 38,
          "name": "D2",
          "ticks": 41328,
          "time": 83.7051045,
          "velocity": 0.7874015748031497
        },
        {
          "duration": 0.1949950000000058,
          "durationTicks": 96,
          "midi": 52,
          "name": "E3",
          "ticks": 41424,
          "time": 83.9000995,
          "velocity": 0.7874015748031497
        },
        {
          "duration": 0.1949949999999916,
          "durationTicks": 96,
          "midi": 50,
          "name": "D3",
          "ticks": 41520,
          "time": 84.0950945,
          "velocity": 0.7874015748031497
        },
        {
          "duration": 0.1949950000000058,
          "durationTicks": 96,
          "midi": 50,
          "name": "D3",
          "ticks": 41616,
          "time": 84.2900895,
          "velocity": 0.7874015748031497
        },
        {
          "duration": 0.1949950000000058,
          "durationTicks": 96,
          "midi": 50,
          "name": "D3",
          "ticks": 41712,
          "time": 84.4850845,
          "velocity": 0.7874015748031497
        },
        {
          "duration": 0.1949949999999916,
          "durationTicks": 96,
          "midi": 50,
          "name": "D3",
          "ticks": 41808,
          "time": 84.6800795,
          "velocity": 0.7874015748031497
        },
        {
          "duration": 0.1949950000000058,
          "durationTicks": 96,
          "midi": 50,
          "name": "D3",
          "ticks": 41904,
          "time": 84.8750745,
          "velocity": 0.7874015748031497
        },
        {
          "duration": 0.1949949999999916,
          "durationTicks": 96,
          "midi": 50,
          "name": "D3",
          "ticks": 42000,
          "time": 85.0700695,
          "velocity": 0.7874015748031497
        },
        {
          "duration": 0.1949950000000058,
          "durationTicks": 96,
          "midi": 50,
          "name": "D3",
          "ticks": 42096,
          "time": 85.2650645,
          "velocity": 0.7874015748031497
        },
        {
          "duration": 0.1949950000000058,
          "durationTicks": 96,
          "midi": 50,
          "name": "D3",
          "ticks": 42192,
          "time": 85.4600595,
          "velocity": 0.7874015748031497
        },
        {
          "duration": 0.1949949999999916,
          "durationTicks": 96,
          "midi": 55,
          "name": "G3",
          "ticks": 42288,
          "time": 85.6550545,
          "velocity": 0.7874015748031497
        },
        {
          "duration": 0.4874875000000003,
          "durationTicks": 240,
          "midi": 50,
          "name": "D3",
          "ticks": 42384,
          "time": 85.8500495,
          "velocity": 0.7874015748031497
        },
        {
          "duration": 0.3899899999999974,
          "durationTicks": 192,
          "midi": 52,
          "name": "E3",
          "ticks": 42624,
          "time": 86.337537,
          "velocity": 0.7874015748031497
        },
        {
          "duration": 0.3899899999999974,
          "durationTicks": 192,
          "midi": 55,
          "name": "G3",
          "ticks": 42816,
          "time": 86.727527,
          "velocity": 0.7874015748031497
        },
        {
          "duration": 0.1949950000000058,
          "durationTicks": 96,
          "midi": 40,
          "name": "E2",
          "ticks": 43008,
          "time": 87.11751699999999,
          "velocity": 0.7874015748031497
        },
        {
          "duration": 0.1949950000000058,
          "durationTicks": 96,
          "midi": 40,
          "name": "E2",
          "ticks": 43104,
          "time": 87.312512,
          "velocity": 0.7874015748031497
        },
        {
          "duration": 0.1949949999999916,
          "durationTicks": 96,
          "midi": 40,
          "name": "E2",
          "ticks": 43200,
          "time": 87.507507,
          "velocity": 0.7874015748031497
        },
        {
          "duration": 0.1949950000000058,
          "durationTicks": 96,
          "midi": 40,
          "name": "E2",
          "ticks": 43296,
          "time": 87.702502,
          "velocity": 0.7874015748031497
        },
        {
          "duration": 0.1949949999999916,
          "durationTicks": 96,
          "midi": 40,
          "name": "E2",
          "ticks": 43392,
          "time": 87.897497,
          "velocity": 0.7874015748031497
        },
        {
          "duration": 0.1949950000000058,
          "durationTicks": 96,
          "midi": 40,
          "name": "E2",
          "ticks": 43488,
          "time": 88.092492,
          "velocity": 0.7874015748031497
        },
        {
          "duration": 0.1949950000000058,
          "durationTicks": 96,
          "midi": 40,
          "name": "E2",
          "ticks": 43584,
          "time": 88.287487,
          "velocity": 0.7874015748031497
        },
        {
          "duration": 0.1949949999999916,
          "durationTicks": 96,
          "midi": 40,
          "name": "E2",
          "ticks": 43680,
          "time": 88.482482,
          "velocity": 0.7874015748031497
        },
        {
          "duration": 0.1949950000000058,
          "durationTicks": 96,
          "midi": 40,
          "name": "E2",
          "ticks": 43776,
          "time": 88.677477,
          "velocity": 0.7874015748031497
        },
        {
          "duration": 0.1949949999999916,
          "durationTicks": 96,
          "midi": 40,
          "name": "E2",
          "ticks": 43872,
          "time": 88.872472,
          "velocity": 0.7874015748031497
        },
        {
          "duration": 0.1949950000000058,
          "durationTicks": 96,
          "midi": 40,
          "name": "E2",
          "ticks": 43968,
          "time": 89.067467,
          "velocity": 0.7874015748031497
        },
        {
          "duration": 0.1949949999999916,
          "durationTicks": 96,
          "midi": 40,
          "name": "E2",
          "ticks": 44064,
          "time": 89.262462,
          "velocity": 0.7874015748031497
        },
        {
          "duration": 0.1949950000000058,
          "durationTicks": 96,
          "midi": 45,
          "name": "A2",
          "ticks": 44160,
          "time": 89.45745699999999,
          "velocity": 0.7874015748031497
        },
        {
          "duration": 0.1949950000000058,
          "durationTicks": 96,
          "midi": 47,
          "name": "B2",
          "ticks": 44256,
          "time": 89.652452,
          "velocity": 0.7874015748031497
        },
        {
          "duration": 0.1949949999999916,
          "durationTicks": 96,
          "midi": 38,
          "name": "D2",
          "ticks": 44352,
          "time": 89.847447,
          "velocity": 0.7874015748031497
        },
        {
          "duration": 0.1949950000000058,
          "durationTicks": 96,
          "midi": 52,
          "name": "E3",
          "ticks": 44448,
          "time": 90.042442,
          "velocity": 0.7874015748031497
        },
        {
          "duration": 0.1949949999999916,
          "durationTicks": 96,
          "midi": 50,
          "name": "D3",
          "ticks": 44544,
          "time": 90.237437,
          "velocity": 0.7874015748031497
        },
        {
          "duration": 0.1949950000000058,
          "durationTicks": 96,
          "midi": 50,
          "name": "D3",
          "ticks": 44640,
          "time": 90.43243199999999,
          "velocity": 0.7874015748031497
        },
        {
          "duration": 0.1949950000000058,
          "durationTicks": 96,
          "midi": 50,
          "name": "D3",
          "ticks": 44736,
          "time": 90.627427,
          "velocity": 0.7874015748031497
        },
        {
          "duration": 0.1949949999999916,
          "durationTicks": 96,
          "midi": 50,
          "name": "D3",
          "ticks": 44832,
          "time": 90.822422,
          "velocity": 0.7874015748031497
        },
        {
          "duration": 0.1949950000000058,
          "durationTicks": 96,
          "midi": 50,
          "name": "D3",
          "ticks": 44928,
          "time": 91.017417,
          "velocity": 0.7874015748031497
        },
        {
          "duration": 0.1949949999999916,
          "durationTicks": 96,
          "midi": 50,
          "name": "D3",
          "ticks": 45024,
          "time": 91.212412,
          "velocity": 0.7874015748031497
        },
        {
          "duration": 0.1949950000000058,
          "durationTicks": 96,
          "midi": 50,
          "name": "D3",
          "ticks": 45120,
          "time": 91.40740699999999,
          "velocity": 0.7874015748031497
        },
        {
          "duration": 0.1949950000000058,
          "durationTicks": 96,
          "midi": 50,
          "name": "D3",
          "ticks": 45216,
          "time": 91.602402,
          "velocity": 0.7874015748031497
        },
        {
          "duration": 0.1949949999999916,
          "durationTicks": 96,
          "midi": 55,
          "name": "G3",
          "ticks": 45312,
          "time": 91.797397,
          "velocity": 0.7874015748031497
        },
        {
          "duration": 0.4874875000000003,
          "durationTicks": 240,
          "midi": 50,
          "name": "D3",
          "ticks": 45408,
          "time": 91.992392,
          "velocity": 0.7874015748031497
        },
        {
          "duration": 0.3899899999999974,
          "durationTicks": 192,
          "midi": 52,
          "name": "E3",
          "ticks": 45648,
          "time": 92.4798795,
          "velocity": 0.7874015748031497
        },
        {
          "duration": 0.3899899999999974,
          "durationTicks": 192,
          "midi": 55,
          "name": "G3",
          "ticks": 45840,
          "time": 92.8698695,
          "velocity": 0.7874015748031497
        },
        {
          "duration": 0.1949950000000058,
          "durationTicks": 96,
          "midi": 40,
          "name": "E2",
          "ticks": 46032,
          "time": 93.25985949999999,
          "velocity": 0.7874015748031497
        },
        {
          "duration": 0.1949950000000058,
          "durationTicks": 96,
          "midi": 40,
          "name": "E2",
          "ticks": 46128,
          "time": 93.4548545,
          "velocity": 0.7874015748031497
        },
        {
          "duration": 0.1949949999999916,
          "durationTicks": 96,
          "midi": 40,
          "name": "E2",
          "ticks": 46224,
          "time": 93.6498495,
          "velocity": 0.7874015748031497
        },
        {
          "duration": 0.1949950000000058,
          "durationTicks": 96,
          "midi": 40,
          "name": "E2",
          "ticks": 46320,
          "time": 93.8448445,
          "velocity": 0.7874015748031497
        },
        {
          "duration": 0.1949949999999916,
          "durationTicks": 96,
          "midi": 40,
          "name": "E2",
          "ticks": 46416,
          "time": 94.0398395,
          "velocity": 0.7874015748031497
        },
        {
          "duration": 0.1949950000000058,
          "durationTicks": 96,
          "midi": 40,
          "name": "E2",
          "ticks": 46512,
          "time": 94.23483449999999,
          "velocity": 0.7874015748031497
        },
        {
          "duration": 0.1949949999999916,
          "durationTicks": 96,
          "midi": 40,
          "name": "E2",
          "ticks": 46608,
          "time": 94.4298295,
          "velocity": 0.7874015748031497
        },
        {
          "duration": 0.1949950000000058,
          "durationTicks": 96,
          "midi": 40,
          "name": "E2",
          "ticks": 46704,
          "time": 94.62482449999999,
          "velocity": 0.7874015748031497
        },
        {
          "duration": 0.1949950000000058,
          "durationTicks": 96,
          "midi": 40,
          "name": "E2",
          "ticks": 46800,
          "time": 94.8198195,
          "velocity": 0.7874015748031497
        },
        {
          "duration": 0.1949949999999916,
          "durationTicks": 96,
          "midi": 40,
          "name": "E2",
          "ticks": 46896,
          "time": 95.0148145,
          "velocity": 0.7874015748031497
        },
        {
          "duration": 0.1949950000000058,
          "durationTicks": 96,
          "midi": 40,
          "name": "E2",
          "ticks": 46992,
          "time": 95.20980949999999,
          "velocity": 0.7874015748031497
        },
        {
          "duration": 0.1949949999999916,
          "durationTicks": 96,
          "midi": 40,
          "name": "E2",
          "ticks": 47088,
          "time": 95.4048045,
          "velocity": 0.7874015748031497
        },
        {
          "duration": 0.1949950000000058,
          "durationTicks": 96,
          "midi": 45,
          "name": "A2",
          "ticks": 47184,
          "time": 95.59979949999999,
          "velocity": 0.7874015748031497
        },
        {
          "duration": 0.1949950000000058,
          "durationTicks": 96,
          "midi": 47,
          "name": "B2",
          "ticks": 47280,
          "time": 95.7947945,
          "velocity": 0.7874015748031497
        },
        {
          "duration": 0.1949949999999916,
          "durationTicks": 96,
          "midi": 38,
          "name": "D2",
          "ticks": 47376,
          "time": 95.9897895,
          "velocity": 0.7874015748031497
        },
        {
          "duration": 0.1949950000000058,
          "durationTicks": 96,
          "midi": 52,
          "name": "E3",
          "ticks": 47472,
          "time": 96.18478449999999,
          "velocity": 0.7874015748031497
        },
        {
          "duration": 0.1949949999999916,
          "durationTicks": 96,
          "midi": 50,
          "name": "D3",
          "ticks": 47568,
          "time": 96.3797795,
          "velocity": 0.7874015748031497
        },
        {
          "duration": 0.1949950000000058,
          "durationTicks": 96,
          "midi": 50,
          "name": "D3",
          "ticks": 47664,
          "time": 96.57477449999999,
          "velocity": 0.7874015748031497
        },
        {
          "duration": 0.1949950000000058,
          "durationTicks": 96,
          "midi": 50,
          "name": "D3",
          "ticks": 47760,
          "time": 96.7697695,
          "velocity": 0.7874015748031497
        },
        {
          "duration": 0.1949949999999916,
          "durationTicks": 96,
          "midi": 50,
          "name": "D3",
          "ticks": 47856,
          "time": 96.9647645,
          "velocity": 0.7874015748031497
        },
        {
          "duration": 0.1949950000000058,
          "durationTicks": 96,
          "midi": 50,
          "name": "D3",
          "ticks": 47952,
          "time": 97.15975949999999,
          "velocity": 0.7874015748031497
        },
        {
          "duration": 0.1949949999999916,
          "durationTicks": 96,
          "midi": 50,
          "name": "D3",
          "ticks": 48048,
          "time": 97.3547545,
          "velocity": 0.7874015748031497
        },
        {
          "duration": 0.1949950000000058,
          "durationTicks": 96,
          "midi": 50,
          "name": "D3",
          "ticks": 48144,
          "time": 97.54974949999999,
          "velocity": 0.7874015748031497
        },
        {
          "duration": 0.1949950000000058,
          "durationTicks": 96,
          "midi": 50,
          "name": "D3",
          "ticks": 48240,
          "time": 97.7447445,
          "velocity": 0.7874015748031497
        },
        {
          "duration": 0.1949949999999916,
          "durationTicks": 96,
          "midi": 55,
          "name": "G3",
          "ticks": 48336,
          "time": 97.9397395,
          "velocity": 0.7874015748031497
        },
        {
          "duration": 0.4874875000000003,
          "durationTicks": 240,
          "midi": 50,
          "name": "D3",
          "ticks": 48432,
          "time": 98.1347345,
          "velocity": 0.7874015748031497
        },
        {
          "duration": 0.3899899999999974,
          "durationTicks": 192,
          "midi": 52,
          "name": "E3",
          "ticks": 48672,
          "time": 98.622222,
          "velocity": 0.7874015748031497
        },
        {
          "duration": 0.3899899999999974,
          "durationTicks": 192,
          "midi": 55,
          "name": "G3",
          "ticks": 48864,
          "time": 99.01221199999999,
          "velocity": 0.7874015748031497
        },
        {
          "duration": 0.1949950000000058,
          "durationTicks": 96,
          "midi": 40,
          "name": "E2",
          "ticks": 49056,
          "time": 99.40220199999999,
          "velocity": 0.7874015748031497
        },
        {
          "duration": 0.1949950000000058,
          "durationTicks": 96,
          "midi": 40,
          "name": "E2",
          "ticks": 49152,
          "time": 99.597197,
          "velocity": 0.7874015748031497
        },
        {
          "duration": 0.1949949999999916,
          "durationTicks": 96,
          "midi": 40,
          "name": "E2",
          "ticks": 49248,
          "time": 99.792192,
          "velocity": 0.7874015748031497
        },
        {
          "duration": 0.1949950000000058,
          "durationTicks": 96,
          "midi": 40,
          "name": "E2",
          "ticks": 49344,
          "time": 99.98718699999999,
          "velocity": 0.7874015748031497
        },
        {
          "duration": 0.1949949999999916,
          "durationTicks": 96,
          "midi": 40,
          "name": "E2",
          "ticks": 49440,
          "time": 100.182182,
          "velocity": 0.7874015748031497
        },
        {
          "duration": 0.1949950000000058,
          "durationTicks": 96,
          "midi": 40,
          "name": "E2",
          "ticks": 49536,
          "time": 100.37717699999999,
          "velocity": 0.7874015748031497
        },
        {
          "duration": 0.1949950000000058,
          "durationTicks": 96,
          "midi": 40,
          "name": "E2",
          "ticks": 49632,
          "time": 100.572172,
          "velocity": 0.7874015748031497
        },
        {
          "duration": 0.1949949999999916,
          "durationTicks": 96,
          "midi": 40,
          "name": "E2",
          "ticks": 49728,
          "time": 100.767167,
          "velocity": 0.7874015748031497
        },
        {
          "duration": 0.1949950000000058,
          "durationTicks": 96,
          "midi": 40,
          "name": "E2",
          "ticks": 49824,
          "time": 100.96216199999999,
          "velocity": 0.7874015748031497
        },
        {
          "duration": 0.1949949999999916,
          "durationTicks": 96,
          "midi": 40,
          "name": "E2",
          "ticks": 49920,
          "time": 101.157157,
          "velocity": 0.7874015748031497
        },
        {
          "duration": 0.1949950000000058,
          "durationTicks": 96,
          "midi": 40,
          "name": "E2",
          "ticks": 50016,
          "time": 101.35215199999999,
          "velocity": 0.7874015748031497
        },
        {
          "duration": 0.1949949999999916,
          "durationTicks": 96,
          "midi": 40,
          "name": "E2",
          "ticks": 50112,
          "time": 101.547147,
          "velocity": 0.7874015748031497
        },
        {
          "duration": 0.1949950000000058,
          "durationTicks": 96,
          "midi": 45,
          "name": "A2",
          "ticks": 50208,
          "time": 101.74214199999999,
          "velocity": 0.7874015748031497
        },
        {
          "duration": 0.1949950000000058,
          "durationTicks": 96,
          "midi": 47,
          "name": "B2",
          "ticks": 50304,
          "time": 101.93713699999999,
          "velocity": 0.7874015748031497
        },
        {
          "duration": 0.1949949999999916,
          "durationTicks": 96,
          "midi": 38,
          "name": "D2",
          "ticks": 50400,
          "time": 102.132132,
          "velocity": 0.7874015748031497
        },
        {
          "duration": 0.1949950000000058,
          "durationTicks": 96,
          "midi": 52,
          "name": "E3",
          "ticks": 50496,
          "time": 102.32712699999999,
          "velocity": 0.7874015748031497
        },
        {
          "duration": 0.1949949999999916,
          "durationTicks": 96,
          "midi": 50,
          "name": "D3",
          "ticks": 50592,
          "time": 102.522122,
          "velocity": 0.7874015748031497
        },
        {
          "duration": 0.1949950000000058,
          "durationTicks": 96,
          "midi": 50,
          "name": "D3",
          "ticks": 50688,
          "time": 102.71711699999999,
          "velocity": 0.7874015748031497
        },
        {
          "duration": 0.1949950000000058,
          "durationTicks": 96,
          "midi": 50,
          "name": "D3",
          "ticks": 50784,
          "time": 102.912112,
          "velocity": 0.7874015748031497
        },
        {
          "duration": 0.1949949999999916,
          "durationTicks": 96,
          "midi": 50,
          "name": "D3",
          "ticks": 50880,
          "time": 103.107107,
          "velocity": 0.7874015748031497
        },
        {
          "duration": 0.1949950000000058,
          "durationTicks": 96,
          "midi": 50,
          "name": "D3",
          "ticks": 50976,
          "time": 103.30210199999999,
          "velocity": 0.7874015748031497
        },
        {
          "duration": 0.1949949999999916,
          "durationTicks": 96,
          "midi": 50,
          "name": "D3",
          "ticks": 51072,
          "time": 103.497097,
          "velocity": 0.7874015748031497
        },
        {
          "duration": 0.1949950000000058,
          "durationTicks": 96,
          "midi": 50,
          "name": "D3",
          "ticks": 51168,
          "time": 103.69209199999999,
          "velocity": 0.7874015748031497
        },
        {
          "duration": 0.1949950000000058,
          "durationTicks": 96,
          "midi": 50,
          "name": "D3",
          "ticks": 51264,
          "time": 103.887087,
          "velocity": 0.7874015748031497
        },
        {
          "duration": 0.1949949999999916,
          "durationTicks": 96,
          "midi": 55,
          "name": "G3",
          "ticks": 51360,
          "time": 104.082082,
          "velocity": 0.7874015748031497
        },
        {
          "duration": 0.4874875000000003,
          "durationTicks": 240,
          "midi": 50,
          "name": "D3",
          "ticks": 51456,
          "time": 104.27707699999999,
          "velocity": 0.7874015748031497
        },
        {
          "duration": 0.3899899999999974,
          "durationTicks": 192,
          "midi": 52,
          "name": "E3",
          "ticks": 51696,
          "time": 104.76456449999999,
          "velocity": 0.7874015748031497
        },
        {
          "duration": 0.3899899999999974,
          "durationTicks": 192,
          "midi": 55,
          "name": "G3",
          "ticks": 51888,
          "time": 105.15455449999999,
          "velocity": 0.7874015748031497
        },
        {
          "duration": 0.1949950000000058,
          "durationTicks": 96,
          "midi": 40,
          "name": "E2",
          "ticks": 52080,
          "time": 105.54454449999999,
          "velocity": 0.7874015748031497
        },
        {
          "duration": 0.1949950000000058,
          "durationTicks": 96,
          "midi": 40,
          "name": "E2",
          "ticks": 52176,
          "time": 105.73953949999999,
          "velocity": 0.7874015748031497
        },
        {
          "duration": 0.1949949999999916,
          "durationTicks": 96,
          "midi": 40,
          "name": "E2",
          "ticks": 52272,
          "time": 105.9345345,
          "velocity": 0.7874015748031497
        },
        {
          "duration": 0.1949950000000058,
          "durationTicks": 96,
          "midi": 40,
          "name": "E2",
          "ticks": 52368,
          "time": 106.12952949999999,
          "velocity": 0.7874015748031497
        },
        {
          "duration": 0.1949949999999916,
          "durationTicks": 96,
          "midi": 40,
          "name": "E2",
          "ticks": 52464,
          "time": 106.3245245,
          "velocity": 0.7874015748031497
        },
        {
          "duration": 0.1949950000000058,
          "durationTicks": 96,
          "midi": 40,
          "name": "E2",
          "ticks": 52560,
          "time": 106.51951949999999,
          "velocity": 0.7874015748031497
        },
        {
          "duration": 0.1949949999999916,
          "durationTicks": 96,
          "midi": 40,
          "name": "E2",
          "ticks": 52656,
          "time": 106.71451449999999,
          "velocity": 0.7874015748031497
        },
        {
          "duration": 0.1949950000000058,
          "durationTicks": 96,
          "midi": 40,
          "name": "E2",
          "ticks": 52752,
          "time": 106.90950949999998,
          "velocity": 0.7874015748031497
        },
        {
          "duration": 0.1949950000000058,
          "durationTicks": 96,
          "midi": 40,
          "name": "E2",
          "ticks": 52848,
          "time": 107.10450449999999,
          "velocity": 0.7874015748031497
        },
        {
          "duration": 0.1949949999999916,
          "durationTicks": 96,
          "midi": 40,
          "name": "E2",
          "ticks": 52944,
          "time": 107.2994995,
          "velocity": 0.7874015748031497
        },
        {
          "duration": 0.1949950000000058,
          "durationTicks": 96,
          "midi": 40,
          "name": "E2",
          "ticks": 53040,
          "time": 107.49449449999999,
          "velocity": 0.7874015748031497
        },
        {
          "duration": 0.1949949999999916,
          "durationTicks": 96,
          "midi": 40,
          "name": "E2",
          "ticks": 53136,
          "time": 107.6894895,
          "velocity": 0.7874015748031497
        },
        {
          "duration": 0.1949950000000058,
          "durationTicks": 96,
          "midi": 45,
          "name": "A2",
          "ticks": 53232,
          "time": 107.88448449999999,
          "velocity": 0.7874015748031497
        },
        {
          "duration": 0.1949950000000058,
          "durationTicks": 96,
          "midi": 47,
          "name": "B2",
          "ticks": 53328,
          "time": 108.07947949999999,
          "velocity": 0.7874015748031497
        },
        {
          "duration": 0.1949949999999916,
          "durationTicks": 96,
          "midi": 38,
          "name": "D2",
          "ticks": 53424,
          "time": 108.2744745,
          "velocity": 0.7874015748031497
        },
        {
          "duration": 0.1949950000000058,
          "durationTicks": 96,
          "midi": 52,
          "name": "E3",
          "ticks": 53520,
          "time": 108.46946949999999,
          "velocity": 0.7874015748031497
        },
        {
          "duration": 0.1949949999999916,
          "durationTicks": 96,
          "midi": 50,
          "name": "D3",
          "ticks": 53616,
          "time": 108.6644645,
          "velocity": 0.7874015748031497
        },
        {
          "duration": 0.1949950000000058,
          "durationTicks": 96,
          "midi": 50,
          "name": "D3",
          "ticks": 53712,
          "time": 108.85945949999999,
          "velocity": 0.7874015748031497
        },
        {
          "duration": 0.1949950000000058,
          "durationTicks": 96,
          "midi": 50,
          "name": "D3",
          "ticks": 53808,
          "time": 109.05445449999999,
          "velocity": 0.7874015748031497
        },
        {
          "duration": 0.1949949999999916,
          "durationTicks": 96,
          "midi": 50,
          "name": "D3",
          "ticks": 53904,
          "time": 109.2494495,
          "velocity": 0.7874015748031497
        },
        {
          "duration": 0.1949950000000058,
          "durationTicks": 96,
          "midi": 50,
          "name": "D3",
          "ticks": 54000,
          "time": 109.44444449999999,
          "velocity": 0.7874015748031497
        },
        {
          "duration": 0.1949949999999916,
          "durationTicks": 96,
          "midi": 50,
          "name": "D3",
          "ticks": 54096,
          "time": 109.6394395,
          "velocity": 0.7874015748031497
        },
        {
          "duration": 0.1949950000000058,
          "durationTicks": 96,
          "midi": 50,
          "name": "D3",
          "ticks": 54192,
          "time": 109.83443449999999,
          "velocity": 0.7874015748031497
        },
        {
          "duration": 0.1949950000000058,
          "durationTicks": 96,
          "midi": 50,
          "name": "D3",
          "ticks": 54288,
          "time": 110.02942949999999,
          "velocity": 0.7874015748031497
        },
        {
          "duration": 0.1949949999999916,
          "durationTicks": 96,
          "midi": 55,
          "name": "G3",
          "ticks": 54384,
          "time": 110.2244245,
          "velocity": 0.7874015748031497
        },
        {
          "duration": 0.4874875000000003,
          "durationTicks": 240,
          "midi": 50,
          "name": "D3",
          "ticks": 54480,
          "time": 110.41941949999999,
          "velocity": 0.7874015748031497
        },
        {
          "duration": 0.3899899999999974,
          "durationTicks": 192,
          "midi": 52,
          "name": "E3",
          "ticks": 54720,
          "time": 110.90690699999999,
          "velocity": 0.7874015748031497
        },
        {
          "duration": 0.3899899999999974,
          "durationTicks": 192,
          "midi": 55,
          "name": "G3",
          "ticks": 54912,
          "time": 111.29689699999999,
          "velocity": 0.7874015748031497
        },
        {
          "duration": 0.1949950000000058,
          "durationTicks": 96,
          "midi": 40,
          "name": "E2",
          "ticks": 55104,
          "time": 111.68688699999998,
          "velocity": 0.7874015748031497
        },
        {
          "duration": 0.1949950000000058,
          "durationTicks": 96,
          "midi": 40,
          "name": "E2",
          "ticks": 55200,
          "time": 111.88188199999999,
          "velocity": 0.7874015748031497
        },
        {
          "duration": 0.1949949999999916,
          "durationTicks": 96,
          "midi": 40,
          "name": "E2",
          "ticks": 55296,
          "time": 112.076877,
          "velocity": 0.7874015748031497
        },
        {
          "duration": 0.1949950000000058,
          "durationTicks": 96,
          "midi": 40,
          "name": "E2",
          "ticks": 55392,
          "time": 112.27187199999999,
          "velocity": 0.7874015748031497
        },
        {
          "duration": 0.1949949999999916,
          "durationTicks": 96,
          "midi": 40,
          "name": "E2",
          "ticks": 55488,
          "time": 112.466867,
          "velocity": 0.7874015748031497
        },
        {
          "duration": 0.1949950000000058,
          "durationTicks": 96,
          "midi": 40,
          "name": "E2",
          "ticks": 55584,
          "time": 112.66186199999999,
          "velocity": 0.7874015748031497
        },
        {
          "duration": 0.1949950000000058,
          "durationTicks": 96,
          "midi": 40,
          "name": "E2",
          "ticks": 55680,
          "time": 112.85685699999999,
          "velocity": 0.7874015748031497
        },
        {
          "duration": 0.1949949999999916,
          "durationTicks": 96,
          "midi": 40,
          "name": "E2",
          "ticks": 55776,
          "time": 113.051852,
          "velocity": 0.7874015748031497
        },
        {
          "duration": 0.1949950000000058,
          "durationTicks": 96,
          "midi": 40,
          "name": "E2",
          "ticks": 55872,
          "time": 113.24684699999999,
          "velocity": 0.7874015748031497
        },
        {
          "duration": 0.1949949999999916,
          "durationTicks": 96,
          "midi": 40,
          "name": "E2",
          "ticks": 55968,
          "time": 113.441842,
          "velocity": 0.7874015748031497
        },
        {
          "duration": 0.1949950000000058,
          "durationTicks": 96,
          "midi": 40,
          "name": "E2",
          "ticks": 56064,
          "time": 113.63683699999999,
          "velocity": 0.7874015748031497
        },
        {
          "duration": 0.1949949999999916,
          "durationTicks": 96,
          "midi": 40,
          "name": "E2",
          "ticks": 56160,
          "time": 113.83183199999999,
          "velocity": 0.7874015748031497
        },
        {
          "duration": 0.1949950000000058,
          "durationTicks": 96,
          "midi": 45,
          "name": "A2",
          "ticks": 56256,
          "time": 114.02682699999998,
          "velocity": 0.7874015748031497
        },
        {
          "duration": 0.1949950000000058,
          "durationTicks": 96,
          "midi": 47,
          "name": "B2",
          "ticks": 56352,
          "time": 114.22182199999999,
          "velocity": 0.7874015748031497
        },
        {
          "duration": 0.1949949999999916,
          "durationTicks": 96,
          "midi": 38,
          "name": "D2",
          "ticks": 56448,
          "time": 114.416817,
          "velocity": 0.7874015748031497
        },
        {
          "duration": 0.1949950000000058,
          "durationTicks": 96,
          "midi": 52,
          "name": "E3",
          "ticks": 56544,
          "time": 114.61181199999999,
          "velocity": 0.7874015748031497
        },
        {
          "duration": 0.1949949999999916,
          "durationTicks": 96,
          "midi": 50,
          "name": "D3",
          "ticks": 56640,
          "time": 114.80680699999999,
          "velocity": 0.7874015748031497
        },
        {
          "duration": 0.1949950000000058,
          "durationTicks": 96,
          "midi": 50,
          "name": "D3",
          "ticks": 56736,
          "time": 115.00180199999998,
          "velocity": 0.7874015748031497
        },
        {
          "duration": 0.1949950000000058,
          "durationTicks": 96,
          "midi": 50,
          "name": "D3",
          "ticks": 56832,
          "time": 115.19679699999999,
          "velocity": 0.7874015748031497
        },
        {
          "duration": 0.1949949999999916,
          "durationTicks": 96,
          "midi": 50,
          "name": "D3",
          "ticks": 56928,
          "time": 115.391792,
          "velocity": 0.7874015748031497
        },
        {
          "duration": 0.1949950000000058,
          "durationTicks": 96,
          "midi": 50,
          "name": "D3",
          "ticks": 57024,
          "time": 115.58678699999999,
          "velocity": 0.7874015748031497
        },
        {
          "duration": 0.1949949999999916,
          "durationTicks": 96,
          "midi": 50,
          "name": "D3",
          "ticks": 57120,
          "time": 115.78178199999999,
          "velocity": 0.7874015748031497
        },
        {
          "duration": 0.1949950000000058,
          "durationTicks": 96,
          "midi": 50,
          "name": "D3",
          "ticks": 57216,
          "time": 115.97677699999998,
          "velocity": 0.7874015748031497
        },
        {
          "duration": 0.1949950000000058,
          "durationTicks": 96,
          "midi": 50,
          "name": "D3",
          "ticks": 57312,
          "time": 116.17177199999999,
          "velocity": 0.7874015748031497
        },
        {
          "duration": 0.1949949999999916,
          "durationTicks": 96,
          "midi": 55,
          "name": "G3",
          "ticks": 57408,
          "time": 116.366767,
          "velocity": 0.7874015748031497
        },
        {
          "duration": 0.4874875000000003,
          "durationTicks": 240,
          "midi": 50,
          "name": "D3",
          "ticks": 57504,
          "time": 116.56176199999999,
          "velocity": 0.7874015748031497
        },
        {
          "duration": 0.3899899999999974,
          "durationTicks": 192,
          "midi": 52,
          "name": "E3",
          "ticks": 57744,
          "time": 117.04924949999999,
          "velocity": 0.7874015748031497
        },
        {
          "duration": 0.3899899999999974,
          "durationTicks": 192,
          "midi": 55,
          "name": "G3",
          "ticks": 57936,
          "time": 117.43923949999999,
          "velocity": 0.7874015748031497
        },
        {
          "duration": 0.1949950000000058,
          "durationTicks": 96,
          "midi": 40,
          "name": "E2",
          "ticks": 58128,
          "time": 117.82922949999998,
          "velocity": 0.7874015748031497
        },
        {
          "duration": 0.1949950000000058,
          "durationTicks": 96,
          "midi": 40,
          "name": "E2",
          "ticks": 58224,
          "time": 118.02422449999999,
          "velocity": 0.7874015748031497
        },
        {
          "duration": 0.1949949999999916,
          "durationTicks": 96,
          "midi": 40,
          "name": "E2",
          "ticks": 58320,
          "time": 118.2192195,
          "velocity": 0.7874015748031497
        },
        {
          "duration": 0.1949950000000058,
          "durationTicks": 96,
          "midi": 40,
          "name": "E2",
          "ticks": 58416,
          "time": 118.41421449999999,
          "velocity": 0.7874015748031497
        },
        {
          "duration": 0.1949949999999916,
          "durationTicks": 96,
          "midi": 40,
          "name": "E2",
          "ticks": 58512,
          "time": 118.60920949999999,
          "velocity": 0.7874015748031497
        },
        {
          "duration": 0.1949950000000058,
          "durationTicks": 96,
          "midi": 40,
          "name": "E2",
          "ticks": 58608,
          "time": 118.80420449999998,
          "velocity": 0.7874015748031497
        },
        {
          "duration": 0.1949949999999916,
          "durationTicks": 96,
          "midi": 40,
          "name": "E2",
          "ticks": 58704,
          "time": 118.99919949999999,
          "velocity": 0.7874015748031497
        },
        {
          "duration": 0.1949950000000058,
          "durationTicks": 96,
          "midi": 40,
          "name": "E2",
          "ticks": 58800,
          "time": 119.19419449999998,
          "velocity": 0.7874015748031497
        },
        {
          "duration": 0.1949950000000058,
          "durationTicks": 96,
          "midi": 40,
          "name": "E2",
          "ticks": 58896,
          "time": 119.38918949999999,
          "velocity": 0.7874015748031497
        },
        {
          "duration": 0.1949949999999916,
          "durationTicks": 96,
          "midi": 40,
          "name": "E2",
          "ticks": 58992,
          "time": 119.58418449999999,
          "velocity": 0.7874015748031497
        },
        {
          "duration": 0.1949950000000058,
          "durationTicks": 96,
          "midi": 40,
          "name": "E2",
          "ticks": 59088,
          "time": 119.77917949999998,
          "velocity": 0.7874015748031497
        },
        {
          "duration": 0.1949949999999916,
          "durationTicks": 96,
          "midi": 40,
          "name": "E2",
          "ticks": 59184,
          "time": 119.97417449999999,
          "velocity": 0.7874015748031497
        },
        {
          "duration": 0.1949950000000058,
          "durationTicks": 96,
          "midi": 45,
          "name": "A2",
          "ticks": 59280,
          "time": 120.16916949999998,
          "velocity": 0.7874015748031497
        },
        {
          "duration": 0.1949950000000058,
          "durationTicks": 96,
          "midi": 47,
          "name": "B2",
          "ticks": 59376,
          "time": 120.36416449999999,
          "velocity": 0.7874015748031497
        },
        {
          "duration": 0.1949949999999916,
          "durationTicks": 96,
          "midi": 38,
          "name": "D2",
          "ticks": 59472,
          "time": 120.55915949999999,
          "velocity": 0.7874015748031497
        },
        {
          "duration": 0.1949950000000058,
          "durationTicks": 96,
          "midi": 52,
          "name": "E3",
          "ticks": 59568,
          "time": 120.75415449999998,
          "velocity": 0.7874015748031497
        },
        {
          "duration": 0.1949949999999916,
          "durationTicks": 96,
          "midi": 50,
          "name": "D3",
          "ticks": 59664,
          "time": 120.94914949999999,
          "velocity": 0.7874015748031497
        },
        {
          "duration": 0.1949950000000058,
          "durationTicks": 96,
          "midi": 50,
          "name": "D3",
          "ticks": 59760,
          "time": 121.14414449999998,
          "velocity": 0.7874015748031497
        },
        {
          "duration": 0.1949950000000058,
          "durationTicks": 96,
          "midi": 50,
          "name": "D3",
          "ticks": 59856,
          "time": 121.33913949999999,
          "velocity": 0.7874015748031497
        },
        {
          "duration": 0.1949949999999916,
          "durationTicks": 96,
          "midi": 50,
          "name": "D3",
          "ticks": 59952,
          "time": 121.5341345,
          "velocity": 0.7874015748031497
        },
        {
          "duration": 0.1949950000000058,
          "durationTicks": 96,
          "midi": 50,
          "name": "D3",
          "ticks": 60048,
          "time": 121.72912949999998,
          "velocity": 0.7874015748031497
        },
        {
          "duration": 0.1949949999999916,
          "durationTicks": 96,
          "midi": 50,
          "name": "D3",
          "ticks": 60144,
          "time": 121.92412449999999,
          "velocity": 0.7874015748031497
        },
        {
          "duration": 0.1949950000000058,
          "durationTicks": 96,
          "midi": 50,
          "name": "D3",
          "ticks": 60240,
          "time": 122.11911949999998,
          "velocity": 0.7874015748031497
        },
        {
          "duration": 0.1949950000000058,
          "durationTicks": 96,
          "midi": 50,
          "name": "D3",
          "ticks": 60336,
          "time": 122.31411449999999,
          "velocity": 0.7874015748031497
        },
        {
          "duration": 0.1949949999999916,
          "durationTicks": 96,
          "midi": 55,
          "name": "G3",
          "ticks": 60432,
          "time": 122.5091095,
          "velocity": 0.7874015748031497
        },
        {
          "duration": 0.4874875000000003,
          "durationTicks": 240,
          "midi": 50,
          "name": "D3",
          "ticks": 60528,
          "time": 122.70410449999999,
          "velocity": 0.7874015748031497
        },
        {
          "duration": 0.3899899999999974,
          "durationTicks": 192,
          "midi": 52,
          "name": "E3",
          "ticks": 60768,
          "time": 123.19159199999999,
          "velocity": 0.7874015748031497
        },
        {
          "duration": 0.3899899999999974,
          "durationTicks": 192,
          "midi": 55,
          "name": "G3",
          "ticks": 60960,
          "time": 123.58158199999998,
          "velocity": 0.7874015748031497
        },
        {
          "duration": 0.1949950000000058,
          "durationTicks": 96,
          "midi": 40,
          "name": "E2",
          "ticks": 61152,
          "time": 123.97157199999998,
          "velocity": 0.7874015748031497
        },
        {
          "duration": 0.1949950000000058,
          "durationTicks": 96,
          "midi": 40,
          "name": "E2",
          "ticks": 61248,
          "time": 124.16656699999999,
          "velocity": 0.7874015748031497
        },
        {
          "duration": 0.1949949999999916,
          "durationTicks": 96,
          "midi": 40,
          "name": "E2",
          "ticks": 61344,
          "time": 124.36156199999999,
          "velocity": 0.7874015748031497
        },
        {
          "duration": 0.1949950000000058,
          "durationTicks": 96,
          "midi": 40,
          "name": "E2",
          "ticks": 61440,
          "time": 124.55655699999998,
          "velocity": 0.7874015748031497
        },
        {
          "duration": 0.1949949999999916,
          "durationTicks": 96,
          "midi": 40,
          "name": "E2",
          "ticks": 61536,
          "time": 124.75155199999999,
          "velocity": 0.7874015748031497
        },
        {
          "duration": 0.1949950000000058,
          "durationTicks": 96,
          "midi": 40,
          "name": "E2",
          "ticks": 61632,
          "time": 124.94654699999998,
          "velocity": 0.7874015748031497
        },
        {
          "duration": 0.1949950000000058,
          "durationTicks": 96,
          "midi": 40,
          "name": "E2",
          "ticks": 61728,
          "time": 125.14154199999999,
          "velocity": 0.7874015748031497
        },
        {
          "duration": 0.1949949999999916,
          "durationTicks": 96,
          "midi": 40,
          "name": "E2",
          "ticks": 61824,
          "time": 125.33653699999999,
          "velocity": 0.7874015748031497
        },
        {
          "duration": 0.1949950000000058,
          "durationTicks": 96,
          "midi": 40,
          "name": "E2",
          "ticks": 61920,
          "time": 125.53153199999998,
          "velocity": 0.7874015748031497
        },
        {
          "duration": 0.1949949999999916,
          "durationTicks": 96,
          "midi": 40,
          "name": "E2",
          "ticks": 62016,
          "time": 125.72652699999999,
          "velocity": 0.7874015748031497
        },
        {
          "duration": 0.1949950000000058,
          "durationTicks": 96,
          "midi": 40,
          "name": "E2",
          "ticks": 62112,
          "time": 125.92152199999998,
          "velocity": 0.7874015748031497
        },
        {
          "duration": 0.1949949999999916,
          "durationTicks": 96,
          "midi": 40,
          "name": "E2",
          "ticks": 62208,
          "time": 126.11651699999999,
          "velocity": 0.7874015748031497
        },
        {
          "duration": 0.1949950000000058,
          "durationTicks": 96,
          "midi": 45,
          "name": "A2",
          "ticks": 62304,
          "time": 126.31151199999998,
          "velocity": 0.7874015748031497
        },
        {
          "duration": 0.1949950000000058,
          "durationTicks": 96,
          "midi": 47,
          "name": "B2",
          "ticks": 62400,
          "time": 126.50650699999998,
          "velocity": 0.7874015748031497
        },
        {
          "duration": 0.1949949999999916,
          "durationTicks": 96,
          "midi": 38,
          "name": "D2",
          "ticks": 62496,
          "time": 126.70150199999999,
          "velocity": 0.7874015748031497
        },
        {
          "duration": 0.1949950000000058,
          "durationTicks": 96,
          "midi": 52,
          "name": "E3",
          "ticks": 62592,
          "time": 126.89649699999998,
          "velocity": 0.7874015748031497
        },
        {
          "duration": 0.1949949999999916,
          "durationTicks": 96,
          "midi": 50,
          "name": "D3",
          "ticks": 62688,
          "time": 127.09149199999999,
          "velocity": 0.7874015748031497
        },
        {
          "duration": 0.1949950000000058,
          "durationTicks": 96,
          "midi": 50,
          "name": "D3",
          "ticks": 62784,
          "time": 127.28648699999998,
          "velocity": 0.7874015748031497
        },
        {
          "duration": 0.1949950000000058,
          "durationTicks": 96,
          "midi": 50,
          "name": "D3",
          "ticks": 62880,
          "time": 127.48148199999999,
          "velocity": 0.7874015748031497
        },
        {
          "duration": 0.1949949999999916,
          "durationTicks": 96,
          "midi": 50,
          "name": "D3",
          "ticks": 62976,
          "time": 127.67647699999999,
          "velocity": 0.7874015748031497
        },
        {
          "duration": 0.1949950000000058,
          "durationTicks": 96,
          "midi": 50,
          "name": "D3",
          "ticks": 63072,
          "time": 127.87147199999998,
          "velocity": 0.7874015748031497
        },
        {
          "duration": 0.1949950000000058,
          "durationTicks": 96,
          "midi": 50,
          "name": "D3",
          "ticks": 63168,
          "time": 128.066467,
          "velocity": 0.7874015748031497
        },
        {
          "duration": 0.1949950000000058,
          "durationTicks": 96,
          "midi": 50,
          "name": "D3",
          "ticks": 63264,
          "time": 128.261462,
          "velocity": 0.7874015748031497
        },
        {
          "duration": 0.19499499999997738,
          "durationTicks": 96,
          "midi": 50,
          "name": "D3",
          "ticks": 63360,
          "time": 128.456457,
          "velocity": 0.7874015748031497
        },
        {
          "duration": 0.1949950000000058,
          "durationTicks": 96,
          "midi": 55,
          "name": "G3",
          "ticks": 63456,
          "time": 128.65145199999998,
          "velocity": 0.7874015748031497
        },
        {
          "duration": 0.4874875000000145,
          "durationTicks": 240,
          "midi": 50,
          "name": "D3",
          "ticks": 63552,
          "time": 128.84644699999998,
          "velocity": 0.7874015748031497
        },
        {
          "duration": 0.3899900000000116,
          "durationTicks": 192,
          "midi": 52,
          "name": "E3",
          "ticks": 63792,
          "time": 129.3339345,
          "velocity": 0.7874015748031497
        },
        {
          "duration": 0.3899899999999832,
          "durationTicks": 192,
          "midi": 55,
          "name": "G3",
          "ticks": 63984,
          "time": 129.7239245,
          "velocity": 0.7874015748031497
        },
        {
          "duration": 0.1949950000000058,
          "durationTicks": 96,
          "midi": 40,
          "name": "E2",
          "ticks": 64176,
          "time": 130.1139145,
          "velocity": 0.7874015748031497
        },
        {
          "duration": 0.1949950000000058,
          "durationTicks": 96,
          "midi": 40,
          "name": "E2",
          "ticks": 64272,
          "time": 130.3089095,
          "velocity": 0.7874015748031497
        },
        {
          "duration": 0.1949950000000058,
          "durationTicks": 96,
          "midi": 40,
          "name": "E2",
          "ticks": 64368,
          "time": 130.5039045,
          "velocity": 0.7874015748031497
        },
        {
          "duration": 0.19499499999997738,
          "durationTicks": 96,
          "midi": 40,
          "name": "E2",
          "ticks": 64464,
          "time": 130.6988995,
          "velocity": 0.7874015748031497
        },
        {
          "duration": 0.1949950000000058,
          "durationTicks": 96,
          "midi": 40,
          "name": "E2",
          "ticks": 64560,
          "time": 130.8938945,
          "velocity": 0.7874015748031497
        },
        {
          "duration": 0.1949950000000058,
          "durationTicks": 96,
          "midi": 40,
          "name": "E2",
          "ticks": 64656,
          "time": 131.0888895,
          "velocity": 0.7874015748031497
        },
        {
          "duration": 0.1949950000000058,
          "durationTicks": 96,
          "midi": 40,
          "name": "E2",
          "ticks": 64752,
          "time": 131.2838845,
          "velocity": 0.7874015748031497
        },
        {
          "duration": 0.1949950000000058,
          "durationTicks": 96,
          "midi": 40,
          "name": "E2",
          "ticks": 64848,
          "time": 131.4788795,
          "velocity": 0.7874015748031497
        },
        {
          "duration": 0.19499499999997738,
          "durationTicks": 96,
          "midi": 40,
          "name": "E2",
          "ticks": 64944,
          "time": 131.6738745,
          "velocity": 0.7874015748031497
        },
        {
          "duration": 0.1949950000000058,
          "durationTicks": 96,
          "midi": 40,
          "name": "E2",
          "ticks": 65040,
          "time": 131.8688695,
          "velocity": 0.7874015748031497
        },
        {
          "duration": 0.1949950000000058,
          "durationTicks": 96,
          "midi": 40,
          "name": "E2",
          "ticks": 65136,
          "time": 132.0638645,
          "velocity": 0.7874015748031497
        },
        {
          "duration": 0.1949950000000058,
          "durationTicks": 96,
          "midi": 40,
          "name": "E2",
          "ticks": 65232,
          "time": 132.2588595,
          "velocity": 0.7874015748031497
        },
        {
          "duration": 0.1949950000000058,
          "durationTicks": 96,
          "midi": 45,
          "name": "A2",
          "ticks": 65328,
          "time": 132.4538545,
          "velocity": 0.7874015748031497
        },
        {
          "duration": 0.19499499999997738,
          "durationTicks": 96,
          "midi": 47,
          "name": "B2",
          "ticks": 65424,
          "time": 132.6488495,
          "velocity": 0.7874015748031497
        },
        {
          "duration": 0.1949950000000058,
          "durationTicks": 96,
          "midi": 38,
          "name": "D2",
          "ticks": 65520,
          "time": 132.8438445,
          "velocity": 0.7874015748031497
        },
        {
          "duration": 0.1949950000000058,
          "durationTicks": 96,
          "midi": 52,
          "name": "E3",
          "ticks": 65616,
          "time": 133.0388395,
          "velocity": 0.7874015748031497
        },
        {
          "duration": 0.1949950000000058,
          "durationTicks": 96,
          "midi": 50,
          "name": "D3",
          "ticks": 65712,
          "time": 133.2338345,
          "velocity": 0.7874015748031497
        },
        {
          "duration": 0.1949950000000058,
          "durationTicks": 96,
          "midi": 50,
          "name": "D3",
          "ticks": 65808,
          "time": 133.4288295,
          "velocity": 0.7874015748031497
        },
        {
          "duration": 0.19499499999997738,
          "durationTicks": 96,
          "midi": 50,
          "name": "D3",
          "ticks": 65904,
          "time": 133.6238245,
          "velocity": 0.7874015748031497
        },
        {
          "duration": 0.1949950000000058,
          "durationTicks": 96,
          "midi": 50,
          "name": "D3",
          "ticks": 66000,
          "time": 133.8188195,
          "velocity": 0.7874015748031497
        },
        {
          "duration": 0.1949950000000058,
          "durationTicks": 96,
          "midi": 50,
          "name": "D3",
          "ticks": 66096,
          "time": 134.0138145,
          "velocity": 0.7874015748031497
        },
        {
          "duration": 0.1949950000000058,
          "durationTicks": 96,
          "midi": 50,
          "name": "D3",
          "ticks": 66192,
          "time": 134.2088095,
          "velocity": 0.7874015748031497
        },
        {
          "duration": 0.19499499999997738,
          "durationTicks": 96,
          "midi": 50,
          "name": "D3",
          "ticks": 66288,
          "time": 134.4038045,
          "velocity": 0.7874015748031497
        },
        {
          "duration": 0.1949950000000058,
          "durationTicks": 96,
          "midi": 50,
          "name": "D3",
          "ticks": 66384,
          "time": 134.59879949999998,
          "velocity": 0.7874015748031497
        },
        {
          "duration": 0.1949950000000058,
          "durationTicks": 96,
          "midi": 55,
          "name": "G3",
          "ticks": 66480,
          "time": 134.7937945,
          "velocity": 0.7874015748031497
        },
        {
          "duration": 0.4874875000000145,
          "durationTicks": 240,
          "midi": 50,
          "name": "D3",
          "ticks": 66576,
          "time": 134.9887895,
          "velocity": 0.7874015748031497
        },
        {
          "duration": 0.3899900000000116,
          "durationTicks": 192,
          "midi": 52,
          "name": "E3",
          "ticks": 66816,
          "time": 135.476277,
          "velocity": 0.7874015748031497
        },
        {
          "duration": 0.3899899999999832,
          "durationTicks": 192,
          "midi": 55,
          "name": "G3",
          "ticks": 67008,
          "time": 135.86626700000002,
          "velocity": 0.7874015748031497
        },
        {
          "duration": 0.1949950000000058,
          "durationTicks": 96,
          "midi": 40,
          "name": "E2",
          "ticks": 67200,
          "time": 136.256257,
          "velocity": 0.7874015748031497
        },
        {
          "duration": 0.1949950000000058,
          "durationTicks": 96,
          "midi": 40,
          "name": "E2",
          "ticks": 67296,
          "time": 136.451252,
          "velocity": 0.7874015748031497
        },
        {
          "duration": 0.1949950000000058,
          "durationTicks": 96,
          "midi": 40,
          "name": "E2",
          "ticks": 67392,
          "time": 136.64624700000002,
          "velocity": 0.7874015748031497
        },
        {
          "duration": 0.19499499999997738,
          "durationTicks": 96,
          "midi": 40,
          "name": "E2",
          "ticks": 67488,
          "time": 136.84124200000002,
          "velocity": 0.7874015748031497
        },
        {
          "duration": 0.1949950000000058,
          "durationTicks": 96,
          "midi": 40,
          "name": "E2",
          "ticks": 67584,
          "time": 137.036237,
          "velocity": 0.7874015748031497
        },
        {
          "duration": 0.1949950000000058,
          "durationTicks": 96,
          "midi": 40,
          "name": "E2",
          "ticks": 67680,
          "time": 137.231232,
          "velocity": 0.7874015748031497
        },
        {
          "duration": 0.1949950000000058,
          "durationTicks": 96,
          "midi": 40,
          "name": "E2",
          "ticks": 67776,
          "time": 137.426227,
          "velocity": 0.7874015748031497
        },
        {
          "duration": 0.1949950000000058,
          "durationTicks": 96,
          "midi": 40,
          "name": "E2",
          "ticks": 67872,
          "time": 137.62122200000002,
          "velocity": 0.7874015748031497
        },
        {
          "duration": 0.19499499999997738,
          "durationTicks": 96,
          "midi": 40,
          "name": "E2",
          "ticks": 67968,
          "time": 137.81621700000002,
          "velocity": 0.7874015748031497
        },
        {
          "duration": 0.1949950000000058,
          "durationTicks": 96,
          "midi": 40,
          "name": "E2",
          "ticks": 68064,
          "time": 138.011212,
          "velocity": 0.7874015748031497
        },
        {
          "duration": 0.1949950000000058,
          "durationTicks": 96,
          "midi": 40,
          "name": "E2",
          "ticks": 68160,
          "time": 138.206207,
          "velocity": 0.7874015748031497
        },
        {
          "duration": 0.1949950000000058,
          "durationTicks": 96,
          "midi": 40,
          "name": "E2",
          "ticks": 68256,
          "time": 138.401202,
          "velocity": 0.7874015748031497
        },
        {
          "duration": 0.1949950000000058,
          "durationTicks": 96,
          "midi": 45,
          "name": "A2",
          "ticks": 68352,
          "time": 138.59619700000002,
          "velocity": 0.7874015748031497
        },
        {
          "duration": 0.19499499999997738,
          "durationTicks": 96,
          "midi": 47,
          "name": "B2",
          "ticks": 68448,
          "time": 138.79119200000002,
          "velocity": 0.7874015748031497
        },
        {
          "duration": 0.1949950000000058,
          "durationTicks": 96,
          "midi": 38,
          "name": "D2",
          "ticks": 68544,
          "time": 138.986187,
          "velocity": 0.7874015748031497
        },
        {
          "duration": 0.1949950000000058,
          "durationTicks": 96,
          "midi": 52,
          "name": "E3",
          "ticks": 68640,
          "time": 139.181182,
          "velocity": 0.7874015748031497
        },
        {
          "duration": 0.1949950000000058,
          "durationTicks": 96,
          "midi": 50,
          "name": "D3",
          "ticks": 68736,
          "time": 139.376177,
          "velocity": 0.7874015748031497
        },
        {
          "duration": 0.19499499999997738,
          "durationTicks": 96,
          "midi": 50,
          "name": "D3",
          "ticks": 68832,
          "time": 139.57117200000002,
          "velocity": 0.7874015748031497
        },
        {
          "duration": 0.1949950000000058,
          "durationTicks": 96,
          "midi": 50,
          "name": "D3",
          "ticks": 68928,
          "time": 139.766167,
          "velocity": 0.7874015748031497
        },
        {
          "duration": 0.1949950000000058,
          "durationTicks": 96,
          "midi": 50,
          "name": "D3",
          "ticks": 69024,
          "time": 139.961162,
          "velocity": 0.7874015748031497
        },
        {
          "duration": 0.1949950000000058,
          "durationTicks": 96,
          "midi": 50,
          "name": "D3",
          "ticks": 69120,
          "time": 140.156157,
          "velocity": 0.7874015748031497
        },
        {
          "duration": 0.1949950000000058,
          "durationTicks": 96,
          "midi": 50,
          "name": "D3",
          "ticks": 69216,
          "time": 140.351152,
          "velocity": 0.7874015748031497
        },
        {
          "duration": 0.1949950000000058,
          "durationTicks": 96,
          "midi": 50,
          "name": "D3",
          "ticks": 69312,
          "time": 140.54614700000002,
          "velocity": 0.7874015748031497
        },
        {
          "duration": 0.19499499999997738,
          "durationTicks": 96,
          "midi": 50,
          "name": "D3",
          "ticks": 69408,
          "time": 140.74114200000002,
          "velocity": 0.7874015748031497
        },
        {
          "duration": 0.1949950000000058,
          "durationTicks": 96,
          "midi": 55,
          "name": "G3",
          "ticks": 69504,
          "time": 140.936137,
          "velocity": 0.7874015748031497
        },
        {
          "duration": 0.4874875000000145,
          "durationTicks": 240,
          "midi": 50,
          "name": "D3",
          "ticks": 69600,
          "time": 141.131132,
          "velocity": 0.7874015748031497
        },
        {
          "duration": 0.3899900000000116,
          "durationTicks": 192,
          "midi": 52,
          "name": "E3",
          "ticks": 69840,
          "time": 141.61861950000002,
          "velocity": 0.7874015748031497
        },
        {
          "duration": 0.3899899999999832,
          "durationTicks": 192,
          "midi": 55,
          "name": "G3",
          "ticks": 70032,
          "time": 142.00860950000003,
          "velocity": 0.7874015748031497
        },
        {
          "duration": 0.1949950000000058,
          "durationTicks": 96,
          "midi": 40,
          "name": "E2",
          "ticks": 76368,
          "time": 154.8782795,
          "velocity": 0.7874015748031497
        },
        {
          "duration": 0.1949950000000058,
          "durationTicks": 96,
          "midi": 40,
          "name": "E2",
          "ticks": 76464,
          "time": 155.0732745,
          "velocity": 0.7874015748031497
        },
        {
          "duration": 0.1949950000000058,
          "durationTicks": 96,
          "midi": 40,
          "name": "E2",
          "ticks": 76560,
          "time": 155.2682695,
          "velocity": 0.7874015748031497
        },
        {
          "duration": 0.19499499999997738,
          "durationTicks": 96,
          "midi": 40,
          "name": "E2",
          "ticks": 76656,
          "time": 155.4632645,
          "velocity": 0.7874015748031497
        },
        {
          "duration": 0.1949950000000058,
          "durationTicks": 96,
          "midi": 40,
          "name": "E2",
          "ticks": 76752,
          "time": 155.65825949999999,
          "velocity": 0.7874015748031497
        },
        {
          "duration": 0.1949950000000058,
          "durationTicks": 96,
          "midi": 40,
          "name": "E2",
          "ticks": 76848,
          "time": 155.8532545,
          "velocity": 0.7874015748031497
        },
        {
          "duration": 0.1949950000000058,
          "durationTicks": 96,
          "midi": 40,
          "name": "E2",
          "ticks": 76944,
          "time": 156.0482495,
          "velocity": 0.7874015748031497
        },
        {
          "duration": 0.1949950000000058,
          "durationTicks": 96,
          "midi": 40,
          "name": "E2",
          "ticks": 77040,
          "time": 156.2432445,
          "velocity": 0.7874015748031497
        },
        {
          "duration": 0.19499499999997738,
          "durationTicks": 96,
          "midi": 40,
          "name": "E2",
          "ticks": 77136,
          "time": 156.4382395,
          "velocity": 0.7874015748031497
        },
        {
          "duration": 0.1949950000000058,
          "durationTicks": 96,
          "midi": 40,
          "name": "E2",
          "ticks": 77232,
          "time": 156.6332345,
          "velocity": 0.7874015748031497
        },
        {
          "duration": 0.1949950000000058,
          "durationTicks": 96,
          "midi": 40,
          "name": "E2",
          "ticks": 77328,
          "time": 156.8282295,
          "velocity": 0.7874015748031497
        },
        {
          "duration": 0.1949950000000058,
          "durationTicks": 96,
          "midi": 40,
          "name": "E2",
          "ticks": 77424,
          "time": 157.0232245,
          "velocity": 0.7874015748031497
        },
        {
          "duration": 0.1949950000000058,
          "durationTicks": 96,
          "midi": 45,
          "name": "A2",
          "ticks": 77520,
          "time": 157.2182195,
          "velocity": 0.7874015748031497
        },
        {
          "duration": 0.19499499999997738,
          "durationTicks": 96,
          "midi": 47,
          "name": "B2",
          "ticks": 77616,
          "time": 157.4132145,
          "velocity": 0.7874015748031497
        },
        {
          "duration": 0.1949950000000058,
          "durationTicks": 96,
          "midi": 38,
          "name": "D2",
          "ticks": 77712,
          "time": 157.6082095,
          "velocity": 0.7874015748031497
        },
        {
          "duration": 0.1949950000000058,
          "durationTicks": 96,
          "midi": 52,
          "name": "E3",
          "ticks": 77808,
          "time": 157.8032045,
          "velocity": 0.7874015748031497
        },
        {
          "duration": 0.1949950000000058,
          "durationTicks": 96,
          "midi": 50,
          "name": "D3",
          "ticks": 77904,
          "time": 157.9981995,
          "velocity": 0.7874015748031497
        },
        {
          "duration": 0.1949950000000058,
          "durationTicks": 96,
          "midi": 50,
          "name": "D3",
          "ticks": 78000,
          "time": 158.1931945,
          "velocity": 0.7874015748031497
        },
        {
          "duration": 0.19499499999997738,
          "durationTicks": 96,
          "midi": 50,
          "name": "D3",
          "ticks": 78096,
          "time": 158.3881895,
          "velocity": 0.7874015748031497
        },
        {
          "duration": 0.1949950000000058,
          "durationTicks": 96,
          "midi": 50,
          "name": "D3",
          "ticks": 78192,
          "time": 158.5831845,
          "velocity": 0.7874015748031497
        },
        {
          "duration": 0.1949950000000058,
          "durationTicks": 96,
          "midi": 50,
          "name": "D3",
          "ticks": 78288,
          "time": 158.7781795,
          "velocity": 0.7874015748031497
        },
        {
          "duration": 0.1949950000000058,
          "durationTicks": 96,
          "midi": 50,
          "name": "D3",
          "ticks": 78384,
          "time": 158.9731745,
          "velocity": 0.7874015748031497
        },
        {
          "duration": 0.19499499999997738,
          "durationTicks": 96,
          "midi": 50,
          "name": "D3",
          "ticks": 78480,
          "time": 159.1681695,
          "velocity": 0.7874015748031497
        },
        {
          "duration": 0.1949950000000058,
          "durationTicks": 96,
          "midi": 50,
          "name": "D3",
          "ticks": 78576,
          "time": 159.36316449999998,
          "velocity": 0.7874015748031497
        },
        {
          "duration": 0.1949950000000058,
          "durationTicks": 96,
          "midi": 55,
          "name": "G3",
          "ticks": 78672,
          "time": 159.5581595,
          "velocity": 0.7874015748031497
        },
        {
          "duration": 0.4874875000000145,
          "durationTicks": 240,
          "midi": 50,
          "name": "D3",
          "ticks": 78768,
          "time": 159.7531545,
          "velocity": 0.7874015748031497
        },
        {
          "duration": 0.3899900000000116,
          "durationTicks": 192,
          "midi": 52,
          "name": "E3",
          "ticks": 79008,
          "time": 160.240642,
          "velocity": 0.7874015748031497
        },
        {
          "duration": 0.3899899999999832,
          "durationTicks": 192,
          "midi": 55,
          "name": "G3",
          "ticks": 79200,
          "time": 160.63063200000002,
          "velocity": 0.7874015748031497
        },
        {
          "duration": 0.1949950000000058,
          "durationTicks": 96,
          "midi": 40,
          "name": "E2",
          "ticks": 79392,
          "time": 161.020622,
          "velocity": 0.7874015748031497
        },
        {
          "duration": 0.1949950000000058,
          "durationTicks": 96,
          "midi": 40,
          "name": "E2",
          "ticks": 79488,
          "time": 161.215617,
          "velocity": 0.7874015748031497
        },
        {
          "duration": 0.1949950000000058,
          "durationTicks": 96,
          "midi": 40,
          "name": "E2",
          "ticks": 79584,
          "time": 161.41061200000001,
          "velocity": 0.7874015748031497
        },
        {
          "duration": 0.19499499999997738,
          "durationTicks": 96,
          "midi": 40,
          "name": "E2",
          "ticks": 79680,
          "time": 161.60560700000002,
          "velocity": 0.7874015748031497
        },
        {
          "duration": 0.1949950000000058,
          "durationTicks": 96,
          "midi": 40,
          "name": "E2",
          "ticks": 79776,
          "time": 161.800602,
          "velocity": 0.7874015748031497
        },
        {
          "duration": 0.1949950000000058,
          "durationTicks": 96,
          "midi": 40,
          "name": "E2",
          "ticks": 79872,
          "time": 161.995597,
          "velocity": 0.7874015748031497
        },
        {
          "duration": 0.1949950000000058,
          "durationTicks": 96,
          "midi": 40,
          "name": "E2",
          "ticks": 79968,
          "time": 162.190592,
          "velocity": 0.7874015748031497
        },
        {
          "duration": 0.1949950000000058,
          "durationTicks": 96,
          "midi": 40,
          "name": "E2",
          "ticks": 80064,
          "time": 162.38558700000002,
          "velocity": 0.7874015748031497
        },
        {
          "duration": 0.19499499999997738,
          "durationTicks": 96,
          "midi": 40,
          "name": "E2",
          "ticks": 80160,
          "time": 162.58058200000002,
          "velocity": 0.7874015748031497
        },
        {
          "duration": 0.1949950000000058,
          "durationTicks": 96,
          "midi": 40,
          "name": "E2",
          "ticks": 80256,
          "time": 162.775577,
          "velocity": 0.7874015748031497
        },
        {
          "duration": 0.1949950000000058,
          "durationTicks": 96,
          "midi": 40,
          "name": "E2",
          "ticks": 80352,
          "time": 162.970572,
          "velocity": 0.7874015748031497
        },
        {
          "duration": 0.1949950000000058,
          "durationTicks": 96,
          "midi": 40,
          "name": "E2",
          "ticks": 80448,
          "time": 163.165567,
          "velocity": 0.7874015748031497
        },
        {
          "duration": 0.1949950000000058,
          "durationTicks": 96,
          "midi": 45,
          "name": "A2",
          "ticks": 80544,
          "time": 163.36056200000002,
          "velocity": 0.7874015748031497
        },
        {
          "duration": 0.19499499999997738,
          "durationTicks": 96,
          "midi": 47,
          "name": "B2",
          "ticks": 80640,
          "time": 163.55555700000002,
          "velocity": 0.7874015748031497
        },
        {
          "duration": 0.1949950000000058,
          "durationTicks": 96,
          "midi": 50,
          "name": "D3",
          "ticks": 80736,
          "time": 163.750552,
          "velocity": 0.7874015748031497
        },
        {
          "duration": 0.1949950000000058,
          "durationTicks": 96,
          "midi": 52,
          "name": "E3",
          "ticks": 80832,
          "time": 163.945547,
          "velocity": 0.7874015748031497
        },
        {
          "duration": 0.1949950000000058,
          "durationTicks": 96,
          "midi": 50,
          "name": "D3",
          "ticks": 80928,
          "time": 164.140542,
          "velocity": 0.7874015748031497
        },
        {
          "duration": 0.19499499999997738,
          "durationTicks": 96,
          "midi": 50,
          "name": "D3",
          "ticks": 81024,
          "time": 164.33553700000002,
          "velocity": 0.7874015748031497
        },
        {
          "duration": 0.1949950000000058,
          "durationTicks": 96,
          "midi": 50,
          "name": "D3",
          "ticks": 81120,
          "time": 164.530532,
          "velocity": 0.7874015748031497
        },
        {
          "duration": 0.1949950000000058,
          "durationTicks": 96,
          "midi": 50,
          "name": "D3",
          "ticks": 81216,
          "time": 164.725527,
          "velocity": 0.7874015748031497
        },
        {
          "duration": 0.1949950000000058,
          "durationTicks": 96,
          "midi": 50,
          "name": "D3",
          "ticks": 81312,
          "time": 164.920522,
          "velocity": 0.7874015748031497
        },
        {
          "duration": 0.1949950000000058,
          "durationTicks": 96,
          "midi": 50,
          "name": "D3",
          "ticks": 81408,
          "time": 165.115517,
          "velocity": 0.7874015748031497
        },
        {
          "duration": 0.1949950000000058,
          "durationTicks": 96,
          "midi": 50,
          "name": "D3",
          "ticks": 81504,
          "time": 165.31051200000002,
          "velocity": 0.7874015748031497
        },
        {
          "duration": 0.19499499999997738,
          "durationTicks": 96,
          "midi": 50,
          "name": "D3",
          "ticks": 81600,
          "time": 165.50550700000002,
          "velocity": 0.7874015748031497
        },
        {
          "duration": 0.1949950000000058,
          "durationTicks": 96,
          "midi": 43,
          "name": "G2",
          "ticks": 81696,
          "time": 165.700502,
          "velocity": 0.7874015748031497
        },
        {
          "duration": 0.4874875000000145,
          "durationTicks": 240,
          "midi": 38,
          "name": "D2",
          "ticks": 81792,
          "time": 165.895497,
          "velocity": 0.7874015748031497
        },
        {
          "duration": 1.8524524999999983,
          "durationTicks": 912,
          "midi": 40,
          "name": "E2",
          "ticks": 82032,
          "time": 166.38298450000002,
          "velocity": 0.7874015748031497
        }
      ]
    }
  ]
}